<?xml version="1.0" standalone="no"?>
<!DOCTYPE svg PUBLIC "-//W3C//DTD SVG 1.1//EN" "http://www.w3.org/Graphics/SVG/1.1/DTD/svg11.dtd">
<svg xmlns="http://www.w3.org/2000/svg" xmlns:cc="http://creativecommons.org/ns#" xmlns:dc="http://purl.org/dc/elements/1.1/" xmlns:rdf="http://www.w3.org/1999/02/22-rdf-syntax-ns#" width="507" height="99" version="1.1" viewBox="0 0 507 99">
 <!-- Generator: Sketch 50.2 (55047) - http://www.bohemiancoding.com/sketch -->
 <title>ifb-horizontal</title>
 <desc>Created with Sketch.</desc>
 <g id="ifb-horizontal" fill="none" fill-rule="evenodd">
  <g id="ifbi-horizontal" transform="translate(19.5 25)" fill-rule="nonzero">
   <path id="Shape" d="m50.403 25.032s-1.348 7.014-3.574 14.927c-2.033 8.739-10.304 8.399-10.304 8.399h-13.666s1.145-6.098 3.574-14.93c2.632-8.646 9.67-8.396 9.67-8.396h14.3z" fill="#EE3124"/>
   <g fill="#000">
    <g stroke="#000" stroke-width=".9863">
     <path d="m12.109 1.225h43.854l-5.247 20.899h-14.9s-10.519-0.608-12.65 9.436c-2.438 9.533-4.03 15.601-4.03 15.601h-18.742l11.715-45.936z"/>
     <path d="m59.847 1.154h24.543s9.512-0.527 9.324 10.075c0.056 10.484-9.324 10.844-9.324 10.844h-29.87l5.327-20.919z"/>
     <path d="m53.762 25.9h23.742s9.026-0.39 9.553 10.403c-0.375 11.272-9.648 10.868-9.648 10.868h-29.133l5.486-21.271z"/>
    </g>
    <path d="m87.588 45.191c0-1.243 1.017-2.258 2.271-2.258 1.248 0 2.257 1.016 2.257 2.258 0 1.253-1.009 2.269-2.257 2.269-1.255-1e-3 -2.271-1.016-2.271-2.269zm4.168 0c0-1.101-0.798-1.961-1.897-1.961-1.106 0-1.912 0.86-1.912 1.961 0 1.111 0.805 1.97 1.912 1.97 1.099 0 1.897-0.859 1.897-1.97zm-0.769 1.263h-0.371l-0.723-1.16h-0.568v1.16h-0.311v-2.527h1.107c0.667 0 0.895 0.254 0.895 0.674 0 0.494-0.347 0.678-0.795 0.693l0.766 1.16zm-1.188-1.41c0.354 0 0.885 0.061 0.885-0.453 0-0.396-0.324-0.446-0.632-0.446h-0.726v0.898h0.473v1e-3z"/>
    <g stroke="#000" stroke-width=".57">
     <path d="m104.4 28.052c-0.634-0.451-0.751-0.603-0.711-0.81 0.024-0.122 0.111-0.274 0.244-0.329h0.09 0.029l0.956 0.028h10.725c2.435 0 3.911 0.271 4.902 0.9 1.167 0.782 1.769 2.463 1.445 4.116-0.389 1.982-1.475 3.218-3.823 4.326 1.617 0.782 2.167 1.353 2.545 2.494 0.239 0.782 0.277 1.652 0.105 2.523-0.384 1.954-1.774 3.842-3.479 4.716-1.338 0.691-2.838 0.99-5.121 0.99h-10.786c-1.623 0-1.711 0-1.771-0.146-8e-3 -0.122-8e-3 -0.122 0.01-0.213 0.064-0.329 0.339-0.512 1.129-0.689l3.511-17.906zm8.024 16.372c3.002 0 4.59-1.054 5.04-3.337 0.412-2.101-0.987-3.391-3.718-3.391h-7.874l-1.319 6.728h7.871zm1.365-9.249c2.821 0 4.512-0.962 4.879-2.829 0.353-1.804-1.038-2.822-3.771-2.822h-7.421l-1.108 5.65h7.421v1e-3z"/>
     <path d="m129.33 38.777c-0.376 1.92-0.414 2.883-0.124 3.693 0.577 1.503 2.46 2.314 5.404 2.314 4.657 0 6.952-1.59 7.69-5.344l0.117-0.602 2.08-10.609c-0.657-0.329-0.948-0.688-0.891-0.957 0.044-0.243 0.129-0.213 0.284-0.243h0.03c0.09 0 0.208 0 0.325 0.03 0.588 0.061 1.335 0.091 2.265 0.091 0.69 0 1.238-0.03 1.696-0.061l0.365-0.03h0.151c0.209 0 0.313 0.091 0.291 0.213-0.048 0.238-0.293 0.42-0.984 0.719-0.036 0.03-0.097 0.03-0.197 0.091l-2.074 10.575-0.177 0.901c-0.815 4.141-2.956 6.336-7.176 7.328-1.382 0.302-2.823 0.451-4.325 0.451-2.884 0-5.146-0.42-6.506-1.293-1.624-1.05-2.338-3.246-1.841-5.766l0.146-0.75 2.25-11.477-0.193-0.091c-0.534-0.183-0.754-0.42-0.699-0.719 0.032-0.152 0.144-0.274 0.293-0.274 0.091 0 0.205 0.031 0.351 0.061 0.522 0.091 1.142 0.152 1.863 0.152 0.661 0 1.603-0.061 2.28-0.152 0.127-0.03 0.249-0.03 0.307-0.03 0.211 0 0.313 0.091 0.292 0.213-0.055 0.268-0.509 0.603-1.188 0.84l-2.105 10.726z"/>
     <path d="m153.72 28.083-0.05-0.061c-0.617-0.359-0.85-0.572-0.806-0.78 0.035-0.183 0.208-0.301 0.359-0.301h0.027l1.037 0.088h0.541 10.484 0.15c3.335 0 4.906 0.724 5.73 2.643 0.301 0.782 0.38 1.747 0.175 2.765-0.629 3.215-3.138 5.291-6.925 5.769l3.953 7.87h0.208c0.784 0.152 1.155 0.396 1.08 0.786-0.029 0.146-0.095 0.177-0.367 0.177h-0.058l-2.691-0.061-2.35 0.03c-0.178 0-0.255-0.089-0.212-0.299 0.048-0.238 0.166-0.39 0.543-0.633l-3.95-7.903h-5.524l-1.549 7.903c0.053 0.031 0.114 0.031 0.169 0.061 0.552 0.243 0.708 0.359 0.649 0.664-0.034 0.177-0.203 0.269-0.442 0.269-0.061 0-0.149 0-0.262-0.031-0.8-0.061-1.576-0.091-2.355-0.091-0.42 0-1.057 0.03-1.906 0.061h-0.24-0.028c-0.147-0.03-0.206-0.03-0.171-0.208 0.04-0.363 0.284-0.542 1.125-0.841 0.043-0.063 0.067-0.036 0.171-0.091l3.485-17.786zm10 7.357h0.151c2.256 0 3.821-1.111 4.189-2.974 0.329-1.682-0.763-2.85-2.652-2.85h-0.154-8.531l-1.144 5.824h8.141z"/>
     <path d="m176.88 27.93c-0.595-0.177-0.855-0.39-0.801-0.658 0.023-0.122 0.191-0.213 0.492-0.213h0.089c0.298 0.03 0.625 0.03 1.016 0.03h17.333c0.228-0.243 0.359-0.304 0.542-0.304 0.177 0 0.24 0.155 0.187 0.426-0.025 0.116-0.025 0.116-0.035 0.177l-0.357 1.201c-0.011 0.063-0.011 0.063-0.015 0.091-0.031 0.151-0.064 0.632-0.079 0.992 0.025 0.183 0.022 0.365-0.011 0.512l-2e-3 0.03c-0.048 0.24-0.19 0.364-0.372 0.364-0.183 0-0.256-0.06-0.467-0.541-0.018-0.061-0.083-0.182-0.152-0.304h-14.387l-1.043 5.318h13.34c0.159-0.508 0.365-0.782 0.633-0.782 0.24 0 0.344 0.24 0.271 0.603-0.013 0.061-0.013 0.061-0.015 0.091l-0.15 0.448-0.266 1.202-0.028 0.152c-0.081 0.39-0.116 0.75-0.116 1.051-0.013 0.209-0.02 0.39-0.043 0.511-0.016 0.088-0.124 0.18-0.304 0.18-0.301 0-0.458-0.269-0.509-0.779h-13.309l-1.309 6.667h14.691c0.052-0.122 0.083-0.122 0.118-0.152 0.183-0.147 0.293-0.269 0.336-0.33 0.048-0.089 0.074-0.059 0.226-0.089 0.273 0 0.345 0.089 0.304 0.299-0.02 0.091-0.035 0.18-0.058 0.302-0.109 0.238-0.126 0.332-0.19 0.661-0.043 0.209-0.083 0.422-0.106 0.691-0.111 0.569-0.163 0.993-0.213 1.23-0.02 0.124-0.02 0.124-0.027 0.152-0.053 0.268-0.173 0.419-0.327 0.419-0.208 0-0.324-0.177-0.46-0.541h-18.237c-0.779 0-0.87 0-0.918-0.061 0.025-0.116-0.011-0.089 5e-3 -0.177 0.045-0.241 0.187-0.329 0.888-0.542 0.036-0.03 0.127-0.03 0.257-0.091l3.578-18.236z"/>
     <path d="m207.13 27.328c0.04-0.208 0.223-0.36 0.428-0.36 0.031 0 0.146 0.031 0.557 0.091 0.172 0.03 0.475 0.03 0.866 0.03h1.501 0.873c0.477 0 0.928 0 1.296-0.03h0.208c0.139 0.061 0.228 0.061 0.205 0.183-0.043 0.208-0.232 0.42-0.555 0.688l4.541 18.028c0.143 0.059 0.218 0.116 0.278 0.116 0.755 0.304 0.856 0.396 0.798 0.694-0.041 0.208-0.114 0.268-0.293 0.268h-0.031l-0.387-0.03c-0.117 0-0.319-0.03-0.654-0.03-0.242 0.03-0.541 0-0.931 0-0.806-0.03-1.127-0.059-1.367-0.059-0.514 0-1.005 0.059-1.46 0.089-0.221 0.03-0.375 0.061-0.494 0.061-0.177 0-0.278-0.091-0.248-0.269 0.035-0.183 0.119-0.304 0.284-0.363 0.237-0.149 0.404-0.24 0.843-0.478l-1.086-4.119h-10.364l-2.668 4.119 0.273 0.147 0.37 0.24 0.086 0.034c0.045 0.058 0.07 0.238 0.035 0.42-0.04 0.208-0.07 0.208-0.248 0.208h-0.603c-0.708-0.061-1.605-0.089-2.505-0.089-0.815 0-1.479 0.028-1.874 0.059l-0.309 0.03h-0.03c-0.142-0.03-0.177 0-0.174-0.183l-8e-3 -0.116c0.071-0.363 0.183-0.451 1.03-0.664 0.063 0 0.16-0.027 0.289-0.086l11.772-18.028c-0.191-0.267-0.274-0.45-0.244-0.601zm4.561 11.808-2.235-9.282-5.933 9.282h8.168z"/>
     <path d="m225.83 38.777c-0.375 1.92-0.415 2.883-0.122 3.693 0.575 1.503 2.461 2.314 5.402 2.314 4.658 0 6.954-1.59 7.689-5.344l0.116-0.602 2.079-10.609c-0.655-0.329-0.941-0.688-0.892-0.957 0.049-0.243 0.132-0.213 0.289-0.243h0.033c0.086 0 0.204 0 0.324 0.03 0.587 0.061 1.331 0.091 2.266 0.091 0.69 0 1.234-0.03 1.688-0.061l0.37-0.03h0.146c0.213 0 0.313 0.091 0.294 0.213-0.046 0.238-0.294 0.42-0.982 0.719-0.036 0.03-0.097 0.03-0.2 0.091l-2.076 10.575-0.174 0.901c-0.811 4.141-2.952 6.336-7.177 7.328-1.38 0.302-2.822 0.451-4.321 0.451-2.885 0-5.148-0.42-6.508-1.293-1.627-1.05-2.336-3.246-1.843-5.766l0.147-0.75 2.25-11.477-0.191-0.091c-0.531-0.183-0.76-0.42-0.699-0.719 0.03-0.152 0.145-0.274 0.293-0.274 0.092 0 0.203 0.031 0.35 0.061 0.521 0.091 1.139 0.152 1.863 0.152 0.658 0 1.602-0.061 2.283-0.152 0.124-0.03 0.246-0.03 0.303-0.03 0.213 0 0.314 0.091 0.292 0.213-0.054 0.268-0.509 0.603-1.187 0.84l-2.105 10.726z"/>
     <path d="m260.01 27.991-0.057-0.03c-0.729-0.269-0.83-0.36-0.782-0.598 0.047-0.243 0.17-0.422 0.32-0.422l0.503 0.058 0.927 0.03 0.891 0.03c0.147 0.03 0.296 0.03 0.477 0.03 0.541 0 1.204-0.03 1.632-0.061l0.34-0.03h0.056c0.213 0 0.256 0.091 0.22 0.273-0.078 0.39-0.452 0.628-1.134 0.719l-3.534 18.025c0.752 0.301 0.856 0.392 0.783 0.752-0.041 0.208-0.143 0.268-0.383 0.268-0.151 0-0.299 0-0.447-0.03-0.836-0.03-1.431-0.061-1.852-0.061-0.358 0-1.027 0.03-1.969 0.091-0.269 0-0.397 0.031-0.426 0.031-0.213 0-0.286-0.061-0.25-0.244 0.078-0.415 0.291-0.567 1.148-0.807l3.537-18.024z"/>
     <path d="m269.56 27.961-0.083-0.031c-0.598-0.177-0.852-0.42-0.79-0.719 0.033-0.183 0.2-0.271 0.506-0.271 0.054 0 0.146 0 0.318 0.027 1.183 0.091 2.019 0.122 2.502 0.122 0.721 0 1.604-0.061 2.592-0.177 0.213-0.036 0.362-0.036 0.455-0.036 0.238 0 0.372 0.091 0.335 0.273-0.058 0.299-0.099 0.359-0.43 0.811l8.059 14.21 2.787-14.21c-0.716-0.183-0.974-0.39-0.892-0.811 0.073-0.209 0.125-0.183 0.31-0.209h0.213c0.649 0.058 1.272 0.088 1.905 0.088 0.481 0 0.99 0 1.564-0.03 0.459-0.031 0.727-0.031 0.846-0.031 0.335 0 0.496 0.091 0.464 0.274-0.064 0.329-0.512 0.6-1.197 0.719l-3.547 18.083 0.147 0.03c0.503 0.183 0.731 0.396 0.675 0.694-0.04 0.208-0.202 0.268-0.478 0.268-0.115 0-0.33 0-0.563-0.03-0.478 0-1.134-0.03-1.891-0.03-0.623 0-1.199 0-1.713 0.03h-0.546c-0.389 0-0.578-0.089-0.541-0.269 0.038-0.212 0.086-0.302 0.52-0.664l-8.81-15.739-3.064 15.623 0.172 0.059c0.49 0.24 0.641 0.392 0.579 0.691-0.048 0.269-0.121 0.329-0.332 0.329-0.032 0-0.172-0.03-0.415-0.03-0.835-0.03-1.491-0.061-1.972-0.061-0.301 0-0.782 0-1.448 0.03-0.151 0-0.273 0.03-0.338 0.03h-0.389c-0.24 0-0.369-0.089-0.342-0.238 0.054-0.274 0.329-0.451 1.109-0.782 0.075-0.064 0.099-0.028 0.2-0.091l3.523-17.932z"/>
     <path d="m299.77 44.573c3.217 0 6.392-1.653 6.751-3.455 0.304-1.559-0.978-2.375-4.369-2.853l-2.515-0.36c-2.718-0.392-4.143-0.782-5.123-1.442-1.107-0.783-1.632-2.25-1.315-3.875 0.718-3.666 4.74-6.101 10.092-6.101 2.552 0 4.334 0.426 6.999 1.687 0.216-0.03 0.284-0.061 0.54-0.152 0.191-0.061 0.347-0.091 0.467-0.091s0.256 0.091 0.325 0.213c-0.021 0.086 8e-3 0.086 2e-3 0.122-0.016 0.086-0.067 0.177-0.237 0.298-0.634 0.603-1.588 1.803-2.44 3.093-0.099 0.183-0.2 0.238-0.319 0.238-0.179 0-0.192-0.086-0.22-1.018l7e-3 -0.211c-1.837-1.023-3.322-1.414-5.303-1.414-3.458 0-6.085 1.292-6.452 3.185-0.156 0.784 0.23 1.412 1.121 1.777 0.944 0.39 1.294 0.445 4.531 0.932 3.649 0.536 4.959 0.931 6.271 1.888 1.051 0.782 1.584 2.344 1.288 3.847-0.747 3.815-4.886 6.367-10.322 6.367-2.464 0-4.937-0.423-8.458-1.589l-0.104 0.058c-0.473 0.271-0.646 0.359-0.793 0.359-0.095-0.116-0.222-0.088-0.189-0.268 0.036-0.149 0.172-0.39 0.378-0.664l0.669-0.81c0.355-0.451 0.819-1.111 1.279-1.952 0.324-0.569 0.397-0.661 0.58-0.661 0.152 0 0.192 0.091 0.173 0.36l-0.079 0.688 3e-3 0.151c2.076 1.054 4.63 1.653 6.762 1.653z"/>
     <path d="m317.97 38.777c-0.371 1.92-0.415 2.883-0.118 3.693 0.574 1.503 2.46 2.314 5.404 2.314 4.655 0 6.945-1.59 7.688-5.344l0.119-0.602 2.078-10.609c-0.656-0.329-0.944-0.688-0.896-0.957 0.049-0.243 0.135-0.213 0.291-0.243h0.028c0.089 0 0.213 0 0.326 0.03 0.59 0.061 1.336 0.091 2.263 0.091 0.694 0 1.238-0.03 1.691-0.061l0.372-0.03h0.149c0.21 0 0.313 0.091 0.291 0.213-0.049 0.238-0.296 0.42-0.984 0.719-0.036 0.03-0.099 0.03-0.195 0.091l-2.075 10.575-0.176 0.901c-0.819 4.141-2.956 6.336-7.186 7.328-1.375 0.302-2.817 0.451-4.321 0.451-2.88 0-5.138-0.42-6.503-1.293-1.628-1.05-2.337-3.246-1.84-5.766l0.147-0.75 2.249-11.477-0.191-0.091c-0.535-0.183-0.761-0.42-0.699-0.719 0.028-0.152 0.14-0.274 0.291-0.274 0.089 0 0.206 0.031 0.35 0.061 0.527 0.091 1.145 0.152 1.865 0.152 0.659 0 1.603-0.061 2.278-0.152 0.129-0.03 0.248-0.03 0.312-0.03 0.207 0 0.314 0.091 0.284 0.213-0.054 0.268-0.51 0.603-1.183 0.84l-2.109 10.726z"/>
     <path d="m342.36 28.083-0.048-0.061c-0.621-0.359-0.846-0.572-0.805-0.78 0.03-0.183 0.209-0.301 0.361-0.301h0.025l1.035 0.088h0.537 10.489 0.146c3.337 0 4.908 0.724 5.731 2.643 0.301 0.782 0.38 1.747 0.175 2.765-0.626 3.215-3.135 5.291-6.923 5.769l3.953 7.87h0.205c0.788 0.152 1.154 0.396 1.083 0.786-0.032 0.146-0.101 0.177-0.366 0.177h-0.058l-2.693-0.061-2.348 0.03c-0.182 0-0.258-0.089-0.213-0.299 0.043-0.238 0.168-0.39 0.542-0.633l-3.948-7.903h-5.526l-1.549 7.903c0.054 0.031 0.114 0.031 0.17 0.061 0.555 0.243 0.708 0.359 0.646 0.664-0.03 0.177-0.198 0.269-0.44 0.269-0.059 0-0.149 0-0.261-0.031-0.806-0.061-1.58-0.091-2.356-0.091-0.423 0-1.056 0.03-1.909 0.061h-0.238-0.03c-0.144-0.03-0.202-0.03-0.167-0.208 0.04-0.363 0.283-0.542 1.126-0.841 0.047-0.063 0.066-0.036 0.165-0.091l3.489-17.786zm10.003 7.357h0.152c2.251 0 3.82-1.111 4.187-2.974 0.33-1.682-0.759-2.85-2.651-2.85h-0.15-8.528l-1.148 5.824h8.138z"/>
     <path d="m372.04 27.328c0.038-0.208 0.221-0.36 0.426-0.36 0.033 0 0.147 0.031 0.555 0.091 0.18 0.03 0.475 0.03 0.87 0.03h1.499 0.868c0.481 0 0.935 0 1.299-0.03h0.212c0.138 0.061 0.23 0.061 0.211 0.183-0.049 0.208-0.238 0.42-0.561 0.688l4.545 18.028c0.139 0.059 0.215 0.116 0.272 0.116 0.757 0.304 0.858 0.396 0.8 0.694-0.043 0.208-0.116 0.268-0.296 0.268h-0.024l-0.389-0.03c-0.116 0-0.323-0.03-0.654-0.03-0.244 0.03-0.543 0-0.933 0-0.805-0.03-1.129-0.059-1.372-0.059-0.505 0-1.002 0.059-1.455 0.089-0.215 0.03-0.374 0.061-0.494 0.061-0.179 0-0.282-0.091-0.247-0.269 0.035-0.183 0.118-0.304 0.283-0.363 0.235-0.149 0.408-0.24 0.843-0.478l-1.086-4.119h-10.366l-2.667 4.119 0.27 0.147 0.373 0.24 0.089 0.034c0.045 0.058 0.065 0.238 0.037 0.42-0.043 0.208-0.075 0.208-0.252 0.208h-0.601c-0.709-0.061-1.607-0.089-2.508-0.089-0.811 0-1.477 0.028-1.879 0.059l-0.297 0.03h-0.034c-0.147-0.03-0.186 0-0.179-0.183l-7e-3 -0.116c0.073-0.363 0.183-0.451 1.032-0.664 0.064 0 0.157-0.027 0.295-0.086l11.762-18.028c-0.184-0.267-0.27-0.45-0.24-0.601zm4.565 11.808-2.234-9.282-5.942 9.282h8.176z"/>
     <path d="m390.36 27.961-0.083-0.031c-0.604-0.177-0.852-0.42-0.796-0.719 0.039-0.183 0.205-0.271 0.504-0.271 0.061 0 0.154 0 0.326 0.027 1.186 0.091 2.021 0.122 2.501 0.122 0.72 0 1.607-0.061 2.59-0.177 0.216-0.036 0.364-0.036 0.456-0.036 0.243 0 0.37 0.091 0.336 0.273-0.058 0.299-0.101 0.359-0.428 0.811l8.058 14.21 2.79-14.21c-0.717-0.183-0.98-0.39-0.894-0.811 0.068-0.209 0.12-0.183 0.309-0.209h0.207c0.651 0.058 1.279 0.088 1.909 0.088 0.476 0 0.989 0 1.569-0.03 0.453-0.031 0.724-0.031 0.845-0.031 0.329 0 0.494 0.091 0.454 0.274-0.057 0.329-0.507 0.6-1.185 0.719l-3.552 18.083 0.148 0.03c0.499 0.183 0.73 0.396 0.671 0.694-0.045 0.208-0.204 0.268-0.473 0.268-0.119 0-0.332 0-0.564-0.03-0.481 0-1.142-0.03-1.889-0.03-0.63 0-1.202 0-1.719 0.03h-0.539c-0.39 0-0.582-0.089-0.549-0.269 0.043-0.212 0.091-0.302 0.521-0.664l-8.809-15.739-3.065 15.623 0.168 0.059c0.496 0.24 0.647 0.392 0.592 0.691-0.059 0.269-0.127 0.329-0.337 0.329-0.035 0-0.178-0.03-0.42-0.03-0.833-0.03-1.486-0.061-1.97-0.061-0.299 0-0.779 0-1.447 0.03-0.147 0-0.273 0.03-0.335 0.03h-0.392c-0.238 0-0.375-0.089-0.345-0.238 0.053-0.274 0.329-0.451 1.116-0.782 0.071-0.064 0.097-0.028 0.2-0.091l3.521-17.932z"/>
     <path d="m427.99 29.553c-0.929-0.333-1.857-0.479-2.819-0.479-4.538 0-8.58 3.306-9.454 7.751-0.876 4.475 1.848 7.748 6.412 7.748 1.776 0 3.72-0.569 5.257-1.532 0.653-0.419 1.46-0.989 2.41-1.71 0.116-0.299 0.189-0.512 0.189-0.659 0.023-0.127 0.023-0.127 0.036-0.185 0.048-0.241 0.131-0.209 0.291-0.241 0.056 0 0.149 0 0.172 0.031l0.329 0.632 0.706 1.288 0.405 0.843 0.19 0.393c0.02 0.056 0.02 0.056 0.018 0.088-0.049 0.24-0.337 0.331-1.056 0.331-1.496 1.02-2.049 1.38-2.777 1.742-2.04 1.051-4.586 1.622-6.991 1.622-6.366 0-10.136-4.356-8.953-10.393 1.207-6.161 6.586-10.455 13.106-10.455 2.762 0 4.663 0.57 7.064 2.102 0.378 0.242 0.806 0.511 1.254 0.81 0.218-0.031 0.397-0.031 0.55-0.031 0.356 0 0.521 0.091 0.485 0.274-0.018 0.091-0.104 0.208-0.217 0.329l-1.684 1.711c-0.224 0.213-0.492 0.511-0.712 0.871-0.253 0.365-0.399 0.481-0.575 0.481-0.239 0-0.351-0.208-0.28-0.57 0.035-0.179 0.068-0.361 0.145-0.569-1.369-1.292-2.042-1.709-3.501-2.223z"/>
     <path d="m439.45 27.93c-0.598-0.177-0.853-0.39-0.802-0.658 0.024-0.122 0.191-0.213 0.493-0.213h0.086c0.296 0.03 0.631 0.03 1.021 0.03h17.329c0.229-0.243 0.364-0.304 0.539-0.304 0.185 0 0.243 0.155 0.189 0.426-0.024 0.116-0.024 0.116-0.032 0.177l-0.359 1.201c-0.011 0.063-0.011 0.063-0.016 0.091-0.027 0.151-0.065 0.632-0.073 0.992 0.024 0.183 0.018 0.365-0.01 0.512l-9e-3 0.03c-0.05 0.24-0.189 0.364-0.368 0.364-0.185 0-0.262-0.06-0.464-0.541-0.02-0.061-0.089-0.182-0.152-0.304h-14.393l-1.042 5.318h13.336c0.165-0.508 0.365-0.782 0.636-0.782 0.238 0 0.345 0.24 0.273 0.603-0.01 0.061-0.01 0.061-0.018 0.091l-0.152 0.448-0.263 1.202-0.027 0.152c-0.082 0.39-0.12 0.75-0.12 1.051-9e-3 0.209-0.012 0.39-0.037 0.511-0.021 0.088-0.124 0.18-0.31 0.18-0.298 0-0.455-0.269-0.503-0.779h-13.308l-1.312 6.667h14.692c0.051-0.122 0.081-0.122 0.116-0.152 0.185-0.147 0.294-0.269 0.34-0.33 0.043-0.089 0.068-0.059 0.228-0.089 0.269 0 0.344 0.089 0.299 0.299-0.021 0.091-0.033 0.18-0.059 0.302-0.109 0.238-0.124 0.332-0.192 0.661-0.041 0.209-0.08 0.422-0.104 0.691-0.111 0.569-0.17 0.993-0.211 1.23-0.024 0.124-0.024 0.124-0.03 0.152-0.056 0.268-0.172 0.419-0.324 0.419-0.209 0-0.323-0.177-0.46-0.541h-18.238c-0.782 0-0.87 0-0.918-0.061 0.021-0.116-0.017-0.089 7e-3 -0.177 0.045-0.241 0.185-0.329 0.884-0.542 0.032-0.03 0.126-0.03 0.26-0.091l3.578-18.236z"/>
    </g>
    <path d="m461.42 29.535c0-1.664 1.354-3.022 3.029-3.022s3.022 1.358 3.022 3.022c0 1.675-1.347 3.035-3.022 3.035s-3.029-1.36-3.029-3.035zm5.57 0c0-1.471-1.07-2.623-2.541-2.623-1.473 0-2.554 1.152-2.554 2.623 0 1.48 1.081 2.632 2.554 2.632 1.471 0 2.541-1.151 2.541-2.632zm-1.027 1.691h-0.499l-0.966-1.557h-0.755v1.557h-0.418v-3.376h1.48c0.892 0 1.197 0.333 1.197 0.893 0 0.661-0.46 0.911-1.067 0.927l1.028 1.556zm-1.587-1.884c0.478 0 1.18 0.079 1.18-0.607 0-0.529-0.43-0.592-0.846-0.592h-0.967v1.199h0.633z"/>
    <g stroke="#000" stroke-width=".57">
     <path d="m261.56 1.822c-0.671-0.238-0.934-0.448-0.881-0.719 0.033-0.179 0.269-0.301 0.569-0.301h0.152c0.352 0.032 0.529 0.061 0.555 0.061l16.531-0.028c0.24-0.301 0.417-0.453 0.6-0.453 0.208 0 0.335 0.301 0.245 0.721-0.032 0.18-0.191 0.691-0.406 1.471-0.076 0.241-0.142 0.423-0.172 0.57-0.023 0.122-6e-3 0.182-0.049 0.542-0.033 0.183-0.059 0.299-0.068 0.359-0.045 0.243-0.139 0.393-0.285 0.393-0.299 0-0.456-0.268-0.537-0.932h-13.252l-1.04 5.318h12.074c0.372-0.81 0.488-0.962 0.731-0.962 0.241 0 0.359 0.152 0.304 0.42-5e-3 0.031-5e-3 0.031-7e-3 0.061l-0.297 0.901-0.294 1.503-0.037 0.18c-0.068 0.18-0.076 0.393-0.094 0.63-0.011 0.212-0.028 0.451-0.048 0.537-0.049 0.243-0.165 0.395-0.32 0.395-0.295 0-0.447-0.301-0.488-0.871h-12.043l-1.635 8.321c0.686 0.183 0.946 0.39 0.867 0.779-0.02 0.125-0.162 0.211-0.428 0.211h-0.033-0.118l-1.659-0.116h-1.503-0.387c-0.334 0-0.603 0-0.815 0.03-0.124 0-0.221 0.027-0.281 0.027-0.148 0-0.25-0.088-0.218-0.271 0.073-0.36 0.436-0.542 1.213-0.661l3.554-18.116z"/>
     <path d="m288.29 1.133c0.04-0.209 0.221-0.359 0.432-0.359 0.028 0 0.146 0.028 0.553 0.088 0.175 0.031 0.476 0.031 0.863 0.031h1.506 0.868c0.483 0 0.938 0 1.299-0.031h0.213c0.134 0.061 0.226 0.061 0.202 0.18-0.046 0.212-0.23 0.42-0.555 0.691l4.545 18.023c0.138 0.061 0.215 0.124 0.275 0.124 0.754 0.299 0.851 0.39 0.8 0.688-0.046 0.213-0.112 0.274-0.297 0.274h-0.03l-0.385-0.03c-0.118 0-0.324-0.031-0.653-0.031-0.247 0.031-0.542 0-0.936 0-0.803-0.033-1.129-0.064-1.37-0.064-0.503 0-1.002 0.064-1.457 0.095-0.216 0.03-0.372 0.058-0.492 0.058-0.179 0-0.286-0.088-0.245-0.271 0.032-0.183 0.116-0.301 0.281-0.36 0.235-0.152 0.407-0.243 0.843-0.483l-1.088-4.114h-10.361l-2.671 4.114 0.273 0.154 0.369 0.238 0.084 0.03c0.054 0.061 0.079 0.238 0.038 0.42-0.038 0.213-0.068 0.213-0.251 0.213h-0.6c-0.712-0.064-1.604-0.095-2.503-0.095-0.813 0-1.481 0.031-1.873 0.064l-0.31 0.031h-0.027c-0.145-0.031-0.185 0-0.177-0.183l-8e-3 -0.12c0.07-0.361 0.177-0.453 1.029-0.66 0.061 0 0.157-0.033 0.289-0.093l11.768-18.023c-0.185-0.27-0.269-0.449-0.241-0.599zm4.564 11.806-2.235-9.285-5.936 9.285h8.171z"/>
     <path d="m306.38 1.883-0.054-0.061c-0.617-0.36-0.847-0.567-0.804-0.78 0.032-0.18 0.204-0.301 0.358-0.301h0.028l1.032 0.093h0.542 10.484 0.155c3.334 0 4.9 0.719 5.726 2.643 0.299 0.78 0.378 1.742 0.183 2.759-0.635 3.22-3.144 5.291-6.934 5.771l3.954 7.872h0.208c0.784 0.15 1.158 0.39 1.077 0.78-0.027 0.152-0.088 0.183-0.361 0.183h-0.061l-2.696-0.061-2.347 0.031c-0.183 0-0.25-0.095-0.209-0.302 0.047-0.24 0.168-0.389 0.546-0.63l-3.951-7.903h-5.525l-1.55 7.903c0.054 0.03 0.113 0.03 0.167 0.059 0.553 0.24 0.709 0.36 0.656 0.661-0.039 0.182-0.206 0.271-0.445 0.271-0.066 0-0.152 0-0.269-0.027-0.798-0.061-1.572-0.094-2.354-0.094-0.421 0-1.056 0.033-1.9 0.064h-0.247-0.027c-0.145-0.031-0.202-0.031-0.172-0.213 0.046-0.36 0.291-0.542 1.126-0.843 0.047-0.059 0.066-0.028 0.17-0.089l3.494-17.786zm9.999 7.361h0.151c2.251 0 3.822-1.112 4.188-2.972 0.331-1.684-0.765-2.856-2.655-2.856h-0.147-8.533l-1.144 5.828h8.14z"/>
     <path d="m329.28 1.643c-0.574-0.269-0.754-0.448-0.711-0.661 0.036-0.18 0.21-0.299 0.451-0.299 0.086 0 0.38 0.03 0.819 0.091 0.418 0.028 1.274 0.088 2.145 0.088 1.172 0 2.056-0.061 2.681-0.18 0.121 0 0.246-0.03 0.339-0.03 0.18 0 0.271 0.149 0.228 0.359-0.048 0.243-0.159 0.362-0.467 0.542l3.692 12.586 8.71-12.406c-0.151-0.298-0.212-0.451-0.178-0.63 0.047-0.24 0.226-0.362 0.492-0.362h0.093l0.823 0.093c0.236 0.028 0.625 0.028 1.134 0.028h2.886c0.149 0 0.327 0 0.456-0.028 0.334-0.032 0.456-0.032 0.488-0.032 0.232 0 0.364 0.122 0.331 0.271-0.043 0.24-0.399 0.512-1.096 0.841-3e-3 0.03-0.063 0.03-0.127 0.061l-3.511 17.876c0.63 0.18 0.911 0.42 0.846 0.75-0.033 0.182-0.175 0.271-0.445 0.271-0.059 0-0.145-0.027-0.264-0.027-1.169-0.03-1.795-0.03-1.946-0.03l-1.805 0.03h-0.306c-0.36 0-0.444-0.03-0.396-0.274 0.066-0.329 0.134-0.39 0.952-0.719 0.035-0.033 0.099-0.033 0.2-0.093l3.029-15.438-11.691 16.552-5.003-16.613-3.055 15.593c0.688 0.146 1.007 0.359 0.941 0.688-0.038 0.21-0.202 0.274-0.623 0.274h-0.417c-0.833-0.064-1.396-0.095-1.755-0.095-0.213 0-0.693 0-1.453 0.031-0.275 0.033-0.453 0.033-0.514 0.033h-0.148c-0.308 0.031-0.462-0.091-0.424-0.299 0.041-0.212 0.281-0.361 0.935-0.633 0.061 0 0.162-0.061 0.289-0.093l3.538-18.023c-0.079-0.063-0.139-0.063-0.163-0.093z"/>
     <g id="Group" transform="translate(104)">
      <path d="m4.998 1.873-0.054-0.028c-0.718-0.266-0.818-0.357-0.772-0.59 0.047-0.238 0.17-0.415 0.318-0.415l0.492 0.061 0.91 0.028 0.88 0.028c0.144 0.033 0.29 0.033 0.467 0.033 0.533 0 1.187-0.033 1.607-0.061l0.331-0.028h0.06c0.207 0 0.249 0.088 0.214 0.263-0.075 0.382-0.447 0.623-1.113 0.708l-3.479 17.737c0.739 0.296 0.838 0.385 0.771 0.736-0.041 0.211-0.143 0.269-0.377 0.269-0.149 0-0.296 0-0.439-0.03-0.821-0.027-1.407-0.06-1.82-0.06-0.355 0-1.013 0.033-1.938 0.09-0.267 0-0.389 0.03-0.42 0.03-0.207 0-0.284-0.061-0.25-0.238 0.082-0.412 0.287-0.562 1.132-0.797l3.48-17.736z"/>
      <path d="m14.401 1.845-0.084-0.033c-0.586-0.172-0.834-0.41-0.776-0.709 0.036-0.174 0.2-0.263 0.498-0.263 0.058 0 0.146 0 0.317 0.028 1.164 0.089 1.988 0.122 2.46 0.122 0.708 0 1.578-0.061 2.546-0.18 0.214-0.03 0.36-0.03 0.451-0.03 0.236 0 0.366 0.088 0.33 0.268-0.058 0.293-0.099 0.354-0.421 0.797l7.927 13.981 2.742-13.981c-0.703-0.18-0.958-0.387-0.876-0.797 0.069-0.208 0.123-0.18 0.307-0.208h0.207c0.637 0.061 1.252 0.089 1.874 0.089 0.472 0 0.975 0 1.542-0.028 0.448-0.033 0.716-0.033 0.833-0.033 0.325 0 0.485 0.089 0.452 0.266-0.064 0.324-0.5 0.592-1.174 0.711l-3.491 17.792 0.142 0.03c0.498 0.177 0.723 0.385 0.664 0.678-0.04 0.211-0.197 0.269-0.466 0.269-0.118 0-0.325 0-0.554-0.03-0.473 0-1.118-0.027-1.859-0.027-0.619 0-1.18 0-1.691 0.027h-0.529c-0.384 0-0.576-0.088-0.541-0.266 0.042-0.208 0.09-0.296 0.513-0.651l-8.667-15.489-3.016 15.371 0.166 0.061c0.486 0.235 0.634 0.385 0.575 0.68-0.051 0.267-0.122 0.324-0.328 0.324-0.031 0-0.171-0.03-0.409-0.03-0.823-0.027-1.465-0.06-1.94-0.06-0.293 0-0.765 0-1.422 0.033-0.148 0-0.274 0.027-0.332 0.027h-0.385c-0.238 0-0.366-0.088-0.337-0.238 0.053-0.263 0.323-0.44 1.097-0.766 0.071-0.061 0.093-0.03 0.195-0.089l3.46-17.646z"/>
      <path d="m39.401 1.873-0.076-0.061c-0.42-0.266-0.657-0.557-0.623-0.734 0.021-0.122 0.2-0.269 0.347-0.269h0.03l1.229 0.058h8.779c3.075 0 4.744 0.387 6.397 1.45 1.332 0.887 2.332 2.126 2.897 3.605 0.502 1.362 0.565 2.688 0.206 4.521-0.797 4.081-2.917 6.89-6.634 8.809-1.876 0.977-3.388 1.304-5.783 1.304h-10.404-0.739c-0.266 0-0.373-0.061-0.343-0.211 0.04-0.204 0.277-0.351 0.819-0.562 0.094-0.03 0.226-0.086 0.412-0.146l3.486-17.764zm7.103 16.079c4.375 0 7.978-2.985 8.821-7.3 0.513-2.602-0.313-4.875-2.198-6.116-1.15-0.77-2.396-1.035-4.615-1.035l-6.142-0.03-2.842 14.481h6.976z"/>
      <path d="m64.735 1.873-0.054-0.028c-0.716-0.266-0.816-0.357-0.771-0.59 0.047-0.238 0.172-0.415 0.318-0.415l0.492 0.061 0.91 0.028 0.88 0.028c0.142 0.033 0.292 0.033 0.468 0.033 0.531 0 1.188-0.033 1.606-0.061l0.333-0.028h0.058c0.209 0 0.248 0.088 0.214 0.263-0.075 0.382-0.445 0.623-1.115 0.708l-3.478 17.737c0.739 0.296 0.842 0.385 0.772 0.736-0.04 0.211-0.142 0.269-0.378 0.269-0.147 0-0.296 0-0.437-0.03-0.82-0.027-1.407-0.06-1.821-0.06-0.354 0-1.012 0.033-1.937 0.09-0.267 0-0.392 0.03-0.42 0.03-0.208 0-0.285-0.061-0.25-0.238 0.082-0.412 0.288-0.562 1.132-0.797l3.478-17.736z"/>
      <path d="m80.408 1.225c0.043-0.208 0.217-0.357 0.425-0.357 0.03 0 0.143 0.033 0.545 0.089 0.172 0.033 0.465 0.033 0.85 0.033h1.478 0.859c0.473 0 0.913 0 1.276-0.033h0.207c0.134 0.061 0.226 0.061 0.199 0.177-0.04 0.208-0.227 0.413-0.546 0.679l4.475 17.737c0.134 0.061 0.213 0.118 0.269 0.118 0.741 0.299 0.843 0.385 0.784 0.678-0.04 0.211-0.111 0.269-0.289 0.269h-0.03l-0.377-0.03c-0.119 0-0.321-0.027-0.645-0.027-0.241 0.027-0.532 0-0.917 0-0.79-0.033-1.109-0.061-1.347-0.061-0.501 0-0.988 0.061-1.438 0.088-0.212 0.03-0.364 0.061-0.48 0.061-0.183 0-0.281-0.088-0.247-0.269 0.036-0.177 0.12-0.293 0.277-0.354 0.233-0.149 0.399-0.238 0.83-0.473l-1.068-4.053h-10.195l-2.628 4.053 0.267 0.148 0.368 0.236 0.084 0.033c0.045 0.056 0.069 0.233 0.037 0.41-0.043 0.208-0.071 0.208-0.249 0.208h-0.591c-0.697-0.06-1.579-0.088-2.465-0.088-0.797 0-1.454 0.028-1.844 0.061l-0.301 0.027h-0.03c-0.142-0.027-0.177 0-0.172-0.177l-6e-3 -0.117c0.069-0.356 0.176-0.445 1.015-0.653 0.059 0 0.154-0.027 0.282-0.088l11.58-17.737c-0.184-0.267-0.27-0.441-0.242-0.588zm4.49 11.613-2.197-9.133-5.842 9.133h8.039z"/>
      <path d="m98.436 1.845-0.084-0.033c-0.585-0.172-0.835-0.41-0.779-0.709 0.038-0.174 0.202-0.263 0.496-0.263 0.061 0 0.152 0 0.32 0.028 1.168 0.089 1.987 0.122 2.462 0.122 0.709 0 1.576-0.061 2.546-0.18 0.215-0.03 0.362-0.03 0.45-0.03 0.235 0 0.364 0.088 0.332 0.268-0.059 0.293-0.102 0.354-0.422 0.797l7.93 13.981 2.741-13.981c-0.706-0.18-0.959-0.387-0.878-0.797 0.07-0.208 0.121-0.18 0.304-0.208h0.21c0.635 0.061 1.252 0.089 1.873 0.089 0.473 0 0.975 0 1.541-0.028 0.449-0.033 0.719-0.033 0.836-0.033 0.323 0 0.486 0.089 0.45 0.266-0.065 0.324-0.501 0.592-1.174 0.711l-3.491 17.792 0.142 0.03c0.499 0.177 0.727 0.385 0.666 0.678-0.04 0.211-0.2 0.269-0.466 0.269-0.119 0-0.327 0-0.557-0.03-0.476 0-1.116-0.027-1.855-0.027-0.623 0-1.185 0-1.693 0.027h-0.532c-0.382 0-0.572-0.088-0.536-0.266 0.037-0.208 0.089-0.296 0.512-0.651l-8.668-15.489-3.015 15.371 0.165 0.061c0.486 0.235 0.635 0.385 0.578 0.68-0.053 0.267-0.122 0.324-0.329 0.324-0.03 0-0.172-0.03-0.408-0.03-0.823-0.027-1.468-0.06-1.941-0.06-0.293 0-0.77 0-1.423 0.033-0.148 0-0.273 0.027-0.331 0.027h-0.388c-0.233 0-0.364-0.088-0.333-0.238 0.05-0.263 0.321-0.44 1.093-0.766 0.07-0.061 0.096-0.03 0.197-0.089l3.459-17.646z"/>
      <path d="m129.8 1.225c0.04-0.208 0.218-0.357 0.425-0.357 0.027 0 0.142 0.033 0.545 0.089 0.169 0.033 0.463 0.033 0.848 0.033h1.48 0.855c0.472 0 0.917 0 1.278-0.033h0.205c0.137 0.061 0.225 0.061 0.2 0.177-0.04 0.208-0.223 0.413-0.544 0.679l4.47 17.737c0.14 0.061 0.216 0.118 0.276 0.118 0.739 0.299 0.838 0.385 0.784 0.678-0.045 0.211-0.116 0.269-0.293 0.269h-0.025l-0.38-0.03c-0.121 0-0.319-0.027-0.646-0.027-0.243 0.027-0.534 0-0.919 0-0.79-0.033-1.108-0.061-1.347-0.061-0.504 0-0.985 0.061-1.435 0.088-0.213 0.03-0.37 0.061-0.483 0.061-0.181 0-0.279-0.088-0.249-0.269 0.041-0.177 0.122-0.293 0.283-0.354 0.232-0.149 0.396-0.238 0.828-0.473l-1.066-4.053h-10.2l-2.625 4.053 0.266 0.148 0.369 0.236 0.082 0.033c0.047 0.056 0.073 0.233 0.037 0.41-0.043 0.208-0.067 0.208-0.244 0.208h-0.596c-0.696-0.06-1.577-0.088-2.463-0.088-0.8 0-1.456 0.028-1.848 0.061l-0.299 0.027h-0.029c-0.143-0.027-0.179 0-0.172-0.177l-7e-3 -0.117c0.068-0.356 0.175-0.445 1.013-0.653 0.058 0 0.154-0.027 0.283-0.088l11.578-17.737c-0.181-0.267-0.266-0.441-0.235-0.588zm4.49 11.613-2.202-9.133-5.837 9.133h8.039z"/>
     </g>
    </g>
   </g>
  </g>
 </g>
 <metadata>
  <rdf:RDF>
   <cc:Work rdf:about="">
    <dc:title>ifb-horizontal</dc:title>
   </cc:Work>
  </rdf:RDF>
 </metadata>
</svg>