<?xml version="1.0" standalone="no"?>
<!DOCTYPE svg PUBLIC "-//W3C//DTD SVG 1.1//EN" "http://www.w3.org/Graphics/SVG/1.1/DTD/svg11.dtd">
<svg xmlns="http://www.w3.org/2000/svg" width="3743.60009765625" height="448.5199890136719" version="1.1" viewBox="0 0 3743.6 448.52" xml:space="preserve"><g transform="translate(850.39 -69.744)"><path d="m-695.55 517.11c-1.2194-0.94738-153.26-439.36-154.44-445.35l-0.39792-2.0087 113.63 0.45802 46.07 144.59c25.338 79.525 47.876 151.8 50.084 160.61 2.2077 8.8082 4.4923 20.52 5.077 26.026l1.0631 10.012h12.961l0.0196-2.8919c0.0326-4.8422 3.1604-17.448 7.913-31.887 2.4828-7.5431 27.696-79.582 56.03-160.09l51.516-146.37h121.54l54.487 154.82c29.968 85.153 55.729 159.5 57.247 165.21 1.5181 5.7125 3.0516 12.72 3.4078 15.571l0.6477 5.1851h12.45l0.5439-7.1184c1.4826-19.404 5.9931-33.324 61.125-188.64l51.484-145.04 56.65-0.22901c48.185-0.1947 56.65-0.04037 56.65 1.0219 0 2.6989-163.88 445.06-165.27 446.11-1.1582 0.87876-15.544 1.0691-67.269 0.88985l-65.796-0.22793-51.987-149.49c-28.593-82.217-53.121-153.89-54.507-159.27-1.3858-5.3833-2.7835-12.19-3.106-15.127-1.2002-10.926-0.68445-10.233-7.6101-10.233h-6.1034l-0.5338 4.2265c-1.1279 8.9307-3.5029 20.382-5.8404 28.159-1.3389 4.455-25.414 74.167-53.5 154.92l-51.066 146.82-65.864 0.22793c-51.793 0.17967-66.171-0.01-67.303-0.88985zm590.18 0.43887c0.0261-0.36723 50.378-101.17 111.89-224.01l111.84-223.34 155.77-0.45398 219.81 448.02-56.917 0.22891c-49.914 0.20087-57.101 0.0607-58.413-1.1246-0.82264-0.74455-14.672-28.371-30.775-61.392l-29.279-60.039-158.59-0.02-17.025-35.902c-9.3636-19.746-17.025-36.16-17.025-36.477 0-0.31696 35.6-0.67699 79.111-0.80211l79.111-0.22695-14.667-31.588c-34.5-74.299-62.785-137.75-66.542-149.26l-1.524-4.6714h-10.095l-2.0659 6.0061c-3.3663 9.7865-10.284 24.908-23.712 51.831-6.9562 13.948-43.405 91.627-80.997 172.62-37.592 80.994-69.156 148.16-70.141 149.26l-1.7916 2.002h-59.016c-32.459 0-58.994-0.30064-58.967-0.66687zm641.71-223.31 0.22435-224.03h178.4c166.85 0 179.24 0.10392 191.31 1.6113 58.089 7.2543 94.483 27.862 111.67 63.231 5.7503 11.835 8.0936 20.454 9.5 34.945 2.0735 21.364-2.0278 40.937-12.282 58.614-5.5558 9.5776-21.046 24.979-31.126 30.949-16.644 9.8565-28.437 13.635-60.408 19.357-11.256 2.0144-20.632 3.8281-20.836 4.0305-1.0018 0.99475 2.1982 1.6028 20.986 3.9901 25.052 3.1834 36.326 5.3651 48.202 9.3282 40.112 13.386 62.386 40.956 66.947 82.866 1.9619 18.028-0.4096 40.127-5.973 55.656-16.404 45.791-54.542 71.832-119.11 81.33-9.8817 1.4536-24.356 1.5923-194.2 1.861l-183.52 0.29054zm337.34 149.04c25.46-7.0104 40.407-20.76 46.056-42.37 2.2632-8.6571 2.449-25.578 0.36825-33.504-6.4454-24.548-25.862-39.542-56.987-44.006-3.8845-0.55692-45.995-0.89992-111.89-0.91104l-105.66-0.0196v123.73l219.33-0.50021zm-6.347-189.5c22.714-6.259 36.934-20.186 41.159-40.312 1.5472-7.369 1.74-23.332 0.36222-29.987-3.5892-17.339-16.837-30.848-36.395-37.113-13.822-4.4274-16.335-4.5182-125.24-4.5237l-101.66-5e-3v114.83l213.11-0.50445zm288.08 40.21 112.12-224.23 156.08 0.45398 109.65 223.34c60.306 122.84 109.67 223.64 109.7 224.01 0.03 0.36724-25.494 0.66691-56.721 0.66691-44.052 0-57.103-0.24913-58.231-1.1122-0.8-0.61138-14.634-28.14-30.742-61.173l-29.288-60.061-159-0.88985-16.69-35.147c-9.1797-19.331-16.705-35.647-16.722-36.259-0.029-0.88177 16.314-1.1122 78.818-1.1122 74.686 0 78.825-0.0805 78.37-1.5572-0.2645-0.85656-10.864-23.98-23.555-51.386-35.61-76.898-58.033-127.81-58.033-131.76 0-0.94736-1.3053-1.2627-5.2195-1.2627h-5.2196l-1.9915 5.5612c-3.7593 10.498-10.06 24.283-22.265 48.716-6.7229 13.458-43.544 91.938-81.825 174.4-38.281 82.462-70.412 150.63-71.402 151.49-1.6758 1.4494-5.8926 1.5571-60.874 1.5571h-59.073zm525.36 181.01c-11.224-23.795-20.541-43.625-20.704-44.067-0.1755-0.47618 63.302-0.80409 155.71-0.80611 107.85-2e-3 158.48-0.30456 164.02-0.97962 16.177-1.9741 28.822-7.7445 37.502-17.112 8.5545-9.2332 12.131-19.124 12.12-33.513-0.01-14.963-3.3907-23.779-12.627-32.946-6.5574-6.5084-13.351-10.445-23.208-13.449l-6.6671-2.0318-114.78-0.52463c-103.57-0.47318-115.57-0.67395-122.79-2.0577-52.426-10.039-88.726-46.145-100.29-99.753-2.8271-13.109-2.8255-39.728 0-52.723 3.7716-17.329 11.364-35.026 20.734-48.326 6.3597-9.0278 21.482-24.39 30.16-30.638 20.086-14.462 42.382-22.959 66.614-25.386 5.9701-0.59828 62.914-0.92314 161.72-0.92314h152.51v39.052c0 37.124-0.081 39.156-1.7008 41.153l-1.7009 2.1006-140.44 0.453c-156.71 0.50545-143.68-0.0505-157.63 6.7562-17.222 8.4089-26.458 27.177-23.492 47.736 2.6435 18.325 14.353 30.836 34.45 36.807 4.9487 1.4705 13.432 1.6286 116.12 2.164 75.015 0.39147 112.31 0.8939 115.51 1.5575 25.607 5.3063 43.128 13.52 61.199 28.691 23.178 19.457 39.444 48.777 44.946 81.019 1.6337 9.5726 1.8204 13.338 1.408 28.387-0.5045 18.417-1.6549 25.552-6.3946 39.672-6.5914 19.635-16.56 35.286-32.865 51.598-20.764 20.773-41.94 32.262-71.689 38.894-8.4027 1.8732-9.3726 1.8861-162.89 2.1717l-154.44 0.2876-20.408-43.263zm518.36-181.01v-224.23h108.55v448.46h-108.55zm415.53 133.92v-90.311l-240.6-0.45195-46.044-91.204h286.64v-176.19l109 0.45802 0.224 224.01 0.224 224.01h-109.45zm160.16-326.11v-21.355h-23.135v-10.677h59.616v10.677h-23.135v42.71h-13.347zm46.269-5.3388v-26.694l20.02 0.001715 7.9292 20.499 7.9291 20.499 3.0067-7.8203c1.6535-4.3011 5.23-13.526 7.9478-20.5l4.9413-12.68h20.325l-0.2361 26.471-0.2361 26.471-12.868 0.52258-0.239-20.264-0.2391-20.264-5.6725 15.554c-3.1198 8.5549-6.4576 17.672-7.4173 20.259l-1.7447 4.7049-15.396-0.51254-14.259-39.083-0.239 19.764-0.24 19.764h-13.313v-26.694z" fill="#007cf5" stroke-width=".88979"/></g></svg>