<?xml version="1.0" standalone="no"?>
<!DOCTYPE svg PUBLIC "-//W3C//DTD SVG 1.1//EN" "http://www.w3.org/Graphics/SVG/1.1/DTD/svg11.dtd">
<svg xmlns="http://www.w3.org/2000/svg" enable-background="new 0 0 866 134" version="1.1" viewBox="0 0 866 134" xml:space="preserve" width="866" height="134">
<path d="m865 104.4c0 5.2-4.2 9.5-9.5 9.5s-9.5-4.2-9.5-9.5c0-5.2 4.2-9.5 9.5-9.5 5.2 0.1 9.4 4.3 9.5 9.5zm-682.6 7.4h13.3c16.6 0 30.1-7.2 37.1-20.1 3.5-6.4 5.3-14.9 5.2-23.4 0-8.6-1.7-17-5.2-23.4-7-12.9-20.5-20.1-37.1-20.1h-13.3v87zm33.2-61.9c6.3 11.4 6.3 25.2 0 36.6-3.4 5.2-9 8.5-15.1 9v-54.5c6.1 0.4 11.7 3.7 15.1 8.9zm-194.9 47.6v-72.8h-19.7v87.1h40l2.2-14.3h-22.5zm130.9-72.8v26c-3.3-7.8-16.1-26.1-32.7-26.1-1.3 0-2.6 0.1-3.9 0.2v87.1h18v-58c15.1 19.1 19.7 35.3 19.7 57.9h18v-87.1h-19.1zm-73.1 0c-10.9 0-16.6 7.9-17.3 12.4-1 6.8-4.1 27.2-4.1 27.2-4.1 0.5-8.1 1.5-12 2.9l-2.6 17.6c3.9-1.3 8-2.4 12.1-3.1l-4.5 30.1h17l4.7-31.3c5.6 0.4 11.4 2 15.8 5.1l2.6 26.2h17l-8.5-87.1h-20.2zm-4.4 39.1c0.5-2.9 2.4-16.1 3.1-20.8 0.3-2.6 2.6-4.5 5.3-4.3h0.3l2.7 27.3c-3.7-1.2-7.5-1.9-11.4-2.2zm352.4 33.4v-72.8h-19.7v87.1h36.8l2.2-14.3h-19.3zm224-37.9c-3.7-4.5-9.3-10.5-9.3-15.9 0-2.9 1.9-5.8 5.4-5.8 5.8 0 13.7 6.7 13.7 6.7l-0.5-16.3c-4.9-3.6-10.8-5.5-16.9-5.4-14.6 0-21.4 9.4-21.4 18.7 0 9.8 7.1 18.2 12.4 24.8 5.6 7 11.7 15.1 11.7 22.2 0 5.8-3.9 10-11.3 10-4.9 0-10.7-2.9-10.7-2.9v16.3c3.7 1.6 7.7 2.4 11.7 2.3 18.2 0 28.6-10.3 28.6-25.7-0.1-14.5-9.7-24.5-13.4-29zm-74.9-34.9v87.1h40.8v-14.3h-23.2v-25.2h15.2v-14.3h-15.2v-19.2h23.2v-14.1h-40.8zm-94.7 0c-10.9 0-16.6 7.9-17.3 12.4l-4.1 27.2c-4.1 0.5-8.1 1.5-12 2.9l-2.6 17.6c3.9-1.3 8-2.4 12.1-3.1l-4.5 30.2h17l4.7-31.3c5.6 0.4 11.4 2 15.8 5.1l2.6 26.2h17l-8.5-87.1-20.2-0.1zm-4.4 39.2c0.5-2.9 2.5-16.1 3.1-20.8 0.3-2.6 2.6-4.5 5.3-4.3h0.3l2.7 27.2c-3.7-1.1-7.5-1.9-11.4-2.1zm74.3-39.2-16.4 31.4v-31.4h-17.4v87.1h17.4v-38.2c12.2 5.2 18 22 16.8 38.2h17.8c0.8-16.3-3.5-37.7-18.9-49.1l19.1-38h-18.4zm209.3 0v26c-3.3-7.8-16.1-26.1-32.7-26.1-1.3 0-2.6 0.1-3.9 0.2v87.1h18v-58c15.1 19.1 19.7 35.3 19.7 57.9h18v-87.1h-19.1zm-68-0.2h19.8v87.3h-19.8v-87.3zm161.8-1c-4.3 0-7.8 3.5-7.8 7.8s3.5 7.8 7.8 7.8 7.8-3.5 7.8-7.8-3.5-7.8-7.8-7.8zm0.1 14.7c-3.8-0.2-6.6-3.3-6.4-7 0.2-3.4 2.9-6.2 6.3-6.4 3.7 0.2 6.5 3.4 6.3 7.1-0.2 3.3-2.8 6-6.2 6.3zm1.3-6.5c1-0.3 1.7-1.2 1.7-2.2 0.1-0.7-0.3-1.4-0.8-1.8-0.8-0.5-1.8-0.7-2.8-0.7-0.8 0-1.7 0.1-2.5 0.2v8.8h1.4v-3.8h1c0.9-0.1 1.8 0.5 1.9 1.4v0.1c0.1 0.8 0.3 1.5 0.6 2.2h1.5c-0.3-0.7-0.5-1.4-0.6-2.2-0.1-1.1-0.6-1.8-1.4-2zm-1.9-0.6h-1v-3c0.3-0.1 0.7-0.1 1-0.1 1.6 0 2.2 0.8 2.2 1.6 0 1.1-1 1.5-2.2 1.5zm-26 54.3c-1.8 8-5.2 13.7-10.2 13.8-8.3 0-11.9-15.3-11.9-30.6s3.7-30.6 11.9-30.6c5.2 0 8.5 6 10.3 14.1l16.5-8c-5.5-14.3-15.9-21.2-26.8-21.2-16 0-30.8 14.7-30.8 45.6s14.8 45.6 30.8 45.6c10.8 0 21.2-6.8 26.7-20.8l-16.5-7.9zm-507.5-84.1c-36.4 0-66 29.5-66 66 0 36.4 29.5 66 66 66s66-29.5 66-66c0-36.4-29.6-66-66-66zm53.9 64.5h-2.5c-8.9 0-16.1-7.2-16.1-16.1v-23.2c11.1 9.6 18.2 23.6 18.6 39.3zm-38.3-9.7v0 0-40.5c3.7 1.1 7.3 2.7 10.7 4.5v29.5c0 13.9 11.3 25.1 25.1 25.1h2c-0.8 6.1-2.7 11.8-5.4 17-30.5-7.1-32.3-30.6-32.4-35.2v-0.4zm-9-42.4v47c0 0.8-0.4 12-6.4 24.3-6-12.3-6.4-23.4-6.4-24.2v-47.1c2-0.2 4.1-0.4 6.1-0.4 2.3 0 4.5 0.2 6.7 0.4zm-21.8 42.3v1.1c-0.1 5.3-2.5 28.1-32.9 34.9-2.7-5.3-4.6-11-5.5-17.1h2c13.9 0 25.1-11.3 25.1-25.1v-29.3c3.5-2 7.3-3.7 11.2-4.9v40.4zm-20.2-29v22.7c0 8.9-7.2 16.1-16.1 16.1h-2.5c0.4-15.4 7.7-29.2 18.6-38.8zm-7.5 73c16.7-4.5 25.8-13.6 30.8-22.5 1.5 5 3.7 10.7 7.1 16.4-5.3 7.3-12.9 14.2-24.1 18.8-5.3-3.4-10-7.7-13.8-12.7zm42.9 21.3c-6.6 0-13-1.2-18.9-3.4 8.2-4.5 14.4-10.2 19.2-16.2 4.7 6 10.9 11.6 19 16.1-6.1 2.2-12.6 3.5-19.3 3.5zm29.3-8.7c-11-4.6-18.5-11.5-23.8-18.7 3.3-5.7 5.6-11.4 7.1-16.4 4.9 8.7 14 17.8 30.4 22.3-3.8 5.1-8.4 9.4-13.7 12.8zm-13.7-56.6zm42.9-51.7v14.1h8.3c0 3.6-1.2 6.3-5 8.7 1.7 2.7 3.3 5.4 4.7 8.3 4.6-3.3 8.9-7.8 8.9-16.8v-14.3h-16.9z"/>
</svg>