<?xml version="1.0" standalone="no"?>
<!DOCTYPE svg PUBLIC "-//W3C//DTD SVG 1.1//EN" "http://www.w3.org/Graphics/SVG/1.1/DTD/svg11.dtd">
<svg xmlns="http://www.w3.org/2000/svg" xmlns:cc="http://creativecommons.org/ns#" xmlns:dc="http://purl.org/dc/elements/1.1/" xmlns:rdf="http://www.w3.org/1999/02/22-rdf-syntax-ns#" width="176.38999938964844" height="176.38999938964844" version="1.1" viewBox="0 0 176.39 176.39">
 <metadata>
  <rdf:RDF>
   <cc:Work rdf:about="">
    <dc:format>image/svg+xml</dc:format>
    <dc:type rdf:resource="http://purl.org/dc/dcmitype/StillImage"/>
   </cc:Work>
  </rdf:RDF>
 </metadata>
 <g transform="translate(-13.103 -47.121)">
  <g transform="translate(-.75596 2.2679)" stroke-width=".35278">
   <path d="m13.859 133.05v-88.194h176.39v176.39h-176.39zm143.34 80.634c11.442-2.9024 20.064-11.546 22.965-23.019l0.90793-3.5917v-106.28l-0.90793-3.5917c-1.7234-6.8176-6.0434-13.492-11.314-17.48-3.0027-2.2722-7.3428-4.3809-11.551-5.6122l-3.2147-0.94058-51.506-0.1116c-32.375-0.07015-52.554 0.01744-54.328 0.23581-8.6069 1.0595-17.061 5.7015-21.754 11.945-2.0936 2.7852-4.6357 7.7491-5.6496 11.032l-0.81291 2.6322-0.10122 53.799c-0.11164 59.34-0.213 56.319 2.083 62.089 1.4682 3.6895 3.5107 6.7385 6.8197 10.181 4.5296 4.7117 8.5379 7.0661 14.829 8.7104l3.175 0.82985 106.98 0.0347 3.3818-0.85786zm-111.06-10.387c-7.8852-2.3045-13.574-8.2454-15.188-15.861-0.75278-3.5517-0.74313-103.98 0.0103-107.17 1.8356-7.7839 7.3163-13.391 15.531-15.89 2.0078-0.61062 4.7849-0.64374 53.975-0.64374h51.858l3.0165 0.96002c7.094 2.2578 12.495 7.7845 14.43 14.765 0.71235 2.5706 0.72196 3.2963 0.72196 54.478 0 50.886-0.0135 51.921-0.70956 54.433-1.801 6.499-6.4652 11.67-12.872 14.271l-2.8222 1.1457-52.917 0.0665c-49.514 0.0622-53.053 0.0267-55.033-0.55211zm103.46-5.8664c6.2962-1.4845 11.609-6.1504 14.106-12.389l0.97125-2.4262 0.0956-47.77c0.0627-31.346-0.028-48.438-0.26387-49.714-1.3938-7.5395-8.5756-14.502-16.06-15.568-1.5381-0.21917-19.72-0.35451-48.211-0.35886-37.907-0.0058-46.187 0.07816-48.34 0.49015-7.0701 1.3527-13.155 7.0741-15.254 14.343-0.51055 1.7682-0.55757 6.7692-0.47261 50.271l0.09434 48.307 0.78343 2.0537c2.336 6.1236 7.3945 10.792 13.68 12.625 1.9674 0.57368 5.4495 0.6186 49.389 0.63711 40.495 0.0171 47.589-0.0547 49.481-0.50078zm-99.046-2.3884c-5.5103-1.8855-9.1543-5.3194-11.315-10.662l-0.85593-2.1167v-97.719l1.5312-3.0762c2.4988-5.0201 6.6518-8.4122 11.779-9.6211 3.3198-0.78272 94.237-0.78272 97.557 0 3.1344 0.739 5.3555 1.968 7.9605 4.4049 2.9677 2.7761 4.6093 5.8646 5.3378 10.043 0.80807 4.6338 0.81422 89.903 7e-3 94.533-0.65828 3.7748-2.0913 6.718-4.5262 9.2962-2.4634 2.6084-4.2439 3.7709-7.3958 4.829l-2.6609 0.89322-95.126-0.018zm74.436-19.297c3.3705-0.86387 7.3535-2.63 7.6451-3.3901 0.24914-0.64922-2.6895-6.8489-3.2464-6.8489-0.23269 0-0.80168 0.29568-1.2644 0.65707-5.8789 4.5914-16.334 4.1685-20.73-0.83856-2.7845-3.1714-3.9105-6.7745-3.9121-12.519-3e-3 -11.024 6.0096-17.848 15.141-17.183 3.1364 0.22829 6.8043 1.3061 8.6064 2.5291l1.2846 0.87172 1.3426-1.84c2.9714-4.0719 3.0317-4.1813 2.5041-4.5368-1.5299-1.031-4.7614-2.4622-7.4566-3.3025-2.8772-0.89706-3.3983-0.94971-7.9347-0.80168-7.1216 0.23238-10.958 1.7092-15.399 5.927-3.8187 3.6274-6.3297 8.7336-6.8488 13.927l-0.2468 2.4694-0.17639-2.0825-0.17639-2.0825-2.2223-0.60644c-2.3325-0.6365-3.6288-1.5779-4.6022-3.3424-0.52441-0.9506-0.6018-3.8054-0.76023-28.046l-0.17639-26.988h-8.4667v27.693c0 25.431 0.05068 27.857 0.6204 29.698 1.6407 5.3025 6.6803 8.677 13.233 8.861 2.4444 0.0686 2.4992 0.0906 2.6992 1.0843 0.11232 0.55783 0.20422 1.5167 0.20422 2.1307 0 1.7575 0.97031 5.0878 2.3098 7.9276 0.92461 1.9603 1.9051 3.2813 3.9576 5.3319 3.5099 3.5066 5.7249 4.6504 11.901 6.1453 1.7335 0.41961 9.2804-0.10466 12.171-0.84549z" fill="#fefefe"/>
   <path d="m74.774 204.04c14.003-0.0511 37.022-0.0511 51.153-2e-5 14.131 0.0511 2.6735 0.0929-25.461 0.0929-28.134 1e-5 -39.696-0.0418-25.692-0.0928zm78.014-0.32923c0.25466-0.1019 0.55893-0.0894 0.67616 0.0278 0.11722 0.11722-0.0911 0.2006-0.46302 0.18528-0.41097-0.0169-0.49456-0.10052-0.21314-0.21313zm-114.98-4.6097c-0.43881-0.55953-0.42633-0.57201 0.13319-0.1332 0.33955 0.26629 0.61736 0.54411 0.61736 0.61736 0 0.29035-0.2897 0.10347-0.75055-0.48416zm127.05-1.9853c0-0.0733 0.27781-0.35107 0.61736-0.61736 0.55953-0.43881 0.57201-0.42634 0.1332 0.13319-0.46086 0.58764-0.75056 0.77452-0.75056 0.48417zm-129.87-0.83695c-0.43881-0.55952-0.42633-0.572 0.13319-0.13319 0.33955 0.26629 0.61736 0.5441 0.61736 0.61736 0 0.29035-0.2897 0.10347-0.75056-0.48417zm122.81-5.8658c0-0.0733 0.27782-0.35107 0.61736-0.61736 0.55953-0.43881 0.57201-0.42633 0.1332 0.13319-0.46086 0.58764-0.75056 0.77452-0.75056 0.48417zm-127.3-4.1001c0-0.48507 0.08007-0.68351 0.17794-0.44097 0.09786 0.24253 0.09786 0.63941 0 0.88194-0.09787 0.24254-0.17794 0.0441-0.17794-0.44097zm-0.23682-52.388c9e-6 -27.94 0.04181-39.318 0.09289-25.284s0.05108 36.894-1.6e-5 50.8c-0.05109 13.906-0.09289 2.4242-0.09288-25.516zm140.41 0c1e-5 -27.552 0.0418-38.771 0.093-24.931 0.0511 13.84 0.0511 36.382-2e-5 50.094-0.0511 13.712-0.093 2.3889-0.0929-25.163zm-67.451 19.05c3e-3 -0.97014 0.0712-1.3252 0.15225-0.7889 0.0811 0.53624 0.0789 1.33-5e-3 1.7639-0.0837 0.43389-0.15008-5e-3 -0.14743-0.97499zm-9.2731-3.5278c0-1.5199 0.07311-2.6903 0.16247-2.601 0.25848 0.25849 0.31728 4.8846 0.06529 5.1366-0.12526 0.12527-0.22776-1.0158-0.22776-2.5357zm-16.06-34.219c2.8e-5 -14.94 0.04353-21.001 0.09668-13.468 0.05315 7.533 0.05312 19.757-5.3e-5 27.164-0.05317 7.4072-0.09665 1.2438-0.09662-13.696zm8.4663-1.4111c3.2e-5 -14.358 0.04368-20.18 0.097-12.939 0.05331 7.2418 0.05329 18.989-5.7e-5 26.106-0.05335 7.1162-0.09697 1.191-0.09694-13.167zm-55.879-32.485c0.01693-0.41097 0.10052-0.49456 0.21314-0.21314 0.10191 0.25466 0.08937 0.55893-0.02785 0.67616-0.11722 0.11722-0.2006-0.09114-0.18529-0.46302zm4.2055-9.4524c0-0.07326 0.27781-0.35107 0.61736-0.61736 0.55953-0.43881 0.572-0.42633 0.13319 0.13319-0.46086 0.58764-0.75055 0.77452-0.75055 0.48417zm130.84-0.48417c-0.43881-0.55952-0.42633-0.572 0.1332-0.13319 0.33955 0.26629 0.61736 0.5441 0.61736 0.61736 0 0.29035-0.2897 0.10347-0.75056-0.48417zm-2.8222-2.8222c-0.43881-0.55952-0.42633-0.572 0.1332-0.13319 0.58764 0.46086 0.77451 0.75055 0.48416 0.75055-0.0733 0-0.35106-0.27781-0.61736-0.61736zm-112.75-4.9188c0.34324-0.08944 0.81949-0.08356 1.0583 0.01307s-0.04199 0.16982-0.62408 0.16263c-0.58208-0.0072-0.7775-0.08625-0.43426-0.1757zm100.01 0.01083c0.24253-0.09787 0.63941-0.09787 0.88194 0 0.24254 0.09786 0.0441 0.17794-0.44097 0.17794s-0.68351-0.08007-0.44097-0.17794zm-120.56-1.6634c0-0.07326 0.27781-0.35107 0.61736-0.61736 0.55953-0.43881 0.572-0.42633 0.13319 0.13319-0.46086 0.58764-0.75055 0.77452-0.75055 0.48417z" fill="#d7d7d7"/>
   <path d="m170.52 184.35c0.0169-0.41096 0.10052-0.49455 0.21313-0.21313 0.10191 0.25466 0.0894 0.55893-0.0278 0.67616-0.11723 0.11722-0.20061-0.0911-0.18529-0.46303zm-7.7611-4.9389c0.0169-0.41097 0.10052-0.49456 0.21314-0.21314 0.10191 0.25466 0.0894 0.55893-0.0278 0.67616-0.11722 0.11722-0.2006-0.0911-0.18528-0.46302zm-124.74-45.832c1e-5 -25.224 0.04203-35.49 0.09338-22.815s0.05134 33.313-1.9e-5 45.861c-0.05136 12.548-0.09337 2.1774-0.09336-23.046zm75.963 42.974c0.25466-0.1019 0.55893-0.0894 0.67616 0.0278 0.11722 0.11722-0.0911 0.2006-0.46302 0.18528-0.41097-0.0169-0.49456-0.10052-0.21314-0.21313zm4.5861 0c0.25466-0.1019 0.55894-0.0894 0.67616 0.0278 0.11722 0.11722-0.0911 0.2006-0.46302 0.18528-0.41097-0.0169-0.49456-0.10052-0.21314-0.21313zm-26.297-22.581c0.34324-0.0894 0.81949-0.0836 1.0583 0.0131 0.23884 0.0966-0.04199 0.16981-0.62408 0.16262-0.58208-7e-3 -0.7775-0.0863-0.43426-0.17569zm78.25-70.517c0.0169-0.41097 0.10052-0.49456 0.21313-0.21314 0.10191 0.25466 0.0894 0.55893-0.0278 0.67616-0.11723 0.11722-0.20061-0.09114-0.18529-0.46302zm-13.478-7.4671c-0.43881-0.55952-0.42633-0.572 0.13319-0.13319 0.33955 0.26629 0.61736 0.5441 0.61736 0.61736 0 0.29035-0.28969 0.10347-0.75055-0.48417zm-113.55 0.13139c0-0.07326 0.27781-0.35107 0.61736-0.61736 0.55953-0.43881 0.572-0.42633 0.13319 0.13319-0.46086 0.58764-0.75055 0.77452-0.75055 0.48417z" fill="#b1b1b1"/>
   <path d="m76.918 197.69c12.466-0.0514 32.866-0.0514 45.332 0s2.2666 0.0934-22.666 0.0934c-24.933 0-35.132-0.0421-22.666-0.0934zm68.622 0.0201c0.34324-0.0894 0.81949-0.0836 1.0583 0.0131 0.23884 0.0966-0.042 0.16982-0.62407 0.16263-0.58209-7e-3 -0.7775-0.0863-0.43426-0.1757zm-27.696-28.227c0.43882-0.0844 1.0738-0.0812 1.4111 7e-3 0.33729 0.0883-0.0218 0.15734-0.79786 0.15342-0.77611-4e-3 -1.0521-0.0762-0.61325-0.16054zm-40.425-98.44c12.548-0.05136 33.186-0.05137 45.861-1.9e-5 12.675 0.05135 2.4087 0.09337-22.815 0.09338-25.224 1e-5 -35.594-0.042-23.046-0.09336zm-40.983-1.323c0.4557-0.48507 0.90792-0.88194 1.0049-0.88194 0.09701 0-0.19646 0.39688-0.65216 0.88194-0.4557 0.48507-0.90792 0.88194-1.0049 0.88194-0.09701 0 0.19646-0.39688 0.65216-0.88194zm127.31-0.44097c-0.43881-0.55953-0.42634-0.572 0.13319-0.13319 0.58764 0.46086 0.77452 0.75055 0.48417 0.75055-0.0733 0-0.35107-0.27781-0.61736-0.61736zm-81.888 0.03095c0.24254-0.09786 0.63941-0.09786 0.88194 0 0.24254 0.09786 0.0441 0.17794-0.44097 0.17794-0.48507 0-0.68351-0.08007-0.44097-0.17794zm32.107-0.01587c0.43882-0.08438 1.0738-0.08118 1.4111 0.0071 0.33728 0.0883-0.0218 0.15734-0.79787 0.15342-0.77611-0.0039-1.0521-0.07616-0.61324-0.16054zm22.574 0.01587c0.24254-0.09786 0.63941-0.09786 0.88195 0 0.24253 0.09786 0.0441 0.17794-0.44098 0.17794-0.48507 0-0.6835-0.08007-0.44097-0.17794zm2.8443-0.0073c0.25466-0.10191 0.55894-0.08937 0.67616 0.02785 0.11723 0.11723-0.0911 0.2006-0.46302 0.18529-0.41097-0.01693-0.49456-0.10052-0.21314-0.21314zm-112.12-5.1611c0-0.06071 0.51594-0.57665 1.1465-1.1465l1.1465-1.0361-1.0361 1.1465c-0.96583 1.0687-1.2569 1.3087-1.2569 1.0361z" fill="#8a8a8a"/>
   <path d="m94.361 153.69c0.0072-0.58208 0.08626-0.7775 0.1757-0.43426 0.08944 0.34325 0.08356 0.8195-0.01309 1.0583-0.09664 0.23884-0.16982-0.042-0.16263-0.62408zm76.159-71.643c0.0169-0.41097 0.10052-0.49456 0.21313-0.21314 0.10191 0.25466 0.0894 0.55893-0.0278 0.67616-0.11723 0.11722-0.20061-0.09114-0.18529-0.46302zm-112.64-12.755c1.0252-0.07149 2.6127-0.07074 3.5278 0.0017 0.91513 0.0724 0.07637 0.1309-1.8639 0.12998-1.9403-9.18e-4 -2.689-0.06016-1.6639-0.13165zm7.225 0.0073c0.53624-0.08109 1.33-0.07892 1.7639 0.0048 0.4339 0.08374-0.0048 0.15008-0.97499 0.14743-0.97014-0.0026-1.3251-0.07116-0.7889-0.15225zm3.5278 0c0.53624-0.08109 1.33-0.07892 1.7639 0.0048 0.4339 0.08374-0.0048 0.15008-0.97499 0.14743-0.97014-0.0026-1.3251-0.07116-0.7889-0.15225zm3.7034 0.0036c0.43882-0.08438 1.0738-0.08118 1.4111 0.0071 0.33729 0.0883-0.02177 0.15734-0.79786 0.15342-0.77611-0.0039-1.0521-0.07616-0.61325-0.16054zm4.241-0.01099c1.0252-0.07149 2.6127-0.07074 3.5278 0.0017 0.91513 0.0724 0.07637 0.1309-1.8639 0.12998-1.9403-9.18e-4 -2.689-0.06016-1.6639-0.13165zm7.9363 7.41e-4c0.92749-0.07291 2.3562-0.07203 3.175 0.0019 0.81876 0.07399 0.05991 0.13364-1.6863 0.13256-1.7462-0.0011-2.4161-0.06161-1.4887-0.13452zm5.281 0.01656c0.33955-0.08873 0.89517-0.08873 1.2347 0 0.33955 0.08873 0.06174 0.16133-0.61736 0.16133-0.6791 0-0.95691-0.0726-0.61736-0.16133zm3.3734 0.0022c0.25466-0.10191 0.55893-0.08937 0.67616 0.02785 0.11722 0.11722-0.09114 0.2006-0.46302 0.18529-0.41097-0.01693-0.49456-0.10052-0.21314-0.21314zm1.9249-0.0035c0.34324-0.08944 0.81949-0.08356 1.0583 0.01307s-0.04199 0.16982-0.62407 0.16263c-0.58208-0.0072-0.7775-0.08625-0.43426-0.1757zm2.11 0.0013c0.33955-0.08873 0.89517-0.08873 1.2347 0 0.33955 0.08873 0.06174 0.16133-0.61736 0.16133-0.6791 0-0.95691-0.0726-0.61736-0.16133zm2.6499-0.0063c0.43883-0.08438 1.0738-0.08118 1.4111 0.0071 0.33729 0.0883-0.0218 0.15734-0.79786 0.15342-0.77611-0.0039-1.0521-0.07616-0.61325-0.16054zm3.1709 5.3e-4c0.43656-0.08409 1.1509-0.08409 1.5875 0s0.0794 0.15288-0.79375 0.15288c-0.87313 0-1.2303-0.0688-0.79375-0.15288zm4.2554 8e-3c0.25466-0.10191 0.55894-0.08937 0.67616 0.02785 0.11723 0.11722-0.0911 0.2006-0.46302 0.18529-0.41097-0.01693-0.49456-0.10052-0.21314-0.21314zm1.4111 0c0.25466-0.10191 0.55894-0.08937 0.67616 0.02785 0.11723 0.11722-0.0911 0.2006-0.46302 0.18529-0.41097-0.01693-0.49456-0.10052-0.21314-0.21314zm1.5722-0.0035c0.34324-0.08944 0.81949-0.08356 1.0583 0.01307s-0.042 0.16982-0.62407 0.16263c-0.58209-0.0072-0.7775-0.08625-0.43426-0.1757zm1.9336 0.01083c0.24254-0.09786 0.63941-0.09786 0.88195 0 0.24253 0.09786 0.0441 0.17794-0.44097 0.17794s-0.68351-0.08007-0.44098-0.17794zm3.9026-0.0073c0.25466-0.10191 0.55893-0.08937 0.67616 0.02785 0.11722 0.11722-0.0911 0.2006-0.46303 0.18529-0.41096-0.01693-0.49455-0.10052-0.21313-0.21314zm2.2758-0.01216c0.53625-0.08109 1.33-0.07892 1.7639 0.0048 0.4339 0.08374-5e-3 0.15008-0.97499 0.14743-0.97013-0.0026-1.3251-0.07116-0.7889-0.15225zm4.764-0.0025c0.63407-0.07851 1.5866-0.07689 2.1167 0.0036s0.0113 0.14474-1.1528 0.14275c-1.1642-2e-3 -1.5979-0.06784-0.96382-0.14635zm5.4617 0.01249c0.33955-0.08873 0.89517-0.08873 1.2347 0s0.0617 0.16133-0.61736 0.16133c-0.6791 0-0.95691-0.0726-0.61736-0.16133zm3.0049-0.01249c0.63407-0.07851 1.5866-0.07689 2.1167 0.0036s0.0113 0.14474-1.1528 0.14275c-1.1642-2e-3 -1.5979-0.06784-0.96382-0.14635zm3.5215 0.02203c0.24253-0.09786 0.63941-0.09786 0.88194 0 0.24254 0.09786 0.0441 0.17794-0.44097 0.17794s-0.6835-0.08007-0.44097-0.17794zm2.8222 0c0.24254-0.09786 0.63941-0.09786 0.88195 0 0.24253 0.09786 0.0441 0.17794-0.44098 0.17794-0.48507 0-0.6835-0.08007-0.44097-0.17794zm3.0035-0.01951c0.53625-0.08109 1.33-0.07892 1.7639 0.0048 0.4339 0.08374-5e-3 0.15008-0.97499 0.14743-0.97014-0.0026-1.3251-0.07116-0.7889-0.15225zm3.0158 0.01216c0.25466-0.10191 0.55894-0.08937 0.67616 0.02785 0.11723 0.11723-0.0911 0.2006-0.46302 0.18529-0.41097-0.01693-0.49456-0.10052-0.21314-0.21314zm-68.081-6.0208c13.646-0.05115 35.871-0.05115 49.389 1.6e-5 13.518 0.05116 2.3537 0.09302-24.81 0.09301-27.164-9e-6 -38.224-0.04187-24.579-0.09302z" fill="#757575"/>
   <path d="m92.462 195.95c0.25466-0.1019 0.55893-0.0894 0.67616 0.0278 0.11722 0.11722-0.09114 0.2006-0.46302 0.18528-0.41097-0.0169-0.49456-0.10052-0.21314-0.21313zm78.554-62.201c0-27.261 0.0419-38.413 0.093-24.783 0.0512 13.63 0.0512 35.935 0 49.565s-0.093 2.4783-0.093-24.783zm-91.982-80.698c12.466-0.05138 32.866-0.05138 45.332 0 12.466 0.05138 2.2666 0.09342-22.666 0.09342-24.933 0-35.132-0.04204-22.666-0.09342z" fill="#434343"/>
   <path d="m74.978 204.4c13.921-0.0511 36.702-0.0511 50.624 0s2.5312 0.0929-25.312 0.0929c-27.843 0-39.233-0.0418-25.312-0.0929zm-45.175-23.548c0.0072-0.58208 0.08625-0.7775 0.1757-0.43425 0.08944 0.34324 0.08356 0.81949-0.01307 1.0583-0.09664 0.23884-0.16982-0.042-0.16263-0.62408zm-0.04092-7.4377c0.01693-0.41097 0.10052-0.49456 0.21314-0.21313 0.10191 0.25466 0.08938 0.55893-0.02785 0.67615-0.11723 0.11723-0.2006-0.0911-0.18529-0.46302zm0-3.5278c0.01693-0.41097 0.10052-0.49456 0.21314-0.21314 0.10191 0.25466 0.08938 0.55893-0.02785 0.67616-0.11723 0.11722-0.2006-0.0911-0.18529-0.46302zm0.02785-3.322c0-0.48507 0.08007-0.6835 0.17794-0.44097 0.09787 0.24254 0.09787 0.63941 0 0.88195-0.09786 0.24253-0.17794 0.0441-0.17794-0.44098zm-0.02785-1.6169c0.01693-0.41097 0.10052-0.49456 0.21314-0.21314 0.10191 0.25466 0.08937 0.55893-0.02785 0.67616-0.11722 0.11722-0.2006-0.0911-0.18529-0.46302zm0-1.7639c0.01693-0.41097 0.10052-0.49456 0.21314-0.21314 0.10191 0.25466 0.08937 0.55893-0.02785 0.67616-0.11722 0.11722-0.2006-0.0911-0.18529-0.46302zm0-5.2917c0.01693-0.41097 0.10052-0.49456 0.21314-0.21314 0.10191 0.25466 0.08937 0.55894-0.02785 0.67616-0.11722 0.11723-0.2006-0.0911-0.18529-0.46302zm0-2.8222c0.01693-0.41097 0.10052-0.49456 0.21314-0.21314 0.10191 0.25466 0.08937 0.55893-0.02785 0.67616-0.11722 0.11722-0.2006-0.0911-0.18529-0.46302zm0-2.4694c0.01693-0.41097 0.10052-0.49456 0.21314-0.21313 0.10191 0.25465 0.08937 0.55893-0.02785 0.67615-0.11722 0.11723-0.2006-0.0911-0.18529-0.46302zm0-4.5861c0.01693-0.41097 0.10052-0.49456 0.21314-0.21314 0.10191 0.25466 0.08937 0.55894-0.02785 0.67616-0.11722 0.11723-0.2006-0.0911-0.18529-0.46302zm0-1.4111c0.01693-0.41097 0.10052-0.49456 0.21314-0.21314 0.10191 0.25466 0.08937 0.55894-0.02785 0.67616-0.11722 0.11723-0.2006-0.0911-0.18529-0.46302zm0.02785-3.322c0-0.48507 0.08007-0.68351 0.17794-0.44097 0.09787 0.24253 0.09787 0.63941 0 0.88194-0.09786 0.24254-0.17794 0.0441-0.17794-0.44097zm-0.02785-1.6169c0.01693-0.41097 0.10052-0.49456 0.21314-0.21314 0.10191 0.25466 0.08937 0.55894-0.02785 0.67616-0.11722 0.11723-0.2006-0.0911-0.18529-0.46302zm0.04092-3.8512c0.0072-0.58208 0.08625-0.7775 0.1757-0.43426 0.08944 0.34325 0.08356 0.8195-0.01307 1.0583-0.09664 0.23884-0.16982-0.042-0.16263-0.62408zm-0.04092-6.0266c0.01693-0.41097 0.10052-0.49456 0.21314-0.21314 0.10191 0.25466 0.08938 0.55894-0.02785 0.67616-0.11723 0.11723-0.2006-0.0911-0.18529-0.46302zm0-2.8222c0.01693-0.41097 0.10052-0.49456 0.21314-0.21314 0.10191 0.25466 0.08938 0.55893-0.02785 0.67616-0.11723 0.11723-0.2006-0.0911-0.18529-0.46302zm0-2.8222c0.01693-0.41097 0.10052-0.49456 0.21314-0.21314 0.10191 0.25466 0.08938 0.55893-0.02785 0.67616-0.11723 0.11722-0.2006-0.0911-0.18529-0.46302zm0.02785-2.9692c0-0.48507 0.08007-0.6835 0.17794-0.44097 0.09787 0.24254 0.09787 0.63941 0 0.88195-0.09786 0.24253-0.17794 0.0441-0.17794-0.44098zm0-5.6444c0-0.48507 0.08007-0.68351 0.17794-0.44097 0.09787 0.24253 0.09787 0.63941 0 0.88194-0.09786 0.24254-0.17794 0.0441-0.17794-0.44097zm0-11.994c0-0.48507 0.08007-0.6835 0.17794-0.44097 0.09787 0.24254 0.09787 0.63941 0 0.88195-0.09786 0.24253-0.17794 0.0441-0.17794-0.44098zm0-8.1139c0-0.48507 0.08007-0.68351 0.17794-0.44097 0.09787 0.24254 0.09787 0.63941 0 0.88194-0.09786 0.24254-0.17794 0.0441-0.17794-0.44097zm-0.02785-4.0863c0.01693-0.41097 0.10052-0.49456 0.21314-0.21314 0.10191 0.25466 0.08937 0.55893-0.02785 0.67616-0.11722 0.11722-0.2006-0.09114-0.18529-0.46302zm0-4.2333c0.01693-0.41097 0.10052-0.49456 0.21314-0.21314 0.10191 0.25466 0.08937 0.55893-0.02785 0.67616-0.11722 0.11722-0.2006-0.09114-0.18529-0.46302zm0.07305-3.1456c0.0026-0.97014 0.07116-1.3251 0.15225-0.7889 0.08109 0.53624 0.07892 1.33-0.0048 1.7639-0.08374 0.4339-0.15008-0.0049-0.14743-0.97499zm5.5435-15.832c0-0.07326 0.27781-0.35107 0.61736-0.61736 0.55952-0.43881 0.572-0.42633 0.13319 0.13319-0.46086 0.58764-0.75055 0.77452-0.75055 0.48417zm9.1722-5.864c-0.31796-0.20548-0.36147-0.34413-0.10902-0.34738 0.23108-3e-3 0.51826 0.15335 0.63818 0.34738 0.27069 0.43798 0.14856 0.43798-0.52917 0zm5.2035-0.93919c0.24254-0.09786 0.63941-0.09786 0.88194 0 0.24253 0.09787 0.0441 0.17794-0.44097 0.17794-0.48507 0-0.68351-0.08007-0.44097-0.17794zm100.56-0.0073c0.25466-0.10191 0.55894-0.08937 0.67616 0.02785 0.11723 0.11722-0.0911 0.2006-0.46302 0.18529-0.41097-0.01693-0.49456-0.10052-0.21314-0.21314zm-95.448-10.233c0.33955-0.08873 0.89517-0.08873 1.2347 0 0.33955 0.08873 0.06174 0.16133-0.61736 0.16133-0.6791 0-0.95691-0.0726-0.61736-0.16133z" fill="#2d2d2d"/>
   <path d="m46.315 214.29c-6.5036-1.0933-12.73-4.415-17.503-9.338-4.2286-4.3615-6.5608-8.5837-8.1058-14.674l-0.84989-3.3504 0.0076-52.96c0.0074-51.088 0.03181-53.069 0.69159-56.053 0.76464-3.4581 2.7278-7.929 4.8608-11.07 0.77873-1.1467 2.8467-3.4466 4.5954-5.1107 3.8963-3.7079 8.487-6.234 13.764-7.5739l3.421-0.86869 106.54-0.0036 3.421 0.87046c11.364 2.8915 20.127 11.664 23.009 23.035l0.91003 3.59-1e-3 53.206-1e-3 53.206-0.89128 3.3514c-2.7393 10.3-9.4641 18.073-18.886 21.829-5.6889 2.2677-2.7171 2.1649-61.08 2.112-29.161-0.0264-53.416-0.11476-53.901-0.19629zm107.32-10.316c1.6082-0.37538 3.5591-0.97098 4.3352-1.3236 1.6593-0.75379 5.2181-3.0885 5.828-3.8234 0.23405-0.28201 0.59083-0.41059 0.79285-0.28573 0.20202 0.12485 0.26516 0.0617 0.1403-0.1403-0.27691-0.44806 0.60705-1.2517 0.97361-0.88517 0.14383 0.14383 0.21456 0.10277 0.15717-0.0913-0.17721-0.59911 0.76349-1.9743 1.1761-1.7193 0.21428 0.13242 0.29472 0.0873 0.17878-0.10032-0.27238-0.44073 0.95475-2.3252 1.2935-1.9864 0.14117 0.14117 0.14193-0.0423 2e-3 -0.4078-0.16487-0.42966-0.1232-0.58304 0.11791-0.43402 0.2051 0.12676 0.35522 0.0337 0.3336-0.20671-0.0216-0.24045 0.43288-1.7866 1.01-3.4358l1.0493-2.9986v-104.42l-1.0493-2.9986c-0.57709-1.6492-1.0316-3.1953-1.01-3.4358 0.0216-0.24045-0.1285-0.33347-0.3336-0.20671-0.24111 0.14902-0.28278-0.0044-0.11791-0.43402 0.14024-0.36546 0.13948-0.54898-2e-3 -0.40781-0.33877 0.33877-1.5659-1.5456-1.2935-1.9864 0.11594-0.1876 0.0355-0.23275-0.17878-0.10032-0.4126 0.255-1.3533-1.1202-1.1761-1.7193 0.0574-0.19403-0.0162-0.23226-0.16346-0.08497-0.37485 0.37484-1.9355-1.1653-1.6638-1.642 0.12214-0.21433 0.0915-0.27139-0.068-0.1268-0.15953 0.14459-0.7971-0.12385-1.4168-0.59654-2.0536-1.5664-4.6739-2.9586-7.1115-3.7786l-2.4072-0.80974-51.294-0.10469c-38.572-0.07872-51.784-8.82e-4 -53.269 0.31388-1.0864 0.23022-2.4956 0.42017-3.1315 0.42213-0.63598 0.0019-0.97808 0.11372-0.76023 0.24836 0.23465 0.14502 0.02589 0.33772-0.51218 0.47277-0.49956 0.12538-1.745 0.7254-2.7675 1.3334s-2.0507 1.1085-2.2847 1.1122c-0.234 0.0037-0.35397 0.12245-0.26661 0.26381 0.14484 0.23435-0.69513 0.7558-1.3364 0.82964-0.14552 0.01676-0.2491 0.16437-0.23017 0.32802 0.05978 0.51692-1.89 2.3332-2.2596 2.1048-0.19432-0.12009-0.25467-0.05877-0.13413 0.13628 0.28559 0.4621-1.3246 2.6473-1.7002 2.3073-0.15786-0.14292-0.17871-0.07095-0.04635 0.15992 0.28695 0.50051-0.95894 2.6882-1.3234 2.3238-0.13891-0.13891-0.14704 0.02243-0.01806 0.35854 0.12898 0.33611 0.06236 0.81852-0.14804 1.072-0.2104 0.25351-0.6464 1.5612-0.96889 2.9059-0.53121 2.2151-0.59125 7.2053-0.63846 53.069-0.02866 27.843 0.08696 51.576 0.25692 52.74 0.16997 1.1642 0.60739 2.9722 0.97206 4.0178 0.36466 1.0456 0.56246 2.0775 0.43955 2.293-0.12291 0.21558-0.09276 0.27347 0.067 0.12864 0.39709-0.35996 1.6618 1.7889 1.3613 2.313-0.13236 0.23087-0.11151 0.30283 0.04635 0.15992 0.37555-0.34001 1.9858 1.8452 1.7002 2.3073-0.12055 0.19505-0.04687 0.24814 0.16373 0.11799 0.3853-0.23814 0.94538 0.35369 0.95543 1.0096 3e-3 0.19402 0.16415 0.3552 0.35818 0.35817 0.65589 0.0101 1.2477 0.57013 1.0096 0.95543-0.13016 0.2106-0.07707 0.28428 0.11798 0.16373 0.3968-0.24523 2.6784 1.3018 2.372 1.6083-0.10734 0.10734 0.01385 0.17885 0.26932 0.1589 0.25547-0.0199 1.4964 0.46358 2.7575 1.0745 4.6164 2.2362 2.2594 2.147 57.577 2.1786 48.591 0.0278 50.447 5e-3 53.269-0.65375zm-103.09-6.8597c-4.8993-1.3548-10.138-5.677-12.294-10.143-2.2301-4.6194-2.1697-3.1238-2.1697-53.761 0-51.142-0.12305-48.403 2.3927-53.26 1.5921-3.074 5.2614-6.8116 8.0871-8.2378 4.5843-2.3136 0.99224-2.1701 54.054-2.1601l48.178 0.0091 2.3134 0.78869c3.245 1.1063 6.0908 2.9143 8.2588 5.2471 2.1843 2.3504 3.3396 4.3124 4.4745 7.5988l0.82829 2.3986v96.308l-0.94686 2.551c-2.3487 6.3277-7.364 11.028-13.517 12.669-2.4988 0.66627-97.249 0.65873-99.66-8e-3zm100.01-1.9519c6.1718-2.1692 10.382-6.7858 11.952-13.106 0.51699-2.0814 0.57517-6.989 0.57517-48.521 0-50.683 0.10765-48.009-2.1145-52.527-2.0635-4.1961-5.8243-7.4414-10.492-9.0534l-2.387-0.82442h-95.603l-2.2984 0.89627c-6.2774 2.4479-10.541 7.2422-11.824 13.296-0.7455 3.5181-0.75561 92.933-0.01091 96.447 1.4146 6.674 7.1415 12.52 13.544 13.827 1.5273 0.31161 14.07 0.40228 49.317 0.35649 46.775-0.0608 47.29-0.069 49.341-0.78963zm-36.509-18.615c-9.6267-1.2099-16.495-7.2298-18.689-16.381-0.97307-4.0591-0.98618-10.779-0.02833-14.524 2.7799-10.869 11.129-17.186 22.716-17.186 2.5072 0 4.084 0.21837 6.379 0.88344 3.3671 0.97575 7.6008 2.9059 7.861 3.5838 0.13289 0.34629-2.1858 4.0638-3.4575 5.5435-0.14622 0.17012-0.79342-0.0164-1.4382-0.41448s-2.4424-1.1508-3.9946-1.6727c-2.5162-0.84597-3.2048-0.93147-6.35-0.78844-3.0632 0.1393-3.8066 0.30317-5.6444 1.2442-5.2881 2.7077-8.0466 8.0981-8.0782 15.786-9e-3 2.1343 0.19708 4.7537 0.45747 5.8208 1.4718 6.0318 5.4893 9.8478 11.56 10.98 3.8125 0.7112 8.0856-0.24399 12.158-2.7176 1.1619-0.70581 2.1687-1.2264 2.2373-1.157 0.16154 0.16352 3.0089 6.6353 3.0089 6.839 0 0.27402-3.2886 1.8111-5.4681 2.5558-3.5469 1.2119-10.064 2.0022-13.229 1.6044zm-26.671-23.357c-4.2035-1.2034-6.5018-3.0878-8.2226-6.7418l-0.91375-1.9403-0.0982-28.487-0.0982-28.487h8.1339v26.238c0 22.715 0.07289 26.444 0.54287 27.776 0.90248 2.5579 3.1329 4.4323 5.8071 4.8802l1.2347 0.20681 0.10053 3.6107 0.10054 3.6107-2.2172-0.0251c-1.2195-0.0138-3.1858-0.30244-4.3698-0.64137zm-51.248-83.559c0.43881-0.55952 0.42633-0.572-0.13319-0.13319-0.33955 0.26629-0.61736 0.5441-0.61736 0.61736 0 0.29035 0.2897 0.10347 0.75055-0.48417z"/>
  </g>
 </g>
</svg>