<?xml version="1.0" standalone="no"?>
<!DOCTYPE svg PUBLIC "-//W3C//DTD SVG 1.1//EN" "http://www.w3.org/Graphics/SVG/1.1/DTD/svg11.dtd">
<svg xmlns="http://www.w3.org/2000/svg" width="192.38999938964844" height="178.5500030517578" version="1.1" viewBox="0 0 192.39 178.55" xml:space="preserve"><g transform="translate(-1.0199 -66.4)"><path d="m89.582 151.16c-2.2237 0.82761-7.1138-3.6783-3.3189-3.3353 6.3001 2.9233 3.1258-7.4515-0.0472-9.2249-0.18425-2.9132 7.8332 1.9292 10.524 2.3586 6.0143 1.7444-1.8255-7.9585 4.8601-5.5867 6.5091 1.0382 1.2284-5.331-1.3101-7.0046-2.1865-1.6564-2.0137-2.0261 0.56812-1.082 4.1647 1.1032 9.2718 2.6536 12.978-0.41667-1.1484-3.2206-9.252-4.0138-3.1228-7.0395 3.6958-2.6384-4.3633-3.0495-2.6343-4.5584 2.202-1.6019 5.7674-5.133 0.95934-5.6375-2.8774-1.7211-6.9114-4.2322-9.362-4.728 3.8034-1.7405 12.65-0.46151 12.514-5.6535-2.5407-1.5263-9.2204-1.0844-5.0354-5.2437 0.76352-3.3288-7.1388-1.4717-3.3099-5.5675 2.0387-5.7811-6.9297-1.5612-9.4709-0.31911-6.3668 3.548 2.384-8.215-4.4662-5.2801-3.0117 0.77385-5.5743 2.5874-8.1659 4.2347 2.0767-3.8544 5.2498-8.2546 3.1154-12.749-3.1707-1.5067-5.5103 5.7702-7.5244 3.6471-1.7167-3.1589-4.4914-3.9126-7.482-1.7592-3.4108-3.9077-9.1353-3.449-10.563 2.1537-1.1278 5.3308-5.7313-2.7819-7.493 2.9236-2.3958 2.2367-5.6551-3.2909-7.7186 0.86649-2.6236-1.3406-8.1408-2.6813-5.8127 2.2321 0.96761 1.9402 2.0737 5.3115-1.2357 3.0898-6.0554-3.6168-2.8211 4.6022-1.6797 5.931-3.5558-1.7427-7.0211-4.3398-11.128-4.2523-3.8889 1.2659 4.3088 5.1492 0.46587 5.2756-4.4755-0.27702-0.87719 6.0336-5.9706 5.4772-4.8018 1.141-1.316-1.5135 0.67549-2.6858-4.4909-3.5139 4.4182-2.6751 1.353-6.412-2.3824-6.2402 6.7356-1.1885 9.4905-3.3272 0.13674-3.9977 6.8185-0.85389 5.2547-5.895 0.86019-5.5356 7.6599-1.0416 11.136-3.1856 3.6016 1.915 7.7934-1.8871 10.516-2.1893 0.33279-4.7581-6.539-10.252-7.2433-2.7852 0.54388 5.6432-8.8856-3.7039-7.3354 4.4001-3.946-0.55543-9.372-4.1411-12.902-2.4689 1.8121 7.0243-9.4585 0.10975-7.1991 6.8367-3.3609 1.2639-7.7674 1.1682-10.527 3.0989-0.8093 2.6251 6.3329 5.2847 3.7078 6.0438-5.0075 0.15199-5.256 3.3913-1.6621 5.8581-1.1023 0.96281-7.0217 2.1496-4.5415 4.0168 2.763 2.905 5.664 5.727 8.8515 8.1132-4.3663 0.76343-11.078-2.1268-13.964 2.0058 1.2509 2.1165 5.0326 2.7757 6.102 4.2272-2.264 1.6161-5.0311 5.0453-0.35098 5.5265 3.3124 0.54072-2.2962 3.3565-2.1317 5.0429 2.5522 3.398 8.646-0.20128 12.645 0.43024 0.27773 1.298-4.4477 5.438-1.151 5.9624 2.5065 1.0276 7.5054-2.037 8.3834-0.5-2.061 2.0071-7.768 9.1108-3.0442 10.136 4.6974-2.0902 3.3576 3.0905-0.56047 2.6206-6.6822 1.3418-2.3282-7.4813-3.8775-9.6393-3.4533 4e-3 -5.5772-1.7079-4.9695-5.3113-3.2323-0.15211-13.137 0.7867-10.047-4.8666 2.0287-3.3687-4.4998-5.379 0.00578-8.8534-2.8016-2.3108-7.3483-6.2898-1.387-8.0638 2.7492-0.87846 8.9192-2.2662 3.3916-4.9857-6.3503-2.7661 5.371-5.9183-0.033545-9.4407 1.0462-2.7616 5.9476-2.9721 2.2654-6.6278-3.2799-6.4499 6.6905-4.4846 9.6022-7.5543 1.1442-4.6853 8.2388-1.3559 8.8431-6.8346 3.6608-2.0216 8.577 0.96959 12.295 1.5999-0.1764-6.3319 7.7308 0.58114 8.575-5.2718 2.3079-5.4667 7.42-0.83746 9.5005 2.2793 0.89292 2.4314 2.6064 0.73512 4.1444-0.07826 1.5895-1.3533 3.121-1.4821 4.5696 0.13578 3.1738 4.3432 7.3739-2.5247 10.328 2.5228 4.1053-1.0226 10.766-4.6894 10.981 3.147-1.2067 6.0962 8.2713 0.86239 7.7374 7.2225 3.6934-0.87422 7.6059-0.9869 11.445-0.90772 0.0582 2.2939-2.189 6.6337 1.367 6.8857 4.5062 0.5855-2.0909 6.8836 3.9951 6.7936 1.3947 1.1485 5.6531 2.3602 2.5958 4.1155-1.0765 3.1976-9.8146 3.925-4.744 6.9382 5.1772-0.0726 4.4426 4.2597 1.8545 7.0811 1.1948 1.2537 4.6528 3.9616 0.5656 5.9922 0.58136 2.9411 7.6754 6.9276 1.1602 8.4776-3.5069 1.3905-8.6265 0.84024-6.2741 6.0692 0.76435 2.6448-4.1383 0.79809-5.3083 2.4086 0.50557 6.3715-6.1507 5.6113-10.144 4.4261-0.27345 2.3437 1.4704 10.084-3.0749 8.7174z" fill="#00943e" stroke-width=".73047"/></g><g transform="translate(-1.0199 -66.4)"><g><path d="m78.139 171.61h19.454v8.3567h-19.454z" color="#000000" stroke-width="2.514" style="-inkscape-stroke:none"/><path d="m76.881 170.35v10.871h21.969v-10.871zm2.5156 2.5137h16.939v5.8438h-16.939z" color="#000000" style="-inkscape-stroke:none"/></g><g><path d="m143.41 172.54h19.454v8.3567h-19.454z" color="#000000" stroke-width="2.514" style="-inkscape-stroke:none"/><path d="m142.15 171.28v10.871h21.969v-10.871zm2.5156 2.5156h16.939v5.8418h-16.939z" color="#000000" style="-inkscape-stroke:none"/></g><g stroke="#000"><g transform="scale(1.031 .96991)" stroke-width="1.8818" aria-label="N"><g stroke="none"><path d="m100.08 202.65v-50.745h11.965l10.135 29.912v-29.912h11.331v50.745h-11.472l-10.628-28.012v28.012z" color="#000000" style="-inkscape-stroke:none"/><path d="m99.141 150.97v52.627h13.213v-23.82l9.0371 23.82h13.062v-52.627h-13.213v25.145l-8.5195-25.145zm1.8809 1.8809h10.35l9.918 29.273 1.832-0.30078v-28.973h9.4512v48.863h-9.8828l-10.398-27.404-1.8203 0.33398v27.07h-9.4492z" color="#000000" style="-inkscape-stroke:none"/></g></g><g transform="scale(1.0861 .92075)" stroke-width="3.076" aria-label="T"><g stroke="none"><path d="m31.85 145.17v-15.416h46.824v15.416h-13.921v67.533h-18.983v-67.533z" color="#000000" style="-inkscape-stroke:none"/><path d="m30.312 128.21v18.492h13.92v67.533h22.059v-67.533h13.92v-18.492zm3.0742 3.0762h43.75v12.34h-13.922v67.533h-15.906v-67.533h-13.922z" color="#000000" style="-inkscape-stroke:none"/></g></g><g transform="scale(1.0799 .926)" stroke-width="1.9814" aria-label="T"><g stroke="none"><path d="m148.02 169v-9.9305h30.162v9.9305h-8.9671v43.502h-12.228v-43.502z" color="#000000" style="-inkscape-stroke:none"/><path d="m147.03 158.08v11.912h8.9668v43.5h14.209v-43.5h8.9668v-11.912zm1.9805 1.9805h28.182v7.9492h-8.9668v43.502h-10.246v-43.502h-8.9688z" color="#000000" style="-inkscape-stroke:none"/></g></g></g><text x="79.06179" y="174.14548" fill="#000000" font-family="Impact" font-size="25.4px" font-stretch="condensed" stroke="#000000" stroke-width="1.179" text-align="end" text-anchor="end" xml:space="preserve"><tspan x="79.06179" y="174.14548" font-family="Impact" font-stretch="condensed" stroke-width="1.179"/></text><g><g transform="scale(1.081 .92505)" stroke-width=".81202" aria-label="TREE"><path d="m48.831 219.59v4.1514h-3.2032v16.593h-5.3942v-16.593h-3.1904v-4.1514z" color="#000000" style="-inkscape-stroke:none"/><path d="m36.637 219.18v4.9629h3.1914v16.592h6.2051v-16.592h3.2031v-4.9629h-0.40625zm0.8125 0.8125h10.977v3.3379h-3.2031v16.594h-4.584v-16.594h-3.1895z" color="#000000" style="-inkscape-stroke:none"/><path d="m50.061 219.59h3.8182q3.8182 0 5.1636 0.2947 1.3582 0.29469 2.2038 1.5119 0.85846 1.2044 0.85846 3.8567 0 2.4216-0.6022 3.2545-0.6022 0.83284-2.3704 0.9994 1.6016 0.3972 2.1526 1.0635t0.67908 1.23q0.14094 0.55095 0.14094 3.0623v5.4711h-5.0098v-6.8933q0-1.6657-0.26907-2.0629-0.25626-0.3972-1.371-0.3972v9.3534h-5.3942zm5.3942 3.5492v4.6126q0.90971 0 1.2685-0.24344 0.37157-0.25626 0.37157-1.6272v-1.1403q0-0.98659-0.35876-1.2941-0.34595-0.30751-1.2813-0.30751z" color="#000000" style="-inkscape-stroke:none"/><path d="m49.654 219.18v21.555h6.207v-9.3086c0.1262 0.0145 0.29765 0.0149 0.38086 0.0391 0.172 0.0498 0.22946 0.10918 0.24219 0.12891l0.0039 4e-3 2e-3 4e-3c0.01579 0.0233 0.09355 0.22304 0.13477 0.53906 0.04122 0.31602 0.06445 0.75063 0.06445 1.2949v7.2988h5.8223v-5.877c0-0.84091-0.01315-1.5185-0.03711-2.0391-0.02375-0.51599-0.05111-0.85853-0.11523-1.1133-1.76e-4 -7.7e-4 -0.0018-1e-3 -2e-3 -2e-3 -0.10598-0.46398-0.36713-0.92167-0.75977-1.3965-0.25494-0.30831-0.84676-0.45188-1.2969-0.65821 0.64866-0.19164 1.2045-0.45624 1.5312-0.9082 0.51096-0.70663 0.67969-1.8441 0.67969-3.4922 0-1.8098-0.27922-3.1703-0.93164-4.0879-0.61312-0.88251-1.4496-1.4604-2.4512-1.6777-0.97532-0.21365-2.6941-0.30274-5.25-0.30274zm0.8125 0.8125h3.4121c2.535 0 4.2577 0.10587 5.0762 0.28516h2e-3c0.8093 0.1756 1.4426 0.60526 1.957 1.3457v2e-3l2e-3 2e-3c0.49055 0.68823 0.7832 1.8967 0.7832 3.6211 0 1.5808-0.23341 2.6138-0.52539 3.0176-0.29844 0.41274-0.95992 0.72651-2.0801 0.83203l-0.05859 0.79883c1.0268 0.25465 1.6681 0.60192 1.9375 0.92773 0.34131 0.41276 0.5305 0.7756 0.5957 1.0625l2e-3 4e-3v6e-3c0.02863 0.1119 0.07073 0.45879 0.09375 0.95898 0.02302 0.5002 0.03516 1.1686 0.03516 2.002v5.0664h-4.1973v-6.4883c0-0.56615-0.02184-1.0288-0.07031-1.4004-0.04815-0.36914-0.10649-0.64441-0.26758-0.88476-0.1583-0.24274-0.41178-0.3827-0.69531-0.46485-0.285-0.0826-0.61799-0.11523-1.0137-0.11523h-0.40625v9.3535h-4.582zm4.582 2.7363v5.4238h0.40625c0.64269 0 1.125-0.0607 1.4961-0.3125l2e-3 -2e-3h2e-3c0.26314-0.18148 0.37041-0.45984 0.44336-0.7793 0.07295-0.31946 0.10352-0.70631 0.10352-1.1816v-1.1406c0-0.70512-0.10052-1.2548-0.5-1.5996-0.36625-0.32356-0.8806-0.4082-1.5469-0.4082zm0.8125 0.89453c0.23042 0.0428 0.54871 0.0726 0.60547 0.12305l2e-3 2e-3 0.0039 2e-3c0.07628 0.0654 0.2168 0.37781 0.2168 0.98632v1.1406c0 0.43865-0.03112 0.779-0.08203 1.002-0.0505 0.22115-0.12514 0.29818-0.11133 0.28906-1.96e-4 1.4e-4 -0.0018-1.3e-4 -2e-3 0-0.06575 0.0443-0.38902 0.0696-0.63281 0.10547z" color="#000000" style="-inkscape-stroke:none"/><path d="m64.194 219.59h8.9946v4.1514h-3.6004v3.9336h3.3698v3.9464h-3.3698v4.5614h3.9592v4.1514h-9.3534z" color="#000000" style="-inkscape-stroke:none"/><path d="m63.787 219.18v21.555h10.166v-4.9629h-3.959v-3.748h3.3691v-4.7598h-3.3691v-3.1211h3.5996v-4.9629zm0.8125 0.8125h8.1836v3.3379h-3.6016v4.7461h3.3691v3.1348h-3.3691v5.373h3.959v3.3398h-8.541z" color="#000000" style="-inkscape-stroke:none"/><path d="m75.097 219.59h8.9946v4.1514h-3.6004v3.9336h3.3698v3.9464h-3.3698v4.5614h3.9592v4.1514h-9.3534z" color="#000000" style="-inkscape-stroke:none"/><path d="m74.691 219.18v21.555h10.166v-4.9629h-3.959v-3.748h3.3691v-4.7598h-3.3691v-3.1211h3.5996v-4.9629zm0.8125 0.8125h8.1816v3.3379h-3.5996v4.7461h3.3691v3.1348h-3.3691v5.373h3.959v3.3398h-8.541z" color="#000000" style="-inkscape-stroke:none"/></g><g transform="scale(1.081 .92505)" stroke-width=".81202" aria-label="SERVICE"><path d="m103.5 225.66h-5.0098v-1.5375q0-1.0763-0.19219-1.371-0.19219-0.2947-0.64064-0.2947-0.48689 0-0.74314 0.3972-0.24344 0.3972-0.24344 1.2044 0 1.0378 0.28188 1.5632 0.26907 0.52532 1.5247 1.2685 3.6004 2.1397 4.5357 3.5107 0.93534 1.371 0.93534 4.4204 0 2.2166-0.52533 3.2673-0.51251 1.0506-1.9988 1.7682-1.4863 0.70471-3.4595 0.70471-2.1654 0-3.7029-0.82002-1.5247-0.82002-1.9988-2.0885-0.47408-1.2685-0.47408-3.6004v-1.3582h5.0098v2.5241q0 1.166 0.20501 1.4991 0.21782 0.33313 0.75596 0.33313 0.53814 0 0.7944-0.42282 0.26907-0.42283 0.26907-1.2557 0-1.8322-0.4997-2.396-0.51251-0.56377-2.5241-1.8835-2.0116-1.3325-2.6651-1.9347-0.65346-0.6022-1.0891-1.6657-0.42282-1.0635-0.42282-2.7163 0-2.3832 0.6022-3.4851 0.61502-1.1019 1.9732-1.7169 1.3582-0.62782 3.2801-0.62782 2.1013 0 3.5748 0.67908 1.4863 0.67908 1.9604 1.7169 0.48689 1.025 0.48689 3.4979z" color="#000000" style="-inkscape-stroke:none"/><path d="m97.482 218.54c-1.3255 0-2.4776 0.21686-3.4492 0.66601-0.96609 0.43806-1.7023 1.0719-2.1582 1.8887l-2e-3 2e-3c-0.46054 0.84269-0.65234 2.0567-0.65234 3.6797 0 1.1365 0.14456 2.0911 0.45312 2.8672v4e-3c0.30723 0.75 0.6993 1.3588 1.1895 1.8106 0.47857 0.44103 1.3691 1.0819 2.7168 1.9746h2e-3c0.6279 0.41193 0.75025 0.55939 1.1523 0.85742h-5.3457v1.7637c0 1.5821 0.15343 2.8201 0.49805 3.7422 0.35598 0.95248 1.1096 1.725 2.1875 2.3047h2e-3c1.0949 0.58392 2.3977 0.86718 3.8926 0.86718 1.3638 0 2.5811-0.24453 3.6348-0.74414h2e-3c1.0427-0.50335 1.7916-1.1482 2.1856-1.9531v-2e-3c0.40081-0.80251 0.56835-1.9383 0.56836-3.4473 0-2.0745-0.30332-3.6187-1.0059-4.6484-0.70482-1.0331-2.2443-2.1928-4.6641-3.6309-0.34832-0.20615-0.36986-0.30143-0.58789-0.47461h5.8086v-1.2266c0-1.6725-0.14593-2.8684-0.52344-3.666l-2e-3 -2e-3c-0.36896-0.80572-1.111-1.4382-2.1562-1.916h-2e-3c-1.0486-0.48294-2.3003-0.7168-3.7441-0.7168zm0 0.8125c1.3571 0 2.4886 0.22057 3.4043 0.64258h2e-3c0.93459 0.42701 1.4964 0.93915 1.7598 1.5156l2e-3 4e-3v2e-3c0.2703 0.56905 0.44922 1.7023 0.44922 3.3242v0.41406h-4.1992v-1.1309c0-0.74168-0.0061-1.2078-0.25781-1.5938-0.20706-0.31749-0.59257-0.47851-0.98047-0.47851-0.435 0-0.84964 0.22075-1.084 0.58398l-2e-3 4e-3 -0.0039 4e-3c-0.22633 0.36928-0.30274 0.83707-0.30274 1.416 0 0.72616 0.08939 1.3023 0.32812 1.75 0.2612 0.50828 0.81656 0.92196 1.6777 1.4316v-2e-3c2.3808 1.4149 3.864 2.5958 4.4062 3.3906 0.54458 0.79821 0.86524 2.2 0.86524 4.1914 0 1.4457-0.18328 2.4877-0.48243 3.0859v2e-3l-2e-3 2e-3c-0.28984 0.59417-0.8731 1.1275-1.8106 1.5801-0.92732 0.43902-2.0175 0.66602-3.2832 0.66602-1.3916 0-2.5549-0.26454-3.5098-0.77344-0.95503-0.51363-1.5344-1.1342-1.8105-1.873-0.28749-0.76922-0.44922-1.9299-0.44922-3.457v-0.95312h4.1992v2.1191c1e-6 0.8011 0.0162 1.3088 0.26367 1.7109l0.0039 6e-3 2e-3 4e-3c0.22902 0.35027 0.65512 0.51758 1.0977 0.51758 0.46414 0 0.90219-0.22903 1.1387-0.61719 0.24194-0.38306 0.33008-0.87029 0.33008-1.4668 0-1.2584-0.1236-2.1268-0.60156-2.666l-4e-3 -4e-3c-0.41326-0.45458-1.2507-1.0642-2.5996-1.9492h-2e-3c-1.3334-0.88332-2.2208-1.5328-2.6133-1.8945-0.3802-0.35038-0.71307-0.85201-0.98633-1.5176v-2e-3c-0.25484-0.64171-0.39453-1.498-0.39453-2.5644 0-1.5546 0.21034-2.6626 0.55273-3.2891 0.36377-0.65052 0.94273-1.1615 1.7852-1.543h2e-3c0.83923-0.38794 1.8723-0.5918 3.1094-0.5918zm0.17969 3.5117c0.21003 0 0.25158 0.0339 0.30078 0.10937 0.0046 7e-3 0.12695 0.45705 0.12695 1.1504v1.9336c-0.28234-0.22573-0.71639-0.51354-0.77148-0.6211l-2e-3 -2e-3 -2e-3 -4e-3c-0.13525-0.25206-0.23242-0.71595-0.23242-1.3711 0-0.49448 0.08604-0.82494 0.18359-0.98633 0.10521-0.16093 0.18517-0.20898 0.39648-0.20898zm-0.45312 9.7773c0.21535 0.17272 0.72594 0.50807 0.81641 0.60742 0.18818 0.21318 0.39648 0.94147 0.39648 2.125 0 0.5115-0.09052 0.85709-0.20508 1.0371l-2e-3 4e-3 -0.0039 4e-3c-0.10554 0.17414-0.19289 0.22656-0.44531 0.22656-0.27001 0-0.34916-0.0557-0.41016-0.14649-0.02658-0.0459-0.14648-0.52917-0.14648-1.2793z" color="#000000" style="-inkscape-stroke:none"/><path d="m105.64 219.38h8.9946v4.1514h-3.6004v3.9336h3.3698v3.9464h-3.3698v4.5614h3.9592v4.1514h-9.3534z" color="#000000" style="-inkscape-stroke:none"/><path d="m105.24 218.97v21.555h10.166v-4.9629h-3.959v-3.75h3.3691v-4.7578h-3.3691v-3.1211h3.5996v-4.9629zm0.8125 0.81055h8.1816v3.3398h-3.5996v4.7461h3.3691v3.1348h-3.3691v5.373h3.959v3.3379h-8.541z" color="#000000" style="-inkscape-stroke:none"/><path d="m116.55 219.38h3.8182q3.8182 0 5.1636 0.2947 1.3582 0.29469 2.2038 1.5119 0.85846 1.2044 0.85846 3.8567 0 2.4216-0.6022 3.2545t-2.3704 0.9994q1.6016 0.3972 2.1526 1.0635t0.67908 1.23q0.14094 0.55095 0.14094 3.0623v5.4711h-5.0098v-6.8933q0-1.6657-0.26907-2.0629-0.25625-0.3972-1.371-0.3972v9.3534h-5.3942zm5.3942 3.5492v4.6126q0.90971 0 1.2685-0.24344 0.37157-0.25626 0.37157-1.6272v-1.1404q0-0.98658-0.35876-1.2941-0.34594-0.30751-1.2813-0.30751z" color="#000000" style="-inkscape-stroke:none"/><path d="m116.14 218.97v21.555h6.2051v-9.3106c0.12709 0.0145 0.29916 0.0168 0.38281 0.041 0.17199 0.0498 0.22947 0.10723 0.24219 0.12695l4e-3 8e-3c0.0158 0.0233 0.0955 0.22305 0.13672 0.53906 0.0412 0.31602 0.0625 0.75259 0.0625 1.2969v7.2988h5.8223v-5.877c0-0.8409-0.0112-1.5185-0.0352-2.0391-0.0237-0.51599-0.0511-0.85852-0.11523-1.1133-1.8e-4 -7.7e-4 -2e-3 -1e-3 -2e-3 -2e-3 -0.10598-0.46398-0.36713-0.92167-0.75976-1.3965-0.25508-0.30847-0.84837-0.4518-1.2988-0.6582 0.6495-0.19161 1.2042-0.45585 1.5312-0.9082 0.51095-0.70664 0.67969-1.8441 0.67969-3.4922 0-1.8098-0.27923-3.1703-0.93164-4.0879-0.61311-0.88252-1.4476-1.4604-2.4492-1.6777-0.97533-0.21364-2.6941-0.30273-5.25-0.30273zm0.8125 0.81055h3.4121c2.535 0 4.2577 0.10587 5.0762 0.28515 0.8093 0.1756 1.4426 0.60722 1.957 1.3477l2e-3 2e-3v2e-3c0.49055 0.68824 0.78321 1.8967 0.78321 3.6211 0 1.5808-0.23146 2.6118-0.52344 3.0156-0.29844 0.41274-0.95992 0.72846-2.0801 0.83399l-0.0606 0.79883c1.0268 0.25465 1.6681 0.60191 1.9375 0.92773 0.34132 0.41275 0.5305 0.77364 0.59571 1.0606l4e-3 0.012c0.0286 0.1119 0.0707 0.45879 0.0937 0.95898s0.0332 1.1686 0.0332 2.002v5.0645h-4.1973v-6.4863c0-0.56616-0.0218-1.0288-0.0703-1.4004-0.0481-0.36914-0.10453-0.64442-0.26563-0.88477-0.15823-0.24362-0.41318-0.38254-0.69726-0.46484-0.285-0.0826-0.61604-0.11524-1.0117-0.11524h-0.40625v9.3516h-4.582zm4.582 2.7383v5.4238h0.40625c0.64269 0 1.125-0.0607 1.4961-0.3125v-2e-3h2e-3c0.26314-0.18148 0.37041-0.45984 0.44336-0.77929 0.0729-0.31946 0.10351-0.70827 0.10351-1.1836v-1.1387c0-0.70512-0.0986-1.2548-0.49805-1.5996-0.36624-0.32357-0.8806-0.4082-1.5469-0.4082zm0.81055 0.89258c0.23117 0.0428 0.54861 0.0725 0.60547 0.12304l6e-3 6e-3c0.0763 0.0654 0.2168 0.37782 0.2168 0.98633v1.1387c0 0.43865-0.0311 0.779-0.082 1.002-0.0509 0.22296-0.12871 0.30166-0.11328 0.29102-0.0659 0.0444-0.38814 0.0696-0.63281 0.10547z" color="#000000" style="-inkscape-stroke:none"/><path d="m143.49 219.38-2.742 20.744h-8.1874l-3.1135-20.744h5.6889q0.98659 8.5718 1.4094 14.491 0.42282-5.9836 0.88409-10.635l0.37157-3.8567z" color="#000000" style="-inkscape-stroke:none"/><path d="m128.98 218.97 3.2363 21.555h8.8926l2.8496-21.555h-6.5215l-0.40625 4.2227c-0.17802 1.795-0.34238 4.0613-0.51172 6.1523-0.27534-3.1069-0.52023-6.0678-0.97461-10.016l-0.041-0.35937zm0.94335 0.81055h4.8496c0.63185 5.5259 1.0988 10.275 1.373 14.115h0.81055c0.28167-3.9861 0.57578-7.5272 0.88281-10.623v-2e-3l0.33594-3.4902h4.8574l-2.6348 19.932h-7.4824z" color="#000000" style="-inkscape-stroke:none"/><path d="m149.81 219.38v20.744h-5.3942v-20.744z" color="#000000" style="-inkscape-stroke:none"/><path d="m144.01 218.97v21.555h6.207v-21.555h-0.40625zm0.8125 0.81055h4.582v19.932h-4.582z" color="#000000" style="-inkscape-stroke:none"/><path d="m164.57 228.43h-5.3942v-3.6132q0-1.576-0.17938-1.9604-0.16657-0.3972-0.75596-0.3972-0.66627 0-0.84565 0.47408-0.17938 0.47407-0.17938 2.05v9.6353q0 1.5119 0.17938 1.9732t0.80721 0.46126q0.60221 0 0.78159-0.46126 0.19219-0.46126 0.19219-2.1654v-2.601h5.3942v0.80721q0 3.216-0.46127 4.5614-0.44845 1.3454-2.0116 2.3576-1.5504 1.0122-3.831 1.0122-2.3704 0-3.9079-0.85846t-2.0372-2.3704q-0.4997-1.5247-0.4997-4.5742v-6.0605q0-2.2422 0.15375-3.357 0.15376-1.1275 0.90971-2.1654 0.76877-1.0378 2.1141-1.6272 1.3582-0.6022 3.1135-0.6022 2.3832 0 3.9336 0.92252 1.5504 0.92252 2.0372 2.3063 0.48689 1.371 0.48689 4.2795z" color="#000000" style="-inkscape-stroke:none"/><path d="m158.11 218.54c-1.2167 0-2.3126 0.21093-3.2773 0.63867v-2e-3c-0.9511 0.41667-1.7193 1.0044-2.2774 1.7578v2e-3h-2e-3c-0.53745 0.73787-0.87013 1.5262-0.98242 2.3496-0.10754 0.77965-0.1582 1.908-0.1582 3.4121v6.0606c0 2.0552 0.16145 3.6086 0.51953 4.7012 0.36488 1.104 1.1273 1.985 2.2246 2.5977 1.1026 0.6156 2.4782 0.91015 4.1074 0.91015 1.5795 0 2.9413-0.35247 4.0508-1.0762l2e-3 -2e-3c1.0942-0.7091 1.8398-1.5657 2.1738-2.5664v-2e-3c0.3394-0.99083 0.48242-2.5269 0.48242-4.6894v-1.2148h-6.2051v3.0078c0 1.1208-0.10225 1.8661-0.16211 2.0098l-4e-3 8e-3c-0.064 0.16447-0.10453 0.20313-0.40235 0.20313-0.31912 0-0.36809-0.0448-0.42968-0.20313-0.0653-0.16784-0.15039-0.83428-0.15039-1.8262v-9.6348c0-1.0352 0.0855-1.7295 0.15234-1.9062 0.0303-0.0802 0.0576-0.11001 0.11914-0.14454 0.0616-0.0345 0.17372-0.0664 0.34766-0.0664 0.15086 0 0.24585 0.0269 0.29492 0.0527 0.0491 0.0258 0.0634 0.042 0.0859 0.0957l2e-3 6e-3 4e-3 8e-3c0.0148 0.0318 0.0696 0.23981 0.0977 0.54687 0.0281 0.30707 0.0449 0.72457 0.0449 1.2422v4.0195h6.2051v-2.3789c0-1.9608-0.1552-3.4148-0.50976-4.4141v-2e-3c-0.36023-1.0224-1.1193-1.8688-2.2129-2.5195-1.1121-0.66176-2.4994-0.98047-4.1406-0.98047zm0 0.8125c1.5364 0 2.7716 0.29697 3.7266 0.86523 0.97296 0.57895 1.5721 1.2719 1.8613 2.0938 0.29429 0.82866 0.46289 2.2282 0.46289 4.1445v1.5664h-4.582v-3.207c0-0.53303-0.0132-0.96806-0.0449-1.3144-0.0312-0.34148-0.0686-0.58474-0.16992-0.80664-0.0891-0.20897-0.25187-0.39035-0.45313-0.4961-0.20291-0.10661-0.42981-0.14648-0.67187-0.14648-0.27024 0-0.52385 0.0464-0.74414 0.16992-0.22029 0.1235-0.39319 0.33057-0.48243 0.56641-0.17228 0.45532-0.20507 1.1273-0.20507 2.1934v9.6348c0 1.024 0.0331 1.6739 0.20703 2.1211 0.17758 0.45664 0.66756 0.72071 1.1855 0.72071 0.50353 0 0.97967-0.27079 1.1562-0.71875 0.19463-0.47131 0.22266-1.167 0.22266-2.3145v-2.1953h4.582v0.40235c0 2.1246-0.16413 3.6267-0.43945 4.4297v2e-3c-0.26387 0.79162-0.85957 1.5066-1.8477 2.1465-0.95726 0.62498-2.149 0.94727-3.6094 0.94727-1.5312 0-2.7634-0.27958-3.7109-0.8086-0.95279-0.53197-1.5482-1.2307-1.8496-2.1426-0.30818-0.94035-0.47851-2.4365-0.47851-4.4473v-6.0606c0-1.4855 0.0529-2.5941 0.15039-3.3008 0.0925-0.67857 0.3633-1.3339 0.83203-1.9785 0.46696-0.63041 1.1085-1.1289 1.9512-1.498h2e-3c0.84619-0.3752 1.8254-0.56836 2.9492-0.56836z" color="#000000" style="-inkscape-stroke:none"/><path d="m166.51 219.38h8.9946v4.1514h-3.6004v3.9336h3.3698v3.9464h-3.3698v4.5614h3.9592v4.1514h-9.3534z" color="#000000" style="-inkscape-stroke:none"/><path d="m166.1 218.97v21.555h10.166v-4.9629h-3.959v-3.75h3.3691v-4.7578h-3.3691v-3.1211h3.5996v-4.9629zm0.8125 0.81055h8.1816v3.3398h-3.5996v4.7461h3.3691v3.1348h-3.3691v5.373h3.959v3.3379h-8.541z" color="#000000" style="-inkscape-stroke:none"/></g><g transform="scale(1.0766 .92881)" stroke-width=".83818" aria-label="765-296-7312"><path d="m37.252 262.82 6.5278-15.602h-6.0402v-3.9275h11.485l-7.232 19.529z" color="#000000" style="-inkscape-stroke:none"/><path d="m37.32 242.87v4.7656h5.8301l-6.5273 15.602h5.6602l7.543-20.367zm0.83789 0.83789h10.463l-6.9199 18.691h-3.8203l6.5293-15.602h-6.252z" color="#000000" style="-inkscape-stroke:none"/><path d="m52.285 243.29h4.415l-0.54172 0.86676q-0.51464 0.81259-0.9751 1.5981-0.43338 0.75841-0.86676 1.5439l-1.0564 2.1398-0.54172 1.5168q1.1105-0.67716 2.1669-0.67716 2.0315 0 3.1962 1.5981 1.1918 1.5981 1.1918 4.3338 0 3.2233-1.571 5.1464-1.5439 1.9231-4.1713 1.9231-2.6815 0-4.2525-1.9231-1.5439-1.9502-1.5439-5.3089 0-3.3316 1.3272-6.582 0.9751-2.3836 2.3836-4.7401zm1.246 10.293q-1.6793 0-1.6793 3.0337 0 3.2774 1.5981 3.2774 1.7064 0 1.7064-3.3045 0-3.0066-1.6252-3.0066z" color="#000000" style="-inkscape-stroke:none"/><path d="m52.045 242.87-0.12109 0.20703-0.83984 1.4356c-0.94846 1.5871-1.752 3.184-2.4102 4.793v2e-3c-0.90376 2.2133-1.3594 4.4635-1.3594 6.7402 0 2.3033 0.53282 4.1764 1.6348 5.5684l2e-3 2e-3 2e-3 4e-3c1.1212 1.3726 2.6903 2.0762 4.5781 2.0762 1.8538 0 3.3961-0.7075 4.498-2.0801 1.1181-1.3705 1.6621-3.1931 1.6621-5.4082 0-1.8828-0.41017-3.4232-1.2715-4.5801-0.84478-1.1591-2.071-1.7715-3.5352-1.7715-0.49737 0-0.99554 0.26914-1.4941 0.46289l0.25586-0.71875 1.0371-2.1016c0.28722-0.52059 0.57419-1.0326 0.86133-1.5352l2e-3 -4e-3c0.30378-0.51812 0.62498-1.0454 0.96484-1.582h2e-3l0.94141-1.5098zm0.48047 0.83789h3.418l-0.14062 0.22656c-0.34498 0.54476-0.67137 1.0801-0.98047 1.6074l-4e-3 4e-3c-0.28998 0.50747-0.57924 1.0253-0.86914 1.5508l-0.0039 8e-3 -1.0723 2.1699-0.94727 2.6543 1.0098-0.61523c0.68992-0.42069 1.3345-0.61719 1.9492-0.61719 1.2444 0 2.1493 0.45411 2.8574 1.4258l4e-3 4e-3c0.72601 0.97352 1.1074 2.321 1.1074 4.084 0 2.0808-0.50181 3.6876-1.4766 4.8809v2e-3h-2e-3c-0.95662 1.1916-2.1944 1.7676-3.8438 1.7676-1.6864 0-2.9526-0.57751-3.9258-1.7676-6.2e-4 -7.5e-4 -0.0013-1e-3 -2e-3 -2e-3 -0.95389-1.2079-1.4492-2.8712-1.4492-5.043 0-2.1654 0.42905-4.3033 1.2949-6.4238 0.64162-1.5684 1.4266-3.1294 2.3555-4.6836l2e-3 -2e-3zm1.0059 9.4551c-0.68596 0-1.2897 0.36542-1.627 0.97461-0.33723 0.60918-0.47266 1.4286-0.47266 2.4785 0 1.1265 0.12877 1.9955 0.44336 2.6406 0.31459 0.64516 0.89828 1.0547 1.5742 1.0547 0.70407 0 1.3157-0.40077 1.6523-1.0527 0.33667-0.65196 0.47266-1.5324 0.47266-2.6699 0-1.04-0.12864-1.8512-0.45508-2.4551-0.32644-0.60391-0.91695-0.9707-1.5879-0.9707zm0 0.83789c0.4125 0 0.63432 0.13492 0.84961 0.5332 0.21529 0.39828 0.35547 1.0902 0.35547 2.0547 0 1.0654-0.14676 1.8356-0.37891 2.2852-0.23214 0.44955-0.47466 0.59961-0.9082 0.59961-0.38945 0-0.60416-0.13667-0.82227-0.58398-0.21811-0.44731-0.35742-1.215-0.35742-2.2734 0-0.97255 0.14659-1.6702 0.36914-2.0723 0.22255-0.40204 0.45898-0.54297 0.89258-0.54297z" color="#000000" style="-inkscape-stroke:none"/><path d="m60.952 261.81 0.48755-3.7108q0.65007 0.48755 1.3543 0.83967 1.4085 0.70424 2.6544 0.70424 1.2731 0 2.1127-0.75841 0.83967-0.75842 0.83967-1.9231 0-1.246-1.0022-2.0856-1.0022-0.83967-2.519-0.83967-0.5959 0-1.2731 0.13543t-1.7606 0.48755l-0.16252 0.0542 1.4897-11.43h8.9384v3.9004h-5.8506l-0.65007 4.0358q0.46046-0.10834 0.86676-0.16252 0.43338-0.0542 0.94802-0.0542 2.4378 0 4.0358 1.5981 1.5981 1.5981 1.5981 4.09 0 2.8441-2.0315 4.6859t-5.1735 1.8419q-2.8982 0-4.9026-1.4085z" color="#000000" style="-inkscape-stroke:none"/><path d="m62.805 242.87-1.623 12.459 0.79492-0.26562c0.71291-0.2317 1.2878-0.38959 1.7129-0.47461 0.42826-0.0856 0.82394-0.12696 1.1895-0.12696 0.93388 0 1.6617 0.24926 2.25 0.74219 0.58991 0.49425 0.85352 1.0454 0.85352 1.7637 0 0.67576-0.22058 1.1792-0.70117 1.6133-0.4816 0.43499-1.0666 0.6504-1.832 0.6504-0.75168 0-1.572-0.21277-2.4668-0.66016-0.44643-0.22321-0.87701-0.49028-1.291-0.80078l-0.57422-0.42969-0.61328 4.6719 0.20703 0.14648c1.414 0.99362 3.1445 1.4844 5.1445 1.4844 2.1766 0 4.0211-0.64909 5.4551-1.9492 1.4338-1.3 2.168-3.0022 2.168-4.998 0-1.7509-0.5783-3.2424-1.7207-4.3848-1.1407-1.1407-2.6153-1.7207-4.332-1.7207-0.3578 0-0.69081 0.018-1 0.0566h-4e-3c-0.09513 0.0127-0.20218 0.0399-0.30078 0.0566l0.49805-3.0957h5.9121v-4.7383zm0.73633 0.83789h8.1523v3.0625h-5.7891l-0.80664 5.0059 0.60938-0.14258c0.29404-0.0692 0.5681-0.12027 0.82227-0.1543 0.26865-0.0336 0.56811-0.0508 0.89648-0.0508 1.5336 0 2.7502 0.48456 3.7402 1.4746 0.98837 0.98837 1.4746 2.2213 1.4746 3.793 0 1.7962-0.61974 3.2212-1.8945 4.377-1.2747 1.1557-2.8779 1.7324-4.8906 1.7324-1.7698 0-3.2274-0.43291-4.4492-1.2305l0.36523-2.7734c0.27631 0.17747 0.54593 0.37257 0.83594 0.51758 0.9832 0.4916 1.9322 0.75 2.8418 0.75 0.93192 0 1.7546-0.29097 2.3926-0.86719 0.63897-0.57714 0.97852-1.3572 0.97852-2.2344 0-0.94301-0.406-1.7809-1.1523-2.4062-0.74791-0.62662-1.7005-0.9375-2.7891-0.9375-0.42901 0-0.8789 0.0477-1.3535 0.14258-0.35495 0.071-0.85043 0.22162-1.3438 0.3711z" color="#000000" style="-inkscape-stroke:none"/><path d="m74.252 257.86v-3.6025h7.3404v3.6025z" color="#000000" style="-inkscape-stroke:none"/><path d="m73.832 253.84v4.4394h8.1797v-4.4394zm0.83789 0.83789h6.5039v2.7637h-6.5039z" color="#000000" style="-inkscape-stroke:none"/><path d="m83.028 262.82 2.1398-2.8982q2.0315-2.9253 3.5754-5.7694 0.94802-1.7606 1.4085-3.142 0.48755-1.3814 0.48755-2.4107t-0.48755-1.6523q-0.46046-0.65007-1.2731-0.65007-0.94802 0-1.3543 0.73133-0.37921 0.70424-0.37921 2.4919l0.02709 0.81259h-3.7921q0-1.9502 0.21669-3.142 0.32503-2.0044 1.7877-3.0878 1.4897-1.1105 3.7921-1.1105 2.6274 0 4.1442 1.4085 1.5439 1.4085 1.5439 3.8192 0 0.89385-0.24378 1.9502-0.35212 1.5981-1.4356 3.5754-0.5959 1.1376-1.1105 2.0315-0.51464 0.89385-1.2189 1.9231l-1.0022 1.4897h4.6859v3.6296z" color="#000000" style="-inkscape-stroke:none"/><path d="m89.176 242.57c-1.6012 0-2.9652 0.39027-4.041 1.1914-1.0625 0.78704-1.7205 1.9349-1.9512 3.3574-0.15091 0.83322-0.22266 1.8965-0.22266 3.209v0.41993h4.6445l-0.04102-1.2324v-2e-3c2.44e-4 -1.1575 0.14437-1.9448 0.32617-2.2852 2.2e-5 -5e-5 0.0019 4e-5 2e-3 0 0.20352-0.36535 0.4629-0.51563 0.98633-0.51563 0.42997 0 0.68992 0.13416 0.92969 0.47266l0.0059 8e-3 0.0078 8e-3c0.256 0.3271 0.39844 0.77452 0.39844 1.3945 0 0.62002-0.15068 1.3814-0.46484 2.2715v4e-3l-2e-3 2e-3c-0.29658 0.88975-0.75711 1.9178-1.3809 3.0762-1.021 1.8805-2.2049 3.7905-3.5508 5.7285l-2.625 3.5566h12.762v-4.4668h-4.3184l0.56055-0.83399 2e-3 -4e-3c0.47343-0.69211 0.8854-1.3412 1.2344-1.9473 0.34526-0.59965 0.71759-1.2801 1.1152-2.0391l2e-3 -2e-3c0.73519-1.3421 1.2284-2.5681 1.4746-3.6856 0.1674-0.72714 0.25391-1.4068 0.25391-2.0391 0-1.6955-0.56188-3.1079-1.6777-4.127-1.0996-1.0211-2.6032-1.5195-4.4297-1.5195zm0 0.83789c1.6767 0 2.9366 0.43999 3.8594 1.2969h2e-3v2e-3c0.94133 0.85875 1.4082 1.9921 1.4082 3.5098 1e-6 0.5578-0.07573 1.1765-0.23242 1.8555l-2e-3 2e-3v2e-3c-0.22313 1.0127-0.68395 2.1716-1.3926 3.4648l-2e-3 4e-3 -2e-3 2e-3c-0.39519 0.75445-0.76389 1.4277-1.1035 2.0176-0.33655 0.58455-0.73674 1.2158-1.2012 1.8945l-2e-3 2e-3 -1.4414 2.1445h5.0547v2.791h-10.264l1.6504-2.2344 0.0039-6e-3c1.3622-1.9616 2.5623-3.8978 3.5996-5.8086 0.63995-1.1885 1.1201-2.2553 1.4375-3.207 0.33436-0.94899 0.50977-1.7943 0.50977-2.5449 0-0.7484-0.18442-1.3979-0.57422-1.9004-0.37449-0.52209-0.95608-0.82031-1.6055-0.82031-0.73978 0-1.3826 0.33679-1.7207 0.94531l-2e-3 4e-3 -2e-3 2e-3c-0.32298 0.59983-0.42774 1.468-0.42774 2.6894v8e-3l0.01367 0.38672h-2.9121c0.01698-1.0487 0.06309-1.9964 0.18164-2.6484v-8e-3c0.2027-1.25 0.73534-2.1608 1.623-2.8184h2e-3c0.91022-0.67853 2.0735-1.0274 3.541-1.0274z" color="#000000" style="-inkscape-stroke:none"/><path d="m103.64 262.82h-4.4692l0.54172-0.7855q0.67715-0.92094 1.8148-2.9253l1.0564-2.1127 0.56881-1.4897q-0.51464 0.29795-1.0834 0.48755-0.56881 0.18961-1.1105 0.18961-2.0044 0-3.1962-1.5981-1.1647-1.6252-1.1647-4.3067 0-3.2232 1.5439-5.1464 1.5439-1.9231 4.1713-1.9231 2.6544 0 4.2525 1.9502 1.5981 1.9502 1.5981 5.2818 0 1.571-0.32503 3.1691-0.32503 1.5981-1.0293 3.3316-0.89384 2.3294-3.1691 5.8777zm-1.2189-16.252q-1.7064 0-1.7064 3.2774 0 3.0066 1.5981 3.0066 1.7064 0 1.7064-3.0607 0-3.2233-1.5981-3.2233z" color="#000000" style="-inkscape-stroke:none"/><path d="m102.31 242.79c-1.8538 0-3.3961 0.70555-4.498 2.0781-1.1008 1.3712-1.6348 3.1944-1.6348 5.4102 0 1.8484 0.40214 3.3786 1.2422 4.5508l2e-3 2e-3 2e-3 4e-3c0.86184 1.1556 2.0856 1.7676 3.5332 1.7676 0.41005 0 0.82512-0.0739 1.2422-0.21289 0.0696-0.0232 0.13069-0.0643 0.19922-0.0899l-0.20117 0.52735-1.0371 2.0742c-0.7544 1.3292-1.3553 2.2955-1.7871 2.8828l-0.0039 6e-3 -0.99805 1.4473h5.4961l0.12305-0.19335c1.5239-2.3766 2.5917-4.3489 3.2051-5.9453v-2e-3c0.47755-1.1758 0.83028-2.3106 1.0527-3.4043 0.22203-1.0917 0.33203-2.1757 0.33203-3.252 0-2.2881-0.55186-4.1562-1.6914-5.5469-1.1375-1.3881-2.7059-2.1035-4.5781-2.1035zm0 0.83789c1.667 0 2.9364 0.58473 3.9297 1.7969 0.99123 1.2096 1.502 2.8616 1.502 5.0156 0 1.0184-0.10506 2.0468-0.31641 3.0859-0.2108 1.0364-0.5448 2.1229-1.0058 3.2578l-2e-3 2e-3 -2e-3 4e-3c-0.55953 1.4582-1.5995 3.3625-3.0273 5.6094h-3.4219l0.08203-0.11718 2e-3 -4e-3c0.4708-0.64068 1.0784-1.6212 1.8398-2.9629l6e-3 -0.01 1.0703-2.1426 0.99805-2.6133-1.0234 0.59375c-0.31851 0.18441-0.65316 0.33361-1.0059 0.45118-0.34134 0.11378-0.66627 0.16797-0.97852 0.16797-1.2228 0-2.1308-0.45402-2.8574-1.4258-0.71133-0.99439-1.084-2.3335-1.084-4.0586 0-2.0819 0.49345-3.6918 1.4512-4.8848 0.95662-1.1916 2.1944-1.7656 3.8438-1.7656zm0.10938 2.5195c-0.70297 0-1.3151 0.39717-1.6524 1.0449s-0.47461 1.5235-0.47461 2.6524c0 1.0393 0.12853 1.8478 0.44922 2.4512 0.3207 0.60334 0.90425 0.97461 1.5684 0.97461 0.69409 0 1.3042-0.36656 1.6465-0.98047s0.48047-1.4408 0.48047-2.5c0-1.109-0.12762-1.9667-0.44336-2.6035-0.31574-0.63682-0.90064-1.0391-1.5742-1.0391zm0 0.83789c0.39181 0 0.6053 0.13663 0.82226 0.57422s0.35547 1.1907 0.35547 2.2305c0 0.9813-0.14651 1.6855-0.37305 2.0918-0.22654 0.40633-0.47053 0.55078-0.91406 0.55078-0.40129 0-0.61612-0.13045-0.82812-0.5293-0.21201-0.39885-0.34961-1.0935-0.34961-2.0586 0-1.0561 0.14735-1.8209 0.3789-2.2656s0.47355-0.59375 0.90821-0.59375z" color="#000000" style="-inkscape-stroke:none"/><path d="m114.56 243.29h4.415l-0.54172 0.86676q-0.51464 0.81259-0.97511 1.5981-0.43338 0.75841-0.86675 1.5439l-1.0564 2.1398-0.54172 1.5168q1.1105-0.67716 2.1669-0.67716 2.0315 0 3.1962 1.5981 1.1918 1.5981 1.1918 4.3338 0 3.2233-1.571 5.1464-1.5439 1.9231-4.1713 1.9231-2.6815 0-4.2525-1.9231-1.5439-1.9502-1.5439-5.3089 0-3.3316 1.3272-6.582 0.97511-2.3836 2.3836-4.7401zm1.246 10.293q-1.6794 0-1.6794 3.0337 0 3.2774 1.5981 3.2774 1.7064 0 1.7064-3.3045 0-3.0066-1.6252-3.0066z" color="#000000" style="-inkscape-stroke:none"/><path d="m114.32 242.87-0.12305 0.20703-0.83789 1.4356c-0.94846 1.5871-1.752 3.184-2.4102 4.793v2e-3c-0.90375 2.2133-1.3594 4.4635-1.3594 6.7402 0 2.3033 0.53282 4.1764 1.6348 5.5684l2e-3 2e-3 2e-3 4e-3c1.1212 1.3726 2.6902 2.0762 4.5781 2.0762 1.8518 0 3.3925-0.70655 4.4942-2.0762v-2e-3c1.1192-1.3708 1.666-3.1939 1.666-5.4102 0-1.8846-0.41235-3.4267-1.2754-4.584-0.84467-1.1561-2.069-1.7676-3.5312-1.7676-0.49737 0-0.99554 0.26914-1.4941 0.46289l0.25586-0.71875 1.0371-2.1016c0.28721-0.52059 0.57419-1.0326 0.86133-1.5352l2e-3 -4e-3c0.30379-0.51812 0.62498-1.0454 0.96484-1.582l0.94336-1.5098zm0.48047 0.83789h3.418l-0.14062 0.22656c-0.34498 0.54476-0.67332 1.0801-0.98242 1.6074v2e-3l-2e-3 2e-3c-0.28998 0.50747-0.57924 1.0253-0.86914 1.5508l-4e-3 8e-3 -1.0723 2.1699-0.94726 2.6543 1.0098-0.61523c0.68992-0.42069 1.3345-0.61719 1.9492-0.61719 1.2444 0 2.1493 0.45411 2.8574 1.4258l2e-3 2e-3v2e-3c0.72601 0.97352 1.1094 2.321 1.1094 4.084 0 2.0808-0.5018 3.6876-1.4766 4.8809v2e-3h-2e-3c-0.95661 1.1916-2.1944 1.7676-3.8438 1.7676-1.6864 0-2.9526-0.57751-3.9258-1.7676-6.2e-4 -7.5e-4 -1e-3 -1e-3 -2e-3 -2e-3 -0.95389-1.2079-1.4512-2.8712-1.4512-5.043 0-2.1654 0.43101-4.3033 1.2969-6.4238 0.64163-1.5684 1.4266-3.1294 2.3555-4.6836v-2e-3zm1.0058 9.4551c-0.68596 0-1.2897 0.36542-1.627 0.97461-0.33723 0.60918-0.47265 1.4286-0.47265 2.4785 0 1.1265 0.12681 1.9955 0.4414 2.6406 0.31459 0.64516 0.90023 1.0547 1.5762 1.0547 0.70407 0 1.3157-0.40077 1.6524-1.0527 0.33666-0.65196 0.47265-1.5324 0.47265-2.6699 0-1.04-0.13059-1.8512-0.45703-2.4551s-0.91499-0.9707-1.5859-0.9707zm0 0.83789c0.41251 0 0.63433 0.13492 0.84961 0.5332 0.21529 0.39828 0.35547 1.0902 0.35547 2.0547 0 1.0654-0.14676 1.8356-0.3789 2.2852-0.23215 0.44955-0.47466 0.59961-0.90821 0.59961-0.38944 0-0.60415-0.13667-0.82226-0.58398s-0.35742-1.215-0.35742-2.2734c0-0.97255 0.14463-1.6702 0.36718-2.0723 0.22256-0.40204 0.46093-0.54297 0.89453-0.54297z" color="#000000" style="-inkscape-stroke:none"/><path d="m123.12 257.86v-3.6025h7.3404v3.6025z" color="#000000" style="-inkscape-stroke:none"/><path d="m122.7 253.84v4.4394h8.1797v-4.4394zm0.83985 0.83789h6.502v2.7637h-6.502z" color="#000000" style="-inkscape-stroke:none"/><path d="m131.73 262.82 6.5278-15.602h-6.0402v-3.9275h11.485l-7.232 19.529z" color="#000000" style="-inkscape-stroke:none"/><path d="m131.8 242.87v4.7656h5.8301l-6.5273 15.602h5.6602l7.543-20.367zm0.8379 0.83789h10.465l-6.9219 18.691h-3.8203l6.5293-15.602h-6.252z" color="#000000" style="-inkscape-stroke:none"/><path d="m143.73 256.83h3.765l-0.0271 0.54172q0 2.4648 1.7064 2.4648 1.7877 0 1.7877-2.6003 0-2.9253-2.9524-2.9253l-0.86676 0.10834v-3.2503l0.7855 0.0813q2.7628 0 2.7628-2.6815 0-2.3836-1.6252-2.3836-1.5439 0-1.5439 2.194v0.21669h-3.7108v-0.16252q0-2.519 1.4627-4.0088 1.4897-1.5168 4.09-1.5168 2.4648 0 3.9004 1.4356 1.4626 1.4356 1.4626 3.7921 0 3.1691-3.0336 4.4963 3.5212 1.0564 3.5212 4.8214 0 2.5732-1.6523 4.1442-1.6252 1.5439-4.3338 1.5439-2.6274 0-4.09-1.4897-1.4356-1.4897-1.4356-4.2254z" color="#000000" style="-inkscape-stroke:none"/><path d="m149.36 242.49c-1.815 0-3.3101 0.54439-4.3887 1.6426-1.0578 1.0774-1.582 2.5423-1.582 4.3027v0.58008h4.5488v-0.63476c0-0.68218 0.12695-1.1462 0.3086-1.4043 0.18164-0.25813 0.40102-0.37109 0.8164-0.37109 0.43928 0 0.67349 0.12424 0.8711 0.41406 0.1976 0.28982 0.33398 0.80388 0.33398 1.5508 0 0.82188-0.20223 1.3613-0.5625 1.7109-0.3599 0.34932-0.92759 0.55037-1.7793 0.55078l-1.2051-0.12696v4.1914l1.291-0.16211c0.91026 1e-3 1.5224 0.21939 1.9141 0.60742 0.39284 0.38923 0.61329 0.99188 0.61329 1.8965 0 0.81873-0.149 1.387-0.37305 1.7129-0.22405 0.32589-0.5018 0.46875-0.9961 0.46875-0.46791 0-0.72557-0.13225-0.93554-0.43555-0.20949-0.3026-0.35091-0.83706-0.35156-1.6074l0.0488-0.96484h-4.6055l-0.0195 0.40039-0.0273 0.60547v0.01c0 1.8971 0.50675 3.4302 1.5527 4.5156l4e-3 4e-3c1.063 1.0827 2.5579 1.6152 4.3887 1.6152 1.8854 0 3.4553-0.55081 4.623-1.6602 1.1843-1.1261 1.7812-2.6421 1.7812-4.4473 0-1.3203-0.31278-2.4485-0.96094-3.3359-0.51893-0.71054-1.2943-1.2082-2.1992-1.5879 1.6501-0.98174 2.6738-2.4289 2.6738-4.3945 0-1.656-0.53113-3.0509-1.5859-4.0879-1.0418-1.0418-2.4727-1.5586-4.1973-1.5586zm0 0.83789c1.5619 0 2.7332 0.44026 3.6055 1.3125v2e-3l2e-3 2e-3c0.89329 0.87674 1.3379 2.0079 1.3379 3.4922 0 1.979-0.87299 3.2776-2.7832 4.1133l-1.0449 0.45703 1.0918 0.32812c1.1081 0.33244 1.8982 0.85849 2.4238 1.5781s0.79883 1.6521 0.79883 2.8418c0 1.6258-0.50279 2.8712-1.5215 3.8398-0.99915 0.9492-2.3188 1.4297-4.0449 1.4297-1.6712 0-2.902-0.46091-3.7891-1.3633l-2e-3 -2e-3c-0.86619-0.90001-1.3157-2.1807-1.3164-3.9277v-4e-3l0.01-0.17773h2.9238l-6e-3 0.11328v0.01c0 0.86997 0.14313 1.5696 0.50196 2.0879 0.35883 0.51832 0.95334 0.79688 1.623 0.79688 0.6975 0 1.3137-0.29117 1.6856-0.83203s0.52149-1.2727 0.52149-2.1875c0-1.0456-0.27004-1.9063-0.86133-2.4922-0.5913-0.58587-1.4564-0.85156-2.5098-0.85156h-0.0254l-0.42187 0.0527v-2.3105l0.34375 0.0351h0.0215c0.98872 0 1.8046-0.24489 2.3652-0.78906 0.56066-0.54418 0.8164-1.3467 0.8164-2.3125 0-0.84215-0.13439-1.5187-0.47851-2.0234s-0.92029-0.77929-1.5645-0.7793c-0.61389 0-1.169 0.25337-1.502 0.72657-0.29718 0.4223-0.38651 1.0155-0.41211 1.6836h-2.8809c0.0515-1.4566 0.46274-2.6035 1.3008-3.457 0.90775-0.92425 2.139-1.3926 3.791-1.3926z" color="#000000" style="-inkscape-stroke:none"/><path d="m156.13 247.08v-3.7921h6.0131v19.529h-4.3609v-15.737z" color="#000000" style="-inkscape-stroke:none"/><path d="m155.71 242.87v4.6309h1.6524v15.736h5.1992v-20.367zm0.83789 0.83789h5.1738v18.691h-3.5215v-15.736h-1.6524z" color="#000000" style="-inkscape-stroke:none"/><path d="m164.37 262.82 2.1398-2.8982q2.0315-2.9253 3.5754-5.7694 0.94802-1.7606 1.4085-3.142 0.48755-1.3814 0.48755-2.4107t-0.48755-1.6523q-0.46046-0.65007-1.273-0.65007-0.94802 0-1.3543 0.73133-0.37921 0.70424-0.37921 2.4919l0.0271 0.81259h-3.7921q0-1.9502 0.21669-3.142 0.32504-2.0044 1.7877-3.0878 1.4897-1.1105 3.7921-1.1105 2.6274 0 4.1442 1.4085 1.5439 1.4085 1.5439 3.8192 0 0.89385-0.24378 1.9502-0.35212 1.5981-1.4356 3.5754-0.5959 1.1376-1.1105 2.0315-0.51464 0.89385-1.2189 1.9231l-1.0022 1.4897h4.6859v3.6296z" color="#000000" style="-inkscape-stroke:none"/><path d="m170.52 242.57c-1.6023 0-2.9649 0.39118-4.041 1.1934-1.0618 0.78702-1.7206 1.9335-1.9512 3.3555-0.15091 0.83322-0.22266 1.8965-0.22266 3.209v0.41993h4.6445l-0.041-1.2324v-2e-3c2.4e-4 -1.1575 0.14436-1.9448 0.32617-2.2852 2e-5 -5e-5 2e-3 4e-5 2e-3 0 0.20352-0.36535 0.4629-0.51563 0.98633-0.51563 0.42997 0 0.68993 0.13417 0.92969 0.47266l6e-3 8e-3 8e-3 8e-3c0.25599 0.3271 0.39844 0.77452 0.39844 1.3945 0 0.62002-0.15069 1.3814-0.46485 2.2715v4e-3l-2e-3 2e-3c-0.29658 0.88975-0.75711 1.9178-1.3809 3.0762-1.021 1.8805-2.203 3.7905-3.5488 5.7285l-2.627 3.5566h12.762v-4.4668h-4.3184l0.56055-0.83399 2e-3 -4e-3c0.47342-0.69211 0.8854-1.3412 1.2344-1.9473 0.34526-0.59965 0.71759-1.2801 1.1152-2.0391l2e-3 -2e-3c0.73519-1.3421 1.2284-2.5681 1.4746-3.6856 0.16741-0.72714 0.25391-1.4068 0.25391-2.0391 0-1.6955-0.56189-3.1079-1.6777-4.127-1.0996-1.0211-2.6032-1.5195-4.4297-1.5195zm0 0.83789c1.6767 0 2.9366 0.43999 3.8594 1.2969h2e-3l2e-3 2e-3c0.94132 0.85875 1.4062 1.9921 1.4062 3.5098 0 0.5578-0.0757 1.1765-0.23243 1.8555l-2e-3 2e-3v2e-3c-0.22313 1.0127-0.68395 2.1716-1.3926 3.4648l-2e-3 4e-3 -2e-3 2e-3c-0.39519 0.75445-0.76389 1.4277-1.1035 2.0176-0.33655 0.58455-0.73674 1.2158-1.2012 1.8945v2e-3l-1.4434 2.1445h5.0547v2.791h-10.264l1.6504-2.2344 4e-3 -6e-3c1.3622-1.9616 2.5623-3.8978 3.5996-5.8086 0.63995-1.1885 1.1201-2.2553 1.4375-3.207 0.33436-0.94899 0.50977-1.7943 0.50977-2.5449 0-0.7477-0.18324-1.3962-0.57227-1.8984-0.37442-0.52353-0.95708-0.82227-1.6074-0.82227-0.73978 0-1.3826 0.33679-1.7207 0.94531l-2e-3 4e-3 -2e-3 2e-3c-0.32299 0.59983-0.42773 1.468-0.42773 2.6894v8e-3l0.0137 0.38672h-2.9121c0.017-1.0487 0.0631-1.9964 0.18164-2.6484v-8e-3c0.2027-1.25 0.73534-2.1608 1.623-2.8184h2e-3c0.91022-0.67853 2.0735-1.0274 3.541-1.0274z" color="#000000" style="-inkscape-stroke:none"/></g></g></g></svg>