<?xml version="1.0" standalone="no"?>
<!DOCTYPE svg PUBLIC "-//W3C//DTD SVG 1.1//EN" "http://www.w3.org/Graphics/SVG/1.1/DTD/svg11.dtd">
<svg xmlns:inkscape="http://www.inkscape.org/namespaces/inkscape" xmlns:sodipodi="http://sodipodi.sourceforge.net/DTD/sodipodi-0.dtd" xmlns="http://www.w3.org/2000/svg" xmlns:svg="http://www.w3.org/2000/svg" version="1.1" id="svg2" width="666.6666870117188" height="266.6666564941406" viewBox="0 0 666.66669 266.66666" sodipodi:docname="BWE-logo.ai">
  <defs id="defs6">
    <clipPath clipPathUnits="userSpaceOnUse" id="clipPath16">
      <path d="M 0,200 H 500 V 0 H 0 Z" id="path14"/>
    </clipPath>
  </defs>
  <sodipodi:namedview id="namedview4" pagecolor="#ffffff" bordercolor="#000000" borderopacity="0.25" inkscape:showpageshadow="2" inkscape:pageopacity="0.0" inkscape:pagecheckerboard="0" inkscape:deskcolor="#d1d1d1"/>
  <g id="g8" inkscape:groupmode="layer" inkscape:label="BWE-logo" transform="matrix(1.3333333,0,0,-1.3333333,0,266.66667)">
    <g id="g10">
      <g id="g12" clip-path="url(#clipPath16)">
        <g id="g18" transform="translate(310.5575,144.5927)">
          <path d="m 0,0 c -0.583,-0.843 -1.046,-1.724 -1.387,-2.642 -0.375,-0.918 -0.712,-2.07 -1.012,-3.457 l -6.712,-34.242 h -12.235 l -5.636,26.711 -5.424,-26.711 h -12.073 l -7.373,35.113 -2.1,5.228 h 14.947 c -0.067,-0.571 -0.133,-1.223 -0.2,-1.954 -0.075,-0.768 -0.112,-1.264 -0.112,-1.488 0,-1.003 0.104,-2.062 0.312,-3.176 L -35.118,-26.009 -29.844,0 h 12.597 l 5.424,-26.122 3.837,19.504 c 0.242,1.311 0.363,2.501 0.363,3.569 0,1.002 -0.088,1.868 -0.263,2.599 0,0.113 -0.05,0.263 -0.15,0.45 z" style="fill:#231f20;fill-opacity:1;fill-rule:nonzero;stroke:none" id="path20"/>
        </g>
        <g id="g22" transform="translate(341.627,112.0218)">
          <path d="m 0,0 -1.125,-7.77 h -29.132 c 0.55,1.227 0.858,2.379 0.925,3.456 0.034,1.069 0.05,2.221 0.05,3.457 v 26.472 1.546 c 0,1.574 -0.033,2.534 -0.1,2.88 -0.067,0.347 -0.358,1.19 -0.875,2.53 h 28.62 l 1.024,-7.77 c -1.024,0.233 -1.808,0.407 -2.349,0.519 -1.817,0.384 -2.945,0.576 -3.387,0.576 h -10.286 v -9.498 h 8.961 c 0.608,-0.038 1.083,-0.056 1.425,-0.056 0.617,0 1.217,0.079 1.8,0.238 0.541,0.113 1.375,0.417 2.5,0.914 v -8.81 c -1.017,0.234 -1.8,0.407 -2.35,0.52 -1.708,0.346 -2.833,0.52 -3.375,0.52 h -8.961 v -10.82 h 10.948 1.025 c 0.309,-0.037 0.6,-0.056 0.875,-0.056 0.475,0 0.938,0.075 1.387,0.225 0.442,0.121 1.242,0.431 2.4,0.927" style="fill:#231f20;fill-opacity:1;fill-rule:nonzero;stroke:none" id="path24"/>
        </g>
        <g id="g26" transform="translate(374.1833,112.2469)">
          <path d="m 0,0 -1.075,-7.995 h -28.52 c 0.375,1.04 0.615,2.192 0.719,3.456 0.104,1.265 0.189,2.417 0.256,3.457 V 25.39 c 0,2.567 -0.05,4.117 -0.149,4.651 -0.309,0.768 -0.584,1.536 -0.826,2.305 h 14.697 c -0.408,-0.881 -0.683,-1.991 -0.824,-3.331 -0.167,-1.348 -0.251,-2.557 -0.251,-3.625 V -1.321 h 10.549 c 1.358,0 2.449,0.098 3.274,0.295 0.817,0.15 1.533,0.492 2.15,1.026" style="fill:#231f20;fill-opacity:1;fill-rule:nonzero;stroke:none" id="path28"/>
        </g>
        <g id="g30" transform="translate(415.2751,104.2516)">
          <path d="m 0,0 h -15.509 l -7.424,17.1 -2.962,-4.088 V 6.914 5.705 c -0.033,-0.384 -0.05,-0.749 -0.05,-1.096 0,-0.581 0.083,-1.213 0.25,-1.897 0.142,-0.73 0.417,-1.634 0.825,-2.712 h -14.647 c 0.55,1.227 0.858,2.38 0.925,3.456 0.033,1.069 0.05,2.221 0.05,3.458 v 26.472 1.545 c 0,1.574 -0.034,2.534 -0.101,2.881 -0.066,0.346 -0.358,1.19 -0.874,2.529 h 14.647 c -0.375,-0.881 -0.633,-1.99 -0.775,-3.33 -0.166,-1.349 -0.25,-2.557 -0.25,-3.625 V 22.271 l 8.598,12.21 c 0.683,0.956 1.18,1.912 1.488,2.867 0.2,0.655 0.3,1.33 0.3,2.024 0,0.262 -0.017,0.51 -0.05,0.744 0,0.075 -0.017,0.15 -0.05,0.225 h 11.522 c -0.824,-0.684 -1.441,-1.199 -1.849,-1.546 -1.325,-1.152 -2.142,-1.958 -2.45,-2.416 L -14.535,28.426 -2.449,3.738 C -2.074,3.054 -1.699,2.421 -1.324,1.841 -0.949,1.232 -0.508,0.618 0,0" style="fill:#231f20;fill-opacity:1;fill-rule:nonzero;stroke:none" id="path32"/>
        </g>
        <g id="g34" transform="translate(446.3566,112.0218)">
          <path d="m 0,0 -1.125,-7.77 h -29.132 c 0.55,1.227 0.858,2.379 0.925,3.456 0.034,1.069 0.05,2.221 0.05,3.457 v 26.472 1.546 c 0,1.574 -0.033,2.534 -0.1,2.88 -0.067,0.347 -0.358,1.19 -0.875,2.53 h 28.62 l 1.024,-7.77 c -1.024,0.233 -1.808,0.407 -2.349,0.519 -1.817,0.384 -2.945,0.576 -3.387,0.576 h -10.286 v -9.498 h 8.961 c 0.609,-0.038 1.083,-0.056 1.425,-0.056 0.617,0 1.217,0.079 1.8,0.238 0.541,0.113 1.375,0.417 2.499,0.914 v -8.81 c -1.016,0.234 -1.799,0.407 -2.349,0.52 -1.708,0.346 -2.833,0.52 -3.375,0.52 h -8.961 v -10.82 h 10.948 1.025 c 0.309,-0.037 0.6,-0.056 0.875,-0.056 0.475,0 0.938,0.075 1.387,0.225 0.442,0.121 1.242,0.431 2.4,0.927" style="fill:#231f20;fill-opacity:1;fill-rule:nonzero;stroke:none" id="path36"/>
        </g>
        <g id="g38" transform="translate(471.5887,130.7238)">
          <path d="M 0,0 V 4.89 C 0,5.817 -0.066,6.394 -0.2,6.618 -0.441,7.002 -1.041,7.194 -2,7.194 H -9.161 V -2.304 H -2 c 0.859,0 1.405,0.136 1.638,0.407 C -0.121,-1.625 0,-0.993 0,0 M 14.797,-26.472 H 0.712 l -6.036,17.494 h -3.837 v -10.581 -1.208 c -0.033,-0.384 -0.049,-0.749 -0.049,-1.096 0,-0.581 0.083,-1.213 0.249,-1.897 0.142,-0.731 0.417,-1.635 0.826,-2.712 h -14.648 c 0.55,1.227 0.858,2.379 0.925,3.456 0.033,1.069 0.05,2.221 0.05,3.457 V 6.914 8.867 c 0,1.076 -0.083,1.999 -0.25,2.767 -0.175,0.722 -0.516,1.466 -1.025,2.235 H 4.05 c 3.032,0 5.232,-0.652 6.598,-1.954 1.333,-1.302 2,-3.625 2,-6.969 v -7.419 c 0,-2.454 -0.375,-4.14 -1.125,-5.058 -0.792,-0.965 -2.108,-1.447 -3.949,-1.447 l 4.511,-11.34 c 0.476,-1.189 0.969,-2.398 1.481,-3.625 0.513,-1.227 0.923,-2.07 1.231,-2.529" style="fill:#231f20;fill-opacity:1;fill-rule:nonzero;stroke:none" id="path40"/>
        </g>
        <path d="M 487.481,84.832 H 118.843 v 14.105 h 368.638 z" style="fill:#626467;fill-opacity:1;fill-rule:nonzero;stroke:none" id="path42"/>
        <g id="g44" transform="translate(142.5206,121.8823)">
          <path d="M 0,0 -4.712,13.643 -9.836,0 Z M 20.321,-17.494 H 3.687 c 0.199,0.234 0.333,0.445 0.4,0.632 0.274,0.572 0.412,1.265 0.412,2.08 0,0.88 -0.187,1.878 -0.562,2.993 L 2.15,-6.675 h -14.548 l -2.249,-5.522 c -0.275,-0.73 -0.413,-1.498 -0.413,-2.304 0,-0.88 0.138,-1.705 0.413,-2.473 0.033,-0.112 0.12,-0.286 0.262,-0.52 h -9.323 c 0.65,1.114 1.316,2.248 2,3.401 0.616,1.189 1.195,2.491 1.737,3.906 l 12.085,30.729 -1.487,2.305 H 5.624 l 11.723,-34.819 c 0.408,-1.152 0.853,-2.15 1.337,-2.993 0.441,-0.88 0.987,-1.723 1.637,-2.529" style="fill:#c32032;fill-opacity:1;fill-rule:nonzero;stroke:none" id="path46"/>
        </g>
        <g id="g48" transform="translate(201.5345,144.7293)">
          <path d="m 0,0 c -0.408,-0.647 -0.662,-1.223 -0.763,-1.729 -0.274,-1.143 -0.412,-2.983 -0.412,-5.522 v -33.09 h -16.384 l -13.66,33.386 -0.113,-26.136 c 0,-1.376 0.121,-2.74 0.363,-4.089 0.208,-1.377 0.516,-2.43 0.924,-3.161 h -7.923 c 0.475,0.843 0.8,1.686 0.975,2.529 0.133,0.843 0.2,2.417 0.2,4.721 v 26.656 c 0,2.032 -0.05,3.391 -0.15,4.074 -0.134,0.655 -0.475,1.442 -1.025,2.361 h 17.647 l 13.51,-32.922 v 26.487 c 0,1.648 -0.017,2.875 -0.05,3.68 -0.067,0.806 -0.425,1.724 -1.075,2.755 z" style="fill:#c32032;fill-opacity:1;fill-rule:nonzero;stroke:none" id="path50"/>
        </g>
        <g id="g52" transform="translate(235.2652,112.1584)">
          <path d="m 0,0 -1.125,-7.77 h -29.132 c 0.551,1.227 0.859,2.379 0.926,3.456 0.033,1.069 0.05,2.221 0.05,3.457 v 26.472 1.546 c 0,1.574 -0.034,2.534 -0.101,2.88 -0.066,0.347 -0.358,1.19 -0.875,2.53 h 28.62 l 1.025,-7.77 c -1.025,0.233 -1.808,0.407 -2.35,0.519 -1.817,0.384 -2.944,0.576 -3.386,0.576 h -10.287 v -9.498 h 8.961 c 0.609,-0.038 1.083,-0.056 1.426,-0.056 0.616,0 1.216,0.079 1.8,0.238 0.541,0.113 1.374,0.417 2.499,0.914 v -8.81 c -1.017,0.234 -1.8,0.407 -2.35,0.52 -1.708,0.346 -2.833,0.52 -3.375,0.52 h -8.961 v -10.82 h 10.949 1.024 c 0.309,-0.037 0.6,-0.056 0.876,-0.056 0.474,0 0.937,0.075 1.387,0.225 C -1.957,-0.806 -1.158,-0.496 0,0" style="fill:#c32032;fill-opacity:1;fill-rule:nonzero;stroke:none" id="path54"/>
        </g>
        <path d="m 256.048,113.887 h -18.171 v 10.594 h 18.171 z" style="fill:#c32032;fill-opacity:1;fill-rule:nonzero;stroke:none" id="path56"/>
        <g id="g58" transform="translate(96.3394,96.6404)">
          <path d="m 0,0 v 9.782 c 0,1.318 -0.135,2.181 -0.406,2.586 -0.424,0.595 -1.345,0.892 -2.76,0.892 H -14.558 V -3.477 h 11.392 c 1.21,0 1.998,0.177 2.364,0.532 C -0.435,-2.59 -0.167,-1.608 0,0 m 0,27.15 v 7.564 c 0,1.376 -0.135,2.268 -0.406,2.673 -0.424,0.595 -1.345,0.892 -2.76,0.892 H -14.558 V 23.584 h 11.392 c 1.21,0 2.052,0.297 2.529,0.892 C -0.213,25.012 0,25.903 0,27.15 M 19.488,-0.891 c 0,-4.449 -0.896,-7.651 -2.687,-9.608 -2.063,-2.202 -5.601,-3.304 -10.614,-3.304 h -41.819 c 0.851,1.898 1.328,3.681 1.431,5.348 0.051,1.652 0.077,3.434 0.077,5.347 v 40.952 2.391 c 0,2.435 -0.051,3.92 -0.155,4.456 -0.103,0.536 -0.554,1.84 -1.353,3.912 H 6.187 c 4.807,0 8.267,-1.094 10.381,-3.282 1.946,-2.029 2.92,-5.238 2.92,-9.629 v -7.108 c 0,-3.623 -0.845,-6.18 -2.535,-7.673 -1.69,-1.478 -4.541,-2.217 -8.554,-2.217 3.638,-0.652 5.986,-1.217 7.044,-1.695 2.696,-1.131 4.045,-3.652 4.045,-7.565 z" style="fill:#c32032;fill-opacity:1;fill-rule:nonzero;stroke:none" id="path60"/>
        </g>
        <g id="g62" transform="translate(380.6627,88.7754)">
          <path d="m 0,0 -0.277,-1.914 h -7.176 c 0.135,0.302 0.211,0.586 0.228,0.852 0.008,0.262 0.012,0.546 0.012,0.851 v 6.522 0.38 c 0,0.388 -0.009,0.625 -0.025,0.71 -0.016,0.085 -0.088,0.293 -0.215,0.623 h 7.05 L -0.151,6.11 C -0.403,6.168 -0.596,6.21 -0.729,6.238 -1.176,6.332 -1.455,6.38 -1.563,6.38 H -4.098 V 4.04 h 2.208 c 0.15,-0.009 0.267,-0.014 0.351,-0.014 0.152,0 0.3,0.019 0.443,0.059 0.133,0.027 0.339,0.103 0.616,0.225 V 2.14 C -0.73,2.197 -0.923,2.24 -1.059,2.267 -1.48,2.353 -1.756,2.396 -1.89,2.396 H -4.098 V -0.27 h 2.698 0.252 c 0.076,-0.009 0.148,-0.014 0.215,-0.014 0.118,0 0.231,0.019 0.342,0.056 C -0.482,-0.198 -0.285,-0.122 0,0" style="fill:#ffffff;fill-opacity:1;fill-rule:nonzero;stroke:none" id="path64"/>
        </g>
        <g id="g66" transform="translate(390.8494,89.1427)">
          <path d="M 0,0 V 5.375 C 0,5.8 -0.201,6.012 -0.606,6.012 H -1.952 C -2.364,6.012 -2.571,5.8 -2.571,5.375 V 0 c 0,-0.425 0.207,-0.637 0.619,-0.637 h 0.604 l -0.668,1.461 h 1.195 L -0.19,-0.509 C -0.063,-0.424 0,-0.254 0,0 M 3.116,0.641 C 3.116,-0.371 2.952,-1.108 2.623,-1.572 2.288,-2.045 1.758,-2.281 1.033,-2.281 H 0.657 L 1.248,-3.559 H 0.012 l -0.593,1.278 h -3.037 c -0.689,0 -1.198,0.216 -1.527,0.651 -0.352,0.463 -0.529,1.22 -0.529,2.271 v 4.098 c 0,1.011 0.168,1.752 0.505,2.225 0.328,0.462 0.846,0.693 1.552,0.693 H 1.035 C 1.741,7.657 2.266,7.435 2.611,6.992 2.948,6.537 3.116,5.786 3.116,4.739 Z" style="fill:#ffffff;fill-opacity:1;fill-rule:nonzero;stroke:none" id="path68"/>
        </g>
        <g id="g70" transform="translate(407.9141,96.7992)">
          <path d="m 0,0 c -0.116,-0.245 -0.197,-0.466 -0.24,-0.664 -0.041,-0.199 -0.061,-0.573 -0.061,-1.122 v -5.075 c 0,-1.154 -0.156,-1.952 -0.469,-2.395 -0.32,-0.455 -0.926,-0.682 -1.817,-0.682 h -4.124 c -0.782,0 -1.35,0.246 -1.702,0.738 -0.362,0.482 -0.543,1.262 -0.543,2.339 v 5.148 0.44 0.238 c 0,0.217 -0.012,0.373 -0.037,0.468 C -9.069,-0.378 -9.14,-0.189 -9.208,0 H -5.6 c -0.092,-0.217 -0.155,-0.49 -0.188,-0.82 -0.043,-0.333 -0.064,-0.63 -0.064,-0.893 v -5.646 c 0,-0.623 0.256,-0.935 0.77,-0.935 h 2.499 c 0.429,0 0.694,0.052 0.795,0.156 0.092,0.095 0.138,0.374 0.138,0.838 v 5.514 c -0.008,0.302 -0.021,0.539 -0.037,0.71 -0.049,0.509 -0.137,0.868 -0.265,1.076 z" style="fill:#ffffff;fill-opacity:1;fill-rule:nonzero;stroke:none" id="path72"/>
        </g>
        <g id="g74" transform="translate(416.3409,86.8614)">
          <path d="m 0,0 h -3.633 c 0.101,0.226 0.163,0.5 0.188,0.824 0.027,0.32 0.048,0.614 0.065,0.879 v 6.522 0.439 0.239 c 0,0.217 -0.013,0.373 -0.037,0.467 -0.076,0.189 -0.148,0.379 -0.216,0.568 H 0 C -0.103,9.702 -0.17,9.434 -0.204,9.131 -0.244,8.82 -0.265,8.517 -0.265,8.225 V 1.703 1.405 C -0.273,1.32 -0.277,1.248 -0.277,1.191 -0.277,0.993 -0.261,0.827 -0.228,0.696 -0.204,0.553 -0.128,0.321 0,0" style="fill:#ffffff;fill-opacity:1;fill-rule:nonzero;stroke:none" id="path76"/>
        </g>
        <g id="g78" transform="translate(426.7799,92.9016)">
          <path d="M 0,0 V 1.402 C 0,1.753 -0.022,1.971 -0.065,2.056 -0.132,2.188 -0.296,2.253 -0.557,2.253 H -2.18 v -3.104 h 1.623 c 0.22,0 0.367,0.052 0.443,0.155 C -0.038,-0.601 0,-0.369 0,0 M 3.116,-0.086 C 3.116,-0.984 2.96,-1.607 2.651,-1.956 2.33,-2.315 1.795,-2.495 1.046,-2.495 H -2.18 v -1.842 -0.298 c -0.009,-0.095 -0.012,-0.185 -0.012,-0.27 0,-0.143 0.02,-0.299 0.061,-0.467 0.035,-0.18 0.103,-0.403 0.203,-0.668 h -3.608 c 0.136,0.302 0.212,0.586 0.228,0.852 0.008,0.262 0.012,0.546 0.012,0.851 v 6.521 0.481 c 0,0.266 -0.02,0.493 -0.061,0.682 -0.043,0.178 -0.128,0.362 -0.252,0.551 h 6.655 c 0.717,0 1.23,-0.166 1.54,-0.495 0.353,-0.379 0.53,-1.021 0.53,-1.928 z" style="fill:#ffffff;fill-opacity:1;fill-rule:nonzero;stroke:none" id="path80"/>
        </g>
        <g id="g82" transform="translate(446.1502,86.8614)">
          <path d="m 0,0 h -3.645 c 0.111,0.236 0.179,0.514 0.203,0.838 0.025,0.311 0.045,0.6 0.062,0.865 V 7.827 L -5.662,0 h -2.142 l -2.208,7.827 -0.024,-6.041 c 0,-0.538 0.02,-0.901 0.061,-1.09 C -9.94,0.497 -9.856,0.266 -9.723,0 h -1.951 c 0.118,0.208 0.199,0.415 0.24,0.623 0.032,0.208 0.049,0.595 0.049,1.163 v 6.567 c 0,0.5 -0.012,0.835 -0.037,1.004 -0.033,0.161 -0.117,0.355 -0.252,0.581 h 4.261 l 1.564,-5.642 1.675,5.642 H 0 C -0.109,9.654 -0.181,9.385 -0.215,9.131 -0.257,8.866 -0.277,8.564 -0.277,8.225 V 1.703 c 0,-0.522 0.016,-0.872 0.049,-1.052 C -0.201,0.473 -0.125,0.256 0,0" style="fill:#ffffff;fill-opacity:1;fill-rule:nonzero;stroke:none" id="path84"/>
        </g>
        <g id="g86" transform="translate(458.2551,88.7754)">
          <path d="m 0,0 -0.277,-1.914 h -7.176 c 0.135,0.302 0.211,0.586 0.228,0.852 0.008,0.262 0.012,0.546 0.012,0.851 v 6.522 0.38 c 0,0.388 -0.009,0.625 -0.025,0.71 -0.016,0.085 -0.088,0.293 -0.215,0.623 h 7.05 L -0.151,6.11 C -0.403,6.168 -0.596,6.21 -0.729,6.238 -1.177,6.332 -1.455,6.38 -1.563,6.38 H -4.098 V 4.04 h 2.208 c 0.15,-0.009 0.267,-0.014 0.351,-0.014 0.152,0 0.3,0.019 0.443,0.059 0.133,0.027 0.339,0.103 0.616,0.225 V 2.14 C -0.73,2.197 -0.924,2.24 -1.059,2.267 -1.48,2.353 -1.757,2.396 -1.89,2.396 H -4.098 V -0.27 h 2.698 0.252 c 0.076,-0.009 0.148,-0.014 0.215,-0.014 0.117,0 0.231,0.019 0.342,0.056 C -0.482,-0.198 -0.285,-0.122 0,0" style="fill:#ffffff;fill-opacity:1;fill-rule:nonzero;stroke:none" id="path88"/>
        </g>
        <g id="g90" transform="translate(471.9491,96.7992)">
          <path d="M 0,0 C -0.101,-0.159 -0.164,-0.301 -0.188,-0.426 -0.256,-0.707 -0.29,-1.16 -0.29,-1.786 v -8.152 h -4.036 l -3.365,8.225 -0.028,-6.438 c 0,-0.34 0.03,-0.676 0.09,-1.008 0.051,-0.339 0.127,-0.599 0.228,-0.779 h -1.953 c 0.117,0.208 0.197,0.416 0.241,0.623 0.032,0.208 0.049,0.595 0.049,1.164 v 6.566 c 0,0.5 -0.012,0.835 -0.037,1.004 C -9.134,-0.42 -9.218,-0.226 -9.354,0 h 4.347 l 3.329,-8.11 v 6.525 c 0,0.406 -0.005,0.708 -0.012,0.907 C -1.707,-0.48 -1.795,-0.254 -1.955,0 Z" style="fill:#ffffff;fill-opacity:1;fill-rule:nonzero;stroke:none" id="path92"/>
        </g>
        <g id="g94" transform="translate(484.4081,94.7431)">
          <path d="M 0,0 C -0.109,0.125 -0.209,0.21 -0.302,0.257 -0.513,0.36 -0.804,0.412 -1.173,0.412 h -1.401 v -6.591 c 0,-0.445 0.008,-0.753 0.025,-0.924 0.018,-0.168 0.09,-0.428 0.215,-0.779 h -3.608 c 0.1,0.226 0.163,0.501 0.188,0.822 0.025,0.322 0.046,0.616 0.064,0.881 v 6.591 h -1.411 c -0.26,0 -0.454,-0.018 -0.581,-0.055 C -7.815,0.308 -8.008,0.19 -8.26,0 l 0.252,2.056 h 7.743 z" style="fill:#ffffff;fill-opacity:1;fill-rule:nonzero;stroke:none" id="path96"/>
        </g>
        <g id="g98" transform="translate(42.2384,109.7381)">
          <path d="m 0,0 c -6.119,-5.911 -6.846,-17.019 -6.683,-24.729 0.007,-0.452 -0.019,-1.029 -0.068,-1.562 H 10.71 V 0.889 C 6.986,2.276 2.62,2.525 0,0" style="fill:#626467;fill-opacity:1;fill-rule:nonzero;stroke:none" id="path100"/>
        </g>
        <g id="g102" transform="translate(35.0115,85.4043)">
          <path d="m 0,0 c -0.192,-0.884 -0.405,2.84 -0.358,3.576 1.024,15.551 -1.223,29.446 -14.733,38.171 -4.442,2.873 -6.659,5.663 -7.402,9.618 V -1.957 H 0.038 c 0,0.06 -0.005,0.103 -0.005,0.168 C 0.021,-1.203 0.01,-0.604 0,0" style="fill:#c32032;fill-opacity:1;fill-rule:nonzero;stroke:none" id="path104"/>
        </g>
        <g id="g106" transform="translate(12.7448,139.5101)">
          <path d="m 0,0 c -0.2,-2.21 4.364,-5.278 6.19,-6.462 3.38,-2.191 6.812,-4.43 9.299,-7.668 5.006,-6.507 6.769,-14.756 7.205,-23.099 0.612,7.681 1.042,17.568 5.782,23.861 3.122,4.149 5.523,5.74 5.84,11.504 0.175,3.235 0.499,-1.794 0.454,-2.654 -0.264,-4.783 -0.883,-8.525 -4.347,-11.913 -5.301,-5.181 -6.437,-13.513 -7.07,-20.949 0.827,4.033 2.219,7.848 4.579,11.026 2.806,3.786 7.911,4.242 12.271,2.749 V 6.583 H -0.226 V 4.085 C -0.082,3.471 0.045,0.507 0,0" style="fill:#231f20;fill-opacity:1;fill-rule:nonzero;stroke:none" id="path108"/>
        </g>
        <g id="g110" transform="translate(40.6764,113.1562)">
          <path d="m 0,0 c -2.36,-3.178 -3.752,-6.993 -4.578,-11.026 0.633,7.436 1.769,15.768 7.069,20.949 3.465,3.388 4.084,7.13 4.347,11.913 0.046,0.86 -0.278,5.889 -0.453,2.654 -0.318,-5.764 -2.718,-7.355 -5.84,-11.504 -4.741,-6.293 -5.171,-16.18 -5.783,-23.861 -0.436,8.343 -2.199,16.592 -7.205,23.099 -2.487,3.238 -5.918,5.477 -9.299,7.668 -1.826,1.184 -6.39,4.251 -6.19,6.462 0.045,0.507 -0.082,3.471 -0.225,4.085 v -6.826 c 0.742,-3.954 2.959,-6.744 7.401,-9.618 13.51,-8.725 15.757,-22.62 14.733,-38.171 -0.047,-0.736 0.166,-4.46 0.358,-3.576 0.011,-0.604 0.021,-1.203 0.034,-1.789 0,-0.065 0.004,-0.108 0.004,-0.168 h 0.438 c 0.049,0.532 0.075,1.11 0.068,1.562 -0.163,7.71 0.564,18.818 6.683,24.729 2.62,2.525 6.986,2.276 10.71,0.889 V 2.749 C 7.911,4.242 2.807,3.786 0,0" style="fill:#ffffff;fill-opacity:1;fill-rule:nonzero;stroke:none" id="path112"/>
        </g>
        <g id="g114" transform="translate(141.0737,89.1947)">
          <path d="M 0,0 1.45,1.995 C 2.142,1.497 2.745,1.253 3.251,1.253 3.677,1.253 3.923,1.377 3.99,1.624 4.038,1.794 3.958,1.901 3.758,1.962 L 2.292,2.283 C 1.5,2.436 1.246,3.037 1.529,4.083 1.732,4.841 2.202,5.464 2.937,5.951 3.671,6.436 4.544,6.683 5.565,6.683 6.449,6.683 7.291,6.465 8.089,6.036 L 6.713,4.168 C 6.247,4.543 5.744,4.729 5.222,4.729 4.808,4.729 4.565,4.615 4.509,4.389 4.461,4.213 4.532,4.099 4.732,4.052 L 5.819,3.814 C 6.339,3.708 6.687,3.527 6.863,3.271 7.039,3.02 7.138,2.784 7.162,2.57 7.188,2.355 7.167,2.127 7.101,1.889 6.896,1.11 6.411,0.47 5.645,-0.033 4.885,-0.539 3.976,-0.794 2.93,-0.794 1.879,-0.794 0.904,-0.528 0,0" style="fill:#ffffff;fill-opacity:1;fill-rule:nonzero;stroke:none" id="path116"/>
        </g>
        <g id="g118" transform="translate(149.6527,88.5854)">
          <path d="M 0,0 1.902,7.124 H 4.823 L 2.919,0 Z" style="fill:#ffffff;fill-opacity:1;fill-rule:nonzero;stroke:none" id="path120"/>
        </g>
        <g id="g122" transform="translate(155.2549,88.5854)">
          <path d="M 0,0 1.904,7.124 H 4.723 L 6.208,3.401 7.114,7.124 H 9.898 L 7.99,0 H 5.141 L 3.671,3.7 2.774,0 Z" style="fill:#ffffff;fill-opacity:1;fill-rule:nonzero;stroke:none" id="path124"/>
        </g>
        <g id="g126" transform="translate(171.3776,93.553)">
          <path d="m 0,0 c -0.472,0 -0.887,-0.128 -1.243,-0.385 -0.356,-0.253 -0.59,-0.599 -0.707,-1.034 -0.111,-0.406 -0.066,-0.742 0.142,-0.994 0.196,-0.253 0.538,-0.382 1.01,-0.382 0.292,0 0.599,0.059 0.897,0.168 0.303,0.106 0.651,0.272 1.046,0.491 L 0.338,-4.814 c -0.68,-0.226 -1.33,-0.338 -1.96,-0.338 -0.984,0 -1.858,0.304 -2.619,0.911 -0.768,0.61 -0.979,1.548 -0.642,2.826 0.297,1.09 0.937,1.989 1.927,2.695 0.998,0.704 2.119,1.053 3.368,1.053 0.628,0 1.22,-0.121 1.78,-0.361 L 1.485,-0.665 C 1.077,-0.22 0.586,0 0,0" style="fill:#ffffff;fill-opacity:1;fill-rule:nonzero;stroke:none" id="path128"/>
        </g>
        <g id="g130" transform="translate(174.1015,88.5854)">
          <path d="M 0,0 1.906,7.124 H 7.251 L 6.731,5.185 H 4.205 L 4.025,4.512 H 6.314 L 5.825,2.681 H 3.536 L 3.335,1.939 H 5.931 L 5.409,0 Z" style="fill:#ffffff;fill-opacity:1;fill-rule:nonzero;stroke:none" id="path132"/>
        </g>
        <g id="g134" transform="translate(190.0527,93.4826)">
          <path d="m 0,0 h -1.193 l 0.578,2.163 h 4.064 l -1.885,-7.06 h -2.876 z" style="fill:#ffffff;fill-opacity:1;fill-rule:nonzero;stroke:none" id="path136"/>
        </g>
        <g id="g138" transform="translate(198.5415,90.6075)">
          <path d="m 0,0 -0.305,-0.01 c -0.77,0 -1.332,0.2 -1.681,0.608 -0.344,0.404 -0.431,0.949 -0.249,1.627 0.226,0.839 0.733,1.541 1.527,2.104 0.785,0.57 1.705,0.852 2.745,0.852 1.002,0 1.76,-0.268 2.268,-0.804 C 4.808,3.84 4.953,3.161 4.729,2.326 4.58,1.765 4.288,1.245 3.847,0.754 3.412,0.265 2.759,-0.346 1.892,-1.08 L 0.678,-2.078 H -3.07 Z M 0.613,2.334 C 0.56,2.144 0.58,1.984 0.667,1.858 0.756,1.728 0.903,1.657 1.104,1.657 c 0.21,0 0.392,0.062 0.545,0.184 C 1.798,1.96 1.904,2.125 1.96,2.334 2.014,2.535 1.995,2.697 1.908,2.829 1.817,2.958 1.67,3.02 1.469,3.02 1.266,3.02 1.086,2.958 0.93,2.829 0.771,2.697 0.663,2.535 0.613,2.334" style="fill:#ffffff;fill-opacity:1;fill-rule:nonzero;stroke:none" id="path140"/>
        </g>
        <g id="g142" transform="translate(209.4712,93.6129)">
          <path d="m 0,0 0.307,0.01 c 0.785,0 1.346,-0.198 1.679,-0.586 C 2.328,-0.97 2.4,-1.514 2.216,-2.212 1.982,-3.074 1.471,-3.793 0.68,-4.365 -0.112,-4.93 -1.021,-5.212 -2.051,-5.212 c -1.028,0 -1.787,0.272 -2.277,0.81 -0.495,0.545 -0.625,1.233 -0.403,2.069 0.103,0.39 0.242,0.717 0.43,0.993 0.189,0.269 0.352,0.489 0.495,0.654 0.147,0.168 0.324,0.349 0.525,0.531 0.196,0.192 0.418,0.393 0.658,0.607 0.239,0.211 0.485,0.424 0.733,0.64 l 1.217,0.998 h 3.749 z m -0.618,-2.359 c 0.052,0.211 0.036,0.383 -0.055,0.503 -0.089,0.122 -0.239,0.183 -0.435,0.183 -0.203,0 -0.375,-0.063 -0.537,-0.187 -0.162,-0.122 -0.267,-0.29 -0.325,-0.499 -0.054,-0.197 -0.035,-0.361 0.056,-0.496 0.087,-0.124 0.232,-0.188 0.437,-0.188 0.209,0 0.39,0.056 0.542,0.178 0.152,0.118 0.258,0.29 0.317,0.506" style="fill:#ffffff;fill-opacity:1;fill-rule:nonzero;stroke:none" id="path144"/>
        </g>
        <g id="g146" transform="translate(213.0628,88.5854)">
          <path d="M 0,0 4.148,4.876 H 1.374 L 1.958,7.06 H 9.127 L 3.236,0 Z" style="fill:#ffffff;fill-opacity:1;fill-rule:nonzero;stroke:none" id="path148"/>
        </g>
        <g id="g150" transform="translate(194.1632,64.2744)">
          <path d="m 0,0 h -4.313 l -0.56,-2.841 H 0 L -0.56,-5.744 H -8.812 L -6.158,8.231 H 1.825 L 1.244,5.329 H -3.297 L -3.794,2.861 H 0.56 Z" style="fill:#c32032;fill-opacity:1;fill-rule:nonzero;stroke:none" id="path152"/>
        </g>
        <g id="g154" transform="translate(194.929,58.5304)">
          <path d="m 0,0 1.265,6.801 c 0.248,1.265 0.414,2.426 0.56,3.401 H 4.707 L 4.582,8.709 h 0.042 c 0.85,1.182 1.99,1.701 3.255,1.701 1.431,0 2.115,-0.914 2.219,-1.701 0.829,1.14 2.012,1.701 3.235,1.701 1.617,0 2.343,-1.058 2.343,-2.634 0,-0.415 -0.104,-1.265 -0.208,-1.866 L 14.369,0 h -3.317 l 1.037,5.557 c 0.083,0.456 0.145,0.892 0.145,1.285 0,0.498 -0.228,0.851 -0.705,0.851 -0.747,0 -1.472,-1.079 -1.846,-3.048 L 8.792,0 H 5.536 l 1.037,5.557 c 0.083,0.436 0.145,0.85 0.145,1.223 0,0.54 -0.187,0.913 -0.643,0.913 -0.746,0 -1.555,-1.12 -1.907,-3.048 L 3.318,0 Z" style="fill:#c32032;fill-opacity:1;fill-rule:nonzero;stroke:none" id="path156"/>
        </g>
        <g id="g158" transform="translate(214.7706,61.2256)">
          <path d="m 0,0 c 0.249,-0.228 0.539,-0.373 0.974,-0.373 1.307,0 2.219,2.323 2.219,3.981 0,0.664 -0.207,1.327 -0.933,1.327 -0.871,0 -1.576,-1.016 -1.824,-2.467 z m -4.686,-6.759 1.99,10.429 c 0.208,1.162 0.457,2.841 0.581,3.899 H 0.871 L 0.726,6.18 h 0.041 c 0.747,0.995 1.846,1.534 2.924,1.534 2.136,0 3.027,-1.742 3.027,-3.753 0,-3.504 -2.156,-6.863 -5.557,-6.863 -0.642,0 -1.285,0.145 -1.617,0.352 h -0.042 l -0.808,-4.209 z" style="fill:#c32032;fill-opacity:1;fill-rule:nonzero;stroke:none" id="path160"/>
        </g>
        <g id="g162" transform="translate(221.5699,58.5304)">
          <path d="m 0,0 2.779,14.619 h 3.4 L 3.401,0 Z" style="fill:#c32032;fill-opacity:1;fill-rule:nonzero;stroke:none" id="path164"/>
        </g>
        <g id="g166" transform="translate(231.6256,60.8939)">
          <path d="m 0,0 c 1.307,0 1.97,2.53 1.97,4.106 0,0.747 -0.29,1.368 -1.099,1.368 -1.348,0 -2.032,-2.57 -2.011,-3.939 C -1.14,0.664 -0.808,0 -0.021,0 Z m -0.456,-2.57 c -2.675,0 -4.147,1.762 -4.147,4.022 0,3.628 2.384,6.594 5.951,6.594 2.758,0 4.085,-1.928 4.085,-4.044 0,-3.794 -2.447,-6.572 -5.868,-6.572 z" style="fill:#c32032;fill-opacity:1;fill-rule:nonzero;stroke:none" id="path168"/>
        </g>
        <g id="g170" transform="translate(241.308,68.7323)">
          <path d="m 0,0 0.29,-4.168 c 0.104,-0.995 0.166,-1.721 0.208,-2.343 h 0.041 c 0.187,0.684 0.373,1.307 0.788,2.426 L 2.778,0 H 6.304 L 2.841,-7.382 c -1.348,-2.758 -2.613,-4.666 -3.919,-5.868 -1.016,-0.954 -2.282,-1.452 -2.924,-1.576 l -0.892,2.861 c 0.477,0.166 1.058,0.415 1.555,0.747 0.643,0.436 1.162,0.933 1.452,1.473 0.062,0.145 0.083,0.248 0.041,0.476 L -3.566,0 Z" style="fill:#c32032;fill-opacity:1;fill-rule:nonzero;stroke:none" id="path172"/>
        </g>
        <g id="g174" transform="translate(252.8764,65.7045)">
          <path d="m 0,0 c 0,0.416 -0.29,0.726 -0.829,0.726 -1.12,0 -1.742,-0.954 -1.866,-1.783 C -0.808,-1.098 0,-0.726 0,-0.02 Z m 1.888,-6.635 c -1.245,-0.58 -2.634,-0.726 -3.733,-0.726 -2.903,0 -4.375,1.597 -4.375,4.251 0,3.09 2.073,6.346 5.785,6.346 2.094,0 3.525,-1.266 3.546,-3.173 0,-2.654 -2.302,-3.712 -6.117,-3.588 0.041,-0.248 0.145,-0.497 0.352,-0.704 0.353,-0.312 0.913,-0.519 1.68,-0.519 0.995,0 1.866,0.187 2.696,0.581 z" style="fill:#c32032;fill-opacity:1;fill-rule:nonzero;stroke:none" id="path176"/>
        </g>
        <g id="g178" transform="translate(262.455,65.7045)">
          <path d="m 0,0 c 0,0.416 -0.291,0.726 -0.829,0.726 -1.121,0 -1.742,-0.954 -1.866,-1.783 C -0.808,-1.098 0,-0.726 0,-0.02 Z m 1.887,-6.635 c -1.244,-0.58 -2.633,-0.726 -3.733,-0.726 -2.903,0 -4.375,1.597 -4.375,4.251 0,3.09 2.074,6.346 5.785,6.346 2.095,0 3.526,-1.266 3.547,-3.173 0,-2.654 -2.302,-3.712 -6.118,-3.588 0.042,-0.248 0.146,-0.497 0.353,-0.704 0.353,-0.312 0.912,-0.519 1.68,-0.519 0.995,0 1.865,0.187 2.695,0.581 z" style="fill:#c32032;fill-opacity:1;fill-rule:nonzero;stroke:none" id="path180"/>
        </g>
        <g id="g182" transform="translate(274.9156,61.1846)">
          <path d="m 0,0 c 0.602,0 1.14,0.27 1.576,0.705 1.098,1.079 1.638,3.94 1.638,5.433 0,1.306 -0.477,2.529 -1.97,2.529 -0.642,0 -1.203,-0.269 -1.68,-0.746 C -1.493,6.863 -2.094,4.313 -2.094,2.592 -2.094,1.12 -1.473,0 -0.021,0 Z m -0.498,-2.861 c -3.504,0 -5.184,2.695 -5.184,5.494 0,2.675 0.933,5.412 2.654,7.071 1.203,1.14 2.8,1.825 4.666,1.825 3.525,0 5.163,-2.509 5.163,-5.432 C 6.801,3.359 5.889,0.602 4.23,-1.016 3.006,-2.198 1.431,-2.861 -0.478,-2.861 Z" style="fill:#c32032;fill-opacity:1;fill-rule:nonzero;stroke:none" id="path184"/>
        </g>
        <g id="g186" transform="translate(285.9034,68.7323)">
          <path d="M 0,0 -0.187,-3.815 C -0.25,-5.059 -0.312,-6.034 -0.415,-7.257 h 0.041 C 0,-6.034 0.414,-5.059 0.85,-3.96 L 2.467,0 H 5.163 L 5.204,-3.815 C 5.225,-5.142 5.225,-6.014 5.142,-7.257 h 0.062 c 0.311,1.223 0.664,2.218 1.12,3.587 L 7.61,0 h 3.379 L 6.2,-10.202 H 3.048 l -0.104,2.779 c -0.042,1.057 -0.021,2.115 0,3.484 H 2.902 C 2.384,-5.495 2.094,-6.366 1.7,-7.32 L 0.477,-10.202 H -2.654 L -3.463,0 Z" style="fill:#c32032;fill-opacity:1;fill-rule:nonzero;stroke:none" id="path188"/>
        </g>
        <g id="g190" transform="translate(295.6671,58.5304)">
          <path d="M 0,0 1.286,6.801 C 1.534,8.066 1.7,9.227 1.846,10.202 H 4.811 L 4.666,8.751 h 0.041 c 0.892,1.14 2.032,1.659 3.255,1.659 1.763,0 2.468,-1.121 2.468,-2.655 0,-0.497 -0.104,-1.265 -0.186,-1.824 L 9.103,0 H 5.723 L 6.801,5.744 C 6.863,6.076 6.905,6.428 6.905,6.76 6.905,7.299 6.739,7.672 6.221,7.672 5.474,7.672 4.666,6.697 4.272,4.624 L 3.38,0 Z" style="fill:#c32032;fill-opacity:1;fill-rule:nonzero;stroke:none" id="path192"/>
        </g>
        <g id="g194" transform="translate(313.0213,65.7045)">
          <path d="m 0,0 c 0,0.416 -0.29,0.726 -0.829,0.726 -1.12,0 -1.742,-0.954 -1.867,-1.783 C -0.809,-1.098 0,-0.726 0,-0.02 Z m 1.887,-6.635 c -1.244,-0.58 -2.633,-0.726 -3.733,-0.726 -2.903,0 -4.375,1.597 -4.375,4.251 0,3.09 2.074,6.346 5.785,6.346 2.095,0 3.526,-1.266 3.546,-3.173 0,-2.654 -2.302,-3.712 -6.117,-3.588 0.042,-0.248 0.145,-0.497 0.353,-0.704 0.353,-0.312 0.912,-0.519 1.68,-0.519 0.995,0 1.865,0.187 2.695,0.581 z" style="fill:#c32032;fill-opacity:1;fill-rule:nonzero;stroke:none" id="path196"/>
        </g>
        <g id="g198" transform="translate(323.0347,66.12)">
          <path d="m 0,0 c -0.166,0.145 -0.498,0.269 -0.829,0.269 -1.452,0 -2.406,-2.177 -2.406,-3.774 0,-1.12 0.477,-1.555 1.058,-1.555 0.622,0 1.286,0.663 1.617,2.136 z M 4.686,7.029 2.674,-3.629 C 2.405,-4.935 2.239,-6.366 2.156,-7.59 H -0.85 l 0.104,1.493 h -0.042 c -0.809,-1.244 -1.97,-1.7 -2.965,-1.7 -1.617,0 -2.965,1.265 -2.965,3.712 0,3.525 2.322,6.905 6.054,6.905 0.332,0 0.747,-0.063 1.12,-0.208 l 0.85,4.417 z" style="fill:#c32032;fill-opacity:1;fill-rule:nonzero;stroke:none" id="path200"/>
        </g>
        <g id="g202" transform="translate(328.4662,58.3436)">
          <path d="m 0,0 c -1.14,0 -1.846,0.809 -1.846,1.95 0,1.223 0.934,2.343 2.199,2.343 C 1.514,4.293 2.26,3.484 2.26,2.322 2.26,0.912 1.285,0 0.021,0 Z" style="fill:#c32032;fill-opacity:1;fill-rule:nonzero;stroke:none" id="path204"/>
        </g>
        <g id="g206" transform="translate(344.2445,58.8211)">
          <path d="m 0,0 c -0.643,-0.27 -1.701,-0.478 -3.173,-0.478 -3.794,0 -5.744,2.614 -5.744,5.62 0,3.463 1.431,5.888 3.422,7.278 1.389,1.017 3.028,1.451 4.852,1.451 1.265,0 2.302,-0.289 2.655,-0.476 L 1.119,10.596 c -0.352,0.124 -1.078,0.331 -2.093,0.331 -0.955,0 -1.888,-0.331 -2.551,-0.954 -1.017,-0.912 -1.721,-2.405 -1.721,-4.375 0,-1.949 1.057,-3.131 2.945,-3.131 0.808,0 1.617,0.124 2.176,0.353 z" style="fill:#231f20;fill-opacity:1;fill-rule:nonzero;stroke:none" id="path208"/>
        </g>
        <g id="g210" transform="translate(355.9788,68.7323)">
          <path d="m 0,0 -1.285,-6.801 c -0.25,-1.265 -0.416,-2.426 -0.582,-3.401 h -2.944 l 0.124,1.452 -0.041,0.02 c -0.995,-1.223 -2.115,-1.679 -3.234,-1.679 -1.659,0 -2.406,1.037 -2.406,2.695 0,0.623 0.083,1.307 0.228,2.074 L -9.062,0 h 3.38 l -1.015,-5.412 c -0.104,-0.498 -0.166,-1.016 -0.166,-1.41 0,-0.456 0.186,-0.851 0.704,-0.851 0.768,0 1.493,0.976 1.846,2.738 L -3.401,0 Z" style="fill:#231f20;fill-opacity:1;fill-rule:nonzero;stroke:none" id="path212"/>
        </g>
        <g id="g214" transform="translate(356.205,61.4334)">
          <path d="m 0,0 c 0.56,-0.29 1.555,-0.664 2.509,-0.643 0.684,0 0.995,0.311 0.995,0.705 0,0.394 -0.29,0.684 -1.141,1.141 -1.119,0.622 -1.99,1.472 -1.99,2.674 0,2.157 1.866,3.63 4.583,3.63 1.203,0 2.094,-0.229 2.592,-0.498 L 6.801,4.645 C 6.387,4.832 5.723,5.039 4.935,5.039 4.23,5.039 3.774,4.79 3.774,4.313 3.774,4.002 4.126,3.711 4.811,3.36 5.972,2.696 6.988,1.846 6.988,0.56 c 0,-2.364 -1.949,-3.67 -4.77,-3.65 -1.244,0.021 -2.425,0.332 -3.006,0.726 z" style="fill:#231f20;fill-opacity:1;fill-rule:nonzero;stroke:none" id="path216"/>
        </g>
        <g id="g218" transform="translate(369.6617,71.5942)">
          <path d="M 0,0 -0.519,-2.862 H 1.493 L 1.015,-5.371 h -2.031 l -0.643,-3.235 c -0.063,-0.311 -0.125,-0.767 -0.125,-1.015 0,-0.519 0.249,-0.83 0.83,-0.83 0.228,0 0.518,0 0.808,0.02 l -0.456,-2.592 c -0.435,-0.166 -1.223,-0.228 -1.886,-0.228 -1.867,0 -2.779,0.934 -2.779,2.344 0,0.518 0.062,1.078 0.207,1.762 l 0.726,3.774 h -1.224 l 0.478,2.509 h 1.223 l 0.353,1.887 z" style="fill:#231f20;fill-opacity:1;fill-rule:nonzero;stroke:none" id="path220"/>
        </g>
        <g id="g222" transform="translate(375.1134,60.8939)">
          <path d="m 0,0 c 1.306,0 1.97,2.53 1.97,4.106 0,0.747 -0.29,1.368 -1.099,1.368 -1.348,0 -2.032,-2.57 -2.011,-3.939 C -1.14,0.664 -0.808,0 -0.021,0 Z m -0.456,-2.57 c -2.675,0 -4.147,1.762 -4.147,4.022 0,3.628 2.384,6.594 5.951,6.594 2.758,0 4.085,-1.928 4.085,-4.044 0,-3.794 -2.447,-6.572 -5.868,-6.572 z" style="fill:#231f20;fill-opacity:1;fill-rule:nonzero;stroke:none" id="path224"/>
        </g>
        <g id="g226" transform="translate(380.606,58.5304)">
          <path d="m 0,0 1.265,6.801 c 0.249,1.265 0.415,2.426 0.56,3.401 H 4.707 L 4.583,8.709 h 0.042 c 0.849,1.182 1.99,1.701 3.254,1.701 1.431,0 2.116,-0.914 2.22,-1.701 0.829,1.14 2.011,1.701 3.234,1.701 1.617,0 2.343,-1.058 2.343,-2.634 0,-0.415 -0.103,-1.265 -0.207,-1.866 L 14.37,0 h -3.318 l 1.037,5.557 c 0.083,0.456 0.145,0.892 0.145,1.285 0,0.498 -0.228,0.851 -0.705,0.851 -0.747,0 -1.472,-1.079 -1.846,-3.048 L 8.792,0 H 5.536 l 1.037,5.557 c 0.083,0.436 0.145,0.85 0.145,1.223 0,0.54 -0.187,0.913 -0.642,0.913 -0.747,0 -1.555,-1.12 -1.908,-3.048 L 3.318,0 Z" style="fill:#231f20;fill-opacity:1;fill-rule:nonzero;stroke:none" id="path228"/>
        </g>
        <g id="g230" transform="translate(403.1848,65.7045)">
          <path d="m 0,0 c 0,0.416 -0.29,0.726 -0.829,0.726 -1.12,0 -1.742,-0.954 -1.867,-1.783 C -0.808,-1.098 0,-0.726 0,-0.02 Z m 1.887,-6.635 c -1.244,-0.58 -2.633,-0.726 -3.733,-0.726 -2.903,0 -4.375,1.597 -4.375,4.251 0,3.09 2.074,6.346 5.785,6.346 2.095,0 3.526,-1.266 3.546,-3.173 0,-2.654 -2.301,-3.712 -6.117,-3.588 0.042,-0.248 0.145,-0.497 0.353,-0.704 0.353,-0.312 0.912,-0.519 1.68,-0.519 0.995,0 1.865,0.187 2.695,0.581 z" style="fill:#231f20;fill-opacity:1;fill-rule:nonzero;stroke:none" id="path232"/>
        </g>
        <g id="g234" transform="translate(406.1071,58.5304)">
          <path d="m 0,0 1.182,6.179 c 0.27,1.473 0.394,3.11 0.519,4.023 H 4.625 C 4.583,9.559 4.541,8.937 4.479,8.294 h 0.062 c 0.767,1.327 1.846,2.116 3.07,2.116 0.206,0 0.372,-0.021 0.559,-0.021 L 7.507,7.05 C 7.382,7.071 7.195,7.071 7.029,7.071 5.267,7.071 4.459,5.599 4.106,3.774 L 3.401,0 Z" style="fill:#231f20;fill-opacity:1;fill-rule:nonzero;stroke:none" id="path236"/>
        </g>
        <g id="g238" transform="translate(419.1273,72.5057)">
          <path d="M 0,0 H 7.921 L 7.341,-2.902 H 2.862 l -0.56,-2.82 H 6.553 L 6.014,-8.584 h -4.23 l -1.037,-5.391 h -3.401 z" style="fill:#231f20;fill-opacity:1;fill-rule:nonzero;stroke:none" id="path240"/>
        </g>
        <g id="g242" transform="translate(430.5717,60.8939)">
          <path d="m 0,0 c 1.306,0 1.97,2.53 1.97,4.106 0,0.747 -0.29,1.368 -1.099,1.368 -1.348,0 -2.032,-2.57 -2.011,-3.939 C -1.14,0.664 -0.808,0 -0.021,0 Z m -0.456,-2.57 c -2.675,0 -4.147,1.762 -4.147,4.022 0,3.628 2.384,6.594 5.951,6.594 2.758,0 4.085,-1.928 4.085,-4.044 0,-3.794 -2.447,-6.572 -5.868,-6.572 z" style="fill:#231f20;fill-opacity:1;fill-rule:nonzero;stroke:none" id="path244"/>
        </g>
        <g id="g246" transform="translate(443.2811,58.7793)">
          <path d="m 0,0 c -0.581,-0.27 -1.493,-0.436 -2.571,-0.436 -2.426,0 -4.126,1.555 -4.126,4.106 0,3.753 2.758,6.47 6.469,6.47 0.788,0 1.41,-0.104 1.867,-0.27 L 0.829,7.257 C 0.498,7.361 0.166,7.423 -0.27,7.423 c -1.721,0 -2.902,-1.513 -2.902,-3.359 0,-1.223 0.767,-1.783 1.596,-1.783 0.705,0 1.224,0.145 1.68,0.311 z" style="fill:#231f20;fill-opacity:1;fill-rule:nonzero;stroke:none" id="path248"/>
        </g>
        <g id="g250" transform="translate(454.9542,68.7323)">
          <path d="m 0,0 -1.286,-6.801 c -0.248,-1.265 -0.414,-2.426 -0.58,-3.401 h -2.945 l 0.125,1.452 -0.042,0.02 c -0.995,-1.223 -2.114,-1.679 -3.234,-1.679 -1.659,0 -2.406,1.037 -2.406,2.695 0,0.623 0.083,1.307 0.228,2.074 L -9.062,0 h 3.381 l -1.016,-5.412 c -0.104,-0.498 -0.166,-1.016 -0.166,-1.41 0,-0.456 0.187,-0.851 0.704,-0.851 0.768,0 1.493,0.976 1.846,2.738 L -3.401,0 Z" style="fill:#231f20;fill-opacity:1;fill-rule:nonzero;stroke:none" id="path252"/>
        </g>
        <g id="g254" transform="translate(455.1805,61.4334)">
          <path d="m 0,0 c 0.56,-0.29 1.555,-0.664 2.509,-0.643 0.685,0 0.995,0.311 0.995,0.705 0,0.394 -0.29,0.684 -1.14,1.141 -1.12,0.622 -1.99,1.472 -1.99,2.674 0,2.157 1.865,3.63 4.582,3.63 1.203,0 2.094,-0.229 2.592,-0.498 L 6.801,4.645 C 6.387,4.832 5.723,5.039 4.935,5.039 4.23,5.039 3.773,4.79 3.773,4.313 3.773,4.002 4.126,3.711 4.811,3.36 5.972,2.696 6.988,1.846 6.988,0.56 c 0,-2.364 -1.949,-3.67 -4.769,-3.65 -1.245,0.021 -2.427,0.332 -3.007,0.726 z" style="fill:#231f20;fill-opacity:1;fill-rule:nonzero;stroke:none" id="path256"/>
        </g>
        <g id="g258" transform="translate(469.1759,65.7045)">
          <path d="m 0,0 c 0,0.416 -0.29,0.726 -0.829,0.726 -1.12,0 -1.742,-0.954 -1.867,-1.783 C -0.808,-1.098 0,-0.726 0,-0.02 Z m 1.887,-6.635 c -1.244,-0.58 -2.633,-0.726 -3.733,-0.726 -2.903,0 -4.375,1.597 -4.375,4.251 0,3.09 2.074,6.346 5.785,6.346 2.095,0 3.526,-1.266 3.546,-3.173 0,-2.654 -2.301,-3.712 -6.117,-3.588 0.042,-0.248 0.145,-0.497 0.353,-0.704 0.353,-0.312 0.912,-0.519 1.68,-0.519 0.995,0 1.865,0.187 2.695,0.581 z" style="fill:#231f20;fill-opacity:1;fill-rule:nonzero;stroke:none" id="path260"/>
        </g>
        <g id="g262" transform="translate(479.1901,66.12)">
          <path d="m 0,0 c -0.166,0.145 -0.498,0.269 -0.829,0.269 -1.452,0 -2.406,-2.177 -2.406,-3.774 0,-1.12 0.477,-1.555 1.058,-1.555 0.621,0 1.285,0.663 1.617,2.136 z M 4.686,7.029 2.675,-3.629 C 2.405,-4.935 2.239,-6.366 2.156,-7.59 H -0.85 l 0.104,1.493 h -0.042 c -0.809,-1.244 -1.97,-1.7 -2.965,-1.7 -1.618,0 -2.965,1.265 -2.965,3.712 0,3.525 2.322,6.905 6.054,6.905 0.332,0 0.747,-0.063 1.12,-0.208 l 0.85,4.417 z" style="fill:#231f20;fill-opacity:1;fill-rule:nonzero;stroke:none" id="path264"/>
        </g>
        <g id="g266" transform="translate(484.6208,58.3436)">
          <path d="m 0,0 c -1.14,0 -1.846,0.809 -1.846,1.95 0,1.223 0.934,2.343 2.199,2.343 C 1.514,4.293 2.26,3.484 2.26,2.322 2.26,0.912 1.285,0 0.021,0 Z" style="fill:#231f20;fill-opacity:1;fill-rule:nonzero;stroke:none" id="path268"/>
        </g>
      </g>
    </g>
  </g>
</svg>