<?xml version="1.0" standalone="no"?>
<!DOCTYPE svg PUBLIC "-//W3C//DTD SVG 1.1//EN" "http://www.w3.org/Graphics/SVG/1.1/DTD/svg11.dtd">
<svg xmlns:dc="http://purl.org/dc/elements/1.1/" xmlns:cc="http://creativecommons.org/ns#" xmlns:rdf="http://www.w3.org/1999/02/22-rdf-syntax-ns#" xmlns:svg="http://www.w3.org/2000/svg" xmlns="http://www.w3.org/2000/svg" xmlns:sodipodi="http://sodipodi.sourceforge.net/DTD/sodipodi-0.dtd" xmlns:inkscape="http://www.inkscape.org/namespaces/inkscape" width="234.91294860839844" height="49.150482177734375" viewBox="0 0 234.91295 49.150482" version="1.1" id="svg8" inkscape:version="0.92.5 (2060ec1f9f, 2020-04-08)" sodipodi:docname="logo-ffbt.svg">
  <defs id="defs2"/>
  <sodipodi:namedview id="base" pagecolor="#ffffff" bordercolor="#666666" borderopacity="1.0" inkscape:pageopacity="0.0" inkscape:pageshadow="2" inkscape:zoom="0.98994949" inkscape:cx="380.8956" inkscape:cy="83.954424" inkscape:document-units="mm" inkscape:current-layer="layer1" showgrid="false" fit-margin-top="0" fit-margin-left="0" fit-margin-right="0" fit-margin-bottom="0" units="in" inkscape:window-width="1848" inkscape:window-height="1016" inkscape:window-x="72" inkscape:window-y="27" inkscape:window-maximized="1"/>
  <metadata id="metadata5">
    <rdf:RDF>
      <cc:Work rdf:about="">
        <dc:format>image/svg+xml</dc:format>
        <dc:type rdf:resource="http://purl.org/dc/dcmitype/StillImage"/>
        <dc:title/>
      </cc:Work>
    </rdf:RDF>
  </metadata>
  <g inkscape:label="Layer 1" inkscape:groupmode="layer" id="layer1" transform="translate(-12.567328,-112.91881)">
    <g transform="matrix(0.35277777,0,0,-0.35277777,12.567328,162.06888)" inkscape:label="ink_ext_XXXXXX" id="g3721">
      <g transform="scale(0.1)" id="g3723">
        <path inkscape:connector-curvature="0" id="path3725" style="fill:#193f34;fill-opacity:1;fill-rule:evenodd;stroke:none" d="m 1270.62,329.809 c 0,4.031 1.61,5.64 4.85,5.64 12.09,0 52.4,0 62.89,-1.609 19.35,-2.418 39.52,-4.828 66.93,-23.391 62.09,-42.73 78.22,-112.898 78.22,-161.277 0,-91.1212 -70.16,-114.5001 -113.7,-114.5001 -14.51,0 -49.19,1.6094 -70.97,12.0898 -25,12.0977 -25,23.3985 -27.41,62.9103 -0.81,12.09 -0.81,112.078 -0.81,174.18 z m 0,255.625 c 0,4.832 2.42,7.254 9.68,8.867 12.9,3.222 29.84,4.043 38.7,4.043 79.03,0 108.87,-71.778 108.87,-138.711 0,-33.067 -12.1,-62.09 -29.03,-81.442 -16.94,-19.363 -28.22,-20.972 -73.38,-20.972 -29.84,0 -44.36,2.422 -49.19,3.222 -4.04,1.629 -5.65,3.239 -5.65,8.879 z m -64.51,-340.293 c 0,-77.422 0,-141.121 -4.03,-174.9808 -3.22,-23.3985 -7.26,-41.1289 -23.39,-44.3711 -7.26,-1.6094 -16.93,-3.2188 -24.19,-3.2188 -4.84,0 -6.45,-2.4219 -6.45,-4.832 0,-4.8477 4.03,-6.457 12.9,-6.457 24.19,0 74.99,2.4179 79.03,2.4179 6.45,0 88.7,-4.82811 107.25,-4.82811 137.89,0 205.63,89.50001 205.63,175.78891 0,94.34 -79.83,151.59 -139.51,170.149 37.9,39.511 75.81,79.023 75.81,145.144 0,40.324 -29.04,120.969 -161.29,120.969 -37.09,0 -68.53,-2.434 -87.89,-2.434 -4.04,0 -54.84,2.434 -91.13,2.434 -8.87,0 -12.89,-1.613 -12.89,-6.465 0,-3.223 3.22,-4.836 6.45,-4.836 7.25,0 20.96,-0.801 27.41,-2.422 26.62,-5.633 33.06,-18.543 34.67,-45.957 1.62,-25.801 1.62,-48.379 1.62,-174.183 v -141.918 0"/>
        <path inkscape:connector-curvature="0" id="path3727" style="fill:#193f34;fill-opacity:1;fill-rule:evenodd;stroke:none" d="m 1734.59,278.199 c -2.43,0 -4.04,1.61 -2.43,5.653 l 70.98,217.714 c 4.02,12.09 8.06,12.09 12.09,0 l 76.59,-217.714 c 0.82,-3.243 0.82,-5.653 -3.21,-5.653 z M 1621.7,99.9805 c -14.53,-40.3086 -30.64,-70.9492 -67.74,-75.8008 -6.45,-0.8086 -17.74,-1.6094 -23.39,-1.6094 -4.03,0 -7.25,-1.6094 -7.25,-4.832 0,-4.8477 4.84,-6.457 15.32,-6.457 37.89,0 82.24,2.4179 91.12,2.4179 8.86,0 43.54,-2.4179 62.9,-2.4179 7.25,0 12.09,1.6093 12.09,6.457 0,3.2226 -2.41,4.832 -8.06,4.832 h -8.07 c -13.71,0 -30.64,7.2695 -30.64,23.3789 0,14.5196 4.04,33.8828 11.3,54.0313 l 48.38,142.7385 c 1.61,4.031 4.02,6.453 8.05,6.453 h 173.37 c 4.04,0 5.65,-1.621 7.27,-4.844 l 74.99,-198.3788 c 4.84,-12.8906 0,-20.1601 -4.83,-21.7695 -3.23,-0.8086 -5.65,-2.418 -5.65,-5.6406 0,-4.8399 8.87,-4.8399 24.19,-5.6485 55.64,-1.6093 114.5,-1.6093 126.6,-1.6093 8.87,0 16.13,1.6093 16.13,6.457 0,4.0234 -3.22,4.832 -8.06,4.832 -8.07,0 -20.17,0.8008 -32.26,4.8516 -16.94,4.8281 -40.32,17.7383 -69.34,89.5081 -49.2,122.57 -175.8,455.593 -187.9,486.246 -9.67,24.992 -12.89,29.023 -17.74,29.023 -4.84,0 -8.06,-4.832 -17.73,-31.445 L 1621.7,99.9805 v 0"/>
        <path inkscape:connector-curvature="0" id="path3729" style="fill:#193f34;fill-opacity:1;fill-rule:nonzero;stroke:none" d="m 2214.86,507.211 c 25.8,-29.023 116.76,-130.633 210.15,-231.441 85.33,-91.918 201.26,-210.4614 210.11,-218.52 42.85,-42.7383 52.6,-51.60156 59.11,-51.60156 5.69,0 7.31,4.02344 7.31,57.24216 l 1.62,472.5504 c 0,48.379 3.22,66.125 29.83,71.758 9.67,2.422 15.32,2.422 19.36,2.422 5.64,0 8.87,2.422 8.87,5.645 0,4.836 -5.65,5.656 -14.52,5.656 -33.06,0 -59.78,-2.434 -68.73,-2.434 -8.94,0 -47.68,2.434 -83.91,2.434 -9.65,0 -16.09,-0.82 -16.09,-5.656 0,-3.223 0.8,-5.645 6.44,-5.645 6.44,0 24.95,-0.801 39.44,-4.031 24.96,-6.445 30.6,-24.192 31.41,-76.602 l 8.89,-409.648 c -25.8,26.609 -113.56,124.988 -193.25,210.469 -123.98,133.054 -243.93,262.879 -256.04,276.589 -8.14,8.059 -21.96,25.801 -28.45,25.801 -6.51,0 -8.94,-8.867 -8.94,-40.32 l -0.81,-462.059 c 0,-73.3786 -4.04,-96.7614 -24.2,-102.3981 -12.1,-4.0508 -26.6,-4.8516 -33.07,-4.8516 -4.02,0 -6.44,-1.6094 -6.44,-4.832 0,-5.6485 4.83,-6.457 12.91,-6.457 36.28,0 70.3,2.4179 77.61,2.4179 7.31,0 39.65,-2.4179 85.6,-2.4179 9.69,0 14.52,1.6093 14.52,6.457 0,3.2226 -2.42,4.832 -6.44,4.832 -7.27,0 -25.01,0.8008 -40.33,4.8516 -21.78,6.4375 -29.84,27.4101 -31.45,93.5271 l -10.51,386.262 v 0"/>
        <path inkscape:connector-curvature="0" id="path3731" style="fill:#193f34;fill-opacity:1;fill-rule:nonzero;stroke:none" d="m 2848.16,245.141 c 0,-77.422 0,-141.121 -4.02,-174.9808 -3.23,-23.3985 -7.26,-41.1289 -23.4,-44.3711 -7.25,-1.6094 -16.93,-3.2188 -24.19,-3.2188 -4.83,0 -6.45,-2.4219 -6.45,-4.832 0,-4.8477 4.03,-6.457 12.9,-6.457 24.19,0 70.97,2.4179 77.42,2.4179 6.45,0 53.21,-2.4179 92.73,-2.4179 8.87,0 12.91,2.4179 12.91,6.457 0,2.4101 -1.62,4.832 -6.45,4.832 -7.26,0 -20.17,1.6094 -31.45,3.2188 -24.19,3.2422 -29.03,20.9726 -31.45,44.3711 -4.04,33.8598 -4.04,97.5588 -4.04,174.9808 v 79.019 h 4.04 c 38.71,-47.57 209.65,-232.2303 245.94,-262.0819 34.68,-27.4062 54.84,-45.1484 97.57,-49.1875 17.75,-1.6093 33.06,-1.6093 55.65,-1.6093 H 3357 c 13.7,0 17.73,2.4179 17.73,6.457 0,3.2226 -4.84,4.832 -10.49,4.832 -5.63,0 -29.02,1.6094 -49.99,10.4883 -38.71,16.1328 -52.42,29.0195 -120.15,91.9214 -33.06,30.649 -200.78,204.032 -221.75,227.411 16.93,20.16 157.23,157.242 177.4,176.597 36.29,34.676 54.03,54.832 87.09,69.356 16.13,7.246 33.07,11.277 45.16,11.277 6.45,0 8.06,1.613 8.06,5.645 0,4.043 -3.22,5.656 -12.09,5.656 -20.16,0 -73.39,-2.434 -77.41,-2.434 -19.36,0 -44.36,2.434 -60.49,2.434 -5.63,0 -9.67,-1.613 -9.67,-5.656 0,-3.223 3.22,-4.832 7.26,-6.446 6.45,-2.422 10.48,-7.254 10.48,-16.941 0,-13.703 -20.97,-34.668 -43.54,-58.059 C 3075.57,502.375 2929.61,354 2915.9,338.68 h -3.23 v 48.379 c 0,125.804 0,148.382 1.61,174.183 1.62,28.223 8.08,41.934 29.84,45.957 9.68,1.621 14.52,2.422 20.17,2.422 3.22,0 6.44,1.613 6.44,4.836 0,4.852 -4.03,6.465 -12.9,6.465 -24.2,0 -70.96,-2.434 -78.22,-2.434 -4.84,0 -52.42,2.434 -88.7,2.434 -8.88,0 -12.9,-1.613 -12.9,-6.465 0,-3.223 3.23,-4.836 6.45,-4.836 7.26,0 20.97,-0.801 27.41,-2.422 26.62,-5.633 33.06,-18.543 34.67,-45.957 1.62,-25.801 1.62,-48.379 1.62,-174.183 v -141.918 0"/>
        <path inkscape:connector-curvature="0" id="path3733" style="fill:#193f34;fill-opacity:1;fill-rule:evenodd;stroke:none" d="m 3709.57,42.7305 c -90.31,0 -161.27,72.5895 -161.27,173.3905 0,64.488 30.64,108.039 72.57,135.469 22.58,-33.07 74.18,-90.32 95.15,-112.899 20.97,-22.57 100.8,-99.179 145.95,-136.281 -27.41,-28.2303 -77.4,-59.6795 -152.4,-59.6795 z m -28.22,-42.7422188 c 119.34,0 183.05,68.5430188 201.59,87.1015188 88.7,-70.1601 108.06,-75.8085 167.74,-75.8085 h 79.02 c 7.25,0 13.71,2.4179 13.71,5.6484 0,4.832 -4.04,5.6406 -11.29,5.6406 -29.03,0 -70.16,16.1289 -95.97,31.461 -22.57,12.8906 -58.06,34.6679 -111.28,79.8277 35.49,43.551 79.84,124.993 79.84,190.301 0,8.07 -2.42,14.52 -14.52,16.129 -45.16,4.832 -77.4,5.641 -96.76,5.641 -6.46,0 -12.91,-1.602 -12.91,-5.641 0,-4.039 4.85,-5.648 9.69,-5.648 12.09,0 29.02,-2.411 39.5,-12.891 12.1,-12.102 15.32,-27.422 15.32,-39.531 0,-49.18 -18.54,-103.199 -41.12,-133.848 -25.8,21.77 -124.99,114.508 -152.4,144.34 -83.87,91.129 -127.42,143.543 -127.42,206.441 0,75.793 54.04,105.637 102.42,105.637 35.48,0 62.9,-16.934 80.64,-35.488 20.16,-20.969 24.99,-47.571 24.99,-68.535 0,-12.102 0.81,-15.325 4.83,-15.325 3.25,0 5.65,1.614 8.08,13.711 2.4,12.09 5.65,68.536 5.65,92.727 0,9.687 -0.82,14.519 -10.48,20.164 -21.79,12.102 -56.47,20.156 -97.58,20.156 -108.07,0 -173.37,-84.668 -173.37,-148.379 0,-36.289 9.67,-69.343 39.5,-111.269 -62.9,-37.102 -123.37,-100 -123.37,-194.34 0,-70.16 54.83,-178.2227188 195.95,-178.2227188 v 0"/>
        <path inkscape:connector-curvature="0" id="path3735" style="fill:#193f34;fill-opacity:1;fill-rule:nonzero;stroke:none" d="m 4493.85,586.242 101.42,-1.621 c 77.26,-1.609 95.77,-20.156 98.99,-44.344 l 0.81,-8.879 c 0.83,-11.277 2.48,-13.699 6.6,-13.699 3.29,0 5.77,3.223 5.77,10.477 0,8.879 2.47,64.512 2.47,88.703 0,4.832 0,9.676 -4.12,9.676 -6.59,0 -28.43,-8.067 -79.94,-8.067 h -302.17 c -9.66,0 -40.3,1.614 -63.69,4.043 -21.77,1.614 -29.84,9.668 -35.48,9.668 -3.24,0 -6.45,-10.488 -8.06,-15.32 -1.61,-6.445 -17.76,-75.793 -17.76,-83.867 0,-4.836 1.62,-7.258 4.05,-7.258 3.22,0 5.64,1.613 8.05,8.066 2.43,5.645 4.85,11.289 13.72,24.993 12.9,19.363 32.26,25.007 82.25,25.808 l 119.36,1.621 V 245.141 c 0,-77.422 0,-141.121 -4.05,-174.9808 -3.22,-23.3985 -7.25,-41.1289 -23.39,-44.3711 -7.24,-1.6094 -16.93,-3.2188 -24.19,-3.2188 -4.83,0 -6.44,-2.4219 -6.44,-4.832 0,-4.8477 4.03,-6.457 12.91,-6.457 24.18,0 74.98,2.4179 79.01,2.4179 4.04,0 54.85,-2.4179 99.19,-2.4179 8.87,0 12.9,2.4179 12.9,6.457 0,2.4101 -1.62,4.832 -6.45,4.832 -7.26,0 -24.99,1.6094 -36.29,3.2188 -24.19,3.2422 -29.03,20.9726 -31.45,44.3711 -4.02,33.8598 -4.02,97.5588 -4.02,174.9808 v 341.101 0"/>
        <path inkscape:connector-curvature="0" id="path3737" style="fill:#193f34;fill-opacity:1;fill-rule:evenodd;stroke:none" d="m 4871.02,580.598 c 0,4.836 2.42,8.058 6.45,9.668 8.07,2.422 29.84,4.836 54.02,4.836 86.3,0 139.51,-60.481 139.51,-161.27 0,-61.281 -20.97,-104.82 -49.18,-124.184 -18.56,-12.91 -41.13,-15.32 -60.49,-15.32 -35.48,0 -72.57,5.633 -84.67,12.902 -4.03,2.418 -5.64,5.641 -5.64,9.692 z m -64.51,-335.457 c 0,-77.422 0,-141.121 -4.03,-174.9808 -3.22,-23.3985 -7.26,-41.1289 -23.39,-44.3711 -7.26,-1.6094 -16.93,-3.2188 -24.2,-3.2188 -4.83,0 -6.44,-2.4219 -6.44,-4.832 0,-4.8477 4.02,-6.457 12.9,-6.457 24.19,0 74.99,2.4179 75.8,2.4179 4.03,0 54.82,-2.4179 99.19,-2.4179 8.87,0 12.9,2.4179 12.9,6.457 0,2.4101 -1.62,4.832 -6.45,4.832 -7.26,0 -25,1.6094 -36.28,3.2188 -24.2,3.2422 -29.04,20.9726 -31.46,44.3711 -4.03,33.8598 -4.03,97.5588 -4.03,174.9808 V 264.5 c 0,4.02 1.61,6.441 5.64,6.441 l 99.19,-1.613 c 4.84,0 7.26,-1.609 10.49,-4.828 16.12,-20.969 54.02,-75 87.88,-119.359 45.98,-60.4808 74.2,-99.9808 108.88,-118.5316 20.96,-11.2891 41.12,-15.3281 86.28,-15.3281 h 57.24 c 14.52,0 19.36,1.6093 19.36,6.457 0,2.4101 -3.22,4.832 -7.26,4.832 -4.83,0 -16.13,0 -31.45,2.4297 -20.15,3.2305 -54.83,12.0898 -98.37,58.0508 -46.77,50.0002 -101.61,121.7692 -167.74,206.4372 72.59,66.934 97.57,126.598 97.57,186.278 0,55.632 -35.47,95.144 -55.63,109.668 -42.74,30.632 -96.76,35.488 -147.57,35.488 -24.99,0 -86.28,-2.434 -95.16,-2.434 -4.03,0 -54.83,2.434 -91.12,2.434 -8.87,0 -12.89,-1.613 -12.89,-6.465 0,-3.223 3.22,-4.836 6.44,-4.836 7.26,0 20.97,-0.801 27.42,-2.422 26.61,-5.633 33.06,-18.543 34.67,-45.957 1.62,-25.801 1.62,-48.379 1.62,-174.183 v -141.918 0"/>
        <path inkscape:connector-curvature="0" id="path3739" style="fill:#193f34;fill-opacity:1;fill-rule:nonzero;stroke:none" d="m 5286.88,269.328 c 0,-117.726 30.65,-174.1796 70.16,-212.078 57.25,-54.03125 138.7,-57.2617188 166.12,-57.2617188 47.57,0 108.05,8.0703088 166.12,59.6836188 64.51,57.2581 74.18,154.0191 74.18,241.0981 v 86.289 c 0,125.804 0,148.382 1.61,174.183 1.61,28.223 8.08,41.934 29.83,45.957 9.68,2.422 14.53,2.422 20.16,2.422 3.24,0 6.47,1.613 6.47,4.836 0,4.852 -4.05,6.465 -12.91,6.465 -24.19,0 -62.09,-2.434 -67.74,-2.434 -4.83,0 -49.19,2.434 -85.48,2.434 -8.86,0 -12.89,-1.613 -12.89,-6.465 0,-3.223 3.22,-4.836 6.45,-4.836 7.25,0 20.96,-0.801 27.41,-2.422 26.61,-5.633 33.06,-18.543 34.68,-45.957 1.6,-25.801 1.6,-48.379 1.6,-174.183 V 286.262 c 0,-83.051 -9.67,-151.614 -46.76,-197.5628 -29.03,-34.6679 -77.41,-58.0586 -126.61,-58.0586 -45.96,0 -82.26,7.25 -121.76,44.3477 -34.68,33.0627 -60.48,83.0627 -60.48,199.1717 v 112.899 c 0,125.804 0,148.382 1.61,174.183 1.62,28.223 8.06,42.735 29.84,45.957 9.68,1.621 14.52,2.422 20.15,2.422 3.23,0 6.47,1.613 6.47,4.836 0,4.852 -4.04,6.465 -12.91,6.465 -24.19,0 -72.57,-2.434 -79.83,-2.434 -7.26,0 -56.45,2.434 -92.74,2.434 -8.87,0 -12.9,-1.613 -12.9,-6.465 0,-3.223 3.22,-4.836 6.46,-4.836 7.25,0 20.96,-0.801 27.41,-2.422 26.61,-5.633 33.05,-18.543 34.68,-45.957 1.6,-25.801 1.6,-48.379 1.6,-174.183 v -117.731 0"/>
        <path inkscape:connector-curvature="0" id="path3741" style="fill:#193f34;fill-opacity:1;fill-rule:nonzero;stroke:none" d="m 5940.76,-0.0117188 c 43.55,0 87.09,9.6835988 121.76,33.8711188 55.65,39.5195 68.54,100.7886 68.54,133.8596 0,64.511 -22.57,114.5 -117.73,189.5 l -22.58,17.742 c -75.79,62.094 -98.38,89.516 -98.38,135.473 0,58.867 43.56,93.543 99.19,93.543 74.19,0 95.95,-33.868 100.81,-42.735 4.83,-8.867 9.66,-30.644 10.48,-40.32 0.79,-6.445 1.6,-10.488 6.45,-10.488 4.03,0 5.64,5.652 5.64,18.554 0,54.832 3.23,81.446 3.23,85.469 0,4.031 -1.62,5.645 -8.08,5.645 -6.45,0 -12.89,0.82 -28.21,4.043 -20.17,4.832 -43.55,8.054 -74.99,8.054 -102.42,0 -166.93,-58.867 -166.93,-145.144 0,-54.836 19.36,-104.836 104.84,-174.996 l 36.29,-29.84 c 69.34,-57.25 92.72,-89.5 92.72,-145.141 0,-51.6092 -37.9,-107.2382 -115.3,-107.2382 -54.04,0 -107.27,22.5821 -119.36,82.2302 -2.41,11.301 -2.41,22.578 -2.41,29.852 0,6.449 -0.82,8.859 -5.64,8.859 -4.05,0 -5.66,-4.031 -6.46,-12.89 -0.81,-12.911 -4.03,-45.1527 -4.03,-85.4691 0,-21.7813 0.81,-25 12.09,-30.6602 33.06,-16.11326 70.16,-21.7734188 108.06,-21.7734188 v 0"/>
        <path inkscape:connector-curvature="0" id="path3743" style="fill:#193f34;fill-opacity:1;fill-rule:nonzero;stroke:none" d="m 6442.88,586.242 101.41,-1.621 c 77.27,-1.609 95.78,-20.156 99,-44.344 l 0.81,-8.879 c 0.83,-11.277 2.48,-13.699 6.6,-13.699 3.3,0 5.78,3.223 5.78,10.477 0,8.879 2.47,64.512 2.47,88.703 0,4.832 0,9.676 -4.12,9.676 -6.6,0 -28.44,-8.067 -79.95,-8.067 h -302.15 c -9.68,0 -40.32,1.614 -63.7,4.043 -21.77,1.614 -29.85,9.668 -35.48,9.668 -3.24,0 -6.46,-10.488 -8.07,-15.32 -1.61,-6.445 -17.74,-75.793 -17.74,-83.867 0,-4.836 1.61,-7.258 4.03,-7.258 3.22,0 5.64,1.613 8.07,8.066 2.42,5.645 4.83,11.289 13.71,24.993 12.9,19.363 32.25,25.007 82.24,25.808 l 119.36,1.621 V 245.141 c 0,-77.422 0,-141.121 -4.04,-174.9808 -3.23,-23.3985 -7.26,-41.1289 -23.39,-44.3711 -7.25,-1.6094 -16.94,-3.2188 -24.19,-3.2188 -4.84,0 -6.45,-2.4219 -6.45,-4.832 0,-4.8477 4.04,-6.457 12.91,-6.457 24.19,0 74.98,2.4179 79.02,2.4179 4.03,0 54.84,-2.4179 99.19,-2.4179 8.86,0 12.9,2.4179 12.9,6.457 0,2.4101 -1.63,4.832 -6.46,4.832 -7.26,0 -24.99,1.6094 -36.29,3.2188 -24.19,3.2422 -29.02,20.9726 -31.44,44.3711 -4.03,33.8598 -4.03,97.5588 -4.03,174.9808 v 341.101 0"/>
        <path inkscape:connector-curvature="0" id="path3745" style="fill:#193f34;fill-opacity:1;fill-rule:nonzero;stroke:none" d="m 1207.9,996.316 c 0,-79.394 0,-144.714 -4.13,-179.437 -3.3,-23.984 -7.45,-42.18 -23.99,-45.488 -7.44,-1.653 -17.36,-3.301 -24.8,-3.301 -4.96,0 -6.61,-2.492 -6.61,-4.961 0,-4.973 4.12,-6.633 13.21,-6.633 24.81,0 76.91,2.492 81.05,2.492 4.14,0 56.22,-2.492 101.71,-2.492 9.1,0 13.23,2.492 13.23,6.633 0,2.469 -1.66,4.961 -6.62,4.961 -7.44,0 -25.62,1.648 -37.21,3.301 -24.8,3.308 -29.76,21.504 -32.25,45.488 -4.13,34.723 -4.13,100.043 -4.13,179.437 v 70.274 c 0,5.8 1.66,7.45 5.79,7.45 14.05,0 104.2,0 124.86,-2.47 25.64,-3.32 38.87,-18.2 43,-29.78 3.31,-9.92 4.14,-21.5 4.96,-29.77 0,-4.14 1.65,-7.44 5.79,-7.44 5.8,0 5.8,8.28 5.8,15.71 0,5.79 1.65,38.87 3.3,55.4 2.47,27.3 6.61,41.35 6.61,46.31 0,4.14 -0.82,6.62 -4.14,6.62 -3.3,0 -5.77,-4.14 -9.08,-8.28 -7.45,-10.74 -18.2,-13.22 -38.05,-14.87 -11.57,-0.83 -23.15,-0.83 -37.2,-0.83 l -105.85,-0.82 c -4.96,0 -5.79,2.47 -5.79,7.43 v 228.23 c 0,6.62 2.48,9.09 7.44,9.09 l 127.35,-2.47 c 32.25,-0.83 51.26,-15.72 56.23,-26.47 4.95,-10.75 7.44,-24.8 7.44,-31.42 0,-5.79 1.65,-9.92 5.79,-9.92 4.14,0 5.79,4.96 6.61,9.1 1.65,9.92 3.31,46.31 4.14,54.57 2.48,23.16 6.61,33.07 6.61,38.87 0,4.14 -1.65,7.44 -4.95,7.44 -3.31,0 -6.62,-3.3 -11.59,-4.96 -7.43,-2.48 -20.67,-2.48 -36.38,-3.3 -19.02,-0.84 -186.88,-0.84 -203.42,-0.84 -4.14,0 -56.24,2.49 -93.45,2.49 -9.1,0 -13.22,-1.65 -13.22,-6.63 0,-3.3 3.3,-4.95 6.61,-4.95 7.45,0 21.5,-0.82 28.12,-2.49 27.29,-5.78 33.9,-19.02 35.55,-47.12 1.66,-26.47 1.66,-49.62 1.66,-178.63 v -145.524 0"/>
        <path inkscape:connector-curvature="0" id="path3747" style="fill:#193f34;fill-opacity:1;fill-rule:nonzero;stroke:none" d="m 1692.17,1141.84 c 0,129.01 0,152.16 1.67,178.63 1.65,28.94 8.27,42.99 30.59,47.12 9.93,1.67 14.88,2.49 20.67,2.49 3.31,0 6.62,1.65 6.62,4.95 0,4.98 -4.14,6.63 -13.24,6.63 -24.81,0 -76.89,-2.49 -81.03,-2.49 -4.14,0 -56.24,2.49 -83.51,2.49 -9.1,0 -13.24,-1.65 -13.24,-6.63 0,-3.3 3.31,-4.95 6.61,-4.95 5.79,0 16.54,-0.82 25.64,-3.31 18.19,-4.13 26.46,-18.2 28.11,-46.3 1.65,-26.47 1.65,-49.62 1.65,-178.63 V 996.316 c 0,-79.394 0,-144.714 -4.12,-179.437 -3.31,-23.984 -7.45,-42.18 -23.99,-45.488 -7.45,-1.653 -17.36,-3.301 -24.8,-3.301 -4.96,0 -6.61,-2.492 -6.61,-4.961 0,-4.973 4.12,-6.633 13.22,-6.633 24.8,0 76.9,2.492 81.04,2.492 4.14,0 56.22,-2.492 101.71,-2.492 9.1,0 13.22,2.492 13.22,6.633 0,2.469 -1.65,4.961 -6.61,4.961 -7.44,0 -25.62,1.648 -37.2,3.301 -24.81,3.308 -29.77,21.504 -32.25,45.488 -4.15,34.723 -4.15,100.043 -4.15,179.437 v 145.524 0"/>
        <path inkscape:connector-curvature="0" id="path3749" style="fill:#193f34;fill-opacity:1;fill-rule:nonzero;stroke:none" d="m 2898.48,1346.1 104,-1.66 c 79.24,-1.65 98.22,-20.67 101.52,-45.48 l 0.84,-9.09 c 0.84,-11.58 2.53,-14.06 6.76,-14.06 3.38,0 5.92,3.3 5.92,10.75 0,9.1 2.53,66.15 2.53,90.96 0,4.96 0,9.92 -4.23,9.92 -3.38,0 -10.98,-1.65 -23.38,-4.13 -13.2,-1.65 -32.18,-4.14 -58.6,-4.14 h -309.85 c -9.92,0 -41.34,1.66 -65.32,4.14 -22.32,1.66 -30.6,9.92 -36.38,9.92 -3.31,0 -6.62,-10.75 -8.27,-15.71 -1.66,-6.61 -18.2,-77.72 -18.2,-86 0,-4.96 1.66,-7.45 4.14,-7.45 3.31,0 5.79,1.66 8.26,8.28 2.49,5.78 4.98,11.57 14.07,25.63 13.22,19.84 33.07,25.64 84.34,26.46 l 122.39,1.66 V 996.316 c 0,-79.394 0,-144.714 -4.14,-179.437 -3.3,-23.984 -7.44,-42.18 -23.98,-45.488 -7.44,-1.653 -17.36,-3.301 -24.81,-3.301 -4.96,0 -6.61,-2.492 -6.61,-4.961 0,-4.973 4.14,-6.633 13.24,-6.633 24.8,0 76.89,2.492 81.03,2.492 4.14,0 56.18,-2.492 101.58,-2.492 9.09,0 13.21,2.492 13.21,6.633 0,2.469 -1.65,4.961 -6.59,4.961 -7.44,0 -25.6,1.648 -37.15,3.301 -24.77,3.308 -29.72,21.504 -32.19,45.488 -4.13,34.723 -4.13,100.043 -4.13,179.437 v 349.784 0"/>
        <path inkscape:connector-curvature="0" id="path3751" style="fill:#193f34;fill-opacity:1;fill-rule:nonzero;stroke:none" d="m 3365.3,987.961 c 0,-79.387 0,-144.715 -4.12,-179.441 -3.31,-23.985 -7.45,-42.18 -23.99,-45.481 -7.44,-1.66 -17.36,-3.309 -24.81,-3.309 -4.96,0 -6.61,-2.492 -6.61,-4.96 0,-4.973 4.13,-6.622 13.23,-6.622 24.8,0 76.9,2.489 81.04,2.489 4.14,0 56.22,-2.489 101.71,-2.489 9.1,0 13.22,2.489 13.22,6.622 0,2.468 -1.65,4.96 -6.61,4.96 -7.44,0 -25.62,1.649 -37.21,3.309 -24.8,3.301 -29.76,21.496 -32.25,45.481 -4.13,34.726 -4.13,100.054 -4.13,179.441 v 70.279 c 0,5.79 1.66,7.45 5.79,7.45 14.05,0 104.19,0 124.86,-2.48 25.64,-3.32 38.86,-18.19 43,-29.77 3.31,-9.92 4.14,-21.51 4.96,-29.77 0,-4.139 1.65,-7.447 5.79,-7.447 5.79,0 5.79,8.277 5.79,15.707 0,5.8 1.65,38.88 3.31,55.41 2.47,27.29 6.61,41.34 6.61,46.3 0,4.15 -0.82,6.63 -4.14,6.63 -3.31,0 -5.78,-4.14 -9.08,-8.27 -7.45,-10.76 -18.19,-13.23 -38.04,-14.88 -11.59,-0.84 -23.16,-0.84 -37.21,-0.84 l -105.85,-0.82 c -4.96,0 -5.79,2.48 -5.79,7.43 v 228.24 c 0,6.62 2.48,9.09 7.44,9.09 l 127.35,-2.47 c 32.25,-0.83 51.26,-15.72 56.22,-26.47 4.96,-10.75 7.45,-24.81 7.45,-31.42 0,-5.79 1.65,-9.91 5.79,-9.91 4.14,0 5.79,4.95 6.62,9.09 1.65,9.92 3.3,46.3 4.13,54.57 2.48,23.16 6.61,33.07 6.61,38.86 0,4.14 -1.65,7.45 -4.96,7.45 -3.3,0 -6.61,-3.31 -11.57,-4.96 -7.45,-2.49 -20.68,-2.49 -36.38,-3.31 -19.03,-0.83 -186.89,-0.83 -203.43,-0.83 -4.14,0 -56.24,2.48 -93.45,2.48 -9.09,0 -13.22,-1.65 -13.22,-6.62 0,-3.31 3.31,-4.96 6.61,-4.96 7.44,0 21.5,-0.82 28.11,-2.48 27.3,-5.78 33.91,-19.02 35.56,-47.13 1.65,-26.46 1.65,-49.61 1.65,-178.62 v -145.529 0"/>
        <path inkscape:connector-curvature="0" id="path3753" style="fill:#193f34;fill-opacity:1;fill-rule:evenodd;stroke:none" d="m 3792.78,1021.86 c -2.49,0 -4.15,1.66 -2.49,5.8 l 72.78,223.25 c 4.13,12.41 8.26,12.41 12.4,0 l 78.55,-223.25 c 0.83,-3.32 0.83,-5.8 -3.31,-5.8 z M 3677,839.105 c -14.88,-41.328 -31.41,-72.765 -69.45,-77.726 -6.61,-0.828 -18.2,-1.649 -23.99,-1.649 -4.12,0 -7.44,-1.652 -7.44,-4.96 0,-4.973 4.97,-6.622 15.72,-6.622 38.86,0 84.33,2.489 93.44,2.489 9.09,0 44.64,-2.489 64.5,-2.489 7.44,0 12.4,1.649 12.4,6.622 0,3.308 -2.48,4.96 -8.27,4.96 h -8.27 c -14.07,0 -31.42,7.442 -31.42,23.973 0,14.895 4.13,34.738 11.58,55.402 l 49.61,146.372 c 1.65,4.136 4.13,6.621 8.27,6.621 h 177.78 c 4.14,0 5.79,-1.664 7.45,-4.969 l 76.9,-203.426 c 4.96,-13.223 0,-20.664 -4.96,-22.324 -3.31,-0.828 -5.79,-2.481 -5.79,-5.789 0,-4.953 9.1,-4.953 24.81,-5.793 57.06,-1.649 117.42,-1.649 129.82,-1.649 9.1,0 16.54,1.649 16.54,6.622 0,4.128 -3.3,4.96 -8.26,4.96 -8.28,0 -20.68,0.821 -33.09,4.961 -17.36,4.961 -41.34,18.192 -71.11,91.793 -50.45,125.684 -180.27,467.196 -192.67,498.626 -9.92,25.62 -13.23,29.77 -18.2,29.77 -4.96,0 -8.26,-4.96 -18.18,-32.25 L 3677,839.105 v 0"/>
        <path inkscape:connector-curvature="0" id="path3755" style="fill:#193f34;fill-opacity:1;fill-rule:evenodd;stroke:none" d="m 4282.95,1331.96 c 0,4.96 2.48,8.26 6.62,9.92 8.26,2.48 30.59,4.96 55.39,4.96 88.49,0 143.06,-62.02 143.06,-165.39 0,-62.83 -21.49,-107.49 -50.43,-127.34 -19.02,-13.23 -42.18,-15.7 -62.03,-15.7 -36.38,0 -74.42,5.77 -86.82,13.22 -4.14,2.48 -5.79,5.79 -5.79,9.93 z m -66.16,-343.999 c 0,-79.387 0,-144.715 -4.12,-179.441 -3.31,-23.985 -7.44,-42.18 -23.99,-45.481 -7.45,-1.66 -17.36,-3.309 -24.8,-3.309 -4.96,0 -6.62,-2.492 -6.62,-4.96 0,-4.973 4.13,-6.622 13.23,-6.622 24.8,0 76.9,2.489 77.73,2.489 4.13,0 56.23,-2.489 101.71,-2.489 9.11,0 13.23,2.489 13.23,6.622 0,2.468 -1.65,4.96 -6.62,4.96 -7.44,0 -25.63,1.649 -37.2,3.309 -24.81,3.301 -29.77,21.496 -32.26,45.481 -4.13,34.726 -4.13,100.054 -4.13,179.441 v 19.849 c 0,4.12 1.65,6.61 5.79,6.61 l 101.71,-1.65 c 4.96,0 7.44,-1.66 10.75,-4.96 16.55,-21.501 55.4,-76.908 90.13,-122.392 47.14,-62.016 76.08,-102.535 111.64,-121.547 21.5,-11.582 42.17,-15.723 88.48,-15.723 h 58.71 c 14.89,0 19.84,1.649 19.84,6.622 0,2.468 -3.3,4.96 -7.44,4.96 -4.96,0 -16.54,0 -32.25,2.489 -20.67,3.301 -56.23,12.402 -100.88,59.523 -47.96,51.27 -104.19,124.867 -172.01,211.698 74.44,68.63 100.06,129.82 100.06,191.02 0,57.05 -36.37,97.57 -57.05,112.46 -43.83,31.41 -99.23,36.38 -151.33,36.38 -25.62,0 -88.47,-2.48 -97.56,-2.48 -4.15,0 -56.25,2.48 -93.45,2.48 -9.1,0 -13.23,-1.65 -13.23,-6.62 0,-3.31 3.31,-4.96 6.61,-4.96 7.45,0 21.5,-0.82 28.11,-2.48 27.3,-5.78 33.91,-19.02 35.56,-47.13 1.65,-26.46 1.65,-49.61 1.65,-178.62 v -145.529 0"/>
        <path inkscape:connector-curvature="0" id="path3757" style="fill:#193f34;fill-opacity:1;fill-rule:nonzero;stroke:none" d="m 5310.32,1362.56 c -1.65,15.71 -4.12,22.32 -9.91,22.32 -5.79,0 -9.1,-5.79 -12.41,-13.23 L 5044.88,852.348 4791.85,1372.47 c -4.12,9.1 -7.44,12.41 -12.4,12.41 -4.96,0 -7.45,-5.79 -9.1,-14.89 l -59.53,-539.146 c -3.31,-31.418 -5.79,-63.672 -33.08,-68.625 -12.41,-2.489 -18.2,-2.489 -24.81,-2.489 -4.14,0 -8.26,-1.652 -8.26,-4.14 0,-5.793 5.79,-7.442 14.05,-7.442 22.32,0 62.01,2.489 69.47,2.489 6.61,0 46.3,-2.489 76.9,-2.489 9.91,0 14.87,1.649 14.87,7.442 0,2.488 -3.3,4.14 -6.61,4.14 -4.96,0 -17.36,0.821 -31.41,4.141 -12.41,2.469 -21.51,13.223 -21.51,25.625 0,14.051 0,28.945 0.82,42.176 l 33.09,383.688 h 3.3 c 9.1,-22.32 101.72,-220.786 109.16,-235.672 4.13,-8.27 75.23,-151.325 96.74,-191.844 15.72,-29.766 19.85,-38.047 25.64,-38.047 7.44,0 9.91,7.441 27.29,43.84 l 202.59,430.003 h 2.48 l 39.69,-426.702 c 1.65,-14.883 0.83,-28.946 -3.31,-29.766 -4.12,-0.832 -5.79,-2.481 -5.79,-5.793 0,-4.141 4.14,-6.609 23.16,-8.262 30.59,-2.48 119.91,-4.969 138.1,-4.969 9.91,0 17.35,2.489 17.35,7.442 0,3.308 -2.47,4.14 -6.61,4.14 -8.26,0 -29.76,0 -53.75,7.442 -35.55,11.57 -41.34,57.879 -44.65,87.66 l -55.41,507.728 v 0"/>
        <path inkscape:connector-curvature="0" id="path3759" style="fill:#193f34;fill-opacity:1;fill-rule:nonzero;stroke:none" d="m 5519.16,987.961 c 0,-79.387 0,-144.715 -4.12,-179.441 -3.31,-23.985 -7.45,-42.18 -23.99,-45.481 -7.44,-1.66 -17.36,-3.309 -24.81,-3.309 -4.96,0 -6.61,-2.492 -6.61,-4.96 0,-4.973 4.13,-6.622 13.22,-6.622 24.81,0 76.91,2.489 81.05,2.489 23.97,0 79.38,-4.961 204.25,-4.961 32.24,0 38.86,0 44.64,21.496 4.15,17.363 10.76,73.594 10.76,80.215 0,5.781 0,12.402 -4.96,12.402 -4.14,0 -5.8,-3.305 -7.45,-12.402 -5.79,-33.907 -15.71,-50.449 -37.2,-59.543 -21.51,-9.102 -57.88,-9.102 -79.39,-9.102 -81.04,0 -93.44,10.754 -95.93,67.813 -0.82,17.359 0,113.293 0,141.406 v 72.769 c 0,3.3 1.67,5.79 5.8,5.79 14.05,0 95.91,-1.65 118.25,-4.14 32.25,-3.31 39.7,-17.36 43,-28.94 3.31,-10.76 3.31,-19.02 3.31,-27.28 0,-4.14 1.65,-7.449 5.79,-7.449 5.78,0 5.78,9.099 5.78,15.709 0,5.79 1.65,36.39 3.3,52.92 2.49,27.29 6.62,41.34 6.62,46.3 0,4.98 -1.65,6.63 -4.13,6.63 -3.31,0 -6.61,-4.14 -12.4,-10.75 -7.45,-8.28 -19.02,-9.93 -38.87,-11.58 -19.01,-1.66 -120.72,-1.66 -131.47,-1.66 -4.15,0 -4.98,2.49 -4.98,8.27 v 228.23 c 0,5.79 1.67,8.27 4.98,8.27 9.09,0 99.21,-0.83 113.28,-2.48 44.65,-4.96 52.92,-14.89 58.71,-28.11 4.14,-9.93 4.96,-23.99 4.96,-29.77 0,-6.62 1.65,-10.74 6.62,-10.74 3.3,0 4.96,4.95 5.78,9.09 1.65,9.92 3.32,46.3 4.14,54.57 2.48,23.16 6.6,33.07 6.6,38.86 0,4.14 -0.81,7.45 -3.3,7.45 -4.12,0 -7.44,-3.31 -11.57,-4.14 -6.62,-1.65 -19.84,-3.31 -35.56,-4.13 -19.02,-0.83 -183.57,-0.83 -189.36,-0.83 -4.14,0 -56.24,2.48 -93.45,2.48 -9.1,0 -13.22,-1.65 -13.22,-6.62 0,-3.31 3.31,-4.96 6.61,-4.96 7.44,0 21.5,-0.82 28.11,-2.48 27.3,-5.78 33.91,-19.02 35.56,-47.13 1.65,-26.46 1.65,-49.61 1.65,-178.62 v -145.529 0"/>
        <path inkscape:connector-curvature="0" id="path3761" style="fill:#193f34;fill-opacity:1;fill-rule:evenodd;stroke:none" d="m 5986.9,1332.39 c 0,4.95 2.49,8.26 6.63,9.91 8.26,2.49 30.58,4.97 55.39,4.97 88.48,0 143.05,-62.02 143.05,-165.39 0,-62.83 -21.5,-107.49 -50.43,-127.34 -19.03,-13.23 -42.18,-15.7 -62.03,-15.7 -36.37,0 -74.42,5.77 -86.82,13.21 -4.13,2.49 -5.79,5.8 -5.79,9.94 z m 350.14,-514.312 c -47.96,51.266 -107.86,128.961 -175.66,215.792 74.43,68.63 100.06,129.82 100.06,191.01 0,57.06 -36.38,97.57 -57.06,112.46 -43.82,31.42 -99.23,36.39 -151.32,36.39 -25.64,0 -88.48,-2.48 -97.58,-2.48 -4.13,0 -56.23,2.48 -93.45,2.48 -9.09,0 -13.22,-1.65 -13.22,-6.62 0,-3.31 3.31,-4.96 6.61,-4.96 7.45,0 21.51,-0.82 28.12,-2.48 27.29,-5.78 33.89,-19.02 35.55,-47.13 1.65,-26.46 1.65,-49.62 1.65,-178.62 V 988.387 c 0,-79.391 0,-144.711 -4.12,-179.438 -3.31,-23.984 -7.45,-42.179 -23.99,-45.488 -7.44,-1.652 -17.35,-3.301 -24.81,-3.301 -4.95,0 -6.61,-2.492 -6.61,-4.961 0,-4.972 4.13,-6.621 13.23,-6.621 24.81,0 76.91,2.481 77.74,2.481 4.12,0 56.22,-2.481 101.71,-2.481 9.1,0 13.22,2.481 13.22,6.621 0,2.469 -1.65,4.961 -6.61,4.961 -7.44,0 -25.64,1.649 -37.21,3.301 -24.81,3.309 -29.76,21.504 -32.25,45.488 -4.14,34.727 -4.14,100.047 -4.14,179.438 v 19.843 c 0,4.13 1.66,6.62 5.79,6.62 l 101.72,-1.65 c 4.95,0 7.44,-1.66 10.74,-4.97 16.55,-21.492 55.41,-76.898 90.14,-122.386 47.13,-62.012 87.98,-109.446 123.54,-128.457 21.66,-13 63.19,-29.602 111.67,-31.543 44.62,-1.789 114.29,12.703 149.55,37.918 51.41,36.75 76.23,87.301 78.7,135.777 3.37,66.07 -35.91,126.151 -147.82,203.781 l -23.15,18.2 c -77.73,63.67 -100.88,91.79 -100.88,138.92 0,60.36 44.64,95.92 101.71,95.92 76.07,0 98.39,-34.73 103.36,-43.82 4.97,-9.1 9.92,-31.42 10.75,-41.35 0.82,-6.61 1.66,-10.75 6.61,-10.75 4.14,0 5.8,5.79 5.8,19.02 0,56.23 3.3,83.53 3.3,87.65 0,4.14 -1.65,5.79 -8.28,5.79 -6.61,0 -13.21,0.83 -28.93,4.14 -20.68,4.96 -44.66,8.26 -76.9,8.26 -105.02,0 -171.17,-60.36 -171.17,-148.83 0,-56.24 19.84,-107.51 107.5,-179.45 l 37.2,-30.6 c 71.12,-58.713 121.97,-95.381 120.73,-151.846 -1.18,-53.75 -74.78,-108.711 -141.39,-106.035 -40.67,1.629 -91.16,14.051 -120.15,49.539 v 0"/>
        <path inkscape:connector-curvature="0" id="path3763" style="fill:#193f34;fill-opacity:1;fill-rule:evenodd;stroke:none" d="m 1933.97,1340.31 c 0,4.96 2.49,8.26 6.63,9.92 8.26,2.48 30.58,4.96 55.39,4.96 88.49,0 143.06,-62.02 143.06,-165.38 0,-62.84 -21.5,-107.49 -50.44,-127.34 -19.02,-13.24 -42.18,-15.71 -62.03,-15.71 -36.37,0 -74.41,5.78 -86.82,13.22 -4.14,2.49 -5.79,5.79 -5.79,9.93 z m 350.14,-514.302 c -47.96,51.262 -107.85,128.957 -175.66,215.782 74.43,68.64 100.06,129.82 100.06,191.02 0,57.06 -36.38,97.57 -57.06,112.46 -43.82,31.42 -99.23,36.39 -151.33,36.39 -25.62,0 -88.47,-2.49 -97.57,-2.49 -4.14,0 -56.23,2.49 -93.44,2.49 -9.1,0 -13.23,-1.65 -13.23,-6.63 0,-3.3 3.31,-4.95 6.62,-4.95 7.44,0 21.5,-0.82 28.11,-2.49 27.29,-5.78 33.9,-19.02 35.55,-47.12 1.65,-26.47 1.65,-49.62 1.65,-178.63 V 996.316 c 0,-79.394 0,-144.714 -4.12,-179.437 -3.31,-23.984 -7.44,-42.18 -23.99,-45.488 -7.44,-1.653 -17.35,-3.301 -24.8,-3.301 -4.96,0 -6.61,-2.492 -6.61,-4.961 0,-4.973 4.12,-6.633 13.22,-6.633 24.81,0 76.9,2.492 77.73,2.492 4.13,0 56.23,-2.492 101.72,-2.492 9.1,0 13.22,2.492 13.22,6.633 0,2.469 -1.65,4.961 -6.61,4.961 -7.45,0 -25.64,1.648 -37.21,3.301 -24.81,3.308 -29.76,21.504 -32.25,45.488 -4.14,34.723 -4.14,100.043 -4.14,179.437 v 19.844 c 0,4.13 1.65,6.62 5.79,6.62 l 101.72,-1.66 c 4.95,0 7.44,-1.66 10.74,-4.96 16.55,-21.5 55.41,-76.902 90.14,-122.39 47.13,-62.02 87.99,-109.442 123.54,-128.454 21.66,-13 63.19,-29.601 111.67,-31.543 44.62,-1.796 114.28,12.696 149.56,37.911 51.4,36.757 76.22,87.304 78.69,135.781 3.37,66.066 -35.91,126.145 -147.83,203.785 l -23.14,18.19 c -77.73,63.67 -100.88,91.8 -100.88,138.92 0,60.36 44.65,95.93 101.71,95.93 76.07,0 98.39,-34.73 103.36,-43.82 4.96,-9.1 9.92,-31.42 10.75,-41.36 0.82,-6.61 1.65,-10.75 6.61,-10.75 4.14,0 5.79,5.79 5.79,19.03 0,56.23 3.31,83.52 3.31,87.64 0,4.14 -1.66,5.8 -8.28,5.8 -6.61,0 -13.22,0.83 -28.93,4.14 -20.68,4.96 -44.66,8.26 -76.91,8.26 -105.01,0 -171.16,-60.36 -171.16,-148.84 0,-56.23 19.85,-107.5 107.5,-179.44 l 37.21,-30.61 c 71.11,-58.707 121.96,-95.375 120.72,-151.844 -1.17,-53.754 -74.78,-108.703 -141.4,-106.027 -40.66,1.629 -91.15,14.051 -120.14,49.539 v 0"/>
        <path inkscape:connector-curvature="0" id="path3765" style="fill:#193f34;fill-opacity:1;fill-rule:nonzero;stroke:none" d="M 0,0.691406 C 0,116.57 0,233.5 0,349.609 c 23.8047,0 46.7852,-0.39 69.7422,0.11 24.1641,0.531 48.4958,0.332 72.4298,3.203 66.281,7.957 101.519,46.621 104.539,115.976 1.84,42.129 0.332,84.415 0.332,126.633 0.004,66.934 0.344,133.867 -0.238,200.801 -0.129,14.266 -2.539,28.738 -5.715,42.703 -10.449,45.988 -35.176,66.699 -82.774,67.207 -34.964,0.371 -69.9566,-2.25 -104.9449,-3.269 -45.98829,-1.344 -46.77344,-1.243 -47.35938,44.261 -0.875,67.946 -0.30078,135.916 -0.90625,203.876 -0.09766,10.93 3.91406,13.84 14.13283,14.56 44.8984,3.15 88.7267,11.98 130.7417,28.38 85.586,33.4 140.79,94.37 163.723,183.54 2.985,11.6 7.274,15.68 19.457,15.64 135.508,-0.42 271.02,-0.41 406.535,-0.03 12.539,0.03 16.66,-3.22 16.641,-16.34 -0.387,-235.48 -0.09,-470.95 -0.422,-706.419 -0.078,-55.066 -2.652,-110.125 -2.57,-165.183 0.027,-20.949 2.738,-42.207 6.906,-62.785 12.766,-62.961 54.055,-98.633 120,-102.121 43.633,-2.313 87.445,-1.614 131.18,-1.43 11.96,0.047 16.01,-3.402 15.96,-15.723 -0.42,-102.527 -0.23,-205.07 -0.29,-307.5974 0,-4.4805 -0.7,-8.96097 -1.2,-14.910194 -5.93,0 -10.96,0 -16,0 -122.111,0 -387.002,-1.5625 -395.705,0 5.309,31.089894 25.438,57.609394 42.11,79.277394 19.765,25.6912 40.445,50.7932 58.539,77.6212 30.207,44.808 47.203,94.289 38.804,148.879 -3.707,24.07 -12.074,47.761 -20.847,70.66 -14.93,38.949 -31.399,77.258 -31.043,124.496 -7.914,-5.91 -12.973,-9.68 -20.235,-15.098 0,16.668 0,32.489 0,48.309 -1.613,0.684 -3.23,1.367 -4.847,2.043 -4.391,-4.914 -9.922,-9.199 -12.985,-14.836 -23.058,-42.422 -44.812,-85.574 -68.558,-127.605 -33.496,-59.297 -35.348,-122.329 -26.035,-187.407 5.898,-41.242 11.125,-82.601 15.343,-124.0505 1.981,-19.5117 0.911,-39.3399 -20.168,-55.5391 -5.093,12.4102 -11.707,22.9805 -13.64,34.3477 -4.379,25.789 -9.434,52.0309 -8.871,77.9809 1.394,64.289 5.023,128.558 9.176,192.75 4.41,68.156 29.226,130.832 52.457,194.269 20.269,55.344 38.316,112.031 50.89,169.531 18.578,84.961 3.106,167.938 -28.668,247.883 -12.906,32.477 -27.773,64.187 -42.133,96.067 -30.625,68.02 -58.105,136.66 -45.718,215.64 -28.727,-7.55 -29.254,-33.02 -37.907,-53.73 -15.41,24.24 -8.168,58.03 -38.644,78.33 0,-28.75 1.441,-53.86 -0.285,-78.75 -4.219,-60.77 -26.086,-116.95 -46.149,-173.77 -17.058,-48.338 -35.664,-97.146 -44,-147.338 -20.722,-124.781 2.715,-243.629 61.574,-355.55 25.848,-49.161 55.047,-97.59 62.008,-153.704 5.106,-41.16 5.481,-83.128 5.121,-124.707 C 499,191.629 496.297,136.578 493.406,81.582 492.148,57.7188 485.504,35.0703 467.637,17.6406 c -18.625,7.6602 -25.449,21.4688 -22.004,45.8282 4.105,29.0312 9.109,57.9412 13.39,86.9532 8.352,56.5 18.922,112.859 13.946,170.418 -5.489,63.441 -22.531,123.246 -57.43,177.199 -1.676,2.598 -3.301,5.234 -5.101,7.734 -26.485,36.848 -50.04,74.786 -44.821,123.692 -1.57,0.578 -3.148,1.144 -4.722,1.719 -6.528,-7.852 -13.055,-15.711 -19.883,-23.926 -6.387,12.98 -12.5,25.41 -19.926,40.519 -16.207,-77.179 -36.852,-149.648 -45.66,-223.535 -13.012,-109.164 21.344,-208.383 82.996,-298.371 12.219,-17.832 26.687,-34.2421 37.726,-52.7304 7.407,-12.4101 13.032,-26.9922 15.071,-41.2304 1.074,-7.5313 0,-31.218794 0,-31.218794 0,0 -280.992,-0.121093 -407.219,0 -0.93359,0 -1.85937,-0.769531 -4,0"/>
      </g>
    </g>
  </g>
</svg>