<?xml version="1.0" standalone="no"?>
<!DOCTYPE svg PUBLIC "-//W3C//DTD SVG 1.1//EN" "http://www.w3.org/Graphics/SVG/1.1/DTD/svg11.dtd">
<svg xmlns="http://www.w3.org/2000/svg" xmlns:cc="http://creativecommons.org/ns#" xmlns:dc="http://purl.org/dc/elements/1.1/" xmlns:rdf="http://www.w3.org/1999/02/22-rdf-syntax-ns#" width="106" height="42" version="1.1" viewBox="0 0 106 42">
 <!-- Generator: Sketch 56.3 (81716) - https://sketch.com -->
 <title>MeijerLogo-Primary-FullColor</title>
 <desc>Created with Sketch.</desc>
 <g fill="none" fill-rule="evenodd">
  <g id="MeijerLogo-Primary-FullColor" fill-rule="nonzero">
   <path id="Meijer-Logo-/-Primary-/-Red" d="m0 10.043h6.0592v3.179c1.0867-2.3903 2.9379-3.586 5.5517-3.586 2.7196 0 4.3667 1.1956 4.9404 3.586 1.0401-2.3903 2.9165-3.586 5.6267-3.586 1.5131 0 2.7208 0.27143 3.6169 0.81701 0.89584 0.54497 1.5192 1.2907 1.8721 2.2361 0.35144 0.94563 0.52837 2.7267 0.52837 5.345v14.979h-6.4088v-14.325c0-1.7101-0.12461-2.8221-0.37261-3.3369-0.2471-0.51538-0.79633-0.77323-1.6492-0.77323-1.0232 0-1.6907 0.33755-1.9992 1.0111-0.31 0.6748-0.46334 2.0329-0.46334 4.0757v13.349h-6.4085v-14.531c0-1.6343-0.11826-2.6929-0.35023-3.1768-0.23318-0.48429-0.76276-0.72794-1.5893-0.72794-1.0226 0-1.7028 0.35355-2.0397 1.057-0.33783 0.70379-0.5069 2.0473-0.5069 4.0298v13.349h-6.4076v-22.97zm40.465 3.8503c-1.9425 0-2.9216 1.6725-2.9358 5.0162h5.871c0.014753-0.26981 0.021678-0.47936 0.021678-0.63077 0-2.9234-0.98602-4.3854-2.9569-4.3854zm0.027398 15.165c1.8384 0 2.9096-1.1813 3.2143-3.5433h5.7244c-1.011 5.3566-4.0329 8.0338-9.0654 8.0338-3.1047 0-5.4624-1.0532-7.0744-3.1611-1.6123-2.1097-2.4191-4.9308-2.4191-8.4653 0-3.9887 0.85506-7.0348 2.5658-9.1349 1.7119-2.1013 4.0046-3.1511 6.882-3.1511 2.592 0 4.7588 0.92905 6.499 2.7841 1.7411 1.8578 2.6121 5.2651 2.6121 10.222h-11.947v1.2652c0 2.0498 0.27518 3.4188 0.83007 4.1117 0.55368 0.69164 1.2787 1.039 2.1783 1.039zm12.151-19.065h6.4242v23.02h-6.4242v-23.02zm10.312-0.17845h6.4622v22.343c0 2.3785-0.12962 4.1639-0.39039 5.3619-0.26108 1.192-0.8793 2.1386-1.8586 2.8362-0.98026 0.69484-2.2268 1.0444-3.7432 1.0444-0.96348 0-2.1191-0.10811-3.4657-0.32282v-5.3033c0.32208 0.047679 0.60542 0.069849 0.85368 0.069849 0.95189 0 1.5466-0.2384 1.7842-0.70972 0.24003-0.47376 0.35776-1.5254 0.35776-3.1575v-22.162zm18.911 4.0789c-1.9448 0-2.9225 1.6725-2.9363 5.0162h5.8709c0.013851-0.26981 0.023185-0.47936 0.023185-0.63077 0-2.9234-0.9858-4.3854-2.9577-4.3854zm0.025895 15.165c1.8391 0 2.9101-1.1813 3.2161-3.5433h5.7239c-1.0111 5.3566-4.0317 8.0338-9.0652 8.0338-3.1031 0-5.4623-1.0532-7.0747-3.1611-1.6127-2.1097-2.419-4.9308-2.419-8.4653 0-3.9887 0.85573-7.0348 2.5669-9.1349 1.7106-2.1013 4.0025-3.1511 6.8835-3.1511 2.5904 0 4.7568 0.92905 6.4986 2.7841 1.7386 1.8578 2.6099 5.2651 2.6099 10.222h-11.948v1.2652c0 2.0498 0.27912 3.4188 0.83043 4.1117 0.55402 0.69164 1.2806 1.039 2.1776 1.039zm11.974-19.13h5.659v5.5984c1.008-3.9268 2.8066-5.8903 5.3931-5.8903 0.31471 0 0.67546 0.037626 1.0826 0.11379v6.3476c-0.46646-0.059474-0.81964-0.091942-1.0617-0.091942-3.1047 0-4.6564 2.3668-4.6564 7.1023v9.9054h-6.4166v-23.085z" fill="#DD1321"/>
   <path id="Meijer-Logo-/--Primary-/-Blue" d="m59.246 3.5687c0 1.9718-1.6374 3.5693-3.6582 3.5693s-3.6582-1.5975-3.6582-3.5693c0-1.9709 1.6374-3.5687 3.6582-3.5687s3.6582 1.5978 3.6582 3.5687zm10.35 0c0 1.9718-1.6384 3.5693-3.6587 3.5693-2.0203 0-3.6578-1.5975-3.6578-3.5693 0-1.9709 1.6375-3.5687 3.6578-3.5687 2.0203 0 3.6587 1.5978 3.6587 3.5687z" fill="#0A4D8C"/>
  </g>
 </g>
 <metadata>
  <rdf:RDF>
   <cc:Work rdf:about="">
    <dc:title>MeijerLogo-Primary-FullColor</dc:title>
   </cc:Work>
  </rdf:RDF>
 </metadata>
</svg>