<?xml version="1.0" standalone="no"?>
<!DOCTYPE svg PUBLIC "-//W3C//DTD SVG 1.1//EN" "http://www.w3.org/Graphics/SVG/1.1/DTD/svg11.dtd">
<svg xmlns="http://www.w3.org/2000/svg" width="206.94000244140625" height="73.37300109863281" version="1.1" viewBox="0 0 206.94 73.373">
 <g transform="translate(-2.2931 -112.06)">
  <path d="m108.44 146.36-1.7528-1.9053v-7.8233c0.83868-0.22851 1.5745-0.35546 2.2348-0.35546 1.6264 0 2.6424 0.76187 2.6424 2.7941v5.3846l-1.7273 1.9053h7.0612l-1.9046-1.9053v-7.0359c0-2.4637-1.2188-3.607-3.099-3.607-1.8547 0-3.7848 0.9654-5.2074 2.1341v-2.3116l-5.1807 2.1842 1.7774 1.0163v7.6199l-1.0278 1.0276-1.4825-1.2309-6.477-8.3819 2.8956-2.9215 5.3844-4.419h-7.2132v3.9625l-4.5969 4.5464v-6.4265l1.9043-2.0824h-7.6705l1.9298 2.0824v13.665l-1.9298 2.0832h7.6705l-1.9043-2.0832v-7.0105l5.2574 6.8581-1.9558 2.2356zm9.4407 0h7.215l-1.9057-1.9053v-10.82l-5.2829 2.1081 1.8792 1.2444v7.4678zm3.3283-13.589c1.2698 0 2.3113-1.0159 2.3113-2.3115 0-1.2954-1.0415-2.3112-2.3113-2.3112-1.2708 0-2.3112 1.0159-2.3112 2.3112 0 1.2956 1.0405 2.3115 2.3112 2.3115zm14.043 16.129c0-1.0924-0.7867-1.9057-2.2348-2.1592l-2.5406-0.4319c-1.2188 0.68543-1.8027 1.6257-1.8027 2.5143 0 1.2703 1.067 2.2351 3.2508 2.2351 2.2858 0 3.3273-1.0915 3.3273-2.1583zm-5.5111-10.491c0 2.2603 0.73575 3.4541 1.9046 3.4541 1.1424 0 1.9046-1.2698 1.9046-3.4541 0-2.2351-0.68483-3.5309-1.9046-3.5309-1.1434 0-1.9046 1.2451-1.9046 3.5309zm8.3818 9.4997c-0.0762 2.2607-2.2858 4.3689-6.6545 4.3689-3.3538 0-5.9443-0.96537-5.9443-3.1245 0-1.1938 1.1934-2.5656 3.8857-3.0476l-3.4282-0.58484 3.2009-3.251c-1.9566-0.6094-3.1255-2.0064-3.1255-3.8096 0-2.2861 1.8547-4.3438 5.5886-4.3438h7.3149l-2.9207 2.0828c0.71132 0.66075 1.0415 1.2703 1.0415 2.261 0 2.6162-2.4641 4.1658-5.4357 4.1658-0.68584 0-1.3207-0.0767-1.9046-0.20394v1.2197l4.3942 0.76143c2.565 0.43198 4.0385 1.7273 3.9876 3.5055zm0.95489-1.5493h7.0866l-1.7783-1.9053v-7.5944c0.81322-0.33037 1.55-0.50789 2.4132-0.50789 1.6 0 2.2348 0.63448 2.2348 2.7937v5.3087l-1.8792 1.9053h6.9592l-1.6509-1.9053v-6.9591c0-2.5154-1.0924-3.6838-3.048-3.6838-1.8792 0-3.5046 0.81324-5.0291 2.1591v-7.7469l-5.1565 2.2098 1.7528 1.0922v12.929zm17.406-3.2769c0 2.591 1.2698 3.5818 3.0481 3.5818 1.7528 0 3.5056-0.86386 4.0895-2.3117-0.76127 0.50802-1.549 0.68596-2.2104 0.68596-0.88861 0-1.4725-0.55895-1.4725-1.5493v-7.8748h3.7084v-1.4983h-3.7084v-3.81l-6.0197 5.3083h2.565zm13.779 2.3366c-1.8282 0-3.4026-2.0568-4.5206-3.937l-1.0415 3.861c1.5999 0.88934 3.3782 1.4988 5.0801 1.4988 2.7179 0 4.5471-1.5748 4.5471-3.8865 0-1.8797-1.1434-2.9206-4.1659-4.4194-1.7528-0.86378-2.5396-1.3459-2.5396-2.1842 0-0.76195 0.58394-1.2958 1.549-1.2958 1.1678 0 2.2093 0.78734 3.9112 3.556l0.68583-3.6825c-0.86317-0.50803-2.565-1.1174-4.3178-1.1174-2.6669 0-4.5216 1.4219-4.5216 3.7586 0 1.8033 1.067 2.9971 3.8613 4.3183 2.3367 1.0918 2.8442 1.7268 2.8442 2.4126 0 0.76239-0.6094 1.1174-1.3717 1.1174zm19.33-6.1721c0-2.4128-0.53298-4.165-2.4641-4.165-1.9056 0-2.4376 1.7523-2.4376 4.165v1.9816c0 2.4382 0.53194 4.165 2.4376 4.165 1.9312 0 2.4641-1.7268 2.4641-4.14zm3.9112 1.0162c0 3.7085-2.7933 6.4011-6.3753 6.4011-3.5565 0-6.3498-2.6926-6.3498-6.4011 0-3.7339 2.7933-6.452 6.3498-6.452 3.5821 0 6.3753 2.7181 6.3753 6.452zm2.673 4.1909-1.8547 1.9053h7.1886l-1.8802-1.9053v-8.8396h2.9716v-1.4983h-2.9716l-1.5235-2.9207c-0.40662-0.76225-0.12616-1.3212 0.43106-1.3212 1.016 0 0.88967 2.6926 2.7688 2.6926 0.88967 0 1.4481-0.66036 1.4481-1.5489 0-1.7022-1.4991-2.7945-3.3273-2.7945-2.5406 0-3.9632 1.7018-3.5566 4.089l0.30575 1.8037h-1.9057v1.4983h1.9057zm-103.08 9.0551c0.87539 0 1.5908 0.1054 2.3069 0.39683l2.4395 5.3832 2.5982-5.0385c-1.8559-1.4052-3.7384-2.439-6.9739-2.439-5.9918 0-9.3058 4.8521-9.3058 9.9694 0 5.356 3.5261 9.2799 8.7497 9.2799 4.6662 0 7.53-3.0222 7.53-7.2386-0.61033 0.98167-2.1477 3.7388-6.2044 3.7388-4.0305 0-6.5492-3.1023-6.5492-7.6626 0-4.1097 2.0947-6.3895 5.409-6.3895zm17.987 9.8102c0-2.519-0.55744-4.3486-2.5721-4.3486-1.9892 0-2.5456 1.8295-2.5456 4.3486v2.068c0 2.5452 0.55642 4.3482 2.5456 4.3482 2.0147 0 2.5721-1.803 2.5721-4.3216zm4.0834 1.06c0 3.8712-2.9166 6.6817-6.6556 6.6817-3.7125 0-6.6285-2.8104-6.6285-6.6817 0-3.8975 2.9161-6.735 6.6285-6.735 3.739 0 6.6556 2.8375 6.6556 6.735zm5.9116-12.568-5.4092 2.3068 1.9087 1.0872v13.549l-1.9352 1.9887h7.3709l-1.9352-1.9887zm15.182 5.6479-5.1708 2.2798 1.6438 0.9283v6.8672c-0.90084 0.71568-1.8027 1.0075-2.7311 1.0075-1.2993 0-1.9087-0.55682-1.9087-1.9096v-9.1732l-5.1708 2.2798 1.6448 0.9283v6.4424c0 2.6515 1.5102 3.9509 3.8439 3.9509 1.7233 0 3.0491-0.71571 4.3219-2.3861v2.6249l5.3828-2.4394-1.8557-1.2197zm23.324 3.5791c0-2.2802-1.1393-3.3936-2.9696-3.3936-1.8292 0-3.4995 0.71566-5.0383 2.0413-0.39743-1.4319-1.4573-2.0413-2.7831-2.0413-1.6978 0-3.527 0.90124-4.9058 2.068v-2.2543l-5.3022 2.2806 1.8028 1.0075v8.0074l-1.9362 1.9887h7.2385l-1.8027-1.9887v-8.2191c0.63691-0.18573 1.3523-0.29176 2.0952-0.29176 1.5907 0 2.2267 0.71611 2.2267 2.3064v6.2044l-1.7498 1.9887h7.0795l-1.8028-1.9887v-7.663c0-0.21146 0-0.39722-0.026-0.5824 0.58292-0.15969 1.2453-0.26547 2.0942-0.26547 1.6173 0 2.2542 0.71611 2.2542 2.3064v6.2044l-1.7497 1.9887h7.212l-1.9362-1.9887zm12.161 3.6324c0-3.208-1.3778-4.6395-3.4995-4.6395-0.63589 0-1.0608 0.106-1.5378 0.26462v7.2119c0 1.6708 0.92836 2.3069 1.9352 2.3069 1.9627 0 3.102-1.9625 3.102-5.144zm3.845-1.3252c0 4.6133-2.8371 7.7151-6.5231 7.7151-1.5633 0-2.6506-0.39726-3.8704-1.4052l-2.0147 1.5912v-16.306l-1.5378-0.82209 5.0638-2.3068v7.6629c1.2728-1.1668 2.6516-1.7237 4.1629-1.7237 2.7311 0 4.7193 2.1739 4.7193 5.5949zm14.181-5.8863-5.1698 2.2798 1.6438 0.9283v6.8672c-0.90088 0.71568-1.8028 1.0075-2.7301 1.0075-1.2993 0-1.9097-0.55682-1.9097-1.9096v-9.1732l-5.1708 2.2798 1.6448 0.9283v6.4424c0 2.6515 1.5113 3.9509 3.844 3.9509 1.7242 0 3.049-0.71571 4.3219-2.3861v2.6249l5.3827-2.4394-1.8568-1.2197zm13.097 9.7309c0 2.4123-1.9087 4.0564-4.7448 4.0564-1.7772 0-3.633-0.63661-5.3042-1.5649l1.0873-4.0297c1.1668 1.9617 2.8106 4.1093 4.7204 4.1093 0.79485 0 1.4318-0.37055 1.4318-1.1663 0-0.7157-0.53095-1.3785-2.9706-2.5186-2.9156-1.3789-4.0294-2.6253-4.0294-4.5078 0-2.4391 1.9352-3.9246 4.7193-3.9246 1.8292 0 3.6065 0.63652 4.5084 1.1675l-0.71639 3.8447c-1.7762-2.8909-2.8636-3.7129-4.0834-3.7129-1.0079 0-1.6173 0.55691-1.6173 1.353 0 0.87456 0.82137 1.3786 2.6506 2.2799 3.155 1.564 4.3484 2.6511 4.3484 4.6141zm4.3524-10.766c0-0.3308-0.25998-0.58994-0.749-0.58994h-0.14348v1.1083c0.0721 0.0149 0.17327 0.0288 0.25999 0.0288 0.44532 0 0.63283-0.21552 0.63283-0.54705zm-0.82034 0.77747h-0.0721v0.97893l0.33118 0.30213h-1.3961l0.33118-0.28802v-2.3896l-0.33118-0.28771h1.2524c1.0649 0 1.4389 0.35944 1.4389 0.82043 0 0.35987-0.28744 0.66241-0.77652 0.79173 0.12945 0.35995 0.31591 0.73443 0.87741 1.4104-0.69093 0-1.2086-0.56131-1.655-1.3383zm2.4325-0.17272c0-1.2953-0.93551-2.1591-2.1452-2.1591-1.2086 0-2.1442 0.86378-2.1442 2.1591 0 1.2954 0.9355 2.1592 2.1442 2.1592 1.2096 0 2.1452-0.82045 2.1452-2.1592zm-4.6928 0c0-1.5115 1.123-2.5047 2.5477-2.5047 1.4246 0 2.5477 0.9932 2.5477 2.5047 0 1.5111-1.123 2.5043-2.5477 2.5043-1.4247 0-2.5477-0.99319-2.5477-2.5043" fill="#232e61"/>
  <path d="m56.918 146.4h18.748l-13.442-13.443 4.5917-4.7116h-9.3038l-16.192-16.192v10.524l-2.3403-2.5863-2.3407 2.587v-10.525l-16.192 16.192h-9.3034l4.5918 4.7116-13.442 13.443h18.748v4.681h-18.748l34.346 34.346v-10.325l2.3407 2.3594 2.3403-2.359v10.324l34.346-34.346h-18.748v-4.681" fill="#232e61"/>
  <path d="m56.918 141.94 4.08e-4 -3.5396 2.1946-2.2515 5.7909 5.7911zm-5.71-13.696h-4.759l-0.67116-0.74128v-4.6889zm-30.167 27.293v3.8402l11.14 11.23v4.056l-19.126-19.126h7.9863" fill="#ee2a36"/>
  <path d="m45.778 170.61 11.14-11.23v-3.8402h7.9863l-19.126 19.126zm-13.597-43.104-0.67075 0.74128h-4.7594l5.4301-5.4302zm-11.139 14.437h-7.9867l5.7917-5.7911 2.195 2.2515v3.5396" fill="#fff"/>
  <path d="m54.601 140.9h-31.243l-8.14e-4 17.524 15.622 15.747 15.622-15.747zm2.3168 1.826h9.8839l-7.1407-7.1402 2.0143-2.0669 12.093 12.093h-16.851zm-4.5986-14.482-7.3277-7.3274v5.7172l-2.8856-3.1894v-9.4949l14.295 14.295zm-16.467-4.7992-2.8852 3.189v-5.7172l-7.3281 7.3274h-4.0815l14.295-14.295zm-17.555 12.141-7.1399 7.1402h9.8838l-4.08e-4 2.886h-16.851l12.093-12.093zm-14.107 16.28h16.851v2.8856h-9.8834l21.81 21.81v-5.1614l2.8852 2.9087v9.219zm37.915 31.662v-9.2186l2.8856-2.9096v5.1619l21.811-21.81h-9.8843v-2.8856h16.851zm-20.279-24.474v-20.973l-8.8206-9.0511h18.852l7.1204-7.8691 7.1208 7.8691h18.852l-8.8202 9.0511-3.08e-4 20.973-17.152 17.29-17.152-17.29" fill="#f4b10c"/>
  <path d="m36.988 165.78h0.85867c0.0493 0 0.08918-0.04 0.08918-0.0893v-12.176c0-0.0494-0.03985-0.0893-0.08918-0.0893h-0.85867c-0.0493 0-0.08918 0.0397-0.08918 0.0893v12.176c0 0.0494 0.03985 0.0893 0.08918 0.0893zm2.4251-12.354h-0.86784c-0.04891 0-0.08957 0.0402-0.08957 0.0893v12.176c0 0.0491 0.04068 0.0893 0.08957 0.0893h0.86784c0.0493 0 0.08918-0.0399 0.08918-0.0893v-12.176c0-0.0494-0.03985-0.0893-0.08918-0.0893zm-2.4251-2.1711h0.85826c0.0493 0 0.08958-0.0402 0.08958-0.0887v-0.63006c0-0.0494-0.04024-0.0896-0.08958-0.0896h-0.85826c-0.0493 0-0.08957 0.0402-0.08957 0.0896v0.63008c0 0.0494 0.04027 0.0887 0.08957 0.0887zm1.4681-1.3745h1.0462v-1.775c1.1007 0.097 2.3104 0.37148 3.5751 0.64293-0.54103-0.97766-2.3634-2.0508-3.5751-2.4566v-1.7778c0.0028-0.22995 0.02774-0.29778 0.06724-0.34273l0.42831-0.42839-1.031-1.2316-1.0306 1.2316 0.41079 0.4109c0.01935 0.0203 0.09357 0.0979 0.10905 0.2591v1.6567c-1.9135-0.40243-3.2669-1.9967-3.2669-1.9967-0.15326 0.10257-0.92359 1.1564-0.92359 2.9282 0 2.0584 0.87814 2.6771 1.0804 2.6774 0.0115 0 0.01993-1e-3 0.02426-6e-3 0.75788-1.1325 1.8235-1.5462 3.0859-1.5963zm3.0441 2.9597c0.04943 0 0.08957-0.0397 0.08957-0.0893v-0.8591c0-0.0494-0.04016-0.0896-0.08957-0.0896h-5.0416c-0.04943 0-0.08918 0.0402-0.08918 0.0896v0.8591c0 0.0494 0.03974 0.0893 0.08918 0.0893zm-2.0871-2.3936h-0.86784c-0.04891 0-0.08918 0.0402-0.08918 0.0896v0.63008c0 0.0494 0.04027 0.0887 0.08918 0.0887h0.86784c0.0493 0 0.08957-0.0393 0.08957-0.0887v-0.63008c0-0.0494-0.04027-0.0896-0.08957-0.0896zm-2.9545 15.898c-0.04943 0-0.08918 0.0393-0.08918 0.0887v0.85897c0 0.0494 0.03974 0.0896 0.08918 0.0896h5.0416c0.04943 0 0.08957-0.0402 0.08957-0.0896v-0.85897c0-0.0494-0.04016-0.0887-0.08957-0.0887zm2.199 4.1869h0.64406l0.20065-2.6189h-1.0462zm2.402-17.016c0-0.0494-0.03943-0.0893-0.08877-0.0893h-0.85867c-0.04891 0-0.08957 0.0399-0.08957 0.0893v12.176c0 0.0494 0.04068 0.0893 0.08957 0.0893h0.85867c0.04934 0 0.08877-0.0397 0.08877-0.0893zm-0.94743-2.2603h0.85867c0.04934 0 0.08877-0.0393 0.08877-0.0887v-0.63006c0-0.0494-0.04016-0.0896-0.08877-0.0896h-0.85867c-0.04891 0-0.08877 0.0402-0.08877 0.0896v0.63008c0 0.0494 0.03983 0.0887 0.08877 0.0887zm-6.4062-1.9191c-0.24366-0.19818-0.64925-0.10018-0.92868 0.17774-0.38021-0.0757-0.53063 0.0423-0.55142 0.0673-0.09385 0.11496-0.03261 0.41395 0.07929 0.63487l-0.40406 0.61227c-0.0055 3e-3 -0.29217 0.23195-0.66953 0.13317 0 0-0.545-0.38215-0.73332-0.53696-0.17396-0.14333-0.25753-0.26112-0.39998-0.37816l-1.0852-0.90087 0.03343-0.0411c0.04382-0.0538 0.08559-0.18922-0.02904-0.2828l-0.73924-0.60461c-0.18272-0.14871-0.47968-0.13184-0.64049 0.0647l-0.47734 0.57963c-0.15957 0.19355-0.13207 0.48133 0.06096 0.6409l0.73607 0.60909c0.09833 0.0814 0.23326 0.0334 0.28301-0.026l0.03383-0.0403 1.0936 0.89128c0.14246 0.11616 0.27422 0.17531 0.44859 0.31885 0.18832 0.15432 0.668 0.615 0.668 0.615 0.10385 0.21375 0.10506 0.46612-8.15e-4 0.6831l-0.52186 0.51473c-0.16916-0.0473-0.53063-0.0856-0.63855 0.0457-0.07001 0.0844-0.05972 0.31052 0.04068 0.55367-0.22778 0.34199-0.23367 0.74686 0.0055 0.94509 0.24681 0.20366 0.65129 0.0981 0.92399-0.16639 0.20016 0.0439 0.48202 0.043 0.56803-0.06 0.08273-0.10108 0.05491-0.38011-0.08204-0.64722l0.33915-0.5235c0.57323 0.25797 0.74046 0.0637 1.0088 0.28396l0.13176 0.10944 0.7535-0.42076 0.26709-0.82117-0.13248-0.1081c-0.26833-0.2204-0.10954-0.4223-0.47417-0.93509l0.44829-0.43382c0.24834 0.0714 0.56049 0.0652 0.65078-0.0445 0.07093-0.0872 0.05778-0.32079-0.05096-0.56882 0.22258-0.34192 0.22379-0.74361-0.01506-0.93906zm2.6631 5.8286-2.722-2.3133-0.15888 0.49008-0.06056 0.18572-0.1711 0.0956-0.44187 0.24669 3.5544 2.8264zm5.2199 5.5427 4.6368 3.681c0.23734 0.20307 0.66046 0.34078 0.7962 0.18349 0.13533-0.15764-0.06329-0.55528-0.2994-0.76031l-5.1336-4.7805zm7.831-10.16c0.33324-0.29216 0.36789-0.80058 0.07562-1.1345-0.28023-0.32041-0.78652-0.38013-1.1344-0.0757-0.33364 0.29134-0.36748 0.80048-0.07573 1.1341 0.27954 0.31966 0.78622 0.3805 1.1345 0.076zm-7.831 5.0675 4.0592-3.5504-0.46969-0.53746c-0.17314-0.19788-0.46531-0.60501-0.27628-0.914-0.21137 0.10182-0.47254 0.0578-0.63488-0.12766-0.19505-0.22329-0.17243-0.56131 0.05013-0.75634 0.22286-0.1947 0.5613-0.17253 0.75635 0.0506 0.16234 0.18554 0.1715 0.4502 0.04261 0.64679 0.3312-0.14676 0.69541 0.197 0.86896 0.39492l0.4701 0.53824 0.8762-0.76593c-0.27353-0.65485-0.1222-1.4363 0.44187-1.9291 0.86305-0.75513 1.9494-0.34832 2.394 0.16008 0.61746 0.7057 0.54582 1.7782-0.16 2.3952-0.77827 0.68023-1.7082 0.35503-1.9705 0.18015l-0.87579 0.76635 0.47051 0.53736c0.17355 0.19874 0.46541 0.60545 0.27628 0.91484 0.21177-0.10286 0.47295-0.0578 0.63498 0.12766 0.19505 0.22272 0.17234 0.56119-0.05024 0.75627-0.22286 0.1947-0.56161 0.17253-0.75625-0.0508-0.16202-0.18553-0.17162-0.45021-0.04218-0.64639-0.33161 0.14646-0.69623-0.19759-0.86947-0.39529l-0.46969-0.53747-4.7662 4.1675zm-5.2199 10.349c-1.0123 0.45545-2.0951-0.0579-3.0648-1.0879-0.34832-0.37013-0.70388-0.7153-1.0343-0.73721-0.31968-0.0203-1.2062 0.15635-1.2062 0.15635s0.31693-0.84704 0.34597-1.1659c0.0314-0.32999-0.25282-0.73569-0.56293-1.1381-0.95976-1.2471-1.0015-2.4888-0.13973-3.47l-0.70143-0.32365c-0.04177-0.0203-0.03616-0.0803 0.0082-0.0924 0 0 1.2508-0.96293 2.5059-1.0421-0.20423 0.83515-0.48008 2.5317-0.48008 2.5317 0.0024 0.0463-0.05451 0.0708-0.08551 0.0355l-0.44666-0.5c-0.58923 0.62968-0.54459 1.3681 0.13368 2.2495 0.19392 0.25188 0.74759 1.107 1.576 0.37774l3.152-2.6859v1.4084l-2.4574 2.0931c-0.85184 0.70144-0.09551 1.3841 0.12228 1.6154 0.81047 0.86151 1.5752 1.2082 2.3351 0.60991v1.1655" fill="#fff"/>
  <path d="m41.535 136.85v-1.5266h0.67676l0.91319 0.80965v-2.3224l-0.91237 0.8013h-0.67758v-1.7026h1.1784l1.3375 1.5143v-2.1747h-4.5699l0.72252 0.76866v3.8263l-0.72252 0.76938h2.6592zm-5.1992-4.0863c0.73638 0 1.1759 0.65773 1.1759 1.7591v0.81648c0 1.1015-0.43952 1.7591-1.1759 1.7591-0.73088 0-1.1684-0.65763-1.1684-1.7591v-0.81648c0-1.1014 0.43749-1.7591 1.1684-1.7591m0 4.937c1.8089 0 2.7559-1.3937 2.7559-2.7698 0-1.334-0.86264-2.7698-2.7559-2.7698-1.3268 0-2.7552 0.86704-2.7552 2.7698 0 1.3762 0.94702 2.7698 2.7552 2.7698m14.419 2.1536c2.2491 0 3.7602-1.4538 3.7602-3.6173v-0.21464l-0.14888 0.24093c-0.32243 0.52307-1.0772 1.7487-2.9597 1.7487-1.9175 0-3.1559-1.4533-3.1559-3.7025 0-1.9275 0.96965-3.0779 2.5954-3.0779 0.43953 0 0.76675 0.0548 1.0871 0.182l1.2404 2.7368 1.3586-2.6329-0.04137-0.0315c-0.98717-0.74719-1.9108-1.2102-3.4625-1.2102-3.042 0-4.6331 2.4944-4.6331 4.959 0 2.7196 1.7929 4.6196 4.3597 4.6196m-22.826-0.29502 0.98636-1.1266-2.6508-3.4576v3.5344l0.96017 1.0498h-3.8673l0.97372-1.0498v-6.889l-0.97372-1.0506h3.8673l-0.96017 1.0506v3.24l2.3181-2.2925v-1.998h3.6368l-2.7152 2.228-1.4602 1.4733 3.2662 4.2252 1.2803 1.0629h-4.6614" fill="#232e61"/>
 </g>
</svg>