<?xml version="1.0" standalone="no"?>
<!DOCTYPE svg PUBLIC "-//W3C//DTD SVG 1.1//EN" "http://www.w3.org/Graphics/SVG/1.1/DTD/svg11.dtd">
<svg xmlns:inkscape="http://www.inkscape.org/namespaces/inkscape" xmlns:sodipodi="http://sodipodi.sourceforge.net/DTD/sodipodi-0.dtd" xmlns="http://www.w3.org/2000/svg" xmlns:svg="http://www.w3.org/2000/svg" version="1.1" id="svg2" width="1728" height="384" viewBox="0 0 1728 384" sodipodi:docname="FBi-Buildings_2C.ai">
  <defs id="defs6">
    <clipPath clipPathUnits="userSpaceOnUse" id="clipPath16">
      <path d="M 0,288 H 1296 V 0 H 0 Z" id="path14"/>
    </clipPath>
  </defs>
  <sodipodi:namedview id="namedview4" pagecolor="#ffffff" bordercolor="#000000" borderopacity="0.25" inkscape:showpageshadow="2" inkscape:pageopacity="0.0" inkscape:pagecheckerboard="0" inkscape:deskcolor="#d1d1d1"/>
  <g id="g8" inkscape:groupmode="layer" inkscape:label="FBi-Buildings_2C" transform="matrix(1.3333333,0,0,-1.3333333,0,384)">
    <g id="g10">
      <g id="g12" clip-path="url(#clipPath16)">
        <g id="g18" transform="translate(558.998,133.4297)">
          <path d="m 0,0 c 15.059,0 22.049,-6.992 22.049,-22.048 0,-11.562 -5.109,-22.315 -18.283,-22.315 -3.496,0 -5.649,0.269 -8.605,2.42 l 0,41.943 z m -50.281,67.489 c 9.678,-5.917 8.335,-17.206 8.335,-27.695 V -34.69 c 0,-10.485 1.343,-21.777 -8.335,-27.96 v -0.538 H 8.335 c 13.982,0 24.738,0.269 35.494,9.412 9.41,8.332 14.251,18.817 14.251,31.189 0,17.206 -11.563,31.728 -28.771,34.149 11.831,3.765 20.971,11.829 20.971,25.272 0,10.487 -5.107,18.289 -13.174,24.738 -8.605,6.726 -17.208,6.726 -27.964,6.726 H -50.281 Z M 0.807,49.742 c 8.606,0 12.637,-7.797 12.637,-15.594 0,-8.603 -5.109,-17.211 -14.517,-17.211 -1.348,0 -2.424,0.542 -3.766,0.807 v 30.654 c 1.881,0.809 3.766,1.344 5.646,1.344" style="fill:#231f20;fill-opacity:1;fill-rule:nonzero;stroke:none" id="path20"/>
        </g>
        <g id="g22" transform="translate(657.6782,165.1572)">
          <path d="M 0,0 C -3.764,-2.421 -8.067,-2.956 -13.174,-2.956 H -40.87 v -0.81 c 7.527,-6.182 6.99,-11.829 6.99,-21.242 v -38.72 c 0,-9.943 0,-19.356 8.067,-26.347 6.184,-5.382 14.79,-7.532 22.587,-7.532 11.829,0 20.706,4.301 27.158,13.174 v -10.483 h 41.404 v 0.538 c -7.253,6.184 -6.718,12.105 -6.718,21.238 V 0 H 58.083 C 54.047,-2.421 49.741,-2.956 44.368,-2.956 H 16.94 v -0.81 c 7.528,-6.182 6.992,-11.829 6.992,-21.242 v -32.529 c 0,-5.11 0.536,-10.222 -2.69,-15.064 -1.881,-2.96 -5.647,-4.301 -9.412,-4.301 -13.175,0 -11.025,16.675 -11.025,25.548 L 0.805,0 Z" style="fill:#231f20;fill-opacity:1;fill-rule:nonzero;stroke:none" id="path24"/>
        </g>
        <g id="g26" transform="translate(723.8242,161.3916)">
          <path d="m 0,0 c 7.261,-6.183 6.722,-11.829 6.722,-21.242 v -48.132 c 0,-9.134 0.539,-14.785 -6.992,-21.238 v -0.538 h 48.404 v 0.538 c -7.532,6.453 -6.997,12.104 -6.997,21.238 V 3.766 H 40.602 C 36.84,1.345 32.535,0.81 27.157,0.81 H 0 Z" style="fill:#231f20;fill-opacity:1;fill-rule:nonzero;stroke:none" id="path28"/>
        </g>
        <g id="g30" transform="translate(765.5015,185.3232)">
          <path d="m 0,0 c 0,10.218 -8.337,18.82 -18.821,18.82 -11.023,0 -19.095,-8.872 -19.095,-19.626 0,-9.681 8.608,-18.555 18.286,-18.555 C -8.873,-19.361 0,-10.757 0,0" style="fill:#231f20;fill-opacity:1;fill-rule:nonzero;stroke:none" id="path32"/>
        </g>
        <g id="g34" transform="translate(771.1489,200.9189)">
          <path d="m 0,0 c 6.991,-6.993 6.182,-11.564 6.182,-21.509 v -87.392 c 0,-9.134 0.809,-14.786 -6.722,-21.239 v -0.538 h 48.134 v 0.538 c -7.262,6.453 -6.722,12.105 -6.722,21.239 V 3.766 h -0.54 C 34.686,1.614 29.308,0.809 22.316,0.809 H 0 Z" style="fill:#231f20;fill-opacity:1;fill-rule:nonzero;stroke:none" id="path36"/>
        </g>
        <g id="g38" transform="translate(930.3271,70.2412)">
          <path d="M 0,0 V 0.538 C -8.873,8.61 -8.873,17.476 -8.873,29.039 v 105.404 h -0.54 c -5.376,-2.957 -10.483,-2.957 -16.935,-2.957 H -50.55 v -0.808 c 7.258,-6.183 7.258,-11.83 7.258,-21.242 V 87.928 c -7.258,4.298 -14.786,6.722 -22.583,6.722 -27.428,0 -44.099,-23.665 -44.099,-49.207 0,-25.007 18.016,-46.785 43.829,-46.785 2.687,0 5.646,0 8.067,1.072 l 9.413,16.944 h -2.69 c -5.917,0 -11.834,2.951 -15.33,7.523 -5.107,6.19 -6.452,14.793 -6.452,22.587 0,11.024 2.69,27.16 16.67,27.16 4.302,0 8.338,-1.884 10.754,-5.647 2.421,-4.028 2.421,-8.068 2.421,-12.101 l 0,-56.196 z" style="fill:#231f20;fill-opacity:1;fill-rule:nonzero;stroke:none" id="path40"/>
        </g>
        <g id="g42" transform="translate(930.3271,161.3916)">
          <path d="m 0,0 c 7.262,-6.183 6.722,-11.829 6.722,-21.242 v -48.132 c 0,-9.134 0.54,-14.785 -6.992,-21.238 V -91.15 H 48.4 v 0.538 c -7.527,6.453 -6.992,12.104 -6.992,21.238 V 3.766 H 40.873 C 36.837,1.345 32.535,0.81 27.159,0.81 H 0 Z" style="fill:#231f20;fill-opacity:1;fill-rule:nonzero;stroke:none" id="path44"/>
        </g>
        <g id="g46" transform="translate(972.001,185.3232)">
          <path d="m 0,0 c 0,10.218 -8.333,18.82 -18.817,18.82 -10.753,0 -18.825,-8.872 -18.825,-19.626 0,-9.681 8.337,-18.555 18.016,-18.555 C -8.603,-19.361 0,-10.757 0,0" style="fill:#231f20;fill-opacity:1;fill-rule:nonzero;stroke:none" id="path48"/>
        </g>
        <g id="g50" transform="translate(1018.52,165.1572)">
          <path d="m 0,0 c -5.377,-2.421 -9.409,-2.956 -14.25,-2.956 h -26.888 v -0.81 c 7.798,-6.182 6.992,-12.099 6.992,-21.242 V -73.14 c 0,-9.133 0.806,-15.054 -6.992,-21.238 v -0.538 h 48.67 v 0.538 C 0,-88.194 0.536,-82.273 0.536,-73.14 v 33.889 c 0,4.294 -0.265,9.944 2.69,13.708 2.15,2.687 5.651,4.571 9.143,4.571 4.031,0 8.068,-1.884 10.222,-5.377 2.682,-4.038 2.951,-8.608 2.951,-12.902 V -73.14 c 0,-9.133 0.541,-15.054 -6.987,-21.238 v -0.538 h 48.4 v 0.538 c -7.532,6.184 -6.992,12.105 -6.992,21.238 v 33.079 c 0,10.483 0.806,19.625 -6.722,28.233 -7.262,8.602 -17.475,11.293 -28.234,11.293 -10.218,0 -18.82,-3.231 -24.471,-10.488 L 0.536,0 Z" style="fill:#231f20;fill-opacity:1;fill-rule:nonzero;stroke:none" id="path52"/>
        </g>
        <g id="g54" transform="translate(1131.7202,146.8711)">
          <path d="m 0,0 c 9.682,0 12.104,-11.021 12.104,-18.822 0,-7.254 -3.232,-14.246 -11.834,-14.246 -9.143,0 -11.829,10.214 -11.829,17.747 C -11.559,-7.793 -8.873,0 0,0 M 13.983,15.596 C 8.872,16.676 3.5,17.751 -1.61,17.751 c -20.976,0 -41.945,-11.834 -41.945,-35.224 0,-15.595 9.945,-25.277 23.659,-30.389 l -5.378,-2.15 c -2.15,-0.801 -7.797,-1.882 -7.797,-5.373 0,-3.231 4.032,-9.413 5.913,-11.833 2.961,-4.032 6.456,-5.643 11.293,-5.643 5.381,0 10.758,1.072 16.135,1.072 5.381,0 10.753,-0.802 14.253,-4.571 2.687,-2.961 4.842,-6.453 5.374,-10.223 1.079,-11.554 -12.096,-14.785 -21.778,-14.785 -7.532,0 -18.555,1.612 -18.555,11.294 0,5.11 2.961,7.531 7.531,8.332 -4.57,2.691 -9.681,3.5 -14.785,3.5 -10.222,0 -20.706,-6.182 -20.706,-17.484 0,-10.753 10.484,-16.666 19.626,-19.356 8.874,-2.422 19.627,-2.952 29.04,-2.952 11.293,0 25.813,0.801 36.57,5.373 11.023,4.841 20.167,14.253 20.167,26.888 0,9.952 -5.917,19.094 -14.525,23.928 -7.256,4.04 -17.204,5.92 -25.272,5.381 L 0,-57.535 l -3.492,-0.27 c -1.35,0 -3.23,0.8 -3.23,2.42 0,3.762 7.532,4.572 10.222,4.572 9.409,0 21.507,2.951 29.571,8.873 7.262,5.642 12.373,13.173 12.373,22.848 0,6.46 -2.422,12.91 -7.262,17.212 h 9.142 l 8.873,18.556 z" style="fill:#231f20;fill-opacity:1;fill-rule:nonzero;stroke:none" id="path56"/>
        </g>
        <g id="g58" transform="translate(1226.6343,67.5498)">
          <path d="m 0,0 c 20.977,0 50.825,5.921 50.825,32.81 0,10.213 -6.722,18.006 -15.06,23.387 -6.456,4.032 -14.788,6.453 -21.78,8.604 -4.842,1.349 -11.56,2.959 -11.56,9.145 0,5.375 7.793,6.451 11.83,6.451 9.143,0 18.015,-2.956 25.547,-7.797 v 20.706 c -10.223,2.421 -20.441,3.766 -30.925,3.766 -10.487,0 -20.971,-1.075 -30.384,-6.453 -9.142,-5.111 -14.788,-13.178 -14.788,-23.93 0,-27.158 47.863,-27.966 47.863,-41.411 0,-7.262 -8.607,-8.603 -14.25,-8.603 -12.642,0 -24.742,4.57 -35.225,11.023 L -33.606,4.571 C -22.582,2.15 -11.29,0 0,0" style="fill:#231f20;fill-opacity:1;fill-rule:nonzero;stroke:none" id="path60"/>
        </g>
        <g id="g62" transform="translate(268.8726,130.207)">
          <path d="m 0,0 c 6.99,-0.539 15.326,0.271 18.014,-7.253 h 0.807 V 20.71 h -0.807 c -1.881,-0.811 -4.57,-1.08 -7.528,-1.08 H -4.033 v 32.535 h 6.451 c 9.681,0 20.975,1.075 26.622,-8.334 h 0.537 V 72.87 H 29.04 c -2.421,-1.074 -5.647,-1.074 -8.605,-1.074 h -69.912 v -0.811 c 9.681,-5.912 8.337,-17.206 8.337,-27.694 v -74.75 c 0,-10.484 1.344,-21.776 -8.337,-27.959 v -0.54 H 4.572 v 0.54 c -8.605,8.063 -8.605,17.205 -8.605,28.769 l 0,30.649 z" style="fill:#231f20;fill-opacity:1;fill-rule:nonzero;stroke:none" id="path64"/>
        </g>
        <g id="g66" transform="translate(354.3765,133.4395)">
          <path d="m 0,0 c 15.326,0 22.319,-6.723 22.319,-22.058 0,-11.553 -5.378,-22.307 -18.284,-22.307 -3.496,0 -5.918,0.261 -8.873,2.412 l 0,41.953 z m 1.078,49.737 c 8.603,0 12.637,-7.523 12.637,-15.325 0,-8.602 -5.11,-17.206 -14.79,-17.206 -1.344,0 -2.418,0.535 -3.763,0.806 v 30.651 c 2.15,0.805 3.763,1.074 5.916,1.074 M -50.28,67.753 c 9.948,-5.912 8.603,-17.206 8.603,-27.694 v -74.75 c 0,-10.485 1.345,-21.777 -8.603,-27.959 v -0.54 H 8.335 c 14.252,0 25.008,0.27 35.764,9.682 9.411,8.063 14.25,18.547 14.25,30.919 0,17.477 -11.831,31.724 -29.039,34.15 12.099,4.031 21.241,12.094 21.241,25.542 0,10.489 -5.109,18.286 -13.444,24.738 -8.335,6.722 -17.21,6.722 -27.696,6.722 H -50.28 Z" style="fill:#231f20;fill-opacity:1;fill-rule:nonzero;stroke:none" id="path68"/>
        </g>
        <g id="g70" transform="translate(417.2959,161.6699)">
          <path d="m 0,0 c 7.26,-6.182 6.722,-12.103 6.722,-21.512 v -47.862 c 0,-9.143 0.538,-15.055 -6.991,-21.507 v -0.54 h 48.67 v 0.54 c -7.8,6.452 -6.993,12.364 -6.993,21.507 V 3.766 H 40.601 C 36.837,1.341 32.535,0.54 27.159,0.54 H 0 Z" style="fill:#231f20;fill-opacity:1;fill-rule:nonzero;stroke:none" id="path72"/>
        </g>
        <g id="g74" transform="translate(458.9746,185.6025)">
          <path d="m 0,0 c 0,10.214 -8.338,18.821 -18.823,18.821 -11.024,0 -18.824,-8.874 -18.824,-19.633 0,-9.676 8.338,-18.549 18.018,-18.549 C -8.874,-19.361 0,-11.023 0,0" style="fill:#231f20;fill-opacity:1;fill-rule:nonzero;stroke:none" id="path76"/>
        </g>
        <g id="g78" transform="translate(35.2261,70.3584)">
          <path d="M 0,0 V 107.016 L 58.784,134.086 58.796,0 Z" style="fill:#1478c7;fill-opacity:1;fill-rule:nonzero;stroke:none" id="path80"/>
        </g>
        <g id="g82" transform="translate(187.5562,245.6914)">
          <path d="M 0,0 V -175.333 H -26.966 V -13.325 Z" style="fill:#1478c7;fill-opacity:1;fill-rule:nonzero;stroke:none" id="path84"/>
        </g>
        <g id="g86" transform="translate(106.6494,70.3584)">
          <path d="M 0,0 V 138.319 L 41.086,157.776 40.862,0 Z" style="fill:#1478c7;fill-opacity:1;fill-rule:nonzero;stroke:none" id="path88"/>
        </g>
      </g>
    </g>
  </g>
</svg>