<?xml version="1.0" standalone="no"?>
<!DOCTYPE svg PUBLIC "-//W3C//DTD SVG 1.1//EN" "http://www.w3.org/Graphics/SVG/1.1/DTD/svg11.dtd">
<svg xmlns="http://www.w3.org/2000/svg" width="216.8800048828125" height="59.74399948120117" version="1.1" viewBox="0 0 216.88 59.744" xml:space="preserve"><g transform="translate(-1.6604 -89.499)" stroke-width=".084667"><g><path d="m187.67 118.23c0-0.0246 0.1354-0.3031 0.30089-0.61901 0.56938-1.0869 0.55308-0.65616 0.52619-13.907-0.0268-13.215 0.0219-12.106-0.58381-13.306l-0.2457-0.48683h6.5538c5.1638 0 6.5629 0.0225 6.5966 0.10583 0.28146 0.69607 9.7604 22.684 9.8457 22.839 0.0996 0.1806 0.11334-1.3352 0.0937-10.329-0.0255-11.663 2e-3 -11.072-0.56865-12.07-0.13826-0.24165-0.25138-0.4633-0.25138-0.49256 0-0.0293 1.3161-0.0532 2.9246-0.0532h2.9246l-0.21485 0.3666c-0.39314 0.67084-0.55865 1.3093-0.64025 2.4697-0.0426 0.60537-0.0787 6.5968-0.0804 13.314l-3e-3 12.214-12.15-0.0434-2.7155-6.35c-1.4936-3.4925-3.75-8.7694-5.0144-11.726l-2.2988-5.3763 0.0196 10.795c0.0185 10.219 0.0279 10.82 0.17507 11.261 0.0855 0.25612 0.26622 0.66081 0.40157 0.8993 0.13535 0.23851 0.24608 0.45759 0.24608 0.48684 0 0.0293-1.3144 0.0532-2.921 0.0532s-2.921-0.0201-2.921-0.0446z"/><path d="m173.7 118.2c0-0.0393 0.0781-0.29646 0.17362-0.5715 0.47626-1.3718 0.44916-0.6334 0.48141-13.115 0.0206-7.9549 1e-3 -11.731-0.0621-12.216-0.0761-0.58062-0.26521-1.3321-0.56399-2.2413-0.046-0.14007 0.24757-0.14816 5.3768-0.14816h5.4255l-0.15409 0.35983c-0.20613 0.48135-0.41586 1.3376-0.5153 2.1036-0.11917 0.91816-0.11248 22.425 7e-3 23.402 0.0514 0.4191 0.1868 1.0668 0.30095 1.4393 0.11416 0.37253 0.22886 0.76306 0.2549 0.86783l0.0474 0.1905h-5.3862c-2.9624 0-5.3862-0.0321-5.3862-0.0714z"/><path d="m148.93 118.13c0.21374-0.52706 0.40001-1.1572 0.52899-1.7897 0.13753-0.67433 0.14871-1.5947 0.14871-12.244 0-12.469 0.0145-12.048-0.46478-13.483l-0.2333-0.6985h21.204l0.3818 2.6882c0.20999 1.4785 0.37187 2.7005 0.35971 2.7155-0.0121 0.015-0.32571-0.0686-0.69679-0.18578-1.6156-0.51039-1.6953-0.51662-6.6225-0.51781l-4.5297-1e-3 -0.0222 3.3288-0.0222 3.3288 8.511-0.062 0.80434-0.22436c0.44238-0.1234 0.98531-0.2816 1.2065-0.35155l0.40216-0.12719v6.1918l-0.23283-0.0446c-0.12806-0.0245-0.54829-0.14128-0.93386-0.25946-1.1494-0.35228-1.7506-0.3925-5.8668-0.3925h-3.8885v7.5463l9.9483-0.0614 0.80433-0.22453c0.44238-0.12349 0.98531-0.28177 1.2065-0.35172 0.22119-0.0699 0.40217-0.10766 0.40217-0.0838 0 0.0845-0.7619 4.9897-0.81063 5.219l-0.0495 0.23283h-10.797c-10.25 0-10.794-8e-3 -10.737-0.14816z"/><path d="m115.54 117.96c-0.047-0.17462-1.2503-5.6324-2.6741-12.128-1.4238-6.4961-2.6639-12.106-2.7559-12.467-0.25734-1.0093-0.56607-1.815-0.99761-2.6037-0.21659-0.39581-0.4065-0.74824-0.42202-0.78316-0.0155-0.0349 2.4514-0.0635 5.4822-0.0635 3.0307 0 5.51 0.01 5.5095 0.0212-8.5e-4 0.0116-0.0556 0.20139-0.12246 0.42166-0.21176 0.69789-0.24562 1.7094-0.0937 2.7991 0.10681 0.76599 2.9122 14.622 3.0352 14.991 0.0144 0.0431 0.88159-4.0415 1.9272-9.077l1.9011-9.1553 9.4268-0.00102 0.12881 0.5715c0.0708 0.31433 0.95175 4.3624 1.9576 8.9958 1.0058 4.6334 1.8565 8.4934 1.8903 8.5779 0.0704 0.1756 2.9519-13.918 3.0839-15.083 0.10146-0.89587 0.0337-2.2156-0.13864-2.702l-0.12755-0.35984h5.9273l-0.26158 0.38021c-0.40256 0.58508-0.90544 1.6981-1.148 2.5408-0.26016 0.90395 1e-3 -0.33554-2.9139 13.817-1.2968 6.2956-2.3825 11.487-2.4129 11.536-0.0375 0.0607-1.4857 0.0892-4.5318 0.0892-4.1898 0-4.4795-9e-3 -4.5218-0.14817-0.0248-0.0815-0.96266-4.2807-2.0841-9.3315-1.1214-5.0508-2.0562-9.2006-2.0772-9.2216-0.0211-0.0211-0.0526-0.0224-0.0702-3e-3s-0.89625 4.1691-1.9526 9.2216c-1.0564 5.0525-1.9399 9.253-1.9634 9.3345-0.04 0.13869-0.3267 0.14817-4.4788 0.14817h-4.436l-0.0854-0.3175z"/><path d="m85.096 118.17c-0.06399-0.18091-0.80381-5.5952-0.76926-5.6297 0.01796-0.018 0.29795 0.10095 0.62222 0.26424 0.32426 0.1633 0.83298 0.38482 1.1305 0.49227 0.5401 0.19506 0.54933 0.19541 5.875 0.22217 2.9337 0.0147 5.5353 2e-3 5.7813-0.0276 0.28732-0.035 0.52954-0.12512 0.67733-0.25216l0.23007-0.19776 0.0286-1.4666c0.0345-1.7667-0.0264-2.0541-0.47849-2.2586-0.2763-0.12495-0.89548-0.14646-5.3921-0.18732-5.0268-0.0457-5.0862-0.0482-5.6727-0.24272-1.5572-0.51644-2.2846-1.3743-2.6885-3.1706-0.1608-0.71503-0.177-1.1175-0.21002-5.218-0.03739-4.6429 0.0036-5.5027 0.32214-6.7637 0.48318-1.9125 1.7254-3.2486 3.4342-3.6937 0.42214-0.10995 1.7551-0.12766 9.6072-0.12766h9.117l0.0437 0.1905c0.10775 0.46922 0.76045 5.3172 0.72117 5.3565-0.0242 0.0242-0.28775-0.0701-0.58575-0.20959-0.29799-0.13944-0.84661-0.3379-1.2191-0.44101-0.65696-0.18185-0.82789-0.18845-5.683-0.21952-5.4923-0.0351-6.1006-1e-3 -6.4598 0.35775l-0.21855 0.21855v1.5197c0 1.7631 0.0142 1.7979 0.79538 1.9461 0.2693 0.0511 2.0916 0.0864 4.4594 0.0864 2.4099 0 4.2663 0.0365 4.6628 0.0916 2.0167 0.2805 3.4046 1.1871 4.0494 2.645 0.4832 1.0926 0.51115 1.4529 0.51015 6.5767-8.5e-4 4.1241-0.0192 4.7974-0.15011 5.5033-0.27361 1.4752-0.77891 2.6768-1.3998 3.3289-0.64356 0.67585-1.7871 1.162-3.1058 1.3204-1.1655 0.14001-17.985 0.12713-18.034-0.0138z"/></g><path d="m70.068 127.17v-1.1853h141.9v2.3707h-141.9z" fill="#c41230"/><g><path d="m13.194 145.32c-4.6285-0.5607-8.071-2.8026-9.7589-6.3554-0.96245-2.0258-1.5067-4.5711-1.6922-7.9148-0.1113-2.0054-0.10837-24.984 0.0034-27.041 0.34467-6.339 1.9718-10.029 5.4181-12.287 1.8791-1.2312 3.9786-1.9056 6.6856-2.1476 0.75476-0.0675 7.0686-0.0873 22.011-0.069l20.953 0.0256 0.82459 5.3299c0.45353 2.9315 0.8116 5.3429 0.79572 5.3588-0.01588 0.0159-0.15741-0.027-0.31452-0.0953-0.85602-0.37204-3.6133-1.0228-5.0688-1.1963-1.5621-0.18623-26.669-0.18632-27.548-8e-5 -1.2164 0.25771-1.956 0.8753-2.3182 1.9355-0.13973 0.40911-0.15046 1.419-0.17325 16.311-0.01731 11.309 0.0026 16.033 0.06931 16.425 0.23646 1.3902 0.88144 2.0373 2.4261 2.4341 0.51526 0.13237 1.0744 0.1482 5.2336 0.1482 4.1464 0 4.7194-0.0161 5.2289-0.14712 1.5218-0.39123 2.2222-1.1307 2.4295-2.5648 0.05056-0.3499 0.08595-2.9611 0.08695-6.4156l0.0017-5.8255-9.1017 0.053-0.55033 0.20275c-0.30268 0.11151-0.83131 0.33029-1.1747 0.48619s-0.6387 0.28345-0.65617 0.28345c-0.01747-2e-5 -0.03176-2.3241-0.03176-5.1647v-5.1647h33.535l-0.02799-9.8848c-0.02779-9.8173-0.02923-9.8895-0.21094-10.572-0.10062-0.37783-0.2573-0.88265-0.34818-1.1218l-0.16521-0.43479h10.618c5.8396 0 10.618 0.01 10.618 0.0212 5.1e-5 0.0116 0.16838 1.2212 0.37407 2.688 0.20569 1.4668 0.36446 2.6764 0.35283 2.688-0.01162 0.0116-0.39903-0.0911-0.86091-0.22826-1.5497-0.46026-1.6745-0.46926-6.5124-0.46962l-4.4873-3.3e-4 -0.02216 3.3288-0.02215 3.3288 4.2555-0.0353c4.4523-0.037 4.5386-0.0436 5.7795-0.44257 0.23283-0.0749 0.52811-0.16929 0.65617-0.20982l0.23283-0.0737v6.2444l-0.48683-0.16935c-1.5247-0.5304-1.4793-0.52624-6.1383-0.56183l-4.2968-0.0328v7.5574l4.9742-0.0336c5.3483-0.0361 5.2433-0.0281 6.7098-0.5101 0.56314-0.18508 0.63729-0.19309 0.6552-0.0708 0.01111 0.0758-0.16262 1.2999-0.38606 2.7202l-0.40626 2.5823-21.35 0.043-0.06203 1.737c-0.08928 2.5002 0.01107 18.159 0.12398 19.344 0.23058 2.4212 0.63802 3.644 1.9114 5.7362l0.219 0.35983h-9.4028c-8.8977 0-9.4029-8e-3 -9.4053-0.14817-0.0053-0.31755-0.66041-4.9456-0.70656-4.9918-0.02693-0.0269-0.06696 4e-3 -0.08894 0.069-0.59023 1.7416-1.1432 2.769-1.9113 3.5512-0.83366 0.84896-1.8057 1.2205-3.7432 1.4306-1.3182 0.14293-22.533 0.10331-23.752-0.0444z"/><path d="m204.94 133.18v15.854l2.8996-0.0455c3.108-0.0487 4.0006-0.13732 5.3826-0.53537 2.6869-0.77389 4.4694-2.5725 5.1092-5.1558 0.2559-1.0332 0.27811-3.2969 0.0424-4.3021-0.53264-2.2713-1.8578-3.8932-4.0018-4.8979-1.5533-0.72792-2.937-0.91778-6.6849-0.91778zm2.9208 2.4128 1.3394 0.0171c1.5527 0.0198 2.5321 0.17705 3.4282 0.54983 2.0438 0.85025 3.1128 2.7783 2.9487 5.3175-0.19549 3.0243-1.7373 4.6022-4.8777 4.9914-0.39459 0.0489-1.2046 0.0889-1.7999 0.0889h-1.0821l0.0217-5.4824z"/><path d="m187.33 141.09v-7.9163l3.0903 6e-3 2.4553 3.477c3.0481 4.3163 3.8425 5.477 4.7595 6.9542 0.39843 0.64174 0.73652 1.1547 0.75131 1.1399 0.0148-0.0148-8e-3 -0.86371-0.0509-1.8865-0.0428-1.0228-0.0791-3.6217-0.0807-5.7754l-3e-3 -3.9159h2.9633v15.833l-3.0903-4e-3 -2.8787-4.0691c-2.9143-4.1195-3.6376-5.1856-4.5682-6.7334l-0.5155-0.85739 0.033 5.8316 0.033 5.8316h-2.8986v-7.9163z"/><path d="m178.82 133.18-2.7094 2e-3 -3.0902 7.798c-1.6997 4.2888-3.1029 7.851-3.1182 7.9163v5.1e-4c-0.0232 0.0996 0.22764 0.1149 1.5208 0.0956l1.5487-0.0227 0.76533-1.9896 0.76481-1.9901 5.9454-0.0444 0.5302 1.3772c0.29136 0.7573 0.64254 1.6721 0.78083 2.033l0.25167 0.65629h1.5167c0.83412 0 1.5178-0.0287 1.5188-0.0636s-1.3988-3.597-3.1114-7.9158zm-1.3358 3.7936 0.32039 0.91726c0.17645 0.50475 0.62037 1.7235 0.98599 2.7078 0.36561 0.98438 0.66455 1.8128 0.66455 1.8412s-0.89953 0.0517-1.9988 0.0517c-1.8698 0-1.9946-9e-3 -1.9389-0.1478 0.35637-0.88668 0.76243-1.9788 1.31-3.5212z"/><path d="m158.38 141.09v-7.9163h2.8787v13.377h7.4507v2.4553h-10.329z"/><path d="m111.98 141.09v-7.9163h2.023c1.8479 0 2.028 0.0128 2.0814 0.14816 0.51736 1.3111 3.2608 9.042 3.5514 10.008 0.21654 0.7196 0.40758 1.3222 0.42453 1.3392 0.017 0.0169 0.0703-0.0956 0.11854-0.25002 0.0483-0.15446 0.24455-0.78684 0.43624-1.4053 0.19168-0.61845 1.0514-3.0708 1.9104-5.4496 0.85902-2.3788 1.5619-4.3398 1.5619-4.3577 0-0.0179 0.93345-0.0326 2.0743-0.0326h2.0743v15.833h-2.9861l0.0564-5.6092c0.031-3.085 0.0778-5.8187 0.10384-6.0748 0.0685-0.6725-0.059-0.45831-0.42831 0.71967-0.23221 0.74071-3.3288 9.3204-3.9037 10.816-0.0494 0.12861-0.17922 0.14816-0.98354 0.14816h-0.9266l-0.11371-0.27516c-0.35938-0.86961-3.4457-9.3804-3.8074-10.499l-0.4313-1.3341 0.0618 12.108h-2.8975z"/><path d="m96.738 133.18v15.833h2.8768l0.02222-3.0691 0.02222-3.0691 0.9214-0.0243c0.71756-0.0188 0.95167 3e-3 1.0583 0.10025 0.0753 0.0684 1.0704 1.4591 2.2112 3.0903l2.0743 2.9657 1.7673 3e-3c1.4021 2e-3 1.7497-0.0188 1.6836-0.10284-0.33731-0.42845-4.5208-6.2607-4.5553-6.3505-0.03-0.0782 0.14975-0.18925 0.57258-0.35398 0.66079-0.25745 1.3964-0.68925 1.7921-1.0516 0.38903-0.35626 0.88676-1.1808 1.0692-1.7715 0.21137-0.68431 0.23034-2.1139 0.0377-2.8582-0.37122-1.4345-1.7112-2.6204-3.4256-3.0324-1.0415-0.25032-1.9932-0.30851-5.0565-0.30851zm2.9213 2.4128 1.6537 9e-3c2.4831 0.0129 3.3981 0.28346 3.8954 1.1519 0.17899 0.31256 0.20858 0.47045 0.20774 1.1255-4.9e-4 0.61768-0.0353 0.82619-0.18294 1.1007-0.35944 0.66836-0.91879 1.0267-1.973 1.2645-0.88838 0.20045-3.5354 0.2909-3.5998 0.12299-0.0255-0.0661-0.03617-1.1675-0.02377-2.4474z"/><path d="m88.239 133.17-2.7115 0.0466-3.112 7.8316c-1.7113 4.3074-3.1131 7.8612-3.1151 7.8972-2e-3 0.0363 0.69186 0.0551 1.5415 0.0424l1.5446-0.0233 0.76791-1.9895 0.76843-1.9895 5.9423-0.0444 0.4191 1.0806c0.2303 0.59432 0.58235 1.5091 0.78238 2.033l0.36328 0.9524h1.5214c1.5029 0 1.5202-2e-3 1.4743-0.17777-0.02554-0.0977-1.4281-3.661-3.1166-7.9184zm-1.3208 3.8762c0.0011 3.1e-4 0.0022 9.9e-4 0.0031 2e-3 0.0293 0.0345 0.25535 0.65333 0.5023 1.3751 0.24694 0.72178 0.67183 1.896 0.94464 2.6097s0.4961 1.333 0.4961 1.3762c0 0.0458-0.82646 0.078-1.989 0.078h-1.9885l0.21808-0.57154c0.65326-1.7097 1.2312-3.2948 1.481-4.0628 0.15027-0.46196 0.29665-0.81636 0.33228-0.80667z"/><path d="m69.391 141.09v-7.9163h10.075v2.3707h-7.1967v4.1487h6.096v2.3707h-6.096v6.9427h-2.8787z"/><path d="m139.37 149.11c-2.0521-0.52657-3.2597-2.0173-3.2597-4.0239 0-1.4732 0.7123-2.6736 2.249-3.7901l0.71188-0.51722-0.59723-0.64717c-1.0964-1.1881-1.5644-2.4911-1.362-3.7926 0.23362-1.5027 1.1979-2.517 2.8144-2.9604 0.73996-0.20298 2.6782-0.20671 3.4872-7e-3 1.0663 0.2636 1.8307 0.7448 2.2955 1.445 0.44429 0.66936 0.59006 1.2795 0.54235 2.2702-0.0359 0.74544-0.0723 0.89639-0.35404 1.4664-0.38289 0.77474-1.0049 1.456-1.8937 2.074l-0.66968 0.46566 1.3524 1.4182c0.74378 0.77999 1.3859 1.4182 1.4269 1.4182 0.20023 0 0.78144-1.728 0.89946-2.6742l0.0625-0.50083 2.6888-0.0468-0.0589 0.52053c-0.14826 1.3104-0.8443 3.2097-1.5547 4.2422l-0.25207 0.36637 3.047 3.1727-3.9554-4e-3 -1.0848-1.2582-0.23913 0.17027c-0.44872 0.31952-1.8074 0.90628-2.5284 1.0919-1.0215 0.26299-2.9365 0.31437-3.7677 0.10109z"/></g><path d="m142.64 138.51c0.46489-0.45768 0.58905-0.64 0.70319-1.0326 0.1599-0.55003 0.11391-0.94865-0.15641-1.3557-0.51669-0.77807-2.0968-0.89275-2.8328-0.2056-0.74549 0.69607-0.54004 1.734 0.56724 2.8657l0.58701 0.59995 0.28358-0.15791c0.15595-0.0869 0.53762-0.40803 0.84814-0.71374z" fill="#fff"/><path d="m142.5 146.83c0.51373-0.12784 1.4436-0.54571 1.6244-0.73001 0.076-0.0774-0.29007-0.50326-1.5775-1.835-1.9256-1.9919-1.6824-1.8952-2.6238-1.0433-0.64992 0.58814-0.93594 1.1524-0.93344 1.8416 6e-3 1.6073 1.3773 2.2975 3.5104 1.7667z" fill="#fff"/></g></svg>