<?xml version="1.0" standalone="no"?>
<!DOCTYPE svg PUBLIC "-//W3C//DTD SVG 1.1//EN" "http://www.w3.org/Graphics/SVG/1.1/DTD/svg11.dtd">
<svg xmlns="http://www.w3.org/2000/svg" width="552.6099853515625" height="314.1099853515625" version="1.1" viewBox="0 0 552.61 314.11" xml:space="preserve"><g transform="translate(-49.647 -59.155)"><ellipse cx="325.36" cy="150.78" rx="88.923" ry="88.802" fill="#f9fafb" stroke="#d1d2d3" stroke-width="5.6507"/></g><g transform="translate(-49.647 -59.155)"><g fill="#be404b"><path d="m160.77 318.43-5.6914 0.81304c-0.27897-4.784-0.5033-9.9259 0.5529-14.635 0.72686-3.2417 2.9514-7.207 1.0497-10.449-2.0546-3.5051-6.7005-2.7278-8.1965 0.74068-2.1286 4.9329-2.4612 13.364-1.9725 18.653 0.32459 3.5075 0.73421 7.5892 3.3287 10.229 5.2483 5.3402 10.731 0.75615 10.929-5.3508"/><path d="m462.41 312.74c4e-3 2.0895 1.7213 15.84 6.4826 10.067 1.8318-2.2213 1.026-8.0672 1.4277-10.88 0.73419-5.1362 3.6742-11.919 2.3978-17.06-2.0498-8.2559-13.705-5.8053-18.407-2.0237-6.0346 4.8548-11.555 13.676-12.151 21.523-0.57969 7.6412 4.9556 14.055 12.088 7.9453 3.1628-2.71 5.4484-6.4354 8.1624-9.5714m1.6262-16.261-13.822 19.514h-0.81306c1.409-7.9046 7.564-15.845 14.635-19.514"/><path d="m189.23 319.24h0.81306c0.4211 4.6377 4.3727 10.393 9.1153 5.4329 4.6426-4.854 9.1445-13.981 12.024-20.068h0.81306c-0.43982 5.5849-1.4928 12.935 2.1977 17.779 1.9668 2.5806 7.9485 4.8418 9.7901 0.74149 1.0253-2.2831-3.2221-4.7678-3.6718-7.1534-1.0066-5.3483 4.5426-24.529-5.0637-24.029-6.807 0.35386-12.337 12.126-16.261 16.727 0.0961-2.2205 0.40671-4.319 0.81223-6.5045 0.57403-3.0921-1.2106-12.668-5.8069-7.0549-2.2343 2.7278-1.7602 7.1054-2.8416 10.307-2.105 6.2321-9.5251 14.733-16.556 13.822 6.6468-6.6516 11.976-12.758 10.396-22.766-1.6708-10.588-13.122-11.288-18.326-3.2514-4.7906 7.3972-7.6517 17.95-2.6441 26.017 5.6012 9.0242 20.106 10.441 25.209 0m-11.383-20.327c-1.1147 5.3296-3.0433 10.28-7.3176 13.822l5.6915-13.822h1.6261"/><path d="m483.55 298.1c-0.48947-2.5685-2.5864-14.017-7.368-7.868-3.9832 5.1223-2.2498 21.309-1.0716 27.382 0.58943 3.0408 3.1604 9.1307 7.1932 5.998 3.2303-2.5083 3.6206-8.0299 4.6206-11.689 1.8213-6.6362 4.8459-14.033 10.456-18.36 2.2684-1.7489 11.667-2.3213 11.667-5.254 0-3.9767-6.5614-4.193-9.2364-3.9442-7.3908 0.68789-13.269 7.4396-16.261 13.736m-1.0838 0.54229-0.27177 0.54153 0.27177-0.54153"/><path d="m123.37 298.1c-0.30058-2.5335-2.5319-14.412-7.1842-7.8688-4.2621 5.9955-2.2701 21.422-0.86509 28.195 0.69925 3.3734 3.7368 8.4485 7.3989 4.6158 7.3599-7.703 4.6784-20.962 13.692-28.825 2.3204-2.0253 12.459-3.1449 12.459-5.95 0-4.0735-6.5078-4.1694-9.2396-3.8385-7.3973 0.89678-13.119 7.3631-16.261 13.671"/><path d="m152.01 278.38c-4.6117 2.157-1.3635 10.12 3.862 7.8387 6.7379-2.9433 2.2928-10.717-3.862-7.8387"/><path d="m572.99 277.78c-0.95129 12.084-0.35773 25.539-9.0169 34.962-3.2197 3.4994-6.2687 7.1427-11.31 6.5045 5.789-5.8378 11.424-12.298 10.415-21.14-1.366-11.944-13.424-13.597-19.302-4.0645-4.7076 7.6274-6.9517 17.014-2.1953 25.201 7.1306 12.287 22.538 7.5769 28.156-3.249 2.8782 5.989 0.95939 13.21 6.1224 18.38 11.895 11.916 30.116-17.574 19.083-21.632-1.2521 3.8434-6.3419 20.24-12.668 16.963-3.301-1.7099-3.5043-8.908-3.5856-12.085-0.24391-10.036-2.8213-29.374 3.1954-38.029 3.7644-5.4134 14.806-2.7124 20.375-5.0638-3.1547-6.3086-12.48-5.6874-18.7-5.6914 0.60164-4.4694 3.2279-9.2828 2.992-13.774-0.30873-5.8354-6.4232-0.7903-7.8623 1.5822-1.9432 3.1937-1.3984 7.4143-3.8295 10.339-2.5936 3.1164-12.684 2.3278-11.968 7.472 0.60168 4.2857 7.0818 3.3246 10.098 3.3246m-17.887 21.14c-0.27656 5.2573-2.4311 10.605-7.3176 13.009 1.3497-5.1621 2.9921-9.6242 7.3176-13.009"/><path d="m396.56 262.33h0.81306c-0.0433 15.824-0.61711 32.17-1.6985 47.971-0.29049 4.2385-3.7304 13.468 1.0057 16.104 4.9646 2.7612 7.751-3.5555 9.0714-7.1599 4.9768-13.587 12.121-25.777 17.639-39.027h0.81306c0 12.195-1.7139 26.616 2.8197 38.213 1.3513 3.4588 13.011 13.296 14.319 4.8467 0.36924-2.3856-3.2897-4.1296-4.5255-5.7435-1.8725-2.4457-2.4181-5.863-2.7172-8.8592-0.87975-8.7917-0.13915-17.997-0.13915-26.831 0-3.5913 0.9399-8.8852-1.4163-11.916-3.7564-4.8304-8.921-1.618-11.787 2.1636-5.8402 7.7038-11.762 18.339-14.441 27.64h-0.81306c0-11.583 2.4554-23.477 1.0448-34.962-0.46767-3.806-0.29097-9.3194-4.3848-11.324-5.3304-2.6108-11.702 6.985-14.19 10.511-9.4543 13.399-19.329 33.624-23.123 49.597-4.2531-14.387 1.6708-30.446 3.3783-44.719 0.53172-4.445 2.5685-13.276-2.7384-15.748-7.8656-3.6637-8.7689 12.372-8.7705 16.561v52.849c0 4.0133-1.0952 15.184 4.9109 15.629 7.8339 0.57973 9.6291-20.625 11.602-26.199 2.5351-7.1647 5.3491-14.223 8.5046-21.14 4.4622-9.7795 10.257-18.802 14.823-28.457m8.9437 37.401-0.81308 0.8131 0.81308-0.8131"/><path d="m259.96 320.05c-7.5355-2.984-8.877-11.428-7.3054-18.701 2.3815-11.024 6.9688-21.248 8.5835-32.523 0.47632-3.3303 1.4855-9.7934-0.48783-12.751-3.4205-5.1264-10.293 0.3726-12.25 3.819-4.4735 7.877-2.9677 18.488-7.2599 25.856-1.7416 2.9888-5.5858 4.4588-8.0355 6.8037-4.6792 4.48-7.6632 11.298-8.1331 17.738-1.005 13.771 12.92 20.42 18.627 5.6914h0.8131c2.3587 7.9396 9.7771 11.783 17.074 7.3176 4.8735 16.407 18.722 6.1964 26.831 0 4.3922 8.9039 13.244 4.1629 18.7-0.81303-2e-3 11.857-11.445 14.582-15.34 25.205-2.4936 6.8021-0.44895 16.808 4.8556 21.779 3.0327 2.8417 8.999 5.976 12.107 1.679 4.3052-5.9541 3.7824-17.241 4.1011-24.271 0.64963-14.311 1.8887-28.189 4.6841-42.279 0.85045-4.2848 4.9824-18.048-1.4644-19.207-4.6361-0.83418-4.9467 5.5248-5.4874 8.6372-1.97 11.333-4.9532 21.456-15.652 27.644-1.7538-4.3052-3.1563-7.7217-0.94395-12.196 2.0359-4.1182 9.9364-11.097 5.3922-15.905-3.884-4.1116-8.0867 1.1139-9.7389 4.5231-3.5108 7.2444-3.0002 16.752-8.6819 22.689-3.4287 3.5824-8.1201 5.5394-11.587 0.84152-4.6987-6.3663 1.6644-16.804 4.6206-22.718 6.5013-13.003 15.704-31.204 10.651-46.309-3.875-11.586-13.556 5.4378-14.94 9.721-6.2492 19.345-9.734 37.322-9.734 57.728m16.261-52.036-4.8784 17.887h-0.8131c0.48218-5.9061 2.0758-13.105 5.6915-17.887m-23.579 4.0654-2.4392 12.196h-0.81306l3.2522-12.196m17.887 14.635-0.81306 0.81305 0.81306-0.81305m-29.27 10.57c-8.1e-4 8.1461-1.2911 15.079-8.1306 20.327-2.1392-7.4444 2.101-15.987 8.1306-20.327m66.671 24.392-0.8131 0.8131 0.8131-0.8131m-1.6262 17.887-2.4392 25.205c-10.032-5.5053-4.9434-19.755 2.4392-25.205z"/><path d="m519.33 315.18c5.0491 7.0167 10.505 12.004 19.514 12.196 0.25209-8.0559-11.505-10.636-13.44-18.701-1.2114-5.0329 3.0246-9.6999 5.3093-13.822h0.81305c4.789 2.614 9.1064-7.5452 6.0086-11.018-2.6831-3.0173-6.2606-0.0197-8.3095 2.1099-4.7646 4.954-9.8869 11.397-12.334 17.852-1.0407-9.5251 1.8132-20.607 3.1466-30.083 1.244-8.8526 2.8295-19.554 1.5774-28.454-0.47969-3.4002-4.8377-8.1559-8.2282-4.3906-2.8539 3.1815 0.52846 14.673 0.11381 19.022-1.5285 16.036-3.7645 31.965-5.6833 47.971-0.55287 4.6239-2.5612 13.694 0.73175 17.626 5.3988 6.4354 9.586-7.1013 10.781-10.308"/><path d="m84.34 264.77c0 4.7727 1.1521 11.795-1.6164 15.994-4.3897 6.6566-15.493 8.7729-20.964 14.976-2.1253 2.4107-3.5661 7.5867 1.4562 7.4785 6.4021-0.13827 13.541-10.438 20.311-12.43 0.03362 12.838-1.3204 28.03 0.15269 40.638 0.49355 4.2246 5.5809 5.0475 7.7192 1.4562 4.8865-8.2063 1.1765-24.046 1.0683-33.15-0.03362-3.0132-1.6302-7.5468 0.02881-10.253 5.5069-8.9868 24.651-11.791 34.124-12.441 2.9702-0.20315 11.022 1.6652 13.089-0.59435 4.9093-5.367-8.7282-7.5436-11.463-7.5444-12.104-4e-3 -24.827 4.0035-35.775 8.8795-1.0033-19.164 16.501-25.555 32.523-29.173 3.936-0.88868 15.814-4.1938 18.873-0.42014 1.4985 1.8489 0.0495 6.0882 0.64073 8.4535 8.7453-2.8002 12.3-13.642 1.6261-16.826-9.2413-2.7571-21.932 0.61224-30.896 3.358-16.913 5.1808-32.061 12.753-47.158 21.763-5.3727 3.2059-13.498 6.4639-17.281 11.598-4.7898 6.4988 6.6273 10.318 11.334 7.9623 3.197-1.6001 3.8344-7.7103 6.3492-10.35 3.9612-4.1564 10.621-7.1924 15.859-9.3738"/></g><g fill="#416baf"><path d="m361.59 202.97c-0.39135 2.6221 2.2001 4.9792 1.4619 7.2737-1.6099 5.0028-12.401 8.8071-16.91 10.324-20.981 7.0615-38.815 0.17563-57.728-8.6543l3.2522-6.5045c-5.9663 1.1871-13.42 7.2054-12.196 13.822l5.6914-5.6914h0.8131c4.4304 5.2068 12.314 8.4038 18.7 10.567 22.971 7.781 44.901 2.4636 64.232-11.38l4.8784 4.0653c-0.86592-6.4777-6.4517-11.296-12.196-13.822"/><path d="m340.49 196.35c-6.5297 1.9098-5.4223 17.713 2.3221 15.408 6.5939-1.9635 5.0548-17.566-2.3221-15.408m3.2197 9.0648-0.81306 4.0653h-1.6261l-0.81306-3.2522 3.2522-0.81306"/><path d="m312.9 196.35c-6.4175 1.9383-5.337 17.407 2.2725 15.482 6.6021-1.67 5.3224-17.776-2.2725-15.482m3.1677 9.0648v4.0653h-2.4392v-4.0653h2.4392"/></g><g fill="#be404b"><path d="m401.44 136.3 0.81303 0.8131-0.81303-0.8131"/><path d="m400.89 132.78 0.27177 0.54152-0.27177-0.54152"/><path d="m399.81 128.98v2.4392h0.8131l-0.8131-2.4392"/><path d="m399.27 127.09 0.27177 0.54152-0.27177-0.54152"/><path d="m293.3 157.44c-3.2482 0.41052-11.779-0.43168-13.943 2.1018-4.4352 5.1906 10.753 2.9002 12.317 2.7766-0.75207 9.4454-5.6703 31.535-17.887 32.252-4.5223 0.26504-7.8087-4.5361-12.196-5.4207 2.3091 14.792 19.222 11.309 27.571 3.8002 9.2494-8.3168 7.9428-19.548 12.841-29.73 1.757-3.6531 6.4403-3.871 9.9982-4.1539-1.7335 8.4022-3.7173 16.726-5.0784 25.205-0.37789 2.353-1.4359 8.2128 2.7148 7.7518 4.1084-0.45616 5.5142-6.3142 7.046-9.3779 4.4215-8.8413 10.444-17.254 17.27-24.392 1.044 4.3857 1.3969 9.3129 1.5945 13.822 0.13019 2.9774-0.0288 5.9646 0.0433 8.9437 0.58214 23.792 16.714-8.0209 21.475-14.635 1.3066-1.8148 3.9596-6.4818 6.7143-5.9915 2.9465 0.52442 1.9196 7.9998 1.8692 10.057-0.24488 10.004-2.9872 33.348 14.647 23.656 2.6352-1.4481 5.028-3.3751 7.3168-5.3126 2.6937-2.2806 6.8623-5.6589 7.5526-9.3518 0.74639-3.993-3.5271-2.0684-5.1101-0.73662-2.8831 2.4262-12.006 15.711-16.379 10.24-6.2687-7.8428 2.6384-23.802-1.518-33.045-2.4848-5.5248-8.534-4.1759-12.157-0.80978-6.7102 6.2354-15.114 16.312-17.919 25.116h-0.8131c0-7.0224 0.44655-14.181-0.59351-21.14-0.40911-2.7352-0.8448-6.5403-4.3206-6.885-6.4525-0.64068-12.402 10.207-16.225 14.203 1.1301-3.9832 10.135-24.396 0.80978-22.377-4.1377 0.89516-4.8621 4.8328-7.6509 7.2834-2.3929 2.1018-6.385 2.4888-9.4202 2.8978l4.0654-29.27c3.9206-0.16901 26.855-2.0668 21.927-9.4039-2.6661-3.9686-12.519-0.12052-16.235 0.62281l-37.401 7.4802c-5.5272 1.1164-11.015 2.9108-11.344 9.4316-0.14636 2.9034 3.3303 18.272 8.4225 15.305 4.1222-2.4018-4.6645-11.086-2.0904-15.131 2.3652-3.7181 22.767-8.6217 24.848-4.0865 3.31 7.2159-2.431 20.588-2.762 28.304"/></g><path d="m263.21 186.71c-1.1936-7.9713-4.4873-15.451-5.4589-23.579-1.6896-14.123 2.4359-29.257 9.421-41.466 4.4995-7.8648 10.876-14.999 17.991-20.596 49.832-39.2 121.19 12.252 106.51 71.819 7.5712-1.2594 5.6914-15.325 5.6914-21.14-2e-3 -22.502-12.359-43.824-30.896-56.306-33.833-22.78-81.459-12.308-102.91 22.157-9.5812 15.391-12.306 34.417-8.464 52.036 1.1968 5.4914 2.9579 14.146 8.1184 17.074" fill="#416baf"/><path d="m259.96 186.71c-1.9847-6.8923-5.4963-13.207-6.9517-20.327-4.1783-20.434 0.58703-42.601 13.032-59.354 34.935-47.028 112.56-38.802 132.14 18.701 0.89759-4.2735-2.3522-9.2892-4.2751-13.009-6.2028-11.994-15.873-21.891-27.434-28.779-37.124-22.119-86.684-7.3013-107.79 29.592-9.4503 16.52-11.437 36.076-7.3192 54.475 1.2895 5.7622 3.4303 15.316 8.5982 18.7" fill="#416baf"/></g></svg>