<?xml version="1.0" standalone="no"?>
<!DOCTYPE svg PUBLIC "-//W3C//DTD SVG 1.1//EN" "http://www.w3.org/Graphics/SVG/1.1/DTD/svg11.dtd">
<svg xmlns="http://www.w3.org/2000/svg" width="600" height="298.6700134277344" version="1.1" viewBox="0 0 600 298.67">
 <defs>
  <clipPath id="clipPath18">
   <path d="m91.973 125.65c0-47.248 56.28-85.549 125.71-85.549 69.425 0 125.71 38.301 125.71 85.549 0 47.246-56.287 85.549-125.71 85.549-69.434 0-125.71-38.303-125.71-85.549"/>
  </clipPath>
  <clipPath id="clipPath86">
   <path d="m0 224h450v-224h-450z"/>
  </clipPath>
 </defs>
 <g transform="matrix(1.3333 0 0 -1.3333 0 298.67)">
  <g clip-path="url(#clipPath18)">
   <g transform="translate(123.3 66.378)">
    <path d="m0 0h196.44c17.075 13.495 30.257 38.496 22.817 40.25-10.615 2.499-39.154 4.498-39.154 4.498l-5.311 1.251s-7.076 2.748-46.474 8.999c-39.405 6.248-102.31-6.749-104.83-7.246-2.532-0.504-9.856-4.003-9.856-4.003-22.734 3.499-44.205-4-44.205-4s-2.273-12.249 8.841-37.25c2.192-4.924 10.171-8.238 21.73-10.397z" fill="#0a974b"/>
   </g>
   <g transform="translate(217.75 209.69)">
    <path d="m0 0c-2.463 0-4.906-0.053-7.336-0.146l6.618-84.043 6.845 84.089c-2.03 0.073-4.068 0.1-6.127 0.1" fill="#fbcf06"/>
   </g>
   <g transform="translate(237.94 208.6)">
    <path d="M 0,0 -20.91,-83.103 14.615,-2.186 C 9.852,-1.268 4.964,-0.539 0,0" fill="#fbcf06"/>
   </g>
   <g transform="translate(267 202.99)">
    <path d="M 0,0 -49.962,-77.487 14.947,-5.082 C 10.156,-3.176 5.165,-1.475 0,0" fill="#fbcf06"/>
   </g>
   <g transform="translate(295.75 191.54)">
    <path d="M 0,0 -78.721,-66.038 13.103,-7.997 C 9.019,-5.132 4.644,-2.457 0,0" fill="#fbcf06"/>
   </g>
   <g transform="translate(320.25 174.29)">
    <path d="M 0,0 -103.215,-48.786 10.018,-11.128 C 7.107,-7.237 3.753,-3.511 0,0" fill="#fbcf06"/>
   </g>
   <g transform="translate(337.71 150.9)">
    <path d="M 0,0 -120.677,-25.4 4.604,-13.545 C 3.62,-8.897 2.074,-4.372 0,0" fill="#fbcf06"/>
   </g>
   <g transform="translate(217.03 125.5)">
    <path d="m0 0 124.41-15.716c1.271 4.517 1.965 9.16 2.104 13.913z" fill="#fbcf06"/>
   </g>
   <g transform="translate(181.62 206.16)">
    <path d="M 0,0 35.408,-80.658 14.539,2.294 C 9.589,1.718 4.74,0.947 0,0" fill="#fbcf06"/>
   </g>
   <g transform="translate(152.5 197.49)">
    <path d="M 0,0 64.532,-71.984 14.799,5.151 C 9.677,3.646 4.732,1.932 0,0" fill="#fbcf06"/>
   </g>
   <g transform="translate(125.97 183.06)">
    <path d="M 0,0 91.059,-57.555 12.895,8.014 C 8.326,5.545 4.017,2.866 0,0" fill="#fbcf06"/>
   </g>
   <g transform="translate(104.95 162.77)">
    <path d="M 0,0 112.081,-37.271 9.818,11.066 C 6.145,7.567 2.858,3.867 0,0" fill="#fbcf06"/>
   </g>
   <g transform="translate(93.163 137.23)">
    <path d="M 0,0 123.87,-11.724 4.498,13.399 C 2.468,9.074 0.966,4.597 0,0" fill="#fbcf06"/>
   </g>
   <g transform="translate(94.169 109.98)">
    <path d="M 0,0 122.863,15.52 -2.221,13.732 C -2.074,9.029 -1.309,4.449 0,0" fill="#fbcf06"/>
   </g>
   <g transform="translate(306.23 66.429)">
    <path d="m0 0c8.556 5.67 16.927 12.341 22.785 19.45-11.002-5.286-21.659-12.159-30.151-19.45zm-88.499 37.011c-11.754 0-22.987-0.767-33.302-2.017-1.068 0.393-2.137 0.791-3.215 1.168-4.165 1.513-8.438 2.854-12.802 4.01 14.455 1.832 31.135 2.926 48.967 2.913 12.294 0.027 24.014-0.446 34.928-1.22-6.905-1.419-13.668-3.157-20.191-5.18-4.686 0.217-9.479 0.344-14.385 0.326m-13.661-10.253c-3.927 1.869-7.93 3.629-11.998 5.29 8.164 0.476 16.772 0.745 25.683 0.755 0.791 0 1.57-0.01 2.357-0.013-5.454-1.878-10.799-3.889-16.042-6.032m-62.787 18.114c19.338 5.336 46.032 9.064 75.712 9.008 29.839 0.056 56.52-3.513 76.848-7.513-9.677-0.104-19.43-0.89-29.031-2.298-14.075 2.23-30.154 3.804-47.451 3.761-20.94 0.028-40.294-2.441-56.047-5.952-6.574 1.419-13.29 2.433-20.031 2.994m198.67-5.623c0.193 0.528 0.376 1.122 0.554 1.647-12.237 3.296-25.522 5.038-38.966 5.409-20.127 6.08-50.01 12.331-84.556 12.276-32.888 0.081-62.074-5.989-80.775-13.37-14.095 0.706-28.439-0.606-41.398-4.154 0.16-0.471 0.291-0.933 0.466-1.408 27.132 6.187 58.194 2.277 83.527-8.193 6.038-2.409 11.897-5.072 17.578-7.962 2.863-1.452 5.672-2.955 8.442-4.519 3.995-2.246 7.902-4.595 11.726-7.046 2.507-1.607 4.965-3.252 7.399-4.934 3.284-2.261 6.496-4.606 9.654-6.995h17.338c5.706 3.868 11.653 7.563 17.925 10.98 19.26 10.522 43.56 19.1 67.706 20.367 0.321 0.595 0.578 1.205 0.882 1.808-25.411 0.155-52.28-7.52-73.646-17.703-7.357-3.499-14.373-7.309-21.102-11.367-3.563 2.491-7.192 4.915-10.887 7.269 6.104 3.244 12.431 6.298 18.983 9.1 25.71 11.243 57.973 18.079 87.718 15.09 0.235 0.52 0.408 1.031 0.631 1.551-30.069 4.504-64.127-0.797-91.875-11.448-7.895-2.947-15.49-6.225-22.839-9.76-3.889 2.303-7.848 4.522-11.882 6.632 6.935 3.062 14.07 5.893 21.434 8.445 32.241 11.581 71.844 16.022 105.83 8.372m-59.363-32.859c-3.316-2.078-6.516-4.246-9.62-6.477h11.923c0.951 0.722 1.902 1.44 2.871 2.146 11.355 8.303 24.339 15.616 38.976 20.69 2.558 0.873 5.917 1.883 8.622 2.62 0.597 0.887 1.015 1.704 1.571 2.604-3.762-0.716-8.052-1.712-11.615-2.708-15.693-4.403-29.991-10.894-42.728-18.875m-174.09 12.965c2.811-3.454 6.874-6.592 10.36-9.729 2.631-1.972 5.156-4.049 7.58-6.195 1.628-1.205 3.32-2.374 5.053-3.518h7.15c-0.723 0.631-1.464 1.266-2.21 1.887-8.08 6.817-18.016 12.743-27.933 17.555m39.498-9.703c-11.583 7.153-24.388 13.016-38.073 16.633-2.088 0.528-5.016 1.192-7.177 1.627 0.579-0.936 1.02-1.79 1.645-2.716 1.2-0.348 3.363-0.968 4.533-1.345 12.924-4.305 24.722-10.675 35.174-18.177 2.571-1.848 5.039-3.784 7.445-5.761h10.416c-1.131 0.876-2.258 1.745-3.419 2.594-3.393 2.487-6.9 4.885-10.544 7.145m61.61-2.731c-3.872 2.545-7.845 5.002-11.918 7.35-2.845 1.64-5.733 3.238-8.674 4.756-5.589 2.889-11.333 5.567-17.279 7.983-22.305 9.225-49.348 13.8-73.482 10.261 0.22-0.515 0.363-0.954 0.591-1.47 23.763 2.246 49.434-3.587 70.095-13.357 4.536-2.113 8.92-4.401 13.2-6.81 2.905-1.64 5.778-3.339 8.589-5.109 3.964-2.506 7.818-5.138 11.572-7.868 1.25-0.899 2.478-1.817 3.698-2.744h13.681c-0.779 0.571-1.541 1.144-2.322 1.712-2.54 1.806-5.137 3.562-7.751 5.296m-36.448 3.984c-4.282 2.561-8.681 4.979-13.237 7.219-17.706 8.61-39.447 14.956-59.925 15.064 0.302-0.634 0.569-1.259 0.914-1.88 19.612-1.365 39.701-8.568 55.719-17.522 3.546-2.011 6.974-4.134 10.31-6.353 2.888-1.916 5.697-3.9 8.44-5.956 0.682-0.516 1.365-1.036 2.044-1.564h12.181c-2.545 1.881-5.121 3.726-7.782 5.507-2.82 1.899-5.713 3.728-8.664 5.485" fill="#135e40"/>
   </g>
  </g>
  <g clip-path="url(#clipPath86)">
   <g transform="translate(46.2 17.578)">
    <path d="m0 0c-11.726 0-20.436 9.051-20.436 20.499v0.114c0 11.328 8.538 20.609 20.782 20.609 7.511 0 12.008-2.506 15.709-6.147l-5.575-6.433c-3.076 2.786-6.208 4.495-10.192 4.495-6.717 0-11.56-5.582-11.56-12.414v-0.11c0-6.835 4.725-12.528 11.56-12.528 4.554 0 7.344 1.823 10.476 4.67l5.578-5.64c-4.1-4.381-8.657-7.115-16.342-7.115" fill="#231f20"/>
   </g>
   <g transform="translate(96.417 38.191)">
    <path d="m0 0c0 6.829-5.01 12.523-12.073 12.523-7.056 0-11.954-5.582-11.954-12.414v-0.109c0-6.835 5.008-12.528 12.071-12.528 7.059 0 11.956 5.582 11.956 12.414zm-12.073-20.613c-12.295 0-21.118 9.168-21.118 20.499v0.114c0 11.328 8.94 20.608 21.235 20.608 12.302 0 21.125-9.166 21.125-20.499v-0.109c0-11.33-8.945-20.613-21.242-20.613" fill="#231f20"/>
   </g>
   <path d="m110.31 40.069h17.539v-8.314h-17.539z" fill="#231f20"/>
   <g transform="translate(148.51 47.871)">
    <path d="m0 0-5.291-12.928h10.582zm12.072-29.606-3.649 8.934h-16.852l-3.644-8.934h-8.933l17.08 40.133h8.08l17.082-40.133z" fill="#231f20"/>
   </g>
   <g transform="translate(173.62 18.266)">
    <path d="m0 0v39.852h8.77v-31.887h19.875v-7.965z" fill="#231f20"/>
   </g>
   <g transform="translate(206.58 18.266)">
    <path d="m0 0v39.852h8.769v-31.887h19.877v-7.965z" fill="#231f20"/>
   </g>
   <path d="m239.95 58.117h8.768v-39.852h-8.768z" fill="#231f20"/>
   <g transform="translate(273.99 47.871)">
    <path d="m0 0-5.292-12.928h10.581zm12.067-29.606-3.644 8.934h-16.85l-3.643-8.934h-8.94l17.085 40.133h8.085l17.079-40.133z" fill="#231f20"/>
   </g>
   <g transform="translate(327.06 18.266)">
    <path d="m0 0-19.301 25.333v-25.333h-8.655v39.852h8.088l18.676-24.538v24.538h8.646v-39.852z" fill="#231f20"/>
   </g>
   <g transform="translate(359.34 17.578)">
    <path d="m0 0c-11.733 0-20.445 9.051-20.445 20.499v0.114c0 11.328 8.547 20.609 20.783 20.609 7.514 0 12.013-2.506 15.714-6.147l-5.579-6.433c-3.068 2.786-6.21 4.495-10.187 4.495-6.723 0-11.562-5.582-11.562-12.414v-0.11c0-6.835 4.73-12.528 11.562-12.528 4.55 0 7.346 1.823 10.477 4.67l5.576-5.64c-4.1-4.381-8.653-7.115-16.339-7.115" fill="#231f20"/>
   </g>
   <g transform="translate(379.27 18.266)">
    <path d="m0 0v39.852h30.061v-7.801h-21.351v-8.085h18.787v-7.802h-18.787v-8.362h21.635v-7.802z" fill="#231f20"/>
   </g>
   <g transform="translate(415.19 55.015)">
    <path d="m0 0h0.703c0.139 0 0.276 5e-3 0.408 0.015 0.133 8e-3 0.252 0.036 0.357 0.08 0.104 0.045 0.186 0.111 0.247 0.2 0.059 0.088 0.09 0.215 0.09 0.38 0 0.138-0.028 0.251-0.081 0.337-0.054 0.086-0.125 0.15-0.214 0.194-0.088 0.045-0.189 0.073-0.299 0.086-0.111 0.013-0.22 0.019-0.328 0.019h-0.883zm-0.57 1.824h1.501c0.494 0 0.858-0.094 1.092-0.28 0.235-0.188 0.352-0.486 0.352-0.898 0-0.368-0.104-0.636-0.313-0.807s-0.466-0.273-0.77-0.305l1.178-1.805h-0.617l-1.122 1.758h-0.731v-1.758h-0.57zm-1.672-2.043c0-0.424 0.077-0.818 0.232-1.182 0.156-0.365 0.369-0.681 0.642-0.951 0.272-0.268 0.589-0.481 0.95-0.635 0.36-0.156 0.75-0.234 1.168-0.234s0.808 0.078 1.169 0.234c0.36 0.154 0.678 0.368 0.95 0.64 0.272 0.273 0.485 0.594 0.641 0.965 0.155 0.37 0.233 0.771 0.233 1.201 0 0.425-0.078 0.821-0.233 1.188-0.156 0.367-0.369 0.685-0.641 0.955-0.272 0.268-0.59 0.479-0.95 0.632-0.361 0.151-0.751 0.227-1.169 0.227s-0.808-0.077-1.168-0.232c-0.361-0.155-0.678-0.367-0.95-0.637-0.273-0.269-0.486-0.589-0.642-0.959-0.155-0.371-0.232-0.774-0.232-1.212m-0.571 0c0 0.507 0.095 0.978 0.286 1.411 0.19 0.434 0.446 0.809 0.769 1.126s0.7 0.565 1.131 0.745c0.431 0.181 0.89 0.272 1.377 0.272 0.481 0 0.939-0.091 1.373-0.272 0.434-0.18 0.813-0.426 1.135-0.741 0.323-0.313 0.58-0.683 0.769-1.111 0.191-0.427 0.285-0.892 0.285-1.392 0-0.506-0.094-0.976-0.285-1.41-0.189-0.434-0.446-0.809-0.769-1.126-0.322-0.317-0.701-0.565-1.135-0.746s-0.892-0.27-1.373-0.27c-0.487 0-0.946 0.089-1.377 0.27s-0.808 0.428-1.131 0.741c-0.323 0.314-0.579 0.684-0.769 1.112-0.191 0.427-0.286 0.891-0.286 1.391" fill="#231f20"/>
   </g>
  </g>
 </g>
</svg>