<?xml version="1.0" standalone="no"?>
<!DOCTYPE svg PUBLIC "-//W3C//DTD SVG 1.1//EN" "http://www.w3.org/Graphics/SVG/1.1/DTD/svg11.dtd">
<svg xmlns="http://www.w3.org/2000/svg" width="823.469970703125" height="302.45001220703125" version="1.1" viewBox="0 0 823.47 302.45" xml:space="preserve"><g transform="translate(-3.1395 14.694)"><path d="m375.8 286.84c-3.9051-0.37872-5.9606-1.017-5.8955-1.8305 0.21287-2.6648 0.44484-3.1116 1.7755-3.4241 0.98938-0.23237 1.1388-0.95451 0.53181-2.5714-0.70933-1.8896-1.6461-2.2722-5.8724-2.3982-2.7656-0.0823-5.5415-0.1949-6.1685-0.24958-0.62709-0.0552-1.6388 0.71098-2.2483 1.7021-0.88092 1.4326-0.74963 2.0061 0.64053 2.7976 0.96177 0.54753 1.7487 1.7103 1.7487 2.5839 0 1.33-0.85333 1.4859-5.246 0.95825-2.8853-0.34671-6.0329-0.63403-6.9947-0.63879-2.5217-0.0101-2.1495-2.5384 0.68832-4.6717 1.3404-1.0076 5.6761-7.2279 9.635-13.823 3.9589-6.595 7.3378-12.157 7.5088-12.361 0.17111-0.20351 1.4154-0.0926 2.7654 0.24629 2.1068 0.52875 2.9455 2.1381 5.9212 11.361 4.7163 14.619 6.335 18.24 8.1539 18.24 0.987 0 1.5498 0.90717 1.5498 2.4981 0 1.4219-0.5381 2.4257-1.249 2.3301-0.68698-0.0927-3.947-0.42966-7.2445-0.74943zm-6.892-15.663c-0.33574-0.87543-0.87128-2.7865-1.1896-4.2468-1.2293-5.6389-1.5359-5.7287-3.9465-1.1562-2.9531 5.6017-2.9585 5.7606-0.21262 6.2895 4.8615 0.93633 5.9772 0.75142 5.3486-0.88649zm42.365 15.057c0-0.83797 1.1242-1.951 2.4981-2.4734 3.9258-1.4926 3.2978-5.9546-2.1447-15.238-2.5536-4.3557-5.2515-8.153-5.9955-8.4385-0.74393-0.2855-1.3526-1.3702-1.3526-2.4106 0-1.6893 0.8086-1.8916 7.5616-1.8916 7.3827 0 7.5451 0.0532 6.8626 2.2483-0.38447 1.2365-1.0795 2.3949-1.5445 2.5741-0.46499 0.17896 0.31385 2.6137 1.7308 5.4099l2.5763 5.084 2.7289-4.9103c1.5232-2.7408 2.362-5.3297 1.8986-5.8596-0.45664-0.52212-0.83025-1.7587-0.83025-2.7479 0-1.514 0.86968-1.7986 5.4958-1.7986 5.196 0 5.4958 0.13643 5.4958 2.4981 0 1.374-0.5631 2.4981-1.2513 2.4981s-3.3862 3.5057-5.9954 7.7905c-5.5044 9.0389-6.4453 14.81-2.5061 15.372 1.231 0.17567 2.3881 1.1062 2.5714 2.068 0.2976 1.5614-0.63759 1.7487-8.7331 1.7487-7.4583 0-9.0664-0.27041-9.0664-1.5236zm51.96-2.3665c0-1.0404 0.72192-2.1686 1.6043-2.5072 1.3827-0.53063 1.5108-1.8906 0.92777-9.8495-0.80837-11.035-1.2212-12.731-3.099-12.731-0.78732 0-1.4315-0.89075-1.4315-1.9795 0-2.2802 0.52149-2.4238 14.412-3.9691 10.874-1.2097 11.524-0.97349 11.553 4.1999 0.0101 2.2365-0.42973 2.7479-2.3759 2.7479-1.3151 0-2.65-0.6745-2.9663-1.4989-0.35162-0.91598-1.8503-1.4929-3.8541-1.4836-5.1194 0.0228-6.1004 1.1083-5.2983 5.8565 0.62617 3.7061 0.98389 4.1206 3.5564 4.1206 1.5732 0 3.2198-0.61554 3.6593-1.368 0.4395-0.75234 1.7551-1.6643 2.9235-2.0265 2.2516-0.69796 3.3286 1.2882 3.3578 6.192 0.0101 2.2131-0.20275 2.2734-5.8521 1.6342-6.8073-0.77013-7.4363-0.23946-6.5186 5.5 0.56806 3.5524 0.97506 4.0559 3.269 4.044 4.4735-0.0228 7.1168-1.1347 7.1168-2.9923 0-1.0798 1.0233-2.0304 2.616-2.4302 3.1728-0.79635 3.0405-0.92018 3.8928 3.6426 0.80615 4.3161 1.2332 4.1271-13.004 5.7555-12.961 1.4824-14.489 1.392-14.489-0.85733zm60.954-8.6686c0-1.4177 0.76408-2.5378 1.9984-2.9296 2.3774-0.75454 2.406 0.32441-0.31873-11.991-1.9412-8.7738-2.4829-10.031-4.4418-10.312-1.6056-0.22959-2.4899 0.36219-3.1551 2.1117-1.2618 3.3189-4.7162 4.1637-5.4742 1.3389-1.586-5.9105-1.5843-5.9116 13.498-9.1961 14.954-3.2566 14.773-3.282 15.167 2.1332 0.17136 2.3584-0.2263 2.9928-2.0396 3.251-1.3519 0.19263-2.4935-0.30666-2.8548-1.248-0.8528-2.2223-5.3974-2.0694-5.339 0.17972 0.0263 0.96177 1.0584 6.0204 2.2966 11.241 2.0901 8.8134 2.4384 9.5148 4.8663 9.8008 2.1408 0.25236 4.6024 2.8182 3.5571 3.7081-0.15035 0.12808-4.2078 1.1268-9.0167 2.2196l-8.7433 1.9868zm-221.3-0.0934c-3.2797-0.79147-6.1006-1.5766-6.2688-1.7448-0.88001-0.88001 1.1839-3.5138 2.9627-3.7809 1.7157-0.25758 2.4506-1.9508 4.4711-10.301 1.7966-7.4249 2.146-10.438 1.3597-11.728-1.85-3.0334-1.3157-5.0358 1.1901-4.4602 1.2366 0.28401 6.6738 1.5033 12.083 2.7094l9.8345 2.193-0.68063 3.6442c-0.37427 2.0043-0.83146 3.7977-1.0158 3.9852-0.81453 0.82868-4.4828-1.112-4.4828-2.3717 0-1.7551-3.11-3.4652-6.3017-3.4652-2.0755 0-2.5321 0.60062-3.0849 4.0576-0.35688 2.2316-0.37123 4.5069-0.0301 5.0561 0.37541 0.6075 2.7585 0.73097 6.0854 0.31534l5.4683-0.68323-0.69936 3.8708c-0.3846 2.129-0.89163 4.2081-1.1267 4.6203-0.85572 1.5006-4.2634 0.69837-5.3056-1.2491-1.4069-2.6288-6.9882-2.8278-7.0084-0.24958-8e-3 0.96178-0.27343 2.7171-0.59097 3.9006-0.42869 1.598-0.0392 2.3227 1.5125 2.8152 1.1706 0.37163 2.0898 1.5127 2.0898 2.5944 0 2.3012-1.8477 2.349-10.46 0.27079zm-40.242-10.52c-5.6064-1.7774-6.1321-2.17-5.2108-3.8916 0.56361-1.053 1.7146-1.9146 2.5579-1.9146 1.0055 0 1.4233-0.74694 1.2139-2.17-0.24502-1.6649-1.6945-2.6272-6.2276-4.1344-5.67-1.8852-5.9612-1.8921-7.22-0.1706-1.0994 1.5035-1.0642 1.9749 0.21715 2.9118 0.88344 0.64598 1.2615 1.8144 0.89561 2.7679-0.66338 1.7288-1.3338 1.5991-10.698-2.0688-3.1959-1.2518-2.8282-3.6478 0.69563-4.5322 1.2753-0.32025 6.6942-5.3069 12.042-11.082 9.1843-9.918 11.44-11.477 14.091-9.7351 0.61456 0.40376 1.8766 7.4754 2.8046 15.715 1.1355 10.083 2.1284 15.227 3.0365 15.736 1.5665 0.87664 0.86501 4.8091-0.82971 4.6513-0.62287-0.0577-3.9385-0.99506-7.368-2.0823zm-2.2775-21.045-0.0177-6.2452-3.3531 3.997c-1.8443 2.1983-3.4025 4.4466-3.4628 4.9962-0.0858 0.78031 2.7455 2.2467 6.6053 3.4213 0.13744 0.042 0.24097-2.7344 0.23034-6.1692zm319.78 17.393c0-1.1307 0.7753-2.4896 1.7229-3.0199 1.5912-0.89049 1.4616-1.7726-1.6955-11.541-1.8801-5.8172-3.9676-10.577-4.6389-10.577-2.6574 0-4.1428 1.197-3.6802 2.9659 0.32934 1.2587-0.20959 2.0566-1.7098 2.5328-2.5412 0.80654-3.3398 0.12581-4.719-4.0213l-1.004-3.0191 13.909-4.8399c7.6502-2.662 14.097-4.6527 14.325-4.4239 0.22883 0.22883 1.1072 2.0701 1.9518 4.0916 1.5297 3.6612 1.5254 3.6782-1.1228 4.3428-1.869 0.46911-3.0056 0.19263-3.8272-0.93109-1.0746-1.4696-5.515-1.3815-5.515 0.1096 0 0.3142 1.6432 5.231 3.6516 10.926 3.4506 9.7852 3.7944 10.339 6.2452 10.054 1.972-0.22882 2.6635 0.18731 2.8854 1.737 0.24654 1.7233-0.83367 2.3997-6.9947 4.3795-4.0075 1.2878-7.8485 2.5546-8.5355 2.8152-0.74801 0.28363-1.249-0.35085-1.249-1.582zm-383.19-22.719c-6.5856-3.0516-12.105-5.6791-12.264-5.8388-0.15975-0.15973 8e-3 -1.0627 0.36822-2.0066 0.44799-1.1674 1.3517-1.5423 2.826-1.1722 1.9086 0.47902 2.7525-0.64514 7.0659-9.4117 3.716-7.5525 4.6186-10.235 3.7393-11.115-0.79747-0.79747-0.85163-1.7336-0.17371-3.0004 0.92633-1.731 1.4011-1.632 7.9168 1.6492 5.2561 2.6469 6.7832 3.8767 6.3183 5.0883-0.43307 1.1286-1.4056 1.4392-3.3123 1.0579-2.5747-0.51495-2.9023-0.0929-7.1007 9.1468-2.4208 5.3277-4.4014 10.046-4.4014 10.484 0 0.43871 1.9078 1.6519 4.2395 2.6958 4.1316 1.8498 4.2649 1.8507 5.2363 0.0339 0.78573-1.4682 1.5808-1.6976 3.7544-1.0837 1.5688 0.44315 2.6352 1.3762 2.4737 2.1645-0.67629 3.3004-2.5448 6.8803-3.5845 6.8677-0.62028-8e-3 -6.516-2.5105-13.102-5.562zm431.16 3.1608c0-1.3282 0.51764-2.5874 1.1502-2.7982 0.73955-0.24655-0.43601-3.9335-3.2921-10.326-3.4814-7.7912-4.9191-10.011-6.6461-10.261-1.2714-0.18427-2.2035-1.0297-2.2033-1.9984 3e-4 -1.1552 3.3248-3.2384 10.653-6.6754 5.8588-2.7479 11.003-5.1373 11.432-5.3097 1.095-0.44021 4.1065 5.6576 3.3771 6.838-0.78456 1.2694-4.1878 1.2494-4.978-0.0301-0.92069-1.4896-2.6288-1.2167-6.2665 1.0012l-3.2687 1.993 2.0377 3.9942c2.0251 3.9695 2.0578 3.9861 5.2672 2.6765 1.7762-0.72477 3.2295-1.9045 3.2295-2.6215 0-0.71707 0.92386-1.9172 2.053-2.6669 1.9093-1.2677 2.2013-1.0578 4.1723 2.9991l2.1194 4.3623-2.4986 1.1384c-1.3742 0.62613-2.9416 0.8646-3.4832 0.52986-0.93489-0.57775-6.8595 1.3596-6.8595 2.2431 0 0.8956 4.067 8.3325 4.5568 8.3325 0.2855 0 2.2606-0.88844 4.389-1.9743 2.9526-1.5063 3.7499-2.4334 3.3634-3.9114-0.52227-1.9971 2.8691-4.725 4.5685-3.6747 1.0309 0.63712 3.5305 6.4797 2.9919 6.9932-0.6546 0.6242-24.493 11.56-25.199 11.56-0.36632 0-0.66597-1.0867-0.66597-2.4149zm-252.16-40.238c-1.8416-1.8417-0.24705-4.236 4.4405-6.6681 6.1743-3.2034 12.09-3.4297 16.669-0.63772 4.0977 2.4983 5.9415 2.4976 9.7185-3e-3 1.9879-1.3165 4.6808-1.9853 7.9939-1.9853 3.3132 0 6.0061 0.66881 7.994 1.9853 3.7769 2.5014 5.6208 2.5021 9.7184 3e-3 4.5924-2.8 10.494-2.5661 16.717 0.66248 3.9957 2.073 5.0694 3.1269 4.8354 4.7464-0.38718 2.6801-3.7208 2.4596-9.555-0.63223l-4.2646-2.26-4.6477 2.4656c-5.6179 2.9803-10.416 3.0243-15.789 0.14479-4.9054-2.6291-5.112-2.6291-10.017 0-5.3775 2.8822-10.168 2.835-15.829-0.15592l-4.6875-2.4768-3.7251 2.1026c-4.2876 2.42-8.6317 3.6494-9.5722 2.7088zm-139.16-65.667c-10.58-4.9265-16.214-18.39-13.388-31.998 1.7223-8.2964 6.3803-14.381 14.094-18.41 6.1122-3.1929 6.7953-3.3259 14.899-2.9012 4.6715 0.24477 9.7856 1.0612 11.365 1.8142 2.8616 1.3645 2.8691 1.3925 2.2235 8.3385-0.35614 3.8332-0.81607 7.1377-1.0217 7.3434-0.20579 0.20579-2.218-0.12277-4.4718-0.72945-3.7592-1.0122-4.0978-1.3792-4.0978-4.4399 0-4.5491-1.9976-5.9523-7.5783-5.3232-10.203 1.15-16.165 12.934-13.366 26.416 0.91829 4.4234 2.0595 6.6385 4.8661 9.4451 4.5444 4.5444 9.7687 5.4963 19.076 3.4756 3.5723-0.77557 6.6523-1.2632 6.8444-1.0835 0.19212 0.17972-0.17744 1.9228-0.82116 3.8735-1.0194 3.089-1.8298 3.7427-6.2764 5.0632-7.709 2.2893-16.258 1.9511-22.347-0.88406zm100.84-4.7526c-2.6375-4.0508-5.9188-9.4944-7.2918-12.097-2.0532-3.8918-2.9845-4.7318-5.246-4.7318h-2.7496v14.83l2.9977 0.65838c2.6182 0.57507 2.9977 1.0911 2.9977 4.0764v3.4179h-12.107c-12.068 0-12.105-8e-3 -11.505-2.2483 0.33122-1.2366 0.60864-2.7542 0.61616-3.3724 8e-3 -0.61828 1.3626-1.394 3.0114-1.7237l2.9977-0.59955v-38.021h-2.4981c-2.1724 0-2.4981-0.44076-2.4981-3.3808 0-4.3092 0.98427-4.5835 16.487-4.5939 14.229-0.01013 18.769 1.0635 23.185 5.4797 2.9768 2.9769 3.2941 3.8579 3.2907 9.14-3e-3 6.8402-2.3052 11.416-6.9468 13.817-1.673 0.8652-3.0419 1.7953-3.0419 2.0669 0 1.0099 5.0343 8.4219 8.064 11.872 1.8294 2.0836 4.0598 3.5702 5.3562 3.5702 1.8946 0 2.1575 0.43642 1.7863 2.9656-0.56288 3.8351-1.7086 4.6914-7.4133 5.5405l-4.6973 0.69923zm-1.934-25.459c3.6949-3.6949 3.5828-8.5618-0.28664-12.431-2.4612-2.4612-3.7192-2.9209-7.9939-2.9209h-5.0731v8.327c0 4.5799 0.29985 8.6268 0.66614 8.9932 0.36635 0.36633 2.7782 0.66615 5.3595 0.66615 3.7388 0 5.2293-0.53586 7.3278-2.6344zm248.6 20.208c-11.632-15.658-13.14-16.181-13.14-4.5582v8.0189l2.9977 0.59955c2.6202 0.52404 2.9977 1.0242 2.9977 3.972v3.3724h-11.991c-12.59 0-12.63-0.0152-11.389-4.6392 0.36293-1.353 1.6453-2.3552 3.4837-2.7229l2.9092-0.58183v-36.913l-2.7479-1.317c-1.9078-0.91441-2.7479-2.0766-2.7479-3.8017 0-2.4761 0.0377-2.4857 10.808-2.7689l10.808-0.28438-0.31572 3.282c-0.24275 2.524-0.83498 3.3557-2.564 3.6013-2.1157 0.30061-2.2483 0.78656-2.2483 8.2437v7.9244l2.7479-0.0263c2.273-0.0228 3.736-1.3928 8.4655-7.9355 5.1821-7.1687 5.533-7.9681 3.7472-8.5349-1.371-0.43515-1.9705-1.5169-1.9705-3.5558v-2.9304h10.609c10.514 0 10.603 0.01772 10.006 2.2483-0.33121 1.2366-0.60869 2.8104-0.61615 3.4973-8e-3 0.687-1.1033 1.2491-2.435 1.2491-1.8576 0-4.0744 2.0955-9.5215 9.0009l-7.1001 9.0009 8.578 10.234c6.2604 7.4693 9.1029 10.15 10.521 9.9219 1.5405-0.24781 1.9395 0.26927 1.9274 2.4981-0.0228 4.4596-1.3612 5.5938-7.1372 6.055l-5.338 0.42624zm-193.2 8.3105c0.33917-2.3108 1.1808-3.3475 3.3243-4.0947l2.8702-1.0005v-18.818c0-18.755-8e-3 -18.819-2.2483-19.138-1.7232-0.24477-2.3214-1.0778-2.5614-3.5668l-0.31309-3.2476h41.096v6.4951c0 5.7561-0.22022 6.495-1.9335 6.495-4.136 0-7.0597-1.8694-7.0597-4.5139 0-2.5582-0.0177-2.5641-7.7442-2.273l-7.7441 0.29193-0.58386 15.488h6.5371c4.9214 0 6.5371-0.34408 6.5371-1.3919 0-1.6111 2.1281-2.605 5.5775-2.605 2.3409 0 2.4164 0.23414 2.4164 7.4943v7.4943h-3.8804c-3.073 0-3.992-0.4267-4.4167-2.0507-0.47577-1.8192-1.1938-2.0166-6.3618-1.7487l-5.8255 0.30213v15.988l7.7441 0.29193c7.538 0.28401 7.7441 0.22959 7.7441-2.0485 0-3.3358 1.8339-4.7385 6.1953-4.7385h3.7971v13.989h-43.62zm81.153 0.84589c0.0177-2.9657 1.0007-4.3264 3.7318-5.1787 2.2271-0.69503 2.2483-0.87903 2.2483-19.512v-18.81l-2.4981-0.62696c-1.9658-0.49339-2.4981-1.2618-2.4981-3.6057v-2.9787h40.969v13.24l-3.1226-0.62451c-1.7174-0.34369-3.4803-0.62456-3.9176-0.62456-0.43722 0-1.0912-1.349-1.4533-2.9977l-0.6584-2.9977h-14.83v15.988h5.9955c4.4585 0 5.9954-0.35688 5.9954-1.3919 0-1.6111 2.1281-2.605 5.5776-2.605 2.3409 0 2.4164 0.23414 2.4164 7.4943v7.4943h-3.997c-3.3308 0-3.997-0.33309-3.997-1.9985 0-1.7764-0.66612-1.9984-5.9954-1.9984h-5.9955v16.987h14.932l0.83614-3.2475c0.75682-2.9393 1.2338-3.2767 5.0248-3.5548l4.1886-0.30742v14.104h-42.967l0.0152-2.2483zm-450.49-93.747c-12.106-2.3829-18.719-11.768-18.611-26.411 0.098534-13.29 5.182-21.789 15.929-26.63 6.5534-2.9519 18.783-3.1977 25.73-0.51716 5.1751 1.9967 5.5592 3.1108 4.105 11.908-0.64884 3.9255-1.9435 4.5005-7.0503 3.1311-1.7381-0.46608-2.2589-1.446-2.4981-4.7007-0.26924-3.6628-0.64925-4.2108-3.4795-5.0178-4.6357-1.3217-9.8644 0.010125-13.878 3.534-4.9659 4.3601-6.718 8.9409-6.8052 17.792-0.13086 13.275 5.7935 19.985 17.646 19.985h5.8069l-0.29548-6.7449-0.29545-6.7449-4.7464-0.30438c-4.685-0.30064-4.7464-0.34896-4.7464-3.7472v-3.4426h27.106l-0.31312 3.2475c-0.26089 2.706-0.77131 3.3002-3.061 3.5637l-2.7479 0.3161v17.777l-3.7472 1.0077c-3.8743 1.0419-16.973 3.0952-18.736 2.937-0.54958-0.04936-2.9399-0.47165-5.3117-0.93856zm249.63-0.21414-5.4958-1.216v-7.1624c0-3.9394 0.27722-7.4391 0.616-7.7773 0.33878-0.338 2.4515-0.32139 4.6948 0.03771 3.9425 0.63041 4.0888 0.79013 4.3802 4.7795 0.29724 4.0699 0.36786 4.1402 5.0744 5.0492 8.6041 1.6618 14.372-2.9986 11.699-9.4521-0.92775-2.2397-3.2928-3.9139-10.547-7.4665-6.1362-3.0048-10.113-5.6486-11.566-7.6894-2.9395-4.1282-3.6528-12.337-1.4431-16.61 3.3592-6.496 15.073-9.4998 27.069-6.9415l5.9954 1.2786-0.3418 6.492c-0.18807 3.5706-0.49503 6.6491-0.68209 6.8411-0.18681 0.19187-2.1691 0.039994-4.4044-0.33762-3.7946-0.64109-4.0643-0.90581-4.0643-3.9892 0-3.6355-1.2386-4.5157-6.3545-4.5157-6.4616 0-9.5321 4.8407-6.1412 9.6818 0.82149 1.1729 5.2057 3.9157 9.7426 6.0951 9.4598 4.5442 12.556 7.4317 13.778 12.848 1.8087 8.0194-1.9056 16.054-8.7745 18.98-4.5783 1.9505-16.735 2.5127-23.234 1.0746zm80.192 0.22705c-3.4332-0.4518-6.6932-1.1003-7.2444-1.441-1.1963-0.73935-1.3232-12.438-0.15491-14.28 0.57047-0.89915 2.0574-1.0892 4.9293-0.62998 3.9809 0.63658 4.122 0.78955 4.4138 4.7849 0.29608 4.0559 0.3822 4.1429 4.9709 5.0299 5.9625 1.1524 10.188-0.46582 11.88-4.5493 1.825-4.4059-0.94325-7.4657-11.617-12.841-10.752-5.4145-13.428-8.681-13.422-16.385 3e-3 -6.3606 2.4684-10.642 7.4973-13.028 4.9723-2.3595 13.607-2.9085 20.977-1.3338l5.9954 1.2809-0.31914 5.99c-0.17567 3.2945-0.6791 6.3587-1.1189 6.8092-0.43983 0.45051-2.432 0.51291-4.4271 0.13871-3.2954-0.61821-3.6275-0.98081-3.6275-3.9598 0-3.6103-1.2476-4.4923-6.3545-4.4923-4.4188 0-7.6349 2.476-7.6349 5.878 0 3.6703 2.8827 6.1491 12.006 10.324 10.305 4.7152 12.976 8.0314 12.971 16.101-3e-3 7.5038-2.2631 11.753-7.7012 14.487-4.652 2.3391-13.715 3.2107-22.019 2.1178zm77.139-22.998c-5.7493-19.157-7.3108-23.281-9.0694-23.954-1.3479-0.51549-2.289-1.9345-2.5748-3.882l-0.45052-3.0695h10.819c11.384 0 11.452 0.03012 10.189 4.7464-0.42031 1.5684-1.355 2.2483-3.091 2.2483-1.9932 0-2.3373 0.34782-1.7287 1.7487 3.9053 8.9883 8.4472 25.896 8.4472 31.445 0 5.6305 1.669 3.7619 2.1872-2.4487 0.24174-2.8954 2.4148-12.796 4.8293-22.002l4.3901-16.737h5.2498c5.2253 0 5.2544 0.01772 6.2342 3.7472 4.4337 16.878 7.2152 29.166 7.7414 34.201 0.3429 3.2804 0.94476 5.7658 1.3376 5.523 0.39277-0.24275 0.98896-3.0409 1.3249-6.218 0.33574-3.1771 2.3204-11.043 4.41-17.479 3.6539-11.254 3.7221-11.713 1.7832-11.991-1.4682-0.21035-2.1013-1.1716-2.3293-3.5364l-0.31309-3.2475h9.0565c8.2616 0 9.0565 0.16808 9.0565 1.9167 0 3.1495-1.1072 5.078-2.9155 5.078-1.3381 0-3.3215 4.9724-9.2669 23.232l-7.5644 23.232-9.8335 0.58993-4.1954-17.455c-2.3074-9.6004-4.227-18.726-4.2656-20.28-0.0385-1.5537-0.42183-3.7241-0.85159-4.8233-0.58246-1.4899-0.96172-0.55743-1.4901 3.6639-0.38983 3.1143-2.6271 13.007-4.9717 21.983l-4.263 16.321-10.935 0.58765zm380.4 15.683c-2.7408-4.1986-5.8056-9.4171-6.8105-11.597-1.5759-3.4182-2.2737-3.9667-5.0747-3.9889l-3.2475-0.02632v7.0197c0 7.0002 8e-3 7.0213 2.9977 7.6192 2.6202 0.52407 2.9977 1.0242 2.9977 3.972v3.3724h-24.02l0.64767-2.7479c0.78878-3.3467 1.3204-3.9503 3.887-4.4133 1.9157-0.34556 1.9985-1.1468 1.9985-19.332 0-18.914-8e-3 -18.973-2.2483-19.291-1.8235-0.25907-2.2483-0.95537-2.2483-3.6859 0-3.2189 0.19515-3.3959 4.4509-4.0341 2.4479-0.36708 9.7549-0.50693 16.238-0.31081 9.5534 0.2893 12.43 0.73528 15.18 2.3549 5.48 3.2274 7.5274 6.7604 7.5274 12.99 0 6.0565-1.8835 9.4758-7.2224 13.112l-3.113 2.12 3.0536 4.8747c4.5025 7.1878 8.6596 11.233 10.933 10.639 1.6868-0.44112 1.8383-0.10302 1.2827 2.8635-0.84761 4.5254-1.2307 4.8224-7.1215 5.52l-5.1039 0.60449zm-1.5976-25.059c6.4063-6.4064 0.17744-16.298-9.6695-15.356l-3.366 0.32215-0.29686 7.4008c-0.16327 4.0704-0.065 8.005 0.21819 8.7434 0.33764 0.87994 2.2631 1.3425 5.5882 1.3425 4.0538 0 5.5657-0.49278 7.5257-2.4527zm-714.82 28.222c0.24163-2.4759 0.88336-3.3414 2.8112-3.7914l2.4981-0.5832 0.27112-19.119 0.27113-19.119-2.2696-0.32215c-1.7466-0.24781-2.3418-1.0705-2.5827-3.5697l-0.31312-3.2475h12.554c11.446 0 12.554 0.15972 12.554 1.8075 0 2.8498-2.2348 5.0355-5.4958 5.3748l-2.9977 0.31195v37.971l7.4063 0.29684c8.052 0.32291 9.0391-0.22629 9.0659-5.0432 0.0122-2.1749 0.48412-2.7508 2.2636-2.7616 1.2366-0.0076 3.26-0.28476 4.4966-0.61618 2.1964-0.58859 2.2483-0.41528 2.2483 7.508v8.1104h-43.094zm79.146 1.6277c0.33348-0.8693 0.60653-2.2328 0.60653-3.0299s1.0083-1.8223 2.2407-2.2782c1.7559-0.64959 4.3406-5.7768 11.947-23.7l9.7064-22.871h9.2413l9.1628 22.754c7.3963 18.368 9.578 22.863 11.317 23.317 1.9685 0.51437 3.2936 2.9586 3.3283 6.1392 0.0114 0.92762-2.9435 1.2491-11.478 1.2491-6.4612 0-11.491-0.4089-11.491-0.93421 0-2.5209 2.0706-5.8463 3.9456-6.3366 2.0529-0.5368 2.0617-0.63043 0.39122-4.1335l-1.7092-3.5843h-19.588l-1.5123 3.6194c-1.9096 4.5703-1.949 4.3745 0.8789 4.3745 2.4368 0 3.6042 1.6449 3.6042 5.078 0 1.769-0.81678 1.9167-10.599 1.9167-9.2543 0-10.522-0.20048-9.9924-1.5806zm34.081-22.151c-2.5054-6.1418-5.4959-15.511-5.4959-17.218 0-1.1095-0.44965-2.0173-0.99923-2.0173s-1.0081 0.78691-1.019 1.7487c-0.0114 0.96175-1.3598 5.5491-2.9977 10.194-1.6379 4.645-2.978 8.5796-2.978 8.7433 0 0.16402 3.1957 0.29798 7.1016 0.29798 6.369 0 7.028-0.18048 6.3882-1.7487zm318.26 22.798c0-2.3358 2.0396-5.9233 3.5397-6.2261 1.1066-0.22351 4.877-7.9471 11.382-23.317l9.7274-22.983 4.5139-0.29836 4.5139-0.29833 9.3487 23.064c7.8363 19.333 9.7194 23.157 11.64 23.639 1.3328 0.33461 2.2911 1.3314 2.2911 2.3834 0 0.9946 0.27305 2.5197 0.60654 3.389 0.53161 1.3854-0.82617 1.5806-10.992 1.5806-8.6197 0-11.595-0.32066-11.585-1.2491 0.0339-3.1347 1.3676-5.7456 2.934-5.7456 2.6829 0 2.8885-0.79663 1.1595-4.491l-1.6091-3.4379-19.587-0.06784-1.4479 3.4653c-1.8751 4.4877-1.8666 4.5287 0.9337 4.5287 1.6251 0 2.5729 0.71417 2.9841 2.2483 1.2609 4.7048 1.1745 4.7464-9.8622 4.7464-5.8414 0-10.492-0.41406-10.492-0.93418zm31.951-29.111c-1.6349-4.4341-2.9726-9.1556-2.9726-10.492 0-4.719-1.5753-2.324-4.4811 6.813-1.6168 5.0836-3.1015 9.805-3.2995 10.492-0.2636 0.91517 1.5229 1.2491 6.683 1.2491h7.0428zm67.973 29.695c0-0.19263 0.49367-1.7666 1.097-3.4973 0.89056-2.5548 1.6426-3.1468 3.997-3.1468h2.9v-39.97h-3.8901c-3.9922 0-5.1031 1.1055-5.1031 5.0779 0 1.0542-0.61828 1.9168-1.374 1.9168-0.7557 0-2.7792 0.28099-4.4966 0.62451l-3.1226 0.62453v-14.239h47.964v6.9947c0 6.5916-0.1296 6.9939-2.2483 6.981-4.1458-0.026325-6.7449-1.1884-6.7449-3.0189 0-3.8505-1.1427-4.9613-5.1031-4.9613h-3.89v39.97h3.3904c3.4645 0 4.6035 1.2564 4.6035 5.078 0 1.7982-0.86498 1.9167-13.989 1.9167-7.6941 0-13.989-0.15795-13.989-0.35048zm73.957-0.89854c0.0397-3.6298 1.3446-5.6505 3.8353-5.9389l2.6462-0.30631v-18.986c0-18.661-0.0377-18.991-2.1464-19.292-2.221-0.31651-3.6156-3.3335-2.6745-5.7859 0.43699-1.1388 4.2757-1.4025 20.416-1.4025h19.878v6.4951c0 6.4231-0.0301 6.4949-2.7479 6.4798-3.6253-0.017719-4.7984-0.91218-5.6216-4.2747-0.67845-2.771-0.73536-2.789-7.898-2.4981l-7.2146 0.29307v15.988l5.3252 0.30479c4.592 0.26284 5.3958 0.033919 5.838-1.6563 0.52209-1.9964 3.0302-3.1069 7.0729-3.1314 2.1329-0.010125 2.2483 0.37088 2.2483 7.4807v7.4943h-4.0905c-3.2502 0-4.1979-0.41062-4.6131-1.9985-0.4479-1.7128-1.363-1.9985-6.4015-1.9985h-5.8789v17.071l7.7441-0.29195c7.547-0.28438 7.7519-0.35916 8.0505-2.938 0.31233-2.6962 2.3222-3.8072 6.9381-3.8353 2.1187-0.01012 2.2483 0.38941 2.2483 6.981v6.9947h-21.484c-16.528 0-21.481-0.28818-21.47-1.2491z" fill="#3c5865" stroke-width=".99924"/></g></svg>