<?xml version="1.0" standalone="no"?>
<!DOCTYPE svg PUBLIC "-//W3C//DTD SVG 1.1//EN" "http://www.w3.org/Graphics/SVG/1.1/DTD/svg11.dtd">
<svg xmlns="http://www.w3.org/2000/svg" width="373.510009765625" height="373.510009765625" version="1.1" viewBox="0 0 373.51 373.51">
 <g transform="matrix(1.3333 0 0 -1.3333 -221.25 714.75)">
  <g fill="#231f20">
   <path d="m306 260.75c37.348 0 71.16 15.138 95.635 39.612 24.475 24.475 39.612 58.287 39.612 95.635s-15.138 71.16-39.612 95.635-58.286 39.612-95.635 39.612-71.16-15.138-95.635-39.612c-24.474-24.474-39.612-58.286-39.612-95.635s15.138-71.16 39.612-95.635c24.475-24.474 58.287-39.612 95.635-39.612zm99.04 36.206c-25.347-25.347-60.364-41.024-99.04-41.024s-73.694 15.678-99.041 41.024c-25.347 25.347-41.024 60.364-41.024 99.041s15.678 73.694 41.024 99.04c25.347 25.347 60.364 41.025 99.041 41.025s73.694-15.678 99.04-41.025c25.347-25.347 41.025-60.364 41.025-99.04s-15.678-73.694-41.025-99.041"/>
   <g fill-rule="evenodd">
    <path d="m271.19 499.05s0.1111 4.3262 0.7211 5.3248c0.6103 0.9984 2.3301 1.2204 4.0493 1.2204l1.4975 12.591s-4.2483 1.618 0.777 3.939c0 0 26.125 0.3331 27.401-0.1664 1.2756-0.4994 1.8856-1.6639 2.9395-5.6021 1.054-3.9382 1.054-10.261 1.6643-10.816 0.61-0.5551 1.8303-1.7195 1.775 0.3883-0.0555 2.1079-2.0523 13.09 0.5548 14.809 2.6067 1.7198 4.049 1.1095 4.2154 0.1112 0.1664-0.9981-0.2217-1.442-1.054-1.8857-0.8319-0.4439-1.4972-11.926-0.61-12.868 0.8873-0.9428 17.361-1.6084 19.857-4.4374 2.4962-2.8289 1.165-7.3218 1.165-7.3218s-6.2926 1.6647-11.686-1.9936c-0.0122 0.3608-0.1888 0.7112-0.5085 0.932-0.0165 0.011-5.7546 4.0433-11.214 5.0984-0.6406 0.1224-1.2597-0.2977-1.3822-0.9383-0.1224-0.6406 0.2974-1.2597 0.938-1.3822 4.9635-0.9592 10.302-4.7089 10.318-4.7194 0.1131-0.0782 0.2352-0.1338 0.3611-0.1678-2.4046-2.1985-4.4682-5.6934-5.4624-11.194l-15.753 0.4439s2.2186 31.172-30.564 18.636zm9.8192 18.25-1.8859-11.648 11.149 0.2773-0.3328 11.371zm12.813-0.1664 0.2217-13.479s7.7652-5.2137 8.7639-8.9299l4.6593 0.2216s-0.8323 21.354-3.439 22.464z"/>
    <path d="m283.4 470.32c7.9954 0 14.477 6.4817 14.477 14.477s-6.4817 14.477-14.477 14.477-14.477-6.4817-14.477-14.477 6.4817-14.477 14.477-14.477zm0 8.1728c1.7407 0 3.3176 0.7058 4.458 1.8462l0.0561 0.0522c1.1073 1.1358 1.7901 2.6903 1.7901 4.4059 0 1.7427-0.705 3.3199-1.8442 4.46-1.1401 1.139-2.7173 1.8442-4.46 1.8442-1.7433 0-3.32-0.7052-4.4601-1.8442-1.1384-1.1424-1.8442-2.7193-1.8442-4.46 0-1.7414 0.7058-3.3177 1.8462-4.4581s2.7167-1.8462 4.4581-1.8462zm6.131 0.1729c-1.569-1.569-3.7372-2.5395-6.131-2.5395-2.3942 0-4.5621 0.9705-6.1311 2.5395-1.5692 1.5693-2.5398 3.7369-2.5398 6.1314 0 2.3938 0.9706 4.562 2.5398 6.131h4e-3c1.5689 1.5687 3.7355 2.5399 6.1268 2.5399 2.3907 0 4.5575-0.9712 6.1268-2.5399l4e-3 -4e-3c1.5687-1.5693 2.5399-3.7361 2.5399-6.1268 0-2.3582-0.9445-4.4975-2.475-6.0611l-0.0649-0.0703z"/>
    <path d="m332.21 469.32c6.0041 0 10.871 4.867 10.871 10.871s-4.8671 10.871-10.871 10.871c-6.004 0-10.871-4.8673-10.871-10.871s4.8674-10.871 10.871-10.871zm0 6.2671c2.5427 0 4.604 2.0613 4.604 4.604 0 2.543-2.0613 4.604-4.604 4.604-2.5429 0-4.604-2.061-4.604-4.604 0-2.5427 2.0611-4.604 4.604-4.604"/>
   </g>
   <g>
    <path d="m213.51 430.19c-2.0225 0-3.9716 0.2968-5.847 0.8906-1.8757 0.5936-3.5802 1.4344-5.1132 2.5229v7.4695h2.8378c0-2.5064 0.7829-4.4521 2.3485-5.8371 1.5333-1.3853 3.5229-2.0778 5.9695-2.0778 2.0548 0 3.7102 0.5361 4.9663 1.6078 1.256 1.0718 1.8836 2.4979 1.8836 4.2789 0 1.2201-0.3424 2.2343-1.0273 3.0422-0.6851 0.8081-1.525 1.4593-2.52 1.9539-0.9947 0.4949-2.3893 1.0721-4.1831 1.7314-2.1858 0.7917-3.939 1.5418-5.2599 2.251-1.3213 0.7089-2.4466 1.7065-3.3764 2.9928-0.9295 1.2861-1.3943 2.935-1.3943 4.9468 0 1.8136 0.4402 3.4049 1.3212 4.7735 0.8807 1.3686 2.1039 2.4239 3.6694 3.166 1.5659 0.7418 3.3599 1.1129 5.3822 1.1129 2.0225 0 4.0612-0.2803 6.1163-0.841l2.6909 0.2474 1.4678-9.0527-2.789-0.3957c-0.4893 2.3085-1.3862 4.106-2.6909 5.392-1.2067 1.2204-2.8214 1.8304-4.8439 1.8304-1.8266 0-3.2947-0.4618-4.4036-1.385-1.1092-0.9236-1.6637-2.1603-1.6637-3.7103 0-1.1211 0.3181-2.0528 0.9542-2.7947 0.6361-0.7421 1.4352-1.3439 2.3975-1.8056 0.9621-0.4618 2.2916-0.9893 3.9878-1.5829 2.1855-0.7917 3.9631-1.5503 5.3331-2.2757 1.37-0.7253 2.5444-1.7725 3.5229-3.141 0.9788-1.3689 1.4681-3.1414 1.4681-5.3178 0-2.0118-0.4731-3.7761-1.4191-5.2932-0.9462-1.5171-2.2592-2.6796-3.9387-3.4874-1.6801-0.8079-3.6289-1.2121-5.847-1.2121zm28.378 25.031c2.8706 0 5.1457-0.6515 6.8255-1.954 1.6801-1.3028 2.5197-3.1082 2.5197-5.4167 0-2.4075-0.8725-4.2871-2.6175-5.6392-1.745-1.3522-4.1343-2.0118-7.1682-1.9789h-4.3056v-6.7771l3.1315-0.445v-2.3746h-10.813v2.3746c1.3051 0 2.1776 0.1811 2.6178 0.544 0.4402 0.3628 0.6605 1.1049 0.6605 2.226v13.95c0 1.1213-0.2203 1.8632-0.6605 2.226s-1.3127 0.5443-2.6178 0.5443v2.3743h3.2783c1.1744 0 2.7077 0.066 4.5992 0.1978 0.4244 0 1.0931 0.025 2.0061 0.0743 0.9136 0.0496 1.7617 0.0743 2.5444 0.0743zm-0.7827-12.367c1.696 0 3.009 0.4206 3.9388 1.2614 0.9297 0.841 1.3943 2.0696 1.3943 3.6853 0 1.55-0.4731 2.7374-1.4187 3.5617-0.9462 0.8246-2.3326 1.2368-4.1593 1.2368-0.8481 0-2.0877-0.0825-3.7185-0.2475v-9.4977zm38.116 9.6463-3.1314-0.4454v-12.911c0-2.6714-0.8402-4.8232-2.52-6.4556-1.6798-1.6325-3.9714-2.4486-6.8743-2.4486-2.9035 0-5.2194 0.8328-6.948 2.4982-1.7289 1.6653-2.5934 3.9821-2.5934 6.9502v10.042c0 1.1213-0.22 1.8632-0.6605 2.226-0.4402 0.3628-1.313 0.5443-2.6175 0.5443v2.3743h10.764v-2.3743l-3.1312-0.4454v-12.664c0-2.0776 0.4975-3.6854 1.4922-4.8229 0.995-1.1378 2.3893-1.7068 4.1836-1.7068 1.7286 0 3.115 0.5525 4.1588 1.6572 1.0437 1.1049 1.5658 2.5475 1.5658 4.3285v10.883c0 1.1213-0.2202 1.8632-0.6605 2.226-0.4405 0.3628-1.313 0.5443-2.6178 0.5443v2.3743h9.5902zm26.226-19.49v-2.3746h-6.5563l-4.5504 8.4589c-0.3915 0.7256-0.7586 1.2038-1.101 1.4346-0.3424 0.231-0.8399 0.3464-1.4924 0.3464h-1.0276v-7.4203l3.1317-0.445v-2.3746h-10.813v2.3746c1.3048 0 2.1773 0.1811 2.6175 0.544 0.4405 0.3628 0.6605 1.1049 0.6605 2.226v13.95c0 1.1213-0.22 1.8632-0.6605 2.226-0.4402 0.3628-1.3127 0.5443-2.6175 0.5443v2.3743h3.278c1.1418 0 2.6586 0.066 4.5507 0.1978 0.3912 0 1.0355 0.025 1.9324 0.0743 0.8972 0.0496 1.7532 0.0743 2.569 0.0743 2.8052 0 5.023-0.635 6.6541-1.9046 1.631-1.2697 2.4466-3.0422 2.4466-5.3178 0-3.7265-2.1855-6.0186-6.5566-6.876v-0.099l4.8442-7.5685zm-10.862 10.487c1.6311 0 2.8868 0.3793 3.7675 1.1379 0.8805 0.7582 1.321 1.8632 1.321 3.3142 0 1.5171-0.4485 2.6711-1.3453 3.4628-0.8975 0.7915-2.2102 1.1872-3.9388 1.1872-0.9136 0-2.1367-0.0825-3.67-0.2475v-8.8546zm33.37-4.8478-2.3976-8.0138h-16.195v2.3746c1.3047 0 2.1772 0.1811 2.6175 0.544 0.4405 0.3628 0.6607 1.1049 0.6607 2.226v13.95c0 1.1213-0.2202 1.8632-0.6607 2.226-0.4403 0.3628-1.3128 0.5443-2.6175 0.5443v2.3743h10.813v-2.3743l-3.1315-0.4454v-18.699h2.8866c1.1418 0 2.1367 0.3299 2.9848 0.9893 1.109 0.9564 1.9571 2.6053 2.5444 4.9467zm13.26-8.4095c-3.4574 0-6.173 1.1046-8.1465 3.3143-1.9735 2.2096-2.9602 5.3591-2.9602 9.4484 0 3.9243 0.9867 6.9503 2.9602 9.0774 1.9735 2.1268 4.6891 3.1904 8.1465 3.1904 3.4577 0 6.1733-1.0636 8.1468-3.1904 1.9734-2.1271 2.9602-5.1531 2.9602-9.0774 0-4.0893-0.9868-7.2388-2.9602-9.4484-1.9735-2.2097-4.6891-3.3143-8.1468-3.3143zm0 2.6217c2.0551 0 3.621 0.8411 4.6973 2.5229s1.6146 4.2213 1.6146 7.6181c0 3.2318-0.5383 5.6475-1.6146 7.247-1.0763 1.5994-2.6422 2.399-4.6973 2.399-4.2078 0-6.3116-3.2153-6.3116-9.646 0-6.7606 2.1038-10.141 6.3116-10.141zm26.128-2.6217c-2.0223 0-3.8407 0.5029-5.4556 1.5086-1.6143 1.006-2.8868 2.4817-3.816 4.4274-0.9298 1.9457-1.3946 4.2543-1.3946 6.9256 0 2.5064 0.4648 4.6746 1.3946 6.505 0.9292 1.8303 2.2261 3.2317 3.8894 4.2046 1.664 0.9728 3.5884 1.4593 5.7736 1.4593 1.7292 0 3.2947-0.2143 4.6976-0.6429l2.0058 0.2472 1.2722-7.5189-2.5444-0.3464c-0.3589 1.7478-0.9785 3.1164-1.8592 4.1059-0.5219 0.5605-1.0681 0.9562-1.639 1.1872-0.5709 0.2307-1.2643 0.3461-2.0795 0.3461-1.8267 0-3.3029-0.8243-4.428-2.4732-1.1254-1.6489-1.6883-4.0071-1.6883-7.0739 0-3.232 0.5952-5.7217 1.7861-7.4696 1.1905-1.7478 2.7479-2.6217 4.6729-2.6217 2.5115 0 4.648 1.4179 6.4091 4.2539l2.1532-1.286c-2.2833-3.8254-5.3334-5.7382-9.1499-5.7382zm36.061 2.7703v-2.3746h-6.5075l-5.9694 10.388h-0.0978l-1.4188-1.9292c-0.3263-0.4286-0.5544-0.7997-0.6851-1.1129-0.1304-0.3132-0.2285-0.7339-0.2937-1.2614v-3.265l3.1314-0.445v-2.3746h-10.813v2.3746c1.3051 0 2.1776 0.1811 2.6178 0.544 0.4405 0.3628 0.6605 1.1049 0.6605 2.226v13.95c0 1.1213-0.22 1.8632-0.6605 2.226-0.4402 0.3628-1.3127 0.5443-2.6178 0.5443v2.3743h10.813v-2.3743l-3.1314-0.4454v-9.9428h0.0978l6.4587 8.4589c0.2937 0.4286 0.4893 0.7503 0.5871 0.9646 0.0981 0.2143 0.0981 0.404 0 0.5689-0.0978 0.1647-0.3095 0.2722-0.6361 0.3215-0.326 0.0496-0.8643 0.0743-1.6146 0.0743v2.3743h9.2477v-2.3743l-2.7402-0.4454-6.1648-8.0631 7.0458-10.537z"/>
    <path d="m208.61 420.04v-11.932h5.3623c1.0307 0 1.715 0.2497 2.0532 0.7489 0.3381 0.4992 0.5074 1.5055 0.5074 3.0192h2.7051v-10.531h-2.7051l-0.29 3.8648h-7.6329v-12.222l4.2996-0.4348v-2.6569h-13.188v2.6569c0.9984 0 1.7873 0.0485 2.3673 0.1451 0.5796 0.0967 1.0142 0.2577 1.3042 0.4831 0.483 0.3863 0.7245 1.0306 0.7245 1.9323v22.657c0 0.9017-0.2415 1.546-0.7245 1.9324-0.29 0.2256-0.7246 0.3866-1.3042 0.483-0.58 0.0966-1.3689 0.1451-2.3673 0.1451v2.6569h19.372l2.9469 0.29 1.0627-7.7295-2.5602-0.4348c-0.451 1.8034-1.0627 3.0594-1.8357 3.7681-0.8054 0.773-1.8842 1.1593-3.2369 1.1593zm141.31-5.5071-2.6572-0.2415c-0.322 2.0934-0.966 3.6552-1.9324 4.6859-0.7727 0.773-1.8034 1.1594-3.0917 1.1594h-4.2029v-27.15l4.2996-0.4348v-2.6569h-13.188v2.6569c0.9983 0 1.7875 0.0485 2.3672 0.1451 0.5797 0.0967 1.0145 0.2577 1.3042 0.4831 0.4833 0.3863 0.7248 1.0306 0.7248 1.9323v25.024h-4.1547c-1.256 0-2.3026-0.3864-3.1399-1.1594-0.9341-0.934-1.5784-2.4959-1.9324-4.6859l-2.6572 0.2415 1.0145 8.744 2.9951-0.29h20.242l2.9466 0.29zm-102.66-22.319v-2.3187h-10.532v2.3187c1.0627 0 1.7955 0.0564 2.198 0.1693 0.4028 0.1128 0.6041 0.3299 0.6041 0.6522 0 0.193-0.0485 0.4025-0.1452 0.6279l-1.2075 3.3332h-8.6474l-1.7875-4.3477 3.1884-0.4349v-2.3187h-9.5652v2.3187c1.127 0 1.9082 0.0967 2.3428 0.29 0.4348 0.1933 0.7812 0.5635 1.0389 1.1112l8.0192 18.406-0.5315 1.4976 3.7199 1.3527 8.6959-22.222zm-10.048 7.3914-1.4009 3.8647c-0.8374 2.3834-1.3689 3.9614-1.5942 4.7344h-0.0967l-1.8842-4.7344-1.5942-3.8647zm34.735-7.3914v-2.3187h-6.4735l-4.4926 8.261c-0.3867 0.7084-0.749 1.1755-1.0871 1.4009-0.3382 0.2253-0.8292 0.3382-1.4735 0.3382h-1.0145v-7.2465l3.092-0.4349v-2.3187h-10.676v2.3187c1.2881 0 2.1498 0.1772 2.5844 0.5315 0.4348 0.3544 0.6522 1.0789 0.6522 2.1739v13.623c0 1.095-0.2174 1.8196-0.6522 2.1739-0.4346 0.3543-1.2963 0.5315-2.5844 0.5315v2.3187h3.2366c1.1274 0 2.6249 0.0644 4.4929 0.1934 0.3864 0 1.0225 0.0241 1.908 0.0725 0.8859 0.0482 1.7312 0.0723 2.5365 0.0723 2.7697 0 4.9598-0.6199 6.5701-1.8598 1.6101-1.2399 2.4154-2.971 2.4154-5.1933 0-3.6394-2.1577-5.8777-6.4735-6.715v-0.0967l4.7827-7.3913zm-10.725 10.242c1.6103 0 2.8502 0.3702 3.7199 1.1109 0.8694 0.7407 1.3042 1.8198 1.3042 3.2369 0 1.4814-0.4428 2.6087-1.3286 3.3817-0.8855 0.7727-2.1818 1.1594-3.8889 1.1594-0.9017 0-2.1095-0.0805-3.6232-0.2415v-8.6474zm13.044-10.242c1.1594 0 1.9647 0.0967 2.4154 0.29 0.451 0.1933 0.741 0.5959 0.8697 1.2079l3.2366 15.652c0.0646 0.3867 0.0966 0.6443 0.0966 0.773 0 0.29-0.0805 0.5154-0.2415 0.6764-0.322 0.3543-1.095 0.4992-2.3187 0.4348v2.3187h8.2607l3.6232-12.657c0.5797-1.9324 1.0789-4.203 1.4979-6.8117h0.0963l0.6764 2.7536c0.29 1.417 0.612 2.7697 0.9663 4.0581l3.4299 12.657h8.0677v-2.3187l-2.6087-0.483 3.9614-18.116 2.6569-0.4349v-2.3187h-10.531v2.3187c1.127 0 1.9 0.0888 2.3187 0.2659 0.4187 0.1772 0.6282 0.5071 0.6282 0.9902 0 0.2256-0.0162 0.4186-0.0485 0.5799l-1.5942 8.7438c-0.451 2.4477-0.773 4.7344-0.9661 6.8601h-0.0966c-0.4187-2.0934-0.9502-4.3478-1.5942-6.7635l-3.2369-12.319h-4.9275l-3.6232 12.222c-0.612 2.2223-1.1432 4.509-1.5942 6.8601h-0.0967c-0.161-1.6427-0.5153-3.9291-1.0627-6.8601l-1.8842-10.145 3.1884-0.4349v-2.3187h-9.5652zm84.203-2.7051c-3.414 0-6.095 1.0789-8.0436 3.2366-1.9485 2.1578-2.9228 5.2336-2.9228 9.2271 0 3.8327 0.9743 6.7875 2.9228 8.8648 1.9486 2.0775 4.6296 3.1161 8.0436 3.1161 3.4138 0 6.0951-1.0386 8.0433-3.1161 1.9486-2.0773 2.9228-5.0321 2.9228-8.8648 0-3.9935-0.9742-7.0693-2.9228-9.2271-1.9482-2.1577-4.6295-3.2366-8.0433-3.2366zm0 2.5603c2.0288 0 3.5748 0.8212 4.6375 2.4639 1.063 1.6423 1.5942 4.1224 1.5942 7.4395 0 3.1564-0.5312 5.5153-1.5942 7.0775-1.0627 1.5619-2.6087 2.3429-4.6375 2.3429-4.1547 0-6.2319-3.14-6.2319-9.4204 0-6.6022 2.0772-9.9034 6.2319-9.9034zm35.217 21.498v-2.3187l-2.6087-0.4348-6.5702-11.304v-6.8601l3.0918-0.4349v-2.3187h-10.676v2.3187c1.2881 0 2.1495 0.1772 2.5844 0.5315 0.4348 0.3544 0.6522 1.0789 0.6522 2.1739v3.8166l-6.5216 11.015c-0.3544 0.6117-0.741 1.0145-1.1597 1.2075-0.4187 0.1933-1.0465 0.29-1.8839 0.29v2.3187h10.531v-2.3187l-2.8984-0.4348 2.802-5.2657c0.7407-1.4816 1.3042-2.673 1.6909-3.575h0.0963c0.451 1.0307 1.0469 2.2223 1.7876 3.575l2.029 3.7681c0.3543 0.7084 0.4348 1.1756 0.2415 1.4009-0.1287 0.2254-0.3705 0.3705-0.7245 0.4348-0.3543 0.0644-0.9663 0.0967-1.8357 0.0967v2.3187zm10.097-24.058c-1.4814 0-2.9387 0.1851-4.3719 0.5553-1.4332 0.3705-2.6651 0.8779-3.6958 1.522v5.2174h2.5121c0-1.6104 0.4992-2.8182 1.4975-3.6232 0.9984-0.8374 2.3352-1.2561 4.0099-1.2561 1.3527 0 2.4557 0.3623 3.3092 1.0868 0.8535 0.7248 1.2801 1.6345 1.2801 2.7295s-0.4266 1.9245-1.2801 2.488c-0.8535 0.5638-2.166 1.1353-3.9373 1.7149-1.5781 0.5477-2.8582 1.071-3.8407 1.5702-0.9822 0.4991-1.8196 1.2157-2.5121 2.1497-0.6925 0.9341-1.0386 2.1419-1.0386 3.6233 0 1.9647 0.7328 3.5668 2.198 4.8067 1.4655 1.2402 3.422 1.8601 5.8697 1.8601 1.707 0 3.2369-0.2095 4.5893-0.6282l1.9808 0.2415 1.2561-7.198-2.5121-0.3863c-0.3543 1.739-0.9825 3.0594-1.8842 3.9611-0.934 1.0307-2.0772 1.546-3.4299 1.546-1.2883 0-2.2946-0.322-3.0195-0.9663-0.7245-0.644-1.0868-1.4814-1.0868-2.5121 0-1.095 0.4349-1.9241 1.3043-2.4879 0.8696-0.5636 2.19-1.1192 3.9614-1.6665 1.578-0.5154 2.8502-1.0066 3.8165-1.4735 0.9661-0.4671 1.7955-1.1594 2.488-2.0772 0.6922-0.9179 1.0386-2.1178 1.0386-3.5992 0-2.19-0.773-3.9373-2.319-5.2415-1.5457-1.3045-3.6071-1.9565-6.1835-1.9565"/>
    <path d="m244.1 372.97c-0.98 0-1.7748 0.7952-1.7748 1.7751 0 0.9802 0.7948 1.775 1.7748 1.775h128.02c0.9799 0 1.775-0.7948 1.775-1.775 0-0.9799-0.7951-1.7751-1.775-1.7751z"/>
   </g>
   <path d="m243.42 304.48v23.201h3.1238v-20.305h6.7033v-2.8962zm18.418 0v1.5185c-0.3906-0.6236-0.8407-1.0845-1.345-1.3719-0.5043-0.2931-1.0846-0.4394-1.7408-0.4394-1.3124 0-2.3105 0.6834-2.9883 2.05-0.678 1.3666-1.0196 3.3897-1.0196 6.0579 0 2.6519 0.3362 4.6585 1.0086 6.02 0.6726 1.3612 1.6758 2.0443 2.9993 2.0443 0.667 0 1.2527-0.1409 1.7569-0.4283 0.5046-0.2874 0.9494-0.7376 1.3289-1.3504v1.4859h2.8636v-15.587zm-4.1978 7.8151c0-1.9904 0.1684-3.4004 0.4992-4.2139 0.3362-0.819 0.8838-1.2257 1.6486-1.2257s1.3124 0.4121 1.6433 1.231c0.3361 0.8244 0.5042 2.2289 0.5042 4.2086 0 1.9956-0.1681 3.3951-0.4935 4.1922-0.3308 0.8028-0.8784 1.2039-1.654 1.2039s-1.3289-0.4011-1.6543-1.2039c-0.3308-0.7971-0.4935-2.1966-0.4935-4.1922zm10.679-7.8151v13.374h-1.5619v2.2127h1.5619v5.4615c0 1.2093 0.2985 2.1637 0.9003 2.8633 0.5966 0.6999 1.4156 1.0468 2.4567 1.0468 0.2441 0 0.5208-0.0272 0.83-0.0867 0.3036-0.0598 0.6506-0.1519 1.0304-0.2767v-2.6087c-0.2114 0.076-0.4068 0.125-0.5859 0.1573-0.1843 0.0326-0.347 0.0491-0.4935 0.0491-0.4337 0-0.7537-0.125-0.9491-0.3745-0.1953-0.2494-0.2928-0.6452-0.2928-1.1985v-5.0329h2.1478v-2.2127h-2.1478v-13.374zm13.336 0v1.5185c-0.3906-0.6236-0.8407-1.0845-1.345-1.3719-0.5043-0.2931-1.0845-0.4394-1.7408-0.4394-1.3124 0-2.3105 0.6834-2.9882 2.05-0.6781 1.3666-1.0197 3.3897-1.0197 6.0579 0 2.6519 0.3362 4.6585 1.0086 6.02 0.6727 1.3612 1.6758 2.0443 2.9993 2.0443 0.667 0 1.2527-0.1409 1.7569-0.4283 0.5046-0.2874 0.9494-0.7376 1.3289-1.3504v1.4859h2.8636v-15.587zm-4.1978 7.8151c0-1.9904 0.1684-3.4004 0.4992-4.2139 0.3362-0.819 0.8838-1.2257 1.6486-1.2257s1.3125 0.4121 1.6433 1.231c0.3361 0.8244 0.5042 2.2289 0.5042 4.2086 0 1.9956-0.1681 3.3951-0.4935 4.1922-0.3308 0.8028-0.8784 1.2039-1.654 1.2039-0.7755 0-1.3289-0.4011-1.6543-1.2039-0.3308-0.7971-0.4935-2.1966-0.4935-4.1922zm9.1168 7.7715h2.9557l1.8278-10.218 2.4621 10.218h2.8418l-6.2856-21.867h-2.9557l2.397 7.6413zm13.933-6.0848h4.3603v0.396c0 1.2852-0.1681 2.207-0.5097 2.7819-0.3364 0.5695-0.8787 0.8569-1.6324 0.8569-0.7269 0-1.2799-0.3416-1.6543-1.025-0.3742-0.6832-0.5639-1.6866-0.5639-3.0098zm6.969-4.2954v-0.2061c0-1.6432-0.4121-2.9341-1.2421-3.8778-0.8243-0.9436-1.9522-1.4153-3.3786-1.4153-1.7465 0-3.0263 0.6508-3.8345 1.9468-0.8078 1.3017-1.2146 3.3736-1.2146 6.2261 0 2.6847 0.4068 4.6859 1.2146 6.0091 0.8082 1.3286 2.0339 1.9902 3.6771 1.9902 1.7465 0 3.0045-0.6018 3.7747-1.8059 0.7755-1.2039 1.1607-3.1726 1.1607-5.9114v-0.9057h-7.1263v-0.4609c0-1.6271 0.1843-2.8094 0.5531-3.547 0.3742-0.7322 0.9601-1.1009 1.7626-1.1009 0.6454 0 1.1335 0.2551 1.4643 0.7594 0.3362 0.5096 0.5154 1.269 0.5477 2.2833zm3.0804-5.2064v13.472h-1.5619v2.1149h1.5619v4.2304h2.8636v-4.2304h2.1475v-2.1149h-2.1475v-13.472zm7.1317 0v13.472h-1.5619v2.1149h1.5619v4.2304h2.8636v-4.2304h2.1475v-2.1149h-2.1475v-13.472zm8.8563 9.5018h4.3602v0.396c0 1.2852-0.168 2.207-0.5096 2.7819-0.3365 0.5695-0.8788 0.8569-1.6325 0.8569-0.7268 0-1.2798-0.3416-1.6543-1.025-0.3742-0.6832-0.5638-1.6866-0.5638-3.0098zm6.969-4.2954v-0.2061c0-1.6432-0.4122-2.9341-1.2422-3.8778-0.8243-0.9436-1.9522-1.4153-3.3786-1.4153-1.7464 0-3.0263 0.6508-3.8344 1.9468-0.8079 1.3017-1.2147 3.3736-1.2147 6.2261 0 2.6847 0.4068 4.6859 1.2147 6.0091 0.8081 1.3286 2.0338 1.9902 3.6771 1.9902 1.7464 0 3.0044-0.6018 3.7746-1.8059 0.7756-1.2039 1.1608-3.1726 1.1608-5.9114v-0.9057h-7.1263v-0.4609c0-1.6271 0.1842-2.8094 0.553-3.547 0.3742-0.7322 0.9601-1.1009 1.7626-1.1009 0.6455 0 1.1336 0.2551 1.4644 0.7594 0.3362 0.5096 0.5153 1.269 0.5476 2.2833zm6.5296-2.0826-2.9503-8.1675-1.6053 0.4774 2.1096 8.4385zm9.2304-3.1238v23.201h3.1238v-23.201zm7.2944 0v23.201h2.8962l6.15-16.113v16.113h2.9611v-23.201h-2.9285l-6.1177 16.243v-16.243z"/>
   <path d="m185.78 337.73v19.905h7.9563v-2.4009h-5.2764v-5.9185h4.8251v-2.3732h-4.8251v-6.728h5.2764v-2.4846zm9.2636 13.372h2.5452l1.3865-6.9795c0.0839-0.4093 0.1536-0.8699 0.2188-1.3819 0.0652-0.5164 0.121-1.0746 0.1769-1.6843 0.0836 0.7353 0.1582 1.3586 0.2234 1.8657 0.0697 0.512 0.1349 0.9029 0.1953 1.1727l1.3631 7.0073h2.5453l-3.35-13.372h-1.9542zm12.065-5.2206h3.7409v0.3396c0 1.1027-0.1443 1.8938-0.4374 2.3871-0.2886 0.4884-0.7537 0.735-1.4006 0.735-0.6233 0-1.0978-0.2931-1.419-0.8793s-0.4839-1.4471-0.4839-2.5824zm5.9788-3.685v-0.1769c0-1.41-0.3534-2.5172-1.0655-3.3267-0.7072-0.8096-1.675-1.2144-2.8987-1.2144-1.4981 0-2.5963 0.5581-3.2896 1.6702-0.6931 1.1168-1.042 2.8941-1.042 5.3416 0 2.3031 0.3489 4.0201 1.042 5.1553 0.6933 1.1401 1.745 1.7076 3.1547 1.7076 1.4984 0 2.5778-0.5164 3.2386-1.5494 0.6652-1.0329 0.9955-2.7218 0.9955-5.0715v-0.7772h-6.1138v-0.3954c0-1.3958 0.1582-2.4101 0.4745-3.043 0.3212-0.6282 0.8238-0.9445 1.5123-0.9445 0.5536 0 0.9723 0.2188 1.2563 0.6514 0.2883 0.4373 0.442 1.0887 0.47 1.959zm2.5314-4.4669v13.372h2.3732v-1.9497c0.3395 0.7121 0.7721 1.247 1.2979 1.6053 0.5304 0.3628 1.1773 0.5584 1.9404 0.5955v-2.5962h-0.4097c-0.9583 0-1.6562-0.2373-2.103-0.7166-0.4467-0.4745-0.6701-1.2237-0.6701-2.2428v-8.068zm6.3652 13.372h2.5359l1.5681-8.7662 2.1124 8.7662h2.438l-5.3926-18.761h-2.5359l2.0566 6.556zm15.969-13.372v19.905h2.6801v-17.421h5.751v-2.4846zm9.9663 17.364c0 0.4468 0.1491 0.8189 0.4516 1.1308 0.2976 0.3069 0.6746 0.4606 1.1211 0.4606 0.4328 0 0.805-0.1537 1.1029-0.4606 0.3025-0.3119 0.4513-0.684 0.4513-1.1308 0-0.4326-0.1536-0.8047-0.4561-1.1072-0.307-0.3025-0.6746-0.4561-1.0981-0.4561-0.4465 0-0.8235 0.1488-1.1211 0.4467-0.3025 0.3025-0.4516 0.6747-0.4516 1.1166zm0.3351-17.364v13.372h2.4568v-13.372zm5.6999 0v11.558h-1.34v1.8148h1.34v3.6292h2.4568v-3.6292h1.8425v-1.8148h-1.8425v-11.558zm6.1186 0v11.558h-1.34v1.8148h1.34v3.6292h2.4567v-3.6292h1.8426v-1.8148h-1.8426v-11.558zm6.0068 0v21.134h2.4568v-21.134zm7.1796 8.1519h3.7409v0.3396c0 1.1027-0.1443 1.8938-0.4374 2.3871-0.2885 0.4884-0.7537 0.735-1.4006 0.735-0.6233 0-1.0978-0.2931-1.419-0.8793s-0.4839-1.4471-0.4839-2.5824zm5.9789-3.685v-0.1769c0-1.41-0.3535-2.5172-1.0656-3.3267-0.7072-0.8096-1.675-1.2144-2.8987-1.2144-1.4981 0-2.5962 0.5581-3.2896 1.6702-0.6931 1.1168-1.042 2.8941-1.042 5.3416 0 2.3031 0.3489 4.0201 1.042 5.1553 0.6934 1.1401 1.745 1.7076 3.1547 1.7076 1.4984 0 2.5778-0.5164 3.2386-1.5494 0.6653-1.0329 0.9955-2.7218 0.9955-5.0715v-0.7772h-6.1138v-0.3954c0-1.3958 0.1582-2.4101 0.4746-3.043 0.3211-0.6282 0.8237-0.9445 1.5122-0.9445 0.5536 0 0.9723 0.2188 1.2564 0.6514 0.2882 0.4373 0.4419 1.0887 0.4699 1.959zm8.138-4.4669v19.905h8.1518v-2.4009h-5.4717v-5.9466h5.0205v-2.3728h-5.0205v-9.1849zm15.503 0v1.3028c-0.3351-0.5351-0.7211-0.9306-1.154-1.1772-0.4325-0.2511-0.9306-0.3767-1.4936-0.3767-1.1259 0-1.9819 0.5862-2.5636 1.7586-0.5817 1.1727-0.8748 2.9081-0.8748 5.1973 0 2.2754 0.2886 3.9969 0.8654 5.1648 0.5769 1.1678 1.4378 1.754 2.573 1.754 0.5724 0 1.0749-0.121 1.5075-0.3676 0.4329-0.2466 0.8144-0.6327 1.1401-1.1585v1.275h2.4568v-13.372zm-3.6014 6.7048c0-1.7076 0.1443-2.9174 0.428-3.6153 0.2886-0.7024 0.7586-1.0516 1.4145-1.0516 0.6562 0 1.1262 0.3537 1.41 1.0564 0.2885 0.7073 0.4325 1.9123 0.4325 3.6105 0 1.7124-0.144 2.9126-0.4232 3.5966-0.284 0.6888-0.7537 1.033-1.4193 1.033-0.6653 0-1.1398-0.3442-1.419-1.033-0.2838-0.684-0.4235-1.8842-0.4235-3.5966zm9.0218-6.7048v13.372h2.3732v-1.9497c0.3396 0.7121 0.7721 1.247 1.298 1.6053 0.5303 0.3628 1.1772 0.5584 1.9403 0.5955v-2.5962h-0.4096c-0.9584 0-1.6563-0.2373-2.1031-0.7166-0.4467-0.4745-0.6701-1.2237-0.6701-2.2428v-8.068zm7.5379 0v13.372h2.4287v-1.3309c0.3118 0.4887 0.6934 0.8564 1.1492 1.1027 0.4516 0.2466 0.9864 0.3676 1.5959 0.3676 0.6004 0 1.1168-0.1301 1.5494-0.386 0.4329-0.2605 0.8144-0.6701 1.154-1.2331 0.3631 0.5445 0.7911 0.9493 1.2796 1.2192 0.4932 0.265 1.0516 0.3999 1.675 0.3999 0.9819 0 1.7124-0.2743 2.1869-0.8189 0.4793-0.5442 0.7166-1.3725 0.7166-2.4891v-10.204h-2.4568v8.9893c0 0.9073-0.1162 1.5261-0.3535 1.8518-0.2375 0.3306-0.6469 0.4933-1.2379 0.4933-0.5349 0-0.9445-0.1721-1.2237-0.5117-0.2837-0.3399-0.4232-0.847-0.4232-1.5216v-9.3011h-2.429v8.9893c0 0.8889-0.1162 1.5029-0.3535 1.8428-0.2373 0.3347-0.6375 0.5023-1.205 0.5023-0.5258 0-0.9261-0.1721-1.1911-0.5117-0.2699-0.3399-0.4051-0.847-0.4051-1.5216v-9.3011zm18.374 8.1519h3.7409v0.3396c0 1.1027-0.1443 1.8938-0.4374 2.3871-0.2886 0.4884-0.7538 0.735-1.4006 0.735-0.6234 0-1.0979-0.2931-1.4191-0.8793-0.3211-0.5862-0.4838-1.4471-0.4838-2.5824zm5.9788-3.685v-0.1769c0-1.41-0.3535-2.5172-1.0655-3.3267-0.7073-0.8096-1.675-1.2144-2.8987-1.2144-1.4982 0-2.5963 0.5581-3.2896 1.6702-0.6931 1.1168-1.0421 2.8941-1.0421 5.3416 0 2.3031 0.349 4.0201 1.0421 5.1553 0.6933 1.1401 1.745 1.7076 3.1546 1.7076 1.4984 0 2.5779-0.5164 3.2386-1.5494 0.6653-1.0329 0.9955-2.7218 0.9955-5.0715v-0.7772h-6.1137v-0.3954c0-1.3958 0.1581-2.4101 0.4745-3.043 0.3212-0.6282 0.8237-0.9445 1.5123-0.9445 0.5536 0 0.9723 0.2188 1.2563 0.6514 0.2883 0.4373 0.4419 1.0887 0.47 1.959zm2.5313-4.4669v13.372h2.3732v-1.9497c0.3396 0.7121 0.7722 1.247 1.298 1.6053 0.5304 0.3628 1.1772 0.5584 1.9403 0.5955v-2.5962h-0.4096c-0.9584 0-1.6563-0.2373-2.103-0.7166-0.4468-0.4745-0.6701-1.2237-0.6701-2.2428v-8.068zm6.7842 2.8197c0.3441-0.2977 0.6885-0.521 1.0281-0.6701 0.3396-0.1489 0.6886-0.2231 1.0423-0.2231 0.5165 0 0.9352 0.1533 1.2657 0.4651 0.3257 0.307 0.4884 0.7027 0.4884 1.1818 0 0.5723-0.4467 1.2844-1.3447 2.1404-0.1163 0.1163-0.2092 0.2002-0.2699 0.256-0.8745 0.828-1.461 1.5168-1.7586 2.0611-0.3025 0.5445-0.4513 1.1446-0.4513 1.8005 0 1.1262 0.3441 2.0475 1.0375 2.7548 0.6885 0.7117 1.5865 1.0655 2.6847 1.0655 0.3628 0 0.7211-0.0465 1.0701-0.1349 0.3489-0.0933 0.6981-0.2282 1.0423-0.4142v-2.522c-0.2651 0.3073-0.5536 0.5304-0.8655 0.6747-0.3118 0.1443-0.6746 0.2188-1.0839 0.2188-0.4561 0-0.8283-0.1443-1.1262-0.4374-0.2931-0.2885-0.442-0.6562-0.442-1.1026 0-0.5911 0.4326-1.2796 1.2935-2.0659 0.1721-0.1582 0.2979-0.2747 0.377-0.3583 0.8096-0.7447 1.3725-1.4193 1.6843-2.0194 0.3116-0.6004 0.47-1.2657 0.47-2.0055 0-1.1353-0.3444-2.0427-1.0329-2.7219-0.6934-0.6746-1.6146-1.0142-2.7686-1.0142-0.3722 0-0.7537 0.0417-1.1398 0.1207-0.3909 0.084-0.7912 0.2095-1.2005 0.3725zm16.718-0.2512h1.3913c1.5122 0 2.573 0.5443 3.1872 1.6331 0.6143 1.0936 0.9213 3.0197 0.9213 5.7928 0 2.7593-0.3025 4.6854-0.9119 5.7697-0.6095 1.0839-1.675 1.6285-3.1966 1.6285h-1.3913zm-2.7079-2.5685v19.905h3.5407c2.7083 0 4.6157-0.7447 5.7186-2.2289 1.1027-1.4842 1.6563-4.0572 1.6563-7.7096 0-3.6621-0.5536-6.2397-1.6563-7.7287-1.1029-1.4936-3.0103-2.238-5.7186-2.238zm13.6 0v13.372h2.3732v-1.9497c0.3396 0.7121 0.7721 1.247 1.298 1.6053 0.5303 0.3628 1.1772 0.5584 1.9403 0.5955v-2.5962h-0.4096c-0.9584 0-1.6563-0.2373-2.103-0.7166-0.4468-0.4745-0.6702-1.2237-0.6702-2.2428v-8.068zm9.1571 8.1519h3.7408v0.3396c0 1.1027-0.1442 1.8938-0.4373 2.3871-0.2886 0.4884-0.7538 0.735-1.4006 0.735-0.6234 0-1.0979-0.2931-1.4191-0.8793-0.3211-0.5862-0.4838-1.4471-0.4838-2.5824zm5.9788-3.685v-0.1769c0-1.41-0.3535-2.5172-1.0655-3.3267-0.7073-0.8096-1.675-1.2144-2.8988-1.2144-1.4981 0-2.5962 0.5581-3.2896 1.6702-0.693 1.1168-1.042 2.8941-1.042 5.3416 0 2.3031 0.349 4.0201 1.042 5.1553 0.6934 1.1401 1.745 1.7076 3.1547 1.7076 1.4984 0 2.5778-0.5164 3.2386-1.5494 0.6653-1.0329 0.9955-2.7218 0.9955-5.0715v-0.7772h-6.1137v-0.3954c0-1.3958 0.1581-2.4101 0.4745-3.043 0.3211-0.6282 0.8237-0.9445 1.5123-0.9445 0.5536 0 0.9722 0.2188 1.2563 0.6514 0.2883 0.4373 0.4419 1.0887 0.47 1.959zm8.0311-4.4669v1.3028c-0.335-0.5351-0.7211-0.9306-1.154-1.1772-0.4325-0.2511-0.9306-0.3767-1.4935-0.3767-1.126 0-1.982 0.5862-2.5637 1.7586-0.5817 1.1727-0.8748 2.9081-0.8748 5.1973 0 2.2754 0.2886 3.9969 0.8654 5.1648 0.5769 1.1678 1.4378 1.754 2.5731 1.754 0.5723 0 1.0749-0.121 1.5074-0.3676 0.4329-0.2466 0.8144-0.6327 1.1401-1.1585v1.275h2.4568v-13.372zm-3.6014 6.7048c0-1.7076 0.1443-2.9174 0.428-3.6153 0.2886-0.7024 0.7586-1.0516 1.4145-1.0516 0.6562 0 1.1262 0.3537 1.41 1.0564 0.2885 0.7073 0.4325 1.9123 0.4325 3.6105 0 1.7124-0.144 2.9126-0.4232 3.5966-0.284 0.6888-0.7537 1.033-1.4193 1.033-0.6653 0-1.1398-0.3442-1.419-1.033-0.2838-0.684-0.4235-1.8842-0.4235-3.5966zm8.994-6.7048v13.372h2.4288v-1.3309c0.3118 0.4887 0.6933 0.8564 1.1491 1.1027 0.4516 0.2466 0.9865 0.3676 1.5959 0.3676 0.6004 0 1.1169-0.1301 1.5495-0.386 0.4328-0.2605 0.8144-0.6701 1.1539-1.2331 0.3632 0.5445 0.7912 0.9493 1.2796 1.2192 0.4932 0.265 1.0517 0.3999 1.675 0.3999 0.9819 0 1.7124-0.2743 2.1869-0.8189 0.4794-0.5442 0.7166-1.3725 0.7166-2.4891v-10.204h-2.4568v8.9893c0 0.9073-0.1162 1.5261-0.3534 1.8518-0.2376 0.3306-0.6469 0.4933-1.2379 0.4933-0.5349 0-0.9445-0.1721-1.2238-0.5117-0.2837-0.3399-0.4232-0.847-0.4232-1.5216v-9.3011h-2.429v8.9893c0 0.8889-0.1162 1.5029-0.3535 1.8428-0.2372 0.3347-0.6375 0.5023-1.205 0.5023-0.5258 0-0.926-0.1721-1.1911-0.5117-0.2698-0.3399-0.4051-0.847-0.4051-1.5216v-9.3011zm17.453 1.2796c0 0.4326 0.1536 0.805 0.4558 1.112 0.3072 0.3025 0.6794 0.4561 1.1123 0.4561 0.428 0 0.7908-0.1536 1.0885-0.4561 0.2934-0.307 0.4422-0.6794 0.4422-1.112 0-0.428-0.1488-0.7909-0.4422-1.0888-0.2977-0.2931-0.6605-0.4419-1.0885-0.4419-0.4329 0-0.8051 0.1488-1.1123 0.4419-0.3022 0.2979-0.4558 0.6608-0.4558 1.0888zm0.335 3.5782v15.047h2.4565v-15.047z"/>
  </g>
 </g>
</svg>