<?xml version="1.0" encoding="UTF-8" standalone="no"?>
<svg
   width="5954.0498"
   height="1273.5204"
   version="1.2"
   viewBox="0 0 5954.0495 1273.5204"
   id="svg95"
   sodipodi:docname="logo_rohrman-OPT.svg"
   inkscape:version="1.2.2 (b0a8486541, 2022-12-01)"
   xmlns:inkscape="http://www.inkscape.org/namespaces/inkscape"
   xmlns:sodipodi="http://sodipodi.sourceforge.net/DTD/sodipodi-0.dtd"
   xmlns="http://www.w3.org/2000/svg"
   xmlns:svg="http://www.w3.org/2000/svg">
  <sodipodi:namedview
     id="namedview97"
     pagecolor="#ffffff"
     bordercolor="#000000"
     borderopacity="0.25"
     inkscape:showpageshadow="2"
     inkscape:pageopacity="0.0"
     inkscape:pagecheckerboard="0"
     inkscape:deskcolor="#d1d1d1"
     showgrid="false"
     inkscape:zoom="0.23400119"
     inkscape:cx="1713.6665"
     inkscape:cy="598.28756"
     inkscape:window-width="1762"
     inkscape:window-height="1089"
     inkscape:window-x="0"
     inkscape:window-y="0"
     inkscape:window-maximized="1"
     inkscape:current-layer="g65" />
  <defs
     id="defs5">
    <clipPath
       id="clip1">
      <path
         d="m 106,84 h 51 v 31.02 h -51 z"
         id="path2" />
    </clipPath>
  </defs>
  <g
     fill="#f8a62b"
     id="g75"
     transform="translate(5296.9163,1132.9651)">
    <g
       transform="matrix(14.583184,0,0,14.583184,-5120.5491,134.85317)"
       id="g15">
      <path
         d="m 21.875,0 -9.5312,-22.219 h -2.5 L 0.3594,0 h 2.3125 l 3.2344,-7.4688 h 10.328 L 19.4531,0 Z m -6.5,-9.4844 H 6.75 l 4.3594,-10.203 z"
         id="path13" />
    </g>
    <g
       transform="matrix(14.583184,0,0,14.583184,-4715.5595,134.85317)"
       id="g19">
      <path
         d="m 15.156,-8.0469 c 0,4.8281 -2.7969,6.4219 -5.3438,6.4219 -2.9375,0 -5.3438,-1.9844 -5.3438,-6.4531 v -14.141 H 2.2496 v 14.031 c 0,5.75 3.3281,8.5781 7.5625,8.5781 4.2969,0 7.5625,-2.9062 7.5625,-8.5312 v -14.078 h -2.2188 z"
         id="path17" />
    </g>
    <g
       transform="matrix(14.583184,0,0,14.583184,-4341.2236,134.85317)"
       id="g23">
      <path
         d="m 7.5,0 v -20.203 h 5.0781 v -2.0156 H 0.1871 v 2.0156 H 5.2809 V 0 Z"
         id="path21" />
    </g>
    <g
       transform="matrix(14.583184,0,0,14.583184,-4067.162,134.85317)"
       id="g27">
      <path
         d="m 24.797,-11.109 c 0,-6.3281 -5.3125,-11.5 -11.766,-11.5 -6.5156,0 -11.734,5.2344 -11.734,11.625 0,6.4531 5.6719,11.375 11.734,11.375 6.4531,0 11.766,-5.2188 11.766,-11.5 z m -2.2188,0.03125 c 0,5.1094 -4.2344,9.4531 -9.5469,9.4531 -5.1719,0 -9.5156,-4.3438 -9.5156,-9.3594 0,-5.1719 4.2344,-9.6094 9.4844,-9.6094 5.3438,0 9.5781,4.3906 9.5781,9.5156 z"
         id="path25" />
    </g>
    <g
       transform="matrix(14.583184,0,0,14.583184,-3599.1439,134.85317)"
       id="g31">
      <path
         d="M 25.297,0 V -22.219 H 21.8751 L 13.7813,-3.297 5.7032,-22.219 H 2.2813 V 0 H 4.5001 V -19.781 H 4.5626 L 12.8126,0 h 1.8906 l 8.3125,-19.781 h 0.0625 V 0 Z"
         id="path29" />
    </g>
    <g
       transform="matrix(14.583184,0,0,14.583184,-3109.2946,134.85317)"
       id="g35">
      <path
         d="m 24.797,-11.109 c 0,-6.3281 -5.3125,-11.5 -11.766,-11.5 -6.5156,0 -11.734,5.2344 -11.734,11.625 0,6.4531 5.6719,11.375 11.734,11.375 6.4531,0 11.766,-5.2188 11.766,-11.5 z m -2.2188,0.03125 c 0,5.1094 -4.2344,9.4531 -9.5469,9.4531 -5.1719,0 -9.5156,-4.3438 -9.5156,-9.3594 0,-5.1719 4.2344,-9.6094 9.4844,-9.6094 5.3438,0 9.5781,4.3906 9.5781,9.5156 z"
         id="path33" />
    </g>
    <g
       transform="matrix(14.583184,0,0,14.583184,-2641.1745,134.85317)"
       id="g39">
      <path
         d="m 7.5,0 v -20.203 h 5.0781 v -2.0156 H 0.1871 v 2.0156 H 5.2809 V 0 Z"
         id="path37" />
    </g>
    <g
       transform="matrix(14.583184,0,0,14.583184,-2367.1564,134.85317)"
       id="g43">
      <path
         d="M 4.5,0 V -22.219 H 2.2812 V 0 Z"
         id="path41" />
    </g>
    <g
       transform="matrix(14.583184,0,0,14.583184,-2180.6374,134.85317)"
       id="g47">
      <path
         d="m 11.594,0 9.2031,-22.219 H 18.4065 L 10.5315,-2.766 2.7034,-22.219 H 0.2346 L 9.3908,0 Z"
         id="path45" />
    </g>
    <g
       transform="matrix(14.583184,0,0,14.583184,-1785.7248,134.85317)"
       id="g51">
      <path
         d="M 14.25,0 V -2.0156 H 4.3281 v -8.1875 h 9.5938 v -2.0156 H 4.3281 v -7.9844 H 14.25 v -2.0156 H 2.094 V 3e-4 Z"
         id="path49" />
    </g>
    <g
       transform="translate(262.87,86.937)"
       id="g53" />
    <g
       transform="matrix(14.583184,0,0,14.583184,-1254.6053,134.85317)"
       id="g57">
      <path
         d="m 22.188,-8.1875 c -1.0312,3.8281 -4.9531,6.5625 -8.9844,6.5625 -5.2812,0 -9.7812,-4.0781 -9.7812,-9.4531 0,-5.3125 4.4688,-9.5156 9.6875,-9.5156 3.1875,0 6.375,1.6875 7.9062,4.2969 h 2.5781 c -1.2969,-3.125 -5.5312,-6.3125 -10.5,-6.3125 -6.5156,0 -11.891,5.1406 -11.891,11.5 0,6.6406 5.8281,11.5 11.906,11.5 6.1875,0 11.266,-4.625 11.75,-10.594 H 9.7812 v 2.0156 z"
         id="path55" />
    </g>
    <g
       transform="matrix(14.583184,0,0,14.583184,-785.3184,134.85317)"
       id="g61">
      <path
         d="m 16.844,0 -6.2812,-8.2812 c 3.9062,-0.29688 6.6094,-3.1562 6.6094,-6.75 0,-3.7656 -2.5781,-7.1875 -8.375,-7.1875 H 2.0941 V 3e-4 h 2.2344 v -20.203 h 4.2188 c 5.1094,0 6.4062,3 6.4062,5.1094 0,3.0312 -2.3438,5.0312 -6.2812,5.0312 H 6.5161 l 7.5312,10.062 z"
         id="path59" />
    </g>
    <g
       transform="translate(333.6,86.937)"
       id="g65">
      <path
         d="m -403.94867,-114.08845 c 0,-92.28385 -77.47312,-167.70662 -171.58572,-167.70662 -95.01824,0 -171.11911,76.33422 -171.11911,169.52951 0,94.106747 82.71441,165.883721 171.11911,165.883721 94.10671,0 171.58572,-76.106719 171.58572,-167.706611 z m -32.35719,0.45575 c 0,74.511321 -61.75099,137.85629 -139.2242,137.85629 -75.42277,0 -138.76771,-63.346427 -138.76771,-136.48985 0,-75.42276 61.75099,-140.13565 138.31279,-140.13565 77.92958,0 139.67912,64.02893 139.67912,138.76775 z"
         id="path63"
         style="stroke-width:14.5832" />
    </g>
    <g
       transform="matrix(14.583184,0,0,14.583184,36.0065,134.85317)"
       id="g69">
      <path
         d="m 15.156,-8.0469 c 0,4.8281 -2.7969,6.4219 -5.3438,6.4219 -2.9375,0 -5.3438,-1.9844 -5.3438,-6.4531 v -14.141 H 2.2496 v 14.031 c 0,5.75 3.3281,8.5781 7.5625,8.5781 4.2969,0 7.5625,-2.9062 7.5625,-8.5312 v -14.078 h -2.2188 z"
         id="path67" />
    </g>
    <g
       transform="matrix(14.583184,0,0,14.583184,410.3568,134.85317)"
       id="g73">
      <path
         d="m 4.4688,0 v -8.9375 h 4.4688 c 6.0781,0 7.9844,-3.6094 7.9844,-6.5781 0,-3.0625 -1.8281,-6.7031 -7.9531,-6.7031 H 2.2501 V 3e-4 Z m 0,-10.953 v -9.25 h 4.4688 c 4.3594,0 5.7656,2.4062 5.7656,4.625 0,2.7656 -2.1875,4.625 -5.2812,4.625 z"
         id="path71" />
    </g>
  </g>
  <g
     fill="#383536"
     id="g91"
     transform="matrix(14.583184,0,0,14.583184,-0.00174998,0)">
    <path
       d="m 39.746,23.164 c 0,-2.4336 -1.625,-3.7656 -5.0977,-3.7656 H 7.7073 v 10.547 h 26.941 c 3.4727,0 5.0977,-1.332 5.0977,-3.7656 z m -0.98438,31 -9.5625,-18.195 h -21.492 v 31.57 H 1.2e-4 V 13.375 h 34.648 c 9.2695,0 12.801,3.9961 12.801,9.8477 v 2.8984 c 0,5.2734 -2.8359,9.0391 -10.082,9.7344 l 9.6211,18.309 h -8.2266"
       id="path77" />
    <path
       d="m 98.199,23.164 c 0,-2.4336 -1.6211,-3.7656 -5.0977,-3.7656 h -26.941 c -3.4766,0 -5.0977,1.332 -5.0977,3.7656 v 21.207 c 0,2.4336 1.6211,3.7656 5.0977,3.7656 h 26.941 c 3.4766,0 5.0977,-1.332 5.0977,-3.7656 z m -32.039,31 c -9.2695,0 -12.805,-4 -12.805,-9.8516 v -21.09 c 0,-5.8516 3.5352,-9.8477 12.805,-9.8477 h 26.941 c 9.2695,0 12.805,3.9961 12.805,9.8477 v 21.09 c 0,5.8516 -3.5352,9.8516 -12.805,9.8516 H 66.16"
       id="path79" />
    <path
       d="M 154.22,54.164 V 35.621 h -33.371 v 18.543 h -7.707 V 13.375 h 7.707 V 29.598 H 154.22 V 13.375 h 7.707 v 40.789 h -7.707"
       id="path81" />
    <path
       d="m 209.2,23.164 c 0,-2.4336 -1.6211,-3.7656 -5.0977,-3.7656 h -26.941 v 10.547 h 26.941 c 3.4766,0 5.0977,-1.332 5.0977,-3.7656 z m -0.98437,31 -9.5586,-18.195 h -21.496 v 18.195 h -7.7031 V 13.375 h 34.645 c 9.2695,0 12.805,3.9961 12.805,9.8477 v 2.8984 c 0,5.2734 -2.8398,9.0391 -10.082,9.7344 l 9.6172,18.309 h -8.2266"
       id="path83" />
    <path
       d="M 278.08,54.164 V 25.602 l -20.738,28.562 h -6.3164 l -20.801,-28.508 v 28.508 h -7.125 V 13.375 h 7.1836 l 24.219,33.312 24.102,-33.312 h 6.6055 v 40.789 h -7.1289"
       id="path85" />
    <path
       d="M 339.95,54.164 318.919,21.312 297.536,54.164 h -8.5742 l 27.117,-40.789 h 5.6172 l 26.941,40.789 h -8.6875"
       id="path87" />
    <path
       d="m 402.63,54.164 -43.512,-31.75 v 31.75 h -6.7188 V 13.375 h 6.6641 l 40.613,30.301 V 0 h 6.7188 v 54.164 h -3.7656"
       id="path89" />
  </g>
  <path
     d="m 4571.0972,587.14817 h 156.2005 l -81.2895,137.34441 z"
     fill="#f58611"
     id="path93"
     style="stroke-width:14.5832" />
</svg>
