<?xml version="1.0" standalone="no"?>
<!DOCTYPE svg PUBLIC "-//W3C//DTD SVG 1.1//EN" "http://www.w3.org/Graphics/SVG/1.1/DTD/svg11.dtd">
<svg xmlns="http://www.w3.org/2000/svg" width="413.2900085449219" height="192.97999572753906" version="1.1" viewBox="0 0 413.29 192.98">
 <defs>
  <clipPath id="clipPath18">
   <path d="m0 828h630v-828h-630z"/>
  </clipPath>
  <clipPath id="clipPath34">
   <path d="m0 828h630v-828h-630z"/>
  </clipPath>
  <clipPath id="clipPath46">
   <path d="m0 828h630v-828h-630z"/>
  </clipPath>
  <clipPath id="clipPath58">
   <path d="m0 828h630v-828h-630z"/>
  </clipPath>
 </defs>
 <g transform="matrix(1.3333 0 0 -1.3333 -214.8 684.98)">
  <g clip-path="url(#clipPath18)">
   <g transform="translate(192.51 422.04)">
    <path d="m0 0c3.565 0 6.19 0.966 7.878 2.898 1.685 1.932 2.527 4.424 2.527 7.475 0 3.524-1.02 6.186-3.062 7.983-2.042 1.796-4.88 2.696-8.51 2.696h-17.796v-21.052zm-1.458 30.408c3.176 0 5.623 0.847 7.341 2.542 1.718 1.694 2.579 4.069 2.579 7.12 0 3.32-0.796 5.711-2.383 7.169-1.591 1.458-4.134 2.187-7.634 2.187h-17.408v-19.018zm-29.126-39.358c-0.552 0.61-0.826 1.526-0.826 2.746v61.732c0 1.287 0.274 2.238 0.826 2.847 0.55 0.611 1.474 0.917 2.771 0.917h28.105c6.742 0 11.848-1.697 15.316-5.086 3.468-3.392 5.204-7.968 5.204-13.729 0-3.254-0.779-6.171-2.333-8.747-1.557-2.577-3.73-4.475-6.517-5.695 7.196-2.373 10.795-7.662 10.795-15.866 0-3.796-0.828-7.204-2.481-10.22-1.653-3.018-4.132-5.407-7.439-7.17-3.306-1.763-7.39-2.644-12.253-2.644h-28.397c-1.297 0-2.221 0.306-2.771 0.915" fill="#141211"/>
   </g>
   <g transform="translate(247.27 447.87)">
    <path d="m0 0c4.537 0 7.877 0.916 10.017 2.745 2.138 1.831 3.209 4.814 3.209 8.95 0 4.069-0.973 7.051-2.918 8.949-1.946 1.898-4.895 2.848-8.849 2.848h-15.463v-23.492zm-25.625-34.782c-0.552 0.61-0.826 1.526-0.826 2.746v61.732c0 1.287 0.274 2.238 0.826 2.847 0.55 0.611 1.474 0.916 2.771 0.916h25.382c7.521 0 13.242-1.831 17.164-5.492 3.922-3.66 5.884-9.087 5.884-16.272 0-4.746-1.069-8.797-3.21-12.153-2.139-3.357-5.251-5.883-9.335-7.577l10.795-25.018c0.194-0.406 0.291-0.78 0.291-1.119 0-1.016-0.583-1.525-1.751-1.525h-7.972c-0.845 0-1.46 0.117-1.849 0.356-0.39 0.237-0.745 0.728-1.069 1.475l-9.823 24.102h-15.657v-22.272c0-1.22-0.276-2.136-0.826-2.746-0.552-0.609-1.508-0.915-2.87-0.915h-5.154c-1.297 0-2.221 0.306-2.771 0.915" fill="#141211"/>
   </g>
  </g>
  <g transform="translate(-4.58e-5,-1.221e-4)">
   <g clip-path="url(#clipPath34)">
    <g transform="translate(351.1 413.09)">
     <path d="m0 0c-0.552 0.61-0.826 1.525-0.826 2.746v61.732c0 1.287 0.274 2.237 0.826 2.847 0.55 0.611 1.507 0.916 2.868 0.916h4.474c0.907 0 1.62-0.137 2.139-0.407 0.518-0.271 1.037-0.814 1.557-1.627l32.092-46.579v44.85c0 1.287 0.274 2.237 0.826 2.847 0.55 0.611 1.474 0.916 2.772 0.916h5.153c1.297 0 2.238-0.305 2.82-0.916 0.584-0.61 0.876-1.56 0.876-2.847v-61.732c0-1.221-0.277-2.136-0.826-2.746-0.552-0.609-1.508-0.915-2.87-0.915h-4.569c-0.91 0-1.591 0.117-2.042 0.355-0.456 0.238-0.973 0.764-1.557 1.577l-32.092 46.477v-44.748c0-1.221-0.276-2.136-0.826-2.746-0.552-0.609-1.508-0.915-2.87-0.915h-5.154c-1.297 0-2.221 0.306-2.771 0.915" fill="#141211"/>
    </g>
   </g>
  </g>
  <g transform="translate(-1.221e-4,-1.221e-4)">
   <g clip-path="url(#clipPath46)">
    <g transform="translate(438 422.03)">
     <path d="m0 0c6.871 0 12.041 1.863 15.511 5.593 3.467 3.728 5.202 10.102 5.202 19.12 0 9.017-1.735 15.372-5.202 19.068-3.47 3.695-8.64 5.543-15.511 5.543h-11.379v-49.324zm-23-8.95c-0.552 0.61-0.826 1.526-0.826 2.746v61.732c0 1.287 0.274 2.238 0.826 2.847 0.55 0.611 1.474 0.917 2.771 0.917h19.451c10.955 0 19.335-2.748 25.137-8.239 5.801-5.491 8.704-14.272 8.704-26.34 0-23.053-11.281-34.578-33.841-34.578h-19.451c-1.297 0-2.221 0.306-2.771 0.915" fill="#141211"/>
    </g>
   </g>
  </g>
  <g clip-path="url(#clipPath58)">
   <g transform="translate(287.91 480.52)">
    <path d="m0 0c0 12.133 9.836 21.969 21.969 21.969s21.969-9.836 21.969-21.969c0-7.455-3.722-14.031-9.4-18.003l4.241-10.518c9.432 5.739 15.731 16.114 15.731 27.961 0 18.064-14.644 32.707-32.707 32.707-18.064 0-32.706-14.643-32.706-32.707 0-11.847 6.299-22.222 15.73-27.961l4.319 10.708c-5.532 3.99-9.146 10.472-9.146 17.813" fill="#141211"/>
    <path d="m0 0c0 12.133 9.836 21.969 21.969 21.969s21.969-9.836 21.969-21.969c0-7.455-3.722-14.031-9.4-18.003l4.241-10.518c9.432 5.739 15.731 16.114 15.731 27.961 0 18.064-14.644 32.707-32.707 32.707-18.064 0-32.706-14.643-32.706-32.707 0-11.847 6.299-22.222 15.73-27.961l4.319 10.708c-5.532 3.99-9.146 10.472-9.146 17.813z" fill="none" stroke="#141311" stroke-linecap="round" stroke-linejoin="round" stroke-miterlimit="10" stroke-width="2.142"/>
   </g>
   <g transform="translate(305.06 481.5)">
    <path d="m0 0c0.457 0.374 1.111 0.563 1.961 0.563h5.39c0.914 0 1.582-0.189 2.008-0.563 0.425-0.377 0.832-1.076 1.225-2.101l6.807-16.878c5.677 3.972 9.399 10.548 9.399 18.003 0 12.133-9.836 21.969-21.969 21.969s-21.968-9.836-21.968-21.969c0-7.341 3.614-13.823 9.145-17.813l6.73 16.688c0.39 1.025 0.815 1.724 1.272 2.101" fill="#f5f012"/>
   </g>
   <g transform="translate(341.43 414.84)">
    <path d="m0 0-14.785 36.924-4.22 10.549-6.796 16.97c-0.384 1.025-0.794 1.731-1.217 2.103-0.422 0.372-1.098 0.559-2.009 0.559h-5.37c-0.846 0-1.495-0.187-1.957-0.559-0.451-0.372-0.874-1.078-1.271-2.103l-6.717-16.785-4.298-10.734-14.786-36.924c-0.197-0.479-0.291-0.932-0.291-1.347 0-1.025 0.558-1.543 1.668-1.543h8.489c0.845 0 1.456 0.119 1.812 0.359 0.357 0.24 0.701 0.747 1.033 1.493l8.119 19.752h4.535c2.659-1.878 5.86-3.969 6.836-3.969 0.993 0 3.797 2.05 6.204 3.969h4.1l8.213-19.752c0.329-0.746 0.674-1.253 1.03-1.493 0.358-0.24 0.967-0.359 1.813-0.359h8.504c1.098 0 1.652 0.518 1.652 1.543 0 0.415-0.094 0.868-0.291 1.347m-28.736 30.622c-0.714-0.438-2.964-1.638-3.227-1.638-0.332 0.013-2.726 1.412-3.493 1.772-3.174 1.425-4.298 0.106-4.298 0.106l0.887 2.091 4.497 10.736 2.751 6.553 2.564-6.593 4.206-10.762 0.833-2.131s-2.485 1.253-4.72-0.134" fill="#141311"/>
   </g>
   <path d="m471.07 369h-309.96v33.563h309.96z" fill="#141211"/>
  </g>
  <path transform="matrix(1 0 0 -.5618 249.85 378.48)" d="m40.186-24.919c-1.8936 0-3.2758 1.012-4.1455 3.0376-0.86972 2.0147-1.3052 5.2302-1.3052 9.6449 0 4.4036 0.43546 7.6238 1.3052 9.6605 0.88073 2.0367 2.263 3.0559 4.1455 3.0559 1.7504 0 3.0772-0.71009 3.98-2.1303 0.90275-1.4312 1.3535-3.5403 1.3535-6.3256v-0.14862l-1.8999 0.015645c-0.03303 2.3009-0.31238 3.9925-0.84082 5.0714-0.51743 1.0789-1.3161 1.6166-2.395 1.6166-1.255 0-2.158-0.81844-2.7085-2.4588-0.53945-1.6514-0.80859-4.4375-0.80859-8.3568 0-3.7981 0.26404-6.5513 0.79248-8.2577 0.52844-1.7174 1.3709-2.5761 2.5269-2.5761 0.9688 0 1.7055 0.49078 2.2119 1.4706 0.50642 0.97981 0.79234 2.4779 0.8584 4.4926h1.9995c-0.06605-2.4881-0.54528-4.4109-1.437-5.765-0.89174-1.3651-2.1025-2.0468-3.6328-2.0468zm42.139 0c-1.8936 0-3.2758 1.012-4.1455 3.0376-0.86972 2.0147-1.3037 5.2302-1.3037 9.6449 0 4.4036 0.43399 7.6238 1.3037 9.6605 0.88073 2.0367 2.263 3.0559 4.1455 3.0559 1.7504 0 3.0772-0.71009 3.98-2.1303 0.90275-1.4312 1.3535-3.5403 1.3535-6.3256v-0.14862l-1.8984 0.015645c-0.03303 2.3009-0.31385 3.9925-0.84228 5.0714-0.51743 1.0789-1.3161 1.6166-2.395 1.6166-1.255 0-2.158-0.81844-2.7085-2.4588-0.53945-1.6514-0.80859-4.4375-0.80859-8.3568 0-3.7981 0.26404-6.5513 0.79248-8.2577 0.52844-1.7174 1.3709-2.5761 2.5269-2.5761 0.9688 0 1.707 0.49078 2.2134 1.4706 0.50642 0.97981 0.79234 2.4779 0.8584 4.4926h1.998c-0.06605-2.4881-0.54528-4.4109-1.437-5.765-0.89174-1.3651-2.1025-2.0468-3.6328-2.0468zm39.806 0c-1.8936 0-3.2743 1.012-4.144 3.0376-0.86972 2.0147-1.3052 5.2302-1.3052 9.6449 0 4.4036 0.43546 7.6238 1.3052 9.6605 0.88073 2.0367 2.2615 3.0559 4.144 3.0559 1.7504 0 3.0772-0.71009 3.98-2.1303 0.90275-1.4312 1.355-3.5403 1.355-6.3256v-0.14862l-1.8999 0.015645c-0.033 2.3009-0.31385 3.9925-0.84229 5.0714-0.51742 1.0789-1.3147 1.6166-2.3936 1.6166-1.255 0-2.158-0.81844-2.7085-2.4588-0.53944-1.6514-0.81005-4.4375-0.81005-8.3568 0-3.7981 0.2655-6.5513 0.79394-8.2577 0.52844-1.7174 1.3694-2.5761 2.5254-2.5761 0.9688 0 1.707 0.49078 2.2134 1.4706 0.50642 0.97981 0.79234 2.4779 0.8584 4.4926h1.998c-0.0661-2.4881-0.54528-4.4109-1.437-5.765-0.89173-1.3651-2.1025-2.0468-3.6328-2.0468zm-120.23 0.46151v24.458h9.1318v-1.8982h-7.0356v-9.843h4.9717v-1.8826h-4.9717v-8.9669h6.457v-1.8669zm11.228 0v24.458h9.0322v-1.8982h-6.9346v-22.559zm10.991 0v24.458h9.1333v-1.8982h-7.0356v-9.843h4.9702v-1.8826h-4.9702v-8.9669h6.457v-1.8669zm22.017 0v1.8669h4.1294v22.591h2.0962v-22.591h4.1118v-1.8669zm12.243 0v24.458h2.0977v-11.84c0.14312 0.01101 0.30286 0.02289 0.479 0.0339h1.585c0.17615-0.01101 0.33078-0.02289 0.46289-0.0339l3.583 11.84h2.1299l-3.7148-12.237c1.1119-0.42936 1.9478-1.1513 2.5093-2.1642 0.56146-1.0128 0.84229-2.3009 0.84229-3.8642 0-2.2459-0.54486-3.8358-1.6348-4.7716-1.0789-0.94678-2.9556-1.421-5.6309-1.421zm12.952 0v24.458h2.0977v-24.458zm25.737 0v24.458h2.0962v-24.458zm6.1567 0v24.458h2.0303v-22.426l5.5649 22.426h2.4448v-24.458h-1.998v11.611c0 2.5541 0.0168 4.4367 0.0498 5.6477 0.044 1.2 0.10458 2.278 0.18164 3.2358-0.18715-1.0128-0.37534-1.9588-0.5625-2.8395-0.18715-0.88073-0.37898-1.7229-0.57715-2.5266l-3.7646-15.128zm-42.749 1.833h1.585c1.5413 0 2.6157 0.33027 3.2212 0.99082s0.9082 1.8284 0.9082 3.5018c0 1.6073-0.35303 2.7679-1.0576 3.4835-0.70458 0.70458-1.8549 1.0586-3.4512 1.0586-0.22018 0-0.5951-0.02376-1.1235-0.06779h-0.08203zm69.867 19.85v2.7743h2.2632v-2.7743z" fill="#fff"/>
 </g>
</svg>