<?xml version="1.0" standalone="no"?>
<!DOCTYPE svg PUBLIC "-//W3C//DTD SVG 1.1//EN" "http://www.w3.org/Graphics/SVG/1.1/DTD/svg11.dtd">
<svg xmlns="http://www.w3.org/2000/svg" width="155" height="103" version="1.1" viewBox="0 0 155 103">
 <defs>
  <radialGradient id="prefix__a" cx=".51%" cy="-2.56%" r="201.34%" gradientTransform="matrix(.53944 0 0 1 .002 0)">
   <stop stop-color="#E7B041" offset=".2384"/>
   <stop stop-color="#C7352D" offset=".8817"/>
  </radialGradient>
  <radialGradient id="prefix__c" cx="92.883%" cy="1.077%" r="125.34%" gradientTransform="matrix(.75521 0 0 1 .227 0)">
   <stop stop-color="#E7AE40" offset=".2384"/>
   <stop stop-color="#C9382F" offset=".8517"/>
  </radialGradient>
  <linearGradient id="prefix__b" x1="96.633%" x2="-4.001%" y1="14.042%" y2="78.746%">
   <stop stop-color="#C9382F" offset=".1"/>
   <stop stop-color="#D15734" offset=".1968"/>
   <stop stop-color="#E7AE40" offset=".4753"/>
   <stop stop-color="#C9382F" offset=".9"/>
  </linearGradient>
 </defs>
 <path transform="translate(.046)" d="M99.416 61.94v-4.733c0-8.12-4.466-12.434-12.94-12.434h-8.38V74.42h8.38c8.566.046 12.94-4.176 12.94-12.48zM86.155 48.622c6.4 0 9.025 2.506 9.025 8.584v4.732c0 6.125-2.717 8.723-9.025 8.723h-3.868V48.623h3.868zM108.165 59.805l4.927 2.227c3.178 1.438 3.73 2.737 3.73 4.732 0 3.063-1.704 4.454-5.572 4.454-3.545 0-6.354-.278-8.196-.51l-.368-.046v3.387l.23.046c1.151.278 4.88.835 8.288.835 6.355 0 9.854-2.923 9.854-8.212 0-3.99-1.795-6.45-6.17-8.398l-4.973-2.18c-3.131-1.392-3.684-2.645-3.684-4.547 0-2.598 1.566-3.573 5.618-3.573 2.993 0 6.447.371 7.782.51l.368.047v-3.433l-.23-.047c-1.059-.278-4.513-.788-8.012-.788-6.539 0-9.716 2.412-9.716 7.33 0 3.851 1.75 6.217 6.124 8.166zM68.61 86.205l-4.973-2.181c-3.13-1.392-3.683-2.645-3.683-4.547 0-2.598 1.565-3.572 5.617-3.572 3.086 0 6.723.37 7.782.51l.369.046v-3.433l-.23-.046c-1.014-.279-4.513-.79-8.013-.79-6.538 0-9.716 2.413-9.716 7.331 0 3.851 1.75 6.218 6.125 8.12l4.927 2.227c3.177 1.438 3.73 2.737 3.73 4.732 0 3.109-1.658 4.454-5.572 4.454-3.546 0-6.355-.278-8.15-.51l-.369-.046v3.433l.23.046c1.151.279 4.881.835 8.289.835 6.446 0 9.854-2.83 9.854-8.212-.046-4.036-1.842-6.449-6.216-8.397zM99.37 79.57c-2.072 0-4.19.696-6.493 2.18-.967-1.484-2.532-2.18-4.788-2.18-2.533 0-4.605.974-6.033 1.948v-1.391h-4.052v22.084h4.052v-17.26c1.428-.834 3.454-1.762 5.25-1.762 2.578 0 2.578 1.392 2.578 4.454v14.568h4.099V87.69c0-.881 0-1.856-.139-2.784 1.796-1.02 3.73-1.623 5.066-1.623 2.855 0 2.855 1.391 2.855 4.454v14.568h4.098V87.69c.046-3.248.046-8.12-6.493-8.12zM110.375 80.127L114.474 80.127 114.474 102.211 110.375 102.211zM125.71 74.559h-4.099v5.568h-4.282v3.247l4.282.325v13.316c0 4.222 1.52 5.8 5.572 5.8 1.703 0 3.453-.418 4.006-.604l.23-.093v-3.015l-.368.046c-.691.093-2.349.186-3.5.186-1.75 0-1.842-.14-1.842-2.506V83.653h5.71V80.08h-5.71V74.56zM145.05 79.57c-2.257 0-4.467.51-6.632 1.577v-9.743h-4.098v30.854h4.098V84.673c1.474-.696 3.776-1.391 5.94-1.391 2.533 0 3.73.742 3.73 5.057v13.919h4.098V88.246c0-5.846-2.348-8.676-7.137-8.676z" fill="#4D4D4D"/>
 <path transform="translate(.046)" d="M37.022 0H.092c0 6.774 1.796 13.13 4.973 18.605 6.4 11.135 18.327 18.605 32.003 18.605 13.676 0 25.602-7.47 32.003-18.605C62.624 7.47 50.698 0 37.022 0z" fill="url(#prefix__a)"/>
 <path transform="translate(.046)" d="m38.68 40.411c16.577 0 25.97-8.537 30.299-21.806-6.4 11.135-18.327 18.605-32.003 18.605s-25.602 7.47-32.003 18.605c-3.131 5.428-4.927 11.692-4.973 18.373 0.967-5.475 4.006-10.625 6.63-15.172 6.447-11.135 18.374-18.605 32.05-18.605z" fill="url(#prefix__b)"/>
 <path transform="translate(.046)" d="M69.578 19.672c-.185-.371-.415-.742-.6-1.067-4.328 13.27-13.721 21.806-30.298 21.806-13.676 0-25.603 7.47-32.003 18.605-2.625 4.547-5.664 9.697-6.631 15.172v.232h36.93c13.676 0 25.602-7.47 32.003-18.605 3.131-5.475 4.973-11.831 4.973-18.605 0-6.356-1.566-12.342-4.374-17.538z" fill="url(#prefix__c)"/>
</svg>