<?xml version="1.0" standalone="no"?>
<!DOCTYPE svg PUBLIC "-//W3C//DTD SVG 1.1//EN" "http://www.w3.org/Graphics/SVG/1.1/DTD/svg11.dtd">
<svg xmlns="http://www.w3.org/2000/svg" width="1067.0999755859375" height="277.0899963378906" version="1.1" viewBox="0 0 1067.1 277.09">
 <g transform="translate(10.766 154.72)">
  <g transform="matrix(.11115 0 0 -.11115 -10.766 122.37)" fill="#3d9a7f">
   <path d="m1713.5 1654c0 463.26-383.58 838.88-856.73 838.88-473.16 0-856.74-375.62-856.74-838.88s383.58-838.82 856.74-838.82c473.15 0 856.73 375.56 856.73 838.82m-336.02 0c0-281.56-233.13-509.81-520.71-509.81-287.54 0-520.66 228.25-520.66 509.81 0 281.57 233.12 509.82 520.66 509.82 287.58 0 520.71-228.25 520.71-509.82"/>
   <path d="m1632 418.66s0-10.07-9.74-12.66l-1522.6-405.7s-9.7304-2.6016-9.7304 7.4609v303.46s0 10.062 9.6758 12.769l1522.8 425.72s9.68 2.711 9.68-7.359v-323.69"/>
   <path d="m9336.6 2133.3-244.84-390.88-244.9 390.88h-263.32l291.3-486.81-291.3-486.82h263.32l244.9 390.88 244.84-390.88h263.37l-312.08 486.82 312.08 486.81h-263.37"/>
   <path d="m3600.4 1743.2h-489.85v-193.31h276.19c-41.08-118.33-155.49-203.54-290.29-203.54-169.32 0-306.61 134.42-306.61 300.19 0 165.83 137.29 300.2 306.61 300.2 80.84 0 154.1-30.8 208.84-80.84l229.2 60.16c-93.39 139.95-254.52 232.68-438.04 232.68-288.86 0-523.09-229.31-523.09-512.2 0-282.88 234.23-512.14 523.09-512.14 288.91 0 523.08 229.26 523.08 512.14 0 33.9-3.53 67.02-9.95 99.09l-9.18-2.43"/>
   <path d="m6832.3 2156.3c-286.82 33.84-547.37-165.72-581.93-446.57-2.54-20.57-3.42-32.12-3.42-60.6v-489.36h235.88v485.82s0.5 21.13 1.94 32.4c18.96 154.11 161.9 264.54 319.27 245.96 145.76-17.2 252.59-145.04 252.48-278.36v-485.82h235.94v489.36c0.22 246.84-194.42 475.81-460.16 507.17"/>
   <path d="m4313.8 2159.3c-289.25 0-523.7-229.58-523.7-512.75 0-283.21 234.45-512.74 523.7-512.74 183.69 0 345.04 92.78 438.54 232.9l-215.65 56.62c-57.34-54.69-135.58-88.36-221.9-88.36-141.28 0-260.93 90.13-302.51 214.82h815.65c6.14 31.35 9.56 63.64 9.56 96.76 0 283.17-234.45 512.75-523.69 512.75m-301.52-415.98c41.58 124.69 161.23 214.82 302.51 214.82 141.23 0 260.88-90.13 302.47-214.82h-604.98"/>
   <path d="m5545.2 2159.3c-289.25 0-523.7-229.58-523.7-512.75 0-283.21 234.45-512.74 523.7-512.74 183.69 0 345.04 92.78 438.54 232.9l-215.65 56.62c-57.34-54.69-135.58-88.36-221.9-88.36-141.28 0-260.93 90.13-302.52 214.82h815.66c6.13 31.35 9.56 63.64 9.56 96.76 0 283.17-234.45 512.75-523.69 512.75m-301.53-415.98c41.59 124.69 161.24 214.82 302.52 214.82 141.23 0 260.88-90.13 302.46-214.82h-604.98"/>
   <path d="m7994.4 2159.3c-289.25 0-523.7-229.58-523.7-512.75 0-283.21 234.45-512.74 523.7-512.74 183.69 0 345.04 92.78 438.54 232.9l-215.65 56.62c-57.34-54.69-135.58-88.36-221.9-88.36-141.27 0-260.93 90.13-302.51 214.82h815.65c6.14 31.35 9.57 63.64 9.57 96.76 0 283.17-234.45 512.75-523.7 512.75m-301.52-415.98c41.58 124.69 161.24 214.82 302.51 214.82 141.23 0 260.88-90.13 302.47-214.82h-604.98"/>
  </g>
 </g>
</svg>