<?xml version="1.0" standalone="no"?>
<!DOCTYPE svg PUBLIC "-//W3C//DTD SVG 1.1//EN" "http://www.w3.org/Graphics/SVG/1.1/DTD/svg11.dtd">
<svg xmlns="http://www.w3.org/2000/svg" width="208.52000427246094" height="143.58999633789062" version="1.1" viewBox="0 0 208.52 143.59">
 <g transform="translate(-.70464 -.38455)">
  <path d="m96.183 143.93c-11.097-0.52828-21.346-2.3162-31.756-5.5397-0.82442-0.25527-3.0519-0.97713-4.95-1.6041-1.8981-0.62699-3.6948-1.1896-3.9928-1.2503-1.8243-0.37135-3.4209-0.28912-5.3197 0.27399-2.9721 0.88142-5.2667 1.3404-7.873 1.5749-1.1836 0.10647-4.1397 0.10685-5.3334 6.9e-4 -7.5019-0.66731-14.572-3.7693-21.847-9.5849-5.2353-4.1851-8.8792-8.5071-11.17-13.248-0.93168-1.9286-1.5139-3.5687-2.6061-7.3416l-0.63027-2.1771 6.8104e-4 -2.1803 6.8104e-4 -2.1803 0.17688-0.38c0.097283-0.20901 0.29934-0.8572 0.44901-1.4404 1.1004-4.2879 3.438-7.4532 7.1341-9.6604 2.4407-1.4575 5.2285-2.3283 8.6921-2.7151 1.0333-0.11549 4.0555-0.11549 5.0894 0 5.1669 0.5766 9.8613 2.4407 15.547 6.1737 3.308 2.1718 6.02 4.3854 8.9298 7.2885 3.0235 3.0166 5.1396 5.5917 7.4159 9.0246 3.0364 4.5793 4.5714 7.8844 5.2267 11.254 0.27762 1.4275 0.32636 1.9535 0.38862 4.1947 0.0603 2.1709 0.11649 2.6168 0.39937 3.1702 0.3329 0.65122 0.97391 1.144 1.9496 1.4989 0.93762 0.341 4.7068 1.2849 9.3498 2.3415 11.167 2.541 21.012 3.7253 30.969 3.7251 19.191-6.9e-4 37.824-4.52 55.635-13.494 7.0261-3.5403 11.117-6.1644 16.14-10.352 2.4832-2.0706 3.604-3.1234 9.2725-8.7107 1.5088-1.4872 1.8555-1.7788 2.504-2.1061 1.2802-0.64626 2.5879-0.75104 4.1374-0.33156 0.47392 0.12834 1.1321 0.18532 1.1321 0.0982 0-0.0318-2.124-2.6825-2.4989-3.1186-0.0982-0.11434-0.0894-0.14273 0.10667-0.33875l0.21396-0.21394 0.39427 0.2522c0.21684 0.1387 0.7431 0.51722 1.1694 0.84113 1.2922 0.98169 2.1812 1.3336 3.23 1.2786 0.7083-0.03722 1.2903-0.2934 1.8682-0.82239 0.57004-0.52185 0.92341-1.0505 1.5781-2.361 1.0225-2.0465 1.7719-3.9048 3.006-7.4536 0.70924-2.0394 0.98566-2.9471 1.2789-4.1992 0.20663-0.8824 0.94762-4.5489 0.94762-4.6888 0-0.05468-0.0765-0.1341-0.17017-0.17688-0.16575-0.07559-0.18225-0.05429-0.65429 0.84286-2.06 3.9155-2.0854 3.9498-3.6455 4.9359l-0.86356 0.54585-0.13602-0.18302c-0.0748-0.10052-0.39427-0.48379-0.70998-0.85149-0.31572-0.3677-0.67807-0.84031-0.80522-1.0502-0.23029-0.38023-0.23113-0.38493-0.21922-1.2201 0.0219-1.5335 0.40525-3.5697 0.9979-5.3003 0.72739-2.1241 2.7232-5.5092 3.5935-6.095 0.36281-0.24416 0.90618-0.27667 1.3152-0.07865 0.4533 0.21945 1.0128 0.86131 1.3938 1.5989 0.18052 0.34963 0.31512 0.63571 0.29896 0.63571-0.0153 0-0.15501-0.04432-0.30857-0.09842-1.1194-0.39494-2.1628-0.03165-2.8479 0.99144-0.4302 0.64257-1.9469 4.5086-2.64 6.7293-0.31462 1.0081-0.34762 1.3022-0.28252 2.5177 0.0499 0.93099 0.0552 0.95591 0.22399 1.02 0.0951 0.03626 0.26929 0.07328 0.38714 0.08268 0.19533 0.01535 0.26921-0.05084 0.8361-0.75001 1.6057-1.9803 2.8636-4.2105 3.8204-6.774 0.34096-0.91344 0.52002-1.5107 1.2924-4.3112 0.17976-0.65186 0.35426-1.2822 0.3877-1.4007 0.0577-0.20508 0.29098-0.3771 0.51108-0.3771 0.113 0 0.71152 1.0963 0.81807 1.4983 0.0808 0.30503 0.0315 0.67567-0.64677 4.846-1.0467 6.437-1.9929 10.554-3.3757 14.689-1.6082 4.8087-3.061 7.3792-4.8202 8.5288-0.93587 0.61161-2.0513 0.89169-3.2433 0.81448-0.33912-0.0219-0.61656-0.0257-0.61656-8e-3 0 0.0173 0.0813 0.16058 0.18071 0.31804 0.0994 0.1575 0.26311 0.49411 0.36377 0.74807 0.16192 0.40833 0.18302 0.55858 0.18264 1.2984 0 0.7427-0.0207 0.88578-0.18225 1.2744-0.31247 0.7524-0.60636 1.1578-1.8935 2.6123-3.5699 4.0338-5.6916 6.1754-8.3074 8.3852-12.025 10.159-26.253 17.907-41.343 22.515-9.6705 2.953-20.982 4.9176-32.558 5.655-2.0213 0.12873-10.629 0.19357-12.689 0.0955zm-56.332-10.881c0.8774-0.094 1.1175-0.18186 1.5317-0.56039 0.39785-0.36361 0.70464-0.88888 0.93987-1.6092 0.17287-0.52933 0.15382-0.6542-0.15301-1.0036-0.53556-0.60998-1.1647-0.83816-4.4798-1.6248-4.2338-1.0047-6.3277-1.6404-8.8542-2.6882-2.3991-0.99497-4.4917-2.1943-6.5186-3.7361-4.9871-3.7934-8.2284-7.6793-10.141-12.158-0.63831-1.4944-1.0499-2.9018-1.4703-5.0282-0.32832-1.6603-0.74579-2.7534-1.2275-3.2141-0.70194-0.67129-1.7745-0.67492-2.5315-0.01-0.66951 0.58932-0.90859 1.1241-1.0065 2.2511-0.19199 2.2111 0.53334 5.1302 1.984 7.9846 1.1235 2.2106 3.049 5.0921 4.8452 7.2507 4.5075 5.4168 10.28 9.4311 17.496 12.166 2.3006 0.87203 3.3369 1.1662 6.6232 1.8805 1.1548 0.25098 1.4488 0.26077 2.963 0.0986zm5.194-47.704c-0.19058-0.35073-0.36633-0.74057-0.39056-0.86628-0.06028-0.31278 0.17375-1.2858 0.65803-2.736l0.39824-1.1925 0.54648 0.35673c0.30056 0.19622 0.5558 0.34723 0.56719 0.33559 0.10783-0.11031 0.76266-1.508 0.91677-1.9569 0.17187-0.50061 0.19638-0.67233 0.19148-1.341-5e-3 -0.67832-0.03114-0.83735-0.22658-1.3768-0.43512-1.201-0.21512-1.7704 0.83153-2.152 0.52317-0.19069 0.98455-0.61708 1.0886-1.0059 0.04059-0.15175 0.37349-1.2641 0.73978-2.472 0.71414-2.3549 1.9297-6.461 1.9297-6.5186 0-0.06714-0.55003-0.03415-1.0632 0.06408-2.7773 0.53138-5.0773 2.5157-5.7942 4.9987l-0.16441 0.5695-0.28204-0.37607c-0.72552-0.96744-1.0189-1.7742-0.98187-2.7003 0.02947-0.73708 0.24668-1.2382 0.75864-1.7501 0.7121-0.7121 1.5981-1.1092 3.5225-1.5785 2.6348-0.64259 3.3335-0.94954 4.2836-1.8818l0.45326-0.44478 0.41822 0.26654c0.66748 0.42541 0.69049 0.46669 0.63837 1.1448-0.05435 0.70701-0.30058 1.6156-1.6877 6.2272-1.0721 3.5643-1.5645 5.3145-1.565 5.5619-2.09e-4 0.12758 0.1007 0.13064 3.3495 0.09842 3.2068-0.03185 3.3578-0.03914 3.5382-0.17208 0.42359-0.31194 0.66317-0.99263 1.9957-5.6702 0.70457-2.4732 1.3615-4.7091 1.4598-4.9686 0.29027-0.76631 0.95535-2.0433 1.2788-2.4555 0.70776-0.90175 1.4538-1.0324 2.2866-0.40026 0.3221 0.24448 1.053 1.1126 0.98987 1.1757-0.01516 0.01535-0.21037 0.0752-0.43379 0.13333-0.91269 0.23771-1.6426 0.8714-2.0902 1.8147-0.1373 0.28934-0.45347 1.2065-0.70258 2.0381-0.71689 2.3932-3.7954 13.411-3.7592 13.454 0.0092 0.01151 0.35547-0.07539 0.76961-0.19165 0.41415-0.11626 0.76848-0.19595 0.78741-0.17707 0.04171 0.04163-1.7244 6.1801-1.8025 6.2648-0.09124 0.09899-0.74806-0.02724-0.99-0.19031-0.39914-0.26898-0.53974-0.61589-0.54051-1.3336-9.13e-4 -0.84996 0.24684-3.672 0.4281-4.8763 0.08111-0.53898 0.16136-1.2466 0.1783-1.5726 0.02778-0.53439 0.01477-0.61658-0.13266-0.83662-0.25098-0.37465-0.57246-0.49388-1.5428-0.57217-1.1462-0.09247-3.6704-0.03012-4.1295 0.10206-1.3348 0.3843-1.7942 1.0399-2.9916 4.2697-1.0275 2.7714-1.2839 3.4258-1.6436 4.1948-0.36282 0.77567-0.35469 0.76836-1.2644 1.1386l-0.47862 0.19478zm41.657 0.42735c-0.15545-0.44432-0.3145-1.1989-0.3145-1.4921 0-0.35353 0.37275-2.2165 1.1491-5.743 1.0531-4.7837 1.0836-4.9668 0.96791-5.811-0.04071-0.29707-0.06394-0.32822-0.29167-0.39109-0.17939-0.04949-0.27554-0.04489-0.34967 0.01727-0.05623 0.04662-0.42505 0.51674-0.8196 1.0446-2.0475 2.7394-3.7508 6.2437-5.3736 11.056l-0.33705 0.99942-0.2975-0.03971c-0.66601-0.08863-0.99158-0.44321-0.99202-1.0801 0-0.20671 0.21721-1.446 0.483-2.7539 0.93098-4.5811 1.2861-6.6279 1.2895-7.4326 0.0031-0.71781-0.1793-1.7429-0.31004-1.7429-0.06916 0-0.87961 1.0153-1.4469 1.8127-0.70994 0.99783-1.3232 2.0597-2.0735 3.5905-0.88451 1.8045-1.3215 2.8949-2.2355 5.5774-0.7125 2.0913-0.71261 2.0915-0.90339 2.07-0.32982-0.03722-0.80966-0.30612-0.94628-0.53017-0.20678-0.3391-0.16368-0.78918 0.25528-2.6652 0.53915-2.4143 1.8502-8.952 1.8087-9.0191-0.0188-0.0305-0.12351-0.08652-0.23261-0.1245-0.17839-0.06216-0.26338-0.02686-0.8432 0.34998-0.58081 0.37752-0.66215 0.41123-0.81948 0.33954-0.10166-0.04623-0.15957-0.11894-0.13855-0.17381 0.03069-0.08 1.7602-2.8059 1.8383-2.8974 0.04994-0.05851 0.48678 0.21446 0.84568 0.52843 0.2316 0.2026 0.43267 0.46811 0.57793 0.76318 0.33837 0.68731 0.34431 1.1624 0.03371 2.6952-0.24442 1.2061-0.30948 1.9442-0.18825 2.1355 0.04301 0.06791 0.17431-0.10033 0.46247-0.5926 1.7412-2.9745 2.6541-4.389 3.0821-4.7757 0.69415-0.62713 1.2972-0.78628 1.8705-0.49368 0.34699 0.17707 0.47359 0.31826 0.67264 0.75004 0.15514 0.33653 0.16048 0.41916 0.19439 3.0051l0.03486 2.6591 0.94119-1.5426c1.3704-2.2461 2.526-3.9629 2.8594-4.2483 0.36653-0.31374 1.1851-0.74736 1.4109-0.74736 0.31434 0 1.3088 1.2188 1.5223 1.8657 0.12836 0.38892 0.0334 1.5502-0.24932 3.0494-0.27094 1.4367-0.31442 2.1478-0.21527 3.5208 0.06985 0.96736-9e-3 1.559-0.33946 2.5475-0.33277 0.99531-1.1879 2.8801-1.4151 3.1189-0.33377 0.35088-1.1331 0.89985-1.1674 0.80178zm47.564-0.06005c-0.66378-0.15635-2.039-1.0588-2.8556-1.8737-0.49531-0.49428-0.65929-0.71469-0.88784-1.1934-0.37646-0.78847-0.44224-1.2916-0.34785-2.6606 0.44025-6.3852 2.4693-11.918 6.2109-16.935 0.76569-1.0267 1.2394-1.5444 1.6591-1.8132 0.25482-0.16326 0.38639-0.1985 0.73969-0.1985 0.50295 0 0.96693 0.20897 1.7257 0.77723 0.29931 0.22415 0.7128 0.44283 1.1528 0.60967 1.5256 0.5785 1.8036 0.94538 1.6169 2.1339-0.21371 1.3611-1.1276 4.5686-1.489 5.2263-0.12278 0.22338-0.27198 0.3399-0.7793 0.60852-0.34511 0.18263-0.66163 0.3329-0.70337 0.33375-0.11204 0.0019-0.26478-1.107-0.2174-1.5783 0.0225-0.22396 0.25016-1.1758 0.50587-2.1153 0.53203-1.9546 0.59083-2.4782 0.33285-2.963-0.0815-0.15328-0.2324-0.3573-0.33509-0.45317-0.17113-0.1598-0.24009-0.17419-0.82598-0.174-1.1194 6.33e-4 -1.5592 0.33242-2.6525 2.0012-2.6755 4.0836-4.2575 8.3879-4.9658 13.511-0.42059 3.042 0.22734 4.862 1.78 5 1.2684 0.11261 4.1436-1.8309 5.9065-3.9926 0.3566-0.43726 1.0537-1.5036 1.4531-2.2229l0.22975-0.41375 0.2214 0.43859c0.24625 0.48782 0.49075 1.3569 0.49075 1.7443 0 0.4154-0.17457 0.96143-0.42594 1.3316-0.37977 0.55941-3.6571 3.4095-4.7537 4.134-1.0153 0.67079-1.9824 0.92679-2.7859 0.7374zm-123.31-0.062728c-0.97351-0.026858-1.5721-0.072708-1.7078-0.13064-0.56673-0.24187-0.87975-0.69136-0.96981-1.3926-0.043337-0.33745-0.024114-0.41967 0.2078-0.88903 0.39152-0.79238 0.80407-1.0784 1.2369-0.85755 0.083758 0.04278 0.30915 0.22798 0.50087 0.41165 1.3537 1.2969 2.6631 1.555 5.194 1.0239 1.7745-0.37236 2.3205-0.6374 2.7524-1.3359 0.183-0.29599 0.21065-0.40617 0.21065-0.83946 0-0.44739-0.03037-0.55924-0.29498-1.0861-0.45885-0.91361-2.087-2.8689-3.2556-3.9097-1.1102-0.98875-2.2947-1.7115-3.4038-2.0766-0.25883-0.08518-0.4706-0.16901-0.4706-0.18609 0-0.08153 0.45958-0.93103 0.64089-1.1846 0.44086-0.61654 1.1727-0.77748 2.034-0.44734 0.50313 0.19286 0.7995 0.16441 1.4084-0.13544 0.50558-0.2489 1.0283-0.78212 1.5746-1.6064 0.97842-1.476 1.5572-3.3165 1.7455-5.5506l0.08295-0.98407-0.20499-0.40716c-0.31583-0.62732-0.44712-0.69295-1.3783-0.68883-0.69124 0.0038-0.85263 0.02878-1.4356 0.22923-1.0064 0.34597-1.721 0.74469-2.2022 1.2285l-0.4188 0.42117-0.30151 1.2201c-0.16583 0.67102-0.65837 2.7311-1.0945 4.5778-0.73228 3.1006-0.89553 3.6849-2.1313 7.6289-1.1332 3.6166-1.3858 4.3521-1.648 4.7992-0.6221 1.0609-1.0188 1.3259-1.9886 1.3283l-0.61145 0.0015 0.1415-0.27738c0.23252-0.45578 0.34871-1.1189 0.41864-2.3894 0.069217-1.2577 0.17082-1.761 0.45463-2.2523 0.22518-0.38982 0.70921-0.81928 1.2061-1.0701 0.43032-0.21722 0.63368-0.41637 0.76905-0.75315 0.07031-0.17496 0.78331-2.6897 2.7533-9.7111 0.36041-1.2846 0.64858-2.3438 0.64038-2.3538-0.04679-0.05736-1.308 0.3739-1.7644 0.60338-1.8843 0.94743-3.1784 2.8859-3.5009 5.244-0.043989 0.32174-0.094866 0.68741-0.11303 0.8126l-0.033032 0.22767-0.30133-0.20734c-0.44437-0.30572-0.91356-0.8603-1.172-1.3853-0.21575-0.43826-0.22803-0.50458-0.22803-1.2316 0-0.71008 0.015156-0.79745 0.19981-1.1518 0.28064-0.53858 1.7944-2.0261 3.8438-3.7773 0.92028-0.78636 2.1905-1.9171 2.8227-2.5127l1.1494-1.083 1.0118 0.03491c0.8601 0.02974 1.1136 0.01343 1.6904-0.113 0.81732-0.17822 1.8624-0.19583 2.4559-0.04125 1.6457 0.42865 2.6121 1.8029 2.6161 3.72 0.0019 0.96057-0.4018 3.0338-0.79342 4.0738-0.59528 1.5809-1.5594 2.8882-3.253 4.4111-0.45797 0.41181-0.83267 0.76865-0.83267 0.793 0 0.02436 0.46275 0.41871 1.0283 0.87641 2.4775 2.0049 3.2406 2.9067 3.496 4.1316 0.24108 1.1561 0.0165 2.149-0.9148 4.0431-0.86462 1.7587-1.3691 2.0472-3.8056 2.1766-1.2856 0.0683-1.5903 0.0683-4.0567 0zm86.35-0.16863c-0.33272-0.23656-0.72022-0.66237-1.0846-1.1919-0.26145-0.3799-0.85496-1.5043-0.81509-1.5441 0.01765-0.01727 0.3646 0.07904 0.77084 0.21488 1.9469 0.65136 2.3339 0.38355 3.214-2.2242 0.40859-1.2107 0.77349-2.6325 1.2601-4.9097 0.42388-1.9838 0.43196-2.1229 0.16433-2.8284-0.23436-0.61779-0.21126-0.61752-0.77439-0.0096-2.4616 2.6615-4.1048 5.6983-5.75 10.627-0.32842 0.9838-0.6168 1.8091-0.64085 1.834-0.02404 0.02494-0.20251 0.06619-0.39659 0.09189-0.35235 0.04662-0.35298 0.04642-0.42896-0.18455-0.04186-0.12719-0.18839-0.49798-0.32561-0.82392-0.32182-0.76436-0.32224-1.0115-0.0052-3.1278 1.3207-8.8173 2.8798-15.212 5.1695-21.204 0.67845-1.7753 0.78976-1.9894 1.5579-2.9973 0.74894-0.98267 1.0413-1.2187 1.4213-1.1474 0.40919 0.07674 1.0133 0.52064 1.6456 1.2091 0.325 0.35389 0.59896 0.66567 0.6088 0.69284 0.01 0.02724-0.21409 0.0376-0.49762 0.0234-0.91208-0.04604-1.5939 0.26165-2.098 0.94691-0.67676 0.91988-2.1958 4.5775-3.0929 7.4471-0.98859 3.1623-1.7206 6.3144-2.3866 10.277-0.24897 1.4812-0.26742 1.6747-0.1949 2.0433 0.04405 0.22394 0.10407 0.3818 0.13335 0.35082 0.02927-0.03108 0.34912-0.62109 0.71075-1.3113 1.2037-2.2973 3.1916-5.3512 3.9108-6.0076 0.43584-0.39782 1.0402-0.72017 1.3502-0.72017 0.41816 0 1.3469 0.97419 1.7188 1.803 0.1585 0.35322 0.20532 0.57616 0.23402 1.1145 0.0497 0.93287-0.0833 1.6121-0.74277 3.7922-1.4848 4.9087-2.5949 7.4694-3.4239 7.8981-0.10929 0.05659-0.35159 0.10283-0.53847 0.10283-0.27465 0-0.40377-0.04547-0.67364-0.23737zm-69.198 0.0963c-0.34002-0.08-0.60757-0.40396-0.66837-0.80942-0.02738-0.18263-0.01458-0.72574 0.02833-1.207 0.04295-0.48133 0.09711-1.2359 0.12034-1.6769 0.04915-0.9332 0.18231-1.7084 0.34876-2.0303 0.06463-0.12508 0.31911-0.5225 0.56552-0.88341 1.1984-1.7552 1.8002-3.5099 2.6711-7.788 0.40633-1.996 0.63318-2.8898 1.0705-4.2179 0.39958-1.2134 0.45328-1.6332 0.25791-2.0161-0.07984-0.15654-0.17538-0.28454-0.21232-0.28454-0.13908 0-4.4301 1.4762-5.1601 1.7753-1.0858 0.44471-1.3891 0.61309-1.7209 0.9553-0.41307 0.42604-0.59696 0.87933-0.63169 1.5571-0.02471 0.48194 0.0096 0.70494 0.25203 1.6406 0.27634 1.0664 0.44959 2.2673 0.30643 2.1241-0.24799-0.24811-0.9503-1.2991-1.2302-1.841-0.64573-1.2503-0.84362-2.1198-0.79745-3.504 0.02624-0.78699 0.04729-0.89972 0.24814-1.3288 0.2777-0.59327 0.69454-1.0008 1.3928-1.3618 0.75772-0.39172 1.5524-0.6331 4.5177-1.3721 2.08-0.5184 2.7821-0.72441 3.6253-1.0639 1.6057-0.64635 1.5052-0.62627 2.0066-0.40128 0.85303 0.38282 1.8044 0.28218 2.7343-0.28924 0.81691-0.50199 0.99621-0.58742 1.3829-0.6589 0.54975-0.10168 0.88153-0.0019 1.1147 0.33509 0.37582 0.5431 0.54125 1.3353 0.35903 1.7193-0.14962 0.31529-0.72428 0.70661-1.292 0.87979-0.708 0.21598-2.127 0.47254-2.8893 0.52238-1.0957 0.07175-1.4611 0.19645-1.9234 0.65702-0.30903 0.30789-0.42029 0.48172-0.53815 0.84075-0.08171 0.24893-0.61882 2.4762-1.1936 4.9494-1.0072 4.3343-1.7097 7.3053-2.6873 11.366-0.50777 2.109-0.79832 2.8631-1.259 3.2676-0.25313 0.22227-0.37614 0.24464-0.79868 0.14522zm36.113-0.0635c-0.63192-0.19294-1.1925-0.70053-1.3288-1.2032-0.04923-0.18148-0.06766-0.56208-0.04662-0.96257 0.05224-0.99418 1.5025-9.9889 1.6939-10.506 0.05949-0.16057 0.20825-0.3908 0.33059-0.51141 0.22171-0.21862 1.1483-0.80784 1.1904-0.75703 0.01228 0.01535 0.1097 0.25279 0.21664 0.52908 0.27264 0.70433 0.23324 0.98645-0.48309 3.4593-0.9135 3.1535-1.0404 3.7545-1.3295 6.2957-0.0954 0.83875-0.19159 1.6403-0.21376 1.7812l-0.04031 0.25622 0.38962 0.12278c0.24099 0.07597 0.41356 0.09784 0.45238 0.05755 0.09671-0.10072 2.4218-4.3146 3.0942-5.6079 0.32894-0.63269 0.94174-1.9367 1.3618-2.8978 1.0189-2.3313 1.4187-3.1169 1.7003-3.3407 0.12541-0.09976 0.45334-0.30323 0.72875-0.45234l0.50073-0.27115 0.07873 0.3611c0.2389 1.0958 0.21233 1.2581-0.66362 4.0562-0.93297 2.9802-1.0483 3.604-1.1493 6.2145-0.07443 1.9254-0.08982 2.0394-0.38399 2.8459-0.21816 0.59814-0.22413 0.59989-0.9261 0.26829-0.79294-0.37457-0.88951-0.84284-0.61207-2.9678 0.17764-1.3607 0.24613-3.0776 0.11731-2.9412-0.03442 0.03645-0.48595 0.83488-1.0034 1.7743-0.92263 1.675-1.68 2.9912-2.1729 3.7762-0.36193 0.57641-0.9078 0.80194-1.5019 0.62055zm46.713-0.047c-0.73169-0.2648-1.4384-0.89226-1.7976-1.596-0.23776-0.46583-0.26821-1.048-0.12579-2.4053 0.3902-3.7186 1.3264-6.6697 2.9469-9.2895 0.71265-1.1521 0.82985-1.2259 2.4568-1.5483 0.51488-0.10206 0.9568-0.19823 0.98203-0.21383 0.0587-0.03626 0.46382 1.2648 0.56484 1.814 0.10987 0.59734 0.0345 3.0114-0.11094 3.5556-0.39924 1.4934-1.2117 2.0533-3.1323 2.1588-0.7974 0.04374-1.3797 0.21824-1.5041 0.45056-0.0858 0.16038-0.37557 1.9666-0.62712 3.9093-0.11667 0.9011-0.22714 1.7251-0.24547 1.831-0.0311 0.17976-0.0206 0.18954 0.15683 0.14522 0.39689-0.0988 1.1443-0.44413 1.6016-0.73999 0.6348-0.41066 1.2202-0.9387 2.1501-1.9396 0.73531-0.79144 1.5267-1.5328 1.7878-1.6747 0.27928-0.15175-0.98423 2.2661-1.7602 3.3685-0.48092 0.68317-1.4491 1.6991-1.9424 2.0381-0.3686 0.25333-0.92691 0.3075-1.401 0.13602zm1.9008-8.5729c0.97847-0.24803 1.0698-0.31205 1.2342-0.86507 0.0743-0.24997 0.1825-0.68031 0.24044-0.95633 0.10889-0.51874 0.45737-2.6838 0.45737-2.8416 0-0.07156-0.66454-0.31673-0.85831-0.31673-0.0495 0-1.2404 2.3483-1.9323 3.8105l-0.40107 0.84746 0.20656 0.25058c0.11361 0.13774 0.23781 0.2506 0.276 0.2506 0.0382 0 0.38789-0.08077 0.77711-0.17937zm4.3373 8.6538c-0.0383-0.01535-0.43835-0.06542-0.8889-0.11127l-0.81918-0.08345v-0.44352c0-0.42681 7e-3 -0.44515 0.19172-0.48699 0.10546-0.02398 0.36428-0.08594 0.57517-0.13774 0.2109-0.0518 0.77219-0.17611 1.2473-0.27625 1.1114-0.2341 1.5239-0.39209 1.9089-0.7309 0.35978-0.31669 0.52363-0.6227 0.60787-1.1354 0.10703-0.65134 0.0412-0.97066-1.145-5.5571-0.40371-1.5609-0.48571-2.143-0.38803-2.7544 0.22328-1.3977 1.3126-2.2416 3.4059-2.6387 0.22243-0.04221 0.2139-0.02954-0.17429 0.25764-0.8004 0.59224-1.1848 1.1287-1.3942 1.9459-0.14866 0.58013-0.0915 1.218 0.22388 2.499 0.136 0.55235 0.35339 1.4906 0.48308 2.0849 0.1297 0.59434 0.31998 1.4066 0.42286 1.8051 0.16315 0.63172 0.18273 0.81905 0.15313 1.4641-0.0374 0.81584-0.16761 1.2503-0.59651 1.9905-0.29764 0.51366-1.585 1.821-2.0686 2.1007-0.30614 0.17707-0.42373 0.20243-1.0109 0.21805-0.36545 0.0096-0.69584 0.0058-0.73418-0.0096zm38.58-0.16364c-0.26828-0.14004-0.43029-0.28763-0.57739-0.52555-0.31073-0.50261-0.32297-1.1019-0.0522-2.5564 0.11779-0.63269 0.40279-2.2327 0.63336-3.5556 0.2306-1.3229 0.51397-2.8916 0.62973-3.4859 0.25772-1.3232 0.26959-1.8077 0.0547-2.2331-0.18263-0.36149-0.7008-0.77775-1.1852-0.95203-0.18206-0.06561-0.33116-0.13678-0.33116-0.15827 0-0.02149 0.20282-0.11184 0.45072-0.20078 0.6103-0.21889 1.1826-0.60215 1.6275-1.0899 0.60269-0.6608 0.86033-1.2777 1.2967-3.1046 0.27552-1.1537 1.1288-3.7146 1.4492-4.3494 0.43527-0.86237 0.69728-1.0621 1.3154-1.0027 0.27153 0.02609 0.46007 0.10801 0.83031 0.36105 0.71639 0.48948 0.70985 0.46203 0.21854 0.91689-0.76157 0.70508-1.3415 1.613-1.7889 2.8004-0.0978 0.2596-0.37922 1.2093-0.62535 2.1104-0.24611 0.9011-0.52407 1.8631-0.61765 2.1378l-0.17017 0.49946 0.1506 0.03607c0.0829 0.01976 0.6997 0.12124 1.3708 0.22547 0.67102 0.10417 1.2276 0.19493 1.2368 0.20163 0.01 0.0077 0.0359 0.10782 0.0591 0.22451l0.0424 0.21231-0.51233 0.12374c-0.68292 0.16479-2.2693 0.70162-2.4783 0.83852-0.22487 0.14734-0.23377 0.1763-0.7115 2.3113-0.33142 1.4811-1.7496 8.2457-1.7496 8.3453 0 0.01343 0.14388 0.07846 0.31957 0.14561l0.31959 0.12201 0.22073-0.20393c0.12144-0.11223 0.6005-0.55498 1.0647-0.98405 0.46415-0.42907 0.87438-0.78012 0.9116-0.78012 0.0372 0 0.13371 0.0706 0.21436 0.15693l0.14676 0.15693-0.50055 0.83697c-0.63573 1.063-1.0666 1.6216-1.5618 2.025-0.77978 0.63523-1.0984 0.70905-1.701 0.39424zm7.2514 0.09228c-0.63072-0.23215-1.3788-0.9064-1.6916-1.5247-0.30901-0.61075-0.363-1.0321-0.26245-2.0487 0.2914-2.9466 1.2824-6.39 2.6718-9.2831 0.47912-0.99773 0.88544-1.4831 1.4891-1.7786 0.46581-0.22808 1.2631-0.39117 1.9123-0.39117 0.46737 0 0.47734 0.0038 0.736 0.29024l0.26223 0.29026-0.0411 1.9233c-0.0597 2.7957-0.22271 3.6244-0.84877 4.3174-0.14196 0.15731-0.43585 0.37308-0.65289 0.47966-0.38455 0.18877-0.42495 0.1938-1.5799 0.1938-0.7713 0-1.2339 0.0282-1.3246 0.08076-0.24214 0.14024-0.44484 0.40103-0.55552 0.71471-0.15961 0.45225-0.38567 2.9325-0.38567 4.2304v1.138l0.26512-0.09362c1.0373-0.36598 1.8632-0.97475 3.0853-2.2742 0.51548-0.54811 1.1594-1.2304 1.4309-1.5162l0.49373-0.51962 0.2906 0.19232c0.15981 0.1057 0.29062 0.2032 0.29062 0.21649 0 0.05026-2.4813 3.2949-2.953 3.8615-0.69385 0.8334-1.2331 1.3923-1.4532 1.5061-0.2337 0.12086-0.84384 0.11818-1.179-0.0058zm1.9249-8.5814c0.30675-0.06024 0.66755-0.16518 0.80176-0.23305 0.32162-0.16268 0.7342-0.76046 0.91678-1.3284 0.17342-0.53917 0.19201-1.6821 0.0434-2.6508l-0.0907-0.5908-0.63753-0.23673-2.3016 4.7069 0.20473 0.25523c0.15194 0.18954 0.24347 0.24646 0.3551 0.22121 0.0827-0.01918 0.40133-0.08326 0.70809-0.14369zm25.389 8.1446c-0.0959-0.29774-0.1907-0.63548-0.21067-0.7505-0.0407-0.23434 0.21705-1.4679 0.88842-4.2528 0.94503-3.9202 1.001-4.2512 1.0317-6.0974l0.0215-1.2868-0.23604-0.0681c-0.23163-0.06676-0.24421-0.05909-0.67479 0.41536-0.24134 0.26585-0.5866 0.75006-0.76725 1.076-0.75638 1.3646-4.5779 9.017-4.7378 9.4872-0.0957 0.28122-0.25985 0.60171-0.36489 0.71225-0.18647 0.19622-1.1181 0.79129-1.1557 0.73821-0.16326-0.23067-0.46447-1.0769-0.46447-1.3051 0-0.3147 0.25726-1.5124 1.0732-4.9963 0.28738-1.227 0.6497-2.8114 0.80516-3.5207 0.1554-0.70939 0.33252-1.4742 0.39345-1.6995 0.12758-0.47206 0.0848-0.84522-0.10896-0.94891-0.17189-0.09208-0.732-0.08959-1.0713 0.0038-0.14734 0.04086-0.28385 0.05851-0.30325 0.03914-0.0194-0.01938 1e-3 -0.14618 0.046-0.28185 0.0602-0.18244 0.22987-0.36118 0.65186-0.68693 0.79678-0.61506 0.94336-0.69836 1.229-0.69836 0.28809 0 0.73554 0.2092 0.95808 0.44797 0.2458 0.2637 0.43688 0.76061 0.43855 1.1405 8.2e-4 0.19217-0.076 0.72551-0.17074 1.1852-0.27436 1.3315-0.55939 3.5712-0.43909 3.4502 0.0192-0.01918 0.45012-0.70937 0.95785-1.5338 1.7259-2.8023 2.5492-3.8236 3.4776-4.3136 0.38921-0.20544 0.49184-0.23021 0.84773-0.20446 0.55592 0.04029 0.90256 0.2771 1.1522 0.78734 0.26484 0.54134 0.29152 1.094 0.1128 2.3379-0.0798 0.55519-0.19435 1.7467-0.25465 2.6478-0.19247 2.8761-0.30973 3.8048-0.62941 4.9848-0.46399 1.7127-1.0628 2.7458-2.0314 3.5046l-0.29022 0.22737-0.17439-0.54136zm-85.293 0.28807c-0.42092-0.20366-0.82551-0.64064-0.92511-0.99917-0.16013-0.57643-0.0496-1.5634 0.63682-5.6866 1.4017-8.4196 3.485-15.991 5.6013-20.358 1.3224-2.7283 1.9301-3.029 3.2892-1.6278 0.39512 0.40742 1 1.2028 1 1.315 0 0.02609-0.1702 0.01727-0.37822-0.01727-0.77949-0.13429-1.5433 0.19309-2.0661 0.88556-0.34831 0.46134-1.2358 2.3052-1.8635 3.8719-1.6964 4.2336-2.9054 8.9765-3.9144 15.356l-0.20691 1.3081 0.16952 0.33749c0.24253 0.48287 0.3349 1.0004 0.29439 1.6497-0.0283 0.4529-0.12621 0.83488-0.49237 1.92-0.25141 0.74508-0.47666 1.4802-0.50054 1.6336-0.10759 0.69067-0.0898 0.67927-0.64398 0.41112zm65.608 0.08115c-0.45211-0.14139-0.74513-0.35443-0.92321-0.67129-0.14849-0.26403-0.15981-0.34854-0.1247-0.92721 0.023-0.3805 0.21045-1.4362 0.46566-2.6236 0.23489-1.0928 0.54889-2.6025 0.69778-3.3548 0.14887-0.75233 0.34819-1.5523 0.44285-1.7778 0.2995-0.7134 0.27577-1.0099-0.1105-1.3805l-0.29634-0.28435 0.59032-1.1503c0.47705-0.92966 0.67158-1.2339 1.0139-1.5861 0.45188-0.46479 0.6358-0.52977 0.92541-0.32692 0.23441 0.16422 0.36369 0.47187 0.36369 0.86561 0 0.30576-0.39566 1.7833-0.87683 3.2745-0.10974 0.34002-0.0959 0.36941 0.22365 0.47586l0.21829 0.07271 0.7159-1.4053c0.84886-1.6663 1.4677-2.7501 1.6888-2.9579 0.0882-0.08288 0.44001-0.30737 0.78193-0.49906l0.62166-0.34848 0.34198 0.46802c0.57575 0.78805 0.60735 0.88061 0.60509 1.7725-2e-3 0.76794-0.3415 3.838-0.43479 3.9313-0.12854 0.12853-0.77253-0.45206-1.0126-0.91319-0.17822-0.34238-0.18148-0.37469-0.18532-1.8127-2e-3 -0.80524-0.0309-1.5061-0.0641-1.5575-0.065-0.10072-1.2026 1.923-1.9047 3.3883-0.80977 1.6899-1.9262 4.8214-2.7402 7.6857-0.23427 0.8244-0.44219 1.5538-0.46205 1.6209-0.042 0.14235-0.16133 0.14695-0.56182 0.02168zm-27.082-0.33538c-0.16-0.2013-0.38825-0.56994-0.50708-0.81918-0.19203-0.40279-0.21864-0.53601-0.23953-1.1983-0.0192-0.58489 8e-3 -0.86977 0.12297-1.3246 0.28103-1.1125 2.9222-6.834 4.1134-8.9108 0.97097-1.6927 1.346-2.0943 1.9501-2.0884 0.41194 0.0038 0.75355 0.18513 1.507 0.7986l0.59928 0.48803-0.35061 0.32506c-0.26022 0.24126-0.52154 0.3913-1.0136 0.58195-1.1286 0.43728-1.0455 0.3334-2.3493 2.9381-1.2692 2.5356-2.9363 6.11-3.0514 6.5428-0.0409 0.15328-0.0744 0.52093-0.0746 0.81675-7.1e-4 0.57593 2e-3 0.58068 0.44466 0.74884 0.16805 0.06388 0.22276 0.0038 1.2867-1.4117 2.3066-3.0691 3.6404-5.2446 4.5387-7.403 0.30113-0.72359 0.87025-2.4352 0.94863-2.8531 0.0566-0.30169 0.20491-0.35821 0.78314-0.29854 0.47393 0.04892 0.71586 0.21469 0.84234 0.57718 0.13007 0.37279 0.0393 0.97998-0.44711 2.9912-0.21329 0.88194-0.49648 2.0797-0.62931 2.6617-0.13276 0.58199-0.28794 1.1692-0.34465 1.305-0.215 0.51458-0.10762 0.77021 0.38489 0.91576 0.22454 0.06638 0.27651 0.15117 0.27781 0.45388 7.7e-4 0.18091-1.0191 3.5198-1.3559 4.439-0.023 0.06312-0.12604 0.0518-0.40626-0.0447-0.87624-0.30148-1.0255-0.48179-1.0255-1.2391 0-0.5132 0.26975-2.4375 0.65282-4.657 0.13237-0.76689 0.2313-1.404 0.2199-1.4157-0.0558-0.05755-0.98015 1.1882-2.1626 2.9147-1.634 2.3856-2.4833 3.5591-2.7949 3.8618-0.31777 0.3086-1.0607 0.66989-1.3775 0.66989-0.21968 0-0.28786-0.04604-0.5423-0.36602zm34.838-0.06964c-0.2347-0.83334-0.22219-1.0795 0.13199-2.597 0.17898-0.76691 0.76264-3.1769 1.297-5.3555 0.53436-2.1787 0.97155-3.9741 0.97155-3.9899 0-0.01535-0.11856-0.0894-0.26369-0.16326l-0.26369-0.13448-0.62521 0.20197c-0.34388 0.11108-0.64804 0.20237-0.67595 0.20283-0.0278 6.9e-4 0.12661-0.27368 0.34328-0.60919 0.78407-1.214 1.0021-1.4025 1.475-1.2751 0.28157 0.07578 1.0189 0.5234 1.2609 0.76537 0.20577 0.20575 0.18858 0.75459-0.0627 2.0076-0.11357 0.56618-0.35007 2.0177-0.52553 3.2255-0.49476 3.4059-0.82642 4.8989-1.4328 6.4498-0.2154 0.55093-0.33757 0.76054-0.57096 0.97974-0.29768 0.27957-0.85728 0.72746-0.90887 0.72746-0.0154 0-0.0827-0.19608-0.15021-0.43575zm-56.65-10.109c7e-4 -0.0096 0.0497-0.17419 0.10956-0.36603 0.0598-0.19165 0.14973-0.88276 0.19976-1.5356 0.104-1.3574 0.22734-1.7548 0.66814-2.1531 0.43799-0.39569 0.53384-0.42491 0.65101-0.19833 0.38658 0.74757 0.43187 1.972 0.0993 2.6846-0.23029 0.49342-0.79394 1.1013-1.2779 1.3782-0.32819 0.18781-0.45202 0.24015-0.44986 0.19031zm59.852-7.2366c-0.39913-0.09707-0.67078-0.21567-0.64753-0.2826 0.0351-0.1011 1.2182-1.6197 1.4964-1.9207 0.21356-0.23113 0.33275-0.29927 0.59133-0.33804 0.43781-0.06561 0.56724-0.01151 0.7959 0.33344 0.6503 0.98089-0.13755 2.1674-1.4928 2.2481-0.25544 0.01535-0.58989-0.0038-0.74327-0.04009zm1.4989-5.492c-0.93755-0.31393-1.3622-0.63686-3.6037-2.7403-7.7569-7.2792-15.175-13.525-21.843-18.392-4.1079-2.9981-5.8386-4.3374-10.806-8.3623-3.0006-2.4312-3.9461-3.4002-4.5999-4.7144-0.43995-0.88437-0.578-1.5073-0.5794-2.6144-2e-3 -1.4382 0.22814-2.3424 1.2791-5.0291 1.0866-2.7778 1.1413-3.3309 0.40862-4.1309-0.52791-0.57648-2.1007-1.4188-4.5875-2.4568-5.3951-2.252-12.304-3.3859-24.026-3.9428-2.3273-0.1105-10.124-0.10993-12.41 9.784e-4 -12.812 0.62193-21.212 1.9531-30.432 4.8223-9.163 2.8517-17.691 6.8474-28.759 13.474-5.7291 3.4303-10.484 6.6889-14.71 10.08-3.8078 3.0557-5.7788 4.9825-10.459 10.224-0.99282 1.112-2.3103 2.5709-2.9277 3.2419-0.6174 0.67104-1.8075 1.9887-2.6446 2.9282-2.5593 2.8721-2.9813 3.2605-4.1981 3.8646-0.8629 0.42838-1.3701 0.54752-2.193 0.51506-0.59506-0.023405-0.72211-0.052756-1.1353-0.26256-0.95582-0.48515-1.5504-1.336-1.6253-2.3256-0.055615-0.73544 0.044546-1.1566 0.63555-2.6727 1.216-3.1193 1.9221-4.4813 3.2881-6.3425 3.1829-4.3367 5.4247-6.963 8.9843-10.525 4.918-4.9217 8.7637-7.9538 15.551-12.261 15.35-9.7414 30.906-16.545 46.711-20.43 19.9-4.8913 40.961-4.9651 60.115-0.21054 3.1306 0.7771 5.147 1.3617 8.6617 2.5114 1.9974 0.65334 2.5969 0.76988 3.6529 0.7102 1.5516-0.087672 2.7867-0.6626 4.4745-2.0826 3.1746-2.671 5.0023-3.8845 6.6528-4.4173 0.7926-0.25584 2.2818-0.31999 3.2419-0.13966 1.3265 0.24918 2.866 0.86087 5.5774 2.2161 7.006 3.5019 12.754 7.7144 21.471 15.736 4.6084 4.2407 14.939 14.223 15.607 15.081 0.90997 1.1683 1.2796 1.9267 1.3504 2.771 0.10398 1.2399-0.44162 2.4784-1.4044 3.1882-0.4011 0.29572-0.44091 0.30967-0.78337 0.27462-0.74822-0.07655-0.86837-0.1717-3.3026-2.6129-1.2507-1.2543-3.0871-3.159-4.081-4.2326-4.1805-4.5161-8.8517-9.0607-12.694-12.35-3.0318-2.5956-7.3758-5.8852-9.3318-7.0667-0.74588-0.45052-2.0883-1.0897-2.9969-1.4269-0.90563-0.33611-1.2254-0.32226-2.3355 0.1011-0.44097 0.16824-0.80679 0.30794-0.81295 0.31063-0.029 0.01343 0.48087 1.7196 0.60699 2.0324 0.0877 0.21745 0.28293 0.49002 0.50558 0.70582 0.51935 0.50345 2.4575 2.047 5.6264 4.4811 6.4624 4.9637 10.641 8.5476 14.712 12.619 4.0526 4.0524 6.9809 7.599 8.4815 10.272 0.47997 0.85504 1.2235 2.464 1.376 2.9777 0.34738 1.1698-0.0875 2.1898-1.0581 2.4819-0.95343 0.28694-2.2252-0.08652-3.726-1.0945-0.54508-0.36603-1.163-0.95708-3.8874-3.7185-9.5403-9.6701-11.406-11.456-14.832-14.198-2.1114-1.6899-8.0368-6.0937-8.9309-6.6375-0.98129-0.59676-3.1402-1.4454-3.677-1.4454-0.74697 0-1.3363 0.37068-1.4039 0.88295-0.0727 0.55145 0.0836 0.93448 0.74226 1.8184 0.33578 0.45067 0.79278 1.0183 1.0156 1.2615 0.22278 0.24314 1.7881 1.5748 3.4785 2.9593 11.075 9.071 16.331 13.865 21.338 19.466 1.0148 1.135 1.7537 2.0662 2.8228 3.5572 0.97978 1.3665 1.1833 1.7364 1.1856 2.1551 4e-3 0.62258-0.32893 1.0102-1.6826 1.9619-1.0801 0.75942-1.4456 0.93596-1.9377 0.93596-0.67651 0-0.9237-0.20078-3.9774-3.231-4.9534-4.9152-7.7039-7.3647-17.429-15.522-2.1665-1.8171-4.7978-4.0431-5.8474-4.9467-2.9868-2.5713-3.4184-2.8896-4.788-3.5313-0.95248-0.44628-1.3344-0.54067-1.8237-0.45069-0.47477 0.08729-2.112 0.62157-2.1118 0.68913 6.9e-4 0.16518 0.45238 1.6883 0.57044 1.9223 0.2022 0.40082 1.618 1.8216 3.0297 3.0404 0.65727 0.56743 3.8259 3.2223 7.0415 5.8997 9.9021 8.2448 13.47 11.306 14.915 12.797 1.1143 1.1497 2.9912 3.4813 4.3671 5.4248 0.4352 0.61481 0.62324 1.1978 0.62917 1.9505 4e-3 0.41589-0.0288 0.65972-0.10648 0.80998-0.17476 0.33783-0.90825 0.97218-1.4097 1.219-0.401 0.19742-0.5402 0.22808-1.1345 0.24986-0.52325 0.01918-0.76466-0.0038-1.0609-0.1036z" stroke-width=".069718"/>
 </g>
</svg>