<?xml version="1.0" standalone="no"?>
<!DOCTYPE svg PUBLIC "-//W3C//DTD SVG 1.1//EN" "http://www.w3.org/Graphics/SVG/1.1/DTD/svg11.dtd">
<svg xmlns="http://www.w3.org/2000/svg" width="415.1400146484375" height="115.0199966430664" version="1.2" viewBox="0 0 415.14 115.02">
 <defs>
  <clipPath id="clip1">
   <path d="m106 84h51v31.02h-51z"/>
  </clipPath>
 </defs>
 <g clip-path="url(#clip1)">
  <path d="m110.96 92.43 30.012-7.5352 15.797 30.125-50.684-0.51562 4.875-22.074" fill="#fff"/>
 </g>
 <path d="m269.49 94.254-32.328-6.6719-17.016 26.676 54.594-0.45703-5.25-19.547" fill="#fff"/>
 <g fill="#f8a62b">
  <g transform="translate(12.094 86.937)">
   <path d="m21.875 0-9.5312-22.219h-2.5l-9.4844 22.219h2.3125l3.2344-7.4688h10.328l3.2188 7.4688zm-6.5-9.4844h-8.625l4.3594-10.203z"/>
  </g>
  <g transform="translate(39.865 86.937)">
   <path d="m15.156-8.0469c0 4.8281-2.7969 6.4219-5.3438 6.4219-2.9375 0-5.3438-1.9844-5.3438-6.4531v-14.141h-2.2188v14.031c0 5.75 3.3281 8.5781 7.5625 8.5781 4.2969 0 7.5625-2.9062 7.5625-8.5312v-14.078h-2.2188z"/>
  </g>
  <g transform="translate(65.534 86.937)">
   <path d="m7.5 0v-20.203h5.0781v-2.0156h-12.391v2.0156h5.0938v20.203z"/>
  </g>
  <g transform="translate(84.327 86.937)">
   <path d="m24.797-11.109c0-6.3281-5.3125-11.5-11.766-11.5-6.5156 0-11.734 5.2344-11.734 11.625 0 6.4531 5.6719 11.375 11.734 11.375 6.4531 0 11.766-5.2188 11.766-11.5zm-2.2188 0.03125c0 5.1094-4.2344 9.4531-9.5469 9.4531-5.1719 0-9.5156-4.3438-9.5156-9.3594 0-5.1719 4.2344-9.6094 9.4844-9.6094 5.3438 0 9.5781 4.3906 9.5781 9.5156z"/>
  </g>
  <g transform="translate(116.42 86.937)">
   <path d="m25.297 0v-22.219h-3.4219l-8.0938 18.922-8.0781-18.922h-3.4219v22.219h2.2188v-19.781h0.0625l8.25 19.781h1.8906l8.3125-19.781h0.0625v19.781z"/>
  </g>
  <g transform="translate(150.01 86.937)">
   <path d="m24.797-11.109c0-6.3281-5.3125-11.5-11.766-11.5-6.5156 0-11.734 5.2344-11.734 11.625 0 6.4531 5.6719 11.375 11.734 11.375 6.4531 0 11.766-5.2188 11.766-11.5zm-2.2188 0.03125c0 5.1094-4.2344 9.4531-9.5469 9.4531-5.1719 0-9.5156-4.3438-9.5156-9.3594 0-5.1719 4.2344-9.6094 9.4844-9.6094 5.3438 0 9.5781 4.3906 9.5781 9.5156z"/>
  </g>
  <g transform="translate(182.11 86.937)">
   <path d="m7.5 0v-20.203h5.0781v-2.0156h-12.391v2.0156h5.0938v20.203z"/>
  </g>
  <g transform="translate(200.9 86.937)">
   <path d="m4.5 0v-22.219h-2.2188v22.219z"/>
  </g>
  <g transform="translate(213.69 86.937)">
   <path d="m11.594 0 9.2031-22.219h-2.3906l-7.875 19.453-7.8281-19.453h-2.4688l9.1562 22.219z"/>
  </g>
  <g transform="translate(240.77 86.937)">
   <path d="m14.25 0v-2.0156h-9.9219v-8.1875h9.5938v-2.0156h-9.5938v-7.9844h9.9219v-2.0156h-12.156v22.219z"/>
  </g>
  <g transform="translate(262.87 86.937)"/>
  <g transform="translate(277.19 86.937)">
   <path d="m22.188-8.1875c-1.0312 3.8281-4.9531 6.5625-8.9844 6.5625-5.2812 0-9.7812-4.0781-9.7812-9.4531 0-5.3125 4.4688-9.5156 9.6875-9.5156 3.1875 0 6.375 1.6875 7.9062 4.2969h2.5781c-1.2969-3.125-5.5312-6.3125-10.5-6.3125-6.5156 0-11.891 5.1406-11.891 11.5 0 6.6406 5.8281 11.5 11.906 11.5 6.1875 0 11.266-4.625 11.75-10.594h-15.078v2.0156z"/>
  </g>
  <g transform="translate(309.37 86.937)">
   <path d="m16.844 0-6.2812-8.2812c3.9062-0.29688 6.6094-3.1562 6.6094-6.75 0-3.7656-2.5781-7.1875-8.375-7.1875h-6.7031v22.219h2.2344v-20.203h4.2188c5.1094 0 6.4062 3 6.4062 5.1094 0 3.0312-2.3438 5.0312-6.2812 5.0312h-2.1562l7.5312 10.062z"/>
  </g>
  <g transform="translate(333.6 86.937)">
   <path d="m24.797-11.109c0-6.3281-5.3125-11.5-11.766-11.5-6.5156 0-11.734 5.2344-11.734 11.625 0 6.4531 5.6719 11.375 11.734 11.375 6.4531 0 11.766-5.2188 11.766-11.5zm-2.2188 0.03125c0 5.1094-4.2344 9.4531-9.5469 9.4531-5.1719 0-9.5156-4.3438-9.5156-9.3594 0-5.1719 4.2344-9.6094 9.4844-9.6094 5.3438 0 9.5781 4.3906 9.5781 9.5156z"/>
  </g>
  <g transform="translate(365.69 86.937)">
   <path d="m15.156-8.0469c0 4.8281-2.7969 6.4219-5.3438 6.4219-2.9375 0-5.3438-1.9844-5.3438-6.4531v-14.141h-2.2188v14.031c0 5.75 3.3281 8.5781 7.5625 8.5781 4.2969 0 7.5625-2.9062 7.5625-8.5312v-14.078h-2.2188z"/>
  </g>
  <g transform="translate(391.36 86.937)">
   <path d="m4.4688 0v-8.9375h4.4688c6.0781 0 7.9844-3.6094 7.9844-6.5781 0-3.0625-1.8281-6.7031-7.9531-6.7031h-6.7188v22.219zm0-10.953v-9.25h4.4688c4.3594 0 5.7656 2.4062 5.7656 4.625 0 2.7656-2.1875 4.625-5.2812 4.625z"/>
  </g>
 </g>
 <g fill="#383536">
  <path d="m39.746 23.164c0-2.4336-1.625-3.7656-5.0977-3.7656h-26.941v10.547h26.941c3.4727 0 5.0977-1.332 5.0977-3.7656zm-0.98438 31-9.5625-18.195h-21.492v31.57h-7.707v-54.164h34.648c9.2695 0 12.801 3.9961 12.801 9.8477v2.8984c0 5.2734-2.8359 9.0391-10.082 9.7344l9.6211 18.309h-8.2266"/>
  <path d="m98.199 23.164c0-2.4336-1.6211-3.7656-5.0977-3.7656h-26.941c-3.4766 0-5.0977 1.332-5.0977 3.7656v21.207c0 2.4336 1.6211 3.7656 5.0977 3.7656h26.941c3.4766 0 5.0977-1.332 5.0977-3.7656zm-32.039 31c-9.2695 0-12.805-4-12.805-9.8516v-21.09c0-5.8516 3.5352-9.8477 12.805-9.8477h26.941c9.2695 0 12.805 3.9961 12.805 9.8477v21.09c0 5.8516-3.5352 9.8516-12.805 9.8516h-26.941"/>
  <path d="m154.22 54.164v-18.543h-33.371v18.543h-7.707v-40.789h7.707v16.223h33.371v-16.223h7.707v40.789h-7.707"/>
  <path d="m209.2 23.164c0-2.4336-1.6211-3.7656-5.0977-3.7656h-26.941v10.547h26.941c3.4766 0 5.0977-1.332 5.0977-3.7656zm-0.98437 31-9.5586-18.195h-21.496v18.195h-7.7031v-40.789h34.645c9.2695 0 12.805 3.9961 12.805 9.8477v2.8984c0 5.2734-2.8398 9.0391-10.082 9.7344l9.6172 18.309h-8.2266"/>
  <path d="m278.08 54.164v-28.562l-20.738 28.562h-6.3164l-20.801-28.508v28.508h-7.125v-40.789h7.1836l24.219 33.312 24.102-33.312h6.6055v40.789h-7.1289"/>
  <path d="m339.95 54.164-21.031-32.852-21.383 32.852h-8.5742l27.117-40.789h5.6172l26.941 40.789h-8.6875"/>
  <path d="m402.63 54.164-43.512-31.75v31.75h-6.7188v-40.789h6.6641l40.613 30.301v-43.676h6.7188v54.164h-3.7656"/>
 </g>
 <path d="m313.45 40.262h10.711l-5.5742 9.418z" fill="#f58611"/>
</svg>