<?xml version="1.0" standalone="no"?>
<!DOCTYPE svg PUBLIC "-//W3C//DTD SVG 1.1//EN" "http://www.w3.org/Graphics/SVG/1.1/DTD/svg11.dtd">
<svg xmlns="http://www.w3.org/2000/svg" width="204.61000061035156" height="136.47999572753906" version="1.1" viewBox="0 0 204.61 136.48">
 <g transform="translate(-.47277 .17158)">
  <g transform="translate(-6.8878 -26.848)" stroke-width=".35278">
   <path d="m122.37 140.05c-0.71275-1.8747-9.8969-19.989-12.342-24.342-5.0957-9.0732-11.166-18.728-16.386-26.06-2.0446-2.8722-2.6266-3.9322-2.3233-4.2317 0.30264-0.2988 0.99923 0.2282 2.7631 2.0904 8.4959 8.9695 19.19 24.1 26.791 37.903 1.6885 3.0665 2.5355 4.2036 2.7553 3.6991 0.0857-0.1968 1.5966-2.9621 3.3575-6.1451 5.287-9.5567 12.296-20.972 18.209-29.657 5.7447-8.4375 6.8377-9.9528 11.578-16.051 16.461-21.178 31.684-34.792 44.812-40.075 5.1767-2.0832 10.391-3.0792 10.391-1.9849 0 0.24756-1.1509 1.3087-2.5576 2.3581-2.6488 1.976-11.138 10.02-14.161 13.42-0.94918 1.0672-2.7054 2.9722-3.9026 4.2333-1.926 2.0288-8.7399 9.8877-12.734 14.687-12.183 14.639-26.936 35.068-35.823 49.607-0.50395 0.82442-1.9404 3.1658-3.192 5.2031s-2.3774 3.9423-2.5016 4.2333c-0.1242 0.29105-1.261 2.1167-2.5261 4.057s-2.8702 4.52-3.5668 5.7326l-1.2665 2.2049h-3.5192c-3.4284 0-3.5279-0.0228-3.8542-0.88114z" fill="#3f9843"/>
   <path d="m49.398 160.42c0.98254-1.5037 1.9879-3.0515 2.2342-3.4396 0.38015-0.59905 0.31732-0.96383-0.41619-2.4163-0.47516-0.94093-0.77771-1.797-0.67234-1.9024 0.26889-0.26888 1.267 0.61299 1.267 1.1195 0 0.23019 0.2152 0.71284 0.47822 1.0725 0.44997 0.61537 0.55659 0.56726 1.8049-0.81451 1.1684-1.2933 2.303-1.9044 2.303-1.2405 0 0.1254-0.72311 1.0011-1.6069 1.9459l-1.6069 1.7179 0.81316 1.4479c0.8912 1.5868 2.5213 3.127 3.3097 3.127 0.27615 0 0.5021 0.15875 0.5021 0.35278 0 1.3078-3.1587-0.84925-4.6493-3.175-0.31089-0.48507-0.62445-0.80257-0.69681-0.70556-0.07236 0.097-0.77699 0.97014-1.5659 1.9403s-1.7178 2.2004-2.0642 2.734c-0.34647 0.53357-0.76272 0.97014-0.925 0.97014-0.16228 0 0.50884-1.2303 1.4914-2.734zm17.562 1.3774c-0.83884-0.67925-0.91741-1.2388-0.68877-4.9051 0.06352-1.0186 0.23339-1.8521 0.37748-1.8521 0.14409 0 0.59058-0.55695 0.99221-1.2377 0.40163-0.6807 1.1503-1.4291 1.6638-1.663 0.82295-0.37496 1.0091-0.33206 1.5712 0.36211 0.50602 0.6249 0.57114 1.0194 0.31547 1.9109-0.41439 1.4449-0.96696 1.9769-2.6565 2.5578-1.1272 0.38752-1.4151 0.68167-1.6168 1.652-0.30275 1.4566 0.44458 2.768 1.5775 2.768 0.43639 0 1.3852-0.48781 2.1085-1.084 1.2839-1.0583 1.8533-0.77436 0.87413 0.43581-1.3699 1.693-3.2024 2.121-4.5183 1.0554zm2.8115-6.804c0.89025-0.8294 1.0221-2.2549 0.17862-1.9313-0.30691 0.11777-0.67438 0.21413-0.81661 0.21413-0.21857 0-1.4476 2.2285-1.4476 2.6248 0 0.32918 1.4225-0.2899 2.0856-0.90764zm18.836 7.0985c-0.97753-0.3937-1.384-2.3237-0.83786-3.9785 0.21892-0.66332 0.46167-1.5365 0.53945-1.9404 0.17236-0.89498 0.81592-2.1709 1.4806-2.9354 0.73404-0.84428 2.2754-0.51264 3.3845 0.72819 2.0237 2.2642 0.97544 5.8836-2.2269 7.6889-0.77439 0.43656-1.4434 0.78369-1.4867 0.77139s-0.42715-0.16269-0.85301-0.33421zm2.2272-1.2744c2.4891-1.1812 3.3669-4.0678 1.8744-6.1639-0.77932-1.0944-1.7399-1.368-1.7399-0.49543 0 0.29104-0.23599 0.52917-0.52443 0.52917-1.0165 0-2.6198 5.3606-1.8726 6.2609 0.47892 0.57707 0.81127 0.55786 2.2624-0.13077zm38.214 0.97987c-0.83883-0.67925-0.9174-1.2388-0.68877-4.9051 0.0635-1.0186 0.23339-1.8521 0.37748-1.8521s0.59059-0.55695 0.99221-1.2377c0.40163-0.6807 1.1503-1.4291 1.6638-1.663 0.82295-0.37496 1.0091-0.33206 1.5712 0.36211 0.50601 0.6249 0.57114 1.0194 0.31546 1.9109-0.41439 1.4449-0.96695 1.9769-2.6565 2.5578-1.1272 0.38752-1.4151 0.68167-1.6168 1.652-0.30275 1.4566 0.44458 2.768 1.5775 2.768 0.43639 0 1.3852-0.48781 2.1085-1.084 1.2839-1.0583 1.8533-0.77436 0.87413 0.43581-1.3698 1.693-3.2024 2.121-4.5183 1.0554zm2.8115-6.804c0.89025-0.8294 1.0221-2.2549 0.17862-1.9313-0.30691 0.11777-0.67439 0.21413-0.81661 0.21413-0.21857 0-1.4476 2.2285-1.4476 2.6248 0 0.32918 1.4225-0.2899 2.0856-0.90764zm-57.497 4.5741c-0.01415-1.4229-0.14543-3.4281-0.2917-4.456-0.14837-1.0427-0.12661-1.9551 0.04923-2.0638 0.54773-0.33851 0.74911 0.18352 0.90565 2.3476l0.1522 2.1041 0.98493-1.3596c1.2298-1.6976 2.8429-2.8683 3.9244-2.8479 0.71682 0.0135 0.65491 0.10676-0.46296 0.69733-2.3373 1.2348-4.6721 5.0233-4.429 7.1866 0.04126 0.36717-0.12342 0.73759-0.36595 0.82315-0.32541 0.11479-0.44772-0.52239-0.46672-2.4315zm22.225 0c-0.01418-1.4229-0.14543-3.4281-0.2917-4.456-0.14837-1.0427-0.12661-1.9551 0.04923-2.0638 0.54773-0.33851 0.74911 0.18352 0.90565 2.3476l0.1522 2.1041 0.98493-1.3596c1.2298-1.6976 2.8429-2.8683 3.9244-2.8479 0.71682 0.0135 0.65491 0.10676-0.46297 0.69733-2.3373 1.2348-4.6721 5.0233-4.429 7.1866 0.04126 0.36717-0.12342 0.73759-0.36595 0.82315-0.32541 0.11479-0.44772-0.52239-0.46672-2.4315zm-56.29 1.7629c-1.4679-0.71078-2.401-4.4528-1.8059-7.2428 0.26708-1.2522 0.23771-1.6693-0.13371-1.8989-0.73057-0.45152 0.08137-1.0628 1.871-1.4087 2.0161-0.38962 7.7013-0.40851 7.7013-0.0256 0 0.16521-1.3097 0.39514-2.9104 0.51097-3.8153 0.27606-5.2035 0.76697-5.2035 1.8401 0 0.45022-0.10421 1.0901-0.23157 1.422-0.21259 0.554 0.11997 0.59093 4.0569 0.45056 2.3587-0.0841 4.2885-0.045 4.2885 0.0868 0 0.34581-1.6008 0.61642-5.2973 0.89546l-3.2425 0.24478 0.23077 1.4459c0.57255 3.5874 2.7295 4.0121 6.2431 1.2293 1.6541-1.3101 1.8018-0.86995 0.2138 0.63708-2.126 2.0176-4.0874 2.6326-5.7806 1.8128zm20.655-0.0396c-1.0047-0.77139-1.3805-1.9318-1.3805-4.2626 0-2.0823-0.07001-2.302-0.76612-2.4044-1.1466-0.16871-1.2455-0.99467-0.11907-0.99467 0.90671 0 0.93431-0.06 0.84045-1.8285-0.06133-1.1555 0.0541-1.8788 0.31361-1.9653 0.49568-0.16523 0.81251 1.0792 0.67395 2.6473l-0.10131 1.1465h2.4015c1.3208 0 2.4015 0.13824 2.4015 0.30719 0 0.16896-1.1112 0.4167-2.4694 0.55053l-2.4694 0.24333v2.1932c0 1.4631 0.19289 2.4686 0.57942 3.0204 0.5136 0.73327 0.77408 0.80418 2.2931 0.62428 2.0265-0.24001 2.279 0.27919 0.39072 0.80359-1.6527 0.45899-1.8949 0.45142-2.5882-0.0809zm20.98-0.16826c-0.45393-0.45393-0.50945-0.98941-0.29853-2.879 0.14251-1.2768 0.27099-3.0012 0.28551-3.8322 0.02035-1.1655 0.1505-1.485 0.56932-1.3976 0.29866 0.0623 0.51125 0.42459 0.47253 0.80528-0.03872 0.38062-0.17961 2.0017-0.3131 3.6025-0.27901 3.3458-0.08963 3.5238 2.1395 2.011 1.7948-1.218 2.0933-0.72042 0.43282 0.72128-1.6443 1.4277-2.5595 1.6973-3.2881 0.96876zm31.047-1.408c-1.451-3.3418-2.0225-4.4031-3.2253-5.99-0.63059-0.83193-1.1465-1.67-1.1465-1.8623 0-0.71355 1.0335-0.31709 1.7326 0.6646 0.84483 1.1864 3.0202 5.6441 3.3273 6.8182 0.21163 0.80907 0.2132 0.80925 0.88234 0.10495 1.2685-1.3351 3.8799-5.4699 4.1066-6.5021 0.2894-1.3176 1.1405-2.1052 1.4378-1.3306 0.31669 0.82529-0.94591 3.0303-4.3429 7.5844-0.63059 0.84539-1.1465 1.763-1.1465 2.0392 0 1.1283-0.79813 0.37883-1.6254-1.5263zm9.5264 1.4125c-0.44304-0.44304-0.50729-1.0163-0.32267-2.879 0.1268-1.2792 0.2386-3.0085 0.24846-3.8429 0.0144-1.2143 0.13279-1.4918 0.59346-1.3902 0.31654 0.0698 0.55001 0.27627 0.51882 0.45878-0.0312 0.18251-0.17073 1.8003-0.31008 3.595-0.28975 3.7315-0.13936 3.899 2.1228 2.3638 1.8095-1.228 2.0758-0.73732 0.39038 0.71922-1.6735 1.4462-2.5165 1.6999-3.2412 0.97527zm14.912 0.35142c-0.22235-0.36987-2.352-8.1107-2.352-8.5491 0-0.19722 0.21332-0.35858 0.47404-0.35858 0.31423 0 0.67676 1.0317 1.0753 3.0603 0.876 4.4584 0.94181 4.4994 2.6381 1.6441 0.80132-1.3488 1.457-2.721 1.457-3.0492 0-0.78444 0.67441-0.76937 0.91838 0.0205 0.65969 2.1359 2.0091 5.3799 2.2378 5.3799 0.1494 0 0.92907-1.2822 1.7326-2.8494 1.0334-2.0156 1.3982-3.0996 1.2464-3.7042-0.15565-0.62018-0.0692-0.85472 0.31515-0.85472 1.2111 0 0.9519 1.2777-1.1056 5.4507l-2.0958 4.2507-1.3251-2.9167c-1.2776-2.8122-1.349-2.8951-1.9915-2.3137-0.36649 0.33167-1.1443 1.6045-1.7285 2.8286-1.077 2.2567-1.2121 2.4337-1.4963 1.9609zm18.42-0.51866c-0.62295-1.164-0.4433-9.4626 0.21924-10.127 0.80004-0.80265 1.0421 0.38364 0.63252 3.0998-0.19429 1.2885-0.337 3.573-0.31713 5.0767 0.0199 1.5037 2e-3 2.734-0.0397 2.734s-0.26441-0.35251-0.49496-0.78329zm4.4728 0.1455c-0.11133-0.35076-0.12861-1.8192-0.0384-3.2632 0.0902-1.444 0.1706-3.0714 0.17864-3.6164 8e-3 -0.56793 0.16521-0.89789 0.36739-0.77293 0.19403 0.11991 0.35806 1.5977 0.36452 3.284 0.0113 2.9541 0.0338 3.0386 0.61736 2.3164 0.79538-0.98453 1.3237-1.7579 2.5825-3.7803 1.6978-2.7278 2.5075-2.62 2.9199 0.38883 0.37679 2.7489 0.91691 4.3175 1.4867 4.3175 0.29451 0 0.9985-0.50697 1.5644-1.1266 1.4018-1.5348 1.7835-0.9589 0.45544 0.68723-1.1372 1.4095-2.5444 1.8647-3.2259 1.0435-0.22363-0.26945-0.59569-1.7062-0.82681-3.1928-0.23111-1.4866-0.53395-2.7029-0.67296-2.7029-0.13902 0-0.77398 0.83344-1.411 1.8521-1.571 2.5121-3.5897 5.2035-3.9029 5.2035-0.14108 0-0.3476-0.28699-0.45892-0.63775zm12.666-0.2138c-0.79954-1.2203-0.54407-4.4285 0.5185-6.5113 0.90024-1.7646 1.4388-2.0392 2.8518-1.454 0.91959 0.3809 1.052 0.61341 1.052 1.8473 0 1.1885-0.0803 1.3449-0.50799 0.98991-0.2794-0.23188-0.55721-0.76725-0.61736-1.1897-0.0781-0.54877-0.31087-0.73336-0.81493-0.64636-1.106 0.19088-2.2195 2.4799-2.2662 4.6584-0.0478 2.2315 1.2793 2.6928 3.6384 1.2648 0.75471-0.45684 1.5655-1.1918 1.8018-1.6334 0.23628-0.4415 0.52337-0.651 0.63799-0.46556 0.29588 0.47875-0.96792 2.4342-2.0178 3.1221-0.48694 0.31905-1.5104 0.66394-2.2744 0.76642-1.2162 0.16312-1.4654 0.0699-2.0017-0.74862zm8.6409 0.30467c-0.37493-0.45175-0.35177-0.64897 0.13319-1.1339 0.54755-0.54756 0.62656-0.54756 1.1741 0 0.48496 0.48495 0.50812 0.68217 0.13319 1.1339-0.24962 0.30078-0.57373 0.54688-0.72024 0.54688-0.14652 0-0.47063-0.2461-0.72025-0.54688zm-100.48-10.312c0.16524-0.44106 2.7154-3.252 2.9503-3.252 0.51961 0 0.05235 1.148-0.79283 1.9479-1.1419 1.0807-2.3466 1.8089-2.1575 1.304zm40.522 0.0631c0-0.53778 2.8192-3.2525 3.0276-2.9154 0.12346 0.19976-0.22943 0.84022-0.7842 1.4232-1.0548 1.1085-2.2434 1.8991-2.2434 1.4921zm-91.588-7.6167c-0.08322-0.13464-1.0461-0.17614-2.1398-0.0922-1.0937 0.0839-2.1614 0.0162-2.3727-0.15044-0.21128-0.16667-1.7335-0.31801-3.3828-0.33631-5.321-0.0591-8.6612-0.28746-9.2817-0.63472-0.46352-0.2594-0.25223-0.34117 0.89824-0.34763 1.763-0.01 23.234-0.43876 24.788-0.4951 0.85466-0.031 0.69915-0.13507-0.80805-0.54077-8.3011-2.2344-11.737-7.1537-13.296-19.036-1.3678-10.426-1.3672-22.2 0.0015-30.771 0.28631-1.7927 0.52056-3.4213 0.52056-3.6192 0-0.19789-1.6185 0.45242-3.5967 1.4451-5.0696 2.544-14.042 4.7156-14.042 3.3985 0-0.94664 2.6187-2.9279 8.3252-6.2988 5.8256-3.4412 9.4693-6.4447 9.7905-8.0704 0.09585-0.48507 0.40442-1.8344 0.68572-2.9986 1.3937-5.7679 2.1969-8.7989 3.2721-12.347 0.64671-2.1343 1.3526-4.5949 1.5685-5.4681 0.21598-0.87312 0.69987-2.4269 1.0753-3.4528 0.98323-2.6868 0.9139-5.4115-0.16972-6.6699l-0.85231-0.98981-7.0543 0.12301c-7.2283 0.12605-9.3657-0.05453-9.1437-0.77251 0.11982-0.38744 11.157-4.2259 18.785-6.5328 6.4748-1.9583 33.786-8.8291 40.04-10.073 8.8366-1.7578 12.463-2.0932 20.085-1.8576 9.9239 0.30679 16.947 1.9326 17.241 3.9909 0.20078 1.4078-1.3883 1.6345-13.337 1.9023-8.0521 0.18048-11.987 0.41357-14.288 0.8464-9.7707 1.8382-35.939 9.063-39.665 10.951-2.1576 1.0933-3.6687 2.3708-4.6144 3.901-1.0931 1.7687-6.6973 22.667-6.6973 24.974 0 1.7693 0.65153 2.1394 3.2657 1.8554 3.7572-0.4082 12.181-2.2236 17.908-3.8592 7.228-2.0643 10.044-2.467 15.062-2.1535 2.2186 0.13862 3.9027 0.38027 3.7426 0.537-0.16015 0.15672-3.0693 1.1009-6.4648 2.0982-20.162 5.9218-27.708 9.5175-32.671 15.568-1.8404 2.2436-3.7218 5.9892-4.5833 9.125-0.87869 3.1982-0.89435 11.995-0.02921 16.404 2.2198 11.312 6.4124 18.752 12.056 21.393 2.186 1.023 2.5313 1.082 5.4029 0.92427 3.5439-0.1947 5.1339-0.6859 10.476-3.2363 8.8202-4.2109 27.858-16.522 37.317-24.132 1.3155-1.0584 2.4764-1.8397 2.5797-1.7364 0.2686 0.2686-4.1333 7.3778-6.4315 10.387-3.947 5.1681-10.02 10.272-17.766 14.932-4.2345 2.5472-13.702 7.5147-16.581 8.6993l-1.9403 0.79859 4.9389 0.064c2.7164 0.0352 5.177 0.0394 5.4681 9e-3 0.29104-0.03 11.8-0.0382 25.576-0.0184 31.822 0.0459 27.569 0.0612 54.665-0.19755 12.798-0.12221 23.354-0.3081 23.459-0.41311 0.47309-0.47308-1.3394-1.1915-3.0061-1.1915-1.0057 0-2.5034-0.23813-3.3283-0.52917s-2.2606-0.52916-3.1905-0.52916c-2.1099 0-2.8067-0.25833-2.8067-1.0405 0-0.48795 0.47792-0.67718 2.3549-0.9324 3.5443-0.48192 3.2188-1.0728-0.70419-1.278-1.8229-0.0953-3.5139-0.29664-3.7577-0.4473-0.44449-0.27471 1.4644-1.6557 4.2236-3.0556l1.2347-0.62644-1.0583-0.016c-1.3162-0.0199-3.706-0.66526-3.6988-0.99881 0.0215-0.98714 0.71861-1.2234 3.1055-1.0526 2.362 0.169 2.4589 0.14603 2.0649-0.48992-0.32838-0.53013-0.30803-0.73273 0.099-0.98598 0.28178-0.1753 0.62819-0.24712 0.7698-0.1596 0.14161 0.0875 1.9307 0.1795 3.9758 0.2044 2.6189 0.0319 3.8843-0.0924 4.2796-0.42049 1.0439-0.86636-0.48876-1.1925-6.1856-1.3161-7.2485-0.15735-7.9449-0.72502-1.8098-1.4752 1.4303-0.17489 2.7797-0.49986 2.9986-0.72215 0.59046-0.59953-0.55544-1.3101-2.5565-1.5853-3.1578-0.4343-3.2025-0.94572-0.23143-2.6456 2.4252-1.3876 3.9061-3.0554 3.3296-3.7499-0.22353-0.26933-0.76016-0.4897-1.1925-0.4897-1.1802 0-3.0088-0.71922-3.0027-1.181 0.0121-0.91055 0.66397-1.112 3.5982-1.112 2.3898 0 3.2043-0.12994 3.6577-0.58351 0.85988-0.86021 0.3706-1.2781-1.8165-1.5513-1.7402-0.21743-3.2915-1.0181-2.8424-1.4671 0.0916-0.0916 1.21-0.42989 2.4854-0.75175s2.3285-0.73294 2.3403-0.91352c0.0118-0.18057-0.47946-0.49807-1.0917-0.70555-1.384-0.46905-1.3638-0.97179 0.0584-1.4506 1.2802-0.43106 2.0719-1.3867 2.0719-2.501 0-1.5717 0.66432-1.1578 1.2223 0.76165 0.42122 1.449 0.78754 2.0418 1.4073 2.2774 1.4152 0.53807 1.6176 2.4687 0.26001 2.481-0.3281 3e-3 -0.82446 0.14962-1.103 0.32589-0.75524 0.47789 0.0682 1.2978 1.544 1.5373 1.4146 0.22955 4.1822 2.7906 4.0085 3.7094-0.0755 0.39953-0.66351 0.70227-1.7856 0.91939-0.92012 0.17804-1.673 0.42771-1.673 0.55482 0 0.44804 3.0189 1.6942 4.6661 1.9261 0.91711 0.12911 1.7661 0.39433 1.8866 0.58938 0.36751 0.59464-0.95549 1.7213-2.0213 1.7213-1.3101 0-1.2774 0.54587 0.0746 1.245 1.0143 0.52454 5.9881 1.2889 6.8272 1.0492 1.757-0.50187 1.7647-0.63166 0.0606-1.0184-1.9896-0.4516-2.4484-1.084-1.0125-1.3958 1.5484-0.33625 2.124-0.82136 1.5983-1.347-0.59382-0.59383-0.55343-1.3552 0.0719-1.3552 0.28046 0 0.71823-0.43462 0.97283-0.96582 0.2546-0.53121 0.73951-1.0191 1.0776-1.0842 0.48719-0.0938 0.61468 0.1307 0.61468 1.0826 0 0.91999 0.20634 1.3114 0.88194 1.673 1.0675 0.57129 1.1316 1.2527 0.16651 1.7692-0.83547 0.44714-0.60846 1.053 0.39455 1.053 0.38269 0 0.78179 0.27781 0.88687 0.61736 0.10509 0.33955 0.35709 0.92321 0.55999 1.297 0.28396 0.52312 0.2374 0.77582-0.20214 1.0972-0.86349 0.6314-0.72441 0.83037 1.2055 1.7245 1.2078 0.55956 1.6031 0.88967 1.2347 1.031-0.83124 0.31897-0.64905 0.88081 0.5152 1.5888 1.2323 0.74942 1.0509 1.1107-0.55784 1.1107-1.347 0-2.2631 0.30089-2.2631 0.7433 0 0.17326 0.35719 0.31658 0.79375 0.31848 0.43656 2e-3 1.6669 0.43421 2.734 0.96069l1.9403 0.95725-1.5875 0.11991c-2.3287 0.17589-2.4417 0.62149-0.3822 1.5074 1.0007 0.43048 1.7584 0.95905 1.6837 1.1746-0.13682 0.39523-0.42334 0.39533-3.5514 1e-3 -1.218-0.15343-1.6499-0.10228-1.4785 0.17513 0.13321 0.21553 0.68539 0.39187 1.2271 0.39187 2.1245 0 4.4055 1.4614 3.0768 1.9713-0.28229 0.10833-0.40599 0.52037-0.30881 1.0287 0.12881 0.67384-0.0174 0.89306-0.71204 1.0674-0.78113 0.19605-0.8321 0.30934-0.47899 1.0646 0.38885 0.83176 0.4824 0.84681 5.8632 0.94339 5.0925 0.0914 5.3954 0.13378 4.4097 0.61694-0.87227 0.4276-3.7873 0.53665-16.581 0.62033-39.64 0.25926-50.976 0.2511-50.976-0.0367 0-0.16978-0.51595-0.1843-1.1465-0.0323-0.63059 0.15202-2.5753 0.3505-4.3215 0.44107-2.7649 0.14339-35.294 0.41875-45.685 0.38671-2.0373-6e-3 -4.0217 6e-3 -4.4097 0.0275-0.38806 0.0214-6.3015 0.10699-13.141 0.1902-8.3321 0.10137-12.435 0.0323-12.435-0.20924 0-0.1983-0.15815-0.26279-0.35145-0.14333-0.75433 0.46621-2.1654 0.57819-8.1802 0.64918-5.3882 0.0636-6.1817 5e-3 -5.8208-0.43331 0.35744-0.43372 0.30122-0.44483-0.38928-0.0769-0.44389 0.23654-1.1052 0.33545-1.4696 0.21979-0.3644-0.11565-0.74298-0.0801-0.84129 0.0789-0.26446 0.42791-3.6842 0.50222-3.9417 0.0857-0.12158-0.19672-0.39636-0.24933-0.61062-0.11691-0.52188 0.32254-2.4125 0.36266-2.6025 0.0552zm153.07-3.0772c-1.0139-0.12314-2.0378-0.41829-2.2754-0.65589-0.2376-0.23759-0.92185-0.43199-1.5206-0.43199-0.85339 0-1.0886 0.15243-1.0886 0.70555 0 0.65971 0.21863 0.70233 3.364 0.65589 2.805-0.0414 3.0576-0.0869 1.5206-0.27356zm-3.4521-2.5468 2.1205-0.60748-1.7736-0.0251c-1.0712-0.0152-2.0841 0.19235-2.5576 0.52404-0.8089 0.56657-1.1259 1.4676-0.34693 0.9862 0.24042-0.14858 1.3914-0.54352 2.5576-0.87763z" fill="#221e1f"/>
  </g>
 </g>
</svg>