<?xml version="1.0" standalone="no"?>
<!DOCTYPE svg PUBLIC "-//W3C//DTD SVG 1.1//EN" "http://www.w3.org/Graphics/SVG/1.1/DTD/svg11.dtd">
<svg xmlns="http://www.w3.org/2000/svg" width="254.94000244140625" height="72.2959976196289" version="1.1" viewBox="0 0 254.94 72.296" xml:space="preserve"><g transform="translate(-19.965 -71.396)" stroke-width=".85629"><path d="m48.754 121.14c-5.9577-11.261-10.832-20.702-10.832-20.979 0-0.27703 5.78-0.50387 12.844-0.50387s12.844-0.21198 12.844-0.47109c0-0.25923-3.2753-6.4384-7.2785-13.732-4.0032-7.2933-7.2785-13.439-7.2785-13.658 0-0.21846 2.2157-0.39675 4.9237-0.39626l4.9237 8.73e-4 9.6333 17.88c5.2983 9.8341 9.6333 18.118 9.6333 18.409 0 0.29095-6.0047 0.52918-13.344 0.52918-7.3391 0-13.215 0.31167-13.058 0.69278 0.157 0.38105 4.0424 7.6686 8.6343 16.195 9.8363 18.264 9.4356 16.508 3.7678 16.508h-4.5811z" fill="#e32526"/><path d="m25.002 139.66c-4.9954-3.3664-5.0375-3.644-5.0375-33.156 0-29.512 0.04217-29.789 5.0375-33.156l2.8971-1.9524h11.485l5.6907 10.566c3.1299 5.8113 5.6907 10.821 5.6907 11.132 0 0.31134-5.9415 0.56585-13.203 0.56585h-13.203l12.775 23.619c7.0263 12.991 12.775 23.78 12.775 23.976 0 0.19612-4.9523 0.35681-11.005 0.35681h-11.005z" fill="#e32526"/><path d="m113.02 141.93c-0.33092-0.33092-0.60167-16.336-0.60167-35.567v-34.965h43.335l4.528 2.2564c5.5013 2.7414 9.0419 7.3374 10.43 13.539l1.0153 4.5367-1.0925 4.6052c-0.81734 3.4452-1.9967 5.5151-4.682 8.2177l-3.5894 3.6125 2.4097 2.3087c3.2082 3.0736 3.9403 5.8587 4.4279 16.845 0.30412 6.852 0.7672 9.6465 1.7849 10.771 0.75585 0.83521 1.3743 2.1625 1.3743 2.9496v1.4311h-8.5124c-10.2 0-9.5449 0.7813-10.318-12.311-0.88887-15.058-0.92224-15.091-15.44-15.091h-9.3572l-0.23583 13.487-0.23581 13.487-7.319 0.245c-4.0255 0.13463-7.5898-0.0259-7.9207-0.35678zm39.603-42.069c8.9963-7.2848 0.91877-15.605-15.158-15.614l-8.777-0.0032v17.126h22.074z"/><path d="m78.534 141.81c-0.95167-0.65274-15.78-26.032-15.78-27.008 0-0.30422 6.3125-0.6585 14.028-0.78764l14.028-0.23463-7.2239-13.273c-3.9732-7.2999-9.156-16.837-11.517-21.193l-4.2934-7.9207h29.432l6.6488 6.6488v56.742l-2.7829 3.0297c-3.6621 3.9869-18.672 6.6484-22.539 3.9964z" fill="#e32526"/><path d="m233.52 141.7c-12.678-5.7582-11.089-25.596 2.4004-29.963 1.5426-0.49937 6.4116-1.484 10.82-2.188 8.3609-1.3352 10.395-2.2607 10.395-4.7299 0-6.5463-14.125-6.1316-15.781 0.46332l-0.52146 2.0777h-14.602l0.58272-3.2111c2.0232-11.149 9.0538-16.044 23.043-16.044 19.007 0 21.835 3.9278 21.835 30.326v17.976l1.8226 1.698c1.0598 0.98736 1.6086 2.2556 1.3113 3.0304l-0.51128 1.3324h-15.51l-0.51378-2.5689c-0.61761-3.0881-0.57783-3.0826-3.9961-0.54639-5.6978 4.2276-14.457 5.2174-20.775 2.3477zm18.553-11.46c3.5608-2.3996 5.0336-5.1659 5.0502-9.4851l0.0126-3.3027-1.3383 0.51351c-0.73604 0.28254-3.8992 1.1075-7.0292 1.8334-6.6752 1.5481-8.7584 3.1366-8.7584 6.6786 0 5.6547 6.3268 7.628 12.063 3.7623z"/><path d="m190.34 142.57c-11.86-3.8906-17.443-12.73-17.375-27.506 0.16509-35.807 47.747-37.65 49.736-1.9266l0.39317 7.0644h-35.508l0.57896 2.3548c2.0892 8.4974 12.219 11.562 17.791 5.3815l2.3427-2.5986h14.696l-0.59434 1.9266c-3.6372 11.791-19.576 19.399-32.06 15.303zm17.126-34.442c0-0.98904-1.3101-3.1084-2.9114-4.7096l-2.9114-2.9114h-3.5671c-5.4385 0-9.4485 3.4344-9.4485 8.0922v1.3269h18.838z"/></g></svg>