<?xml version="1.0" standalone="no"?>
<!DOCTYPE svg PUBLIC "-//W3C//DTD SVG 1.1//EN" "http://www.w3.org/Graphics/SVG/1.1/DTD/svg11.dtd">
<svg xmlns="http://www.w3.org/2000/svg" width="200.9600067138672" height="70.80400085449219" version="1.1" viewBox="0 0 200.96 70.804" xml:space="preserve"><g transform="translate(15.291 -194.58)" stroke-width=".23263"><g fill="#243446"><path d="m160.42 238.59c-0.0611-0.16001-0.0839-6.8335-0.0508-14.83l0.0603-14.539 3.3115-0.0646 3.3115-0.0645 0.0616 6.7329 0.0616 6.7329 9.5379-13.452 3.6639-7e-4c2.3326-4.6e-4 3.6639 0.0854 3.6639 0.23622 0 0.13038-2.0511 3.0784-4.558 6.5512-2.5069 3.4728-4.6084 6.4455-4.6699 6.6058-0.0614 0.16037 2.3036 3.8005 5.2559 8.0893 2.9523 4.2887 5.3678 7.9092 5.3678 8.0456 0 0.16495-1.2291 0.2479-3.675 0.2479h-3.675l-5.4557-8.0523-5.4557-8.0523-0.0613 8.0523-0.0611 8.0523h-3.2611c-2.3945 0-3.2907-0.0773-3.3723-0.29078z"/><path d="m111.93 224.1v-14.781l14.539 0.135 1.4636 0.67583c4.3554 2.0112 6.2294 7.317 4.2276 11.97-0.55263 1.2846-2.212 2.9976-3.4231 3.5335-0.41583 0.18402-0.75604 0.4213-0.75604 0.52727 0 0.10588 1.89 2.8606 4.1999 6.1215s4.2578 6.0798 4.3286 6.2642c0.10863 0.28318-0.43391 0.33535-3.4875 0.33535h-3.6162l-5.2624-7.81c-2.8944-4.2955-5.3143-7.9452-5.3777-8.1104-0.0876-0.22848 0.4306-0.32686 2.1656-0.41113 2.3977-0.11649 3.2904-0.41279 4.171-1.3845 0.80971-0.89355 1.0842-1.6191 1.0842-2.8659 0-1.4426-0.49234-2.4498-1.6175-3.3089-0.79988-0.61073-1.0196-0.65667-3.4897-0.72993l-2.6361-0.0781v24.699h-6.5137z"/><path d="m91.924 223.99v-14.888h17.215v5.3505h-10.701v6.5048l10.352 0.125 0.0658 2.6171 0.0658 2.6171h-10.484v7.2116h10.701v5.3505h-17.215z"/><path d="m72.931 238.76c-0.08796-0.22939-2.0756-4.8766-4.4168-10.327l-4.2568-9.9102-0.06693 10.119-0.06675 10.119-6.3973 0.1294v-29.557h9.4926l5.9525 14.895 2.9544-7.3896 2.9544-7.3896 9.586-0.1258v29.554h-6.5088l-0.06053-10.178-0.06053-10.178-4.3899 10.236c-2.4144 5.6297-4.4272 10.277-4.4727 10.327-0.04554 0.0503-0.15471-0.0962-0.24282-0.32561z"/><path d="m145.9 239.11c-4.8875-1.3167-8.4238-4.1788-10.456-8.4627-1.164-2.4539-1.4375-3.6776-1.4299-6.3971 0.0234-8.3374 6.4609-14.994 15.021-15.534 2.3795-0.14995 5.2538 0.26912 7.386 1.0766l1.3376 0.50658v3.4728c0 1.91-0.0618 3.4728-0.13752 3.4728-0.0757 0-0.56458-0.36556-1.0866-0.81235-1.594-1.3644-3.145-1.8344-6.1038-1.8497-2.4058-0.0128-2.6522 0.0309-4.1177 0.72525-2.9135 1.3802-4.8329 4.0694-5.3669 7.5191-0.79183 5.1157 2.6251 10.027 7.6236 10.957 2.6665 0.49629 5.8088-0.24719 7.9737-1.8866l1.2274-0.92946-0.0642 3.5382-0.0642 3.5381-2.0937 0.68502c-2.8421 0.92988-7.0007 1.0937-9.6494 0.38019z"/><path d="m84.014 252.02v-1.0468h2.3263v2.0937h-2.3263z"/></g><path d="m13.893 194.58c-1.5303-2e-3 -3.0466 0.22594-4.4548 0.69742-5.1138 1.7121-8.8698 6.1168-9.8083 11.504-0.21159 1.2146-0.47845 2.2727-0.59252 2.3512-0.11407 0.0785-0.86093 0.20418-1.6604 0.27879-4.3561 0.40678-8.9531 3.684-11.021 7.8578-2.9126 5.8795-1.9181 12.246 2.6375 16.89 1.5173 1.5467 2.2418 2.0854 3.8386 2.8511 1.8759 0.89954 4.4861 1.6267 5.8647 1.6358 0.54084 3e-3 0.64008 0.10365 0.64355 0.64449 0.008701 1.3779 0.7367 3.9879 1.6349 5.861 0.74956 1.5631 1.3086 2.3253 2.7339 3.7252 2.5395 2.4942 5.0532 3.747 8.4219 4.1977 0.70371 0.0942 1.3864 0.18483 1.5177 0.20129 0.68905 0.088 4.193-0.50377 5.3601-0.90532 5.2008-1.7894 9.6168-7.6032 9.6353-12.685l0.0038-0.94219 2.01-0.2901c4.907-0.70949 8.9434-3.5958 11.146-7.9702 1.1792-2.3415 1.5619-4.255 1.4383-7.1859-0.21134-5.0082-2.3555-8.8472-6.5243-11.681-1.7882-1.2156-3.7001-1.9242-6.1681-2.285l-1.9023-0.27783v-0.96675c0-1.3542-0.82633-4.1855-1.7029-5.8345-0.90422-1.7009-3.0737-4.0641-4.8035-5.2325-2.3564-1.5916-5.3274-2.435-8.249-2.4391zm-14.391 14.759h29.146v0.56605c0 1.3195-0.78099 4.1057-1.6604 5.9233-1.9329 3.9952-6.1085 7.0338-10.733 7.8096-0.96267 0.16147-0.96695 0.58875-0.0057 0.58875 1.0435 0 3.6301 0.88647 5.0095 1.7171 2.905 1.7493 4.8547 3.9116 6.1331 6.8022 0.55581 1.2568 1.2569 4.1728 1.2569 5.2268 0 0.43382-0.37855 0.4451-14.54 0.4451h-14.539v-0.88169c0-1.3916 0.62094-3.4885 1.6642-5.619 1.816-3.7088 5.7724-6.7864 9.6183-7.4816 2.2188-0.40107 2.2148-0.46442-0.07087-1.0367-3.8039-0.95235-6.7359-3.0153-8.8283-6.2115-1.3392-2.0457-2.1011-4.1515-2.3134-6.3949z" fill="#009394"/><g fill="#243446"><path d="m177.07 257.95v-7.2383l1.9774 0.143 0.0655 2.5818 0.0655 2.5818 1.079-0.54625c1.2929-0.65453 2.4135-0.68652 3.693-0.10533 1.528 0.69399 1.7271 1.378 1.7271 5.9335v3.8614h-2.0624l-0.0739-3.8595c-0.0713-3.7329-0.0918-3.874-0.62302-4.3037-0.30205-0.24432-0.87782-0.44381-1.2795-0.44334-0.9457 1e-3 -2.1957 0.76887-2.354 1.4458-0.0682 0.29186-0.14959 1.9962-0.18068 3.7875l-0.0565 3.2568-1.9774 0.143z"/><path d="m171.36 264.59c-0.55882-0.5588-0.57101-0.65076-0.57101-4.3037v-3.7327h-0.81422c-0.74958 0-0.81421-0.0554-0.81421-0.69788 0-0.6425 0.0645-0.69789 0.81421-0.69789 0.80723 0 0.81422-9e-3 0.81422-1.0241 0-0.93949 0.0605-1.0452 0.73261-1.2795 1.2686-0.44223 1.3611-0.37269 1.3611 1.0241v1.2795h1.0468c1.0081 0 1.0468 0.0258 1.0468 0.69789 0 0.67205-0.0388 0.69788-1.0468 0.69788h-1.0468v3.3594c0 2.128 0.0909 3.4156 0.24805 3.5127 0.13642 0.0843 0.60751 0.15325 1.0468 0.15325 0.75334 0 0.7988 0.045 0.7988 0.79095v0.79093h-1.5227c-1.3065 0-1.6037-0.081-2.0937-0.57099z"/><path d="m165.44 258.07v-7.0952h1.861v14.19h-1.861z"/><path d="m129.84 257.95v-7.2116h2.0937v6.281h6.5137v-6.281h2.0937v14.423h-2.0937v-6.5137h-6.5137v6.5137h-2.0937z"/><path d="m118.91 258.07v-7.0952h2.0937v14.19h-2.0937z"/><path d="m89.597 260.16v-5.0016h0.93052c0.85646 0 1.053 0.15507 0.95808 0.75604-0.04407 0.27915 0.13112 0.21067 1.0414-0.40711 1.4099-0.95674 3.7359-0.69066 4.8454 0.55428l0.4475 0.50218 0.59934-0.57158c1.215-1.1588 2.9415-1.3818 4.5753-0.59091 1.5461 0.74847 1.7235 1.3555 1.7235 5.8988v3.8614h-1.861v-3.3384c0-4.554-0.29985-5.2689-2.21-5.2689-2.0378 0-2.4426 0.88771-2.4426 5.3564v3.2777l-1.9774-0.143-0.06382-3.7679c-0.06364-3.7512-0.06656-3.77-0.67112-4.2455-1.0918-0.8588-2.9621-0.43664-3.5234 0.79532-0.17446 0.38302-0.27791 1.8609-0.27791 3.9722v3.3622h-2.0937z"/><path d="m84.247 260.16v-5.0016h2.0937v10.003h-2.0937z"/><path d="m72.383 260.16v-5.0016h1.0468c0.97973 0 1.0468 0.0399 1.0468 0.62212v0.62213l0.52341-0.49031c1.1306-1.0591 2.7015-1.2549 4.2882-0.53448 1.5521 0.70466 1.702 1.2172 1.702 5.8174v3.9663h-1.829l-0.07425-3.7428-0.07406-3.7428-0.68178-0.58588c-0.93416-0.80279-2.3001-0.63965-3.2148 0.38393-0.6376 0.71351-0.63974 0.72768-0.63974 4.2017v3.4858h-2.0937z"/><path d="m63.775 250.74c-0.48046 0-0.97408 0.13124-1.0972 0.29107-0.25265 0.32818-5.882 13.687-5.8817 13.958 1.1e-4 0.096 0.45924 0.17482 1.0206 0.17482h1.0206l0.75317-1.8673 0.75224-1.8673 3.2782 0.0643 3.2773 0.0643 1.4137 3.6042 1.1047 9.5e-4c0.60775 3.7e-4 1.1047-0.0515 1.1047-0.11528 0-0.25132-5.4363-13.744-5.6474-14.016-0.12388-0.15985-0.6186-0.29107-1.0991-0.29107zm-0.09166 2.3285 0.48762 1.3372c0.26858 0.7352 0.81066 2.2 1.2039 3.2556l0.71537 1.9193h-2.4372c-1.3402 0-2.4372-0.0828-2.4372-0.18332 0-0.10058 0.5558-1.5654 1.2342-3.2556z"/><path d="m158.44 254.94c-0.55772 5e-3 -1.1235 0.0775-1.6576 0.22585-1.0021 0.27833-2.0507 1.4133-2.0507 2.2198 0 0.4979 0.10173 0.56203 0.87225 0.55472 0.72503-7e-3 0.95155-0.13509 1.341-0.75601 0.40371-0.64358 0.61966-0.75672 1.5583-0.81743 1.362-0.088 2.044 0.47939 2.044 1.6991v0.81367h-1.6953c-2.3079 0-3.5604 0.6224-4.3149 2.1433-0.38737 0.78177-0.50022 1.2955-0.39123 1.7917 0.20527 0.93454 0.97093 1.8674 1.8456 2.2482 1.3536 0.58937 2.9822 0.32854 4.021-0.64449l0.51125-0.47912 0.15689 0.62276c0.1371 0.54556 0.25567 0.61465 0.96391 0.55284l0.80893-0.0699-0.0321-4.0239c-0.019-2.3857-0.13765-4.2542-0.29108-4.5908-0.42064-0.92324-2.0171-1.5066-3.6902-1.4903zm2.1801 5.2665-0.14741 1.0764c-0.17592 1.2835-0.52244 1.8963-1.2616 2.233-1.556 0.70898-3.1767-0.0524-3.0392-1.4279 0.10662-1.067 0.9848-1.6035 2.8719-1.7549z"/><path d="m147.38 254.97c-0.66525 6e-3 -1.073 0.13185-1.719 0.46588-1.2784 0.66114-1.9845 1.6779-2.3332 3.3576-0.58061 2.7968 0.52729 5.5366 2.5648 6.3448 0.93189 0.36971 3.2143 0.30172 4.107-0.1219 0.91197-0.43276 1.8067-1.5209 2.0308-2.4684 0.148-0.62511 0.12878-0.63977-0.89963-0.63977-0.80216 0-1.0509 0.0877-1.0509 0.3676 0 0.20177-0.3064 0.67214-0.6804 1.0461-1.5758 1.5758-4.2053 0.18807-4.2053-2.2198v-0.58873h7.0347l-0.0973-1.3504c-0.11985-1.6571-0.80741-3.0444-1.7946-3.6213-0.41858-0.24459-1.3757-0.48112-2.1877-0.54055-0.29737-0.0218-0.54748-0.0331-0.76923-0.0312zm0.41203 1.4553c1.2303-0.0135 2.2878 0.82054 2.2878 2.0252v0.66623h-4.8942l0.15215-0.63882c0.25977-1.0866 0.56132-1.4812 1.3996-1.8314 0.35221-0.14717 0.71015-0.21736 1.0546-0.22113z"/><path d="m111.94 254.93c-1.5785 0.0185-3.1525 0.60678-3.6203 1.7265-0.49975 1.196-0.44485 1.2966 0.70592 1.2966 0.88153 0 1.0471-0.072 1.0471-0.45266 0-0.64495 0.88182-1.1756 1.9524-1.1756 1.2029 0 1.769 0.52321 1.769 1.6349v0.86562l-1.958 0.10206c-1.5754 0.0827-2.1179 0.21196-2.7698 0.65868-1.0898 0.74677-1.5526 1.5998-1.5526 2.8624 0 1.2575 0.79461 2.3622 1.9382 2.6933 0.4052 0.11723 1.0816 0.22337 1.5026 0.23435 0.90653 0.0249 2.5645-0.76444 2.7868-1.3268 0.11974-0.30298 0.18613-0.23264 0.28067 0.30052 0.1068 0.60233 0.23651 0.70754 0.94502 0.76734l0.82122 0.069-0.0114-4.1401c-7e-3 -2.7676-0.10303-4.3027-0.28917-4.6306-0.57778-1.0177-2.0647-1.5029-3.5476-1.4856zm1.9136 5.3488-0.11624 1.2077c-0.0901 0.9373-0.25528 1.3276-0.73995 1.7445-1.8324 1.5762-4.7203-0.51322-3.059-2.2132 0.36881-0.37741 1.8013-0.72601 3.0136-0.73333z"/></g></g></svg>