<?xml version="1.0" standalone="no"?>
<!DOCTYPE svg PUBLIC "-//W3C//DTD SVG 1.1//EN" "http://www.w3.org/Graphics/SVG/1.1/DTD/svg11.dtd">
<svg xmlns="http://www.w3.org/2000/svg" width="792" height="324" version="1.0" viewBox="0 0 792 324" zoomAndPan="magnify">
 <defs>
  <clipPath id="fe5c305350">
   <path d="m176.33 133.3h18.668v31.699h-18.668z"/>
  </clipPath>
  <clipPath id="771499401d">
   <path d="m176.88 133.47v23.23c0 2.5 0.69141 4.457 2.0625 5.8164 1.9102 1.9102 4.6172 2.1719 7.0078 2.1719 1.3594 0 3.1719-0.12109 8.8711-0.35156v-30.867h-17.941"/>
  </clipPath>
  <clipPath id="0ba56fdb1f">
   <path d="m36 38h159v191.97h-159z"/>
  </clipPath>
  <clipPath id="18ddac5bdd">
   <path d="m156.33 174.91c-1.8008-1.8008-2.6406-4.7891-2.6406-9.4102v-32.039l-28.473 0.03125c-5.6484 0-11 0-11 5.3203 0 1.3398 0.41016 2.418 1.2227 3.2305 1.3203 1.3164 3.3281 1.5 5.1172 1.5h9.4922c6.5586 0 10.539 0.42969 12.82 2.707 2.0508 2.0508 3.0391 6.0508 3.0391 12.23 0 18.141-12.941 19.582-29.859 19.582-5.4609 0-12.59-0.54297-23.699-2l-0.94141-12.762c8.082 1.7695 14.91 2.5703 21.59 2.5703 7.0195 0 10.27-0.64062 11.992-2.3516 0.82812-0.82812 1.2695-1.8867 1.2695-3.0664 0-1.3516-0.42188-2.4531-1.25-3.2812-1.2695-1.2812-3.082-1.4492-4.6797-1.4492h-10.711c-5.9688 0-10.48-1.4922-13.422-4.4219-2.75-2.75-4.1406-6.8477-4.1406-12.199 0-6.2188 1.5234-10.762 4.6406-13.879 5.5312-5.5312 15.711-6 24.82-6l32.062 0.027344 10.797-10.109h11.941v10.129h18.5v-80.969l-101.52 0.011719c-1.6719 3.3672-2.0898 7.5391-3.7617 10.879-8.3477 19.629-33.5 28.18-53.539 28.59v49.691l31.402-0.042968v102.49l127.43 0.039063v-53.758c-9.9609 0.83984-16.902 1.8672-25.441 1.8672-6.8516 0-10.879-0.96875-13.059-3.1602"/>
  </clipPath>
  <clipPath id="8dbd1fba01">
   <path d="m213.55 36h88.449v94.562h-88.449z"/>
  </clipPath>
  <clipPath id="3eb4982b8a">
   <path d="m260.05 36.23c-22.988 0.046875-46.172 4.8672-46.172 33.398 0 20.609 14.992 25.449 29.551 25.449h10.449c5.5938 0 8.8711 0.25 8.8711 4.2227 0 3.5977-5.4883 3.7266-17.309 3.7266-9.7109 0-21-0.75-28.391-2.7266v26.066c12.66 3.2305 24.27 3.7305 38.84 3.7305 21.641 0 46.02-3.4805 46.02-32.027 0-18.871-7.5977-28.93-29.871-28.93h-10.449c-6.9609 0-8.5508-1.9922-8.5508-3.9727 0-2.8477 2.8516-4.5898 12.562-4.5898 10.867 0 26.809 2.8516 33.879 3.6016v-23.852c-11.09-2.2188-27.668-4.0703-38.758-4.0977h-0.67187"/>
  </clipPath>
  <clipPath id="e7d9f9dde7">
   <path d="m305 49.23h90.551v81.332h-90.551z"/>
  </clipPath>
  <clipPath id="7e2597608b">
   <path d="m350.36 106.87c8.6602 0 11.398-5.957 11.398-15.648s-2.7383-15.52-11.398-15.52c-8.7617 0-11.5 5.8398-11.5 15.52s2.7383 15.648 11.5 15.648m0-57.109c24.699 0 44.969 6.332 44.969 40.102 0 33.898-20.27 40.23-44.969 40.23-24.801 0-45.07-6.332-45.07-40.23 0-33.77 20.258-40.102 45.07-40.102"/>
  </clipPath>
  <clipPath id="88db0699d1">
   <path d="m400.22 52h87.781v78.562h-87.781z"/>
  </clipPath>
  <clipPath id="30112571c0">
   <path d="m487.55 99.18c0 17.629-6.9688 30.918-43.492 30.918-36.52 0-43.477-13.289-43.477-30.918v-46.809h35.777v45.688c0 4.8398 2.2227 8.8203 7.6992 8.8203 5.4805 0 7.7031-3.9688 7.7031-8.8203v-45.688h35.777l0.011719 46.809"/>
  </clipPath>
  <clipPath id="f6cc15a540">
   <path d="m493 51.23h61.883v76.664h-61.883z"/>
  </clipPath>
  <clipPath id="21730ded2d">
   <path d="m493.22 52.371h32.621v21.359h0.21875c2.6406-13.91 5.3828-22.473 18.68-22.473 4.543 0 7.293 0.37109 9.8203 0.74219v41.34h-10.348c-11.191 0-15.199 3.3477-15.199 13.289v20.859h-35.793v-75.117"/>
  </clipPath>
  <clipPath id="3e2204e07a">
   <path d="m558.88 49.23h80v81.332h-80z"/>
  </clipPath>
  <clipPath id="fb2305beb7">
   <path d="m638.7 82.91c-6.543-0.87109-16.891-2.7305-25.961-2.7305-12.141 0-16.57 3.3477-16.57 12.418 0 9.1914 6.3281 11.551 12.66 11.551 9.0781 0 20.16-2.6094 29.34-5.3398l-1.2695 26.07c-15.301 4.1016-24.699 5.2109-38.742 5.2109-25.75 0-39.16-13.66-39.16-41.84 0-28.43 19.84-38.492 41.59-38.492 19.73 0 30.082 2.3633 38.102 4.1016l0.011718 29.051"/>
  </clipPath>
  <clipPath id="e4fed52413">
   <path d="m642.22 49.23h88.781v81.332h-88.781z"/>
  </clipPath>
  <clipPath id="a803864bb1">
   <path d="m701.2 80.68c0-7.8203-2.9609-11.789-10.449-11.789-6.8594 0-11.191 3.2305-11.609 11.789h22.059m-20.578 18.129c0 9.3086 6.3281 10.672 15.727 10.672 8.9805 0 20.48-2.8516 34.203-6.2109l-7.3906 20.609c-13.512 3.9688-27.551 6.2109-37.359 6.2109-24.699 0-43.27-7.082-43.27-38.609 0-26.691 15.41-41.711 43.27-41.711 36.41 0 45.18 12.418 45.18 42.461v6.5781h-50.359"/>
  </clipPath>
  <clipPath id="1ec31aabd5">
   <path d="m216.22 140.56h99.781v89.332h-99.781z"/>
  </clipPath>
  <clipPath id="2c080520cf">
   <path d="m254.84 176.59h14.57c5.7969 0 7.5977-2.6094 7.5977-6.332 0-4.4688-1.8008-6.4492-7.0703-6.4492h-15.098v12.781m0 32.039h15.418c5.9102 0 7.3906-2.7305 7.3906-6.4609s-1.4805-6.4492-7.2812-6.4492h-15.527v12.91m-38.102-68.039h73.148c19 0 25.23 8.6875 25.23 22.23 0 15.148-11.508 21.73-23.32 22.469v0.25c12.141 1.1211 23.961 2.7305 23.961 20.609 0 11.672-6.2305 23.09-27.129 23.09h-71.891v-88.648"/>
  </clipPath>
  <clipPath id="f0508159bc">
   <path d="m317.55 153h92v78.895h-92z"/>
  </clipPath>
  <clipPath id="79aa5c4b2d">
   <path d="m352.71 195.46c0 10.312 4.0195 14.652 11.508 14.652 7.4922 0 11.5-4.3398 11.5-14.652 0-10.918-4.0078-15.398-11.5-15.398-7.4883 0-11.508 4.4688-11.508 15.398m21.961 24.961h-0.21094c-4.0117 9.1914-14.559 11.422-23.012 11.422-23.328 0-33.57-13.531-33.57-39.609 0-24.953 9.293-39.23 32.082-39.23 9.918 0 18.789 2.6094 24.488 12.418h0.21094v-11.301h34.832v75.113h-34.832l0.011719-8.8125"/>
  </clipPath>
  <clipPath id="2de41cd6f8">
   <path d="m416.22 153h90.664v76.23h-90.664z"/>
  </clipPath>
  <clipPath id="617eb76913">
   <path d="m416.45 154.12h33.039v14.652h0.21094c6.3398-9.9297 14.668-15.77 28.5-15.77 13.09 0 28.598 3.5977 28.598 28.059v48.172h-35.777v-34.883c0-9.0586-3.0625-12.047-9.1797-12.047-5.9102 0-9.6016 2.9766-9.6016 9.5586v37.371h-35.789v-75.113"/>
  </clipPath>
  <clipPath id="def0f3cbef">
   <path d="m513.55 136h92.668v93.23h-92.668z"/>
  </clipPath>
  <clipPath id="6d8b4a1b72">
   <path d="m513.84 136.49h35.777v48.672h0.32031l13.398-31.043h42.852l-24.801 38.863 20.27 36.25h-38.32l-13.398-26.082h-0.32031v26.082h-35.777v-92.742"/>
  </clipPath>
  <clipPath id="6ce4ca614e">
   <path d="m736 106h20v20h-20z"/>
  </clipPath>
  <clipPath id="382a586761">
   <path d="m746.38 112.02c1.1914 0 2.4609 0.25781 2.4609 1.6602 0 1.7305-1.2891 1.8398-2.7422 1.8398h-2.0391v-3.5h2.3203m-4.0312-1.4492v11.27h1.7031v-4.8906h1.9688l2.9688 4.8906h1.9102l-3.1992-4.9609c1.6484-0.21094 2.9219-1.0898 2.9219-3.1016 0-2.2188-1.3203-3.207-3.9805-3.207h-4.293m3.7734-2.5117c4.418 0 7.9102 3.4922 7.9102 8.1211 0 4.7109-3.4922 8.168-7.9102 8.168-4.4727 0-7.9609-3.457-7.9609-8.168 0-4.6289 3.4883-8.1211 7.9609-8.1211m0-1.6289c-5.3828 0-9.9297 4.1289-9.9297 9.75 0 5.6602 4.5469 9.8008 9.9297 9.8008 5.3203 0 9.8594-4.1211 9.8672-9.7695v-0.050782c-0.007813-5.6016-4.5586-9.7227-9.8672-9.7227v-0.007812"/>
  </clipPath>
 </defs>
 <g clip-path="url(#fe5c305350)">
  <g clip-path="url(#771499401d)">
   <path d="m31 33.301h168.67v201.33h-168.67z" fill="#d14827"/>
  </g>
 </g>
 <g clip-path="url(#0ba56fdb1f)">
  <g clip-path="url(#18ddac5bdd)">
   <path d="m31 33.301h168.67v201.33h-168.67z" fill="#d14827"/>
  </g>
 </g>
 <g clip-path="url(#8dbd1fba01)">
  <g clip-path="url(#3eb4982b8a)">
   <path d="m208.88 31.23h552v205.33h-552z" fill="#d14827"/>
  </g>
 </g>
 <g clip-path="url(#e7d9f9dde7)">
  <g clip-path="url(#7e2597608b)">
   <path d="m208.88 31.23h552v205.33h-552z" fill="#d14827"/>
  </g>
 </g>
 <g clip-path="url(#88db0699d1)">
  <g clip-path="url(#30112571c0)">
   <path d="m208.88 31.23h552v205.33h-552z" fill="#d14827"/>
  </g>
 </g>
 <g clip-path="url(#f6cc15a540)">
  <g clip-path="url(#21730ded2d)">
   <path d="m208.88 31.23h552v205.33h-552z" fill="#d14827"/>
  </g>
 </g>
 <g clip-path="url(#3e2204e07a)">
  <g clip-path="url(#fb2305beb7)">
   <path d="m208.88 31.23h552v205.33h-552z" fill="#d14827"/>
  </g>
 </g>
 <g clip-path="url(#e4fed52413)">
  <g clip-path="url(#a803864bb1)">
   <path d="m208.88 31.23h552v205.33h-552z" fill="#d14827"/>
  </g>
 </g>
 <g clip-path="url(#1ec31aabd5)">
  <g clip-path="url(#2c080520cf)">
   <path d="m208.88 31.23h552v205.33h-552z" fill="#d14827"/>
  </g>
 </g>
 <g clip-path="url(#f0508159bc)">
  <g clip-path="url(#79aa5c4b2d)">
   <path d="m208.88 31.23h552v205.33h-552z" fill="#d14827"/>
  </g>
 </g>
 <g clip-path="url(#2de41cd6f8)">
  <g clip-path="url(#617eb76913)">
   <path d="m208.88 31.23h552v205.33h-552z" fill="#d14827"/>
  </g>
 </g>
 <g clip-path="url(#def0f3cbef)">
  <g clip-path="url(#6d8b4a1b72)">
   <path d="m208.88 31.23h552v205.33h-552z" fill="#d14827"/>
  </g>
 </g>
 <g clip-path="url(#6ce4ca614e)">
  <g clip-path="url(#382a586761)">
   <path d="m208.88 31.23h552v205.33h-552z" fill="#d14827"/>
  </g>
 </g>
 <g fill="#231f20">
  <g transform="translate(159.36 287.94)">
   <path d="m2.7656 0v-2.4531h6.0938v-19.422l-6.0312 3.9219-1.1875-1.9219 6.9375-4.5625h3.0781v21.984h5.5938v2.4531z"/>
  </g>
  <g transform="translate(178.68 287.94)">
   <path d="m7.6719 0.42188c-1.5 0-2.7812-0.30469-3.8438-0.90625-1.0625-0.61328-1.9648-1.457-2.7031-2.5312l1.8438-1.5312c0.63281 0.88672 1.3164 1.5625 2.0469 2.0312 0.73828 0.46875 1.625 0.70312 2.6562 0.70312 1.0391 0 1.8672-0.25781 2.4844-0.78125 0.625-0.53125 0.9375-1.2852 0.9375-2.2656 0-0.80078-0.19922-1.4453-0.59375-1.9375-0.39844-0.48828-1.1328-0.82812-2.2031-1.0156l-1.3594-0.23438c-1.75-0.33203-3.0547-0.87891-3.9062-1.6406-0.85547-0.76953-1.2812-1.9375-1.2812-3.5 0-0.91406 0.14062-1.707 0.42188-2.375 0.28125-0.66406 0.67578-1.2109 1.1875-1.6406 0.50781-0.42578 1.1172-0.73828 1.8281-0.9375 0.71875-0.19531 1.5-0.29688 2.3438-0.29688 1.3516 0 2.4883 0.24219 3.4062 0.71875 0.91406 0.46875 1.7109 1.1641 2.3906 2.0781l-1.7031 1.5781c-0.39844-0.5625-0.92188-1.0547-1.5781-1.4844-0.65625-0.4375-1.4961-0.65625-2.5156-0.65625-2.125 0-3.1875 0.96875-3.1875 2.9062 0 0.88672 0.22266 1.5312 0.67188 1.9375 0.45703 0.40625 1.2031 0.70312 2.2344 0.89062l1.3594 0.25c1.8438 0.32422 3.1484 0.89844 3.9219 1.7188 0.76953 0.8125 1.1562 1.918 1.1562 3.3125 0 1.75-0.51172 3.125-1.5312 4.125-1.0117 0.99219-2.5078 1.4844-4.4844 1.4844z"/>
  </g>
  <g transform="translate(194.46 287.94)">
   <path d="m6.2969 0c-0.96094 0-1.6562-0.21094-2.0938-0.64062-0.42969-0.4375-0.64062-1.1328-0.64062-2.0938v-12.984h-2.6562v-2.3438h1.5781c0.53906 0 0.89453-0.12891 1.0625-0.39062 0.17578-0.26953 0.26562-0.67578 0.26562-1.2188v-3.3594h2.4219v4.9688h3.5v2.3438h-3.5v13.375h3.3281v2.3438z"/>
  </g>
  <g transform="translate(206 287.94)">
   <path d="m7.6719 0.42188c-1.5 0-2.7812-0.30469-3.8438-0.90625-1.0625-0.61328-1.9648-1.457-2.7031-2.5312l1.8438-1.5312c0.63281 0.88672 1.3164 1.5625 2.0469 2.0312 0.73828 0.46875 1.625 0.70312 2.6562 0.70312 1.0391 0 1.8672-0.25781 2.4844-0.78125 0.625-0.53125 0.9375-1.2852 0.9375-2.2656 0-0.80078-0.19922-1.4453-0.59375-1.9375-0.39844-0.48828-1.1328-0.82812-2.2031-1.0156l-1.3594-0.23438c-1.75-0.33203-3.0547-0.87891-3.9062-1.6406-0.85547-0.76953-1.2812-1.9375-1.2812-3.5 0-0.91406 0.14062-1.707 0.42188-2.375 0.28125-0.66406 0.67578-1.2109 1.1875-1.6406 0.50781-0.42578 1.1172-0.73828 1.8281-0.9375 0.71875-0.19531 1.5-0.29688 2.3438-0.29688 1.3516 0 2.4883 0.24219 3.4062 0.71875 0.91406 0.46875 1.7109 1.1641 2.3906 2.0781l-1.7031 1.5781c-0.39844-0.5625-0.92188-1.0547-1.5781-1.4844-0.65625-0.4375-1.4961-0.65625-2.5156-0.65625-2.125 0-3.1875 0.96875-3.1875 2.9062 0 0.88672 0.22266 1.5312 0.67188 1.9375 0.45703 0.40625 1.2031 0.70312 2.2344 0.89062l1.3594 0.25c1.8438 0.32422 3.1484 0.89844 3.9219 1.7188 0.76953 0.8125 1.1562 1.918 1.1562 3.3125 0 1.75-0.51172 3.125-1.5312 4.125-1.0117 0.99219-2.5078 1.4844-4.4844 1.4844z"/>
  </g>
  <g transform="translate(221.79 287.94)">
   <path d="m8.8125 0.42188c-1.043 0-2.0234-0.17188-2.9375-0.51562-0.90625-0.35156-1.6875-0.91406-2.3438-1.6875-0.64844-0.76953-1.1562-1.75-1.5312-2.9375-0.375-1.1953-0.5625-2.6328-0.5625-4.3125 0-1.6758 0.1875-3.1094 0.5625-4.2969 0.375-1.1953 0.88281-2.1797 1.5312-2.9531 0.65625-0.76953 1.4375-1.3281 2.3438-1.6719 0.91406-0.35156 1.8945-0.53125 2.9375-0.53125 1.0508 0 2.0312 0.17969 2.9375 0.53125 0.91406 0.34375 1.6953 0.90234 2.3438 1.6719 0.65625 0.77344 1.1719 1.7578 1.5469 2.9531 0.375 1.1875 0.5625 2.6211 0.5625 4.2969 0 1.6797-0.1875 3.1172-0.5625 4.3125-0.375 1.1875-0.89062 2.168-1.5469 2.9375-0.64844 0.77344-1.4297 1.3359-2.3438 1.6875-0.90625 0.34375-1.8867 0.51562-2.9375 0.51562zm0-2.375c1.4453 0 2.5625-0.42969 3.3438-1.2969 0.78125-0.86328 1.1719-2.1797 1.1719-3.9531v-3.6406c0-1.7812-0.39062-3.0977-1.1719-3.9531-0.78125-0.86328-1.8984-1.2969-3.3438-1.2969-1.4375 0-2.5469 0.43359-3.3281 1.2969-0.78125 0.85547-1.1719 2.1719-1.1719 3.9531v3.6406c0 1.7734 0.39062 3.0898 1.1719 3.9531 0.78125 0.86719 1.8906 1.2969 3.3281 1.2969z"/>
  </g>
  <g transform="translate(239.84 287.94)">
   <path d="m12.641-2.9375h-0.35938c-0.34375 1.1172-0.88672 1.9531-1.625 2.5156-0.73047 0.5625-1.7266 0.84375-2.9844 0.84375-1.6172 0-2.8867-0.54688-3.8125-1.6406-0.91797-1.1016-1.375-2.7969-1.375-5.0781v-11.766h2.6562v11.594c0 1.4375 0.29688 2.543 0.89062 3.3125 0.60156 0.77344 1.5195 1.1562 2.75 1.1562 1.0703 0 1.9844-0.32031 2.7344-0.96875 0.75-0.65625 1.125-1.5781 1.125-2.7656v-12.328h2.6562v18.062h-2.6562z"/>
  </g>
  <g transform="translate(258.21 287.94)">
   <path d="m2.6562 0v-18.062h2.6562v3.3594h0.35938c0.30078-1.0508 0.81641-1.875 1.5469-2.4688 0.73828-0.59375 1.7031-0.89062 2.8906-0.89062h0.98438v2.7031h-1.75c-1.2617 0-2.25 0.28125-2.9688 0.84375-0.71094 0.55469-1.0625 1.3906-1.0625 2.5156v12z"/>
  </g>
  <g transform="translate(270.25 287.94)">
   <path d="m8.6094 0.42188c-2.2422 0-3.9961-0.73438-5.2656-2.2031-1.2734-1.4688-1.9062-3.8828-1.9062-7.25 0-3.3516 0.63281-5.7656 1.9062-7.2344 1.2695-1.4766 3.0234-2.2188 5.2656-2.2188 1.707 0 3.0664 0.39062 4.0781 1.1719 1.0078 0.78125 1.75 1.7812 2.2188 3l-2.2031 1.125c-0.30469-0.9375-0.78125-1.6562-1.4375-2.1562-0.64844-0.5-1.5312-0.75-2.6562-0.75-1.4688 0-2.5547 0.43359-3.25 1.2969-0.69922 0.85547-1.0469 2.1719-1.0469 3.9531v3.6406c0 1.7734 0.34766 3.0898 1.0469 3.9531 0.69531 0.86719 1.7812 1.2969 3.25 1.2969 1.1641 0 2.1016-0.25391 2.8125-0.76562 0.71875-0.51953 1.2852-1.3047 1.7031-2.3594l1.9531 1.375c-0.53125 1.2617-1.3398 2.2656-2.4219 3.0156-1.0859 0.73828-2.4336 1.1094-4.0469 1.1094z"/>
  </g>
  <g transform="translate(286.56 287.94)">
   <path d="m8.8125 0.42188c-1.043 0-2.0234-0.17188-2.9375-0.51562-0.90625-0.35156-1.6875-0.91406-2.3438-1.6875-0.64844-0.76953-1.1562-1.75-1.5312-2.9375-0.375-1.1953-0.5625-2.6328-0.5625-4.3125 0-1.6758 0.1875-3.1094 0.5625-4.2969 0.375-1.1953 0.88281-2.1797 1.5312-2.9531 0.65625-0.76953 1.4375-1.3281 2.3438-1.6719 0.91406-0.35156 1.8945-0.53125 2.9375-0.53125 1.0508 0 2.0156 0.17969 2.8906 0.53125 0.875 0.34375 1.6133 0.90234 2.2188 1.6719 0.61328 0.77344 1.0859 1.7578 1.4219 2.9531 0.34375 1.1875 0.51562 2.6211 0.51562 4.2969v0.67188h-11.594v1.1562c0 1.7734 0.39844 3.0938 1.2031 3.9688 0.8125 0.875 1.9258 1.3125 3.3438 1.3125 1.2188 0 2.2109-0.25781 2.9844-0.78125 0.76953-0.53125 1.375-1.3203 1.8125-2.375l1.8281 1.3281c-0.5625 1.2422-1.3867 2.2461-2.4688 3.0156-1.0859 0.76953-2.4688 1.1562-4.1562 1.1562zm0-16.656c-1.4375 0-2.5586 0.45312-3.3594 1.3594-0.79297 0.90625-1.1875 2.25-1.1875 4.0312v0.45312h8.75v-0.45312c0-3.5938-1.4023-5.3906-4.2031-5.3906z"/>
  </g>
  <g transform="translate(304.3 287.94)">
   <path d="m4.3438 0.42188c-1.375 0-2.0625-0.59375-2.0625-1.7812v-0.5625c0-1.1875 0.6875-1.7812 2.0625-1.7812s2.0625 0.59375 2.0625 1.7812v0.5625c0 1.1875-0.6875 1.7812-2.0625 1.7812z"/>
  </g>
  <g transform="translate(313.4 287.94)">
   <path d="m8.6094 0.42188c-2.2422 0-3.9961-0.73438-5.2656-2.2031-1.2734-1.4688-1.9062-3.8828-1.9062-7.25 0-3.3516 0.63281-5.7656 1.9062-7.2344 1.2695-1.4766 3.0234-2.2188 5.2656-2.2188 1.707 0 3.0664 0.39062 4.0781 1.1719 1.0078 0.78125 1.75 1.7812 2.2188 3l-2.2031 1.125c-0.30469-0.9375-0.78125-1.6562-1.4375-2.1562-0.64844-0.5-1.5312-0.75-2.6562-0.75-1.4688 0-2.5547 0.43359-3.25 1.2969-0.69922 0.85547-1.0469 2.1719-1.0469 3.9531v3.6406c0 1.7734 0.34766 3.0898 1.0469 3.9531 0.69531 0.86719 1.7812 1.2969 3.25 1.2969 1.1641 0 2.1016-0.25391 2.8125-0.76562 0.71875-0.51953 1.2852-1.3047 1.7031-2.3594l1.9531 1.375c-0.53125 1.2617-1.3398 2.2656-2.4219 3.0156-1.0859 0.73828-2.4336 1.1094-4.0469 1.1094z"/>
  </g>
  <g transform="translate(329.7 287.94)">
   <path d="m8.8125 0.42188c-1.043 0-2.0234-0.17188-2.9375-0.51562-0.90625-0.35156-1.6875-0.91406-2.3438-1.6875-0.64844-0.76953-1.1562-1.75-1.5312-2.9375-0.375-1.1953-0.5625-2.6328-0.5625-4.3125 0-1.6758 0.1875-3.1094 0.5625-4.2969 0.375-1.1953 0.88281-2.1797 1.5312-2.9531 0.65625-0.76953 1.4375-1.3281 2.3438-1.6719 0.91406-0.35156 1.8945-0.53125 2.9375-0.53125 1.0508 0 2.0312 0.17969 2.9375 0.53125 0.91406 0.34375 1.6953 0.90234 2.3438 1.6719 0.65625 0.77344 1.1719 1.7578 1.5469 2.9531 0.375 1.1875 0.5625 2.6211 0.5625 4.2969 0 1.6797-0.1875 3.1172-0.5625 4.3125-0.375 1.1875-0.89062 2.168-1.5469 2.9375-0.64844 0.77344-1.4297 1.3359-2.3438 1.6875-0.90625 0.34375-1.8867 0.51562-2.9375 0.51562zm0-2.375c1.4453 0 2.5625-0.42969 3.3438-1.2969 0.78125-0.86328 1.1719-2.1797 1.1719-3.9531v-3.6406c0-1.7812-0.39062-3.0977-1.1719-3.9531-0.78125-0.86328-1.8984-1.2969-3.3438-1.2969-1.4375 0-2.5469 0.43359-3.3281 1.2969-0.78125 0.85547-1.1719 2.1719-1.1719 3.9531v3.6406c0 1.7734 0.39062 3.0898 1.1719 3.9531 0.78125 0.86719 1.8906 1.2969 3.3281 1.2969z"/>
  </g>
  <g transform="translate(347.76 287.94)">
   <path d="m2.6562 0v-18.062h2.6562v2.9375h0.35938c0.34375-1.1133 0.85156-1.9531 1.5312-2.5156 0.67578-0.5625 1.6328-0.84375 2.875-0.84375 1.125 0 2.0781 0.27734 2.8594 0.82812 0.78125 0.55469 1.3672 1.3984 1.7656 2.5312h0.34375c0.375-1.1133 0.95703-1.9531 1.75-2.5156 0.78906-0.5625 1.8438-0.84375 3.1562-0.84375 1.5391 0 2.7734 0.55469 3.7031 1.6562 0.9375 1.0938 1.4062 2.7812 1.4062 5.0625v11.766h-2.6562v-11.578c0-1.4453-0.28906-2.5547-0.85938-3.3281-0.57422-0.76953-1.4531-1.1562-2.6406-1.1562-1.0547 0-1.9375 0.32812-2.6562 0.98438-0.71094 0.64844-1.0625 1.5703-1.0625 2.7656v12.312h-2.6562v-11.578c0-1.4453-0.28906-2.5547-0.85938-3.3281-0.57422-0.76953-1.4531-1.1562-2.6406-1.1562-1.0547 0-1.9375 0.32812-2.6562 0.98438-0.71094 0.64844-1.0625 1.5703-1.0625 2.7656v12.312z"/>
  </g>
  <g transform="translate(375.72 287.94)"/>
  <g transform="translate(383.56 287.94)">
   <path d="m3.9219 4.8281v-31.422h2.2344v31.422z"/>
  </g>
  <g transform="translate(394.05 287.94)"/>
  <g transform="translate(401.89 287.94)">
   <path d="m19.953-16.766 0.23438-4.2031h-0.34375l-1.8125 4.2031-5.25 10.781-5.25-10.781-1.8281-4.125h-0.34375l0.23438 4.125v16.766h-2.7188v-24.438h3.7031l4.4062 9.5 1.6562 4.5h0.28125l1.6406-4.5 4.4062-9.5h3.7188v24.438h-2.7344z"/>
  </g>
  <g transform="translate(427.86 287.94)">
   <path d="m8.8125 0.42188c-1.043 0-2.0234-0.17188-2.9375-0.51562-0.90625-0.35156-1.6875-0.91406-2.3438-1.6875-0.64844-0.76953-1.1562-1.75-1.5312-2.9375-0.375-1.1953-0.5625-2.6328-0.5625-4.3125 0-1.6758 0.1875-3.1094 0.5625-4.2969 0.375-1.1953 0.88281-2.1797 1.5312-2.9531 0.65625-0.76953 1.4375-1.3281 2.3438-1.6719 0.91406-0.35156 1.8945-0.53125 2.9375-0.53125 1.0508 0 2.0156 0.17969 2.8906 0.53125 0.875 0.34375 1.6133 0.90234 2.2188 1.6719 0.61328 0.77344 1.0859 1.7578 1.4219 2.9531 0.34375 1.1875 0.51562 2.6211 0.51562 4.2969v0.67188h-11.594v1.1562c0 1.7734 0.39844 3.0938 1.2031 3.9688 0.8125 0.875 1.9258 1.3125 3.3438 1.3125 1.2188 0 2.2109-0.25781 2.9844-0.78125 0.76953-0.53125 1.375-1.3203 1.8125-2.375l1.8281 1.3281c-0.5625 1.2422-1.3867 2.2461-2.4688 3.0156-1.0859 0.76953-2.4688 1.1562-4.1562 1.1562zm0-16.656c-1.4375 0-2.5586 0.45312-3.3594 1.3594-0.79297 0.90625-1.1875 2.25-1.1875 4.0312v0.45312h8.75v-0.45312c0-3.5938-1.4023-5.3906-4.2031-5.3906z"/>
  </g>
  <g transform="translate(445.6 287.94)">
   <path d="m2.6562 0v-18.062h2.6562v2.9375h0.35938c0.34375-1.1133 0.85156-1.9531 1.5312-2.5156 0.67578-0.5625 1.6328-0.84375 2.875-0.84375 1.125 0 2.0781 0.27734 2.8594 0.82812 0.78125 0.55469 1.3672 1.3984 1.7656 2.5312h0.34375c0.375-1.1133 0.95703-1.9531 1.75-2.5156 0.78906-0.5625 1.8438-0.84375 3.1562-0.84375 1.5391 0 2.7734 0.55469 3.7031 1.6562 0.9375 1.0938 1.4062 2.7812 1.4062 5.0625v11.766h-2.6562v-11.578c0-1.4453-0.28906-2.5547-0.85938-3.3281-0.57422-0.76953-1.4531-1.1562-2.6406-1.1562-1.0547 0-1.9375 0.32812-2.6562 0.98438-0.71094 0.64844-1.0625 1.5703-1.0625 2.7656v12.312h-2.6562v-11.578c0-1.4453-0.28906-2.5547-0.85938-3.3281-0.57422-0.76953-1.4531-1.1562-2.6406-1.1562-1.0547 0-1.9375 0.32812-2.6562 0.98438-0.71094 0.64844-1.0625 1.5703-1.0625 2.7656v12.312z"/>
  </g>
  <g transform="translate(473.56 287.94)">
   <path d="m2.6562-25.906h2.6562v10.781h0.35938c0.34375-1.1875 0.90625-2.0391 1.6875-2.5625 0.78906-0.53125 1.7422-0.79688 2.8594-0.79688 1.0703 0 2.0156 0.22656 2.8281 0.67188 0.82031 0.4375 1.5078 1.0703 2.0625 1.8906 0.5625 0.8125 0.98438 1.8047 1.2656 2.9688 0.28125 1.168 0.42188 2.4766 0.42188 3.9219 0 1.4492-0.14062 2.7578-0.42188 3.9219-0.28125 1.168-0.70312 2.1641-1.2656 2.9844-0.55469 0.8125-1.2422 1.4453-2.0625 1.8906-0.8125 0.4375-1.7578 0.65625-2.8281 0.65625-1.1172 0-2.0703-0.26172-2.8594-0.78125-0.78125-0.53125-1.3438-1.3906-1.6875-2.5781h-0.35938v2.9375h-2.6562zm6.7656 23.953c1.4688 0 2.5859-0.45703 3.3594-1.375 0.76953-0.92578 1.1562-2.2188 1.1562-3.875v-3.6406c0-1.6562-0.38672-2.9414-1.1562-3.8594-0.77344-0.92578-1.8906-1.3906-3.3594-1.3906-0.5625 0-1.1016 0.085938-1.6094 0.25-0.5 0.15625-0.93359 0.38672-1.2969 0.6875-0.35547 0.30469-0.64844 0.66797-0.875 1.0938-0.21875 0.41797-0.32812 0.88281-0.32812 1.3906v7.2812c0 0.51172 0.10938 0.98047 0.32812 1.4062 0.22656 0.41797 0.51953 0.77734 0.875 1.0781 0.36328 0.30469 0.79688 0.53906 1.2969 0.70312 0.50781 0.16797 1.0469 0.25 1.6094 0.25z"/>
  </g>
  <g transform="translate(492.31 287.94)">
   <path d="m8.8125 0.42188c-1.043 0-2.0234-0.17188-2.9375-0.51562-0.90625-0.35156-1.6875-0.91406-2.3438-1.6875-0.64844-0.76953-1.1562-1.75-1.5312-2.9375-0.375-1.1953-0.5625-2.6328-0.5625-4.3125 0-1.6758 0.1875-3.1094 0.5625-4.2969 0.375-1.1953 0.88281-2.1797 1.5312-2.9531 0.65625-0.76953 1.4375-1.3281 2.3438-1.6719 0.91406-0.35156 1.8945-0.53125 2.9375-0.53125 1.0508 0 2.0156 0.17969 2.8906 0.53125 0.875 0.34375 1.6133 0.90234 2.2188 1.6719 0.61328 0.77344 1.0859 1.7578 1.4219 2.9531 0.34375 1.1875 0.51562 2.6211 0.51562 4.2969v0.67188h-11.594v1.1562c0 1.7734 0.39844 3.0938 1.2031 3.9688 0.8125 0.875 1.9258 1.3125 3.3438 1.3125 1.2188 0 2.2109-0.25781 2.9844-0.78125 0.76953-0.53125 1.375-1.3203 1.8125-2.375l1.8281 1.3281c-0.5625 1.2422-1.3867 2.2461-2.4688 3.0156-1.0859 0.76953-2.4688 1.1562-4.1562 1.1562zm0-16.656c-1.4375 0-2.5586 0.45312-3.3594 1.3594-0.79297 0.90625-1.1875 2.25-1.1875 4.0312v0.45312h8.75v-0.45312c0-3.5938-1.4023-5.3906-4.2031-5.3906z"/>
  </g>
  <g transform="translate(510.05 287.94)">
   <path d="m2.6562 0v-18.062h2.6562v3.3594h0.35938c0.30078-1.0508 0.81641-1.875 1.5469-2.4688 0.73828-0.59375 1.7031-0.89062 2.8906-0.89062h0.98438v2.7031h-1.75c-1.2617 0-2.25 0.28125-2.9688 0.84375-0.71094 0.55469-1.0625 1.3906-1.0625 2.5156v12z"/>
  </g>
  <g transform="translate(522.09 287.94)"/>
  <g transform="translate(529.93 287.94)">
   <path d="m2.9062 0v-24.438h13.188v2.4531h-10.391v8.4062h9.4531v2.4531h-9.4531v11.125z"/>
  </g>
  <g transform="translate(548.02 287.94)">
   <path d="m2.9062-24.438h7.6562c2.832 0 5.0156 0.98047 6.5469 2.9375 1.5391 1.9492 2.3125 5.043 2.3125 9.2812 0 4.25-0.77344 7.3516-2.3125 9.2969-1.5312 1.9492-3.7148 2.9219-6.5469 2.9219h-7.6562zm7.6562 21.984c1.75 0 3.1602-0.60156 4.2344-1.8125 1.082-1.2188 1.625-2.957 1.625-5.2188v-5.4531c0-2.2695-0.54297-4.0078-1.625-5.2188-1.0742-1.2188-2.4844-1.8281-4.2344-1.8281h-4.8594v19.531z"/>
  </g>
  <g transform="translate(569.68 287.94)">
   <path d="m1.8594 0v-2.3125h3.0781v-19.812h-3.0781v-2.3125h8.9531v2.3125h-3.0781v19.812h3.0781v2.3125z"/>
  </g>
  <g transform="translate(582.77 287.94)">
   <path d="m10.672 0.42188c-1.375 0-2.6172-0.25-3.7188-0.75-1.0938-0.5-2.0234-1.2656-2.7812-2.2969-0.75-1.0312-1.3359-2.3438-1.75-3.9375-0.40625-1.5938-0.60938-3.4766-0.60938-5.6562 0-2.1641 0.20312-4.0469 0.60938-5.6406 0.41406-1.6016 1-2.9141 1.75-3.9375 0.75781-1.0312 1.6875-1.7969 2.7812-2.2969 1.1016-0.5 2.3438-0.75 3.7188-0.75 2.0078 0 3.6172 0.42969 4.8281 1.2812 1.2188 0.84375 2.1758 2.1406 2.875 3.8906l-2.2344 1.3594c-0.44922-1.3203-1.0898-2.3281-1.9219-3.0156-0.82422-0.6875-2.0078-1.0312-3.5469-1.0312-1.8672 0-3.3086 0.67188-4.3281 2.0156-1.0117 1.3359-1.5156 3.1367-1.5156 5.4062v5.4531c0 2.2617 0.50391 4.0625 1.5156 5.4062 1.0195 1.3438 2.4609 2.0156 4.3281 2.0156 1.5938 0 2.8164-0.36328 3.6719-1.0938 0.86328-0.73828 1.5195-1.8125 1.9688-3.2188l2.2344 1.4062c-0.69922 1.75-1.6836 3.0898-2.9531 4.0156-1.2734 0.91797-2.9141 1.375-4.9219 1.375z"/>
  </g>
 </g>
</svg>