<?xml version="1.0" encoding="UTF-8"?><svg id="Layer_1" xmlns="http://www.w3.org/2000/svg" viewBox="0 0 699.53 159.86"><defs><style>.cls-1{fill-rule:evenodd;}.cls-1,.cls-2{fill:#5e9732;}.cls-3{fill:#221f1f;}</style></defs><g><g><path d="m228.41,20.54c-2.58-.67-6.06-1.23-9.21-1.23-5.61,0-9.77,2.13-10.44,7.3l-1.46,11.57h16.62l-1.12,9.88h-16.62l-9.92,83.65-10.38-10.35,8.96-73.3h-19.65l9.87-9.89h10.9l1.46-11.78c1.46-11.34,8.42-17.74,23.02-17.74,2.13,0,6.85.34,9.21,1.12l-1.24,10.78v-.01Z"/><path d="m261.43,94.32l-.79-3.14c-5.39,2.81-10.56,4.6-15.95,4.6-18.98,0-22.91-11.91-20.77-29.54,2.13-17.63,8.99-29.53,27.96-29.53,5.39,0,10.1,1.79,14.82,4.6l1.46-3.15h7.53l-6.74,56.15h-7.52v.01Zm1.57-44.24c-3.15-1.57-6.96-2.69-12.47-2.69-11,0-13.7,8.76-14.93,18.87-1.24,10.11-.68,18.87,10.33,18.87,5.5,0,9.66-1.12,13.03-2.69l4.04-32.34v-.02Z"/><path d="m317.83,49.06c-2.69-1.01-5.95-1.68-8.2-1.68-5.95,0-9.88,1.23-13.25,2.69l-5.39,44.24h-11.57l6.74-56.15h7.75l.79,3.15c5.16-3.03,10.78-4.6,16.28-4.6,2.47,0,5.84.34,8.2.9l-1.35,11.46v-.01Z"/><path d="m384.56,36.71c14.04,0,19.2,6.96,17.86,18.08l-4.72,39.53h-11.57l4.72-38.74c.68-5.5-1.91-8.2-7.63-8.2-5.28,0-9.55,1.24-12.69,2.69-.22.11-.34.11-.45.22.11,1.35,0,2.92-.22,4.5l-4.72,39.53h-11.57l4.72-38.74c.67-5.5-1.91-8.2-7.64-8.2-5.28,0-9.55,1.24-12.69,2.69l-5.39,44.25h-11.57l6.74-56.15h7.75l.79,3.15c4.94-2.92,11-4.6,15.72-4.6,7.52,0,12.46,2.02,15.27,5.62.56-.34,1.12-.68,1.57-1.01,4.94-2.92,11-4.6,15.72-4.6"/><path d="m443.7,36.71c5.28,0,11.79.22,17.63,2.69v10.56c-5.5-1.79-10.78-2.58-17.74-2.58-11.57,0-15.16,9.55-15.16,18.87s3.59,18.87,15.16,18.87c6.96,0,12.24-.79,17.74-2.58v10.56c-5.84,2.47-12.36,2.69-17.63,2.69-19.09,0-26.73-13.36-26.73-29.53s7.64-29.54,26.73-29.54"/><path d="m493.77,73.77h-12.58v20.55h-11.12v-56.15h24.49c14.49,0,19.31,7.64,19.31,17.74,0,6.85-2.92,12.91-8.99,15.94l13.03,22.46h-13.47l-10.67-20.55v.01Zm.34-25.04h-12.91v14.6h12.91c6.85,0,8.09-3.26,8.09-7.3s-1.24-7.3-8.09-7.3"/><polygon points="564.46 70.85 536.95 70.85 536.95 83.76 568.17 83.76 568.17 94.32 525.83 94.32 525.83 38.17 568.17 38.17 568.17 48.72 536.95 48.72 536.95 60.29 564.46 60.29 564.46 70.85"/><path d="m578.06,94.32v-56.15h19.65c19.43,0,27.29,10.9,27.29,28.08s-7.86,28.08-27.29,28.08h-19.65v-.01Zm19.76-10.56c12.36,0,16.06-6.96,16.06-17.52s-3.71-17.52-16.06-17.52h-8.76v35.04h8.76Z"/><rect x="633.74" y="38.17" width="11" height="56.15"/><polygon points="682.12 48.71 682.12 94.31 670.56 94.31 670.56 48.71 653.14 48.71 653.14 38.15 699.53 38.15 699.53 48.71 682.12 48.71"/></g><g><polygon class="cls-3" points="236.65 147.49 229.82 129.14 227.33 151.69 220.43 151.69 224.7 116.12 232.45 116.12 240.56 138.24 253.93 116.12 261.68 116.12 257.41 151.69 250.52 151.69 253.43 129.14 242.2 147.49 236.65 147.49"/><polygon class="cls-3" points="270.43 151.69 274.69 116.12 281.66 116.12 277.39 151.69 270.43 151.69"/><path class="cls-3" d="m291.47,151.69l4.26-35.57h12.45c12.3,0,16.5,6.9,15.15,17.78s-7.11,17.79-19.42,17.79h-12.45.01Zm13.3-6.69c7.82,0,10.74-4.41,11.52-11.1s-.99-11.1-8.82-11.1h-5.55l-2.7,22.19h5.55v.01Z"/><polygon class="cls-3" points="348.31 137.38 329.1 137.38 329.95 130.41 349.16 130.41 348.31 137.38"/><path class="cls-3" d="m376.75,151.69l-2.13-7.97h-13.59l-3.91,7.97h-7.68l19.42-36.5h4.98l10.6,36.5h-7.69Zm-12.59-14.02h8.89l-2.99-11.74-5.9,11.74h0Z"/><polygon class="cls-3" points="408.1 147.49 401.28 129.14 398.79 151.69 391.89 151.69 396.15 116.12 403.91 116.12 412.02 138.24 425.39 116.12 433.14 116.12 428.87 151.69 421.98 151.69 424.89 129.14 413.65 147.49 408.1 147.49"/><polygon class="cls-3" points="467.41 136.82 449.98 136.82 448.99 145 468.77 145 467.99 151.69 441.17 151.69 445.43 116.12 472.25 116.12 471.47 122.81 451.7 122.81 450.77 130.14 468.2 130.14 467.41 136.82"/><path class="cls-3" d="m496.25,138.67h-7.97l-1.57,13.02h-7.04l4.27-35.57h15.51c9.17,0,11.67,4.84,10.89,11.24-.5,4.34-2.85,8.18-6.9,10.1l6.54,14.23h-8.54l-5.19-13.02h0Zm2.14-15.86h-8.18l-1.14,9.25h8.18c4.34,0,5.4-2.06,5.69-4.63.28-2.56-.22-4.62-4.55-4.62"/><polygon class="cls-3" points="519.6 151.69 523.87 116.12 530.84 116.12 526.57 151.69 519.6 151.69"/><path class="cls-3" d="m556.91,115.18c3.34,0,7.47.14,10.95,1.71l-.78,6.69c-3.34-1.14-6.69-1.64-11.1-1.64-7.33,0-10.31,6.05-11.02,11.95s.78,11.95,8.11,11.95c4.41,0,7.82-.5,11.45-1.64l-.79,6.69c-3.91,1.57-8.03,1.71-11.38,1.71-12.09,0-15.93-8.46-14.65-18.71,1.28-10.24,7.11-18.71,19.2-18.71"/><path class="cls-3" d="m596.45,151.68l-2.13-7.97h-13.59l-3.91,7.97h-7.68l19.42-36.5h4.98l10.6,36.5h-7.69,0Zm-12.59-14.02h8.89l-2.99-11.74-5.9,11.74Z"/></g></g><g><path class="cls-1" d="m122.33,122.7h.67l1.54,2.8h1.68l-1.7-2.92c.88-.05,1.6-.49,1.6-1.72,0-1.51-1.02-2-2.72-2h-2.48v6.64h1.42v-2.8h-.01Zm0-1.13v-1.59h1c.54,0,1.27.05,1.27.73,0,.74-.36.86-1.01.86h-1.26Zm7.22.61c0-3.9-2.92-6.17-6.19-6.17s-6.2,2.28-6.2,6.17,2.92,6.17,6.2,6.17,6.19-2.27,6.19-6.17m-1.78,0c0,2.84-2.02,4.75-4.41,4.75v-.02c-2.45.02-4.42-1.89-4.42-4.73s1.97-4.73,4.42-4.73,4.41,1.89,4.41,4.73"/><path class="cls-2" d="m103.35,22.65c-.11-.12-23.45-22.65-23.45-22.65h0s-23.33,22.53-23.45,22.64c-16.77,17.1.21,31.9.21,31.9l19.47,18.9,3.77-49.65v.04-.04l3.77,49.65,19.47-18.9s16.98-14.8.21-31.9"/><path class="cls-2" d="m22.65,56.48c-.12.11-22.65,23.45-22.65,23.45h0s22.53,23.34,22.65,23.45c17.1,16.77,31.9-.21,31.9-.21l18.89-19.47-49.64-3.77h0l49.64-3.78-18.89-19.47s-14.8-16.98-31.9-.21"/><path class="cls-2" d="m137.21,56.48c.12.11,22.65,23.45,22.65,23.45h0s-22.53,23.34-22.65,23.45c-17.1,16.77-31.9-.21-31.9-.21l-18.89-19.47,49.64-3.77h0l-49.64-3.78,18.89-19.47s14.8-16.98,31.9-.21"/><path class="cls-2" d="m76.92,96.86l-.79-10.44-19.47,18.89s-10.49,9.15-6.83,21.37l27.1-29.82h-.01Z"/><path class="cls-2" d="m78.49,117.44l-20.18,21.57c1.44,1.39,3.58,3.46,5.97,5.76l14.94-17.72-.73-9.61Z"/><path class="cls-2" d="m77.29,101.73l-26.38,27.77s.03.08.05.12c0,.01.01.02.02.04.38.79.82,1.59,1.34,2.41.04.07.08.14.13.21.02.03.04.06.06.08.08.12.16.24.24.36l.01.01c.16.23.32.47.49.7,0,.01.02.02.02.03.17.23.34.47.53.7,0,0,.01.02.02.02.08.11.18.22.26.34.1.13.2.25.3.38-.11-.13-.2-.25-.3-.38.1.13.2.25.31.38h0c.45.56.94,1.11,1.46,1.67h0s-.01-.02-.02-.02c-.17-.17-.33-.35-.49-.53-.13-.14-.25-.29-.38-.43l-.11-.12c-.16-.19-.31-.37-.46-.55.15.18.3.36.46.55l.11.12c.12.14.25.29.38.43.16.18.32.36.49.53,0,0,.01.02.02.02.17.19.35.37.53.56-.18-.19-.36-.37-.53-.55.17.19.35.37.53.56l21.71-24.81-.81-10.6h.01Z"/><path class="cls-2" d="m82.89,96.86l.79-10.44,19.47,18.89s10.49,9.15,6.83,21.37l-27.1-29.82h.01Z"/><path class="cls-2" d="m81.32,117.44l20.17,21.57c-1.44,1.39-3.58,3.46-5.96,5.76l-14.94-17.72s.73-9.61.73-9.61Z"/><path class="cls-2" d="m82.52,101.73l26.38,27.77s-.04.08-.06.12c0,.01-.01.02-.02.04-.38.79-.82,1.59-1.34,2.41-.04.07-.08.14-.13.21-.02.03-.04.06-.06.08-.08.12-.16.24-.24.36v.01c-.16.23-.32.47-.49.7,0,.01-.01.02-.02.03-.17.23-.34.47-.53.7,0,0-.01.02-.02.02-.08.11-.18.22-.27.34-.1.13-.2.25-.3.38.11-.13.2-.25.3-.38-.1.13-.2.25-.3.38q-.0667.0867,0,0c-.45.55-.94,1.1-1.46,1.66h0s.02-.02.02-.03c.16-.17.32-.35.49-.53.13-.14.25-.29.38-.43.03-.04.07-.08.11-.12.16-.19.31-.37.46-.55-.15.18-.3.36-.46.55-.04.04-.07.08-.11.12-.13.14-.25.29-.38.43-.16.18-.32.36-.49.53l-.02.02c-.17.19-.35.37-.53.56.18-.19.36-.37.53-.55-.17.19-.36.37-.53.56l-21.72-24.81.81-10.6v.02Z"/><path class="cls-2" d="m93.31,146.91l-13.07-15.27-.34-.39-.34.39-13.07,15.27c6.37,6.15,13.41,12.95,13.41,12.95h0s7.04-6.8,13.41-12.95"/></g></svg>