<?xml version="1.0" encoding="UTF-8"?>
<!-- Created with Inkscape (http://www.inkscape.org/) -->
<svg width="231.54mm" height="144.71mm" version="1.1" viewBox="0 0 231.54 144.71" xmlns="http://www.w3.org/2000/svg">
 <g transform="translate(.9808 -53.318)">
  <g transform="matrix(1.4471 0 0 1.4471 -.9808 53.318)">
   <path d="m50.057 48.325c-0.1752 0-0.3432-0.0521-0.4859-0.1528-7.6163-5.3203-11.813-12.348-11.813-19.786 0-15.652 18.746-28.386 41.79-28.386 23.044 0 41.789 12.734 41.789 28.386 0 7.437-4.197 14.466-11.815 19.786-0.139 0.0989-0.307 0.1528-0.484 0.1528z" fill="#fff"/>
   <g fill="#ffd000">
    <path d="m79.614 1.1055c-0.8021 0-1.5969 0.01797-2.3882 0.04672l2.1534 27.209 2.2292-27.224c-0.6611-0.02336-1.3241-0.03234-1.9944-0.03234z"/>
    <path d="m86.187 1.4576-6.807 26.906 11.565-26.198c-1.5499-0.29647-3.1415-0.53365-4.7565-0.70795"/>
    <path d="m95.644 3.276-16.264 25.087 21.129-23.441c-1.5594-0.61631-3.1852-1.1679-4.8653-1.6459z"/>
    <path d="m105 6.9828-25.624 21.38 29.891-18.791c-1.329-0.92716-2.753-1.7932-4.265-2.5892"/>
    <path d="m112.98 12.567-33.598 15.796 36.859-12.193c-0.949-1.2596-2.04-2.4653-3.261-3.6026z"/>
    <path d="m118.66 20.139-39.281 8.2241 40.781-3.838c-0.322-1.5058-0.824-2.9702-1.5-4.3861z"/>
    <path d="m79.381 28.363 40.497 5.0886c0.414-1.4627 0.64-2.9648 0.685-4.5047z"/>
    <path d="m67.856 2.25 11.526 26.113-6.7925-26.857c-1.6114 0.18687-3.1903 0.43663-4.7331 0.74208"/>
    <path d="m58.375 5.0585 21.006 23.305-16.188-24.974c-1.6675 0.48694-3.2771 1.0422-4.818 1.6674"/>
    <path d="m49.74 9.7284 29.64 18.635-25.443-21.229c-1.4867 0.79958-2.8904 1.6674-4.1983 2.5946"/>
    <path d="m42.899 16.296 36.483 12.067-33.287-15.65c-1.1959 1.1338-2.2653 2.3305-3.1957 3.5829z"/>
    <path d="m39.06 24.566 40.32 3.7949-38.856-8.1342c-0.6612 1.3997-1.1489 2.8497-1.4651 4.3375"/>
    <path d="m39.389 33.387 39.993-5.0257-40.715 0.5786c0.047 1.5219 0.2963 3.006 0.7226 4.4453"/>
   </g>
   <path d="m119.54 34.324c-3.864-0.7385-12.041-1.3081-12.041-1.3081l-1.729-0.4043s-2.303-0.8894-15.127-2.9126c-12.826-2.0232-33.303 2.1849-34.123 2.3466-0.8238 0.1635-3.2084 1.2955-3.2084 1.2955-5.9525-0.911-11.634 0.4816-13.632 1.0602 1.6638 5.0203 5.3383 9.5231 10.425 13.104h58.983c5.113-3.599 8.8-8.1288 10.453-13.18" fill="#00953b"/>
   <path d="m64.405 43.929c-1.3947-0.8301-2.8254-1.6117-4.3086-2.3376-5.7628-2.7869-12.839-4.8424-19.505-4.8784 0.0975 0.2049 0.1843 0.4079 0.2981 0.6091 6.3842 0.4421 12.922 2.7743 18.136 5.6726 1.1544 0.6522 2.2708 1.3386 3.3566 2.0573 0.9393 0.6199 1.8553 1.2632 2.7477 1.928 0.2222 0.1671 0.4444 0.336 0.6648 0.5067h3.9653c-0.8274-0.6091-1.6674-1.2056-2.5328-1.7824-0.9177-0.6145-1.8589-1.2075-2.8199-1.7753m11.863 1.2901c-1.261-0.8229-2.5544-1.6189-3.8804-2.3789-0.9268-0.5319-1.8662-1.0476-2.8236-1.5399-1.8192-0.9361-3.6889-1.8022-5.6255-2.5838-7.2604-2.9863-16.064-4.4669-23.918-3.3223 0.0723 0.1671 0.1175 0.309 0.1915 0.4761 7.7356-0.7277 16.091 1.1608 22.816 4.3249 1.4759 0.6846 2.9031 1.4249 4.2959 2.2047 0.9466 0.5319 1.8806 1.0817 2.7965 1.6531 1.2899 0.8122 2.5454 1.6639 3.7666 2.5479 0.4065 0.2911 0.8075 0.5876 1.2031 0.8894h4.4531c-0.2529-0.1851-0.5022-0.3701-0.7551-0.5552-0.8274-0.584-1.6728-1.1535-2.5237-1.7142m-20.052-0.8858c-3.7702-2.3161-7.9379-4.2135-12.393-5.385-0.6793-0.1707-1.6331-0.3864-2.3359-0.5265 0.1879 0.3037 0.3324 0.5804 0.5348 0.8804 0.3902 0.1132 1.0947 0.3127 1.4759 0.4349 4.2074 1.3943 8.048 3.457 11.45 5.8845 0.8364 0.5984 1.6403 1.2255 2.4244 1.8651h3.3908c-0.3685-0.2839-0.7353-0.5642-1.1128-0.8391-1.1056-0.805-2.2455-1.5812-3.4324-2.3125m-12.859-3.1426c0.9159 1.1176 2.2383 2.1346 3.3728 3.1498 0.8562 0.6379 1.6782 1.3099 2.4677 2.0052 0.5293 0.39 1.0803 0.7691 1.6439 1.1392h2.3286c-0.2348-0.2048-0.4769-0.4096-0.719-0.6109-2.6303-2.2065-5.864-4.1255-9.0922-5.6833m56.667 4.1973c-1.0785 0.6721-2.1209 1.3746-3.1308 2.0969h3.8808c0.309-0.2336 0.619-0.4671 0.934-0.6953 3.696-2.6881 7.921-5.0563 12.687-6.6986 0.833-0.2821 1.926-0.6091 2.807-0.8481 0.193-0.2875 0.331-0.5516 0.511-0.8427-1.224 0.2318-2.621 0.5552-3.781 0.8769-5.108 1.4248-9.762 3.5271-13.908 6.1109zm19.368-10.61c0.063-0.1707 0.123-0.3629 0.18-0.5336-3.983-1.0673-8.308-1.6315-12.683-1.7501-6.553-1.9693-16.279-3.9925-27.524-3.9746-10.706-0.0269-20.206 1.9388-26.292 4.3286-4.5886-0.2282-9.2567 0.1958-13.475 1.3458 0.0524 0.1527 0.0939 0.3018 0.1518 0.4564 8.832-2.0035 18.943-0.7367 27.19 2.6521 1.9655 0.7798 3.8714 1.6423 5.7213 2.5784 0.9321 0.4708 1.8462 0.9559 2.7477 1.4626 1.3007 0.7277 2.5725 1.4878 3.8172 2.282 0.8165 0.5192 1.6168 1.0529 2.4081 1.5973 1.0694 0.7313 2.1136 1.4914 3.1415 2.264h5.6436c1.8571-1.2524 3.7937-2.449 5.835-3.5559 6.2683-3.4067 14.179-6.1828 22.039-6.5943 0.105-0.1922 0.188-0.3899 0.288-0.5858-8.273-0.0503-17.018 2.4347-23.973 5.7319-2.3954 1.132-4.6789 2.3664-6.8684 3.6799-1.1598-0.8068-2.3412-1.592-3.5444-2.3539 1.9872-1.0493 4.0466-2.0393 6.1801-2.9467 8.3678-3.6404 18.871-5.8523 28.552-4.8856 0.078-0.1671 0.134-0.3342 0.206-0.5013-9.787-1.459-20.874 0.257-29.905 3.705-2.5707 0.9542-5.042 2.0161-7.4339 3.1606-1.2663-0.7456-2.5544-1.4644-3.8677-2.1472 2.2581-0.9918 4.5795-1.9082 6.9768-2.7347 10.496-3.75 23.386-5.1874 34.447-2.7096m-64.626-1.7914c6.2957-1.7268 14.983-2.9342 24.645-2.9163 9.7118-0.0179 18.398 1.1374 25.015 2.4311-3.15 0.0342-6.3245 0.2875-9.4498 0.7439-4.5814-0.7223-9.8149-1.2308-15.446-1.2182-6.816-9e-3 -13.115 0.7906-18.244 1.928-2.1408-0.46-4.3267-0.7871-6.5198-0.9703m20.437 5.8666c-1.2772-0.6056-2.5815-1.1751-3.9057-1.7124 2.6574-0.1545 5.4593-0.2408 8.3606-0.2444 0.2565 0 0.5112 0.0036 0.7678 0.0036-1.7759 0.6074-3.5155 1.2596-5.2227 1.9532zm4.4477-3.3205c-3.8263 0-7.4827 0.2479-10.839 0.654-0.3468-0.1276-0.6955-0.2551-1.046-0.3773-1.3566-0.4906-2.7459-0.9236-4.1676-1.2991 4.7042-0.593 10.135-0.9469 15.939-0.9434 4.0015-0.0089 7.8169 0.1438 11.37 0.3953-2.2473 0.46-4.4495 1.0224-6.5721 1.6783-1.5247-0.0701-3.0856-0.1114-4.6825-0.106m28.805 11.981c2.786-1.8363 5.51-3.9961 7.416-6.2978-3.581 1.7124-7.049 3.9368-9.815 6.2978h2.397z" fill="#006142"/>
   <g fill="#10181f">
    <path d="m13.981 62.247 8.0227-8.1845 2.7441-0.7744v-1.6387h-8.5864v1.6728l2.0866 0.5966-9.4102 9.2356v-9.4404l3.1235-0.3217v-1.7429h-11.961v1.7429l3.1253 0.3217v20.663l-3.1253 0.3217v1.7429h11.961v-1.7429l-3.1235-0.3217v-9.4081l8.301 9.4387-2.0197 0.2659v1.7681h11.424v-1.725l-2.8398-0.424z"/>
    <path d="m35.746 57.685c-5.6508 0-9.4463 3.8614-9.4463 9.6112s3.651 9.5393 9.0868 9.5393c5.4359 0 7.9379-2.6018 7.9379-3.9315 0-0.8606-0.7876-1.096-1.1237-1.1966 0 0-0.2041-0.0719-0.2872-0.0396-0.0849 0.0306-0.2457 0.2408-0.2457 0.2408-1.1525 1.8471-3.3402 2.9953-5.7068 2.9953-1.6186 0-3.7684-0.7924-3.7684-7.6419v-0.7852h11.316l0.0632-0.3935c0.1048-0.6612 0.1499-1.1949 0.1499-1.7878 0-4.201-2.9067-6.6105-7.974-6.6105zm2.5165 6.5728h-5.8947c0.3433-2.2281 1.2068-4.6412 3.3421-4.6412 1.7144 0 2.5833 1.3099 2.5833 3.8919 0 0.2444-0.0144 0.5157-0.0325 0.7493z"/>
    <path d="m61.834 60.535 2.6231-0.7457v-1.7106h-7.7952v1.7214l2.69 0.6774-3.3927 9.4548-3.9256-9.9454 1.9366-0.2928v-1.6172h-9.2331v1.5974l1.9294 0.3845 6.7256 15.922c-1.5463 3.8991-3.1126 5.4929-5.3852 5.4929-0.8418 0-1.3748-0.2947-2.1931-1.1392 0 0-0.1445-0.2659-0.3884-0.3109-0.2114-0.0395-0.3866 0.2767-0.3866 0.2767-0.6991 0.8877-1.0911 1.7699-1.0911 2.7114 0 1.628 1.3259 2.857 3.0403 2.857h0.0036c0.1861 0.0179 0.3668 0.0269 0.5456 0.0269 4.2562 0 6.7112-4.9035 8.5575-9.7603l5.7375-15.602z"/>
    <path d="m68.66 70.644c-0.0831-0.0773-0.4101-0.0288-0.4101-0.0288-1.886 0.0377-3.1524 1.159-3.1524 2.7869 0 2.1472 2.5255 3.4301 6.7528 3.4301 4.6193 0 7.7229-2.2532 7.7229-5.6097 0-3.6277-2.8164-4.6681-5.3004-5.5863-2.0124-0.7421-3.7503-1.3835-3.7503-3.2378 0-1.946 0.7985-2.8911 2.4406-2.8911 1.1905 0 1.7939 0.7564 1.7939 2.2496 0 0.478-0.0831 1.0278-0.2331 1.5507 0 0-0.0921 0.2461-0.0578 0.3306 0.0343 0.0844 0.271 0.2012 0.271 0.2012 0.4751 0.2749 1.0153 0.4205 1.5644 0.4205 1.5771 0 2.7676-1.168 2.7676-2.715 0-2.273-2.334-3.8596-5.6761-3.8596-4.9318 0-7.759 2.0969-7.759 5.7534 0 3.3098 2.82 4.4705 5.3094 5.4965 1.9872 0.8193 3.7052 1.5255 3.7052 3.1121 0 2.5784-1.597 2.9647-2.549 2.9647-2.1407 0-3.2427-1.2937-3.3746-3.9512 0 0 0.0163-0.3378-0.0686-0.415z"/>
    <path d="m83.758 71.368c0 5.4659 3.9472 5.4659 5.2443 5.4659 2.5635 0 4.7421-1.7286 5.5478-4.404 0.1391-0.46 0.0145-0.7619-0.1138-0.9361-0.1409-0.1887-0.4444-0.3594-1.0171-0.4151 0 0-0.2294-0.0395-0.2998 0.0144-0.0705 0.0539-0.1518 0.3288-0.1518 0.3288-0.513 1.8543-1.8806 3.4804-2.9248 3.4804-0.3703 0-0.7876 0-0.7876-1.928 0-2.4005 0.0379-6.8135 0.1084-10.598l0.0596-2.4383h5.0402v-1.8615h-5.0185l0.1084-5.2503h-5.5406l-0.0361 5.2503h-2.4804v1.8615h2.428c-0.0994 3.5577-0.1662 8.6786-0.1662 11.43z"/>
    <path d="m106.02 76.834c5.888 0 9.842-3.847 9.842-9.5735 0-5.7264-3.954-9.5752-9.842-9.5752-5.887 0-9.8418 3.847-9.8418 9.5752 0 5.7283 3.9548 9.5735 9.8418 9.5735zm0-17.323c2.744 0 3.913 2.3179 3.913 7.7496 0 5.4318-1.245 7.7857-3.913 7.7857s-3.913-2.4743-3.913-7.7857c0-5.3113 1.171-7.7496 3.913-7.7496z"/>
    <path d="m118.02 74.728v1.7124h10.561v-1.7178l-2.694-0.2138v-9.5716c0-1.371 2.117-4.891 4.451-4.891 1.357 0 2.045 0.5517 2.045 3.5703 0 2.5677-0.059 4.8298-0.121 7.2268-0.03 1.1931-0.061 2.4059-0.086 3.6835l-1.733 0.2156v1.6998h9.627v-1.7142l-2.462-0.2138 3e-3 -0.0881c0.136-3.8667 0.233-6.6589 0.233-10.632s-2.09-5.9672-6.214-5.9672c-2.405 0-4.587 1.1356-6.012 3.0833l0.148-3.0061-8.324 0.4852v1.6333l2.944 0.1419v14.348l-2.37 0.2138z"/>
    <path d="m150.94 77.227c5.54 0 7.938-2.6018 7.938-3.9314 0-0.8607-0.788-1.0961-1.124-1.1967 0 0-0.204-0.0719-0.287-0.0396-0.085 0.0306-0.246 0.2408-0.246 0.2408-1.152 1.8471-3.34 2.9953-5.707 2.9953-1.618 0-3.768-0.7924-3.768-7.6418v-0.7853h11.316l0.063-0.3935c0.105-0.6612 0.15-1.1948 0.15-1.7878 0-4.2009-2.907-6.6105-7.974-6.6105-5.651 0-9.446 3.8614-9.446 9.6112s3.651 9.5393 9.087 9.5393zm0.321-17.217c1.715 0 2.584 1.3099 2.584 3.8919 0 0.2444-0.015 0.5157-0.033 0.7493h-5.894c0.343-2.2281 1.206-4.6412 3.342-4.6412z"/>
    <path d="m59.33 89.061c0.457-0.4474 0.9972-0.7942 1.6186-1.0385 0.6215-0.2444 1.3079-0.3666 2.0577-0.3666 0.7497 0 1.447 0.1402 2.0883 0.4169 0.6413 0.2785 1.2212 0.6953 1.7415 1.2524l1.7198-1.61c-0.6684-0.787-1.4886-1.3817-2.4569-1.7824-0.9701-0.4007-2.0414-0.6002-3.2156-0.6002-1.1056 0-2.1227 0.1797-3.0512 0.5391-0.9286 0.3593-1.7415 0.8696-2.437 1.5273-0.6955 0.6594-1.2357 1.4356-1.6186 2.3322-0.383 0.8966-0.5727 1.8741-0.5727 2.9342s0.1915 2.0376 0.5727 2.9342c0.3829 0.8966 0.9177 1.6747 1.6078 2.3323 0.69 0.6594 1.5012 1.1679 2.437 1.5273 0.9357 0.3594 1.9492 0.539 3.0421 0.539 1.1887 0 2.2654-0.203 3.2355-0.6109s1.7885-0.9972 2.4569-1.7716l-1.7198-1.6298c-0.5185 0.5696-1.0984 0.9955-1.7415 1.274-0.6413 0.2785-1.3386 0.4168-2.0883 0.4168-0.7498 0-1.438-0.1221-2.0577-0.3665-0.6214-0.2444-1.1598-0.5912-1.6186-1.0386-0.4571-0.4474-0.813-0.9774-1.0659-1.5883-0.2529-0.611-0.3793-1.283-0.3793-2.0161s0.1264-1.4051 0.3793-2.016 0.607-1.141 1.0659-1.5884z"/>
    <path d="m83.037 87.422c-0.6955-0.6594-1.5121-1.1715-2.4479-1.5381-0.9357-0.3665-1.9637-0.5498-3.0819-0.5498s-2.1299 0.1833-3.0711 0.5498c-0.943 0.3666-1.7613 0.8787-2.4569 1.5381-0.6955 0.6595-1.2356 1.4321-1.6186 2.3215s-0.5727 1.8633-0.5727 2.9234 0.1915 2.034 0.5727 2.9234c0.383 0.8895 0.9213 1.6639 1.6186 2.3215 0.6956 0.6595 1.5157 1.1716 2.4569 1.5381 0.9412 0.3666 1.9727 0.5498 3.0928 0.5498 1.12 0 2.1263-0.1832 3.062-0.5498 0.9358-0.3665 1.7506-0.875 2.4479-1.5273 0.6973-0.6522 1.2356-1.4267 1.6186-2.3215 0.383-0.8966 0.5727-1.8741 0.5727-2.9342s-0.1915-2.034-0.5727-2.9234c-0.383-0.8894-0.9213-1.6638-1.6186-2.3215zm-0.8708 7.2502c-0.2529 0.6037-0.6034 1.1338-1.055 1.5884-0.4498 0.4546-0.9827 0.8049-1.597 1.0493-0.6142 0.2444-1.2826 0.3665-2.007 0.3665s-1.3928-0.1221-2.007-0.3665c-0.6143-0.2444-1.1472-0.5947-1.597-1.0493s-0.8021-0.9883-1.055-1.5992-0.3794-1.2758-0.3794-1.9963 0.1265-1.4015 0.3794-2.007c0.2529-0.6037 0.607-1.1338 1.0658-1.5884 0.4589-0.4546 0.99-0.805 1.597-1.0493 0.607-0.2444 1.2736-0.3666 1.9962-0.3666s1.3928 0.1222 2.007 0.3666c0.6143 0.2443 1.1472 0.5947 1.597 1.0493s0.8021 0.9847 1.055 1.5884 0.3794 1.2721 0.3794 2.007-0.1265 1.4015-0.3794 2.0071z"/>
    <path d="m98.15 95.192-7.9053-9.6543h-2.1913v14.26h2.6429v-9.6543l7.9054 9.6543h2.1912v-14.26h-2.6429z"/>
    <path d="m114.74 95.192-7.905-9.6543h-2.191v14.26h2.641v-9.6543l7.907 9.6543h2.19v-14.26h-2.642z"/>
    <path d="m123.9 93.645h6.922v-2.1795h-6.922v-3.7069h7.802v-2.2208h-10.465v14.26h10.752v-2.2209h-8.089z"/>
    <path d="m138.06 89.061c0.457-0.4474 0.997-0.7942 1.619-1.0385 0.621-0.2444 1.308-0.3666 2.057-0.3666 0.75 0 1.447 0.1402 2.089 0.4169 0.641 0.2785 1.221 0.6953 1.741 1.2524l1.72-1.61c-0.668-0.787-1.488-1.3817-2.457-1.7824-0.97-0.4007-2.041-0.6002-3.215-0.6002-1.106 0-2.123 0.1797-3.052 0.5391-0.928 0.3593-1.741 0.8696-2.437 1.5273-0.697 0.6594-1.235 1.4356-1.618 2.3322s-0.573 1.8741-0.573 2.9342 0.192 2.0376 0.573 2.9342c0.383 0.8966 0.917 1.6747 1.608 2.3323 0.69 0.6594 1.501 1.1679 2.437 1.5273 0.935 0.3594 1.949 0.539 3.04 0.539 1.189 0 2.267-0.203 3.235-0.6109 0.971-0.4079 1.789-0.9972 2.457-1.7716l-1.72-1.6298c-0.518 0.5696-1.098 0.9955-1.741 1.274-0.641 0.2785-1.339 0.4168-2.088 0.4168-0.75 0-1.438-0.1221-2.058-0.3665-0.621-0.2444-1.16-0.5912-1.619-1.0386-0.457-0.4474-0.813-0.9774-1.065-1.5883-0.253-0.611-0.38-1.283-0.38-2.0161s0.127-1.4051 0.38-2.016c0.252-0.6109 0.607-1.141 1.065-1.5884z"/>
    <path d="m147.84 85.537v2.2406h4.751v12.019h2.663v-12.019h4.751v-2.2406z"/>
   </g>
  </g>
 </g>
</svg>
