<?xml version="1.0" standalone="no"?>
<!DOCTYPE svg PUBLIC "-//W3C//DTD SVG 1.1//EN" "http://www.w3.org/Graphics/SVG/1.1/DTD/svg11.dtd">
<svg xmlns="http://www.w3.org/2000/svg" xmlns:xlink="http://www.w3.org/1999/xlink" version="1.1" id="Layer_1" x="0px" y="0px" viewBox="0 0 792 612" style="enable-background:new 0 0 792 612;" xml:space="preserve" width="792" height="612">
<style type="text/css">
	.st0{fill:#0A203F;}
	.st1{fill:#E05929;}
	.st2{fill:#F5B333;}
</style>
<g>
	<polygon class="st0" points="52.35,397.33 52.35,419.67 82.69,419.67 82.69,511.84 110.58,511.84 110.58,419.67 140.92,419.67    140.92,397.33  "/>
	<path class="st0" d="M179.5,511.84H151.6v-91.02h27.89V511.84z M153.64,407.03c-3.1-2.88-4.65-6.44-4.65-10.69   c0-4.35,1.55-7.96,4.65-10.84c3.1-2.88,7.1-4.32,11.99-4.32c4.78,0,8.73,1.44,11.83,4.32c3.1,2.88,4.65,6.5,4.65,10.84   c0,4.25-1.55,7.81-4.65,10.69c-3.1,2.88-7.04,4.32-11.83,4.32C160.74,411.36,156.74,409.91,153.64,407.03"/>
	<path class="st0" d="M258.84,449.77c-3.86-3.97-8.62-5.95-14.28-5.95c-5.54,0-10.25,2.01-14.11,6.03   c-3.86,4.03-5.79,9.52-5.79,16.48c0,6.96,1.93,12.46,5.79,16.48c3.86,4.03,8.56,6.04,14.11,6.04c5.55,0,10.28-2.04,14.2-6.12   c3.91-4.08,5.87-9.59,5.87-16.55C264.63,459.21,262.7,453.74,258.84,449.77 M236.09,423.43c4.78-2.61,10.38-3.91,16.8-3.91   c7.5,0,14.3,1.9,20.39,5.7c6.09,3.81,10.9,9.25,14.44,16.31c3.53,7.07,5.3,15.28,5.3,24.63c0,9.36-1.77,17.6-5.3,24.72   c-3.54,7.12-8.35,12.61-14.44,16.48c-6.09,3.86-12.89,5.79-20.39,5.79c-6.31,0-11.88-1.31-16.72-3.91   c-4.84-2.61-8.62-5.98-11.34-10.11v56.11h-27.89V420.82h27.89v12.89C227.55,429.46,231.3,426.04,236.09,423.43"/>
	<path class="st0" d="M448.55,430.11c6.69,6.85,10.04,16.37,10.04,28.54v53.18h-27.74v-49.42c0-5.87-1.55-10.42-4.64-13.62   c-3.1-3.21-7.37-4.81-12.81-4.81c-5.44,0-9.7,1.61-12.8,4.81s-4.65,7.75-4.65,13.62v49.42h-27.73v-49.42   c0-5.87-1.55-10.42-4.65-13.62c-3.09-3.21-7.37-4.81-12.8-4.81c-5.44,0-9.7,1.61-12.8,4.81c-3.1,3.21-4.65,7.75-4.65,13.62v49.42   h-27.89v-91.03h27.89v11.42c2.82-3.81,6.53-6.82,11.09-9.05c4.57-2.23,9.73-3.35,15.5-3.35c6.85,0,12.97,1.47,18.35,4.41   c5.38,2.93,9.6,7.12,12.64,12.56c3.15-5,7.45-9.08,12.89-12.23c5.44-3.16,11.36-4.74,17.78-4.74   C432.87,419.84,441.86,423.26,448.55,430.11"/>
	<path class="st0" d="M530.44,483.13c3.75-3.91,5.63-9.51,5.63-16.8c0-7.28-1.83-12.89-5.46-16.8c-3.65-3.91-8.13-5.87-13.46-5.87   c-5.44,0-9.94,1.93-13.53,5.8c-3.6,3.86-5.39,9.48-5.39,16.88c0,7.29,1.76,12.89,5.3,16.8c3.53,3.91,7.97,5.87,13.29,5.87   C522.14,489,526.69,487.04,530.44,483.13 M492.76,507.44c-7.13-3.81-12.73-9.24-16.8-16.31c-4.08-7.06-6.12-15.33-6.12-24.79   c0-9.35,2.06-17.59,6.2-24.72c4.13-7.12,9.78-12.58,16.97-16.39c7.17-3.81,15.22-5.71,24.14-5.71c8.92,0,16.97,1.9,24.15,5.71   s12.83,9.27,16.96,16.39c4.13,7.13,6.2,15.37,6.2,24.72c0,9.36-2.1,17.59-6.28,24.72c-4.19,7.12-9.89,12.58-17.13,16.39   c-7.23,3.81-15.31,5.71-24.23,5.71S499.88,511.24,492.76,507.44"/>
	<path class="st0" d="M657.4,430.2c6.36,6.91,9.54,16.39,9.54,28.47v53.18h-27.73v-49.42c0-6.09-1.58-10.82-4.73-14.19   c-3.16-3.37-7.4-5.06-12.73-5.06s-9.57,1.69-12.72,5.06c-3.16,3.37-4.74,8.1-4.74,14.19v49.42h-27.89v-91.02h27.89v12.07   c2.82-4.02,6.63-7.2,11.42-9.54c4.78-2.34,10.17-3.5,16.15-3.5C642.53,419.84,651.03,423.3,657.4,430.2"/>
	<path class="st0" d="M732.66,488.19v23.65h-14.19c-10.11,0-18-2.47-23.65-7.42c-5.66-4.95-8.48-13.02-8.48-24.22v-36.22h-11.09   v-23.16h11.09v-22.19h27.89v22.19h18.27v23.16h-18.27v36.54c0,2.72,0.65,4.68,1.95,5.87c1.31,1.2,3.48,1.8,6.53,1.8H732.66z"/>
	<rect x="259.98" y="99.51" class="st1" width="262.41" height="31.65"/>
	<path class="st1" d="M376.09,180.51l-22.48-23.56c-2.2-2.3-5.23-3.62-8.33-3.62h-83.05v31.65h76.51c5.81,0,10.55,4.97,10.55,11.09   V367.5h30.25V189.21C379.53,185.92,378.31,182.83,376.09,180.51z"/>
	<path class="st2" d="M437.11,153.33c-3.1,0-6.14,1.32-8.34,3.62l-22.48,23.57c-2.22,2.32-3.44,5.41-3.44,8.7V367.5h30.25V196.07   c0-6.11,4.73-11.09,10.54-11.09h76.51v-31.65H437.11z"/>
</g>
</svg>