<?xml version="1.0" encoding="UTF-8" standalone="no"?>
<!-- Generator: Adobe Illustrator 27.4.0, SVG Export Plug-In . SVG Version: 6.00 Build 0)  -->

<svg
   version="1.1"
   id="Layer_1"
   x="0px"
   y="0px"
   viewBox="0 0 707.5 217.62"
   xml:space="preserve"
   sodipodi:docname="logo-tipmont.svg"
   width="707.5"
   height="217.62"
   inkscape:version="1.3.2 (091e20e, 2023-11-25, custom)"
   xmlns:inkscape="http://www.inkscape.org/namespaces/inkscape"
   xmlns:sodipodi="http://sodipodi.sourceforge.net/DTD/sodipodi-0.dtd"
   xmlns="http://www.w3.org/2000/svg"
   xmlns:svg="http://www.w3.org/2000/svg"><defs
   id="defs8" /><sodipodi:namedview
   id="namedview8"
   pagecolor="#ffffff"
   bordercolor="#000000"
   borderopacity="0.25"
   inkscape:showpageshadow="2"
   inkscape:pageopacity="0.0"
   inkscape:pagecheckerboard="0"
   inkscape:deskcolor="#d1d1d1"
   inkscape:zoom="1.2696078"
   inkscape:cx="353.65251"
   inkscape:cy="109.0888"
   inkscape:window-width="1920"
   inkscape:window-height="991"
   inkscape:window-x="-9"
   inkscape:window-y="-9"
   inkscape:window-maximized="1"
   inkscape:current-layer="Layer_1" />
<style
   type="text/css"
   id="style1">
	.st0{fill:#0A203F;}
	.st1{fill:#E05929;}
	.st2{fill:#F5B333;}
</style>
<polygon
   class="st0"
   points="63.89,311.86 63.89,376.85 83.56,376.85 83.56,311.86 104.95,311.86 104.95,296.11 42.5,296.11 42.5,311.86 "
   id="polygon1"
   transform="translate(-42.5,-197.19)" />
<path
   class="st0"
   d="M 89.66,179.66 H 69.99 v -64.18 h 19.67 z m -18.23,-73.9 c -2.19,-2.03 -3.28,-4.54 -3.28,-7.540002 0,-3.06 1.09,-5.61 3.28,-7.65 2.19,-2.04 5.01,-3.05 8.45,-3.05 3.37,0 6.15,1.02 8.34,3.05 2.19,2.03 3.28,4.58 3.28,7.65 0,2.990002 -1.09,5.500002 -3.28,7.540002 -2.19,2.04 -4.97,3.05 -8.34,3.05 -3.45,0 -6.27,-1.02 -8.45,-3.05"
   id="path1" />
<path
   class="st0"
   d="m 145.6,135.9 c -2.72,-2.8 -6.08,-4.2 -10.07,-4.2 -3.91,0 -7.23,1.42 -9.95,4.25 -2.72,2.84 -4.08,6.71 -4.08,11.62 0,4.91 1.36,8.78 4.08,11.62 2.72,2.84 6.04,4.26 9.95,4.26 3.91,0 7.25,-1.44 10.01,-4.32 2.76,-2.87 4.14,-6.76 4.14,-11.67 0.01,-4.91 -1.36,-8.76 -4.08,-11.56 m -16.04,-18.58 c 3.37,-1.84 7.32,-2.76 11.85,-2.76 5.29,0 10.08,1.34 14.38,4.02 4.29,2.68 7.69,6.52 10.18,11.5 2.49,4.99 3.74,10.77 3.74,17.37 0,6.6 -1.25,12.41 -3.74,17.43 -2.5,5.02 -5.89,8.89 -10.18,11.62 -4.3,2.72 -9.09,4.08 -14.38,4.08 -4.45,0 -8.38,-0.92 -11.79,-2.76 -3.41,-1.84 -6.08,-4.22 -8,-7.13 v 39.57 h -19.67 v -94.78 h 19.67 v 9.09 c 1.92,-2.99 4.56,-5.41 7.94,-7.25"
   id="path2" />
<path
   class="st0"
   d="m 279.37,122.04 c 4.72,4.83 7.08,11.54 7.08,20.13 v 37.5 h -19.56 v -34.86 c 0,-4.14 -1.09,-7.35 -3.27,-9.61 -2.19,-2.26 -5.2,-3.39 -9.03,-3.39 -3.83,0 -6.84,1.13 -9.03,3.39 -2.19,2.26 -3.28,5.46 -3.28,9.61 v 34.85 h -19.55 v -34.85 c 0,-4.14 -1.09,-7.35 -3.28,-9.61 -2.18,-2.26 -5.2,-3.39 -9.03,-3.39 -3.83,0 -6.84,1.13 -9.03,3.39 -2.19,2.26 -3.28,5.46 -3.28,9.61 v 34.85 h -19.67 v -64.18 h 19.67 v 8.05 c 1.99,-2.68 4.6,-4.81 7.82,-6.38 3.22,-1.57 6.86,-2.36 10.93,-2.36 4.83,0 9.14,1.04 12.94,3.11 3.79,2.07 6.77,5.02 8.91,8.85 2.22,-3.52 5.25,-6.4 9.09,-8.62 3.83,-2.23 8.01,-3.34 12.54,-3.34 7.97,0 14.31,2.41 19.03,7.25"
   id="path3" />
<path
   class="st0"
   d="m 337.11,159.42 c 2.65,-2.76 3.97,-6.71 3.97,-11.85 0,-5.14 -1.29,-9.09 -3.85,-11.85 -2.57,-2.76 -5.73,-4.14 -9.49,-4.14 -3.83,0 -7.01,1.36 -9.54,4.09 -2.54,2.72 -3.8,6.69 -3.8,11.9 0,5.14 1.24,9.09 3.74,11.85 2.49,2.76 5.62,4.14 9.37,4.14 3.75,0 6.96,-1.38 9.6,-4.14 m -26.57,17.14 c -5.03,-2.68 -8.97,-6.52 -11.85,-11.5 -2.87,-4.98 -4.31,-10.81 -4.31,-17.48 0,-6.59 1.45,-12.4 4.37,-17.43 2.91,-5.02 6.9,-8.87 11.96,-11.56 5.06,-2.68 10.73,-4.03 17.02,-4.03 6.29,0 11.97,1.34 17.03,4.03 5.06,2.69 9.04,6.54 11.96,11.56 2.91,5.03 4.37,10.83 4.37,17.43 0,6.6 -1.48,12.4 -4.43,17.43 -2.95,5.02 -6.98,8.87 -12.08,11.56 -5.1,2.68 -10.79,4.03 -17.08,4.03 -6.28,-0.02 -11.94,-1.36 -16.96,-4.04"
   id="path4" />
<path
   class="st0"
   d="m 426.63,122.09 c 4.49,4.87 6.73,11.56 6.73,20.07 v 37.49 H 413.8 v -34.84 c 0,-4.3 -1.11,-7.63 -3.33,-10.01 -2.23,-2.38 -5.22,-3.57 -8.97,-3.57 -3.76,0 -6.75,1.19 -8.97,3.57 -2.23,2.38 -3.34,5.71 -3.34,10.01 v 34.85 h -19.67 v -64.18 h 19.67 v 8.51 c 1.99,-2.83 4.68,-5.08 8.05,-6.73 3.37,-1.65 7.17,-2.47 11.39,-2.47 7.52,0 13.51,2.44 18,7.3"
   id="path5" />
<path
   class="st0"
   d="m 479.7,162.98 v 16.68 h -10.01 c -7.13,0 -12.69,-1.74 -16.68,-5.24 -3.99,-3.49 -5.98,-9.18 -5.98,-17.08 v -25.53 h -7.82 v -16.33 h 7.82 V 99.829998 H 466.7 V 115.48 h 12.88 v 16.33 H 466.7 v 25.77 c 0,1.92 0.46,3.3 1.38,4.14 0.92,0.85 2.46,1.27 4.6,1.27 h 7.02 z"
   id="path6" />
<rect
   x="494.40997"
   y="0"
   class="st1"
   width="213.09"
   height="25.700001"
   id="rect6" />
<path
   class="st1"
   d="m 588.69,65.769998 -18.26,-19.13 c -1.78,-1.87 -4.25,-2.94 -6.77,-2.94 h -67.45 v 25.7 h 62.13 c 4.72,0 8.56,4.04 8.56,9 V 217.62 h 24.57 V 72.839998 c 0.02,-2.67 -0.97,-5.18 -2.78,-7.07 z"
   id="path7" />
<path
   class="st2"
   d="m 638.25,43.699998 c -2.52,0 -4.99,1.07 -6.77,2.94 l -18.26,19.14 c -1.8,1.89 -2.79,4.39 -2.79,7.06 V 217.62 H 635 V 78.409998 c 0,-4.96 3.84,-9 8.56,-9 h 62.13 v -25.7 h -67.44 z"
   id="path8" />
</svg>
