<?xml version="1.0" encoding="UTF-8"?>
<!-- Created with Inkscape (http://www.inkscape.org/) -->
<svg width="529.17mm" height="529.17mm" version="1.1" viewBox="0 0 529.17 529.17" xml:space="preserve" xmlns="http://www.w3.org/2000/svg"><defs><clipPath id="clipPath2"><path transform="translate(-138 -750)" d="m0 1500h1500v-1500h-1500z"/></clipPath><clipPath id="clipPath4"><path transform="translate(-960.16 -550.42)" d="m0 1500h1500v-1500h-1500z"/></clipPath><clipPath id="clipPath6"><path transform="translate(-960.16 -550.42)" d="m0 1500h1500v-1500h-1500z"/></clipPath><clipPath id="clipPath8"><path transform="translate(-431.96 -731.67)" d="m0 1500h1500v-1500h-1500z"/></clipPath><clipPath id="clipPath10"><path transform="translate(-431.95 -822.21)" d="m0 1500h1500v-1500h-1500z"/></clipPath><clipPath id="clipPath12"><path transform="translate(-434.1 -685.14)" d="m0 1500h1500v-1500h-1500z"/></clipPath><clipPath id="clipPath14"><path transform="translate(-1031.4 -752.67)" d="m0 1500h1500v-1500h-1500z"/></clipPath><clipPath id="clipPath16"><path transform="translate(-940.91 -752.66)" d="m0 1500h1500v-1500h-1500z"/></clipPath><clipPath id="clipPath18"><path transform="translate(-1077.4 -752.67)" d="m0 1500h1500v-1500h-1500z"/></clipPath><clipPath id="clipPath20"><path transform="translate(-1152.4 -412.36)" d="m0 1500h1500v-1500h-1500z"/></clipPath><clipPath id="clipPath22"><path transform="translate(-1060.6 -438.74)" d="m0 1500h1500v-1500h-1500z"/></clipPath><clipPath id="clipPath24"><path transform="translate(-1004.8 -391.56)" d="m0 1500h1500v-1500h-1500z"/></clipPath><clipPath id="clipPath26"><path transform="translate(-946.66 -355.97)" d="m0 1500h1500v-1500h-1500z"/></clipPath><clipPath id="clipPath28"><path transform="translate(-833.71 -271.15)" d="m0 1500h1500v-1500h-1500z"/></clipPath><clipPath id="clipPath30"><path transform="translate(-797.08 -313.35)" d="m0 1500h1500v-1500h-1500z"/></clipPath><clipPath id="clipPath32"><path transform="translate(-767.84 -310.01)" d="m0 1500h1500v-1500h-1500z"/></clipPath><clipPath id="clipPath34"><path transform="translate(-625.9 -280.42)" d="m0 1500h1500v-1500h-1500z"/></clipPath><clipPath id="clipPath36"><path transform="translate(-571.4 -299.24)" d="m0 1500h1500v-1500h-1500z"/></clipPath><clipPath id="clipPath38"><path transform="translate(-522.01 -310.26)" d="m0 1500h1500v-1500h-1500z"/></clipPath><clipPath id="clipPath40"><path transform="translate(-545.65 -349.4)" d="m0 1500h1500v-1500h-1500z"/></clipPath><clipPath id="clipPath42"><path transform="translate(-491.83 -394.31)" d="m0 1500h1500v-1500h-1500z"/></clipPath><clipPath id="clipPath44"><path transform="translate(-1190.6 -489.75)" d="m0 1500h1500v-1500h-1500z"/></clipPath><clipPath id="clipPath46"><path transform="translate(-301.91 -1001.9)" d="m0 1500h1500v-1500h-1500z"/></clipPath><clipPath id="clipPath48"><path transform="translate(-1067.8 -1008.7)" d="m0 1500h1500v-1500h-1500z"/></clipPath><clipPath id="clipPath50"><path transform="translate(-440.29 -1066)" d="m0 1500h1500v-1500h-1500z"/></clipPath><clipPath id="clipPath52"><path transform="translate(-496.42 -1112.8)" d="m0 1500h1500v-1500h-1500z"/></clipPath><clipPath id="clipPath54"><path transform="translate(-554.78 -1148)" d="m0 1500h1500v-1500h-1500z"/></clipPath><clipPath id="clipPath56"><path transform="translate(-668.33 -1232)" d="m0 1500h1500v-1500h-1500z"/></clipPath><clipPath id="clipPath58"><path transform="translate(-704.65 -1189.5)" d="m0 1500h1500v-1500h-1500z"/></clipPath><clipPath id="clipPath60"><path transform="translate(-733.92 -1192.7)" d="m0 1500h1500v-1500h-1500z"/></clipPath><clipPath id="clipPath62"><path transform="translate(-876.06 -1221.3)" d="m0 1500h1500v-1500h-1500z"/></clipPath><clipPath id="clipPath64"><path transform="translate(-930.42 -1202.1)" d="m0 1500h1500v-1500h-1500z"/></clipPath><clipPath id="clipPath66"><path transform="translate(-979.75 -1190.7)" d="m0 1500h1500v-1500h-1500z"/></clipPath><clipPath id="clipPath68"><path transform="translate(-955.83 -1151.7)" d="m0 1500h1500v-1500h-1500z"/></clipPath><clipPath id="clipPath70"><path transform="translate(-1009.3 -1106.4)" d="m0 1500h1500v-1500h-1500z"/></clipPath><clipPath id="clipPath72"><path transform="translate(-1014.9 -484.19)" d="m0 1500h1500v-1500h-1500z"/></clipPath><clipPath id="clipPath74"><path transform="translate(-480.89 -1017.2)" d="m0 1500h1500v-1500h-1500z"/></clipPath><clipPath id="clipPath76"><path transform="translate(-1142 -351.58)" d="m0 1500h1500v-1500h-1500z"/></clipPath><clipPath id="clipPath78"><path transform="translate(-353.9 -1148.1)" d="m0 1500h1500v-1500h-1500z"/></clipPath></defs><g transform="matrix(.26458 0 0 .26458 4.938e-6 0)"><path transform="matrix(1.3333 0 0 -1.3333 184 1e3)" d="m0 0c0 338 274 612 612 612s612-274 612-612-274-612-612-612-612 274-612 612" clip-path="url(#clipPath2)" fill="#e51f22"/><path transform="matrix(1.3333 0 0 -1.3333 1280.2 1266.1)" d="m0 0c-26.362 20.923-34.521 25.101-43.928 6.57-5.027-11.354-14.433-11.953-24.481 0-15.064 17.934-18.197 14.945-39.538-5.972-18.824-19.126-58.365-20.323-71.542 7.17-2.516 5.976 6.897 11.355 11.294 5.382 26.983-31.678 62.132-2.991 38.283 30.485-21.341 29.286-51.464 68.139-78.454 100.41-23.212 27.499-50.53 52.003-56.809 52.003-11.3 0-9.409 14.945 0 13.748 11.3-1.794 29.199 10.759 53.674 37.655 33.892 37.061 58.669 78.302 82.51 110.58 26.369 35.267 17.577 53.201-7.527 49.612-11.919-1.794-13.812 9.562-1.879 12.552 11.293 2.986 27.612 0 36.397-6.572 13.809-10.757 25.105-11.358 33.892-5.381 21.961 15.537 69.988 22.71 84.421-18.533 2.517-7.767-7.522-13.745-12.55-4.179-17.573 34.665-51.79 25.702-99.481-31.083-31.386-37.057-54.906-73.515-86.912-111.77 38.276-45.426 135.56-160.19 178.87-209.8 30.747-35.86 55.228-34.66 67.148-5.973 4.395 10.758 15.689 4.184 11.922-5.381-15.691-38.252-56.476-36.458-75.306-21.515m-206.47 378.99c-11.307 31.082-42.057 32.873-57.746 14.341-10.668-11.95-15.058-36.459-15.691-50.202-1.254-42.44-3.134-90.859-3.134-139.87 0-49.013 1.88-101.01 3.134-143.45 0.633-20.324 10.041-52.002 34.514-53.792 13.188-0.602 13.188-13.75-1.248-12.555-8.158 0.602-24.48 4.185-33.266 11.359-16.943 13.744-24.473 14.94-36.399-2.395-6.902-10.159-16.316-8.964-23.845 2.395-13.809 20.916-21.343 14.94-45.821-5.976-20.71-17.934-64.012-13.755-75.936 25.103-2.512 7.766 8.156 13.743 11.924 3.583 11.293-31.082 42.052-32.873 57.743-14.342 10.664 11.954 15.057 36.457 15.689 50.203 1.254 42.441 3.131 90.852 3.131 139.86 0 49.011-1.877 97.43-3.131 139.87-0.632 13.743-5.025 38.252-15.689 50.202-15.691 18.532-46.45 16.741-57.743-14.341-3.768-10.165-14.436-4.188-11.924 3.583 11.924 38.852 55.226 43.034 75.936 25.104 24.478-20.918 32.012-26.895 45.821-5.977 6.897 10.163 16.943 10.163 23.845 0 13.806-20.918 21.343-14.941 45.811 5.977 20.713 17.93 64.025 13.748 75.947-25.104 2.507-7.771-8.166-13.748-11.922-3.583" clip-path="url(#clipPath4)" fill="#f4f4f4"/><path transform="matrix(1.3333 0 0 -1.3333 1280.2 1266.1)" d="m0 0c-26.362 20.923-34.521 25.101-43.928 6.57-5.027-11.354-14.433-11.953-24.481 0-15.064 17.934-18.197 14.945-39.538-5.972-18.824-19.126-58.365-20.323-71.542 7.17-2.516 5.976 6.897 11.355 11.294 5.382 26.983-31.678 62.132-2.991 38.283 30.485-21.341 29.286-51.464 68.139-78.454 100.41-23.212 27.499-50.53 52.003-56.809 52.003-11.3 0-9.409 14.945 0 13.748 11.3-1.794 29.199 10.759 53.674 37.655 33.892 37.061 58.669 78.302 82.51 110.58 26.369 35.267 17.577 53.201-7.527 49.612-11.919-1.794-13.812 9.562-1.879 12.552 11.293 2.986 27.612 0 36.397-6.572 13.809-10.757 25.105-11.358 33.892-5.381 21.961 15.537 69.988 22.71 84.421-18.533 2.517-7.767-7.522-13.745-12.55-4.179-17.573 34.665-51.79 25.702-99.481-31.083-31.386-37.057-54.906-73.515-86.912-111.77 38.276-45.426 135.56-160.19 178.87-209.8 30.747-35.86 55.228-34.66 67.148-5.973 4.395 10.758 15.689 4.184 11.922-5.381-15.691-38.252-56.476-36.458-75.306-21.515zm-206.47 378.99c-11.307 31.082-42.057 32.873-57.746 14.341-10.668-11.95-15.058-36.459-15.691-50.202-1.254-42.44-3.134-90.859-3.134-139.87 0-49.013 1.88-101.01 3.134-143.45 0.633-20.324 10.041-52.002 34.514-53.792 13.188-0.602 13.188-13.75-1.248-12.555-8.158 0.602-24.48 4.185-33.266 11.359-16.943 13.744-24.473 14.94-36.399-2.395-6.902-10.159-16.316-8.964-23.845 2.395-13.809 20.916-21.343 14.94-45.821-5.976-20.71-17.934-64.012-13.755-75.936 25.103-2.512 7.766 8.156 13.743 11.924 3.583 11.293-31.082 42.052-32.873 57.743-14.342 10.664 11.954 15.057 36.457 15.689 50.203 1.254 42.441 3.131 90.852 3.131 139.86 0 49.011-1.877 97.43-3.131 139.87-0.632 13.743-5.025 38.252-15.689 50.202-15.691 18.532-46.45 16.741-57.743-14.341-3.768-10.165-14.436-4.188-11.924 3.583 11.924 38.852 55.226 43.034 75.936 25.104 24.478-20.918 32.012-26.895 45.821-5.977 6.897 10.163 16.943 10.163 23.845 0 13.806-20.918 21.343-14.941 45.811 5.977 20.713 17.93 64.025 13.748 75.947-25.104 2.507-7.771-8.166-13.748-11.922-3.583z" clip-path="url(#clipPath6)" fill="none" stroke="#fff" stroke-miterlimit="10" stroke-width="1.226"/><g fill="#f4f4f4"><path transform="matrix(1.3333 0 0 -1.3333 575.95 1024.4)" d="m 0,0 c -15.198,0 -27.51,9.971 -27.51,22.275 0,12.3 12.312,22.27 27.51,22.27 15.194,0 27.52,-9.97 27.52,-22.27 C 27.52,9.971 15.194,0 0,0" clip-path="url(#clipPath8)"/><path transform="matrix(1.3333 0 0 -1.3333 575.94 903.73)" d="m 0,0 c -10.284,0 -18.614,6.876 -18.614,15.362 0,8.488 8.33,15.367 18.614,15.367 10.28,0 18.617,-6.879 18.617,-15.367 C 18.617,6.876 10.28,0 0,0" clip-path="url(#clipPath10)"/><path transform="matrix(1.3333 0 0 -1.3333 578.8 1086.5)" d="m0 0c-10.283 0-18.613-6.877-18.613-15.362 0-8.488 8.33-15.365 18.613-15.365 10.28 0 18.617 6.877 18.617 15.365 0 8.485-8.337 15.362-18.617 15.362" clip-path="url(#clipPath12)"/><path transform="matrix(1.3333 0 0 -1.3333 1375.3 996.45)" d="m0 0c0-15.198-9.971-27.509-22.275-27.509-12.3 0-22.271 12.311-22.271 27.509 0 15.194 9.971 27.52 22.271 27.52 12.304 0 22.275-12.326 22.275-27.52" clip-path="url(#clipPath14)"/><path transform="matrix(1.3333 0 0 -1.3333 1254.5 996.46)" d="m0 0c0-10.283-6.876-18.613-15.362-18.613-8.488 0-15.367 8.33-15.367 18.613 0 10.28 6.879 18.617 15.367 18.617 8.486 0 15.362-8.337 15.362-18.617" clip-path="url(#clipPath16)"/><path transform="matrix(1.3333 0 0 -1.3333 1436.6 996.44)" d="m0 0c0-10.284 6.876-18.614 15.362-18.614 8.488 0 15.364 8.33 15.364 18.614 0 10.28-6.876 18.617-15.364 18.617-8.486 0-15.362-8.337-15.362-18.617" clip-path="url(#clipPath18)"/></g><path transform="matrix(1.3333 0 0 -1.3333 1536.6 1450.2)" d="m0 0-2.622-2.871c-96.706-113.78-240.87-185.97-401.9-185.97-161 0-305.14 72.167-401.85 185.92l85.926 78.46c75.785-89.833 189.19-146.9 315.92-146.9 127.64 0 241.77 57.885 317.55 148.84l0.913 1.032z" clip-path="url(#clipPath20)" fill="#231f20"/><g fill="#f4f4f4"><path transform="matrix(1.3333 0 0 -1.3333 1414.1 1415)" d="m0 0-9.925-8.727 16.364-18.607-41.703-3.668-15.828-13.911 51.176 5.297-10.529-44.58 14.271 12.546 7.952 38.247 15.499-17.626 9.924 8.726z" clip-path="url(#clipPath22)"/><path transform="matrix(1.3333 0 0 -1.3333 1339.7 1477.9)" d="m0 0-49.297-30.914 5.623-8.972 38.194 23.953 7.422-11.838-22.004-13.799 5.1-8.14 22.018 13.8 6.67-10.631-37.734-23.667 5.103-8.136 48.835 30.623z" clip-path="url(#clipPath24)"/><path transform="matrix(1.3333 0 0 -1.3333 1262.2 1525.4)" d="m0 0-10.914-4.475 11.555-28.187c0.625-1.52 1.841-4.203 3.906-8.079-2.074 1.037-4.026 1.773-6.083 2.463l-51.505 16.534-8.29-3.399 21.375-52.128 10.911 4.467-11.222 27.378c-0.67 1.618-2.103 4.569-4.188 8.787 2.677-1.377 5.452-2.361 8.269-3.212l49.273-15.683 8.28 3.404z" clip-path="url(#clipPath26)"/><path transform="matrix(1.3333 0 0 -1.3333 1111.6 1638.5)" d="m0 0-1.36 6.295-10.745-5.103 0.249-1.168c2.044-9.504 6.44-11.24 16.26-9.133l31.28 6.727c10.358 2.227 13.09 5.608 10.864 15.959l-1.298 6.08c-2.227 10.363-6.116 12.319-16.471 10.092l-34.374-7.384-2.708 12.596 38.97 8.378 1.394-6.52 10.808 4.784-0.317 1.498c-2.227 10.354-6.207 12.289-16.576 10.069l-34.051-7.326c-10.361-2.223-13.199-5.625-10.973-15.984l1.625-7.583c2.225-10.353 6.225-12.282 16.572-10.062l34.385 7.386 2.546-11.846z" clip-path="url(#clipPath28)"/><path transform="matrix(1.3333 0 0 -1.3333 1062.8 1582.2)" d="m0 0-13.045-1.181 5.066-56.092 13.046 1.179z" clip-path="url(#clipPath30)"/><path transform="matrix(1.3333 0 0 -1.3333 1023.8 1586.6)" d="m0 0-11.779 0.439-1.122-30.423c-0.069-1.636-0.069-4.584 0.205-8.959-1.452 1.8-2.931 3.27-4.517 4.755l-40.026 36.316-8.942 0.326-2.092-56.261 11.779-0.43 1.094 29.539c0.067 1.747-0.036 5.025-0.189 9.721 1.888-2.357 3.984-4.403 6.207-6.342l38.357-34.616 8.932-0.328z" clip-path="url(#clipPath32)"/><path transform="matrix(1.3333 0 0 -1.3333 834.53 1626.1)" d="m0 0 1.358 6.185-12.971 0.509c-0.095-0.432-0.187-0.859-0.283-1.284-2.177-9.913 0.877-13.273 10.904-15.479l37.966-8.358c10.35-2.281 14.248-0.344 16.527 10.004l6.38 29.007c2.28 10.348-0.436 13.744-10.784 16.02l-37.966 8.358c-10.35 2.279-14.244 0.341-16.516-10.004l-4.182-18.988 33.386-7.353 2.064 9.392-20.913 4.596 2.708 12.275 39.995-8.806-7.678-34.878z" clip-path="url(#clipPath34)"/><path transform="matrix(1.3333 0 0 -1.3333 761.87 1601)" d="m0 0-24.26 9.332-3.605-9.379 60.653-23.327 3.615 9.372-24.16 9.297 16.622 43.224-12.236 4.712z" clip-path="url(#clipPath36)"/><path transform="matrix(1.3333 0 0 -1.3333 696.01 1586.3)" d="m0 0c9.163-5.301 13.454-4.632 18.754 4.527l14.859 25.69c5.301 9.166 3.736 13.221-5.423 18.518l-35.893 20.758c-9.163 5.297-13.464 4.623-18.754-4.536l-14.857-25.687c-5.29-9.16-3.736-13.217 5.423-18.514l35.891-20.756" clip-path="url(#clipPath38)"/></g><path transform="matrix(1.3333 0 0 -1.3333 727.53 1534.1)" d="m0 0-17.854-30.891-37.41 21.635 17.864 30.884z" clip-path="url(#clipPath40)" fill="#231f20"/><g fill="#f4f4f4"><path transform="matrix(1.3333 0 0 -1.3333 655.77 1474.2)" d="m0 0-8.943 7.675-19.807-23.108c-1.066-1.242-2.908-3.543-5.414-7.144-0.021 2.322-0.255 4.39-0.577 6.539l-8.724 53.332-6.793 5.82-36.646-42.724 8.942-7.673 19.242 22.432c1.143 1.332 3.105 3.957 5.916 7.732-0.011-3.02 0.375-5.931 0.907-8.829l8.46-50.955 6.791-5.822z" clip-path="url(#clipPath42)"/><path transform="matrix(1.3333 0 0 -1.3333 1587.5 1347)" d="m0 0-5.701 3.304-3.518-11.626 1.066-0.615c8.586-4.98 12.915-2.852 18.054 6.024l16.397 28.255c5.424 9.353 4.755 13.743-4.604 19.172l-5.501 3.188c-9.356 5.426-13.496 3.836-18.929-5.522l-18.008-31.059-11.386 6.607 20.421 35.201 5.889-3.409 3.808 11.453-1.358 0.783c-9.348 5.427-13.552 3.736-18.976-5.62l-17.852-30.766c-5.424-9.356-4.808-13.843 4.551-19.266l6.847-3.965c9.357-5.431 13.556-3.743 18.989 5.607l18.006 31.064 10.706-6.214zm9.306 131.88-20.896-55.705 10.141-3.807 16.185 43.168 13.387-5.017-9.328-24.874 9.197-3.451 9.329 24.878 12.015-4.508-15.994-42.647 9.205-3.451 20.685 55.19zm52.946 16.909-10.723 2.086-0.474-13.553 5.367-1.041c10.624-2.057 14.02 0.809 16.083 11.428l6.54 33.726c2.062 10.622-0.022 14.547-10.643 16.609l-29.777 5.78c-10.622 2.061-14.02-0.8-16.084-11.421l-6.546-33.728c-2.057-10.625 0.018-14.551 10.637-16.612l6.682-1.292 5.29 12.607-12.159 2.357 6.887 35.482 35.806-6.947zm-35.551 86.231-0.942-13.351 57.388-4.051 0.936 13.351zm0.168 44.826 0.35-9.256 58.71-29.468-0.51 13.379-42.409 20.601 40.692 24.874-0.584 15.266zm41.59 60.49c0.789-4.056 0.397-6.064-3.331-6.789l-6.791-1.336c-3.718-0.732-4.851 0.981-5.643 5.032l-5.799 29.573 15.761 3.093zm-55.099 33.319 2.539-12.923 21.355 4.189 2.451-12.487-16.886-26.966 3.701-18.842 16.232 30.259 1.463-7.449c1.699-8.649 5.564-12.1 13.442-10.553l13.253 2.601c7.887 1.544 10.159 6.199 8.453 14.852l-9.491 48.401zm-23.728 65.564 20.975-55.619 10.133 3.82-16.264 43.097 13.358 5.036 9.367-24.834 9.187 3.464-9.374 24.831 11.998 4.528 16.063-42.569 9.169 3.466-20.772 55.088zm29.266 47.11-5.687-3.319 8.375-8.807 1.059 0.619c8.571 5.004 8.866 9.822 3.685 18.686l-16.469 28.234c-5.453 9.344-9.601 10.923-18.949 5.469l-5.49-3.207c-9.35-5.452-10.019-9.849-4.567-19.192l18.112-31.024-11.368-6.631-20.524 35.166 5.874 3.428-8.072 8.977-1.348-0.788c-9.351-5.452-9.964-9.943-4.511-19.285l17.941-30.737c5.454-9.343 9.658-11.024 19.01-5.568l6.837 3.989c9.349 5.455 9.962 9.946 4.499 19.288l-18.103 31.023 10.69 6.242zm-107.15-477.63c53.887 69.786 85.946 157.29 85.946 252.28 0 94.041-31.421 180.75-84.338 250.18l95.368 62.955c64.748-87.56 103.03-195.88 103.03-313.14 0-118.21-38.902-227.33-104.6-315.26z" clip-path="url(#clipPath44)"/><path transform="matrix(1.3333 0 0 -1.3333 402.55 664.1)" d="m0 0c2.043 3.587 3.656 4.847 6.95 2.97l6.004-3.422c3.306-1.877 3.036-3.911 0.997-7.495l-14.909-26.164-13.953 7.949zm19.953-61.167 6.516 11.431-18.896 10.77 6.291 11.036 30.376 9.393 9.496 16.667-32.027-12.296 3.746 6.586c4.361 7.661 3.696 12.794-3.275 16.771l-11.733 6.676c-6.971 3.974-11.734 1.936-16.095-5.717l-24.394-42.826zm-24.581-63.935 20.666 55.785-10.156 3.76-16.008-43.228-13.394 4.96 9.212 24.922-9.201 3.402-9.233-24.908-12.03 4.455 15.814 42.705-9.21 3.413-20.472-55.272zm-13.33-60.548 11.367 55.373-10.589 2.17-8.677-42.259-45.758 9.396-2.691-13.108zm-5.024-68.703 3.235 59.375-10.807 0.59-2.507-46.003-14.26 0.778 1.447 26.507-9.803 0.532-1.447-26.506-12.818 0.701 2.488 45.445-9.797 0.536-3.212-58.816zm2.802-37.866-0.773 9.234-60.038 26.732 1.12-13.344 43.344-18.625-39.508-26.739 1.286-15.237zm-11.503-71.155-25.613 7.526 20.227 17.096zm27.962-20.25-2.867 13.072-13.743 3.845-7.793 35.623 10.821 9.45-3.218 14.702-49.156-44.555 2.768-12.635zm-34.364-40.78c-1.584 3.812-1.588 5.866 1.921 7.313l6.386 2.654c3.499 1.456 4.952 3e-3 6.526-3.813l11.543-27.821-14.825-6.151zm60.591-21.724-5.05 12.159-20.089-8.337-4.884 11.745 11.207 29.773-7.361 17.718-9.91-32.857-2.917 7.007c-3.377 8.13-7.839 10.75-15.25 7.675l-12.472-5.173c-7.419-3.083-8.726-8.092-5.349-16.226l18.912-45.545zm-26.25-47.728-13.704 22.761-8.793-5.298 34.243-56.896 8.793 5.297-13.64 22.667 40.546 24.396-6.911 11.477zm1.831-75.157c-66.861 88.367-106.52 198.46-106.52 317.81 0 118.28 38.955 227.47 104.74 315.43l95.621-62.699c-54.099-69.861-86.296-157.54-86.296-252.73 0-96.142 32.84-184.61 87.914-254.81z" clip-path="url(#clipPath46)" stroke="#fff" stroke-miterlimit="10" stroke-width=".173"/></g><path transform="matrix(1.3333 0 0 -1.3333 1423.7 655.04)" d="m0 0-0.834 1.124c-75.773 91.978-190.55 150.62-319.03 150.62-127.57 0-241.64-57.82-317.42-148.68l-85.972 78.422c96.71 114.8 241.53 187.74 403.39 187.74 161.86 0 306.68-72.938 403.39-187.74l2.552-2.953z" clip-path="url(#clipPath48)" fill="#231f20"/><g fill="#f4f4f4"><path transform="matrix(1.3333 0 0 -1.3333 587.05 578.69)" d="m0 0 9.983 8.658-16.238 18.718 41.728 3.379 15.925 13.797-51.21-4.938 10.841 44.505-14.361-12.443-8.22-38.19-15.374 17.732-9.983-8.656z" clip-path="url(#clipPath50)"/><path transform="matrix(1.3333 0 0 -1.3333 661.89 516.31)" d="m0 0 49.508 30.57-5.559 9.011-38.362-23.685-7.339 11.888 22.102 13.646-5.044 8.176-22.115-13.646-6.592 10.676 37.894 23.403-5.044 8.173-49.049-30.284z" clip-path="url(#clipPath52)"/><path transform="matrix(1.3333 0 0 -1.3333 739.7 469.4)" d="m0 0 10.946 4.4-11.359 28.262c-0.612 1.525-1.808 4.215-3.848 8.106 2.07-1.052 4.016-1.798 6.066-2.502l51.389-16.896 8.312 3.342-21.008 52.273-10.945-4.388 11.033-27.457c0.658-1.621 2.073-4.578 4.129-8.817-2.67 1.4-5.436 2.402-8.254 3.273l-49.156 16.023-8.305-3.342z" clip-path="url(#clipPath54)"/><path transform="matrix(1.3333 0 0 -1.3333 891.1 357.36)" d="m0 0 1.314-6.306 10.779 5.029-0.239 1.173c-1.977 9.515-6.362 11.285-16.196 9.244l-31.325-6.508c-10.375-2.154-13.133-5.517-10.977-15.884l1.257-6.089c2.154-10.376 6.029-12.363 16.398-10.207l34.426 7.144 2.621-12.614-39.027-8.106-1.349 6.529-10.845-4.707 0.311-1.497c2.156-10.374 6.121-12.334 16.502-10.187l34.102 7.087c10.375 2.151 13.239 5.535 11.084 15.908l-1.57 7.595c-2.153 10.368-6.138 12.325-16.502 10.178l-34.432-7.15-2.467 11.868z" clip-path="url(#clipPath56)"/><path transform="matrix(1.3333 0 0 -1.3333 939.53 413.96)" d="m0 0 13.057 1.087-4.678 56.128-13.051-1.088z" clip-path="url(#clipPath58)"/><path transform="matrix(1.3333 0 0 -1.3333 978.56 409.78)" d="m0 0 11.775-0.519 1.336 30.411c0.079 1.636 0.099 4.586-0.145 8.963 1.444-1.813 2.911-3.294 4.485-4.787l39.77-36.595 8.941-0.388 2.486 56.242-11.777 0.518-1.302-29.539c-0.08-1.743 3e-3 -5.019 0.12-9.718-1.867 2.371-3.949 4.432-6.163 6.383l-38.109 34.883-8.931 0.393z" clip-path="url(#clipPath60)"/><path transform="matrix(1.3333 0 0 -1.3333 1168.1 371.65)" d="m0 0-1.402-6.175 12.965-0.598c0.098 0.426 0.197 0.855 0.293 1.279 2.247 9.898-0.783 13.277-10.797 15.557l-37.908 8.62c-10.329 2.356-14.241 0.443-16.596-9.886l-6.577-28.961c-2.356-10.334 0.338-13.746 10.667-16.098l37.912-8.62c10.328-2.352 14.24-0.44 16.585 9.885l4.312 18.962-33.331 7.585-2.132-9.379 20.878-4.743-2.791-12.254-39.933 9.085 7.921 34.826z" clip-path="url(#clipPath62)"/><path transform="matrix(1.3333 0 0 -1.3333 1240.6 397.26)" d="m0 0 24.195-9.505 3.666 9.355-60.486 23.75-3.679-9.344 24.093-9.466-16.923-43.107 12.201-4.798z" clip-path="url(#clipPath64)"/><path transform="matrix(1.3333 0 0 -1.3333 1306.3 412.4)" d="m0 0c-9.124 5.366-13.422 4.727-18.784-4.397l-15.039-25.587c-5.363-9.127-3.825-13.192 5.295-18.554l35.746-21.009c9.125-5.358 13.428-4.718 18.783 4.402l15.036 25.589c5.359 9.12 3.829 13.189-5.295 18.548l-35.742 21.008" clip-path="url(#clipPath66)"/></g><path transform="matrix(1.3333 0 0 -1.3333 1274.4 464.36)" d="m0 0 18.072 30.764 37.261-21.898-18.081-30.755z" clip-path="url(#clipPath68)" fill="#231f20"/><path transform="matrix(1.3333 0 0 -1.3333 1345.8 524.75)" d="m0 0 8.89-7.737 19.966 22.966c1.076 1.24 2.933 3.528 5.465 7.108 2e-3 -2.318 0.224-4.391 0.533-6.542l8.351-53.39 6.748-5.87 36.948 42.472-8.888 7.73-19.402-22.295c-1.15-1.322-3.128-3.935-5.966-7.691 0.029 3.02-0.337 5.932-0.846 8.834l-8.106 51.018-6.75 5.866z" clip-path="url(#clipPath70)" fill="#f4f4f4"/><g fill="none" stroke="#f4f4f4" stroke-miterlimit="10" stroke-width="15.869"><path transform="matrix(1.3333 0 0 -1.3333 1353.2 1354.4)" d="m0 0c-68.582-67.832-162.88-109.71-266.96-109.71-104.04 0-198.31 41.851-266.88 109.64" clip-path="url(#clipPath72)"/><path transform="matrix(1.3333 0 0 -1.3333 641.19 643.76)" d="m0 0c68.588 67.872 162.92 109.78 267.03 109.78 104.11 0 198.43-41.904 267.01-109.76" clip-path="url(#clipPath74)"/><path transform="matrix(1.3333 0 0 -1.3333 1522.6 1531.2)" d="m0 0c-101.14-100.28-240.35-162.22-394.03-162.22-153.75 0-293.02 62-394.17 162.36" clip-path="url(#clipPath76)"/><path transform="matrix(1.3333 0 0 -1.3333 471.87 469.14)" d="m0 0c101.14 100.28 240.35 162.22 394.02 162.22 153.82 0 293.14-62.056 394.3-162.5" clip-path="url(#clipPath78)"/></g></g></svg>
