<?xml version="1.0" standalone="no"?>
<!DOCTYPE svg PUBLIC "-//W3C//DTD SVG 1.1//EN" "http://www.w3.org/Graphics/SVG/1.1/DTD/svg11.dtd">
<svg xmlns="http://www.w3.org/2000/svg" width="182.61000061035156" height="84.45899963378906" version="1.1" viewBox="0 0 182.61 84.459">
 <g transform="translate(-428.44 -191.85)">
  <g fill="#ed1c24" fill-rule="evenodd" stroke="#ed1c24">
   <path d="m438.35 192.23-9.8557 51.744h11.187l10.053-51.891c0-3.2e-4 -11.384 0.14778-11.384 0.1475z" stroke-miterlimit="2.6131" stroke-width=".0762"/>
   <path d="m438.35 192.24-9.8556 51.744h11.187l10.053-51.891-11.384 0.14761z" stroke-miterlimit="10" stroke-width=".058491"/>
   <path d="m479.59 191.89-16.558 20.895c0-1e-4 2.9077 0.14799 2.9077 0.14799 0-1e-4 2.1188 0.34481 2.1188 0.34481 0-1.1e-4 1.9714 0.64061 1.9714 0.64061 0-2.1e-4 1.7739 0.98559 1.7739 0.98559 0-1.1e-4 1.0842 1.6262 1.0842 1.6262l0.542 1.9712 0.2956 2.6116-0.2956 2.1193-0.68978 2.4639c0-7e-5 -1.0841 2.7596-1.0841 2.7596 0-1.1e-4 -1.1827 2.4641-1.1827 2.4641l-1.0842 2.9074c0-1.1e-4 -2.1683 4.2876-2.1683 4.2876 0-2.2e-4 -1.4295 3.5477-1.4295 3.5477 0-1.1e-4 -0.98541 1.9713-0.98541 1.9713h-6.8004l0.98531-4.7307c0-1.1e-4 0.78888-3.4005 0.78888-3.4005 0-1e-4 0.83731-4.4352 0.83731-4.4352 0-1.1e-4 0.44391-2.809 0.44391-2.809l0.3448-3.2525-0.3448-1.2811c0-1.1e-4 -2.0701-0.64029-2.0701-0.64029l-3.1043-0.1481c0-1e-4 -2.415 0.1481-2.415 0.1481h-9.6095l0.14799-1.1337 22.767-30.06c0-1.1e-4 12.813 0 12.813-1.1e-4z" stroke-miterlimit="2.6131" stroke-width=".0762"/>
   <path d="m479.59 191.89s-16.558 20.895-16.558 20.895l2.9077 0.14799s2.1187 0.34481 2.1187 0.34481l1.9715 0.64061s1.7739 0.98559 1.7739 0.98559l1.0842 1.6262 0.5419 1.9712 0.29559 2.6116-0.29559 2.1193-0.68971 2.4639-1.0841 2.7596s-1.1828 2.464-1.1828 2.464l-1.0842 2.9075s-2.1682 4.2875-2.1682 4.2875-1.4295 3.5477-1.4295 3.5477l-0.98538 1.9713h-6.8004l0.9853-4.7307 0.78892-3.4004 0.83728-4.4352 0.4439-2.8091 0.34481-3.2524-0.34481-1.2812s-2.0701-0.64022-2.0701-0.64022l-3.1043-0.1481-2.415 0.1481h-9.6094l0.14788-1.1337s22.767-30.061 22.767-30.061h12.813z" stroke-miterlimit="10" stroke-width=".058491"/>
  </g>
  <path d="m495.26 223.08 0.98549-6.0618c0-1e-4 1.1336-5.8641 1.1336-5.8641 0-1.1e-4 0.6403-3.5973 0.6403-3.5973 1e-4 -2.9e-4 0-2.1193 0-2.1193 1e-4 -7e-5 -1.4291-2.1189-1.4291-2.1189 0-1.1e-4 -2.2669-0.3447-2.2669-0.3447 1e-4 -1.1e-4 -8.9194 0-8.9194 0 1.1e-4 -1.1e-4 -0.7887 0.8376-0.7887 0.8376 1e-4 -2.9e-4 -0.78828-0.9857-0.78828-0.9857 1e-4 -2.1e-4 -5.4207 0.1481-5.4207 0.1481 0-1.1e-4 -0.64071 1.3304-0.64071 1.3304 1e-4 -1e-4 -3.5481 18.776-3.5481 18.776h6.1599l2.1193-12.123s1.1331-1.9214 1.1331-1.9214c1.1e-4 -1.7e-4 1.2814-0.29598 1.2814-0.29598 0-3.1e-4 5.864 0 5.864 0 0-3.1e-4 1.1337 0.7885 1.1337 0.7885 0-1.1e-4 -0.83781 4.2379-0.83781 4.2379l-1.5767 9.4619c1.1e-4 0 5.7655-0.14771 5.7656-0.14771" fill="#1f1a17" fill-rule="evenodd"/>
  <path d="m495.26 223.09 0.98552-6.0618 1.1337-5.8641 0.64019-3.5973v-2.1193l-1.4291-2.1189s-2.2669-0.3447-2.2669-0.3447h-8.9193s-0.78877 0.8376-0.78877 0.8376-0.78832-0.98569-0.78832-0.98569l-5.4207 0.14809-0.64071 1.3304-3.548 18.776h6.1599l2.1193-12.123 1.133-1.9214s1.2814-0.29601 1.2814-0.29601h5.864l1.1337 0.78849-0.83778 4.2378-1.5767 9.462 5.7656-0.14771z" fill="none" stroke="#1f1a17" stroke-miterlimit="10" stroke-width=".058491"/>
  <path d="m501.28 223.08h14.784l1.4295-0.83792c1.1e-4 0 0.93592-1.3799 0.93592-1.3799 1e-4 -2.1e-4 0.88741-1.5277 0.88741-1.5277 7e-5 0 2.0697-12.074 2.0697-12.074v-1.6753c0-7e-5 -0.78881-1.4295-0.78881-1.4295 0-1.1e-4 -1.2809-0.98549-1.2809-0.98549 7e-5 -3.2e-4 -15.425 0-15.425 0 1e-4 -3.2e-4 -1.4783 1.6261-1.4783 1.6261 0-2.1e-4 -0.98559 1.9717-0.98559 1.9717l-0.49301 1.1332-0.49258 1.1337c0-1.8e-4 -1.1337 6.8496-1.1337 6.8496 0-1.1e-4 -0.19667 2.1191-0.19667 2.1191 1e-4 0-0.29591 2.1189-0.29591 2.1189 0-7e-5 0.0493 1.3308 0.0493 1.3308 1e-4 -1.1e-4 0.98541 0.8867 0.98541 0.8867 1.1e-4 -1e-4 1.4295 0.7395 1.4295 0.7395" fill="#1f1a17" fill-rule="evenodd"/>
  <path d="m501.28 223.09h14.784l1.4295-0.83799 0.93588-1.3798 0.88741-1.5278 2.0697-12.073v-1.6753l-0.78892-1.4295-1.2808-0.98552h-15.425l-1.4783 1.6261-0.98559 1.9717-0.49301 1.1332-0.49262 1.1337-1.1337 6.8496-0.19671 2.1191-0.29591 2.1189 0.0493 1.3307 0.98541 0.88678 1.4295 0.73949z" fill="none" stroke="#1f1a17" stroke-miterlimit="10" stroke-width=".058491"/>
  <path d="m507.14 209.04s-0.83771 0.98548-0.83771 0.98548l-0.49258 2.2669c7e-5 -1.1e-4 -0.4929 2.7596-0.4929 2.7596 0-7e-5 -0.14771 2.1681-0.14771 2.1681 0-7e-5 0.98541 0.44351 0.98541 0.44351h6.5049c1.1e-4 0 1.4291-0.78821 1.4291-0.78821 0-1.8e-4 0.4928-2.2669 0.4928-2.2669 1.1e-4 -1.1e-4 0.49251-5.0758 0.49251-5.0758 0-1.1e-4 -1.3303-1.1332-1.3303-1.1332 0-1e-4 -4.8295 0-4.8295 0 0-1e-4 -1.1333 0-1.1333 0 0-1e-4 -0.64071 0.64068-0.64071 0.64051" fill="#fff" fill-rule="evenodd"/>
  <path d="m507.14 209.04-0.83767 0.98548-0.49262 2.2669-0.49301 2.7596-0.1476 2.1681 0.98541 0.44351h6.5049l1.4291-0.78832 0.4928-2.2668s0.49251-5.0758 0.49251-5.0758l-1.3303-1.1332h-4.8295-1.1333l-0.64071 0.6405z" fill="none" stroke="#fff" stroke-miterlimit="10" stroke-width=".058491"/>
  <path d="m544.64 203.08-4.3366 24.492c1e-4 -2.2e-4 -0.69011 1.7738-0.69011 1.7738 1.1e-4 -1.1e-4 -0.68978 1.1827-0.68978 1.1827 0-1.1e-4 -0.78842 0.5915-0.78842 0.5915 0-1.1e-4 -1.0348 0.93659-1.0348 0.93659 0-7e-5 -1.0842 0.49262-1.0842 0.49262 0-1.1e-4 -1.1827 0.19699-1.1827 0.19699h-14.784c1e-4 0 0.73939-5.3713 0.73939-5.3713 0-2.1e-4 10.792 0 10.792 0 1e-4 -2.1e-4 1.5772-0.24652 1.5772-0.24652l0.9853-0.54208c0-1.1e-4 0.59151-1.7247 0.59151-1.7247 0-2.1e-4 0.0985-1.7739 0.0985-1.7739h-10.497l-1.1331-0.64061c1e-4 -1.1e-4 -0.69011-0.69011-0.69011-0.69011 0-1e-4 -0.49269-1.0842-0.49269-1.0842 0-2.1e-4 -0.14802-1.5768-0.14802-1.5768 1e-4 0 2.9569-15.918 2.9569-15.918 1.1e-4 -3.2e-4 5.9132 0 5.9132 0 1.1e-4 -3.2e-4 -2.5622 13.404-2.5622 13.404 0-1e-4 0.14771 0.59151 0.14771 0.59151 0-1.1e-4 0.54201 0.39408 0.54201 0.39408 7e-5 -1e-4 0.64057 0.29591 0.64057 0.29591 1.1e-4 -2.1e-4 6.4064 0 6.4064 0 0-2.1e-4 2.809-14.784 2.809-14.784 0-1.1e-4 5.9135 0 5.9135-1.1e-4" fill="#1f1a17" fill-rule="evenodd"/>
  <path d="m544.64 203.08-4.3366 24.492-0.6901 1.7738-0.68983 1.1828-0.78838 0.59151-1.0348 0.93648-1.0842 0.49262-1.1826 0.1971h-14.784l0.73949-5.3714h10.792s1.5772-0.24638 1.5772-0.24638l0.98527-0.54212 0.59161-1.7248 0.0985-1.7738h-10.497s-1.1332-0.64057-1.1332-0.64057l-0.69-0.69011-0.49272-1.0842s-0.148-1.5769-0.148-1.5769l2.9569-15.918h5.9131l-2.5621 13.404 0.1476 0.59161 0.54197 0.39409 0.64061 0.29591h6.4065l2.8089-14.784 5.9135-1e-4z" fill="none" stroke="#1f1a17" stroke-miterlimit="10" stroke-width=".058491"/>
  <g fill-rule="evenodd">
   <path d="m489.79 224.36s3.2528 51.744 3.2528 51.744c1e-4 -7e-5 -12.468 0-12.468 0 1e-4 -7e-5 -0.54212-7.6877-0.54212-7.6877h-13.453s-3.6964 7.8848-3.6964 7.8848c0-1.8e-4 -12.812 0-12.812 0 0-1.8e-4 23.802-52.088 23.802-52.088l15.917 0.1476" fill="#1f1a17"/>
   <path d="m489.79 224.36s3.2528 51.744 3.2528 51.744h-12.468s-0.54212-7.6877-0.54212-7.6877h-13.453s-3.6964 7.8848-3.6964 7.8848h-12.812l23.802-52.088 15.917 0.1476" fill="#ed1c24"/>
   <path d="m477.97 243.98-6.5049 13.848h7.2933c1.1e-4 0-0.78849-13.848-0.78842-13.848" fill="#fff"/>
  </g>
  <path d="m477.97 243.98-6.505 13.848h7.2933l-0.78829-13.848z" fill="none" stroke="#fff" stroke-miterlimit="10" stroke-width=".058491"/>
  <path d="m497.58 236.64h16.854l1.5771 0.78839 0.19703 1.3308c7e-5 -1.1e-4 0.14799 2.6116 0.14799 2.6116 1e-4 0-0.29591 3.5975-0.29591 3.5975 0-1.1e-4 -0.64068 2.9074-0.64068 2.9074 7e-5 -1.1e-4 -0.68961 3.2525-0.68961 3.2525 0-1e-4 -1.0842 2.8089-1.0842 2.8089l-1.6262 1.6263c0-1.1e-4 -1.6263 0.6405-1.6263 0.6405 1.1e-4 -1.1e-4 -9.3137 0-9.3137 0 0-1.1e-4 0.29581-2.9566 0.29581-2.9566 0-1e-4 0.4434-2.4641 0.4434-2.4641 1.1e-4 -1.1e-4 6.0612 0.0986 6.0612 0.0986 7e-5 -1.1e-4 1.2816-1.922 1.2816-1.922 0-1e-4 0.39402-2.0204 0.39402-2.0204 0-1.1e-4 0.49269-2.6609 0.49269-2.6609l0.14802-2.4152c0-1.1e-4 -7.6386 0-7.6386 0 0-1.1e-4 -1.2318 5.4209-1.2318 5.4209l-1.0346 4.8295-2.0207 10.694c1e-4 0-5.5686-0.2463-5.5686-0.2463v-0.93642l4.8785-24.985" fill="#1f1a17" fill-rule="evenodd"/>
  <path d="m497.58 236.64h16.854l1.5772 0.78832 0.19688 1.3309 0.1481 2.6115s-0.29587 3.5975-0.29587 3.5975l-0.64072 2.9074-0.68961 3.2525-1.0843 2.8089-1.6261 1.6263-1.6263 0.64047h-9.3137l0.2958-2.9566 0.44341-2.4641s6.0612 0.0986 6.0612 0.0986 1.2816-1.922 1.2816-1.922l0.39398-2.0204 0.49262-2.6609 0.14809-2.4151h-7.6386s-1.2318 5.4208-1.2318 5.4208l-1.0346 4.8295-2.0207 10.694-5.5686-0.24627v-0.93642l4.8785-24.985z" fill="none" stroke="#1f1a17" stroke-miterlimit="10" stroke-width=".058491"/>
  <path d="m519.76 236.34s16.854 7e-5 16.854 7e-5c0-7e-5 1.4782 0.83782 1.4782 0.83782 0-1.1e-4 0.3447 1.2812 0.3447 1.2812 7e-5 -1.1e-4 0.14809 2.6118 0.14809 2.6118 1.1e-4 -1.1e-4 -0.3448 3.5974-0.3448 3.5974l-0.59161 2.957c1.1e-4 -1e-4 -0.68989 3.2523-0.68989 3.2523 0-1.1e-4 -1.1334 2.7597-1.1334 2.7597 0-1.1e-4 -1.6262 1.6754-1.6262 1.6754 0-8e-5 -1.6263 0.6406-1.6263 0.6406h-9.2153s0.24642-2.9569 0.24642-2.9569l0.3943-2.5131c7e-5 -1.1e-4 6.1105 0.0986 6.1105 0.0986 0-1.1e-4 1.2814-1.8725 1.2814-1.8725 0-1.1e-4 0.3447-2.0697 0.3447-2.0697 1.1e-4 0 0.49308-2.6122 0.49308-2.6122 0-1.1e-4 0.1476-2.4145 0.1476-2.4145 0-7e-5 -7.5888 0-7.5888 0 0-7e-5 -1.232 5.4208-1.232 5.4208 0-2.1e-4 -1.0348 4.8294-1.0348 4.8294l-2.0698 10.694-5.5689-0.2463v-0.98598c0-2.2e-4 4.8791-24.985 4.8791-24.985" fill="#1f1a17" fill-rule="evenodd"/>
  <path d="m519.76 236.34 16.854 2.1e-4 1.4783 0.83771 0.34459 1.2813 0.1481 2.6118s-0.34477 3.5973-0.34477 3.5973l-0.5915 2.957-0.68993 3.2523-1.1335 2.7597-1.6262 1.6754-1.6263 0.64061h-9.2153l0.24649-2.9569 0.3943-2.5131s6.1105 0.0986 6.1105 0.0986l1.2813-1.8725 0.3447-2.0697 0.49322-2.6122 0.14749-2.4145h-7.5887l-1.2321 5.4208-1.0347 4.8294-2.0698 10.694-5.5689-0.24631v-0.98602l4.879-24.985z" fill="none" stroke="#1f1a17" stroke-miterlimit="10" stroke-width=".058491"/>
  <path d="m542.13 241.42 0.83732-5.5683c0-1e-4 17.593 0.3447 17.593 0.3447 1e-4 0 0.64061 0.93659 0.64061 0.93659 0-1.1e-4 0.0495 0.88681 0.0495 0.88681 1.1e-4 -2.1e-4 0.2462 1.4782 0.2462 1.4782 1.1e-4 0-0.0986 1.6263-0.0986 1.6263 2.1e-4 -2.1e-4 -2.8583 14.833-2.8583 14.833s-0.73889 0.0988-0.73889 0.0988h-16.114l-0.93651-0.49291c0-1e-4 -0.88678-0.73931-0.88678-0.73931 0-1.1e-4 -0.64082-0.9361-0.64082-0.9361 1e-4 -1e-4 0-2.7598 0-2.7598 1e-4 -1.1e-4 0.0987-1.0347 0.0987-1.0347 1.1e-4 0 0.93592-3.4005 0.93592-3.4005 1.1e-4 -1.7e-4 0.49298-1.4291 0.49298-1.4291 0-1.1e-4 0.6406-0.93642 0.6406-0.93642 1.1e-4 0 1.5768-0.54211 1.5768-0.54211 0-1.1e-4 1.5281-0.3943 1.5281-0.3943s2.2173-0.0982 2.2173-0.0982c1.1e-4 -1.1e-4 6.7021 0 6.7021 0v0.49248c0-1.1e-4 -0.88713 4.8295-0.88713 4.8295 0-1.8e-4 -6.1108 0-6.1108 0 0-1.8e-4 -0.83739 0.73942-0.83739 0.73942v0.54201c0-1.1e-4 0.59108 0.39409 0.59108 0.39409 1e-4 -1.1e-4 7.5891 0 7.5891 0 1.1e-4 -1.1e-4 1.5274-7.4414 1.5274-7.4414 0-1.1e-4 -0.0981-0.78832-0.0981-0.78832 0-2.1e-4 -0.4929-0.54208-0.4929-0.54208 1e-4 0-1.3799-0.19713-1.3799-0.19713s-11.186 0.0985-11.186 0.0985" fill="#1f1a17" fill-rule="evenodd"/>
  <path d="m542.13 241.42 0.83732-5.5682 17.593 0.34459s0.64061 0.93659 0.64061 0.93659 0.0495 0.88681 0.0495 0.88681l0.24621 1.4782-0.0986 1.6263-2.8583 14.833s-0.73889 0.0988-0.73889 0.0988h-16.114l-0.93659-0.49287-0.88678-0.73932s-0.64082-0.93609-0.64082-0.93609v-2.7598l0.0987-1.0347 0.93588-3.4005 0.49301-1.4291s0.64071-0.93638 0.64071-0.93638l1.5767-0.54212 1.5281-0.3943 2.2173-0.0982h6.7021v0.49252l-0.8871 4.8295h-6.1108l-0.83742 0.73942v0.54197l0.59111 0.39413h7.5891l1.5273-7.4414-0.098-0.78828s-0.49287-0.54211-0.49287-0.54211l-1.3799-0.1971-11.186 0.0985z" fill="none" stroke="#1f1a17" stroke-miterlimit="10" stroke-width=".058491"/>
  <path d="m561 255.85h5.7167c1.1e-4 0 3.1537-14.389 3.1537-14.389s0.49297-0.0496 0.49297-0.0496h7.9337c8e-5 0 0.98559-5.5192 0.98559-5.5192 0-1.1e-4 -6.7511 0.0985-6.7511 0.0985 1e-4 0-0.64061 0.19709-0.64061 0.19709 2.1e-4 0-0.54208 0.24649-0.54208 0.24649l-0.64061 0.44341-0.39451 0.2958c2.1e-4 -1.1e-4 0-1.2813 0-1.2813 2.1e-4 -1e-4 -5.2727 0-5.2727 0 0-1e-4 -4.0411 19.761-4.0411 19.761v0.1972" fill="#1f1a17" fill-rule="evenodd"/>
  <path d="m561 255.86h5.7168l3.1537-14.389s0.49291-0.0496 0.49291-0.0496h7.9338l0.98552-5.5192s-6.751 0.0985-6.751 0.0985l-0.64061 0.1971-0.54211 0.24649-0.64068 0.4434-0.39441 0.29581v-1.2813h-5.2728l-4.0411 19.761v0.1972z" fill="none" stroke="#1f1a17" stroke-miterlimit="10" stroke-width=".058491"/>
  <path d="m587.96 242.89s6.3077 1e-4 6.3077 1e-4c1.7e-4 -1e-4 0.39419-0.2461 0.39419-0.2461s0.14788-0.5916 0.14788-0.5916c0-2.2e-4 0.0494-0.64068 0.0494-0.64068 1e-4 0-0.54201-0.14771-0.54201-0.14771 1.1e-4 -2.1e-4 -0.64061-0.24621-0.64061-0.24621 0-2.1e-4 -1.0351 0-1.0351 0 0-2.1e-4 -4.7801 0.049-4.7801 0.049 0-1e-4 -0.5916 0.14761-0.5916 0.14761l-0.2461 0.64061c0-1.1e-4 -0.34498 0.34498-0.34498 0.34498 7e-5 -1.1e-4 -0.34491 0.7887-0.34491 0.7887 2.1e-4 -1e-4 -0.49291 1.3305-0.49291 1.3305 1.1e-4 0-0.24631 0.9857-0.24631 0.9857 1.1e-4 0-0.54207 3.7943-0.54207 3.7943 0-1e-4 0.0493 0.64079 0.0493 0.64079 0-7e-5 0.39409 0.1972 0.39409 0.1972 2.1e-4 0 0.39451 0.14803 0.39451 0.14803s12.517 0.0491 12.517 0.0491l-0.98538 5.6179c1.1e-4 -1e-4 -15.228 0-15.228 0 0-1e-4 -0.93609-0.1971-0.93609-0.1971 0-1e-4 -0.88682-0.39461-0.88682-0.39461l-0.78867-0.59108c8e-5 -1.1e-4 -0.6406-0.54212-0.6406-0.54212 1e-4 0-0.39409-0.88688-0.39409-0.88688 7e-5 -1e-4 0.14767-2.9075 0.14767-2.9075 1.1e-4 -7e-5 2.5625-12.024 2.5625-12.024 0-1e-4 0.73938-0.6405 0.73938-0.6405 1.1e-4 -1.1e-4 0.88682-0.64078 0.88682-0.64078 1e-4 -2.2e-4 1.0842-0.39441 1.0842-0.39441 0-1.1e-4 0.88702-0.39419 0.88702-0.39419 0-1.1e-4 0.98559-0.29542 0.98559-0.29542 1.1e-4 -1.1e-4 0.69011-0.19742 0.69011-0.19742h11.876l0.83802 0.64072c0-2.1e-4 0.59151 0.44351 0.59151 0.44351 7e-5 0 0.39398 0.64058 0.39398 0.64058 1e-4 -7e-5 0.0986 1.1335 0.0986 1.1335 0-1.1e-4 -0.24642 3.7943-0.24642 3.7943 1.1e-4 0-0.14767 1.5772-0.14767 1.5772 1.1e-4 0-0.5915 2.8089-0.5915 2.8089 1e-4 -1.7e-4 -0.44351 1.5276-0.44351 1.5276h-12.172l0.0494-1.4785c0-1.8e-4 0.19727-1.4782 0.19727-1.4782 0-1.1e-4 0.39413-1.1335 0.39413-1.1335 1e-4 0 0.59129-1.232 0.59139-1.2321" fill="#1f1a17" fill-rule="evenodd"/>
  <path d="m587.96 242.9s6.3077 1e-4 6.3077 1e-4l0.3942-0.24602 0.14788-0.59168s0.0494-0.64072 0.0494-0.64072l-0.54201-0.14771-0.64061-0.24616h-1.0351s-4.7801 0.0491-4.7801 0.0491l-0.59161 0.14749-0.2461 0.64072-0.34501 0.34491s-0.34488 0.7887-0.34488 0.7887l-0.4929 1.3305s-0.2462 0.9857-0.2462 0.9857l-0.54212 3.7943 0.0492 0.64079 0.39408 0.1972 0.39451 0.14799 12.517 0.0491-0.98538 5.6179h-15.228l-0.9361-0.1971-0.88692-0.39462-0.7887-0.59111-0.64058-0.54208s-0.39402-0.88692-0.39402-0.88692l0.14761-2.9075 2.5626-12.024 0.73928-0.64051 0.88681-0.64082 1.0843-0.3944 0.88688-0.3942 0.98563-0.29527 0.69017-0.19752h11.876l0.83798 0.64071 0.59151 0.44348s0.39401 0.64072 0.39401 0.64072l0.0986 1.1334s-0.24641 3.7943-0.24641 3.7943l-0.14767 1.5772-0.59151 2.8089-0.44351 1.5276h-12.172l0.0495-1.4785 0.1972-1.4782 0.39412-1.1335 0.5914-1.2321z" fill="none" stroke="#1f1a17" stroke-miterlimit="10" stroke-width=".058491"/>
  <path d="m600.52 255.81 5.7655 0.0495 4.7311-26.611c0-2.2e-4 -5.6179 0-5.6179 0 0-2.2e-4 -4.8787 26.561-4.8787 26.561" fill="#1f1a17" fill-rule="evenodd"/>
  <path d="m600.52 255.81 5.7655 0.0495 4.7311-26.611h-5.6179l-4.8787 26.561z" fill="none" stroke="#1f1a17" stroke-miterlimit="10" stroke-width=".058491"/>
  <path d="m492.6 235.16 25.823 1.1e-4c1e-4 -1.1e-4 0-9.8559 0-9.8559 1e-4 -1e-4 -25.823 0-25.823 0v9.8558" fill="#fff" fill-rule="evenodd"/>
  <path d="m492.6 235.16 25.822 1.1e-4v-9.8558h-25.822v9.8557z" fill="none" stroke="#fff" stroke-miterlimit="10" stroke-width=".058491"/>
  <g fill="#ed1c24" fill-rule="evenodd" stroke="#ed1c24">
   <path d="m444.06 221.95 6.1599-29.913h-1.232s-2.9569 8.1805-2.9569 8.1805c0-3.2e-4 -3.8932 19.367-3.8932 19.367 0-1.1e-4 1.9221 2.3653 1.9222 2.3653z" stroke-miterlimit="2.6131" stroke-width=".0762"/>
   <path d="m444.06 221.95 6.1599-29.913h-1.232s-2.9569 8.1805-2.9569 8.1805l-3.8932 19.367s1.9222 2.3653 1.9222 2.3653z" stroke-miterlimit="10" stroke-width=".058491"/>
   <path d="m478.61 192.14s1.232-0.2462 1.232-0.2462c1e-4 -1.1e-4 -17.396 22.077-17.396 22.077 0-1.1e-4 0.49301-8.1803 0.49301-8.1803s15.671-13.651 15.671-13.651z" stroke-miterlimit="2.6131" stroke-width=".0762"/>
   <path d="m478.61 192.14 1.232-0.2462-17.396 22.077 0.4929-8.1803 15.671-13.651z" stroke-miterlimit="10" stroke-width=".058491"/>
   <path d="m438.59 243.98h1.4781l4.1397-21.141c0-1.1e-4 -2.6122 0-2.6122 0 0-1.1e-4 -3.0056 21.141-3.0056 21.141z" stroke-miterlimit="2.6131" stroke-width=".0762"/>
   <path d="m438.59 243.98h1.478l4.1397-21.141h-2.6122l-3.0055 21.141z" stroke-miterlimit="10" stroke-width=".058491"/>
   <path d="m464.81 243.83 8.082-17.544 1.035-2.2669h-0.4439l-0.2462 1.1827c0-1.1e-4 -8.4269 18.628-8.4269 18.628z" stroke-miterlimit="2.6131" stroke-width=".0762"/>
   <path d="m464.81 243.83 8.082-17.544 1.0349-2.2668h-0.4439l-0.2462 1.1826-8.4268 18.628z" stroke-miterlimit="10" stroke-width=".058491"/>
   <path d="m444.7 221.95s-1.38-0.197-1.38-0.197c0-1e-4 -0.24621 1.5274-0.24621 1.5274 0-1.1e-4 1.1827-0.39402 1.1827-0.39402 0-1.1e-4 0.44347-0.93641 0.44347-0.93641z" stroke-miterlimit="2.6131" stroke-width=".0762"/>
   <path d="m444.7 221.95s-1.38-0.19699-1.38-0.19699l-0.2462 1.5274s1.1827-0.39398 1.1827-0.39398l0.44351-0.93642z" stroke-miterlimit="10" stroke-width=".058491"/>
  </g>
  <path d="m464.51 244.67 9.4129-20.648-0.59161-0.49262c0-7e-5 -0.98559 3.2522-0.98559 3.2522 1.1e-4 -1.1e-4 -9.7081 20.698-9.7081 20.698 0-1e-4 1.8724-2.809 1.8724-2.809" fill="#fff" fill-rule="evenodd"/>
  <path d="m464.51 244.67 9.4128-20.648-0.5915-0.49268-0.98559 3.2522-9.7081 20.697 1.8724-2.809z" fill="none" stroke="#fff" stroke-miterlimit="10" stroke-width=".058491"/>
 </g>
</svg>