<?xml version="1.0" standalone="no"?>
<!DOCTYPE svg PUBLIC "-//W3C//DTD SVG 1.1//EN" "http://www.w3.org/Graphics/SVG/1.1/DTD/svg11.dtd">
<svg xmlns="http://www.w3.org/2000/svg" width="912.4400024414062" height="373.6300048828125" version="1.1" viewBox="0 0 912.44 373.63">
 <g transform="matrix(1.3333 0 0 -1.3333 0 373.63)">
  <g transform="scale(.1)">
   <g>
    <path d="m1480.4 1317.2-370-60-50-10-300 80-230 110-240 80-150 10h-140v1275l2450-5v-210l-120 40h-60l-40-20-60-40-70-30-70-20h-70l-80 10-70-30-90 20h-60l-70-10-70-50-50-20-60-10-40-10-30-40-10-30 30-10 50-20 60-20 50-10h30l40-20 30-30 60-40 50-20h200l70-30 70-10h110l60 10 40-20 50-30 70-10h40v-160l-120-20-70-50-50-10-60 10-60-10-40-30-70-10-80-10-60-30-30-20v-30l50-30 40-10 30-10 40-20 30-10h60l60 10 50-40 30-10 40-10h110l60-40 40-10 10-100-230-10-460-40-280-70 250 70" fill="#00adef"/>
    <path d="m877.2 1209.5c224.65 0 406.78 180.81 406.78 403.85 0 223.03-182.13 403.85-406.78 403.85-224.66 0-406.78-180.82-406.78-403.85 0-223.04 182.13-403.85 406.78-403.85" fill="#fff200"/>
    <path d="m1481.7 1322.2-370.01-60-50-10-300 80-230 110-240 80-150 10h-140v-1330l2448.7 5.11v1234.9l-230-10-460-40-280-100 251.26 100" fill="#fff"/>
   </g>
   <g fill="#33b540">
    <path d="m2280.1 340.7c34.07 104.87 66.22 209.01 111.08 308.95 19.64 43.762 23.63 94.122 54.24 132.58v-580h-210c2.75 49.7 29.64 92.192 44.68 138.47"/>
    <path d="m1996.4 561.41c152.09 156.04 291.01 308.75 449.07 450.82 0-30.011 8.89-64.32-4.44-87.449-147.65-256.32-314.64-483.03-475.56-722.55-103.37 0-226.62 5-330 5 120 120 235 225 360.93 354.18"/>
    <path d="m1250.4 201.16c-77 5.301-233.28 3.942-264.93 1.07 200 145 410.04 264.04 620.65 409.06 272.53 187.66 274.17 194.02 777.22 510.71 32.13 20.23 82.34-23.17 57.34-44.04-361.27-301.54-736.62-576.04-1103.4-872.71 0 0-29.98-8-86.83-4.09"/>
    <path d="m1157.3 658.16c310.76 146.75 616.14 281.43 929.95 419.85 66.07 29.14 126.36 79.05 207.91 63.05 7.95-1.55 15.43-13.09 9.02-16.74-561.12-319.49-1102.2-608.84-1648.8-922.09h-470c315.22 170.77 644.84 301.5 971.92 455.93"/>
    <path d="m574.41 735.66c-189.26-56.172-363.98-118.43-573.98-173.43 0 40.008-3.3672 124.46 9.0742 127.89 770.93 212.11 930.93 262.11 1457.3 385.1 82.82 19.36 173.91 26.86 258.59 17.01-390-115-759.37-240.34-1151-356.57"/>
    <path d="m1980.4 1152.2h170l-2150-855 5 175 1975 680"/>
    <path d="m0.42188 887.23 950 205 54.998-5 60-15 75-20-1140-275v110"/>
    <path d="m5.4219 1027.2 380 55 230 25 85 5 85-10 35-15-820-150 5 90"/>
    <path d="m0.42188 1127.2h220l50-10 55-15-50-10-135-15-140-25v75"/>
    <path d="m6.6719 1567.2 173.75-15 85-15 85-25 70-25 65-30 15-5-10-30-35-25-65-30-105-25-100-20-85-15-100-15 6.25 275"/>
    <path d="m0.42188 1237.2 135 25 135 35 115 40 80 30 35 35 31.25 40 93.75-45 70-30 45-25 5-30-15-25-30-25-50-35-75-30-85-30-60-20-65-10-30-5-65 10-75 10-70 5-55 5s-25-5-40-5h-25l-5 80"/>
    <path d="m785.42 1332.2-20-45-25-30-30-30-45-25-100-40-80-30 35-5h70l65 5 45 5 50-5 40-10h40l40-10 25-5 45 15 50 35 34.998 30 15 30 20 30-5-25v-35l-20-30-30-30-19.998-15 54.998-5 45-10 50-10 40-15 25-10 45 5 40 5 45 15 40 5 45 10h25l-35 35-50 20-80 10-35 10-80 40-25 20-23.75 25-21.25-5h-45l-54.998 20-205 55"/>
    <path d="m1385.4 1177.2-60 5-45 5-50 15-35 25-30 20-15 30 115 10 155 35-40-20 115 35 55-40 90-50 25-20-45-5-60-10-55-5-45-15h-45l-30-15"/>
    <path d="m1700.4 1247.2-115 60-60 25 160 55 125 20 100 10 105 10 75 5 95 10h75l80 10 110 5v-125h-70l-65 5h-140l-65-5-65-10-70-5-60-10-50-10-50-20-45-20-35-15-35 5"/>
    <path d="m2450.4 1212.2-45-40v-20l20-10h25v70"/>
    <path d="m2365.4 1167.2h-70l-40 15-5 15 70 45 40 30 35 20 20 10 30 5 5-35v-40l-40-30-45-35"/>
    <path d="m2200.4 1177.2h-100l-25 5 5 25 70 50 80 50 35 10 60 5 55-5-60-45-60-40-40-30-20-25"/>
    <path d="m2070.4 1312.2h95l15-5-55-35-45-40-40-40-15-20-90-10h-40v15l60 50 60 45 35 25 20 15"/>
    <path d="m1880.4 1272.2 40 15 35 5h30l-25-35-40-25-30-20-20-25-50-50-45-10-35 5-20 5 40 45 60 45 35 25 25 20"/>
    <path d="m1745.4 1227.2 25-5-35-30-35-40-20-20-25-10-80 5 5 20 35 30 50 35 30 10 50 5"/>
    <path d="m1510.4 1182.2-55-5-25-5-20-5 30-20 20-15 5-15h15l35 5 15 5 15 25 25 20 20 15 10 15-90-20"/>
   </g>
   <g>
    <path d="m1105 2606.5c-77.27 6.18-151.2-37.94-203.9-89.96-21.226-20.95 22.926-42.5 45.582-50.96 116.23-43.41 164.3 3.42 251.01-26.89 63.28-22.12 198.42 7.61 181.07 92.21-7.43 36.17-58.29 53.89-84.26 79.86-42.12 42.12-88.84-27.46-137.57-13.35-16.12 4.67-38.45 8.01-51.94 9.09" fill="#fff"/>
    <path d="m2450.4 2587.2-10-500" fill="#231f20"/>
    <path d="m2451.4 2588.5-72.5 25-47.5 15h-60l-40-20-60-40-70-30-70-20h-70l-80 10-70-30-90 20h-60l-70-10-70-50-50-20-60-10-40-10-30-40-10-30 30-10 50-20 60-20 50-10h30l40-20 30-30 60-40 50-20h200l70-30 70-10h110l60 10 40-20 50-30 70-10 39.01-1.25 0.99 1.25" fill="#fff"/>
   </g>
   <path d="m2451.4 2588.5-72.5 25-47.5 15h-60l-40-20-60-40-70-30-70-20h-70l-80 10-70-30-90 20h-60l-70-10-70-50-50-20-60-10-40-10-30-40-10-30 30-10 50-20 60-20 50-10h30l40-20 30-30 60-40 50-20h200l70-30 70-10h110l60 10 40-20 50-30 70-10 39.01-1.25 0.99 1.25" fill="none" stroke="#fff" stroke-width="10"/>
   <path d="m2446.4 2496-5-407.5" fill="#fff"/>
   <path d="m2446.4 2496-5-407.5" fill="none" stroke="#fff" stroke-width="10"/>
   <path d="m2440.4 1927.2v-390" fill="#fff"/>
   <path d="m2440.4 1927.2v-390" fill="none" stroke="#fff" stroke-width="10"/>
   <path d="m2439.2 1928.5-120-20-70-50-50-10-60 10-60-10-40-30-70-10-80-10.01-60-30-30-20v-30l50-30 40-10 30-10 40-20 30-10h60l60 10 50-40 30-10 40-10h110l60-40 40-10" fill="#fff"/>
   <path d="m2439.2 1928.5-120-20-70-50-50-10-60 10-60-10-40-30-70-10-80-10.01-60-30-30-20v-30l50-30 40-10 30-10 40-20 30-10h60l60 10 50-40 30-10 40-10h110l60-40 40-10" fill="none" stroke="#fff" stroke-width="5"/>
   <path d="m2441.7 1923.5v-390.01" fill="#fff"/>
   <path d="m2441.7 1923.5v-390.01" fill="none" stroke="#fff" stroke-width="5"/>
   <path d="m3033.9 2670.7h-3.06c-31.5 37.45-73.18 41.73-119.94 41.73-35.58 0-152.99-1.07-185.51-7.49v-200.09h203.8c15.25 0 31.52 0 43.71 6.42h3.06v-113.42h-3.06c-16.26 32.1-140.78 29.96-172.29 29.96h-75.22v-193.67c0-48.15-8.13-126.26 42.69-146.59v-3.21h-192.12v3.21c51.84 19.26 45.74 98.44 45.74 146.59v404.46c0 49.22 6.1 127.33-45.74 147.66v3.21h407.11c17.28 0 34.56-2.14 47.77 5.35h3.06v-124.12" fill="#231f20"/>
   <path d="m3033.9 2670.7h-3.06c-31.5 37.45-73.18 41.73-119.94 41.73-35.58 0-152.99-1.07-185.51-7.49v-200.09h203.8c15.25 0 31.52 0 43.71 6.42h3.06v-113.42h-3.06c-16.26 32.1-140.78 29.96-172.29 29.96h-75.22v-193.67c0-48.15-8.13-126.26 42.69-146.59v-3.21h-192.12v3.21c51.84 19.26 45.74 98.44 45.74 146.59v404.46c0 49.22 6.1 127.33-45.74 147.66v3.21h407.11c17.28 0 34.56-2.14 47.77 5.35h3.06z" fill="none" stroke="#231f20" stroke-width="10"/>
   <path d="m3497.8 2141.1-44.73-70.62c-67.09 4.28-134.18 25.68-134.18 111.28v169.06c-29.48-16.05-64.04-24.61-97.58-33.17-48.8-11.77-103.69-23.54-103.69-88.81 0-66.34 56.93-87.74 110.8-87.74 24.4 0 48.79 7.49 73.19 14.98l-59.97-80.25c-17.28-3.21-35.58-5.35-52.86-5.35-102.67 0-173.82 68.48-173.82 157.29 0 199.02 303.93 107 303.93 223.63 0 51.36-59.97 68.48-97.58 68.48-51.85 0-92.51-20.33-138.25-42.8l68.11 107 66.07 6.42c109.78 0 193.14-33.17 194.15-162.64v-160.5c0-84.53 2.04-116.63 86.41-126.26" fill="#231f20"/>
   <path d="m3497.8 2141.1-44.73-70.62c-67.09 4.28-134.18 25.68-134.18 111.28v169.06c-29.48-16.05-64.04-24.61-97.58-33.17-48.8-11.77-103.69-23.54-103.69-88.81 0-66.34 56.93-87.74 110.8-87.74 24.4 0 48.79 7.49 73.19 14.98l-59.97-80.25c-17.28-3.21-35.58-5.35-52.86-5.35-102.67 0-173.82 68.48-173.82 157.29 0 199.02 303.93 107 303.93 223.63 0 51.36-59.97 68.48-97.58 68.48-51.85 0-92.51-20.33-138.25-42.8l68.11 107 66.07 6.42c109.78 0 193.14-33.17 194.15-162.64v-160.5c0-84.53 2.04-116.63 86.41-126.26z" fill="none" stroke="#231f20" stroke-width="10"/>
   <path d="m3804.8 2488.8c-11.19 12.84-29.48 17.12-46.77 17.12-77.25 0-109.78-42.8-109.78-153.01v-149.8c0-49.22-6.1-88.81 38.63-115.56v-3.21h-169.76v3.21c44.73 26.75 38.63 66.34 38.63 115.56v255.73c0 49.22 6.1 87.74-37.61 114.49v3.21h65.06c23.38 0 47.77 1.07 62 13.91h3.05v-81.32c22.36 48.15 69.12 81.32 119.95 81.32l36.6-3.21v-98.44" fill="#231f20"/>
   <path d="m3804.8 2488.8c-11.19 12.84-29.48 17.12-46.77 17.12-77.25 0-109.78-42.8-109.78-153.01v-149.8c0-49.22-6.1-88.81 38.63-115.56v-3.21h-169.76v3.21c44.73 26.75 38.63 66.34 38.63 115.56v255.73c0 49.22 6.1 87.74-37.61 114.49v3.21h65.06c23.38 0 47.77 1.07 62 13.91h3.05v-81.32c22.36 48.15 69.12 81.32 119.95 81.32l36.6-3.21z" fill="none" stroke="#231f20" stroke-width="10"/>
   <path d="m4695.3 2084.4h-175.86v3.21c44.73 26.75 38.63 66.34 38.63 115.56v138.03c0 109.14-32.53 178.69-113.85 178.69-92.5 0-117.91-60.99-117.91-161.57v-155.15c0-49.22-6.1-88.81 39.64-115.56v-3.21h-170.77v3.21c44.73 26.75 38.63 66.34 38.63 115.56v147.66c0 112.35-52.86 169.06-115.88 169.06-77.26 0-114.87-50.29-114.87-153.01v-163.71c0-49.22-6.1-87.74 37.61-115.56v-3.21h-168.73v3.21c44.73 26.75 38.62 66.34 38.62 115.56v255.73c0 49.22 6.11 87.74-38.62 114.49v3.21h65.05c22.36 0 46.76 1.07 63.02 13.91h3.05v-84.53c35.58 57.78 75.23 84.53 143.32 84.53 72.18 0 120.97-29.96 158.58-93.09 39.65 57.78 88.44 93.09 163.66 93.09 144.34 0 181.95-86.67 181.95-222.56v-164.78c0-46.01-6.1-98.44 44.73-115.56v-3.21" fill="#231f20"/>
   <path d="m4695.3 2084.4h-175.86v3.21c44.73 26.75 38.63 66.34 38.63 115.56v138.03c0 109.14-32.53 178.69-113.85 178.69-92.5 0-117.91-60.99-117.91-161.57v-155.15c0-49.22-6.1-88.81 39.64-115.56v-3.21h-170.77v3.21c44.73 26.75 38.63 66.34 38.63 115.56v147.66c0 112.35-52.86 169.06-115.88 169.06-77.26 0-114.87-50.29-114.87-153.01v-163.71c0-49.22-6.1-87.74 37.61-115.56v-3.21h-168.73v3.21c44.73 26.75 38.62 66.34 38.62 115.56v255.73c0 49.22 6.11 87.74-38.62 114.49v3.21h65.05c22.36 0 46.76 1.07 63.02 13.91h3.05v-84.53c35.58 57.78 75.23 84.53 143.32 84.53 72.18 0 120.97-29.96 158.58-93.09 39.65 57.78 88.44 93.09 163.66 93.09 144.34 0 181.95-86.67 181.95-222.56v-164.78c0-46.01-6.1-98.44 44.73-115.56z" fill="none" stroke="#231f20" stroke-width="10"/>
   <path d="m5093.9 2409.6c-11.18 74.9-57.95 110.21-131.12 110.21-68.12 0-118.94-42.8-131.14-110.21zm107.76-211.86-51.85-100.58c-43.71-19.26-92.51-26.75-140.28-26.75-172.81 0-291.74 114.49-291.74 263.22s102.67 256.8 254.13 256.8c138.24 0 233.8-104.86 229.74-242.89h-374.09c2.05-130.54 88.44-206.51 203.31-206.51 60.98 0 119.95 18.19 166.7 56.71h4.08" fill="#231f20"/>
   <path d="m5093.9 2409.6c-11.18 74.9-57.95 110.21-131.12 110.21-68.12 0-118.94-42.8-131.14-110.21zm107.76-211.86-51.85-100.58c-43.71-19.26-92.51-26.75-140.28-26.75-172.81 0-291.74 114.49-291.74 263.22s102.67 256.8 254.13 256.8c138.24 0 233.8-104.86 229.74-242.89h-374.09c2.05-130.54 88.44-206.51 203.31-206.51 60.98 0 119.95 18.19 166.7 56.71z" fill="none" stroke="#231f20" stroke-width="10"/>
   <path d="m5539.1 2488.8c-11.17 12.84-29.48 17.12-46.76 17.12-77.25 0-109.78-42.8-109.78-153.01v-149.8c0-49.22-6.09-88.81 38.63-115.56v-3.21h-169.76v3.21c44.73 26.75 38.62 66.34 38.62 115.56v255.73c0 49.22 6.11 87.74-37.59 114.49v3.21h65.05c23.37 0 47.78 1.07 62 13.91h3.05v-81.32c22.37 48.15 69.12 81.32 119.95 81.32l36.59-3.21v-98.44" fill="#231f20"/>
   <path d="m5539.1 2488.8c-11.17 12.84-29.48 17.12-46.76 17.12-77.25 0-109.78-42.8-109.78-153.01v-149.8c0-49.22-6.09-88.81 38.63-115.56v-3.21h-169.76v3.21c44.73 26.75 38.62 66.34 38.62 115.56v255.73c0 49.22 6.11 87.74-37.59 114.49v3.21h65.05c23.37 0 47.78 1.07 62 13.91h3.05v-81.32c22.37 48.15 69.12 81.32 119.95 81.32l36.59-3.21z" fill="none" stroke="#231f20" stroke-width="10"/>
   <path d="m5937.5 2237.4c0-99.51-96.57-166.92-227.69-166.92-45.74 0-89.45 7.49-132.15 25.68l-35.58 104.86c58.96-39.59 120.96-59.92 191.11-59.92 41.68 0 111.81 14.98 111.81 69.55 0 108.07-275.46 73.83-275.46 236.47 0 113.42 111.8 143.38 199.22 143.38 37.61 0 76.24-3.21 112.84-13.91v-90.95c-37.62 21.4-80.31 34.24-125.03 34.24-33.55 0-94.53-8.56-94.53-51.36 0-95.23 275.46-60.99 275.46-231.12" fill="#231f20"/>
   <path d="m5937.5 2237.4c0-99.51-96.57-166.92-227.69-166.92-45.74 0-89.45 7.49-132.15 25.68l-35.58 104.86c58.96-39.59 120.96-59.92 191.11-59.92 41.68 0 111.81 14.98 111.81 69.55 0 108.07-275.46 73.83-275.46 236.47 0 113.42 111.8 143.38 199.22 143.38 37.61 0 76.24-3.21 112.84-13.91v-90.95c-37.62 21.4-80.31 34.24-125.03 34.24-33.55 0-94.53-8.56-94.53-51.36 0-95.23 275.46-60.99 275.46-231.12z" fill="none" stroke="#231f20" stroke-width="10"/>
   <path d="m3252 1856.3c-52.86-32.1-52.86-74.9-52.86-134.83v-601.33c-72.17 25.67-103.69 60.98-148.41 121.97l-349.68 466.53v-415.16c0-59.93-1.02-102.72 52.86-135.9v-3.21h-179.92v3.21c53.87 33.18 53.87 75.97 53.87 135.9v427.99c0 59.93 0 102.73-52.85 134.83v3.21h148.4v-1.07c4.07-12.84 8.14-18.19 15.25-26.75l14.24-21.4 373.05-495.41v406.59c0 59.93 1.02 102.73-52.86 134.83v3.21h178.91v-3.21" fill="#231f20"/>
   <path d="m3252 1856.3c-52.86-32.1-52.86-74.9-52.86-134.83v-601.33c-72.17 25.67-103.69 60.98-148.41 121.97l-349.68 466.53v-415.16c0-59.93-1.02-102.72 52.86-135.9v-3.21h-179.92v3.21c53.87 33.18 53.87 75.97 53.87 135.9v427.99c0 59.93 0 102.73-52.85 134.83v3.21h148.4v-1.07c4.07-12.84 8.14-18.19 15.25-26.75l14.24-21.4 373.05-495.41v406.59c0 59.93 1.02 102.73-52.86 134.83v3.21h178.91z" fill="none" stroke="#231f20" stroke-width="10"/>
   <path d="m3763.3 1211.1-44.73-70.61c-67.08 4.28-134.18 25.67-134.18 111.27v169.06c-29.47-16.05-64.04-24.6-97.58-33.16-48.79-11.78-103.68-23.54-103.68-88.82 0-66.34 56.92-87.74 110.8-87.74 24.39 0 48.79 7.49 73.18 14.98l-59.97-80.25c-17.28-3.2-35.58-5.34-52.86-5.34-102.66 0-173.82 68.47-173.82 157.28 0 199.03 303.93 107 303.93 223.64 0 51.35-59.97 68.48-97.58 68.48-51.84 0-92.5-20.34-138.24-42.81l68.1 107.01 66.07 6.42c109.79 0 193.14-33.18 194.15-162.64v-160.51c0-84.53 2.04-116.63 86.41-126.26" fill="#231f20"/>
   <path d="m3763.3 1211.1-44.73-70.61c-67.08 4.28-134.18 25.67-134.18 111.27v169.06c-29.47-16.05-64.04-24.6-97.58-33.16-48.79-11.78-103.68-23.54-103.68-88.82 0-66.34 56.92-87.74 110.8-87.74 24.39 0 48.79 7.49 73.18 14.98l-59.97-80.25c-17.28-3.2-35.58-5.34-52.86-5.34-102.66 0-173.82 68.47-173.82 157.28 0 199.03 303.93 107 303.93 223.64 0 51.35-59.97 68.48-97.58 68.48-51.84 0-92.5-20.34-138.24-42.81l68.1 107.01 66.07 6.42c109.79 0 193.14-33.18 194.15-162.64v-160.51c0-84.53 2.04-116.63 86.41-126.26z" fill="none" stroke="#231f20" stroke-width="10"/>
   <path d="m4051.8 1221.8-53.88-75.98c-10.16-3.2-21.34-5.34-32.52-5.34-157.56 0-143.33 171.19-143.33 212.92v222.57h-69.12v38.52c95.55 17.12 120.95 93.09 120.95 192.6h40.67v-160.5h95.54c13.23 0 28.48 0 38.64 6.42h3.05v-97.38h-3.05c-16.27 22.47-46.76 20.34-73.19 20.34h-60.99v-214.01c0-40.66-12.2-150.87 96.57-150.87 14.23 0 27.45 5.35 40.66 10.71" fill="#231f20"/>
   <path d="m4051.8 1221.8-53.88-75.98c-10.16-3.2-21.34-5.34-32.52-5.34-157.56 0-143.33 171.19-143.33 212.92v222.57h-69.12v38.52c95.55 17.12 120.95 93.09 120.95 192.6h40.67v-160.5h95.54c13.23 0 28.48 0 38.64 6.42h3.05v-97.38h-3.05c-16.27 22.47-46.76 20.34-73.19 20.34h-60.99v-214.01c0-40.66-12.2-150.87 96.57-150.87 14.23 0 27.45 5.35 40.66 10.71z" fill="none" stroke="#231f20" stroke-width="10"/>
   <path d="m4228.6 1779.2c0-35.32-26.43-67.42-60.99-67.42-37.62 0-66.07 31.03-66.07 70.62 0 37.46 32.53 63.14 66.07 63.14 34.56 0 60.99-31.03 60.99-66.34zm27.44-624.89h-169.75v3.21c44.73 26.75 38.63 66.34 38.63 115.56v255.74c0 49.21 6.1 87.74-38.63 114.49v3.21h62.01c23.37 0 48.78 1.07 66.07 17.12h3.05v-390.56c0-49.22-6.11-88.81 38.62-115.56v-3.21" fill="#231f20"/>
   <path d="m4228.6 1779.2c0-35.32-26.43-67.42-60.99-67.42-37.62 0-66.07 31.03-66.07 70.62 0 37.46 32.53 63.14 66.07 63.14 34.56 0 60.99-31.03 60.99-66.34zm27.44-624.89h-169.75v3.21c44.73 26.75 38.63 66.34 38.63 115.56v255.74c0 49.21 6.1 87.74-38.63 114.49v3.21h62.01c23.37 0 48.78 1.07 66.07 17.12h3.05v-390.56c0-49.22-6.11-88.81 38.62-115.56z" fill="none" stroke="#231f20" stroke-width="10"/>
   <path d="m4707.4 1383.3c0 103.8-52.85 206.52-161.62 206.52-94.53 0-155.52-78.11-155.52-174.42 0-98.43 55.91-204.37 159.58-204.37 93.52 0 157.56 75.98 157.56 172.27zm103.69 22.47c0-154.08-123-265.35-266.33-265.35-139.26 0-257.17 103.79-257.17 255.73 0 160.49 123 264.29 269.38 264.29 135.18 0 254.12-114.5 254.12-254.67" fill="#231f20"/>
   <path d="m4707.4 1383.3c0 103.8-52.85 206.52-161.62 206.52-94.53 0-155.52-78.11-155.52-174.42 0-98.43 55.91-204.37 159.58-204.37 93.52 0 157.56 75.98 157.56 172.27zm103.69 22.47c0-154.08-123-265.35-266.33-265.35-139.26 0-257.17 103.79-257.17 255.73 0 160.49 123 264.29 269.38 264.29 135.18 0 254.12-114.5 254.12-254.67z" fill="none" stroke="#231f20" stroke-width="10"/>
   <path d="m5327.2 1154.4h-170.77v3.21c44.73 26.75 38.63 66.34 38.63 114.49v144.45c0 114.49-30.5 173.35-123 173.35s-107.75-65.28-107.75-128.41v-189.39c0-49.22-6.1-87.74 38.62-114.49v-3.21h-169.74v3.21c44.71 26.75 38.62 66.34 38.62 115.56v254.67c0 49.22 6.09 88.81-38.62 115.56v3.21h59.96c22.37 0 46.77 1.07 68.1 13.91h3.06v-82.4c35.58 51.37 77.26 82.4 143.33 82.4 56.92 0 121.97-23.54 154.5-73.84 28.46-42.79 25.42-109.14 25.42-159.42v-155.16c0-49.22-6.1-87.74 39.64-114.49v-3.21" fill="#231f20"/>
   <path d="m5327.2 1154.4h-170.77v3.21c44.73 26.75 38.63 66.34 38.63 114.49v144.45c0 114.49-30.5 173.35-123 173.35s-107.75-65.28-107.75-128.41v-189.39c0-49.22-6.1-87.74 38.62-114.49v-3.21h-169.74v3.21c44.71 26.75 38.62 66.34 38.62 115.56v254.67c0 49.22 6.09 88.81-38.62 115.56v3.21h59.96c22.37 0 46.77 1.07 68.1 13.91h3.06v-82.4c35.58 51.37 77.26 82.4 143.33 82.4 56.92 0 121.97-23.54 154.5-73.84 28.46-42.79 25.42-109.14 25.42-159.42v-155.16c0-49.22-6.1-87.74 39.64-114.49z" fill="none" stroke="#231f20" stroke-width="10"/>
   <path d="m5844.6 1211.1-44.72-70.61c-67.09 4.28-134.17 25.67-134.17 111.27v169.06c-29.5-16.05-64.05-24.6-97.59-33.16-48.8-11.78-103.69-23.54-103.69-88.82 0-66.34 56.92-87.74 110.81-87.74 24.38 0 48.79 7.49 73.17 14.98l-59.97-80.25c-17.27-3.2-35.56-5.34-52.85-5.34-102.68 0-173.83 68.47-173.83 157.28 0 199.03 303.95 107 303.95 223.64 0 51.35-59.98 68.48-97.59 68.48-51.85 0-92.5-20.34-138.24-42.81l68.09 107.01 66.08 6.42c109.78 0 193.14-33.18 194.16-162.64v-160.51c0-84.53 2.03-116.63 86.39-126.26" fill="#231f20"/>
   <path d="m5844.6 1211.1-44.72-70.61c-67.09 4.28-134.17 25.67-134.17 111.27v169.06c-29.5-16.05-64.05-24.6-97.59-33.16-48.8-11.78-103.69-23.54-103.69-88.82 0-66.34 56.92-87.74 110.81-87.74 24.38 0 48.79 7.49 73.17 14.98l-59.97-80.25c-17.27-3.2-35.56-5.34-52.85-5.34-102.68 0-173.83 68.47-173.83 157.28 0 199.03 303.95 107 303.95 223.64 0 51.35-59.98 68.48-97.59 68.48-51.85 0-92.5-20.34-138.24-42.81l68.09 107.01 66.08 6.42c109.78 0 193.14-33.18 194.16-162.64v-160.51c0-84.53 2.03-116.63 86.39-126.26z" fill="none" stroke="#231f20" stroke-width="10"/>
   <path d="m6026.6 1154.4h-167.72v3.21c43.71 26.75 37.61 66.34 37.61 115.56v467.6c0 49.21 6.1 88.81-37.61 115.56v3.21h62c23.38 0 49.82-1.07 65.06 17.12h3.06v-603.49c0-49.22-7.13-88.81 37.6-115.56v-3.21" fill="#231f20"/>
   <path d="m6026.6 1154.4h-167.72v3.21c43.71 26.75 37.61 66.34 37.61 115.56v467.6c0 49.21 6.1 88.81-37.61 115.56v3.21h62c23.38 0 49.82-1.07 65.06 17.12h3.06v-603.49c0-49.22-7.13-88.81 37.6-115.56z" fill="none" stroke="#231f20" stroke-width="10"/>
   <path d="m3155.4 363.46-51.84-124.13c-47.78-23.539-101.65-32.098-154.51-32.098-239.9 0-388.3 141.24-388.3 370.22 0 222.57 148.4 369.16 356.79 369.16 62.01 0 125.03-11.781 186.02-26.75v-123.05c-56.93 37.453-121.98 60.98-189.07 60.98-140.28 0-237.86-109.13-237.86-264.29 0-157.29 101.65-297.46 258.19-297.46 76.23 0 153.49 28.902 217.53 67.422h3.05" fill="#231f20"/>
   <path d="m3155.4 363.46-51.84-124.13c-47.78-23.539-101.65-32.098-154.51-32.098-239.9 0-388.3 141.24-388.3 370.22 0 222.57 148.4 369.16 356.79 369.16 62.01 0 125.03-11.781 186.02-26.75v-123.05c-56.93 37.453-121.98 60.98-189.07 60.98-140.28 0-237.86-109.13-237.86-264.29 0-157.29 101.65-297.46 258.19-297.46 76.23 0 153.49 28.902 217.53 67.422z" fill="none" stroke="#231f20" stroke-width="10"/>
   <path d="m3595.7 453.33c0 103.8-52.86 206.51-161.63 206.51-94.53 0-155.53-78.102-155.53-174.41 0-98.43 55.91-204.37 159.59-204.37 93.52 0 157.57 75.98 157.57 172.27zm103.67 22.469c0-154.08-122.99-265.35-266.32-265.35-139.26 0-257.17 103.79-257.17 255.72 0 160.5 123 264.3 269.37 264.3 135.19 0 254.12-114.5 254.12-254.67" fill="#231f20"/>
   <path d="m3595.7 453.33c0 103.8-52.86 206.51-161.63 206.51-94.53 0-155.53-78.102-155.53-174.41 0-98.43 55.91-204.37 159.59-204.37 93.52 0 157.57 75.98 157.57 172.27zm103.67 22.469c0-154.08-122.99-265.35-266.32-265.35-139.26 0-257.17 103.79-257.17 255.72 0 160.5 123 264.3 269.37 264.3 135.19 0 254.12-114.5 254.12-254.67z" fill="none" stroke="#231f20" stroke-width="10"/>
   <path d="m4553.1 224.35h-175.86v3.207c44.73 26.75 38.63 66.339 38.63 115.56v138.04c0 109.13-32.52 178.68-113.84 178.68-92.5 0-117.91-60.981-117.91-161.56v-155.16c0-49.223-6.11-88.812 39.64-115.56v-3.207h-170.78v3.207c44.73 26.75 38.64 66.339 38.64 115.56v147.67c0 112.34-52.86 169.05-115.89 169.05-77.26 0-114.87-50.289-114.87-153.01v-163.71c0-49.223-6.1-87.742 37.61-115.56v-3.207h-168.73v3.207c44.73 26.75 38.62 66.339 38.62 115.56v255.74c0 49.211 6.11 87.743-38.62 114.49v3.207h65.06c22.35 0 46.75 1.07 63.02 13.91h3.04v-84.528c35.58 57.77 75.23 84.528 143.34 84.528 72.16 0 120.95-29.957 158.57-93.098 39.65 57.777 88.44 93.098 163.65 93.098 144.35 0 181.96-86.668 181.96-222.56v-164.79c0-46-6.1-98.43 44.72-115.56v-3.207" fill="#231f20"/>
   <path d="m4553.1 224.35h-175.86v3.207c44.73 26.75 38.63 66.339 38.63 115.56v138.04c0 109.13-32.52 178.68-113.84 178.68-92.5 0-117.91-60.981-117.91-161.56v-155.16c0-49.223-6.11-88.812 39.64-115.56v-3.207h-170.78v3.207c44.73 26.75 38.64 66.339 38.64 115.56v147.67c0 112.34-52.86 169.05-115.89 169.05-77.26 0-114.87-50.289-114.87-153.01v-163.71c0-49.223-6.1-87.742 37.61-115.56v-3.207h-168.73v3.207c44.73 26.75 38.62 66.339 38.62 115.56v255.74c0 49.211 6.11 87.743-38.62 114.49v3.207h65.06c22.35 0 46.75 1.07 63.02 13.91h3.04v-84.528c35.58 57.77 75.23 84.528 143.34 84.528 72.16 0 120.95-29.957 158.57-93.098 39.65 57.777 88.44 93.098 163.65 93.098 144.35 0 181.96-86.668 181.96-222.56v-164.79c0-46-6.1-98.43 44.72-115.56z" fill="none" stroke="#231f20" stroke-width="10"/>
   <path d="m5105.8 475.8c0-148.72-103.69-265.35-245.99-265.35-26.44 0-51.85 4.281-75.23 13.903l-54.89 87.738c35.59-18.192 72.18-31.031 110.8-31.031 107.76 0 161.62 75.98 161.62 182.98 0 99.5-50.82 191.52-155.51 191.52-42.7 0-84.38-18.188-112.84-51.348-29.48-33.18-28.45-71.699-28.45-114.49v-367.02c0-49.218-6.12-87.738 38.61-114.49v-3.2109h-169.76v3.2109c44.74 26.75 38.64 65.27 38.64 114.49v476.16c0 49.211 6.1 88.801-38.64 114.49v3.207h67.1c22.36 0 46.76 2.14 60.99 13.91h3.06v-75.969c34.55 50.281 109.77 75.969 166.7 75.969 141.29 0 233.79-114.5 233.79-254.67" fill="#231f20"/>
   <path d="m5105.8 475.8c0-148.72-103.69-265.35-245.99-265.35-26.44 0-51.85 4.281-75.23 13.903l-54.89 87.738c35.59-18.192 72.18-31.031 110.8-31.031 107.76 0 161.62 75.98 161.62 182.98 0 99.5-50.82 191.52-155.51 191.52-42.7 0-84.38-18.188-112.84-51.348-29.48-33.18-28.45-71.699-28.45-114.49v-367.02c0-49.218-6.12-87.738 38.61-114.49v-3.2109h-169.76v3.2109c44.74 26.75 38.64 65.27 38.64 114.49v476.16c0 49.211 6.1 88.801-38.64 114.49v3.207h67.1c22.36 0 46.76 2.14 60.99 13.91h3.06v-75.969c34.55 50.281 109.77 75.969 166.7 75.969 141.29 0 233.79-114.5 233.79-254.67z" fill="none" stroke="#231f20" stroke-width="10"/>
   <path d="m5624.2 281.06-44.71-70.61c-67.09 4.281-134.18 25.672-134.18 111.27v169.07c-29.49-16.059-64.05-24.617-97.59-33.168-48.79-11.781-103.68-23.539-103.68-88.82 0-66.34 56.92-87.742 110.8-87.742 24.39 0 48.79 7.492 73.19 14.98l-59.98-80.25c-17.27-3.199-35.57-5.34-52.85-5.34-102.68 0-173.83 68.473-173.83 157.28 0 199.03 303.94 107 303.94 223.64 0 51.348-59.98 68.469-97.59 68.469-51.85 0-92.5-20.328-138.24-42.801l68.1 107 66.08 6.43c109.78 0 193.13-33.18 194.15-162.64v-160.51c0-84.531 2.03-116.63 86.39-126.26" fill="#231f20"/>
   <path d="m5624.2 281.06-44.71-70.61c-67.09 4.281-134.18 25.672-134.18 111.27v169.07c-29.49-16.059-64.05-24.617-97.59-33.168-48.79-11.781-103.68-23.539-103.68-88.82 0-66.34 56.92-87.742 110.8-87.742 24.39 0 48.79 7.492 73.19 14.98l-59.98-80.25c-17.27-3.199-35.57-5.34-52.85-5.34-102.68 0-173.83 68.473-173.83 157.28 0 199.03 303.94 107 303.94 223.64 0 51.348-59.98 68.469-97.59 68.469-51.85 0-92.5-20.328-138.24-42.801l68.1 107 66.08 6.43c109.78 0 193.13-33.18 194.15-162.64v-160.51c0-84.531 2.03-116.63 86.39-126.26z" fill="none" stroke="#231f20" stroke-width="10"/>
   <path d="m6128.4 224.35h-170.78v3.207c44.73 26.75 38.63 66.339 38.63 114.49v144.45c0 114.49-30.48 173.34-122.99 173.34-92.5 0-107.76-65.258-107.76-128.4v-189.39c0-49.219-6.09-87.742 38.64-114.49v-3.207h-169.76v3.207c44.73 26.75 38.62 66.339 38.62 115.56v254.67c0 49.223 6.11 88.813-38.62 115.56v3.207h59.98c22.35 0 46.76 1.07 68.1 13.91h3.04v-82.399c35.59 51.36 77.26 82.399 143.33 82.399 56.94 0 121.99-23.547 154.52-73.84 28.45-42.789 25.4-109.13 25.4-159.42v-155.16c0-49.219-6.09-87.742 39.65-114.49v-3.207" fill="#231f20"/>
   <path d="m6128.4 224.35h-170.78v3.207c44.73 26.75 38.63 66.339 38.63 114.49v144.45c0 114.49-30.48 173.34-122.99 173.34-92.5 0-107.76-65.258-107.76-128.4v-189.39c0-49.219-6.09-87.742 38.64-114.49v-3.207h-169.76v3.207c44.73 26.75 38.62 66.339 38.62 115.56v254.67c0 49.223 6.11 88.813-38.62 115.56v3.207h59.98c22.35 0 46.76 1.07 68.1 13.91h3.04v-82.399c35.59 51.36 77.26 82.399 143.33 82.399 56.94 0 121.99-23.547 154.52-73.84 28.45-42.789 25.4-109.13 25.4-159.42v-155.16c0-49.219-6.09-87.742 39.65-114.49z" fill="none" stroke="#231f20" stroke-width="10"/>
   <path d="m6653.9 716.56-211.42-530.73c-54.9-138.03-126.06-178.68-221.61-178.68-43.71 0-81.31 10.703-120.96 26.742l91.49 69.558c17.28-11.777 35.58-25.687 56.92-25.687 71.16 0 101.66 80.258 123 139.1l6.1 17.121-4.07 5.348c-33.54 35.32-33.54 40.672-52.86 85.613l-124.01 284.61c-20.33 47.078-32.53 84.531-81.32 103.8v3.207h86.4c37.62 0 56.93-16.047 68.1-42.809l149.44-354.17 102.66 271.79c15.25 41.719 38.63 98.43-10.16 121.98v3.207h142.3" fill="#231f20"/>
   <path d="m6653.9 716.56-211.42-530.73c-54.9-138.03-126.06-178.68-221.61-178.68-43.71 0-81.31 10.703-120.96 26.742l91.49 69.558c17.28-11.777 35.58-25.687 56.92-25.687 71.16 0 101.66 80.258 123 139.1l6.1 17.121-4.07 5.348c-33.54 35.32-33.54 40.672-52.86 85.613l-124.01 284.61c-20.33 47.078-32.53 84.531-81.32 103.8v3.207h86.4c37.62 0 56.93-16.047 68.1-42.809l149.44-354.17 102.66 271.79c15.25 41.719 38.63 98.43-10.16 121.98v3.207z" fill="none" stroke="#231f20" stroke-width="10"/>
   <path d="m6657.2 331.24h-37v14.051h90.07v-14.051h-37.19v-114.01h-15.88v114.01" fill="#231f20"/>
   <path d="m6824.9 273.47c-0.91 17.871-2 39.531-2 55.301h-0.36c-4.32-14.829-9.2-30.981-15.34-48.641l-21.47-62.129h-11.92l-19.85 60.98c-5.78 18.25-10.47 34.579-13.91 49.79h-0.36c-0.36-15.969-1.26-37.25-2.34-56.622l-3.25-54.918h-14.98l8.48 128.06h20.04l20.75-61.93c5.06-15.769 9.03-29.839 12.28-43.14h0.36c3.25 12.922 7.58 26.992 13 43.14l21.66 61.93h20.03l7.58-128.06h-15.52l-2.88 56.239" fill="#231f20"/>
  </g>
 </g>
</svg>