<?xml version="1.0" encoding="UTF-8" standalone="no"?>
<!-- Created with Inkscape (http://www.inkscape.org/) -->

<svg
   width="208.51825mm"
   height="143.59409mm"
   viewBox="0 0 208.51825 143.59409"
   version="1.1"
   id="svg5"
   inkscape:version="1.1.2 (0a00cf5, 2022-02-04)"
   sodipodi:docname="sponsor-bt-humbles.svg"
   xmlns:inkscape="http://www.inkscape.org/namespaces/inkscape"
   xmlns:sodipodi="http://sodipodi.sourceforge.net/DTD/sodipodi-0.dtd"
   xmlns="http://www.w3.org/2000/svg"
   xmlns:svg="http://www.w3.org/2000/svg">
  <sodipodi:namedview
     id="namedview7"
     pagecolor="#ffffff"
     bordercolor="#666666"
     borderopacity="1.0"
     inkscape:pageshadow="2"
     inkscape:pageopacity="0.0"
     inkscape:pagecheckerboard="0"
     inkscape:document-units="mm"
     showgrid="false"
     fit-margin-top="0"
     fit-margin-left="0"
     fit-margin-right="0"
     fit-margin-bottom="0"
     inkscape:zoom="1.3169734"
     inkscape:cx="325.36725"
     inkscape:cy="306.76399"
     inkscape:window-width="2256"
     inkscape:window-height="1419"
     inkscape:window-x="0"
     inkscape:window-y="0"
     inkscape:window-maximized="1"
     inkscape:current-layer="layer1" />
  <defs
     id="defs2" />
  <g
     inkscape:label="Layer 1"
     inkscape:groupmode="layer"
     id="layer1"
     transform="translate(-0.70464093,-0.38455279)">
    <path
       style="fill:#000000;stroke-width:0.069718"
       d="m 96.183298,143.93089 c -11.097053,-0.52828 -21.346127,-2.31615 -31.7565,-5.53968 -0.824415,-0.25527 -3.051902,-0.97713 -4.949971,-1.60413 -1.898071,-0.62699 -3.694831,-1.18963 -3.992803,-1.25029 -1.824298,-0.37135 -3.420894,-0.28912 -5.319682,0.27399 -2.972111,0.88142 -5.266698,1.34044 -7.872976,1.57493 -1.183558,0.10647 -4.139689,0.10685 -5.33342,6.9e-4 -7.501891,-0.66731 -14.572484,-3.76933 -21.847395,-9.5849 C 9.8752037,123.61636 6.2313628,119.29437 3.941029,114.55322 3.0093494,112.62457 2.4271748,110.98454 1.3349102,107.2116 l -0.63026927,-2.17709 6.8104e-4,-2.18027 6.8104e-4,-2.18028 0.17687812,-0.38 c 0.097283,-0.20901 0.29934417,-0.857205 0.44901327,-1.440423 1.1003661,-4.287875 3.4379544,-7.453246 7.1341086,-9.660424 2.440665,-1.45746 5.22851,-2.328307 8.692052,-2.715136 1.033283,-0.115489 4.055518,-0.115489 5.089405,0 5.166944,0.576599 9.861307,2.440707 15.547092,6.173698 3.307997,2.171841 6.020041,4.385408 8.929838,7.288492 3.023521,3.016563 5.139631,5.591713 7.415861,9.024583 3.036406,4.57934 4.571425,7.88437 5.226672,11.2535 0.277624,1.42749 0.326361,1.95354 0.388617,4.19473 0.0603,2.17092 0.116487,2.61684 0.399367,3.17023 0.332903,0.65122 0.97391,1.14404 1.94955,1.49887 0.937619,0.341 4.70685,1.28492 9.349845,2.34147 11.166513,2.54104 21.011649,3.72526 30.968738,3.72507 19.19063,-6.9e-4 37.8245,-4.52004 55.63488,-13.49436 7.02609,-3.54033 11.11712,-6.1644 16.13969,-10.35232 2.48322,-2.07057 3.60396,-3.12342 9.27248,-8.71069 1.50883,-1.4872 1.85549,-1.77878 2.50399,-2.10614 1.2802,-0.646255 2.58789,-0.751039 4.13742,-0.33156 0.47392,0.12834 1.1321,0.18532 1.1321,0.0982 0,-0.0318 -2.124,-2.682547 -2.4989,-3.118642 -0.0982,-0.114338 -0.0894,-0.142731 0.10667,-0.338754 l 0.21396,-0.213942 0.39427,0.252195 c 0.21684,0.138701 0.7431,0.517224 1.16945,0.84113 1.29218,0.981693 2.18119,1.333607 3.22995,1.278568 0.7083,-0.03722 1.29033,-0.293403 1.86818,-0.822387 0.57004,-0.521848 0.92341,-1.050507 1.57814,-2.360997 1.02248,-2.04653 1.77191,-3.904786 3.00605,-7.45361 0.70924,-2.039412 0.98566,-2.947092 1.27888,-4.199244 0.20663,-0.882395 0.94762,-4.548856 0.94762,-4.688843 0,-0.05468 -0.0765,-0.134097 -0.17017,-0.176878 -0.16575,-0.07559 -0.18225,-0.05429 -0.65429,0.842857 -2.06002,3.915452 -2.08536,3.949773 -3.64549,4.935916 l -0.86356,0.545848 -0.13602,-0.183018 c -0.0748,-0.100525 -0.39427,-0.483786 -0.70998,-0.851489 -0.31572,-0.367703 -0.67807,-0.840306 -0.80522,-1.050238 -0.23029,-0.38023 -0.23113,-0.384931 -0.21922,-1.220075 0.0219,-1.533545 0.40525,-3.569677 0.9979,-5.300301 0.72739,-2.124092 2.72324,-5.509236 3.59351,-6.094967 0.36281,-0.244157 0.90618,-0.276674 1.31521,-0.07865 0.4533,0.219448 1.01283,0.861312 1.39375,1.598867 0.18052,0.349631 0.31512,0.635706 0.29896,0.635706 -0.0153,0 -0.15501,-0.04432 -0.30857,-0.09842 -1.11942,-0.394945 -2.16285,-0.03165 -2.84788,0.991438 -0.4302,0.642574 -1.94692,4.508608 -2.64001,6.729311 -0.31462,1.008052 -0.34762,1.302222 -0.28252,2.517674 0.0499,0.930989 0.0552,0.95591 0.22399,1.020023 0.0951,0.03626 0.26929,0.07328 0.38714,0.08268 0.19533,0.01535 0.26921,-0.05084 0.8361,-0.750006 1.60574,-1.980286 2.86355,-4.210543 3.8204,-6.773952 0.34096,-0.913435 0.52002,-1.510716 1.29245,-4.311203 0.17976,-0.651859 0.35426,-1.282174 0.3877,-1.400694 0.0577,-0.205079 0.29098,-0.377104 0.51108,-0.377104 0.113,0 0.71152,1.096299 0.81807,1.498342 0.0808,0.305029 0.0315,0.675667 -0.64677,4.845981 -1.04673,6.437021 -1.99293,10.554233 -3.37567,14.688654 -1.60825,4.808725 -3.06097,7.379156 -4.82025,8.528834 -0.93587,0.61161 -2.05129,0.89169 -3.24328,0.81448 -0.33912,-0.0219 -0.61656,-0.0257 -0.61656,-0.008 0,0.0173 0.0813,0.16058 0.18071,0.31804 0.0994,0.1575 0.26311,0.49411 0.36377,0.74807 0.16192,0.40833 0.18302,0.55858 0.18264,1.29838 0,0.7427 -0.0207,0.88578 -0.18225,1.27437 -0.31247,0.7524 -0.60636,1.15784 -1.89353,2.61229 -3.56994,4.03384 -5.6916,6.17539 -8.30736,8.38525 -12.02526,10.15916 -26.25259,17.90741 -41.34271,22.51542 -9.67048,2.95302 -20.98153,4.91763 -32.55826,5.65505 -2.02131,0.12873 -10.629446,0.19357 -12.68866,0.0955 z m -56.33206,-10.88056 c 0.8774,-0.094 1.11753,-0.18186 1.53173,-0.56039 0.397847,-0.36361 0.704639,-0.88888 0.939866,-1.60919 0.172868,-0.52933 0.153818,-0.6542 -0.153013,-1.00365 -0.535561,-0.60998 -1.164655,-0.83816 -4.479838,-1.62485 -4.23375,-1.00469 -6.327701,-1.64044 -8.854173,-2.68824 -2.399103,-0.99497 -4.491705,-2.19432 -6.518623,-3.7361 -4.987073,-3.79342 -8.228382,-7.67931 -10.14144,-12.15822 -0.638311,-1.49441 -1.049865,-2.90184 -1.470342,-5.02821 -0.328322,-1.66031 -0.7457948,-2.75343 -1.2275152,-3.2141 -0.7019395,-0.67129 -1.7744905,-0.67492 -2.531477,-0.01 -0.6695144,0.58932 -0.9085857,1.12406 -1.0064519,2.25113 -0.1919933,2.21109 0.5333432,5.13023 1.9839855,7.98461 1.1234811,2.21063 3.0490046,5.09209 4.8452196,7.25066 4.50752,5.41682 10.280404,9.43111 17.495861,12.16609 2.300645,0.87203 3.336865,1.16624 6.623199,1.88049 1.154806,0.25098 1.448816,0.26077 2.963012,0.0986 z m 5.194019,-47.704066 c -0.190576,-0.350726 -0.366326,-0.740567 -0.390556,-0.866281 -0.06028,-0.312779 0.173751,-1.285801 0.658031,-2.735952 l 0.398244,-1.192507 0.546479,0.356729 c 0.300562,0.196216 0.555796,0.347234 0.567186,0.335589 0.107834,-0.110309 0.762663,-1.507991 0.91677,-1.956882 0.171871,-0.500611 0.196384,-0.672329 0.191477,-1.341031 -0.005,-0.678315 -0.03114,-0.837352 -0.226583,-1.376791 -0.435122,-1.201007 -0.215118,-1.770393 0.831531,-2.152024 0.52317,-0.190691 0.984551,-0.617078 1.088568,-1.005884 0.04059,-0.151747 0.373491,-1.264084 0.739784,-2.471958 0.714141,-2.354877 1.929686,-6.461039 1.929686,-6.518554 0,-0.06714 -0.550033,-0.03415 -1.063171,0.06408 -2.777298,0.531382 -5.077342,2.515659 -5.794205,4.998725 l -0.164409,0.569501 -0.282044,-0.376067 c -0.72552,-0.967439 -1.018885,-1.77423 -0.981873,-2.700269 0.02947,-0.737075 0.246682,-1.238185 0.758637,-1.750134 0.712099,-0.712098 1.59814,-1.109153 3.522478,-1.578474 2.634839,-0.642594 3.333498,-0.94954 4.283558,-1.881834 l 0.453257,-0.444785 0.418217,0.266545 c 0.667477,0.425409 0.690492,0.466693 0.638371,1.144777 -0.05435,0.707014 -0.30058,1.615557 -1.687698,6.227242 -1.072092,3.564344 -1.564548,5.314516 -1.564964,5.561877 -2.09e-4,0.127575 0.100697,0.130644 3.349492,0.09842 3.2068,-0.03185 3.357751,-0.03914 3.538182,-0.172082 0.423594,-0.311935 0.663174,-0.992628 1.995698,-5.670153 0.704571,-2.473243 1.361464,-4.709121 1.45976,-4.968625 0.290272,-0.766312 0.955353,-2.043345 1.278796,-2.45546 0.707764,-0.901752 1.453806,-1.032358 2.286572,-0.400258 0.322104,0.244483 1.052991,1.112586 0.989873,1.175702 -0.01516,0.01535 -0.210372,0.0752 -0.433787,0.13333 -0.912691,0.237711 -1.64258,0.871403 -2.090227,1.814746 -0.137302,0.289336 -0.453472,1.206513 -0.702583,2.038128 -0.716891,2.393226 -3.795372,13.410546 -3.759243,13.453614 0.0092,0.01151 0.355468,-0.07539 0.769614,-0.19165 0.414148,-0.116256 0.768483,-0.195947 0.787414,-0.17707 0.04171,0.04163 -1.724398,6.180107 -1.80248,6.264843 -0.09124,0.09899 -0.74806,-0.02724 -0.989995,-0.190307 -0.399137,-0.268981 -0.539742,-0.615889 -0.540511,-1.333569 -9.13e-4,-0.849955 0.246837,-3.671967 0.428097,-4.87633 0.08111,-0.53898 0.161358,-1.246646 0.178298,-1.572566 0.02778,-0.534394 0.01477,-0.616579 -0.132659,-0.836622 -0.250975,-0.374647 -0.572456,-0.493877 -1.542836,-0.572168 -1.146164,-0.09247 -3.670353,-0.03012 -4.129509,0.10206 -1.334812,0.384298 -1.794156,1.039878 -2.991583,4.269669 -1.027474,2.771366 -1.283872,3.425757 -1.643585,4.194813 -0.362815,0.775673 -0.354692,0.768364 -1.264448,1.1386 l -0.478619,0.194777 z m 41.657174,0.427346 c -0.155449,-0.444324 -0.314497,-1.198896 -0.314497,-1.492087 0,-0.353527 0.372754,-2.216464 1.149103,-5.742995 1.05311,-4.783652 1.083618,-4.966822 0.967909,-5.811022 -0.04071,-0.297067 -0.06394,-0.328222 -0.291672,-0.391089 -0.179392,-0.04949 -0.275539,-0.04489 -0.34967,0.01727 -0.05623,0.04662 -0.425049,0.516745 -0.819596,1.044598 -2.047532,2.739385 -3.750831,6.243721 -5.373571,11.055535 l -0.337051,0.999419 -0.2975,-0.03971 c -0.666008,-0.08863 -0.991577,-0.443212 -0.992022,-1.080126 0,-0.20671 0.217213,-1.44595 0.483004,-2.75387 0.930985,-4.581143 1.286086,-6.627884 1.289524,-7.432565 0.0031,-0.717814 -0.179295,-1.74294 -0.310043,-1.74294 -0.06916,0 -0.87961,1.015285 -1.446938,1.812656 -0.709945,0.997826 -1.323219,2.059747 -2.073535,3.590472 -0.884512,1.804522 -1.321526,2.894854 -2.235485,5.577435 -0.712496,2.091268 -0.712613,2.091536 -0.90339,2.069973 -0.329822,-0.03722 -0.809655,-0.306122 -0.946281,-0.530174 -0.206784,-0.339099 -0.163679,-0.789179 0.255278,-2.665238 0.53915,-2.41431 1.850243,-8.951952 1.808734,-9.019116 -0.0188,-0.0305 -0.123507,-0.08652 -0.232614,-0.124505 -0.178393,-0.06216 -0.263379,-0.02686 -0.843204,0.349977 -0.580812,0.377525 -0.662146,0.411232 -0.819485,0.339541 -0.101657,-0.04623 -0.159574,-0.118942 -0.138548,-0.173809 0.03069,-0.08 1.760189,-2.805935 1.838288,-2.897425 0.04994,-0.05851 0.486777,0.21446 0.845684,0.528429 0.231603,0.202604 0.432669,0.468113 0.577928,0.763185 0.338368,0.687311 0.344308,1.16235 0.03371,2.695185 -0.244418,1.206147 -0.309477,1.94422 -0.188254,2.135544 0.04301,0.06791 0.174307,-0.100333 0.462467,-0.592599 1.741196,-2.974488 2.654104,-4.389033 3.082109,-4.77571 0.694147,-0.62713 1.297192,-0.786282 1.870511,-0.493685 0.346986,0.17707 0.473586,0.318265 0.672645,0.750044 0.155143,0.336529 0.160476,0.419155 0.194388,3.005124 l 0.03486,2.659081 0.941193,-1.542561 c 1.37045,-2.246103 2.525955,-3.962857 2.859422,-4.248298 0.366528,-0.313738 1.185136,-0.747358 1.410882,-0.747358 0.314344,0 1.308765,1.218751 1.522268,1.86568 0.128361,0.388921 0.0334,1.550178 -0.249325,3.049421 -0.270944,1.436703 -0.314419,2.147765 -0.215274,3.520757 0.06985,0.967363 -0.009,1.559041 -0.339464,2.547487 -0.33277,0.995313 -1.187909,2.880082 -1.415092,3.118925 -0.333768,0.350879 -1.133069,0.899853 -1.167384,0.801783 z m 47.563979,-0.06005 c -0.66378,-0.156351 -2.03902,-1.058813 -2.85563,-1.873738 -0.49531,-0.49428 -0.65929,-0.714687 -0.88784,-1.193352 -0.37646,-0.78847 -0.44224,-1.291594 -0.34785,-2.660577 0.44025,-6.385185 2.46934,-11.917768 6.2109,-16.934795 0.76569,-1.026718 1.23935,-1.544364 1.65912,-1.813192 0.25482,-0.163258 0.38639,-0.198499 0.73969,-0.198499 0.50295,0 0.96693,0.208973 1.72572,0.777228 0.29931,0.224148 0.7128,0.442828 1.15277,0.609673 1.52555,0.578499 1.80357,0.945377 1.61694,2.133856 -0.21371,1.36106 -1.12759,4.568578 -1.48903,5.226269 -0.12278,0.223381 -0.27198,0.339905 -0.7793,0.608522 -0.34511,0.182634 -0.66163,0.332903 -0.70337,0.333747 -0.11204,0.0019 -0.26478,-1.107023 -0.2174,-1.578282 0.0225,-0.223956 0.25016,-1.175817 0.50587,-2.115267 0.53203,-1.954618 0.59083,-2.478193 0.33285,-2.963015 -0.0815,-0.153282 -0.2324,-0.357305 -0.33509,-0.453169 -0.17113,-0.159804 -0.24009,-0.174192 -0.82598,-0.174 -1.11935,6.33e-4 -1.55915,0.332423 -2.65249,2.001197 -2.67551,4.08364 -4.25754,8.387918 -4.96582,13.510688 -0.42059,3.041997 0.22734,4.861981 1.78002,4.999953 1.26836,0.112611 4.14361,-1.830861 5.90647,-3.992573 0.3566,-0.437265 1.05367,-1.503617 1.45309,-2.22287 l 0.22975,-0.413746 0.2214,0.438589 c 0.24625,0.487815 0.49075,1.356916 0.49075,1.744341 0,0.415395 -0.17457,0.961434 -0.42594,1.331574 -0.37977,0.55941 -3.65711,3.409527 -4.75366,4.133979 -1.01532,0.670794 -1.98244,0.926788 -2.78594,0.737401 z M 10.953172,85.650832 C 9.9796635,85.623974 9.3810289,85.578124 9.245391,85.520187 8.6786635,85.278313 8.3656391,84.828828 8.2755828,84.127608 c -0.043337,-0.33745 -0.024114,-0.419673 0.2078011,-0.889033 0.3915165,-0.792384 0.8040722,-1.078401 1.2368788,-0.857552 0.083758,0.04278 0.3091473,0.227985 0.5008703,0.411654 1.353745,1.296869 2.66314,1.554993 5.193984,1.023898 1.774477,-0.372365 2.320503,-0.637395 2.752363,-1.33591 0.182998,-0.295992 0.210646,-0.406167 0.210646,-0.839461 0,-0.447394 -0.03037,-0.559238 -0.294985,-1.086093 -0.458847,-0.913608 -2.087032,-2.868898 -3.255611,-3.909678 -1.110169,-0.988752 -2.294727,-1.711459 -3.403762,-2.076649 -0.258829,-0.08518 -0.470596,-0.169012 -0.470596,-0.186086 0,-0.08153 0.459575,-0.931028 0.640888,-1.184585 0.440858,-0.616541 1.172696,-0.777477 2.034026,-0.447337 0.503131,0.192859 0.799498,0.164409 1.408362,-0.13544 0.50558,-0.248896 1.028278,-0.78212 1.574637,-1.606368 0.978416,-1.476031 1.557176,-3.316465 1.745484,-5.550597 L 18.439519,64.4743 18.23453,64.067135 c -0.315829,-0.627323 -0.447116,-0.692952 -1.378297,-0.688827 -0.691237,0.0038 -0.852629,0.02878 -1.435562,0.229231 -1.00635,0.345968 -1.721047,0.744692 -2.202153,1.228536 l -0.418801,0.421169 -0.301512,1.220076 c -0.165828,0.671024 -0.65837,2.731059 -1.09453,4.577824 -0.732281,3.100586 -0.895527,3.684916 -2.1313314,7.628915 -1.1332343,3.61664 -1.3857614,4.352065 -1.6479688,4.79921 -0.622095,1.060904 -1.0187912,1.325895 -1.9886051,1.328312 l -0.6114477,0.0015 0.1415025,-0.277384 c 0.232518,-0.455778 0.3487089,-1.118936 0.4186371,-2.389447 0.069217,-1.257715 0.170816,-1.760973 0.4546286,-2.25228 0.2251839,-0.389822 0.7092103,-0.819279 1.2060959,-1.070093 0.4303222,-0.217223 0.6336764,-0.416374 0.7690476,-0.753152 0.07031,-0.17496 0.783313,-2.689718 2.7532963,-9.711069 0.360409,-1.284554 0.648578,-2.34377 0.640377,-2.353842 -0.04679,-0.05736 -1.308008,0.3739 -1.7644378,0.603381 -1.884339,0.94743 -3.1784384,2.885857 -3.5009091,5.243976 -0.043989,0.321738 -0.094866,0.687408 -0.1130332,0.812604 L 5.9964947,72.893449 5.6951612,72.686106 C 5.2507885,72.380387 4.7816029,71.825811 4.5231479,71.300817 4.307395,70.862554 4.2951152,70.796235 4.2951152,70.06925 c 0,-0.710083 0.015156,-0.797448 0.1998071,-1.151818 0.2806415,-0.538576 1.7943844,-2.026137 3.8438302,-3.777326 0.9202765,-0.78636 2.1904745,-1.917094 2.8226625,-2.512744 l 1.149433,-1.083004 1.011822,0.03491 c 0.860099,0.02974 1.113566,0.01343 1.690354,-0.112995 0.817323,-0.178221 1.862415,-0.195832 2.455876,-0.04125 1.645726,0.428652 2.612139,1.802853 2.616108,3.719985 0.0019,0.960571 -0.401801,3.033824 -0.793417,4.073818 -0.595276,1.580853 -1.559411,2.888235 -3.25296,4.411075 -0.457966,0.411808 -0.832666,0.768653 -0.832666,0.792998 0,0.02436 0.462753,0.418714 1.028339,0.87641 2.477482,2.004881 3.240555,2.906671 3.495998,4.131619 0.241082,1.156058 0.0165,2.148974 -0.914795,4.043104 -0.864616,1.758671 -1.369056,2.047182 -3.805612,2.176637 -1.285637,0.0683 -1.590343,0.0683 -4.056721,0 z m 86.350031,-0.168629 c -0.33272,-0.23656 -0.72022,-0.662372 -1.084621,-1.191856 -0.26145,-0.379904 -0.854957,-1.50427 -0.815086,-1.544134 0.01765,-0.01727 0.364605,0.07904 0.770836,0.214882 1.946873,0.65136 2.333891,0.383549 3.213996,-2.224195 0.408594,-1.210656 0.773492,-2.632453 1.260082,-4.909749 0.42388,-1.983817 0.43196,-2.122902 0.16433,-2.828381 -0.23436,-0.617788 -0.21126,-0.617519 -0.77439,-0.0096 -2.461622,2.661536 -4.104753,5.698296 -5.750048,10.62696 -0.328419,0.983804 -0.6168,1.809088 -0.640847,1.83395 -0.02404,0.02494 -0.202508,0.06619 -0.396589,0.09189 -0.352348,0.04662 -0.352983,0.04642 -0.42896,-0.184552 -0.04186,-0.127191 -0.188389,-0.497983 -0.325611,-0.823922 -0.321819,-0.764356 -0.322237,-1.011486 -0.0052,-3.127827 1.320674,-8.817336 2.879776,-15.212305 5.169492,-21.203716 0.678446,-1.775265 0.789759,-1.989418 1.557895,-2.997278 0.748944,-0.982671 1.041268,-1.218656 1.421308,-1.147368 0.40919,0.07674 1.0133,0.52064 1.64556,1.209064 0.325,0.353891 0.59896,0.665672 0.6088,0.692837 0.01,0.02724 -0.21409,0.0376 -0.49762,0.0234 -0.91208,-0.04604 -1.59386,0.261653 -2.09803,0.946912 -0.676763,0.919881 -2.195839,4.57746 -3.092933,7.447087 -0.988586,3.162282 -1.720623,6.314376 -2.386618,10.276581 -0.24897,1.48121 -0.267425,1.674702 -0.194903,2.043326 0.04405,0.223937 0.104074,0.381803 0.133349,0.350821 0.02927,-0.03108 0.349119,-0.621088 0.710753,-1.311296 1.203678,-2.297344 3.19165,-5.351178 3.910804,-6.007603 0.435841,-0.397822 1.040208,-0.720174 1.350238,-0.720174 0.41816,0 1.34687,0.974192 1.71882,1.803006 0.1585,0.353219 0.20532,0.576159 0.23402,1.114505 0.0497,0.932869 -0.0833,1.612142 -0.74277,3.792156 -1.48485,4.908713 -2.59493,7.469379 -3.423903,7.898068 -0.109292,0.05659 -0.351594,0.102828 -0.538473,0.102828 -0.274654,0 -0.403771,-0.04547 -0.673635,-0.237366 z m -69.198426,0.0963 c -0.340018,-0.08 -0.607566,-0.403961 -0.668369,-0.809419 -0.02738,-0.182633 -0.01458,-0.725737 0.02833,-1.207049 0.04295,-0.481331 0.09711,-1.235941 0.120343,-1.676908 0.04915,-0.933195 0.182307,-1.708351 0.348764,-2.030262 0.06463,-0.125081 0.319112,-0.5225 0.565519,-0.883412 1.198397,-1.755237 1.800195,-3.50988 2.671099,-7.788009 0.406331,-1.996018 0.633184,-2.889847 1.070516,-4.217948 0.399582,-1.213438 0.453276,-1.633207 0.257912,-2.016142 -0.07984,-0.156543 -0.175382,-0.28454 -0.212317,-0.28454 -0.139085,0 -4.430079,1.476242 -5.160143,1.775265 -1.085794,0.444709 -1.389107,0.613088 -1.720892,0.955296 -0.413068,0.426042 -0.596956,0.879326 -0.631691,1.557084 -0.02471,0.481944 0.0096,0.704941 0.252031,1.64065 0.276344,1.06641 0.449594,2.267339 0.306429,2.124129 -0.247994,-0.248109 -0.950302,-1.299133 -1.230163,-1.84099 -0.645734,-1.250271 -0.843618,-2.119756 -0.797452,-3.503971 0.02624,-0.786993 0.04729,-0.899719 0.24814,-1.328773 0.277703,-0.593271 0.69454,-1.000839 1.392771,-1.361827 0.75772,-0.391722 1.552436,-0.633097 4.517667,-1.372129 2.080039,-0.518395 2.782072,-0.724414 3.62533,-1.063859 1.60566,-0.646353 1.505208,-0.626267 2.006556,-0.401275 0.853028,0.38282 1.80437,0.28218 2.734261,-0.28924 0.816911,-0.501993 0.996206,-0.58742 1.382888,-0.6589 0.549753,-0.101676 0.88153,-0.0019 1.114731,0.33509 0.375824,0.543104 0.541251,1.335276 0.359032,1.719267 -0.149617,0.315292 -0.724279,0.706611 -1.29196,0.879786 -0.708002,0.215976 -2.127046,0.472545 -2.889329,0.522385 -1.095745,0.07175 -1.461087,0.196446 -1.923372,0.65702 -0.30903,0.307887 -0.420294,0.481715 -0.538146,0.840747 -0.08171,0.248934 -0.618817,2.476178 -1.193565,4.949422 -1.007229,4.3343 -1.709696,7.305335 -2.687268,11.365647 -0.507771,2.109013 -0.798323,2.863123 -1.258969,3.267564 -0.253132,0.222268 -0.376141,0.244637 -0.798684,0.145225 z m 36.112867,-0.0635 c -0.631925,-0.192936 -1.192527,-0.70053 -1.32884,-1.203213 -0.04923,-0.181482 -0.06766,-0.562077 -0.04662,-0.962566 0.05224,-0.994182 1.502516,-9.988875 1.693922,-10.505774 0.05949,-0.160571 0.208254,-0.390801 0.330586,-0.511412 0.221709,-0.218623 1.148259,-0.807845 1.190411,-0.757027 0.01228,0.01535 0.109695,0.25279 0.216643,0.529081 0.272643,0.704328 0.233245,0.98645 -0.483087,3.459291 -0.913497,3.153476 -1.040419,3.754516 -1.329456,6.295691 -0.0954,0.838751 -0.191592,1.640305 -0.213755,1.781232 l -0.04031,0.256223 0.389615,0.122779 c 0.240992,0.07597 0.413557,0.09784 0.452378,0.05755 0.09671,-0.100717 2.421809,-4.314618 3.094197,-5.607881 0.328944,-0.632694 0.941742,-1.936681 1.361772,-2.897751 1.018862,-2.331261 1.418737,-3.116911 1.70032,-3.340713 0.125407,-0.09976 0.453342,-0.303226 0.728748,-0.452344 l 0.500728,-0.271149 0.07873,0.361103 c 0.238897,1.095801 0.212334,1.258137 -0.663615,4.05615 -0.932973,2.980166 -1.048349,3.604035 -1.149294,6.214541 -0.07443,1.925401 -0.08982,2.039375 -0.383987,2.845916 -0.218156,0.598143 -0.22413,0.599889 -0.926095,0.26829 -0.792939,-0.374571 -0.889511,-0.842837 -0.612067,-2.967849 0.177645,-1.360677 0.246133,-3.077584 0.117311,-2.941242 -0.03442,0.03645 -0.485948,0.834876 -1.003409,1.774326 -0.922634,1.675047 -1.679953,2.991158 -2.172896,3.776194 -0.361933,0.576408 -0.907799,0.801937 -1.501941,0.620551 z m 46.712636,-0.047 c -0.73169,-0.264799 -1.43842,-0.892256 -1.7976,-1.59597 -0.23776,-0.46583 -0.26821,-1.047993 -0.12579,-2.405274 0.3902,-3.718565 1.32637,-6.669667 2.94691,-9.289458 0.71265,-1.152087 0.82985,-1.225946 2.45685,-1.548298 0.51488,-0.10206 0.9568,-0.19823 0.98203,-0.213827 0.0587,-0.03626 0.46382,1.264794 0.56484,1.81396 0.10987,0.597338 0.0345,3.011418 -0.11094,3.555615 -0.39924,1.493354 -1.21174,2.053321 -3.13232,2.158815 -0.7974,0.04374 -1.37972,0.218239 -1.50406,0.450559 -0.0858,0.16038 -0.37557,1.96659 -0.62712,3.909256 -0.11667,0.9011 -0.22714,1.72508 -0.24547,1.831034 -0.0311,0.179756 -0.0206,0.18954 0.15683,0.145224 0.39689,-0.0988 1.14426,-0.444132 1.60161,-0.739991 0.6348,-0.410656 1.22017,-0.938701 2.15006,-1.939578 0.73531,-0.791443 1.52672,-1.532758 1.78782,-1.674683 0.27928,-0.151746 -0.98423,2.266112 -1.76025,3.368512 -0.48092,0.683168 -1.44914,1.699085 -1.9424,2.038089 -0.3686,0.253327 -0.92691,0.307503 -1.40101,0.136015 z m 1.90082,-8.572852 c 0.97847,-0.248033 1.0698,-0.31205 1.23421,-0.865073 0.0743,-0.249969 0.1825,-0.680309 0.24044,-0.956331 0.10889,-0.51874 0.45737,-2.683847 0.45737,-2.841599 0,-0.07156 -0.66454,-0.316731 -0.85831,-0.316731 -0.0495,0 -1.24035,2.348336 -1.93231,3.810477 l -0.40107,0.847461 0.20656,0.250584 c 0.11361,0.137742 0.23781,0.250603 0.276,0.250603 0.0382,0 0.38789,-0.08077 0.77711,-0.179372 z m 4.33728,8.653848 c -0.0383,-0.01535 -0.43835,-0.06542 -0.8889,-0.111268 l -0.81918,-0.08345 v -0.443519 c 0,-0.42681 0.007,-0.44515 0.19172,-0.486991 0.10546,-0.02398 0.36428,-0.08594 0.57517,-0.137742 0.2109,-0.0518 0.77219,-0.176111 1.24732,-0.276252 1.11139,-0.234105 1.52394,-0.392087 1.90886,-0.730898 0.35978,-0.316693 0.52363,-0.6227 0.60787,-1.135358 0.10703,-0.651342 0.0412,-0.970662 -1.14495,-5.557062 -0.40371,-1.56094 -0.48571,-2.142988 -0.38803,-2.754407 0.22328,-1.397682 1.31262,-2.241633 3.40593,-2.638668 0.22243,-0.04221 0.2139,-0.02954 -0.17429,0.257643 -0.8004,0.592235 -1.18477,1.12872 -1.39421,1.945928 -0.14866,0.58013 -0.0915,1.217965 0.22388,2.49895 0.136,0.552351 0.35339,1.490553 0.48308,2.084898 0.1297,0.594345 0.31998,1.406623 0.42286,1.805059 0.16315,0.631716 0.18273,0.819049 0.15313,1.464079 -0.0374,0.815845 -0.16761,1.25029 -0.59651,1.990454 -0.29764,0.513657 -1.58499,1.820962 -2.06865,2.100725 -0.30614,0.17707 -0.42373,0.202432 -1.01091,0.218048 -0.36545,0.0096 -0.69584,0.0058 -0.73418,-0.0096 z m 38.58046,-0.163641 c -0.26828,-0.140045 -0.43029,-0.287628 -0.57739,-0.525551 -0.31073,-0.502606 -0.32297,-1.1019 -0.0522,-2.556387 0.11779,-0.632694 0.40279,-2.232712 0.63336,-3.555615 0.2306,-1.322903 0.51397,-2.891554 0.62973,-3.485899 0.25772,-1.323229 0.26959,-1.807668 0.0547,-2.233096 -0.18263,-0.361488 -0.7008,-0.777746 -1.1852,-0.952034 -0.18206,-0.06561 -0.33116,-0.136784 -0.33116,-0.15827 0,-0.02149 0.20282,-0.111844 0.45072,-0.200781 0.6103,-0.218892 1.18264,-0.602153 1.62749,-1.089873 0.60269,-0.660799 0.86033,-1.277724 1.29666,-3.104595 0.27552,-1.153736 1.12881,-3.714632 1.44923,-4.349417 0.43527,-0.862367 0.69728,-1.062094 1.31542,-1.0027 0.27153,0.02609 0.46007,0.108007 0.83031,0.361047 0.71639,0.489484 0.70985,0.462031 0.21854,0.916888 -0.76157,0.705076 -1.34153,1.612967 -1.7889,2.800411 -0.0978,0.2596 -0.37922,1.209274 -0.62535,2.110374 -0.24611,0.9011 -0.52407,1.863129 -0.61765,2.137828 l -0.17017,0.49946 0.1506,0.03607 c 0.0829,0.01976 0.6997,0.121244 1.37075,0.225471 0.67102,0.104171 1.22757,0.194931 1.23676,0.201626 0.01,0.0077 0.0359,0.107815 0.0591,0.224513 l 0.0424,0.212311 -0.51233,0.123738 c -0.68292,0.164792 -2.2693,0.701623 -2.47826,0.838521 -0.22487,0.147335 -0.23377,0.176303 -0.7115,2.311291 -0.33142,1.481076 -1.74965,8.245666 -1.74965,8.345328 0,0.01343 0.14388,0.07846 0.31957,0.145608 l 0.31959,0.122012 0.22073,-0.203928 c 0.12144,-0.112228 0.6005,-0.554979 1.06466,-0.984053 0.46415,-0.429073 0.87438,-0.780124 0.9116,-0.780124 0.0372,0 0.13371,0.0706 0.21436,0.156926 l 0.14676,0.156927 -0.50055,0.836967 c -0.63573,1.063015 -1.06657,1.62162 -1.56179,2.025024 -0.77978,0.635227 -1.09837,0.709048 -1.701,0.394235 z m 7.25135,0.09228 c -0.63072,-0.232148 -1.37881,-0.906395 -1.69161,-1.524663 -0.30901,-0.610747 -0.363,-1.032108 -0.26245,-2.048697 0.2914,-2.946575 1.28244,-6.389962 2.67176,-9.283147 0.47912,-0.997731 0.88544,-1.483072 1.48907,-1.778642 0.46581,-0.228081 1.26307,-0.391166 1.9123,-0.391166 0.46737,0 0.47734,0.0038 0.736,0.290238 l 0.26223,0.290256 -0.0411,1.923291 c -0.0597,2.795653 -0.22271,3.624448 -0.84877,4.317418 -0.14196,0.157311 -0.43585,0.373075 -0.65289,0.479662 -0.38455,0.188773 -0.42495,0.193799 -1.57986,0.193799 -0.7713,0 -1.23389,0.0282 -1.32463,0.08076 -0.24214,0.140237 -0.44484,0.401027 -0.55552,0.714707 -0.15961,0.452248 -0.38567,2.932455 -0.38567,4.23038 v 1.138025 l 0.26512,-0.09362 c 1.03731,-0.365977 1.86317,-0.974748 3.0853,-2.274227 0.51548,-0.548111 1.15939,-1.230377 1.43092,-1.516183 l 0.49373,-0.519623 0.2906,0.192322 c 0.15981,0.105704 0.29062,0.203198 0.29062,0.216493 0,0.05026 -2.48128,3.294883 -2.95302,3.861506 -0.69385,0.8334 -1.23308,1.392273 -1.45316,1.506131 -0.2337,0.12086 -0.84384,0.118175 -1.17895,-0.0058 z m 1.92494,-8.58139 c 0.30675,-0.06024 0.66755,-0.165176 0.80176,-0.233049 0.32162,-0.162682 0.7342,-0.760461 0.91678,-1.328351 0.17342,-0.539172 0.19201,-1.682088 0.0434,-2.650755 l -0.0907,-0.590796 -0.31876,-0.118366 -0.31877,-0.118367 -1.1508,2.353439 -1.15078,2.353438 0.20473,0.255226 c 0.15194,0.18954 0.24347,0.246459 0.3551,0.221213 0.0827,-0.01918 0.40133,-0.08326 0.70809,-0.14369 z m 25.38936,8.144585 c -0.0959,-0.297738 -0.1907,-0.635476 -0.21067,-0.750504 -0.0407,-0.234335 0.21705,-1.467858 0.88842,-4.252787 0.94503,-3.920172 1.00104,-4.251175 1.03174,-6.097384 l 0.0215,-1.286817 -0.23604,-0.0681 c -0.23163,-0.06676 -0.24421,-0.05909 -0.67479,0.415357 -0.24134,0.265854 -0.5866,0.750063 -0.76725,1.075983 -0.75638,1.364647 -4.57792,9.016985 -4.73782,9.487151 -0.0957,0.281221 -0.25985,0.601712 -0.36489,0.712251 -0.18647,0.196216 -1.11813,0.79129 -1.15573,0.738207 -0.16326,-0.23067 -0.46447,-1.076903 -0.46447,-1.305061 0,-0.314697 0.25726,-1.512442 1.0732,-4.996308 0.28738,-1.22702 0.6497,-2.811365 0.80516,-3.520738 0.1554,-0.709392 0.33252,-1.47417 0.39345,-1.699526 0.12758,-0.472065 0.0848,-0.845217 -0.10896,-0.948907 -0.17189,-0.09208 -0.732,-0.08959 -1.07132,0.0038 -0.14734,0.04086 -0.28385,0.05851 -0.30325,0.03914 -0.0194,-0.01938 0.001,-0.146183 0.046,-0.281854 0.0602,-0.182441 0.22987,-0.36118 0.65186,-0.686928 0.79678,-0.615063 0.94336,-0.698361 1.22898,-0.698361 0.28809,0 0.73554,0.209203 0.95808,0.44797 0.2458,0.263705 0.43688,0.760614 0.43855,1.14048 8.2e-4,0.192168 -0.076,0.725507 -0.17074,1.185218 -0.27436,1.331477 -0.55939,3.571173 -0.43909,3.450236 0.0192,-0.01918 0.45012,-0.709374 0.95785,-1.533795 1.72588,-2.802271 2.54925,-3.823579 3.4776,-4.313639 0.38921,-0.205443 0.49184,-0.23021 0.84773,-0.204465 0.55592,0.04029 0.90256,0.277096 1.1522,0.787338 0.26484,0.541339 0.29152,1.093959 0.1128,2.33788 -0.0798,0.55519 -0.19435,1.746719 -0.25465,2.647819 -0.19247,2.876073 -0.30973,3.80476 -0.62941,4.984817 -0.46399,1.712706 -1.0628,2.745774 -2.03144,3.504643 l -0.29022,0.227371 -0.17439,-0.541359 z m -85.29299,0.28807 c -0.42092,-0.203659 -0.82551,-0.640637 -0.92511,-0.99917 -0.16013,-0.576427 -0.0496,-1.563357 0.63682,-5.686555 1.4017,-8.419648 3.48504,-15.991432 5.60129,-20.357636 1.32238,-2.728297 1.93012,-3.029047 3.28917,-1.627758 0.39512,0.407415 1.00001,1.202829 1.00001,1.314999 0,0.02609 -0.1702,0.01727 -0.37822,-0.01727 -0.77949,-0.134289 -1.54329,0.193089 -2.06611,0.885561 -0.34831,0.461341 -1.23577,2.305228 -1.86352,3.871885 -1.6964,4.233603 -2.90541,8.976526 -3.91443,15.356282 l -0.20691,1.308131 0.16952,0.337488 c 0.24253,0.482866 0.3349,1.000436 0.29439,1.649667 -0.0283,0.4529 -0.12621,0.834876 -0.49237,1.920029 -0.25141,0.745075 -0.47666,1.480175 -0.50054,1.633552 -0.10759,0.690669 -0.0898,0.679273 -0.64398,0.411117 z m 65.60823,0.08115 c -0.45211,-0.141387 -0.74513,-0.354428 -0.92321,-0.671293 -0.14849,-0.264032 -0.15981,-0.348538 -0.1247,-0.927209 0.023,-0.380499 0.21045,-1.436186 0.46566,-2.623648 0.23489,-1.092827 0.54889,-2.602487 0.69778,-3.354814 0.14887,-0.752327 0.34819,-1.552326 0.44285,-1.777798 0.2995,-0.713402 0.27577,-1.009932 -0.1105,-1.380531 l -0.29634,-0.284348 0.59032,-1.150341 c 0.47705,-0.929665 0.67158,-1.233946 1.01392,-1.586091 0.45188,-0.464794 0.6358,-0.529771 0.92541,-0.326917 0.23441,0.164216 0.36369,0.471873 0.36369,0.865609 0,0.305758 -0.39566,1.783285 -0.87683,3.27449 -0.10974,0.34002 -0.0959,0.369411 0.22365,0.475864 l 0.21829,0.07271 0.7159,-1.405261 c 0.84886,-1.666261 1.4677,-2.750109 1.68884,-2.957855 0.0882,-0.08288 0.44001,-0.307369 0.78193,-0.499057 l 0.62166,-0.34848 0.34198,0.468017 c 0.57575,0.788047 0.60735,0.880611 0.60509,1.772464 -0.002,0.767943 -0.3415,3.837987 -0.43479,3.931261 -0.12854,0.128534 -0.77253,-0.452056 -1.01264,-0.913187 -0.17822,-0.34238 -0.18148,-0.374686 -0.18532,-1.812674 -0.002,-0.805237 -0.0309,-1.506131 -0.0641,-1.557544 -0.065,-0.100717 -1.20259,1.923002 -1.90473,3.388309 -0.80977,1.689934 -1.92625,4.821425 -2.74022,7.685738 -0.23427,0.824402 -0.44219,1.553823 -0.46205,1.620929 -0.042,0.142347 -0.16133,0.146951 -0.56182,0.02168 z m -27.08205,-0.335378 c -0.16,-0.201299 -0.38825,-0.569943 -0.50708,-0.819183 -0.19203,-0.402791 -0.21864,-0.536006 -0.23953,-1.198321 -0.0192,-0.584887 0.008,-0.869772 0.12297,-1.324629 0.28103,-1.112548 2.92219,-6.833999 4.11343,-8.910782 0.97097,-1.692735 1.34595,-2.094318 1.95006,-2.08839 0.41194,0.0038 0.75355,0.185127 1.50695,0.798599 l 0.59928,0.488026 -0.35061,0.325057 c -0.26022,0.24126 -0.52154,0.3913 -1.01358,0.581952 -1.12855,0.437284 -1.04548,0.333402 -2.34931,2.938115 -1.26921,2.535592 -2.93626,6.110026 -3.05144,6.54284 -0.0409,0.153282 -0.0744,0.520927 -0.0746,0.816748 -7.1e-4,0.575928 0.002,0.580685 0.44466,0.748835 0.16805,0.06388 0.22276,0.0038 1.28674,-1.411745 2.30661,-3.069123 3.64039,-5.244647 4.53867,-7.402982 0.30113,-0.723589 0.87025,-2.435182 0.94863,-2.853052 0.0566,-0.30169 0.20491,-0.358207 0.78314,-0.298544 0.47393,0.04892 0.71586,0.21469 0.84234,0.577175 0.13007,0.372787 0.0393,0.979985 -0.44711,2.991216 -0.21329,0.881935 -0.49648,2.07968 -0.62931,2.661671 -0.13276,0.58199 -0.28794,1.169237 -0.34465,1.304965 -0.215,0.514577 -0.10762,0.770206 0.38489,0.915757 0.22454,0.06638 0.27651,0.151171 0.27781,0.453878 7.7e-4,0.180907 -1.01912,3.519779 -1.35592,4.439027 -0.023,0.06312 -0.12604,0.0518 -0.40626,-0.0447 -0.87624,-0.301479 -1.02547,-0.481791 -1.02547,-1.239144 0,-0.513196 0.26975,-2.437542 0.65282,-4.657036 0.13237,-0.766888 0.2313,-1.403975 0.2199,-1.415716 -0.0558,-0.05755 -0.98015,1.188172 -2.16265,2.914652 -1.63395,2.38561 -2.48327,3.559106 -2.79492,3.861775 -0.31777,0.308597 -1.06068,0.669893 -1.3775,0.669893 -0.21968,0 -0.28786,-0.04604 -0.5423,-0.366015 z m 34.83772,-0.06964 c -0.2347,-0.833342 -0.22219,-1.079456 0.13199,-2.596982 0.17898,-0.766906 0.76264,-3.17688 1.29698,-5.355512 0.53436,-2.178652 0.97155,-3.974118 0.97155,-3.989945 0,-0.01535 -0.11856,-0.0894 -0.26369,-0.163257 l -0.26369,-0.134481 -0.62521,0.201971 c -0.34388,0.111076 -0.64804,0.202373 -0.67595,0.202834 -0.0278,6.9e-4 0.12661,-0.273682 0.34328,-0.609194 0.78407,-1.214013 1.00206,-1.402459 1.47499,-1.275115 0.28157,0.07578 1.01891,0.523402 1.26088,0.765372 0.20577,0.205751 0.18858,0.754591 -0.0627,2.007606 -0.11357,0.566182 -0.35007,2.017657 -0.52553,3.225531 -0.49476,3.405902 -0.82642,4.898872 -1.43279,6.449798 -0.2154,0.550931 -0.33757,0.760537 -0.57096,0.979736 -0.29768,0.279571 -0.85728,0.727464 -0.90887,0.727464 -0.0154,0 -0.0827,-0.196082 -0.15021,-0.43575 z M 121.73566,74.895913 c 7e-4,-0.0096 0.0497,-0.174193 0.10956,-0.366034 0.0598,-0.19165 0.14973,-0.88276 0.19976,-1.535636 0.104,-1.357396 0.22734,-1.754835 0.66814,-2.15306 0.43799,-0.395693 0.53384,-0.42491 0.65101,-0.198326 0.38658,0.747569 0.43187,1.97198 0.0993,2.684577 -0.23029,0.493417 -0.79394,1.101306 -1.27791,1.37821 -0.32819,0.187813 -0.45202,0.240148 -0.44986,0.190307 z m 59.85206,-7.236618 c -0.39913,-0.09707 -0.67078,-0.215668 -0.64753,-0.282602 0.0351,-0.1011 1.21822,-1.619739 1.49637,-1.920739 0.21356,-0.231131 0.33275,-0.299273 0.59133,-0.338044 0.43781,-0.06561 0.56724,-0.01151 0.7959,0.33344 0.6503,0.980887 -0.13755,2.167428 -1.4928,2.248136 -0.25544,0.01535 -0.58989,-0.0038 -0.74327,-0.04009 z m 1.49892,-5.49195 c -0.93755,-0.31393 -1.36222,-0.636857 -3.60369,-2.740307 -7.75688,-7.279225 -15.17456,-13.524864 -21.84334,-18.391986 -4.10793,-2.998104 -5.83857,-4.337351 -10.80628,-8.362307 -3.00057,-2.431153 -3.9461,-3.400223 -4.59986,-4.714416 -0.43995,-0.884371 -0.578,-1.507301 -0.5794,-2.614419 -0.002,-1.438219 0.22814,-2.342369 1.27912,-5.029133 1.08659,-2.777831 1.14131,-3.330854 0.40862,-4.130949 -0.52791,-0.576484 -2.10068,-1.418785 -4.58748,-2.456841 -5.39507,-2.25203 -12.30421,-3.385873 -24.02607,-3.942828 -2.32732,-0.1105009 -10.12433,-0.1099254 -12.40979,9.784e-4 -12.811956,0.6219316 -21.212462,1.9531026 -30.431859,4.8223456 -9.16304,2.85169 -17.691424,6.847372 -28.758631,13.473874 -5.729061,3.430266 -10.484443,6.688852 -14.710476,10.080173 -3.807758,3.055675 -5.778802,4.982534 -10.458642,10.224151 -0.99282,1.111991 -2.310276,2.570852 -2.92768,3.241876 -0.617405,0.671044 -1.807491,1.988709 -2.644637,2.928158 C 9.8272068,57.427817 9.4052777,57.81622 8.1884329,58.42031 7.3255324,58.848693 6.8182912,58.967827 5.9954722,58.935367 5.4004078,58.911962 5.2733644,58.882611 4.8602178,58.672812 3.9043987,58.187664 3.3097851,57.336826 3.2349419,56.34723 3.179327,55.611785 3.2794876,55.190596 3.8704945,53.67449 5.0864933,50.555143 5.7925593,49.1932 7.1585936,47.331951 10.341514,42.995214 12.583275,40.368919 16.142918,36.806571 21.060875,31.884889 24.906577,28.852792 31.694245,24.54533 47.044637,14.803949 62.600192,8.00051 78.405234,4.1156641 98.305065,-0.77567788 119.36613,-0.84943912 138.52019,3.9051273 c 3.13058,0.7771012 5.14697,1.3617294 8.66174,2.5113835 1.99738,0.6533364 2.59689,0.7698802 3.65286,0.7101983 1.55156,-0.087672 2.78673,-0.6626024 4.47452,-2.0826421 3.1746,-2.6709824 5.00227,-3.8845045 6.65282,-4.4172721 0.7926,-0.25584212 2.28181,-0.31999401 3.24188,-0.13966082 1.32653,0.24917754 2.866,0.86086892 5.57743,2.21613512 7.00605,3.5018703 12.75384,7.7143898 21.47104,15.7360238 4.60842,4.240702 14.93939,14.223016 15.60744,15.080702 0.90997,1.168317 1.27957,1.926744 1.35036,2.77104 0.10398,1.239854 -0.44162,2.478423 -1.40438,3.188218 -0.4011,0.295724 -0.44091,0.309671 -0.78337,0.274622 -0.74822,-0.07655 -0.86837,-0.171699 -3.30257,-2.612905 -1.2507,-1.254319 -3.08714,-3.158981 -4.08099,-4.232586 -4.18054,-4.516051 -8.85169,-9.060687 -12.69432,-12.350447 -3.03175,-2.595582 -7.37584,-5.885189 -9.33184,-7.066666 -0.74588,-0.450521 -2.08831,-1.089699 -2.99689,-1.4269 -0.90563,-0.336107 -1.22543,-0.322256 -2.33554,0.101101 -0.44097,0.168245 -0.80679,0.307944 -0.81295,0.31063 -0.029,0.01343 0.48087,1.719631 0.60699,2.032372 0.0877,0.217453 0.28293,0.490021 0.50558,0.705824 0.51935,0.503451 2.45749,2.047048 5.62639,4.48106 6.46236,4.963696 10.64087,8.547645 14.71217,12.618777 4.05261,4.052428 6.98091,7.598988 8.48149,10.272264 0.47997,0.855039 1.22346,2.463959 1.37603,2.977749 0.34738,1.169756 -0.0875,2.189836 -1.05809,2.481934 -0.95343,0.286938 -2.22515,-0.08652 -3.72595,-1.094457 -0.54508,-0.366034 -1.16296,-0.95708 -3.88735,-3.718489 -9.54034,-9.670053 -11.40559,-11.455601 -14.83248,-14.198478 -2.11136,-1.689935 -8.03677,-6.093739 -8.93093,-6.637534 -0.98129,-0.596762 -3.14018,-1.445413 -3.67705,-1.445413 -0.74697,0 -1.33631,0.370677 -1.40386,0.882952 -0.0727,0.551449 0.0836,0.93448 0.74226,1.818411 0.33578,0.450674 0.79278,1.018334 1.01559,1.261474 0.22278,0.243141 1.7881,1.57481 3.47849,2.959256 11.07543,9.07097 16.33061,13.865058 21.33828,19.466147 1.01475,1.134974 1.75369,2.066155 2.82284,3.557226 0.97978,1.366451 1.1833,1.736399 1.18564,2.155055 0.004,0.622584 -0.32893,1.0102 -1.68255,1.961908 -1.08009,0.759425 -1.4456,0.935958 -1.93773,0.935958 -0.67651,0 -0.9237,-0.200782 -3.97743,-3.23098 -4.95339,-4.915217 -7.70391,-7.36471 -17.42946,-15.521976 -2.16649,-1.817145 -4.79779,-4.043143 -5.84736,-4.946679 -2.98678,-2.571255 -3.41835,-2.889559 -4.78802,-3.531289 -0.95248,-0.446282 -1.33443,-0.540668 -1.82373,-0.450694 -0.47477,0.08729 -2.11198,0.621567 -2.11183,0.689134 6.9e-4,0.165176 0.45238,1.688323 0.57044,1.922312 0.2022,0.400815 1.61803,1.821634 3.02974,3.040424 0.65727,0.567429 3.82594,3.22229 7.0415,5.899691 9.90214,8.244823 13.47026,11.306215 14.91497,12.796748 1.11431,1.149651 2.99125,3.481257 4.36706,5.424845 0.4352,0.614814 0.62324,1.197783 0.62917,1.950474 0.004,0.415894 -0.0288,0.659725 -0.10648,0.809976 -0.17476,0.337833 -0.90825,0.972177 -1.40971,1.219039 -0.401,0.197424 -0.5402,0.228081 -1.13451,0.249855 -0.52325,0.01918 -0.76466,-0.0038 -1.06087,-0.103595 z"
       id="path89" />
  </g>
</svg>
