<?xml version="1.0" encoding="UTF-8"?>
<!-- Created with Inkscape (http://www.inkscape.org/) -->
<svg width="1094.4" height="785.89" version="1.1" viewBox="0 0 1094.4 785.89" xmlns="http://www.w3.org/2000/svg">
 <defs>
  <clipPath id="clipPath2">
   <path transform="translate(-154.86 -306.79)" d="M 0,589.414 H 820.808 V 0 H 0 Z"/>
  </clipPath>
  <clipPath id="clipPath4">
   <path transform="translate(-357.23 -349.71)" d="M 0,589.414 H 820.808 V 0 H 0 Z"/>
  </clipPath>
  <clipPath id="clipPath6">
   <path transform="translate(-402.47 -306.79)" d="M 0,589.414 H 820.808 V 0 H 0 Z"/>
  </clipPath>
  <clipPath id="clipPath8">
   <path transform="translate(-569.64 -298.35)" d="M 0,589.414 H 820.808 V 0 H 0 Z"/>
  </clipPath>
  <clipPath id="clipPath10">
   <path transform="translate(-723.53 -279.68)" d="M 0,589.414 H 820.808 V 0 H 0 Z"/>
  </clipPath>
  <clipPath id="clipPath12">
   <path transform="translate(-364.63 -189.01)" d="M 0,589.414 H 820.808 V 0 H 0 Z"/>
  </clipPath>
  <clipPath id="clipPath14">
   <path transform="translate(-514.92 -187.39)" d="M 0,589.414 H 820.808 V 0 H 0 Z"/>
  </clipPath>
  <clipPath id="clipPath16">
   <path transform="translate(-633.43 -129.75)" d="M 0,589.414 H 820.808 V 0 H 0 Z"/>
  </clipPath>
  <clipPath id="clipPath18">
   <path transform="translate(-319.47 -189.14)" d="M 0,589.414 H 820.808 V 0 H 0 Z"/>
  </clipPath>
  <clipPath id="clipPath20">
   <path transform="translate(-439.63 -433.75)" d="M 0,589.414 H 820.808 V 0 H 0 Z"/>
  </clipPath>
  <clipPath id="clipPath22">
   <path transform="translate(-252.19 -431.09)" d="M 0,589.414 H 820.808 V 0 H 0 Z"/>
  </clipPath>
  <clipPath id="clipPath24">
   <path transform="translate(-292.62 -455.08)" d="M 0,589.414 H 820.808 V 0 H 0 Z"/>
  </clipPath>
  <clipPath id="clipPath26">
   <path transform="translate(-329.03 -450.06)" d="M 0,589.414 H 820.808 V 0 H 0 Z"/>
  </clipPath>
  <clipPath id="clipPath28">
   <path transform="translate(-358.66 -498.55)" d="M 0,589.414 H 820.808 V 0 H 0 Z"/>
  </clipPath>
  <clipPath id="clipPath30">
   <path transform="translate(-405.46 -479.93)" d="M 0,589.414 H 820.808 V 0 H 0 Z"/>
  </clipPath>
  <clipPath id="clipPath32">
   <path transform="translate(-479.23 -455.1)" d="M 0,589.414 H 820.808 V 0 H 0 Z"/>
  </clipPath>
  <clipPath id="clipPath34">
   <path transform="translate(-521.25 -486.68)" d="M 0,589.414 H 820.808 V 0 H 0 Z"/>
  </clipPath>
  <clipPath id="clipPath36">
   <path transform="translate(-561.45 -447.27)" d="M 0,589.414 H 820.808 V 0 H 0 Z"/>
  </clipPath>
  <clipPath id="clipPath38">
   <path transform="translate(-603.34 -450.71)" d="M 0,589.414 H 820.808 V 0 H 0 Z"/>
  </clipPath>
  <clipPath id="clipPath40">
   <path transform="translate(-635.54 -199.56)" d="M 0,589.414 H 820.808 V 0 H 0 Z"/>
  </clipPath>
 </defs>
 <g>
  <g fill="#dc0032">
   <path transform="matrix(1.3333 0 0 -1.3333 206.48 376.83)" d="m0 0h21.368c12.571 0 21.011 8.441 21.011 21.01 0 12.57-8.62 21.01-21.369 21.01h-21.01zm77.575-49.741v-20.112h-34.119l-22.985 49.921h-20.471v-29.809h13.647v-20.112h-52.794v20.112h13.827v92.66h-13.827v20.111h61.773c27.654 0 45.791-16.879 45.791-42.02 0-16.52-8.8-29.449-23.165-36.094l16.7-34.657z" clip-path="url(#clipPath2)"/>
   <path transform="matrix(1.3333 0 0 -1.3333 476.3 319.6)" d="m0 0h-14.007v-67.161c0-28.552-20.291-47.408-50.998-47.408s-50.999 18.856-50.999 47.408v67.161h-13.827v20.111h52.794v-20.111h-13.647v-66.083c0-16.521 10.236-27.476 25.679-27.476s25.678 10.955 25.678 27.476v66.083h-13.647v20.111h52.974z" clip-path="url(#clipPath4)"/>
   <path transform="matrix(1.3333 0 0 -1.3333 536.63 376.83)" d="m0 0h21.368c12.571 0 21.01 8.441 21.01 21.01 0 12.57-8.619 21.01-21.368 21.01h-21.01zm77.575-49.741v-20.112h-34.119l-22.985 49.921h-20.471v-29.809h13.648v-20.112h-52.795v20.112h13.827v92.66h-13.827v20.111h61.773c27.654 0 45.791-16.879 45.791-42.02 0-16.52-8.799-29.449-23.165-36.094l16.7-34.657z" clip-path="url(#clipPath6)"/>
   <path transform="matrix(1.3333 0 0 -1.3333 759.53 388.08)" d="m0 0-15.982 50.459-15.982-50.459zm52.614-41.301v-20.113h-52.973v20.113h13.468l-6.465 20.291h-45.252l-6.465-20.291h13.288v-20.113h-52.794v20.113h13.109l31.964 92.659h-14.905v20.111h54.949l38.968-112.77z" clip-path="url(#clipPath8)"/>
   <path transform="matrix(1.3333 0 0 -1.3333 964.71 412.98)" d="m0 0v-42.738h-96.251v20.112h13.827v92.66h-13.827v20.11h56.386v-20.11h-17.239v-91.763h33.041v21.729z" clip-path="url(#clipPath10)"/>
   <path transform="matrix(1.3333 0 0 -1.3333 486.17 533.87)" d="m0 0v-92.66h13.648v-20.112h-52.795v20.112h13.827v92.66h-13.827v20.111h52.795v-20.111z" clip-path="url(#clipPath12)"/>
   <path transform="matrix(1.3333 0 0 -1.3333 686.57 536.03)" d="m0 0h-13.827v-111.15h-17.06l-61.234 86.374 0.36-66.262h13.647v-20.112h-52.794v20.112h13.827v91.042h-13.827v21.729h31.066l61.233-86.375-0.358 64.646h-14.007v21.729h52.974z" clip-path="url(#clipPath14)"/>
   <path transform="matrix(1.3333 0 0 -1.3333 844.58 612.88)" d="m0 0h-13.827v-48.305c-10.236-4.31-27.474-7.004-43.277-7.004-38.607 0-64.286 27.476-64.286 68.598 0 40.762 25.679 67.878 64.107 67.878 15.803 0 32.503-3.232 41.84-8.082v-33.759h-24.063v19.753c-4.848 0.719-9.697 1.078-14.366 1.078-24.78 0-41.301-18.856-41.301-47.048 0-28.552 15.981-47.408 39.685-47.408 5.208 0 10.774 0.54 16.341 1.437v32.862h-22.805v20.113h61.952z" clip-path="url(#clipPath16)"/>
   <path transform="matrix(1.3333 0 0 -1.3333 425.96 533.69)" d="m0 0v20.188h-49.835v-19.665l9.454-0.079-37.727-45.865v45.832l12.409 0.066v19.711h-48.034v-19.889l11.408 7e-3 0.207-93.449-12.616-0.225v-19.539h48.035v20.212l-11.409 0.148v17.49l16.264 19.591 21.435-37.319-10.827 0.09v-20.212h51.236v20.436l-12.288-0.059-33.744 55.477 30.288 37.115z" clip-path="url(#clipPath18)"/>
  </g>
  <g fill="#231f20">
   <path transform="matrix(1.3333 0 0 -1.3333 586.17 207.55)" d="m0 0-3.198 3.233-16.799-16.698-16.546 16.728-3.229-3.195 16.55-16.738-16.8-16.699 3.206-3.233 16.794 16.696 16.547-16.734 3.239 3.194-16.562 16.746z" clip-path="url(#clipPath20)"/>
   <path transform="matrix(1.3333 0 0 -1.3333 336.25 211.1)" d="m0 0c-8.267-2.684-16.487-5.569-24.652-8.654l-15.534 41.112c8.815 3.331 17.69 6.445 26.616 9.343 0.786-2.421 1.572-4.841 2.358-7.262-5.568-1.807-11.115-3.7-16.64-5.678 1.084-3.029 2.168-6.057 3.253-9.085 5.056 1.81 10.131 3.548 15.224 5.213 0.791-2.419 1.582-4.839 2.372-7.258-5.025-1.643-10.033-3.358-15.023-5.144 1.274-3.557 2.547-7.113 3.82-10.669 5.256 1.882 10.533 3.682 15.83 5.402l2.376-7.32" clip-path="url(#clipPath22)"/>
   <path transform="matrix(1.3333 0 0 -1.3333 390.16 179.11)" d="m0 0c0.913-3.862 0.183-7.242-2.129-10.16-2.315-2.921-5.973-5.014-11.011-6.367-4.643-1.249-8.97-1.562-13.039-0.919-0.813 2.769-1.627 5.537-2.44 8.306 3.355-0.393 6.126-0.576 8.333-0.522 2.207 0.053 4.162 0.304 5.872 0.761 2.053 0.549 3.53 1.336 4.436 2.377 0.906 1.042 1.172 2.307 0.792 3.803-0.213 0.835-0.646 1.515-1.304 2.04-0.657 0.525-1.538 0.966-2.647 1.319-1.108 0.353-3.3 0.808-6.593 1.326-3.082 0.47-5.479 1.054-7.177 1.781-1.699 0.726-3.18 1.707-4.439 2.948s-2.183 2.849-2.763 4.83c-1.094 3.73-0.573 7.073 1.618 10.01 2.188 2.936 5.793 5.1 10.782 6.412 2.45 0.645 4.859 0.982 7.217 1.013 2.357 0.032 4.868-0.139 7.522-0.52-0.517-2.604-1.02-5.208-1.509-7.812-2.708 0.331-4.926 0.467-6.644 0.422-1.718-0.044-3.364-0.274-4.933-0.687-1.867-0.492-3.192-1.275-3.969-2.338-0.779-1.064-0.989-2.234-0.639-3.508 0.218-0.793 0.607-1.43 1.166-1.91 0.559-0.481 1.347-0.878 2.362-1.197 1.014-0.319 3.334-0.755 6.933-1.357 4.758-0.803 8.14-2.011 10.174-3.55 2.033-1.541 3.369-3.712 4.029-6.501" clip-path="url(#clipPath24)"/>
   <path transform="matrix(1.3333 0 0 -1.3333 438.71 185.8)" d="m0 0c-3.126-0.537-6.249-1.102-9.368-1.693-2.249 11.852-4.498 23.705-6.746 35.558-4.257-0.807-8.508-1.662-12.751-2.565-0.538 2.529-1.075 5.057-1.613 7.586 11.953 2.543 23.966 4.714 36.021 6.512 0.382-2.557 0.763-5.114 1.145-7.671-4.279-0.638-8.552-1.324-12.819-2.057 2.044-11.89 4.087-23.78 6.131-35.67" clip-path="url(#clipPath26)"/>
   <path transform="matrix(1.3333 0 0 -1.3333 478.22 121.15)" d="m0 0c0.177-0.203 0.354-0.406 0.531-0.608-0.674-4.043-2.073-9.021-4.109-14.949-2.338-0.273-4.675-0.56-7.011-0.862 0.712 6.073 1.179 11.19 1.353 15.351 3.077 0.38 6.155 0.736 9.236 1.068" clip-path="url(#clipPath28)"/>
   <path transform="matrix(1.3333 0 0 -1.3333 540.61 145.98)" d="m0 0c-0.254 9.424-4.915 14.06-13.975 13.595-1.792-0.095-3.584-0.198-5.375-0.309 0.59-9.52 1.18-19.041 1.769-28.562 1.373 0.085 2.747 0.165 4.12 0.239 9.229 0.491 13.72 5.388 13.461 15.037m10.244 0.452c0.08-7.237-2.016-12.792-6.158-16.733-4.15-3.948-10.113-6.048-18.013-6.489-4.218-0.237-8.433-0.522-12.645-0.855-1.157 14.603-2.314 29.207-3.471 43.811 5.042 0.399 10.088 0.734 15.137 1.005 7.88 0.42 14.085-1.293 18.486-4.98 4.407-3.691 6.588-8.968 6.664-15.759" clip-path="url(#clipPath30)"/>
   <path transform="matrix(1.3333 0 0 -1.3333 638.97 179.09)" d="m0 0c-3.139 0.325-6.28 0.623-9.423 0.894 0.728 8.446 1.457 16.891 2.185 25.337 0.152 1.385 0.303 2.77 0.455 4.155 0.186 1.512 0.371 3.025 0.557 4.538-1.796-1.393-3.028-2.309-3.711-2.736-1.915-1.203-3.817-2.415-5.708-3.636-1.458 1.972-2.933 3.94-4.423 5.901 5.317 3.43 10.729 6.787 16.234 10.068 2.789-0.249 5.576-0.518 8.362-0.806-1.51-14.572-3.019-29.143-4.528-43.715" clip-path="url(#clipPath32)"/>
   <path transform="matrix(1.3333 0 0 -1.3333 695 136.98)" d="m0 0c-2.067 0.352-3.792-0.036-5.162-1.154-1.373-1.118-2.247-2.908-2.637-5.362-0.332-2.099-0.077-3.843 0.759-5.236 0.835-1.394 2.299-2.261 4.398-2.618 1.974-0.336 3.767-0.025 5.395 0.934 1.625 0.96 2.591 2.224 2.879 3.802 0.43 2.345 0.129 4.449-0.918 6.307-1.049 1.857-2.625 2.971-4.714 3.327m14.724-14.747c-1.711-8.489-4.873-14.436-9.366-17.925-4.504-3.49-10.403-4.568-17.845-3.385-2.623 0.416-4.594 0.853-5.907 1.33 0.363 2.459 0.726 4.917 1.088 7.376 1.661-0.671 3.428-1.152 5.311-1.449 3.17-0.499 5.845-0.487 8.046 0.06s4.021 1.676 5.459 3.402c1.44 1.725 2.561 4.254 3.348 7.593-0.124 0.023-0.249 0.046-0.374 0.069-1.553-1.63-3.179-2.68-4.888-3.152-1.71-0.473-3.743-0.507-6.109-0.117-3.962 0.653-6.893 2.34-8.837 5.11-1.942 2.768-2.631 6.308-2.019 10.635 0.659 4.662 2.612 8.149 5.916 10.424 3.301 2.272 7.491 3.01 12.51 2.158 3.532-0.601 6.489-1.908 8.844-3.896s3.946-4.549 4.777-7.665c0.831-3.115 0.836-6.639 0.046-10.568" clip-path="url(#clipPath34)"/>
   <path transform="matrix(1.3333 0 0 -1.3333 748.6 189.53)" d="m0 0c1.996-0.514 3.693-0.273 5.106 0.73 1.413 1.002 2.446 2.691 3.087 5.07 0.558 2.07 0.492 3.837-0.209 5.301-0.703 1.462-2.09 2.467-4.158 3-1.945 0.501-3.759 0.325-5.425-0.52-1.668-0.846-2.687-2.064-3.072-3.641-0.565-2.316-0.403-4.429 0.469-6.337 0.871-1.909 2.268-3.105 4.202-3.603m-13.394 15.418c1.911 8.482 5.259 14.373 10.164 17.58 4.892 3.206 11.351 3.827 19.212 1.711 2.683-0.723 4.743-1.451 6.181-2.169-0.67-2.383-1.34-4.765-2.01-7.147-1.774 0.914-3.584 1.622-5.428 2.121-3.371 0.912-6.25 1.161-8.619 0.774-2.369-0.389-4.307-1.375-5.812-2.944-1.504-1.57-2.754-4.021-3.759-7.343 0.135-0.033 0.27-0.066 0.406-0.099 2.864 2.808 6.61 3.641 11.172 2.446 4.101-1.077 6.985-3.154 8.617-6.171 1.633-3.021 1.826-6.624 0.624-10.803-1.298-4.507-3.656-7.687-7.025-9.585-3.372-1.899-7.347-2.225-11.998-1.027-3.222 0.83-5.85 2.252-7.912 4.295-2.061 2.042-3.435 4.613-4.117 7.732-0.684 3.118-0.592 6.66 0.304 10.629" clip-path="url(#clipPath36)"/>
   <path transform="matrix(1.3333 0 0 -1.3333 804.45 184.94)" d="m0 0c-1.701-5.117-2.448-8.937-2.264-11.462 0.186-2.524 1.361-4.152 3.536-4.903 2.137-0.737 4.068-0.167 5.814 1.723 1.744 1.889 3.524 5.339 5.322 10.357 1.819 5.075 2.629 8.899 2.414 11.475-0.216 2.575-1.447 4.259-3.68 5.03-2.274 0.785-4.287 0.221-6.01-1.685-1.726-1.905-3.432-5.42-5.132-10.535m21.747-7.721c-2.716-7.18-5.976-12.018-9.711-14.566-3.743-2.549-8.113-2.913-13.206-1.153-4.936 1.703-8.07 4.725-9.456 9.172-1.38 4.442-1.001 10.209 1.22 17.306 2.315 7.401 5.319 12.455 9.079 15.111 3.752 2.656 8.424 3.072 13.921 1.175 5.349-1.847 8.729-5.13 10.089-9.734 1.36-4.606 0.687-10.378-1.936-17.311" clip-path="url(#clipPath38)"/>
   <path transform="matrix(1.3333 0 0 -1.3333 847.39 519.81)" d="m0 0h0.344c0.491 0 0.842 0.106 1.053 0.317 0.212 0.212 0.317 0.563 0.317 1.053 0 0.482-0.104 0.824-0.311 1.024-0.208 0.201-0.568 0.302-1.081 0.302h-0.322zm4.288 1.414c0-1.262-0.531-2.127-1.593-2.595l2.64-4.455h-2.83l-1.982 3.764h-0.523v-3.764h-2.552v10.203h2.941c1.344 0 2.33-0.26 2.957-0.779 0.628-0.521 0.942-1.311 0.942-2.374m-10.192-1.938c0-1.218 0.304-2.352 0.913-3.403 0.609-1.05 1.441-1.878 2.495-2.484 1.055-0.605 2.184-0.907 3.387-0.907 1.217 0 2.352 0.304 3.402 0.913 1.051 0.609 1.879 1.441 2.485 2.495 0.604 1.055 0.907 2.183 0.907 3.386 0 1.218-0.305 2.352-0.912 3.404-0.61 1.05-1.441 1.878-2.497 2.483-1.054 0.605-2.182 0.908-3.385 0.908-1.219 0-2.352-0.305-3.404-0.913-1.051-0.609-1.879-1.441-2.483-2.495-0.606-1.055-0.908-2.183-0.908-3.387m-1.583 0c0 1.485 0.372 2.878 1.115 4.178 0.742 1.299 1.763 2.324 3.063 3.074s2.7 1.125 4.2 1.125c1.485 0 2.876-0.371 4.176-1.114s2.325-1.764 3.075-3.063 1.125-2.699 1.125-4.2c0-1.462-0.36-2.837-1.081-4.121-0.719-1.285-1.729-2.313-3.029-3.085-1.3-0.773-2.722-1.159-4.266-1.159-1.538 0-2.956 0.384-4.256 1.153-1.3 0.768-2.311 1.795-3.036 3.08-0.723 1.284-1.086 2.662-1.086 4.132" clip-path="url(#clipPath40)"/>
  </g>
 </g>
</svg>
