<?xml version="1.0" encoding="UTF-8" standalone="no"?>
<!-- Created with Inkscape (http://www.inkscape.org/) -->

<svg
   width="208.23509mm"
   height="151.63992mm"
   viewBox="0 0 208.23509 151.63992"
   version="1.1"
   id="svg8"
   inkscape:version="1.1.2 (b8e25be833, 2022-02-05)"
   sodipodi:docname="Red Bird Cafe.svg"
   xmlns:inkscape="http://www.inkscape.org/namespaces/inkscape"
   xmlns:sodipodi="http://sodipodi.sourceforge.net/DTD/sodipodi-0.dtd"
   xmlns="http://www.w3.org/2000/svg"
   xmlns:svg="http://www.w3.org/2000/svg"
   xmlns:rdf="http://www.w3.org/1999/02/22-rdf-syntax-ns#"
   xmlns:cc="http://creativecommons.org/ns#"
   xmlns:dc="http://purl.org/dc/elements/1.1/">
  <defs
     id="defs2">
    <clipPath
       clipPathUnits="userSpaceOnUse"
       id="clipPath24">
      <path
         d="M 0,200 H 200 V 0 H 0 Z"
         id="path22" />
    </clipPath>
    <clipPath
       clipPathUnits="userSpaceOnUse"
       id="clipPath32">
      <path
         d="M 35.2724,150.795 H 164.442 V 57.7149 H 35.2724 Z"
         id="path30" />
    </clipPath>
    <clipPath
       clipPathUnits="userSpaceOnUse"
       id="clipPath60">
      <path
         d="M 0,200 H 200 V 0 H 0 Z"
         id="path58" />
    </clipPath>
    <clipPath
       clipPathUnits="userSpaceOnUse"
       id="clipPath68">
      <path
         d="M 43.8894,127.08 H 171.889 V 50.2316 H 43.8894 Z"
         id="path66" />
    </clipPath>
    <clipPath
       clipPathUnits="userSpaceOnUse"
       id="clipPath88">
      <path
         d="M 0,200 H 200 V 0 H 0 Z"
         id="path86" />
    </clipPath>
  </defs>
  <sodipodi:namedview
     id="base"
     pagecolor="#ffffff"
     bordercolor="#666666"
     borderopacity="1.0"
     inkscape:pageopacity="0.0"
     inkscape:pageshadow="2"
     inkscape:zoom="0.49497475"
     inkscape:cx="786.90883"
     inkscape:cy="300.01531"
     inkscape:document-units="mm"
     inkscape:current-layer="layer1"
     inkscape:pagecheckerboard="0"
     showgrid="false"
     inkscape:window-width="1920"
     inkscape:window-height="1009"
     inkscape:window-x="-8"
     inkscape:window-y="-8"
     inkscape:window-maximized="1"
     fit-margin-top="0"
     fit-margin-left="0"
     fit-margin-right="0"
     fit-margin-bottom="0" />
  <metadata
     id="metadata5">
    <rdf:RDF>
      <cc:Work
         rdf:about="">
        <dc:format>image/svg+xml</dc:format>
        <dc:type
           rdf:resource="http://purl.org/dc/dcmitype/StillImage" />
      </cc:Work>
    </rdf:RDF>
  </metadata>
  <g
     inkscape:label="Layer 1"
     inkscape:groupmode="layer"
     id="layer1"
     transform="translate(-1.6566103,-81.867501)">
    <g
       id="g16"
       inkscape:label="Red Bird Logo"
       transform="matrix(1.4809598,0,0,-1.4809598,-44.668997,307.8984)">
      <g
         id="g18">
        <g
           id="g20"
           clip-path="url(#clipPath24)">
          <g
             id="g26">
            <g
               id="g28" />
            <g
               id="g44">
              <g
                 clip-path="url(#clipPath32)"
                 id="g42">
                <g
                   transform="translate(163.3428,61.7148)"
                   id="g36">
                  <path
                     d="m 0,0 -5.561,57.98 -1.349,14.1 -40.46,6.35 -60.691,9.52 -4.81,-23.31 -11.79,-57.08 -2.179,-10.53 z M -4.881,61.37 1.1,-0.97 -128.07,-4 l 2.39,11.55 11.74,56.86 5.089,24.67 0.471,-0.07 63.76,-10 38.63,-6.06 z"
                     style="fill:#ffffff;fill-opacity:1;fill-rule:nonzero;stroke:none"
                     id="path34" />
                </g>
                <g
                   transform="translate(157.7822,119.6948)"
                   id="g40">
                  <path
                     d="m 0,0 5.561,-57.98 -126.841,-2.97 2.18,10.53 11.79,57.08 4.81,23.31 60.69,-9.52 40.46,-6.35 z"
                     style="fill:#ffffff;fill-opacity:1;fill-rule:nonzero;stroke:none"
                     id="path38" />
                </g>
              </g>
            </g>
          </g>
        </g>
      </g>
      <g
         id="g46"
         transform="translate(158.4619,123.085)">
        <path
           d="m 0,0 -1.109,11.58 -38.63,6.06 -63.761,10 -0.47,0.07 -5.09,-24.67 -11.739,-56.86 -2.39,-11.55 129.169,3.03 z"
           style="fill:none;stroke:#000000;stroke-width:1;stroke-linecap:butt;stroke-linejoin:miter;stroke-miterlimit:10;stroke-dasharray:none;stroke-opacity:1"
           id="path48" />
      </g>
      <g
         id="g50"
         transform="translate(38.6821,69.2744)">
        <path
           d="m 0,0 11.79,57.081 4.81,23.31 60.691,-9.52 40.459,-6.35 1.35,-14.101 5.561,-57.98 -126.841,-2.969 z"
           style="fill:none;stroke:#000000;stroke-width:2;stroke-linecap:butt;stroke-linejoin:miter;stroke-miterlimit:10;stroke-dasharray:none;stroke-opacity:1"
           id="path52" />
      </g>
      <g
         id="g54">
        <g
           id="g56"
           clip-path="url(#clipPath60)">
          <g
             id="g62">
            <g
               id="g64" />
            <g
               id="g76">
              <g
                 clip-path="url(#clipPath68)"
                 opacity="0.440002"
                 id="g74">
                <g
                   transform="translate(164.8896,126.2314)"
                   id="g72">
                  <path
                     d="M 0,0 -5.41,0.849 1,-66 -119.519,-68.824 -121,-76 7,-73 Z"
                     style="fill:#435869;fill-opacity:1;fill-rule:nonzero;stroke:none"
                     id="path70" />
                </g>
              </g>
            </g>
          </g>
        </g>
      </g>
      <g
         id="g78"
         transform="translate(31.2808,122.2314)">
        <path
           d="M 0,0 133,28 117,-52 3,-53 Z"
           style="fill:#a2d871;fill-opacity:1;fill-rule:nonzero;stroke:none"
           id="path80" />
      </g>
      <g
         id="g82">
        <g
           id="g84"
           clip-path="url(#clipPath88)">
          <g
             id="g90"
             transform="translate(65.2134,88.0732)">
            <path
               d="m 0,0 c 0.521,1.474 0.742,3.197 0.932,4.99 -0.401,0.151 -1.112,0.231 -1.673,0.231 -0.522,0 -1.103,-0.01 -1.504,-0.05 -0.04,-1.383 -0.12,-3.899 -0.24,-5.341 z m -6.233,1.202 c 0,1.533 0.03,2.986 0.08,4.11 l -1.353,0.209 c -0.18,0.512 -0.27,1.153 -0.27,1.694 0,0.23 0.02,0.472 0.05,0.702 1.934,0.671 5.421,0.861 7.676,0.861 2.425,0 5.231,-0.25 5.231,-3.857 C 5.181,3.979 4.86,2.816 4.349,1.724 3.878,0.712 3.247,-0.24 2.585,-0.902 2.836,-1.554 3.157,-2.445 4.139,-3.808 l 1.403,0.591 c 0.541,-0.461 0.832,-1.072 0.912,-1.784 0,0 -1.293,-1.954 -3.428,-1.954 -0.881,0 -1.753,0.241 -2.294,1.173 -0.551,0.952 -0.802,2.355 -0.902,3.266 l -2.285,0.101 c 0.19,-1.503 0.491,-3.026 0.622,-3.958 -0.632,-0.381 -1.564,-0.582 -2.456,-0.582 -0.541,0 -1.062,0.081 -1.513,0.211 -0.311,1.263 -0.431,4.75 -0.431,7.946"
               style="fill:#000000;fill-opacity:1;fill-rule:nonzero;stroke:none"
               id="path92" />
          </g>
          <g
             id="g94"
             transform="translate(78.7021,88.3438)">
            <path
               d="m 0,0 -0.141,1.103 c -0.21,0.22 -0.751,0.331 -1.222,0.32 -0.381,-0.01 -0.802,-0.08 -0.882,-0.16 -0.22,-0.431 -0.371,-0.932 -0.431,-1.524 z m -6.594,-1.202 c 0,3.347 1.634,6.053 5.422,6.053 1.082,0 2.545,-0.211 3.517,-0.973 0.862,-0.691 1.162,-1.874 1.162,-3.086 0,-0.451 -0.04,-0.902 -0.11,-1.333 -0.22,-0.371 -1.252,-1.283 -2.205,-1.644 -0.28,-0.019 -0.571,-0.03 -0.871,-0.03 -1.163,0 -2.355,0.131 -3.027,0.231 0.081,-0.902 0.491,-2.115 1.924,-2.115 0.091,0 0.191,0.01 0.291,0.021 0.892,0.09 2.144,0.551 3.056,0.941 0.471,-0.47 0.712,-0.851 0.812,-1.853 -0.431,-0.501 -2.395,-2.236 -4.8,-2.236 -3.397,0 -5.171,2.697 -5.171,6.024"
               style="fill:#000000;fill-opacity:1;fill-rule:nonzero;stroke:none"
               id="path96" />
          </g>
          <g
             id="g98"
             transform="translate(90.4468,87.2813)">
            <path
               d="m 0,0 c 0.04,0.241 0.06,0.552 0.06,0.842 0,0.431 -0.04,0.842 -0.08,0.992 -0.601,0.432 -1.403,0.531 -1.834,0.531 -0.25,0 -0.441,-0.03 -0.561,-0.05 -0.281,-0.27 -0.441,-1.302 -0.441,-2.365 0,-1.122 0.16,-2.385 0.481,-3.036 0.321,0 1.774,1.714 2.375,3.086 m -6.875,-0.18 c 0,2.826 1.133,6.093 4.079,6.093 0.972,0 1.964,-0.281 2.986,-0.992 l 0.161,0.1 C 0.331,5.723 0.23,6.514 0.06,7.146 l -2.034,0.129 c -0.2,0.251 -0.301,0.792 -0.301,1.274 0,0.29 0.03,0.6 0.121,0.882 0.851,0.6 2.254,0.871 3.427,0.871 2.134,0 2.475,-1.323 2.475,-4.179 0,-2.565 -0.23,-6.584 -0.611,-8.879 l -0.04,-0.17 1.162,0.501 C 4.58,-2.766 4.971,-3.356 5.061,-4.209 4.83,-4.689 3.507,-6.163 1.874,-6.163 c -1.152,0 -1.724,0.782 -1.724,1.764 0,0.281 0.191,1.373 0.281,1.683 L 0.13,-2.625 c -0.681,-2.396 -1.783,-3.538 -3.437,-3.538 -2.846,0 -3.568,3.298 -3.568,5.983"
               style="fill:#000000;fill-opacity:1;fill-rule:nonzero;stroke:none"
               id="path100" />
          </g>
          <g
             id="g102"
             transform="translate(107.3223,89.3662)">
            <path
               d="M 0,0 C 0.381,1.072 0.632,2.916 0.672,3.697 0.611,3.808 0,3.918 -1.032,3.918 c -0.22,0 -0.591,-0.02 -0.772,-0.03 C -1.844,2.806 -1.924,1.212 -2.044,-0.16 -1.322,-0.101 -0.4,-0.04 0,0 m -0.791,-5.622 h 0.29 c 0.411,0 0.893,0.01 1.203,0.07 0.541,0.311 0.842,1.543 0.842,2.235 -0.141,0.411 -0.952,0.521 -1.794,0.521 -0.822,0 -1.674,-0.11 -1.924,-0.12 -0.011,-0.942 -0.051,-1.834 -0.06,-2.626 0.331,-0.04 0.931,-0.08 1.443,-0.08 m -4.911,4.99 c 0,1.533 0.011,3.217 0.091,4.66 h -0.011 l -1.533,0.211 c -0.18,0.511 -0.27,1.142 -0.27,1.683 0,0.23 0.02,0.472 0.05,0.702 1.713,0.571 4.739,0.861 6.965,0.861 2.425,0 5.23,-0.24 5.23,-3.757 0,-1.323 -1.202,-3.277 -2.445,-4.049 1.423,-0.25 2.896,-1.263 2.896,-3.197 0,-1.693 -0.701,-2.856 -1.813,-3.597 -1.233,-0.822 -2.957,-1.133 -4.811,-1.133 -1.403,0 -2.755,0.03 -3.918,0.211 -0.321,1.733 -0.431,4.379 -0.431,7.405"
               style="fill:#000000;fill-opacity:1;fill-rule:nonzero;stroke:none"
               id="path104" />
          </g>
          <g
             id="g106"
             transform="translate(114.2871,95.6992)">
            <path
               d="M 0,0 C 0,1.072 0.611,1.984 2.415,1.984 4.219,1.984 4.83,1.072 4.83,0 4.83,-1.042 3.628,-1.834 2.415,-1.834 1.042,-1.834 0,-0.781 0,0 m 0.762,-5.942 -1.253,0.211 c -0.17,0.67 -0.231,1.162 -0.231,1.743 0,0.09 0.011,0.18 0.011,0.28 0.391,0.491 1.563,1.203 2.936,1.203 1.914,0 2.586,-0.862 2.586,-2.596 0,-1.703 -0.863,-5.321 -1.313,-6.343 l 0.02,-0.02 1.483,0.541 c 0.541,-0.461 0.791,-0.992 0.872,-1.704 0,0 -1.153,-1.954 -3.287,-1.954 -1.123,0 -2.155,0.481 -2.155,2.306 0,1.803 0.09,4.138 0.331,6.333"
               style="fill:#000000;fill-opacity:1;fill-rule:nonzero;stroke:none"
               id="path108" />
          </g>
          <g
             id="g110"
             transform="translate(122.0234,84.0049)">
            <path
               d="m 0,0 c 0,1.242 0.051,3.567 0.051,5.731 l -0.923,0.151 c -0.26,0.792 -0.351,1.424 -0.351,2.085 0,0.11 0,0.21 0.011,0.32 0.25,0.221 1.263,0.902 2.385,0.902 1.643,0 2.265,-0.771 2.265,-2.085 C 3.438,6.243 3.167,4.67 2.967,4.139 L 3.327,4.078 3.929,6.343 C 4.5,8.508 5.361,9.189 6.283,9.189 6.965,9.189 7.666,8.948 8.007,8.668 8.197,8.247 8.288,7.646 8.288,7.015 8.288,6.053 8.087,5.021 7.787,4.449 L 5.683,4.729 C 4.771,3.758 3.688,1.834 3.167,0.621 L 3.157,0.1 5.101,0.561 c 0.34,-0.521 0.521,-1.132 0.571,-1.784 0,0 -1.193,-1.653 -3.327,-1.653 -1.122,0 -2.275,0.48 -2.335,2.305 C 0,-0.421 0,-0.23 0,0"
               style="fill:#000000;fill-opacity:1;fill-rule:nonzero;stroke:none"
               id="path112" />
          </g>
          <g
             id="g114"
             transform="translate(137.9678,87.2813)">
            <path
               d="m 0,0 c 0.04,0.241 0.06,0.552 0.06,0.842 0,0.431 -0.04,0.842 -0.081,0.992 -0.601,0.432 -1.403,0.531 -1.833,0.531 -0.25,0 -0.441,-0.03 -0.561,-0.05 -0.281,-0.27 -0.441,-1.302 -0.441,-2.365 0,-1.122 0.16,-2.385 0.481,-3.036 0.32,0 1.773,1.714 2.375,3.086 m -6.875,-0.18 c 0,2.826 1.133,6.093 4.079,6.093 0.972,0 1.964,-0.281 2.986,-0.992 l 0.161,0.1 C 0.33,5.723 0.23,6.514 0.06,7.146 l -2.035,0.129 c -0.2,0.251 -0.3,0.792 -0.3,1.274 0,0.29 0.03,0.6 0.12,0.882 0.852,0.6 2.255,0.871 3.427,0.871 2.135,0 2.475,-1.323 2.475,-4.179 0,-2.565 -0.23,-6.584 -0.611,-8.879 l -0.04,-0.17 1.163,0.501 C 4.579,-2.766 4.97,-3.356 5.061,-4.209 4.83,-4.689 3.507,-6.163 1.874,-6.163 c -1.153,0 -1.725,0.782 -1.725,1.764 0,0.281 0.191,1.373 0.282,1.683 L 0.13,-2.625 c -0.682,-2.396 -1.784,-3.538 -3.438,-3.538 -2.845,0 -3.567,3.298 -3.567,5.983"
               style="fill:#000000;fill-opacity:1;fill-rule:nonzero;stroke:none"
               id="path116" />
          </g>
          <g
             id="g118"
             transform="translate(83.9863,72.166)">
            <path
               d="M 0,0 C 0,3.305 1.41,5.973 4.874,5.973 5.586,5.973 6.336,5.896 7.276,5.677 7.754,5.389 8.178,5.078 8.58,4.54 8.58,3.472 8.087,0.933 7.663,0.455 7.436,0.341 7.322,0.288 6.905,0.288 6.45,0.288 5.988,0.356 5.768,0.485 L 5.502,3.039 C 5.048,3.168 4.525,3.191 4.01,3.191 3.881,3.191 3.752,3.191 3.63,3.184 3.403,2.456 3.29,1.433 3.267,0.371 3.259,0.159 3.259,-0.061 3.259,-0.272 c 0,-0.584 0.023,-1.153 0.106,-1.645 0.167,-0.993 0.281,-1.501 1.463,-1.501 1.114,0 1.948,0.379 2.827,0.879 C 8.042,-2.963 8.466,-3.396 8.564,-4.191 8.383,-4.555 6.965,-5.942 4.646,-5.942 1.213,-5.942 0,-3.615 0,0"
               style="fill:#000000;fill-opacity:1;fill-rule:nonzero;stroke:none"
               id="path120" />
          </g>
          <g
             id="g122"
             transform="translate(96.6211,68.4824)">
            <path
               d="M 0,0 C 0.379,0.068 1.076,0.629 1.16,1.092 L 1.114,1.273 C 0.826,1.312 0.523,1.326 0.258,1.326 0.023,1.326 -0.167,1.312 -0.273,1.266 -0.387,1.137 -0.516,0.955 -0.516,0.659 -0.516,0.387 -0.387,0.038 0,0 m -0.864,2.888 c 0.636,0 1.432,-0.152 1.986,-0.311 v 0.236 c 0,0.272 -0.016,0.764 -0.046,0.901 -0.045,0.084 -0.303,0.402 -1.44,0.402 -0.682,0 -1.44,-0.235 -1.97,-0.402 -0.334,0.554 -0.683,1.227 -0.683,1.918 0,0.091 0.008,0.189 0.023,0.288 0.068,0.053 1.046,0.955 3.176,0.955 1.834,0 3.82,-0.433 3.82,-3.161 0,-1.433 -0.599,-3.615 -0.591,-3.615 L 4.51,0.568 C 4.752,0.311 5.048,-0.136 5.116,-0.78 4.941,-1.145 3.941,-2.259 2.706,-2.259 c -0.872,0 -1.273,0.592 -1.273,1.334 0,0.213 0.03,0.44 0.098,0.675 l -0.227,0.068 c -0.319,-1.789 -1.584,-2.077 -2.426,-2.077 -1.061,0 -2.198,0.917 -2.198,2.577 0,1.691 0.872,2.57 2.456,2.57"
               style="fill:#000000;fill-opacity:1;fill-rule:nonzero;stroke:none"
               id="path124" />
          </g>
          <g
             id="g126"
             transform="translate(103.3359,65.2764)">
            <path
               d="m 0,0 c 0.076,0.22 0.106,0.584 0.091,0.887 -0.053,1.265 -0.235,3.494 -0.235,5.169 0,0.243 0.008,0.477 0.015,0.697 l 0.008,0.183 -1.008,0.135 c -0.151,0.493 -0.175,0.917 -0.167,1.493 0.371,0.198 0.864,0.349 1.334,0.463 l 0.03,0.121 c -0.651,0.591 -1.136,1.349 -1.098,2.213 0.06,1.334 1.258,2.039 3.054,2.039 0.47,0 1.228,0 2.425,-0.334 0.069,-0.204 0.107,-0.462 0.107,-0.742 0,-0.629 -0.167,-1.372 -0.44,-1.872 -0.864,0.28 -1.387,0.44 -2.153,0.553 C 1.804,10.975 1.66,10.815 1.646,10.71 1.736,10.247 2.062,9.565 2.44,9.058 L 4.548,9.444 C 4.737,9.163 4.813,8.739 4.813,8.314 4.813,7.708 4.661,7.095 4.487,6.897 4.389,6.89 4.298,6.89 4.199,6.89 3.737,6.89 3.29,6.942 2.857,7.071 2.835,6.382 2.797,5.616 2.767,4.828 2.698,3.32 2.684,1.767 2.532,0.439 2.456,-0.25 2.343,-0.895 1.986,-1.372 1.554,-1.947 0.842,-2.175 0.016,-2.175 c -0.607,0 -1.494,0.197 -1.925,0.879 -0.024,0.584 0.174,1.251 0.575,1.698 z"
               style="fill:#000000;fill-opacity:1;fill-rule:nonzero;stroke:none"
               id="path128" />
          </g>
          <g
             id="g130"
             transform="translate(113.8262,71.6885)">
            <path
               d="M 0,0 -0.106,0.834 C -0.266,1.001 -0.675,1.084 -1.031,1.076 -1.319,1.068 -1.638,1.016 -1.698,0.955 -1.864,0.629 -1.979,0.25 -2.023,-0.197 Z m -4.987,-0.909 c 0,2.531 1.235,4.578 4.1,4.578 0.819,0 1.925,-0.159 2.66,-0.735 C 2.425,2.41 2.652,1.516 2.652,0.599 2.652,0.258 2.622,-0.083 2.569,-0.409 2.402,-0.689 1.622,-1.379 0.901,-1.652 0.689,-1.667 0.47,-1.675 0.242,-1.675 c -0.879,0 -1.781,0.099 -2.289,0.174 0.061,-0.682 0.372,-1.599 1.455,-1.599 0.069,0 0.145,0.008 0.22,0.015 0.675,0.068 1.622,0.417 2.312,0.713 0.356,-0.357 0.539,-0.645 0.614,-1.402 -0.325,-0.379 -1.812,-1.691 -3.63,-1.691 -2.57,0 -3.911,2.039 -3.911,4.556"
               style="fill:#000000;fill-opacity:1;fill-rule:nonzero;stroke:none"
               id="path132" />
          </g>
          <g
             id="g134"
             transform="translate(127.0811,146.1411)">
            <path
               d="m 0,0 c -0.769,-0.509 -1.804,-0.298 -2.313,0.471 -0.509,0.768 -0.298,1.804 0.47,2.313 0.77,0.508 1.806,0.298 2.314,-0.471 C 0.979,1.544 0.769,0.509 0,0 m 5.23,1.764 c -5.791,6.232 -14.291,7.59 -20.563,-4.009 -8.897,-16.452 -29.546,-20.817 -51.594,-9.578 6.463,-7.228 22.796,-16.6 32.206,-18.428 20.215,-3.926 35.505,14.078 23.039,18.522 17.122,-3.274 -3.525,-29.461 -29.442,-18.613 -2.683,1.123 3.064,-2.352 9.066,-4.1 5.309,-1.546 9.338,-6.666 10.625,-10.891 1.567,4.225 6.603,10.016 13.144,13.272 C 1.135,-27.37 5.064,-16.98 3.288,-5 2.73,-1.248 2.91,0.484 5.23,1.764"
               style="fill:#d80f3a;fill-opacity:1;fill-rule:nonzero;stroke:none"
               id="path136" />
          </g>
          <g
             id="g138"
             transform="translate(54.5493,115.2461)">
            <path
               d="M 0,0 -0.025,0.211 C -0.081,0.141 -0.137,0.069 -0.172,0 -0.183,-0.086 -0.194,-0.173 -0.163,-0.256 Z m -0.22,-0.864 -0.123,0.136 c -0.075,-0.095 -0.108,-0.184 -0.161,-0.277 -0.014,-0.065 0.055,-0.101 0.123,-0.136 z m -3.9,-11.884 c 0.078,0.245 0.159,0.47 0.176,0.686 0.13,0.359 0.214,0.734 0.261,1.062 0.072,0.309 0.079,0.61 0.15,0.92 0.082,0.395 0.312,0.809 0.309,1.196 -0.046,0.573 0.251,1.146 0.382,1.677 -0.147,0.154 -0.077,0.291 -0.032,0.447 0.074,0.287 0.279,0.549 0.165,0.793 -0.091,-0.14 -0.222,-0.306 -0.247,-0.459 -0.267,-1.191 -0.535,-2.382 -0.799,-3.595 -0.194,-0.903 -0.449,-1.835 -0.643,-2.739 -0.082,-0.396 -0.095,-0.827 -0.175,-1.244 0.273,0.419 0.352,0.836 0.453,1.256 m -0.195,-4.168 c -0.514,-0.018 -0.959,0.488 -0.98,1.023 0.025,0.518 0.092,1.041 0.183,1.546 l 0.008,0.109 c 0.142,0.983 0.411,1.981 0.645,2.91 l 0.554,2.213 c 0.038,0.219 0.095,0.462 0.155,0.684 0.196,0.71 0.386,1.463 0.536,2.189 0.134,0.681 0.311,1.368 0.511,2.036 0.117,0.464 0.256,0.932 0.37,1.418 0.076,0.267 0.173,0.536 0.272,0.783 0.03,0.111 0.081,0.225 0.114,0.314 0.274,0.763 0.573,1.507 0.994,2.308 L -1.015,0.589 C -2.098,0.311 -3.073,0.023 -4.074,-0.417 -5.233,-0.962 -6.135,-1.691 -6.811,-2.694 -6.899,-2.855 -7.011,-2.998 -7.121,-3.161 -7.398,-3.537 -7.66,-3.868 -7.848,-4.277 -7.894,-4.433 -8.04,-4.472 -8.101,-4.5 L -8.143,-4.505 C -8.265,-4.563 -8.4,-4.514 -8.438,-4.368 l -0.024,0.019 c -0.008,0.063 -0.06,0.143 -0.033,0.275 0.157,0.491 0.411,0.886 0.665,1.281 0.238,0.35 0.495,0.724 0.809,1.147 0.448,0.569 0.978,0.996 1.432,1.329 0.2,0.131 0.402,0.241 0.582,0.348 l 0.138,0.102 c 0.521,0.32 1.545,0.741 2.17,0.901 0.149,0.017 0.292,0.077 0.435,0.137 l 0.124,0.036 c 0.703,0.233 1.397,0.358 2.07,0.48 0.82,0.141 1.693,0.395 2.763,0.779 0.64,0.225 1.26,0.427 1.859,0.627 0.249,0.073 0.498,0.145 0.766,0.241 0.31,0.101 0.642,0.204 0.942,0.39 L 7.062,4.206 C 7.566,4.479 8.071,4.754 8.525,5.087 8.666,5.168 8.81,5.228 8.96,5.224 9.09,5.218 9.182,5.165 9.216,5.061 9.273,4.938 9.248,4.786 9.155,4.667 8.933,4.362 8.593,4.15 8.333,3.991 7.751,3.643 7.127,3.29 6.397,2.924 6.055,2.733 5.648,2.535 5.209,2.44 4.979,2.391 4.769,2.346 4.543,2.254 L 3.043,1.691 2.263,1.384 C 2.202,1.355 2.117,1.345 2.035,1.314 1.852,1.228 1.626,1.137 1.417,1.091 1.229,1.047 1.112,0.947 1.047,0.768 0.983,0.588 0.875,0.404 0.811,0.224 0.569,-0.277 0.349,-0.775 0.259,-1.28 0.225,-1.541 0.128,-1.81 0.026,-2.037 -0.025,-2.15 -0.058,-2.24 -0.068,-2.328 c -0.661,-1.86 -1.189,-3.575 -1.597,-5.213 -0.199,-0.861 -0.398,-1.722 -0.617,-2.585 l -0.748,-2.945 c -0.158,-0.662 -0.25,-1.339 -0.365,-1.996 l -0.091,-0.505 c -0.026,-0.325 -0.118,-0.636 -0.234,-0.93 -0.102,-0.227 -0.296,-0.4 -0.529,-0.428 -0.021,-0.003 -0.045,0.017 -0.066,0.014"
               style="fill:#000000;fill-opacity:1;fill-rule:nonzero;stroke:none"
               id="path140" />
          </g>
          <g
             id="g142"
             transform="translate(56.5952,101.916)">
            <path
               d="M 0,0 C 0.03,0.111 0.083,0.204 0.095,0.291 0.143,0.425 0.168,0.578 0.174,0.708 0.204,0.819 0.149,0.92 0.179,1.031 0.202,1.205 0.33,1.392 0.272,1.514 0.146,1.671 0.369,1.783 0.429,2.005 0.238,1.982 0.272,2.244 0.307,2.313 0.336,2.423 0.513,2.38 0.358,2.426 0.28,2.353 0.206,2.257 0.168,2.21 0.094,1.75 0.021,1.463 -0.054,1.003 -0.117,0.631 -0.205,0.276 -0.271,-0.075 -0.295,-0.228 -0.235,-0.371 -0.257,-0.546 -0.026,-0.325 -0.046,-0.156 0,0 M -0.624,6.734 C -0.62,6.885 -0.598,7.059 -0.615,7.207 -0.627,7.313 -0.675,7.35 -0.76,7.34 L -0.823,7.333 C -1.337,7.144 -1.487,6.954 -1.484,6.568 -1.5,6.523 -1.493,6.459 -1.53,6.412 -1.691,5.77 -1.499,5.234 -1.291,4.744 c 0.367,0.537 0.574,1.141 0.667,1.99 m 1.461,-8.911 c -0.58,0.362 -1.145,0.788 -1.266,1.633 -0.053,0.444 -0.084,0.892 0.033,1.356 0.018,0.024 0.037,0.048 0.034,0.069 -0.036,0.489 0.041,0.928 0.269,1.363 -0.137,0.069 -0.232,0.145 -0.327,0.219 -0.142,0.112 -0.305,0.222 -0.463,0.289 -0.567,0.255 -1.025,0.674 -1.349,1.237 -0.346,0.56 -0.383,1.242 -0.39,1.844 l 0.025,0.518 c 0.014,0.065 0.025,0.153 0.039,0.218 0.018,0.389 0.192,0.732 0.391,1.056 0.013,0.066 0.05,0.113 0.085,0.182 0.442,0.803 0.54,0.88 1.37,1.128 C -0.274,9.051 0.221,8.852 0.391,8.507 0.563,8.141 0.727,7.666 0.627,7.053 0.532,6.591 0.414,6.126 0.213,5.652 0.183,5.541 0.153,5.43 0.104,5.295 0.026,5.049 -0.055,4.825 -0.218,4.57 -0.306,4.409 -0.434,4.222 -0.543,4.059 -0.56,4.014 -0.576,3.969 -0.598,3.967 -0.576,3.969 -0.552,3.95 -0.531,3.953 L 0.517,3.625 0.738,3.566 C 0.781,3.571 0.804,3.552 0.847,3.557 L 1.002,3.512 C 1.72,3.252 2.012,2.6 1.721,1.792 1.548,1.257 1.367,0.612 1.359,-0.053 L 1.372,-0.16 C 1.353,-0.184 1.355,-0.205 1.358,-0.226 c -0.02,-0.56 0.235,-0.896 0.761,-0.983 0.24,-0.037 0.426,0.028 0.601,0.178 0.272,0.247 0.48,0.486 0.621,0.739 0.447,0.761 0.84,1.624 1.163,2.521 0.046,0.155 0.089,0.333 0.133,0.509 0.009,0.109 0.041,0.198 0.071,0.309 0.029,0.111 0.039,0.22 0.11,0.335 C 4.907,3.543 5.069,3.627 5.241,3.625 5.307,3.612 5.441,3.563 5.424,3.347 5.455,3.265 5.444,3.178 5.435,3.069 L 5.424,2.981 C 5.465,2.45 5.222,1.97 5.02,1.496 L 4.867,1.155 C 4.545,0.429 4.29,-0.137 4.003,-0.622 3.626,-1.247 3.158,-1.645 2.722,-1.955 2.461,-2.114 2.167,-2.342 1.849,-2.38 L 1.785,-2.387 c -0.317,-0.038 -0.669,0.028 -0.948,0.21"
               style="fill:#000000;fill-opacity:1;fill-rule:nonzero;stroke:none"
               id="path144" />
          </g>
          <g
             id="g146"
             transform="translate(63.1377,108.5083)">
            <path
               d="M 0,0 C -0.028,0.062 -0.1,0.117 -0.17,0.173 -0.266,0.249 -0.384,0.341 -0.462,0.461 -0.524,0.626 -0.613,0.83 -0.455,1.127 -0.251,1.581 0.036,1.701 0.247,1.726 0.311,1.733 0.374,1.741 0.419,1.725 0.57,1.721 0.683,1.67 0.794,1.641 L 0.839,1.624 C 1.087,1.525 1.016,1.215 1.007,1.107 1.01,1.086 0.989,1.083 0.991,1.062 0.938,0.97 0.905,0.88 0.854,0.767 0.792,0.566 0.698,0.276 0.466,0.055 0.392,-0.039 0.312,-0.091 0.227,-0.102 0.142,-0.111 0.052,-0.079 0,0 m -1.022,-7.164 c -0.596,0.316 -0.923,0.728 -1.031,1.274 l -0.014,0.127 c -0.105,0.525 -0.192,1.073 -0.05,1.691 0.078,0.245 0.112,0.507 0.169,0.75 l 0.12,0.615 c 0.106,0.378 0.219,0.692 0.378,0.989 0.216,0.348 0.427,0.566 0.829,0.614 0.042,0.005 0.127,0.015 0.172,-10e-4 0.042,0.005 0.063,0.008 0.108,-0.009 l 0.022,0.003 c 0,0 0.042,0.005 0.06,0.028 0.043,0.006 0.125,0.037 0.188,0.044 0.085,0.01 0.154,-0.025 0.246,-0.079 0.15,-0.175 0.069,-0.4 0.02,-0.533 C 0.198,-1.673 0.2,-1.694 0.184,-1.739 -0.052,-2.647 -0.292,-3.707 -0.405,-4.75 -0.397,-4.813 -0.43,-4.904 -0.441,-4.991 l -0.002,-0.343 c -0.048,-0.329 0.129,-0.543 0.325,-0.757 0.074,-0.077 0.182,-0.086 0.267,-0.076 0.378,0.066 0.625,0.16 0.835,0.378 0.4,0.434 0.713,0.878 0.959,1.337 0.209,0.411 0.461,0.828 0.693,1.221 l 0.156,0.319 c 0.091,0.139 0.21,0.218 0.269,0.267 0.04,0.027 0.083,0.032 0.125,0.037 C 3.313,-2.593 3.429,-2.666 3.465,-2.79 3.475,-2.875 3.487,-2.98 3.458,-3.091 3.409,-3.227 3.36,-3.361 3.27,-3.5 L 3.023,-3.958 C 2.753,-4.398 2.506,-4.857 2.215,-5.3 1.835,-5.903 1.319,-6.436 0.606,-6.95 0.327,-7.133 0.062,-7.25 -0.213,-7.283 l -0.042,-0.005 c -0.276,-0.032 -0.516,0.003 -0.767,0.124"
               style="fill:#000000;fill-opacity:1;fill-rule:nonzero;stroke:none"
               id="path148" />
          </g>
          <g
             id="g150"
             transform="translate(66.5098,100.6831)">
            <path
               d="m 0,0 c -0.285,0.052 -0.517,0.196 -0.767,0.317 -0.071,0.056 -0.14,0.09 -0.23,0.123 -0.094,0.075 -0.173,0.194 -0.207,0.297 L -1.261,0.86 c -0.115,0.244 -0.229,0.488 -0.304,0.758 -0.09,0.398 -0.055,0.832 0.125,1.303 0.058,0.415 0.194,0.904 0.512,0.942 0.19,0.022 0.3,-0.18 0.384,-0.342 L -0.513,3.439 -0.548,3.37 C -0.741,3.004 -0.844,2.605 -0.902,2.19 -0.914,1.738 -0.747,1.414 -0.364,1.267 0.063,1.102 0.468,1.128 0.891,1.372 0.952,1.4 1.01,1.45 1.111,1.505 1.268,1.63 1.446,1.759 1.579,1.904 1.675,2.001 1.769,2.119 1.822,2.211 2.192,2.9 2.36,3.478 2.294,4.028 2.292,4.049 2.308,4.094 2.285,4.113 2.293,4.221 2.278,4.348 2.306,4.48 L 2.087,4.691 2.215,4.706 C 2.042,5.072 1.852,5.414 1.661,5.757 1.439,6.182 1.196,6.604 1.011,7.076 L 0.703,7.684 C 0.56,7.989 0.395,8.292 0.268,8.642 0.061,9.305 0.049,9.947 0.252,10.594 c 0.086,0.182 0.153,0.341 0.244,0.48 0.323,0.531 0.686,0.919 1.127,1.185 0.459,0.291 0.928,0.324 1.431,0.062 C 3.26,12.216 3.428,12.065 3.578,11.889 3.706,11.71 3.8,11.464 3.797,11.12 3.813,10.628 3.635,10.135 3.304,9.666 3.191,9.524 3.003,9.48 2.885,9.574 2.837,9.611 2.78,9.733 2.81,9.844 l 0.076,0.267 0.013,0.065 0.086,0.182 c 0.052,0.114 0.06,0.223 0.111,0.336 C 3.143,10.85 3.16,11.066 2.97,11.216 2.759,11.363 2.521,11.377 2.283,11.22 1.743,10.877 1.488,10.31 1.622,9.725 L 1.788,9.229 C 1.821,9.126 1.855,9.023 1.891,8.898 1.956,8.712 2.044,8.508 2.093,8.278 2.127,8.174 2.184,8.052 2.284,7.935 2.441,7.696 2.598,7.457 2.753,7.239 2.855,7.101 2.955,6.983 3.036,6.843 3.374,6.346 3.7,5.762 3.995,5.088 4.138,4.783 4.136,4.439 4.147,4.161 4.124,3.45 3.942,2.806 3.565,2.181 3.549,2.137 3.514,2.068 3.519,2.025 3.484,1.957 3.447,1.91 3.412,1.841 3.098,1.225 2.585,0.477 1.679,0.154 1.411,0.059 1.119,-0.019 0.844,-0.051 0.547,-0.086 0.267,-0.076 0,0"
               style="fill:#000000;fill-opacity:1;fill-rule:nonzero;stroke:none"
               id="path152" />
          </g>
          <g
             id="g154"
             transform="translate(73.6226,116.8115)">
            <path
               d="m 0,0 c 0.037,0.047 0.075,0.095 0.093,0.119 -0.005,0.042 0.032,0.089 0.03,0.11 L 0.078,0.246 C 0.017,0.217 -0.044,0.188 -0.081,0.141 L -0.09,0.032 -0.111,0.03 -0.075,-0.094 C -0.038,-0.047 -0.021,-0.002 0,0 m 0.716,-4.79 0.134,0.317 c 0.137,0.296 0.253,0.588 0.326,0.876 l 0.157,0.491 c 0.125,0.401 0.251,0.781 0.291,1.172 0.006,0.129 0.057,0.243 0.087,0.354 0.118,0.271 0.194,0.538 0.249,0.803 0.063,0.372 0.15,0.726 0.322,1.089 L 2.303,0.68 C 2.327,1.026 2.372,1.376 2.374,1.719 2.38,1.849 2.367,1.955 2.317,2.013 2.277,1.987 2.264,1.921 2.206,1.872 1.839,1.334 1.544,0.741 1.294,0.132 0.855,-1.059 0.529,-2.299 0.199,-3.499 L 0.092,-3.875 c -0.078,-0.246 -0.13,-0.531 -0.161,-0.814 -0.134,-0.682 -0.247,-1.361 -0.342,-2.016 -0.017,-0.217 -0.055,-0.437 -0.073,-0.652 0.477,0.872 0.864,1.776 1.2,2.567 m -2.114,-0.83 c 0.037,0.049 0.03,0.112 0.044,0.178 0.038,0.219 0.074,0.46 0.134,0.681 -0.005,0.043 0.032,0.09 0.027,0.132 -0.049,0.231 0.074,0.461 0.179,0.666 0.049,0.134 0.062,0.2 0.071,0.309 -0.048,0.23 -0.01,0.449 0.203,0.647 0.059,0.049 0.091,0.139 0.086,0.181 -0.149,0.348 -0.017,0.686 0.245,1.017 0.013,0.066 0.051,0.114 0.022,0.174 -0.058,0.316 0.099,0.614 0.324,0.898 0.018,0.023 0.034,0.068 0.034,0.068 -0.219,0.039 -0.179,0.065 -0.017,0.148 0.019,0.024 0.032,0.09 0.032,0.09 -0.007,0.063 -0.097,0.097 -0.144,0.134 -0.038,-0.048 -0.099,-0.077 -0.091,-0.14 -0.108,-0.356 -0.256,-0.739 -0.365,-1.095 -0.185,-0.796 -0.412,-1.595 -0.621,-2.372 -0.08,-0.417 -0.223,-0.842 -0.305,-1.238 l 0.021,0.003 c -0.023,-0.175 -0.005,-0.323 -0.048,-0.501 0.002,-0.02 0.028,-0.06 0.073,-0.076 0.019,0.024 0.08,0.052 0.096,0.096 m 4.976,-9.032 c -0.281,0.011 -0.503,0.07 -0.65,0.224 -0.286,0.246 -0.555,0.514 -0.642,0.89 -0.031,0.083 -0.062,0.165 -0.093,0.247 l -0.026,0.041 c -0.125,0.328 -0.142,0.648 -0.094,0.976 0.136,0.661 0.141,1.348 0.129,1.991 l 0.011,0.087 c 0.008,0.302 0.039,0.584 0.07,0.867 -0.059,-0.049 -0.136,-0.123 -0.192,-0.194 -0.46,-0.656 -0.874,-1.328 -1.219,-2.034 l -0.21,-0.411 c -0.137,-0.296 -0.274,-0.591 -0.432,-0.889 -0.185,-0.43 -0.486,-0.787 -0.77,-1.121 -0.074,-0.095 -0.148,-0.189 -0.226,-0.263 -0.072,-0.116 -0.234,-0.199 -0.34,-0.212 l -0.042,-0.005 c -0.304,0.028 -0.65,0.052 -0.9,0.345 -0.538,0.558 -0.586,1.326 -0.6,1.99 0.005,0.323 0.054,0.629 0.104,0.935 -10e-4,0.193 0.04,0.392 0.041,0.564 0.062,0.565 0.101,1.15 0.12,1.71 0.039,1.122 0.219,2.324 0.483,3.73 l 0.073,0.287 c 0.075,0.46 0.192,0.924 0.287,1.387 0.32,1.476 0.679,2.614 1.139,3.635 C -0.197,0.578 0.097,1 0.369,1.418 L 0.388,1.442 C 0.609,1.747 0.829,2.073 1.119,2.344 1.372,2.567 1.653,2.729 2.005,2.835 2.459,2.996 2.849,2.785 2.944,2.345 2.993,2.115 3.044,1.863 3.01,1.602 L 3.009,1.429 C 2.956,0.972 2.902,0.515 2.783,0.071 2.594,-0.51 2.452,-1.127 2.327,-1.701 2.272,-1.965 2.198,-2.252 2.123,-2.519 1.94,-3.335 1.667,-4.119 1.294,-4.957 0.872,-5.931 0.501,-6.791 0.083,-7.613 -0.035,-7.885 -0.198,-8.14 -0.321,-8.369 L -0.524,-8.651 C -0.61,-8.833 -0.659,-8.967 -0.639,-9.137 L -0.686,-9.83 c -0.037,-0.412 -0.058,-0.779 -0.034,-1.163 0.02,-0.17 -0.005,-0.323 -0.009,-0.474 -0.034,-0.068 -0.029,-0.111 -0.043,-0.177 -0.025,-0.153 -0.068,-0.33 -0.072,-0.481 l -0.097,-0.633 c -0.03,-0.112 0.002,-0.194 -0.007,-0.302 l -0.016,-0.045 c 0.017,-0.149 0.02,-0.169 0.065,-0.186 0.066,-0.013 0.127,0.015 0.201,0.11 0.077,0.073 0.134,0.144 0.203,0.281 0.172,0.365 0.344,0.729 0.534,1.116 0.416,0.844 0.898,1.674 1.424,2.487 l 0.091,0.14 c 0.2,0.303 0.401,0.606 0.712,0.878 0.234,0.2 0.489,0.402 0.71,0.535 0.295,0.228 0.575,0.218 0.777,-0.037 0.316,-0.305 0.424,-0.68 0.409,-1.09 l -0.147,-1.67 C 3.997,-10.565 3.999,-10.586 3.98,-10.61 l -0.023,-0.346 c 0.013,-0.299 -0.012,-0.624 -0.06,-0.952 -0.007,-0.301 0.028,-0.598 0.063,-0.894 -0.006,-0.131 0.006,-0.236 0.019,-0.342 0.02,-0.169 0.083,-0.334 0.25,-0.485 0.098,-0.097 0.143,-0.113 0.164,-0.111 0.021,0.003 0.064,0.008 0.202,0.111 0.234,0.199 0.458,0.483 0.691,0.876 l 0.144,0.232 c 0.449,0.739 0.897,1.501 1.277,2.276 0.193,0.366 0.341,0.749 0.519,1.243 l 0.051,0.113 c 0.095,0.29 0.171,0.556 0.289,0.828 0.07,0.138 0.208,0.24 0.314,0.252 0.169,0.02 0.29,-0.095 0.312,-0.285 C 8.203,-8.178 8.172,-8.29 8.138,-8.358 8.092,-8.514 8.027,-8.693 7.959,-8.851 7.895,-9.031 7.831,-9.21 7.744,-9.392 7.421,-10.289 6.955,-11.247 6.249,-12.36 6.195,-12.453 6.123,-12.569 6.05,-12.685 5.836,-13.054 5.601,-13.425 5.34,-13.756 4.908,-14.28 4.406,-14.575 3.855,-14.64 3.771,-14.65 3.665,-14.663 3.578,-14.652"
               style="fill:#000000;fill-opacity:1;fill-rule:nonzero;stroke:none"
               id="path156" />
          </g>
          <g
             id="g158"
             transform="translate(81.8989,117.2739)">
            <path
               d="m 0,0 c -0.143,0.112 -0.141,0.284 -0.13,0.372 -0.001,0.192 -0.002,0.385 -0.004,0.578 -0.006,0.236 0.009,0.474 0.003,0.709 -0.013,0.106 -0.023,0.192 -0.015,0.3 0.01,0.28 0.02,0.561 -0.01,0.814 -0.019,0.342 0.029,0.669 0.184,0.989 L 0.063,3.83 C 0.095,3.92 0.144,4.054 0.285,4.135 0.345,4.165 0.388,4.169 0.449,4.198 0.618,4.218 0.776,4.15 0.879,4.012 0.905,3.973 0.907,3.951 0.955,3.914 L 1.01,3.813 1.017,3.749 C 0.99,3.618 0.983,3.487 1.022,3.342 1.061,3.196 1.097,3.072 1.096,2.9 L 1.087,2.791 C 0.998,2.094 1.099,1.418 1.219,0.767 1.244,0.555 1.182,0.354 1.03,0.186 0.953,0.112 0.854,0.037 0.775,-0.016 0.494,-0.178 0.191,-0.17 0,0"
               style="fill:#000000;fill-opacity:1;fill-rule:nonzero;stroke:none"
               id="path160" />
          </g>
          <g
             id="g162"
             transform="translate(84.1704,102.769)">
            <path
               d="M 0,0 C -0.285,0.052 -0.517,0.197 -0.768,0.317 -0.838,0.373 -0.907,0.407 -0.997,0.44 -1.091,0.515 -1.17,0.634 -1.204,0.738 L -1.261,0.86 c -0.115,0.244 -0.229,0.489 -0.304,0.758 -0.09,0.398 -0.056,0.832 0.125,1.304 0.058,0.415 0.194,0.903 0.511,0.941 0.191,0.022 0.301,-0.179 0.385,-0.342 L -0.513,3.439 -0.548,3.371 C -0.741,3.004 -0.844,2.605 -0.903,2.19 -0.914,1.738 -0.747,1.415 -0.364,1.267 0.063,1.102 0.468,1.128 0.89,1.372 0.952,1.4 1.01,1.45 1.111,1.505 1.268,1.63 1.446,1.759 1.579,1.904 1.675,2.001 1.768,2.12 1.822,2.211 2.191,2.9 2.359,3.478 2.294,4.029 2.292,4.049 2.308,4.094 2.285,4.113 2.293,4.222 2.278,4.348 2.305,4.481 L 2.087,4.691 2.214,4.706 C 2.042,5.073 1.852,5.415 1.661,5.757 1.438,6.182 1.196,6.604 1.011,7.077 L 0.703,7.684 C 0.56,7.989 0.395,8.292 0.268,8.642 0.061,9.305 0.049,9.947 0.251,10.594 c 0.086,0.182 0.154,0.341 0.245,0.48 0.323,0.532 0.686,0.919 1.127,1.185 0.459,0.291 0.928,0.324 1.431,0.062 C 3.26,12.216 3.428,12.065 3.578,11.889 3.706,11.711 3.8,11.464 3.797,11.121 3.812,10.628 3.635,10.135 3.303,9.666 3.191,9.524 3.003,9.48 2.885,9.574 2.837,9.611 2.78,9.733 2.81,9.844 l 0.076,0.267 0.013,0.066 0.086,0.182 c 0.052,0.113 0.06,0.222 0.111,0.335 C 3.142,10.85 3.16,11.066 2.97,11.216 2.759,11.363 2.521,11.378 2.282,11.22 1.743,10.878 1.488,10.311 1.622,9.725 L 1.787,9.229 C 1.821,9.126 1.855,9.023 1.891,8.898 1.956,8.713 2.044,8.508 2.093,8.278 2.127,8.175 2.184,8.052 2.284,7.936 2.441,7.696 2.598,7.457 2.752,7.239 2.854,7.101 2.955,6.984 3.035,6.843 3.373,6.346 3.7,5.762 3.995,5.088 4.138,4.783 4.135,4.439 4.147,4.161 4.124,3.45 3.942,2.806 3.564,2.182 3.548,2.137 3.514,2.068 3.519,2.026 3.484,1.957 3.446,1.91 3.412,1.841 3.098,1.225 2.585,0.477 1.678,0.155 1.411,0.059 1.119,-0.018 0.844,-0.051 0.547,-0.086 0.267,-0.076 0,0"
               style="fill:#000000;fill-opacity:1;fill-rule:nonzero;stroke:none"
               id="path164" />
          </g>
        </g>
      </g>
    </g>
  </g>
</svg>
