<?xml version="1.0" encoding="UTF-8"?>
<svg id="Layer_2" data-name="Layer 2" xmlns="http://www.w3.org/2000/svg" width="4.7in" height="1.4in" xmlns:xlink="http://www.w3.org/1999/xlink" version="1.1" viewBox="0 0 339.7 100">
  <defs>
    <style>
      .cls-1 {
        fill: #216a36;
      }

      .cls-1, .cls-2, .cls-3, .cls-4, .cls-5, .cls-6, .cls-7, .cls-8, .cls-9, .cls-10, .cls-11, .cls-12, .cls-13, .cls-14, .cls-15, .cls-16, .cls-17, .cls-18, .cls-19, .cls-20, .cls-21, .cls-22, .cls-23, .cls-24, .cls-25, .cls-26, .cls-27, .cls-28, .cls-29, .cls-30, .cls-31, .cls-32, .cls-33, .cls-34, .cls-35, .cls-36, .cls-37, .cls-38, .cls-39, .cls-40, .cls-41, .cls-42, .cls-43, .cls-44, .cls-45, .cls-46, .cls-47, .cls-48, .cls-49, .cls-50, .cls-51, .cls-52, .cls-53, .cls-54, .cls-55, .cls-56, .cls-57, .cls-58, .cls-59, .cls-60, .cls-61, .cls-62, .cls-63, .cls-64, .cls-65, .cls-66, .cls-67, .cls-68, .cls-69, .cls-70, .cls-71, .cls-72, .cls-73, .cls-74, .cls-75, .cls-76, .cls-77, .cls-78, .cls-79, .cls-80, .cls-81, .cls-82, .cls-83, .cls-84, .cls-85, .cls-86, .cls-87, .cls-88, .cls-89, .cls-90, .cls-91, .cls-92, .cls-93, .cls-94, .cls-95, .cls-96, .cls-97, .cls-98, .cls-99, .cls-100, .cls-101, .cls-102, .cls-103, .cls-104, .cls-105, .cls-106, .cls-107, .cls-108, .cls-109, .cls-110, .cls-111, .cls-112, .cls-113, .cls-114, .cls-115, .cls-116, .cls-117, .cls-118, .cls-119, .cls-120, .cls-121, .cls-122, .cls-123, .cls-124, .cls-125, .cls-126, .cls-127, .cls-128, .cls-129, .cls-130, .cls-131, .cls-132, .cls-133, .cls-134, .cls-135, .cls-136, .cls-137, .cls-138, .cls-139, .cls-140, .cls-141, .cls-142, .cls-143, .cls-144, .cls-145, .cls-146, .cls-147, .cls-148, .cls-149, .cls-150, .cls-151, .cls-152, .cls-153, .cls-154, .cls-155, .cls-156, .cls-157, .cls-158, .cls-159, .cls-160, .cls-161, .cls-162, .cls-163, .cls-164, .cls-165, .cls-166, .cls-167, .cls-168, .cls-169, .cls-170, .cls-171, .cls-172, .cls-173, .cls-174, .cls-175, .cls-176, .cls-177, .cls-178, .cls-179, .cls-180, .cls-181, .cls-182, .cls-183 {
        stroke-width: 0px;
      }

      .cls-2 {
        fill: #066993;
      }

      .cls-3 {
        fill: #015b80;
      }

      .cls-4 {
        fill: #1b391c;
      }

      .cls-5 {
        fill: #0573a2;
      }

      .cls-6 {
        fill: #055f86;
      }

      .cls-7 {
        fill: #1b3b1c;
      }

      .cls-8 {
        fill: #056690;
      }

      .cls-9 {
        fill: #1a371b;
      }

      .cls-10 {
        fill: #0a80b5;
      }

      .cls-11 {
        fill: #0a80b2;
      }

      .cls-12 {
        fill: #308c43;
      }

      .cls-13 {
        fill: #2e8741;
      }

      .cls-14 {
        fill: #2b7d3e;
      }

      .cls-15 {
        fill: url(#New_Gradient_Swatch_7);
      }

      .cls-16 {
        fill: #2b7f3e;
      }

      .cls-17 {
        fill: #01628a;
      }

      .cls-18 {
        fill: #88c040;
      }

      .cls-19 {
        fill: #14b8ec;
      }

      .cls-20 {
        fill: #1e431e;
      }

      .cls-21 {
        fill: #0585bc;
      }

      .cls-184 {
        clip-path: url(#clippath);
      }

      .cls-22 {
        fill: #04719e;
      }

      .cls-23, .cls-185, .cls-186 {
        fill: none;
      }

      .cls-24 {
        fill: #182e18;
      }

      .cls-25 {
        fill: #015d84;
      }

      .cls-26 {
        fill: #0982b6;
      }

      .cls-27 {
        fill: #85be41;
      }

      .cls-28 {
        fill: #308841;
      }

      .cls-29 {
        fill: #329244;
      }

      .cls-30 {
        fill: #025a7f;
      }

      .cls-31 {
        fill: #025c82;
      }

      .cls-32 {
        fill: #19331a;
      }

      .cls-33 {
        fill: url(#linear-gradient);
      }

      .cls-34 {
        fill: #086a95;
      }

      .cls-35 {
        fill: #114b88;
      }

      .cls-36 {
        fill: #318c43;
      }

      .cls-37 {
        fill: #1e6131;
      }

      .cls-38 {
        fill: #206432;
      }

      .cls-39 {
        fill: #27743a;
      }

      .cls-40 {
        fill: #2c813f;
      }

      .cls-41 {
        fill: #81bc41;
      }

      .cls-42 {
        fill: #08658e;
      }

      .cls-43 {
        fill: #216734;
      }

      .cls-44 {
        fill: #0d4d89;
      }

      .cls-45 {
        fill: #76b243;
      }

      .cls-46 {
        fill: #046e9a;
      }

      .cls-47 {
        fill: #056993;
      }

      .cls-48 {
        fill: #0777a7;
      }

      .cls-49 {
        fill: #90c740;
      }

      .cls-50 {
        fill: #29773b;
      }

      .cls-51 {
        fill: #7fbb42;
      }

      .cls-52 {
        fill: #84bd41;
      }

      .cls-53 {
        fill: #193019;
      }

      .cls-54 {
        fill: #8fc640;
      }

      .cls-55 {
        fill: #29793c;
      }

      .cls-56 {
        fill: #055d82;
      }

      .cls-57 {
        fill: #246f38;
      }

      .cls-58 {
        fill: #1d411e;
      }

      .cls-59 {
        fill: #7ab542;
      }

      .cls-60 {
        fill: #7ab642;
      }

      .cls-61 {
        fill: #329345;
      }

      .cls-62 {
        fill: #0a77a8;
      }

      .cls-63 {
        fill: #1e592c;
      }

      .cls-64 {
        fill: #2e8641;
      }

      .cls-65 {
        fill: #2d8440;
      }

      .cls-66 {
        fill: #016087;
      }

      .cls-67 {
        fill: #03668f;
      }

      .cls-187 {
        clip-path: url(#clippath-1);
      }

      .cls-188 {
        clip-path: url(#clippath-4);
      }

      .cls-189 {
        clip-path: url(#clippath-3);
      }

      .cls-190 {
        clip-path: url(#clippath-2);
      }

      .cls-191 {
        clip-path: url(#clippath-7);
      }

      .cls-192 {
        clip-path: url(#clippath-8);
      }

      .cls-193 {
        clip-path: url(#clippath-6);
      }

      .cls-194 {
        clip-path: url(#clippath-5);
      }

      .cls-195 {
        clip-path: url(#clippath-9);
      }

      .cls-68 {
        fill: #2f8942;
      }

      .cls-69 {
        fill: #0476a6;
      }

      .cls-70 {
        fill: #1f572b;
      }

      .cls-71 {
        fill: url(#New_Gradient_Swatch_17-4);
      }

      .cls-72 {
        fill: url(#New_Gradient_Swatch_17-3);
      }

      .cls-73 {
        fill: url(#New_Gradient_Swatch_17-5);
      }

      .cls-74 {
        fill: url(#New_Gradient_Swatch_17-2);
      }

      .cls-75 {
        fill: url(#New_Gradient_Swatch_17-6);
      }

      .cls-76 {
        fill: url(#New_Gradient_Swatch_18-3);
      }

      .cls-77 {
        fill: url(#New_Gradient_Swatch_18-2);
      }

      .cls-78 {
        fill: url(#New_Gradient_Swatch_18-4);
      }

      .cls-79 {
        fill: #2c823f;
      }

      .cls-185 {
        stroke-width: 2px;
      }

      .cls-185, .cls-186 {
        stroke: #fff;
      }

      .cls-80 {
        fill: #046f9b;
      }

      .cls-81 {
        fill: #2c803f;
      }

      .cls-82 {
        fill: #339445;
      }

      .cls-83 {
        fill: #72b043;
      }

      .cls-84 {
        fill: #267139;
      }

      .cls-85 {
        fill: #8cc340;
      }

      .cls-86 {
        fill: #00709d;
      }

      .cls-87 {
        fill: #026c99;
      }

      .cls-196 {
        clip-path: url(#clippath-14);
      }

      .cls-197 {
        clip-path: url(#clippath-13);
      }

      .cls-198 {
        clip-path: url(#clippath-12);
      }

      .cls-199 {
        clip-path: url(#clippath-10);
      }

      .cls-200 {
        clip-path: url(#clippath-15);
      }

      .cls-201 {
        clip-path: url(#clippath-11);
      }

      .cls-88 {
        fill: #319144;
      }

      .cls-89 {
        fill: #025e85;
      }

      .cls-90 {
        fill: #277339;
      }

      .cls-91 {
        fill: #0b78a9;
      }

      .cls-92 {
        fill: #20552a;
      }

      .cls-93 {
        fill: #00597f;
      }

      .cls-94 {
        fill: #056c98;
      }

      .cls-95 {
        fill: #88c140;
      }

      .cls-186 {
        stroke-linecap: round;
        stroke-linejoin: round;
        stroke-width: 4px;
      }

      .cls-96 {
        fill: #1e4821;
      }

      .cls-97 {
        fill: #2c8240;
      }

      .cls-98 {
        fill: #339545;
      }

      .cls-99 {
        fill: #1a351a;
      }

      .cls-100 {
        fill: #1d5f30;
      }

      .cls-101 {
        fill: #8dc440;
      }

      .cls-102 {
        fill: #097cad;
      }

      .cls-103 {
        fill: #0885bb;
      }

      .cls-104 {
        fill: #066c96;
      }

      .cls-105 {
        fill: #1f6935;
      }

      .cls-106 {
        fill: #0375a5;
      }

      .cls-107 {
        fill: #83bc41;
      }

      .cls-108 {
        fill: #7db842;
      }

      .cls-109 {
        fill: #216d37;
      }

      .cls-110 {
        fill: #0c7cae;
      }

      .cls-111 {
        fill: #03638c;
      }

      .cls-112 {
        fill: #0572a1;
      }

      .cls-113 {
        fill: #036189;
      }

      .cls-114 {
        fill: #257239;
      }

      .cls-115 {
        fill: #246e37;
      }

      .cls-116 {
        fill: #1f5e2f;
      }

      .cls-117 {
        fill: #2b7b3d;
      }

      .cls-118 {
        fill: #319044;
      }

      .cls-119 {
        fill: #2b7c3d;
      }

      .cls-120 {
        fill: #00597e;
      }

      .cls-121 {
        fill: #75b243;
      }

      .cls-122 {
        fill: #216b36;
      }

      .cls-123 {
        fill: #2d8540;
      }

      .cls-124 {
        fill: #036b96;
      }

      .cls-125 {
        fill: #78b343;
      }

      .cls-126 {
        fill: #0485ba;
      }

      .cls-127 {
        fill: #87c040;
      }

      .cls-128 {
        fill: #318f44;
      }

      .cls-129 {
        fill: #1c3d1c;
      }

      .cls-130 {
        fill: #0371a0;
      }

      .cls-131 {
        fill: #006f9c;
      }

      .cls-132 {
        fill: #204f26;
      }

      .cls-133 {
        fill: #2f8a42;
      }

      .cls-134 {
        fill: #07648d;
      }

      .cls-135 {
        fill: #7fba42;
      }

      .cls-136 {
        fill: #066791;
      }

      .cls-137 {
        fill: #02638b;
      }

      .cls-138 {
        fill: #204e25;
      }

      .cls-139 {
        fill: #0d7aac;
      }

      .cls-140 {
        fill: #0174a3;
      }

      .cls-141 {
        fill: url(#linear-gradient-2);
      }

      .cls-142 {
        fill: #2b7a3c;
      }

      .cls-143 {
        fill: #0b84b9;
      }

      .cls-144 {
        fill: #8bc23f;
      }

      .cls-145 {
        fill: #8ec53f;
      }

      .cls-146 {
        fill: url(#New_Gradient_Swatch_17);
      }

      .cls-147 {
        fill: url(#New_Gradient_Swatch_18);
      }

      .cls-148 {
        fill: #0874a4;
      }

      .cls-149 {
        fill: #0c7db0;
      }

      .cls-150 {
        fill: #0679aa;
      }

      .cls-151 {
        fill: #7fb942;
      }

      .cls-152 {
        fill: #308d43;
      }

      .cls-153 {
        fill: #71ae43;
      }

      .cls-154 {
        fill: #1eb3e5;
      }

      .cls-155 {
        fill: #087aac;
      }

      .cls-156 {
        fill: #2f8b43;
      }

      .cls-157 {
        fill: #86bf40;
      }

      .cls-158 {
        fill: #0687bd;
      }

      .cls-159 {
        fill: #29763a;
      }

      .cls-160 {
        fill: #205228;
      }

      .cls-161 {
        fill: #205429;
      }

      .cls-162 {
        fill: #046892;
      }

      .cls-163 {
        fill: #1d3f1d;
      }

      .cls-164 {
        fill: #2a7e3e;
      }

      .cls-165 {
        fill: #309245;
      }

      .cls-166 {
        fill: #0c7fb2;
      }

      .cls-167 {
        fill: #fff;
      }

      .cls-168 {
        fill: #1f5b2d;
      }

      .cls-169 {
        fill: #0780b4;
      }

      .cls-170 {
        fill: #1f5c2e;
      }

      .cls-171 {
        fill: #1f4a23;
      }

      .cls-172 {
        fill: #0c83b7;
      }

      .cls-173 {
        fill: #0a83b8;
      }

      .cls-174 {
        fill: #2b783b;
      }

      .cls-175 {
        fill: #82bc41;
      }

      .cls-176 {
        fill: #026088;
      }

      .cls-177 {
        fill: #0677a7;
      }

      .cls-178 {
        fill: #0a7caf;
      }

      .cls-179 {
        fill: #1d4620;
      }

      .cls-180 {
        fill: #89c240;
      }

      .cls-181 {
        fill: #206633;
      }

      .cls-182 {
        fill: #206332;
      }

      .cls-183 {
        fill: #204c24;
      }
    </style>
    <linearGradient id="New_Gradient_Swatch_7" data-name="New Gradient Swatch 7" x1="8.1" y1="88.8" x2="334.3" y2="88.8" gradientUnits="userSpaceOnUse">
      <stop offset="0" stop-color="#a5ce39"/>
      <stop offset="0" stop-color="#a1cd39"/>
      <stop offset=".4" stop-color="#86c43f"/>
      <stop offset=".8" stop-color="#75bf42"/>
      <stop offset="1" stop-color="#6fbe44"/>
    </linearGradient>
    <clipPath id="clippath">
      <path class="cls-23" d="M5.9,26.2v22.6c3.5-15.8,34.9-11.1,43.7-24.8V3.2C42.4,14.4,9,14.4,5.9,26.2"/>
    </clipPath>
    <clipPath id="clippath-1">
      <rect class="cls-23" x="-3.8" y="-5.4" width="63.1" height="62.9" transform="translate(-10.1 29.9) rotate(-49)"/>
    </clipPath>
    <clipPath id="clippath-2">
      <path class="cls-23" d="M5.9,73v23c14.6-17.8,40.8-13.8,43.7-25.1v-19.2h0s0,0,0,0c-8.7,9.9-34.9,7.6-43.7,21.3"/>
    </clipPath>
    <clipPath id="clippath-3">
      <rect class="cls-23" x="-2.2" y="44" width="59.9" height="59.7" transform="translate(-50.3 62.3) rotate(-61)"/>
    </clipPath>
    <clipPath id="clippath-4">
      <path class="cls-23" d="M5.9,26.2v22.6c1.3-5.7,6.2-8.7,12.5-10.9-5.1-2.6-9.6-6.2-12.4-11.7,0,0,0,0,0,0"/>
    </clipPath>
    <clipPath id="clippath-5">
      <rect class="cls-23" x="-.7" y="25.7" width="25.6" height="23.6" transform="translate(-25.1 24.6) rotate(-53)"/>
    </clipPath>
    <clipPath id="clippath-6">
      <path class="cls-23" d="M29.3,60.5c9.1,2.2,17.9,4.7,20.3,9.9h0v-18.7h0c-4.1,4.7-12.1,6.6-20.3,8.8"/>
    </clipPath>
    <clipPath id="clippath-7">
      <rect class="cls-23" x="25.8" y="47.3" width="27.2" height="27.5" transform="translate(-33.1 55.8) rotate(-53)"/>
    </clipPath>
    <clipPath id="clippath-8">
      <path class="cls-23" d="M5.9,26.2v22.6c3.5-15.8,34.9-11.1,43.7-24.8V3.2C42.4,14.4,9,14.4,5.9,26.2"/>
    </clipPath>
    <clipPath id="clippath-9">
      <rect class="cls-23" x="-3.8" y="-5.4" width="63.1" height="62.9" transform="translate(-10.1 29.9) rotate(-49)"/>
    </clipPath>
    <clipPath id="clippath-10">
      <path class="cls-23" d="M5.9,73v23c14.6-17.8,40.8-13.8,43.7-25.1v-19.2h0s0,0,0,0c-8.7,9.9-34.9,7.6-43.7,21.3"/>
    </clipPath>
    <clipPath id="clippath-11">
      <rect class="cls-23" x="-2.2" y="44" width="59.9" height="59.7" transform="translate(-50.3 62.3) rotate(-61)"/>
    </clipPath>
    <clipPath id="clippath-12">
      <path class="cls-23" d="M5.9,26.2v22.6c1.3-5.7,6.2-8.7,12.5-10.9-5.1-2.6-9.6-6.2-12.4-11.7,0,0,0,0,0,0"/>
    </clipPath>
    <clipPath id="clippath-13">
      <rect class="cls-23" x="-.7" y="25.7" width="25.6" height="23.6" transform="translate(-25.1 24.6) rotate(-53)"/>
    </clipPath>
    <clipPath id="clippath-14">
      <path class="cls-23" d="M29.3,60.5c9.1,2.2,17.9,4.7,20.3,9.9h0v-18.7h0c-4.1,4.7-12.1,6.6-20.3,8.8"/>
    </clipPath>
    <clipPath id="clippath-15">
      <rect class="cls-23" x="25.8" y="47.3" width="27.2" height="27.5" transform="translate(-33.1 55.8) rotate(-53)"/>
    </clipPath>
    <linearGradient id="New_Gradient_Swatch_17" data-name="New Gradient Swatch 17" x1="-9655.8" y1="-11655.9" x2="-9719.7" y2="-11538.7" gradientTransform="translate(760.2 -744.6) scale(0 0)" gradientUnits="userSpaceOnUse">
      <stop offset="0" stop-color="#0687bd"/>
      <stop offset="1" stop-color="#00597e"/>
    </linearGradient>
    <linearGradient id="New_Gradient_Swatch_17-2" data-name="New Gradient Swatch 17" x1="-9703.4" y1="-11601.4" x2="-9664.4" y2="-11487.3" xlink:href="#New_Gradient_Swatch_17"/>
    <linearGradient id="New_Gradient_Swatch_17-3" data-name="New Gradient Swatch 17" x1="-9731.3" y1="-11609.2" x2="-9667.4" y2="-11492" xlink:href="#New_Gradient_Swatch_17"/>
    <linearGradient id="New_Gradient_Swatch_17-4" data-name="New Gradient Swatch 17" x1="56.7" y1="88.2" x2="67.9" y2="88.2" gradientTransform="matrix(1,0,0,1,0,0)" xlink:href="#New_Gradient_Swatch_17"/>
    <linearGradient id="New_Gradient_Swatch_17-5" data-name="New Gradient Swatch 17" x1="61.1" y1="87" x2="67.9" y2="87" gradientTransform="matrix(1,0,0,1,0,0)" xlink:href="#New_Gradient_Swatch_17"/>
    <linearGradient id="linear-gradient" x1="-9714" y1="-11445.2" x2="-9657.7" y2="-11569.9" gradientTransform="translate(760.2 -744.6) scale(0 0)" gradientUnits="userSpaceOnUse">
      <stop offset="0" stop-color="#a5ce39"/>
      <stop offset="1" stop-color="#0f6e38"/>
    </linearGradient>
    <linearGradient id="New_Gradient_Swatch_18" data-name="New Gradient Swatch 18" x1="-9670.4" y1="-11449.4" x2="-9703.5" y2="-11580.6" gradientTransform="translate(760.2 -744.6) scale(0 0)" gradientUnits="userSpaceOnUse">
      <stop offset="0" stop-color="#339545"/>
      <stop offset="1" stop-color="#204f26"/>
    </linearGradient>
    <linearGradient id="New_Gradient_Swatch_18-2" data-name="New Gradient Swatch 18" x1="-9645.9" y1="-11467.7" x2="-9702.1" y2="-11592.3" xlink:href="#New_Gradient_Swatch_18"/>
    <linearGradient id="New_Gradient_Swatch_18-3" data-name="New Gradient Swatch 18" x1="-9668.9" y1="-11457.3" x2="-9725.2" y2="-11581.9" xlink:href="#New_Gradient_Swatch_18"/>
    <linearGradient id="New_Gradient_Swatch_18-4" data-name="New Gradient Swatch 18" x1="-9455.4" y1="-11443.6" x2="-9597.4" y2="-11651.7" xlink:href="#New_Gradient_Swatch_18"/>
    <linearGradient id="linear-gradient-2" x1="68.2" y1="94.4" x2="79.4" y2="83.3" gradientUnits="userSpaceOnUse">
      <stop offset="0" stop-color="#006838"/>
      <stop offset=".1" stop-color="#117539"/>
      <stop offset=".3" stop-color="#3f993e"/>
      <stop offset=".5" stop-color="#6fbe44"/>
      <stop offset=".6" stop-color="#6ab743"/>
      <stop offset=".7" stop-color="#65b143"/>
      <stop offset=".7" stop-color="#6bb341"/>
      <stop offset=".8" stop-color="#7dbc3f"/>
      <stop offset="1" stop-color="#9bc93a"/>
      <stop offset="1" stop-color="#a5ce39"/>
    </linearGradient>
    <linearGradient id="New_Gradient_Swatch_17-6" data-name="New Gradient Swatch 17" x1="-9584.2" y1="-11661.1" x2="-9480.9" y2="-11494.8" xlink:href="#New_Gradient_Swatch_17"/>
  </defs>
  <rect class="cls-15" x="8.1" y="77.6" width="326.2" height="22.4"/>
  <g>
    <g>
      <g>
        <polygon class="cls-186" points="224.3 26.4 216.8 26.4 216.8 21.4 229.5 21.4 229.5 16.6 212.3 16.6 212.3 41.9 216.8 41.9 216.8 31.2 224.3 31.2 224.3 26.4"/>
        <polygon class="cls-186" points="323.8 18 323.8 41.9 328.3 41.9 328.3 15.7 323.8 18"/>
        <rect class="cls-186" x="160.9" y="23" width="4.6" height="18.9"/>
        <polygon class="cls-186" points="224.3 26.4 216.8 26.4 216.8 21.4 229.5 21.4 229.5 16.6 212.3 16.6 212.3 41.9 216.8 41.9 216.8 31.2 224.3 31.2 224.3 26.4"/>
        <g>
          <path class="cls-186" d="M233.6,30.3c0-1,.4-1.8.9-2.5.5-.7,1.3-1,2.2-1s1.1.1,1.5.3c.4.2.8.5,1.1.8.3.3.5.7.6,1.1h0c.1.4.2.8.3,1.3v.2s-6.6,0-6.6,0v-.2ZM243.9,39.4l-3.2-2.8c-.3.4-.8.7-1.3.9-.6.3-1.2.4-1.9.4s-.9,0-1.4-.2c-.4-.1-.9-.4-1.2-.6-.4-.3-.7-.7-.9-1.2-.2-.5-.4-1.1-.4-1.7v-.2s11,0,11,0c0-.2,0-.3,0-.5,0-.3,0-.6,0-.9,0-1.3-.2-2.6-.5-3.8-.3-1.2-.8-2.3-1.5-3.2-.6-.9-1.4-1.6-2.4-2.1-.9-.5-2-.8-3.2-.8s-2.2.2-3.2.7c-1,.5-1.8,1.2-2.5,2-.7.9-1.3,1.9-1.7,3.1-.4,1.2-.6,2.6-.6,4s.2,2.9.6,4.1c.4,1.2,1,2.2,1.7,3.1.7.8,1.6,1.5,2.7,2,1,.5,2.2.7,3.5.7s2.4-.3,3.6-.8c1.1-.5,2.1-1.2,2.8-2.1"/>
          <path class="cls-186" d="M196.3,23l-3,9.1c-.3.7-.5,1.5-.7,2.3-.2.8-.4,1.4-.5,1.9v.6c-.1,0-.3-.6-.3-.6-.1-.5-.3-1.1-.5-1.9-.2-.8-.4-1.6-.7-2.3l-3-9.1h-5l7.1,19-2.4,6.6h4.5l9.4-25.7h-4.9Z"/>
          <path class="cls-186" d="M274.2,30.3c0-1,.4-1.8.9-2.5.5-.7,1.3-1,2.2-1s1.1.1,1.5.3c.4.2.8.5,1.1.8.3.3.5.7.6,1.1h0c.1.4.2.8.3,1.3v.2s-6.6,0-6.6,0v-.2ZM284.4,39.4l-3.2-2.8c-.3.4-.8.7-1.3.9-.6.3-1.2.4-1.9.4s-.9,0-1.4-.2c-.4-.1-.9-.4-1.2-.6-.4-.3-.7-.7-.9-1.2-.2-.5-.4-1.1-.4-1.7v-.2s11,0,11,0c0-.2,0-.3,0-.5,0-.3,0-.6,0-.9,0-1.3-.2-2.6-.5-3.8-.3-1.2-.8-2.3-1.5-3.2-.6-.9-1.4-1.6-2.4-2.1-.9-.5-2-.8-3.2-.8s-2.2.2-3.2.7c-1,.5-1.8,1.2-2.5,2-.7.9-1.3,1.9-1.7,3.1-.4,1.2-.6,2.6-.6,4s.2,2.9.6,4.1c.4,1.2,1,2.2,1.7,3.1.7.8,1.6,1.5,2.7,2,1,.5,2.2.7,3.5.7s2.4-.3,3.6-.8c1.1-.5,2.1-1.2,2.8-2.1"/>
          <path class="cls-186" d="M180.8,36.6c-.5.4-.9.7-1.2.9-.4.2-.9.3-1.3.3s-1.1-.2-1.4-.5c-.3-.3-.5-1-.5-2v-7.9h4.4v-4.5h-4.4v-7.4l-4.6,2.4v5h-3.1v4.5h3.1v9.2c0,.8.1,1.6.3,2.3.2.7.6,1.3,1,1.8.4.5.9.9,1.5,1.1.6.3,1.3.4,2,.4s1.4-.1,2.1-.3c.6-.2,1.1-.5,1.5-.8l.6-4.7Z"/>
          <path class="cls-186" d="M314.2,36.5h0c-.3.5-.7.9-1.3,1.3-.6.4-1.3.6-2.1.6s-1.8-.3-2.3-.8c-.4-.5-.7-1.2-.7-1.9s.3-1.5.8-1.9c.5-.4,1.2-.7,2.2-.7s1.5,0,2,.2c.5.1.9.3,1.4.6h0v2.6ZM318.8,41.9v-12.7c0-1-.2-2-.5-2.8-.4-.8-.9-1.5-1.5-2.1-.6-.6-1.4-1-2.3-1.3-.9-.3-1.9-.4-3-.4s-1.4,0-2,.1c-.6,0-1.2.2-1.7.4-.5.2-1.1.4-1.6.6-.5.2-.9.5-1.4.8l1.7,3.2c.4-.2.7-.4,1.1-.5.4-.2.8-.3,1.2-.4.4,0,.8-.2,1.2-.2.4,0,.9,0,1.5,0,.9,0,1.6.3,2.1.8.5.5.7,1.1.7,1.8v1.2h-.2c-.4-.3-.9-.5-1.4-.6-.5-.2-1.2-.2-2.1-.2s-2,.1-2.9.4c-.9.3-1.7.7-2.3,1.2-.7.5-1.2,1.2-1.5,1.9-.4.8-.6,1.7-.6,2.7s.2,2.1.6,3c.4.8.9,1.5,1.5,2.1.6.5,1.3,1,2.1,1.2,1.6.5,3.4.6,4.8,0,.7-.3,1.3-.7,1.7-1.2l.3-.3v1.5s4.5,0,4.5,0Z"/>
          <path class="cls-186" d="M259.9,36.2h0c-.4.5-.8.9-1.2,1.2-.5.3-1.1.5-1.9.5s-1.8-.5-2.4-1.4c-.6-.9-.9-2.4-.9-4.4,0-3.3,1-5,3-5s2.6.6,3.4,1.7h0v7.4ZM264.4,41.9V15.7l-4.6,2.4v6.3l-.3-.2c-.4-.4-1-.7-1.6-1-.6-.3-1.4-.4-2.2-.4s-2.1.2-3,.7c-.9.5-1.6,1.1-2.2,2-.6.8-1.1,1.9-1.4,3-.3,1.2-.5,2.5-.5,3.9s.2,3.3.6,4.6c.4,1.3.9,2.3,1.5,3.1.6.8,1.4,1.4,2.2,1.8.8.4,1.8.6,2.7.6s1.6-.2,2.2-.5c.6-.3,1.1-.7,1.6-1.1l.3-.2v1.4s4.5,0,4.5,0Z"/>
        </g>
        <polygon class="cls-186" points="323.8 18 323.8 41.9 328.3 41.9 328.3 15.7 323.8 18"/>
        <g>
          <path class="cls-186" d="M119.8,39.8c.5-.5.9-1,1.3-1.6l-2.9-2.8c-.6.7-1.2,1.3-1.9,1.7-.7.4-1.5.7-2.5.7s-2.2-.5-2.9-1.5c-.7-1-1.1-2.2-1.1-3.8s.4-2.9,1.1-3.9c.7-1,1.7-1.4,2.9-1.4s1.9.3,2.5.8c.6.5,1.2,1.1,1.7,1.9l3-3.1c-.7-1.2-1.7-2.2-2.8-2.9-1.1-.8-2.6-1.2-4.3-1.2s-2.4.2-3.5.7c-1,.5-2,1.2-2.7,2-.8.9-1.4,1.9-1.8,3.1-.4,1.2-.7,2.6-.7,4s.2,2.8.7,4c.4,1.2,1,2.3,1.8,3.1.8.9,1.7,1.5,2.7,2,1,.5,2.1.7,3.3.7s1.7-.1,2.4-.3c.7-.2,1.4-.5,2-.9.6-.4,1.1-.8,1.6-1.3"/>
          <path class="cls-186" d="M90.6,30.3c0-1,.4-1.8.9-2.5.5-.7,1.3-1,2.2-1s1.1.1,1.5.3c.4.2.8.5,1.1.8.3.3.5.7.6,1.1h0c.1.4.2.8.3,1.3v.2s-6.6,0-6.6,0v-.2ZM100.9,39.4l-3.2-2.8c-.3.4-.8.7-1.3.9-.6.3-1.2.4-1.9.4s-.9,0-1.4-.2c-.4-.1-.9-.4-1.2-.6-.4-.3-.7-.7-.9-1.2-.2-.5-.4-1.1-.4-1.7v-.2s11,0,11,0c0-.2,0-.3,0-.5,0-.3,0-.6,0-.9,0-1.3-.2-2.6-.5-3.8-.3-1.2-.8-2.3-1.5-3.2-.6-.9-1.4-1.6-2.4-2.1-.9-.5-2-.8-3.2-.8s-2.2.2-3.2.7c-1,.5-1.8,1.2-2.5,2-.7.9-1.3,1.9-1.7,3.1-.4,1.2-.6,2.6-.6,4s.2,2.9.6,4.1c.4,1.2,1,2.2,1.7,3.1.7.8,1.6,1.5,2.7,2,1,.5,2.2.7,3.5.7s2.4-.3,3.6-.8c1.1-.5,2.1-1.2,2.8-2.1"/>
          <path class="cls-186" d="M295.2,28.2c.3-.3.6-.6,1-.7.4-.1.8-.2,1.3-.2s1.1.1,1.6.4c.4.2.8.5,1.1.8l1.2-4.6c-.3-.3-.7-.6-1.3-.8-.6-.3-1.2-.4-2-.4s-1.6.2-2.2.5c-.6.3-1.1.7-1.5,1.1l-.3.3v-1.5h-4.6v18.9h4.6v-10.3c0-.8,0-1.5.2-2.1.2-.6.4-1,.7-1.3"/>
          <path class="cls-186" d="M81.8,37.6c.4-1,.6-2.1.6-3.3s-.2-2.5-.7-3.4c-.5-.9-1.1-1.6-1.9-2.2-.8-.6-1.6-1-2.6-1.3-1-.3-1.9-.6-2.9-.9-1-.2-1.8-.5-2.4-.7-.6-.2-1.2-.4-1.5-.6-.4-.2-.7-.5-.8-.8-.2-.3-.2-.7-.2-1.1s0-.6.2-.9c.1-.3.3-.6.6-.8.3-.2.7-.4,1.1-.6.5-.1,1-.2,1.7-.2,1.1,0,2.2.2,3.1.7.9.4,1.7,1.1,2.5,1.9l3.3-3.4c-1.1-1.2-2.4-2.2-3.8-2.8-1.4-.7-3.1-1.1-5-1.1s-2.3.2-3.4.5c-1,.3-2,.8-2.7,1.5-.8.6-1.4,1.4-1.8,2.3-.4.9-.7,1.9-.7,3.1s.2,2.3.5,3.1c.4.8.9,1.5,1.5,2.1.7.5,1.5,1,2.4,1.4.9.4,2,.7,3.1.9,1.1.3,2.1.5,2.8.8.7.2,1.3.5,1.7.8.4.3.7.6.8.9.1.3.2.7.2,1.1,0,1-.4,1.8-1.1,2.2-.7.5-1.8.7-3.3.7s-2.4-.2-3.4-.7c-1-.4-2-1.2-2.9-2.2l-3.3,3.1c.9,1.4,2.2,2.4,3.8,3.2,1.7.8,3.5,1.2,5.5,1.2s3.1-.2,4.3-.6c1.2-.4,2.2-.9,2.9-1.6.8-.7,1.4-1.5,1.7-2.5"/>
          <path class="cls-186" d="M140.7,41.9v-18.9h-4.6v10.3c0,1.7-.3,2.9-.9,3.5-.6.7-1.4,1-2.4,1s-1,0-1.4-.2c-.4-.2-.8-.4-1-.8-.3-.4-.5-.8-.6-1.4-.1-.6-.2-1.3-.2-2.2v-10.2h-4.6v10.7c0,2.7.5,4.8,1.6,6.3,1.1,1.5,2.8,2.3,5.1,2.3s1.8-.2,2.5-.5c.7-.3,1.3-.7,1.7-1.2l.3-.3v1.5s4.5,0,4.5,0Z"/>
          <path class="cls-186" d="M163.2,15.7c-.7,0-1.3.3-1.8.8-.5.5-.8,1.2-.8,1.9s.3,1.4.8,1.9c.5.5,1.1.8,1.8.8s1.3-.3,1.8-.8c.5-.5.8-1.2.8-1.9s-.3-1.4-.8-1.9c-.5-.5-1.1-.8-1.8-.8"/>
        </g>
        <rect class="cls-186" x="160.9" y="23" width="4.6" height="18.9"/>
        <g>
          <path class="cls-186" d="M151.1,28.2c.3-.3.6-.6,1.1-.7.4-.1.8-.2,1.3-.2s1.1.1,1.6.4c.4.2.8.5,1.1.8l1.2-4.6c-.3-.3-.7-.6-1.3-.8-.6-.3-1.2-.4-2-.4s-1.6.2-2.2.5c-.6.3-1.1.7-1.5,1.1l-.3.3v-1.5h-4.6v18.9h4.6v-10.3c0-.8,0-1.5.2-2.1.2-.6.4-1,.7-1.3"/>
          <path class="cls-186" d="M234.7,68.2h-4.6v-5.7h4.6c1.9,0,3,1.1,3,2.8s-1,2.8-3.1,2.8M230.2,55.9h4.6c1.5,0,2.4.8,2.4,2.3s-.6,2.2-2.4,2.2h-4.6v-4.5ZM237.5,61.4h-.1s.1,0,.1,0c1.4-.7,2.1-1.8,2.1-3.3,0-2.7-1.8-4.3-4.8-4.3h-6.9v16.8h6.6c3.7,0,5.7-1.8,5.7-5.1s-1.5-3.5-2.8-3.9"/>
          <path class="cls-186" d="M206.4,70.7c4,0,6.2-1.8,6.2-5.1s-1.9-4-5.4-5c-2.9-.9-3.7-1.4-3.7-2.7s1.1-2.1,2.9-2.1,2.8.5,3.9,1.6l1.7-1.7c-1.6-1.5-3.3-2.2-5.4-2.2-3.2,0-5.5,1.9-5.5,4.6s1.5,3.8,5.2,4.9c2.9.9,3.8,1.5,3.8,2.8s-1.2,2.5-3.5,2.5-3.2-.8-4.4-2l-1.7,1.7c1.5,1.7,3.6,2.7,5.9,2.7"/>
          <path class="cls-186" d="M185.5,53.4c-4.2,0-7.1,3.5-7.1,8.6s2.8,8.6,7.1,8.6,6.4-2.7,6.4-6.8v-1.9h-5.2v2.3h2.7c0,1-.3,4-3.9,4s-4.6-2.3-4.6-6.2,1.7-6.2,4.6-6.2,2.6.5,3.5,2l2.1-1.3c-1.2-2.1-3-3.1-5.7-3.1"/>
          <path class="cls-186" d="M252.9,64.3h0c0,0,1.3-3.9,1.3-3.9.5-1.3,1-3.2,1.2-3.9v-.2s.1.2.1.2c.2.6.7,2.1,1.1,3.3l.2.6,1.4,3.9h-5.3ZM254.3,53.7l-6,16.8h2.5l1.4-4h6.8s1.4,4,1.4,4h2.6l-6.1-16.8h-2.6Z"/>
          <path class="cls-186" d="M274.4,57.8c0,.1.2.3.3.6.3.5.6,1.1.9,1.5l6.7,10.5h2.3v-16.8h-2.4v8.6c0,.5,0,1.5,0,2.3,0,.7,0,1.3,0,1.6v.2-.2c-.3-.4-1.1-1.7-1.5-2.4l-6.4-10.3h-2.5v16.8h2.4v-8.7c0-.5,0-1.5,0-2.3,0-.7,0-1.3,0-1.6v-.2.2Z"/>
          <path class="cls-186" d="M300.8,61.8l4.8,8.6h2.7l-6-10.7h0s4.9-6.1,4.9-6.1h-2.7l-5,6.2c-.5.7-1.7,2.1-1.9,2.5v.2c-.1,0,0-.2,0-.2,0-.5,0-2.4,0-3v-5.7h-2.4v16.8h2.4v-4.8h0s3.2-3.9,3.2-3.9h0Z"/>
          <path class="cls-186" d="M105.1,64.3h0c0,0,1.3-3.9,1.3-3.9.4-1.3,1-3.2,1.2-3.9v-.2c0,0,.1.2.1.2.2.6.7,2.1,1.1,3.3l.2.5,1.4,3.9h-5.3ZM106.4,53.7l-6,16.8h2.5l1.4-4h6.8s1.4,4,1.4,4h2.6l-6.1-16.8h-2.6Z"/>
          <path class="cls-186" d="M87.3,70.7c4,0,6.2-1.8,6.2-5.1s-1.9-4-5.4-5c-2.9-.9-3.7-1.4-3.7-2.7s1.1-2.1,2.9-2.1,2.8.5,3.9,1.6l1.7-1.7c-1.6-1.5-3.3-2.2-5.4-2.2-3.2,0-5.5,1.9-5.5,4.6s1.5,3.8,5.2,4.9c2.9.9,3.8,1.5,3.8,2.8s-1.2,2.5-3.5,2.5-3.2-.8-4.4-2l-1.7,1.7c1.5,1.7,3.6,2.7,5.9,2.7"/>
        </g>
        <rect class="cls-186" x="143.8" y="53.7" width="2.4" height="16.8"/>
        <g>
          <path class="cls-186" d="M132.1,53.7l-3.5,10.7c-.3,1-.8,2.5-.9,3.1v.2c0,0-.1-.2-.1-.2-.1-.5-.5-1.7-.8-2.7v-.4c-.1,0-3.6-10.7-3.6-10.7h-2.6l5.8,16.8h2.6l5.7-16.8h-2.6Z"/>
          <path class="cls-186" d="M158.9,57.8c0,.1.2.3.3.6.3.5.6,1.1.9,1.5l6.7,10.5h2.3v-16.8h-2.4v8.6c0,.5,0,1.5,0,2.3,0,.7,0,1.3,0,1.6v.2-.2c-.3-.5-1.1-1.7-1.5-2.4l-6.4-10.3h-2.5v16.8h2.4v-8.7c0-.5,0-1.5,0-2.3,0-.7,0-1.3,0-1.6v-.2.2Z"/>
        </g>
      </g>
      <g>
        <polygon class="cls-44" points="224.3 26.4 216.8 26.4 216.8 21.4 229.5 21.4 229.5 16.6 212.3 16.6 212.3 41.9 216.8 41.9 216.8 31.2 224.3 31.2 224.3 26.4"/>
        <polygon class="cls-44" points="323.8 18 323.8 41.9 328.3 41.9 328.3 15.7 323.8 18"/>
        <rect class="cls-44" x="160.9" y="23" width="4.6" height="18.9"/>
        <polygon class="cls-44" points="224.3 26.4 216.8 26.4 216.8 21.4 229.5 21.4 229.5 16.6 212.3 16.6 212.3 41.9 216.8 41.9 216.8 31.2 224.3 31.2 224.3 26.4"/>
        <g>
          <path class="cls-44" d="M233.6,30.3c0-1,.4-1.8.9-2.5.5-.7,1.3-1,2.2-1s1.1.1,1.5.3c.4.2.8.5,1.1.8.3.3.5.7.6,1.1h0c.1.4.2.8.3,1.3v.2s-6.6,0-6.6,0v-.2ZM243.9,39.4l-3.2-2.8c-.3.4-.8.7-1.3.9-.6.3-1.2.4-1.9.4s-.9,0-1.4-.2c-.4-.1-.9-.4-1.2-.6-.4-.3-.7-.7-.9-1.2-.2-.5-.4-1.1-.4-1.7v-.2s11,0,11,0c0-.2,0-.3,0-.5,0-.3,0-.6,0-.9,0-1.3-.2-2.6-.5-3.8-.3-1.2-.8-2.3-1.5-3.2-.6-.9-1.4-1.6-2.4-2.1-.9-.5-2-.8-3.2-.8s-2.2.2-3.2.7c-1,.5-1.8,1.2-2.5,2-.7.9-1.3,1.9-1.7,3.1-.4,1.2-.6,2.6-.6,4s.2,2.9.6,4.1c.4,1.2,1,2.2,1.7,3.1.7.8,1.6,1.5,2.7,2,1,.5,2.2.7,3.5.7s2.4-.3,3.6-.8c1.1-.5,2.1-1.2,2.8-2.1"/>
          <path class="cls-44" d="M196.3,23l-3,9.1c-.3.7-.5,1.5-.7,2.3-.2.8-.4,1.4-.5,1.9v.6c-.1,0-.3-.6-.3-.6-.1-.5-.3-1.1-.5-1.9-.2-.8-.4-1.6-.7-2.3l-3-9.1h-5l7.1,19-2.4,6.6h4.5l9.4-25.7h-4.9Z"/>
          <path class="cls-44" d="M274.2,30.3c0-1,.4-1.8.9-2.5.5-.7,1.3-1,2.2-1s1.1.1,1.5.3c.4.2.8.5,1.1.8.3.3.5.7.6,1.1h0c.1.4.2.8.3,1.3v.2s-6.6,0-6.6,0v-.2ZM284.4,39.4l-3.2-2.8c-.3.4-.8.7-1.3.9-.6.3-1.2.4-1.9.4s-.9,0-1.4-.2c-.4-.1-.9-.4-1.2-.6-.4-.3-.7-.7-.9-1.2-.2-.5-.4-1.1-.4-1.7v-.2s11,0,11,0c0-.2,0-.3,0-.5,0-.3,0-.6,0-.9,0-1.3-.2-2.6-.5-3.8-.3-1.2-.8-2.3-1.5-3.2-.6-.9-1.4-1.6-2.4-2.1-.9-.5-2-.8-3.2-.8s-2.2.2-3.2.7c-1,.5-1.8,1.2-2.5,2-.7.9-1.3,1.9-1.7,3.1-.4,1.2-.6,2.6-.6,4s.2,2.9.6,4.1c.4,1.2,1,2.2,1.7,3.1.7.8,1.6,1.5,2.7,2,1,.5,2.2.7,3.5.7s2.4-.3,3.6-.8c1.1-.5,2.1-1.2,2.8-2.1"/>
          <path class="cls-44" d="M180.8,36.6c-.5.4-.9.7-1.2.9-.4.2-.9.3-1.3.3s-1.1-.2-1.4-.5c-.3-.3-.5-1-.5-2v-7.9h4.4v-4.5h-4.4v-7.4l-4.6,2.4v5h-3.1v4.5h3.1v9.2c0,.8.1,1.6.3,2.3.2.7.6,1.3,1,1.8.4.5.9.9,1.5,1.1.6.3,1.3.4,2,.4s1.4-.1,2.1-.3c.6-.2,1.1-.5,1.5-.8l.6-4.7Z"/>
          <path class="cls-44" d="M314.2,36.5h0c-.3.5-.7.9-1.3,1.3-.6.4-1.3.6-2.1.6s-1.8-.3-2.3-.8c-.4-.5-.7-1.2-.7-1.9s.3-1.5.8-1.9c.5-.4,1.2-.7,2.2-.7s1.5,0,2,.2c.5.1.9.3,1.4.6h0v2.6ZM318.8,41.9v-12.7c0-1-.2-2-.5-2.8-.4-.8-.9-1.5-1.5-2.1-.6-.6-1.4-1-2.3-1.3-.9-.3-1.9-.4-3-.4s-1.4,0-2,.1c-.6,0-1.2.2-1.7.4-.5.2-1.1.4-1.6.6-.5.2-.9.5-1.4.8l1.7,3.2c.4-.2.7-.4,1.1-.5.4-.2.8-.3,1.2-.4.4,0,.8-.2,1.2-.2.4,0,.9,0,1.5,0,.9,0,1.6.3,2.1.8.5.5.7,1.1.7,1.8v1.2h-.2c-.4-.3-.9-.5-1.4-.6-.5-.2-1.2-.2-2.1-.2s-2,.1-2.9.4c-.9.3-1.7.7-2.3,1.2-.7.5-1.2,1.2-1.5,1.9-.4.8-.6,1.7-.6,2.7s.2,2.1.6,3c.4.8.9,1.5,1.5,2.1.6.5,1.3,1,2.1,1.2,1.6.5,3.4.6,4.8,0,.7-.3,1.3-.7,1.7-1.2l.3-.3v1.5s4.5,0,4.5,0Z"/>
          <path class="cls-44" d="M259.9,36.2h0c-.4.5-.8.9-1.2,1.2-.5.3-1.1.5-1.9.5s-1.8-.5-2.4-1.4c-.6-.9-.9-2.4-.9-4.4,0-3.3,1-5,3-5s2.6.6,3.4,1.7h0v7.4ZM264.4,41.9V15.7l-4.6,2.4v6.3l-.3-.2c-.4-.4-1-.7-1.6-1-.6-.3-1.4-.4-2.2-.4s-2.1.2-3,.7c-.9.5-1.6,1.1-2.2,2-.6.8-1.1,1.9-1.4,3-.3,1.2-.5,2.5-.5,3.9s.2,3.3.6,4.6c.4,1.3.9,2.3,1.5,3.1.6.8,1.4,1.4,2.2,1.8.8.4,1.8.6,2.7.6s1.6-.2,2.2-.5c.6-.3,1.1-.7,1.6-1.1l.3-.2v1.4s4.5,0,4.5,0Z"/>
        </g>
        <polygon class="cls-44" points="323.8 18 323.8 41.9 328.3 41.9 328.3 15.7 323.8 18"/>
        <g>
          <path class="cls-44" d="M119.8,39.8c.5-.5.9-1,1.3-1.6l-2.9-2.8c-.6.7-1.2,1.3-1.9,1.7-.7.4-1.5.7-2.5.7s-2.2-.5-2.9-1.5c-.7-1-1.1-2.2-1.1-3.8s.4-2.9,1.1-3.9c.7-1,1.7-1.4,2.9-1.4s1.9.3,2.5.8c.6.5,1.2,1.1,1.7,1.9l3-3.1c-.7-1.2-1.7-2.2-2.8-2.9-1.1-.8-2.6-1.2-4.3-1.2s-2.4.2-3.5.7c-1,.5-2,1.2-2.7,2-.8.9-1.4,1.9-1.8,3.1-.4,1.2-.7,2.6-.7,4s.2,2.8.7,4c.4,1.2,1,2.3,1.8,3.1.8.9,1.7,1.5,2.7,2,1,.5,2.1.7,3.3.7s1.7-.1,2.4-.3c.7-.2,1.4-.5,2-.9.6-.4,1.1-.8,1.6-1.3"/>
          <path class="cls-44" d="M90.6,30.3c0-1,.4-1.8.9-2.5.5-.7,1.3-1,2.2-1s1.1.1,1.5.3c.4.2.8.5,1.1.8.3.3.5.7.6,1.1h0c.1.4.2.8.3,1.3v.2s-6.6,0-6.6,0v-.2ZM100.9,39.4l-3.2-2.8c-.3.4-.8.7-1.3.9-.6.3-1.2.4-1.9.4s-.9,0-1.4-.2c-.4-.1-.9-.4-1.2-.6-.4-.3-.7-.7-.9-1.2-.2-.5-.4-1.1-.4-1.7v-.2s11,0,11,0c0-.2,0-.3,0-.5,0-.3,0-.6,0-.9,0-1.3-.2-2.6-.5-3.8-.3-1.2-.8-2.3-1.5-3.2-.6-.9-1.4-1.6-2.4-2.1-.9-.5-2-.8-3.2-.8s-2.2.2-3.2.7c-1,.5-1.8,1.2-2.5,2-.7.9-1.3,1.9-1.7,3.1-.4,1.2-.6,2.6-.6,4s.2,2.9.6,4.1c.4,1.2,1,2.2,1.7,3.1.7.8,1.6,1.5,2.7,2,1,.5,2.2.7,3.5.7s2.4-.3,3.6-.8c1.1-.5,2.1-1.2,2.8-2.1"/>
          <path class="cls-44" d="M295.2,28.2c.3-.3.6-.6,1-.7.4-.1.8-.2,1.3-.2s1.1.1,1.6.4c.4.2.8.5,1.1.8l1.2-4.6c-.3-.3-.7-.6-1.3-.8-.6-.3-1.2-.4-2-.4s-1.6.2-2.2.5c-.6.3-1.1.7-1.5,1.1l-.3.3v-1.5h-4.6v18.9h4.6v-10.3c0-.8,0-1.5.2-2.1.2-.6.4-1,.7-1.3"/>
          <path class="cls-44" d="M81.8,37.6c.4-1,.6-2.1.6-3.3s-.2-2.5-.7-3.4c-.5-.9-1.1-1.6-1.9-2.2-.8-.6-1.6-1-2.6-1.3-1-.3-1.9-.6-2.9-.9-1-.2-1.8-.5-2.4-.7-.6-.2-1.2-.4-1.5-.6-.4-.2-.7-.5-.8-.8-.2-.3-.2-.7-.2-1.1s0-.6.2-.9c.1-.3.3-.6.6-.8.3-.2.7-.4,1.1-.6.5-.1,1-.2,1.7-.2,1.1,0,2.2.2,3.1.7.9.4,1.7,1.1,2.5,1.9l3.3-3.4c-1.1-1.2-2.4-2.2-3.8-2.8-1.4-.7-3.1-1.1-5-1.1s-2.3.2-3.4.5c-1,.3-2,.8-2.7,1.5-.8.6-1.4,1.4-1.8,2.3-.4.9-.7,1.9-.7,3.1s.2,2.3.5,3.1c.4.8.9,1.5,1.5,2.1.7.5,1.5,1,2.4,1.4.9.4,2,.7,3.1.9,1.1.3,2.1.5,2.8.8.7.2,1.3.5,1.7.8.4.3.7.6.8.9.1.3.2.7.2,1.1,0,1-.4,1.8-1.1,2.2-.7.5-1.8.7-3.3.7s-2.4-.2-3.4-.7c-1-.4-2-1.2-2.9-2.2l-3.3,3.1c.9,1.4,2.2,2.4,3.8,3.2,1.7.8,3.5,1.2,5.5,1.2s3.1-.2,4.3-.6c1.2-.4,2.2-.9,2.9-1.6.8-.7,1.4-1.5,1.7-2.5"/>
          <path class="cls-44" d="M140.7,41.9v-18.9h-4.6v10.3c0,1.7-.3,2.9-.9,3.5-.6.7-1.4,1-2.4,1s-1,0-1.4-.2c-.4-.2-.8-.4-1-.8-.3-.4-.5-.8-.6-1.4-.1-.6-.2-1.3-.2-2.2v-10.2h-4.6v10.7c0,2.7.5,4.8,1.6,6.3,1.1,1.5,2.8,2.3,5.1,2.3s1.8-.2,2.5-.5c.7-.3,1.3-.7,1.7-1.2l.3-.3v1.5s4.5,0,4.5,0Z"/>
          <path class="cls-44" d="M163.2,15.7c-.7,0-1.3.3-1.8.8-.5.5-.8,1.2-.8,1.9s.3,1.4.8,1.9c.5.5,1.1.8,1.8.8s1.3-.3,1.8-.8c.5-.5.8-1.2.8-1.9s-.3-1.4-.8-1.9c-.5-.5-1.1-.8-1.8-.8"/>
        </g>
        <rect class="cls-44" x="160.9" y="23" width="4.6" height="18.9"/>
        <g>
          <path class="cls-35" d="M151.1,28.2c.3-.3.6-.6,1.1-.7.4-.1.8-.2,1.3-.2s1.1.1,1.6.4c.4.2.8.5,1.1.8l1.2-4.6c-.3-.3-.7-.6-1.3-.8-.6-.3-1.2-.4-2-.4s-1.6.2-2.2.5c-.6.3-1.1.7-1.5,1.1l-.3.3v-1.5h-4.6v18.9h4.6v-10.3c0-.8,0-1.5.2-2.1.2-.6.4-1,.7-1.3"/>
          <path class="cls-35" d="M234.7,68.2h-4.6v-5.7h4.6c1.9,0,3,1.1,3,2.8s-1,2.8-3.1,2.8M230.2,55.9h4.6c1.5,0,2.4.8,2.4,2.3s-.6,2.2-2.4,2.2h-4.6v-4.5ZM237.5,61.4h-.1s.1,0,.1,0c1.4-.7,2.1-1.8,2.1-3.3,0-2.7-1.8-4.3-4.8-4.3h-6.9v16.8h6.6c3.7,0,5.7-1.8,5.7-5.1s-1.5-3.5-2.8-3.9"/>
          <path class="cls-35" d="M206.4,70.7c4,0,6.2-1.8,6.2-5.1s-1.9-4-5.4-5c-2.9-.9-3.7-1.4-3.7-2.7s1.1-2.1,2.9-2.1,2.8.5,3.9,1.6l1.7-1.7c-1.6-1.5-3.3-2.2-5.4-2.2-3.2,0-5.5,1.9-5.5,4.6s1.5,3.8,5.2,4.9c2.9.9,3.8,1.5,3.8,2.8s-1.2,2.5-3.5,2.5-3.2-.8-4.4-2l-1.7,1.7c1.5,1.7,3.6,2.7,5.9,2.7"/>
          <path class="cls-35" d="M185.5,53.4c-4.2,0-7.1,3.5-7.1,8.6s2.8,8.6,7.1,8.6,6.4-2.7,6.4-6.8v-1.9h-5.2v2.3h2.7c0,1-.3,4-3.9,4s-4.6-2.3-4.6-6.2,1.7-6.2,4.6-6.2,2.6.5,3.5,2l2.1-1.3c-1.2-2.1-3-3.1-5.7-3.1"/>
          <path class="cls-35" d="M252.9,64.3h0c0,0,1.3-3.9,1.3-3.9.5-1.3,1-3.2,1.2-3.9v-.2s.1.2.1.2c.2.6.7,2.1,1.1,3.3l.2.6,1.4,3.9h-5.3ZM254.3,53.7l-6,16.8h2.5l1.4-4h6.8s1.4,4,1.4,4h2.6l-6.1-16.8h-2.6Z"/>
          <path class="cls-35" d="M274.4,57.8c0,.1.2.3.3.6.3.5.6,1.1.9,1.5l6.7,10.5h2.3v-16.8h-2.4v8.6c0,.5,0,1.5,0,2.3,0,.7,0,1.3,0,1.6v.2-.2c-.3-.4-1.1-1.7-1.5-2.4l-6.4-10.3h-2.5v16.8h2.4v-8.7c0-.5,0-1.5,0-2.3,0-.7,0-1.3,0-1.6v-.2.2Z"/>
          <path class="cls-35" d="M300.8,61.8l4.8,8.6h2.7l-6-10.7h0s4.9-6.1,4.9-6.1h-2.7l-5,6.2c-.5.7-1.7,2.1-1.9,2.5v.2c-.1,0,0-.2,0-.2,0-.5,0-2.4,0-3v-5.7h-2.4v16.8h2.4v-4.8h0s3.2-3.9,3.2-3.9h0Z"/>
          <path class="cls-35" d="M105.1,64.3h0c0,0,1.3-3.9,1.3-3.9.4-1.3,1-3.2,1.2-3.9v-.2c0,0,.1.2.1.2.2.6.7,2.1,1.1,3.3l.2.5,1.4,3.9h-5.3ZM106.4,53.7l-6,16.8h2.5l1.4-4h6.8s1.4,4,1.4,4h2.6l-6.1-16.8h-2.6Z"/>
          <path class="cls-35" d="M87.3,70.7c4,0,6.2-1.8,6.2-5.1s-1.9-4-5.4-5c-2.9-.9-3.7-1.4-3.7-2.7s1.1-2.1,2.9-2.1,2.8.5,3.9,1.6l1.7-1.7c-1.6-1.5-3.3-2.2-5.4-2.2-3.2,0-5.5,1.9-5.5,4.6s1.5,3.8,5.2,4.9c2.9.9,3.8,1.5,3.8,2.8s-1.2,2.5-3.5,2.5-3.2-.8-4.4-2l-1.7,1.7c1.5,1.7,3.6,2.7,5.9,2.7"/>
        </g>
        <rect class="cls-44" x="143.8" y="53.7" width="2.4" height="16.8"/>
        <g>
          <path class="cls-44" d="M132.1,53.7l-3.5,10.7c-.3,1-.8,2.5-.9,3.1v.2c0,0-.1-.2-.1-.2-.1-.5-.5-1.7-.8-2.7v-.4c-.1,0-3.6-10.7-3.6-10.7h-2.6l5.8,16.8h2.6l5.7-16.8h-2.6Z"/>
          <path class="cls-44" d="M158.9,57.8c0,.1.2.3.3.6.3.5.6,1.1.9,1.5l6.7,10.5h2.3v-16.8h-2.4v8.6c0,.5,0,1.5,0,2.3,0,.7,0,1.3,0,1.6v.2-.2c-.3-.5-1.1-1.7-1.5-2.4l-6.4-10.3h-2.5v16.8h2.4v-8.7c0-.5,0-1.5,0-2.3,0-.7,0-1.3,0-1.6v-.2.2Z"/>
        </g>
      </g>
    </g>
    <g>
      <g>
        <path class="cls-19" d="M5.9,48.8v.3c1.1,6.4,12.5,8.7,23.4,11.4,8.2-2.2,16.2-4.1,20.3-8.8v-.4c-.4-7.1-17.7-6.5-31.2-13.3-6.2,2.2-11.2,5.2-12.5,10.9"/>
        <path class="cls-167" d="M29.3,63.7c-.3,0-.5,0-.8,0-.7-.2-1.4-.3-2.1-.5-5.1-1.2-10.4-2.5-14.6-4.3-5.5-2.3-8.5-5.3-9.1-9.2,0-.2,0-.4,0-.6v-.3c0-.2,0-.5,0-.7.8-3.4,2.6-6.3,5.5-8.6,2.3-1.8,5.1-3.3,9-4.7.8-.3,1.7-.2,2.5.2,5.2,2.7,11.2,4.2,16.5,5.5,4.1,1,7.6,1.9,10.4,3.2,3.9,1.8,5.9,4.3,6.1,7.4,0,0,0,.1,0,.2v.4c0,.8-.3,1.5-.8,2.1-4.6,5.2-12.5,7.3-20.8,9.5l-1,.3c-.3,0-.6.1-.8.1ZM9.2,49c1.3,3.7,11,6,18.8,7.9.4.1.8.2,1.3.3h.2c6.6-1.8,12.8-3.5,16.5-6.5-.5-.5-1.3-.9-1.9-1.2-2.2-1-5.5-1.8-9.3-2.8-5.2-1.3-11.1-2.8-16.6-5.4-5.3,2-8.1,4.4-9,7.6Z"/>
      </g>
      <g class="cls-184">
        <g class="cls-187">
          <polygon class="cls-153" points="-16.7 29.2 30.8 70.5 -16.7 70.5 -16.7 29.2"/>
          <polygon class="cls-153" points="-16.7 12.3 50.2 70.5 30.8 70.5 -16.7 29.2 -16.7 12.3"/>
          <polygon class="cls-153" points="-16.7 11.3 51.4 70.5 50.2 70.5 -16.7 12.3 -16.7 11.3"/>
          <polygon class="cls-83" points="-16.7 10.3 52.5 70.5 51.4 70.5 -16.7 11.3 -16.7 10.3"/>
          <polygon class="cls-121" points="-16.7 9.4 53.6 70.5 52.5 70.5 -16.7 10.3 -16.7 9.4"/>
          <polygon class="cls-45" points="-16.7 8.4 54.7 70.5 53.6 70.5 -16.7 9.4 -16.7 8.4"/>
          <polygon class="cls-125" points="-16.7 7.4 55.8 70.5 54.7 70.5 -16.7 8.4 -16.7 7.4"/>
          <polygon class="cls-59" points="-16.7 6.4 57 70.5 55.8 70.5 -16.7 7.4 -16.7 6.4"/>
          <polygon class="cls-60" points="-16.7 5.5 58.1 70.5 57 70.5 -16.7 6.4 -16.7 5.5"/>
          <polygon class="cls-108" points="-16.7 4.5 59.2 70.5 58.1 70.5 -16.7 5.5 -16.7 4.5"/>
          <polygon class="cls-151" points="-16.7 3.5 60.3 70.5 59.2 70.5 -16.7 4.5 -16.7 3.5"/>
          <polygon class="cls-135" points="-16.7 2.5 61.4 70.5 60.3 70.5 -16.7 3.5 -16.7 2.5"/>
          <polygon class="cls-51" points="-16.7 1.6 62.6 70.5 61.4 70.5 -16.7 2.5 -16.7 1.6"/>
          <polygon class="cls-41" points="-16.7 .6 63.7 70.5 62.6 70.5 -16.7 1.6 -16.7 .6"/>
          <polygon class="cls-175" points="-16.7 -.4 64.8 70.5 63.7 70.5 -16.7 .6 -16.7 -.4"/>
          <polygon class="cls-107" points="-16.7 -1.4 65.9 70.5 64.8 70.5 -16.7 -.4 -16.7 -1.4"/>
          <polygon class="cls-52" points="-16.7 -2.3 67 70.5 65.9 70.5 -16.7 -1.4 -16.7 -2.3"/>
          <polygon class="cls-27" points="-16.7 -3.3 68.2 70.5 67 70.5 -16.7 -2.3 -16.7 -3.3"/>
          <polygon class="cls-157" points="-16.7 -4.3 69.3 70.5 68.2 70.5 -16.7 -3.3 -16.7 -4.3"/>
          <polygon class="cls-127" points="-16.7 -5.3 70.4 70.5 69.3 70.5 -16.7 -4.3 -16.7 -5.3"/>
          <polygon class="cls-18" points="-16.7 -6.2 71.5 70.5 70.4 70.5 -16.7 -5.3 -16.7 -6.2"/>
          <polygon class="cls-95" points="-16.7 -7.2 72.1 70 72.1 70.5 71.5 70.5 -16.7 -6.2 -16.7 -7.2"/>
          <polygon class="cls-180" points="-16.7 -8.2 72.1 69.1 72.1 70 -16.7 -7.2 -16.7 -8.2"/>
          <polygon class="cls-144" points="-16.7 -9.1 72.1 68.1 72.1 69.1 -16.7 -8.2 -16.7 -9.1"/>
          <polygon class="cls-85" points="-16.7 -10.1 72.1 67.1 72.1 68.1 -16.7 -9.1 -16.7 -10.1"/>
          <polygon class="cls-101" points="-16.7 -11.1 72.1 66.1 72.1 67.1 -16.7 -10.1 -16.7 -11.1"/>
          <polygon class="cls-101" points="-16.7 -12.1 72.1 65.2 72.1 66.1 -16.7 -11.1 -16.7 -12.1"/>
          <polygon class="cls-145" points="-16.7 -13 72.1 64.2 72.1 65.2 -16.7 -12.1 -16.7 -13"/>
          <polygon class="cls-54" points="-16.7 -14 72.1 63.2 72.1 64.2 -16.7 -13 -16.7 -14"/>
          <polygon class="cls-54" points="-16.7 -15 72.1 62.2 72.1 63.2 -16.7 -14 -16.7 -15"/>
          <polygon class="cls-49" points="-16.7 -16 72.1 61.3 72.1 62.2 -16.7 -15 -16.7 -16"/>
          <polygon class="cls-49" points="-16.7 -16.9 72.1 60.3 72.1 61.3 -16.7 -16 -16.7 -16.9"/>
          <polygon class="cls-49" points="24.7 -18.4 72.1 22.9 72.1 60.3 -16.7 -16.9 -16.7 -18.4 24.7 -18.4"/>
          <polygon class="cls-49" points="72.1 22.9 24.7 -18.4 72.1 -18.4 72.1 22.9"/>
        </g>
      </g>
      <path class="cls-167" d="M5.9,52.1c-.1,0-.2,0-.4,0-1.6-.2-2.9-1.6-2.9-3.2v-22.6c0-.3,0-.6.1-.8,2.1-7.9,12.6-11,23.8-14.3,8.2-2.4,17.5-5.2,20.3-9.5.8-1.2,2.2-1.8,3.6-1.4,1.4.4,2.3,1.7,2.3,3.1v20.9c0,.6-.2,1.2-.5,1.7-4.8,7.4-14.4,10-23.8,12.5-5,1.3-9.7,2.6-13.3,4.4-3.6,1.8-5.5,4-6.1,6.8-.3,1.5-1.6,2.5-3.1,2.5ZM9.1,26.7v12.2c.9-.7,2-1.3,3.1-1.9,4.3-2.2,9.5-3.6,14.6-4.9,7.8-2.1,15.8-4.2,19.5-9v-12.7c-4.9,3-11.5,4.9-17.9,6.8-8.3,2.5-17.7,5.3-19.3,9.5Z"/>
      <g class="cls-190">
        <g class="cls-189">
          <polygon class="cls-153" points="68.3 62.1 16.2 33.2 68.3 33.2 68.3 62.1"/>
          <polygon class="cls-153" points="68.3 76 -8.9 33.2 16.2 33.2 68.3 62.1 68.3 76"/>
          <polygon class="cls-153" points="68.3 76.8 -10.3 33.2 -8.9 33.2 68.3 76 68.3 76.8"/>
          <polygon class="cls-83" points="68.3 77.6 -11.7 33.2 -10.3 33.2 68.3 76.8 68.3 77.6"/>
          <polygon class="cls-121" points="68.3 78.4 -12.9 33.3 -12.9 33.2 -11.7 33.2 68.3 77.6 68.3 78.4"/>
          <polygon class="cls-45" points="68.3 79.2 -12.9 34.1 -12.9 33.3 68.3 78.4 68.3 79.2"/>
          <polygon class="cls-125" points="68.3 80 -12.9 34.9 -12.9 34.1 68.3 79.2 68.3 80"/>
          <polygon class="cls-59" points="68.3 80.8 -12.9 35.7 -12.9 34.9 68.3 80 68.3 80.8"/>
          <polygon class="cls-60" points="68.3 81.6 -12.9 36.5 -12.9 35.7 68.3 80.8 68.3 81.6"/>
          <polygon class="cls-108" points="68.3 82.3 -12.9 37.3 -12.9 36.5 68.3 81.6 68.3 82.3"/>
          <polygon class="cls-151" points="68.3 83.1 -12.9 38.1 -12.9 37.3 68.3 82.3 68.3 83.1"/>
          <polygon class="cls-135" points="68.3 83.9 -12.9 38.9 -12.9 38.1 68.3 83.1 68.3 83.9"/>
          <polygon class="cls-51" points="68.3 84.7 -12.9 39.7 -12.9 38.9 68.3 83.9 68.3 84.7"/>
          <polygon class="cls-41" points="68.3 85.5 -12.9 40.5 -12.9 39.7 68.3 84.7 68.3 85.5"/>
          <polygon class="cls-175" points="68.3 86.3 -12.9 41.3 -12.9 40.5 68.3 85.5 68.3 86.3"/>
          <polygon class="cls-107" points="68.3 87.1 -12.9 42.1 -12.9 41.3 68.3 86.3 68.3 87.1"/>
          <polygon class="cls-52" points="68.3 87.9 -12.9 42.9 -12.9 42.1 68.3 87.1 68.3 87.9"/>
          <polygon class="cls-27" points="68.3 88.7 -12.9 43.7 -12.9 42.9 68.3 87.9 68.3 88.7"/>
          <polygon class="cls-157" points="68.3 89.5 -12.9 44.5 -12.9 43.7 68.3 88.7 68.3 89.5"/>
          <polygon class="cls-127" points="68.3 90.3 -12.9 45.3 -12.9 44.5 68.3 89.5 68.3 90.3"/>
          <polygon class="cls-18" points="68.3 91.1 -12.9 46.1 -12.9 45.3 68.3 90.3 68.3 91.1"/>
          <polygon class="cls-95" points="68.3 91.9 -12.9 46.9 -12.9 46.1 68.3 91.1 68.3 91.9"/>
          <polygon class="cls-180" points="68.3 92.7 -12.9 47.7 -12.9 46.9 68.3 91.9 68.3 92.7"/>
          <polygon class="cls-144" points="68.3 93.5 -12.9 48.5 -12.9 47.7 68.3 92.7 68.3 93.5"/>
          <polygon class="cls-85" points="68.3 94.3 -12.9 49.3 -12.9 48.5 68.3 93.5 68.3 94.3"/>
          <polygon class="cls-101" points="68.3 95.1 -12.9 50.1 -12.9 49.3 68.3 94.3 68.3 95.1"/>
          <polygon class="cls-101" points="68.3 95.9 -12.9 50.9 -12.9 50.1 68.3 95.1 68.3 95.9"/>
          <polygon class="cls-145" points="68.3 96.7 -12.9 51.7 -12.9 50.9 68.3 95.9 68.3 96.7"/>
          <polygon class="cls-54" points="68.3 97.5 -12.9 52.5 -12.9 51.7 68.3 96.7 68.3 97.5"/>
          <polygon class="cls-54" points="68.3 98.3 -12.9 53.3 -12.9 52.5 68.3 97.5 68.3 98.3"/>
          <polygon class="cls-49" points="68.3 99.1 -12.9 54.1 -12.9 53.3 68.3 98.3 68.3 99.1"/>
          <polygon class="cls-49" points="68.3 99.9 -12.9 54.9 -12.9 54.1 68.3 99.1 68.3 99.9"/>
          <polygon class="cls-49" points="39.3 114.5 -12.9 85.6 -12.9 54.9 68.3 99.9 68.3 114.5 39.3 114.5"/>
          <polygon class="cls-49" points="-12.9 85.6 39.3 114.5 -12.9 114.5 -12.9 85.6"/>
        </g>
      </g>
      <path class="cls-167" d="M5.9,99.2c-.4,0-.7,0-1.1-.2-1.3-.5-2.1-1.7-2.1-3v-23c0-.6.2-1.2.5-1.7,5.5-8.6,16.6-11.5,26.3-14.1,7.4-2,14.4-3.8,17.6-7.6.9-1,2.3-1.4,3.6-.9,1.3.5,2.1,1.7,2.1,3v19.2c0,.3,0,.5,0,.8-.8,3.4-3.1,6-7.1,8-3.1,1.6-6.9,2.8-11,4-9,2.7-19.1,5.7-26.2,14.4-.6.8-1.5,1.2-2.5,1.2ZM9.1,74v14.3c7.5-6,16.3-8.6,23.7-10.8,6.9-2.1,12.4-3.7,13.6-7.1v-12.3c-4.3,2.3-9.6,3.7-15.2,5.2-8.7,2.3-17.7,4.7-22,10.6ZM49.6,70.8h0,0Z"/>
      <g class="cls-188">
        <g class="cls-194">
          <polygon class="cls-24" points="-5 40.6 13.8 54.8 -5 54.8 -5 40.6"/>
          <polygon class="cls-24" points="-5 40.4 14.1 54.8 13.8 54.8 -5 40.6 -5 40.4"/>
          <polygon class="cls-53" points="-5 40.2 14.4 54.8 14.1 54.8 -5 40.4 -5 40.2"/>
          <polygon class="cls-32" points="-5 40 14.7 54.8 14.4 54.8 -5 40.2 -5 40"/>
          <polygon class="cls-99" points="-5 39.7 15 54.8 14.7 54.8 -5 40 -5 39.7"/>
          <polygon class="cls-9" points="-5 39.5 15.3 54.8 15 54.8 -5 39.7 -5 39.5"/>
          <polygon class="cls-4" points="-5 39.3 15.6 54.8 15.3 54.8 -5 39.5 -5 39.3"/>
          <polygon class="cls-7" points="-5 39.1 15.9 54.8 15.6 54.8 -5 39.3 -5 39.1"/>
          <polygon class="cls-129" points="-5 38.8 16.2 54.8 15.9 54.8 -5 39.1 -5 38.8"/>
          <polygon class="cls-163" points="-5 38.6 16.5 54.8 16.2 54.8 -5 38.8 -5 38.6"/>
          <polygon class="cls-58" points="-5 38.4 16.8 54.8 16.5 54.8 -5 38.6 -5 38.4"/>
          <polygon class="cls-20" points="-5 38.2 17.1 54.8 16.8 54.8 -5 38.4 -5 38.2"/>
          <polygon class="cls-179" points="-5 38 17.4 54.8 17.1 54.8 -5 38.2 -5 38"/>
          <polygon class="cls-96" points="-5 37.7 17.7 54.8 17.4 54.8 -5 38 -5 37.7"/>
          <polygon class="cls-171" points="-5 37.5 18 54.8 17.7 54.8 -5 37.7 -5 37.5"/>
          <polygon class="cls-183" points="-5 37.3 18.3 54.8 18 54.8 -5 37.5 -5 37.3"/>
          <polygon class="cls-138" points="-5 37.1 18.6 54.8 18.3 54.8 -5 37.3 -5 37.1"/>
          <polygon class="cls-132" points="-5 36.8 18.9 54.8 18.6 54.8 -5 37.1 -5 36.8"/>
          <polygon class="cls-160" points="-5 36.6 19.2 54.8 18.9 54.8 -5 36.8 -5 36.6"/>
          <polygon class="cls-161" points="-5 36.4 19.5 54.8 19.2 54.8 -5 36.6 -5 36.4"/>
          <polygon class="cls-92" points="-5 36.2 19.8 54.8 19.5 54.8 -5 36.4 -5 36.2"/>
          <polygon class="cls-70" points="-5 36 20 54.8 19.8 54.8 -5 36.2 -5 36"/>
          <polygon class="cls-63" points="-5 35.7 20.3 54.8 20 54.8 -5 36 -5 35.7"/>
          <polygon class="cls-168" points="-5 35.5 20.6 54.8 20.3 54.8 -5 35.7 -5 35.5"/>
          <polygon class="cls-170" points="-5 35.3 20.9 54.8 20.6 54.8 -5 35.5 -5 35.3"/>
          <polygon class="cls-116" points="-5 35.1 21.2 54.8 20.9 54.8 -5 35.3 -5 35.1"/>
          <polygon class="cls-100" points="-5 34.8 21.5 54.8 21.2 54.8 -5 35.1 -5 34.8"/>
          <polygon class="cls-37" points="-5 34.6 21.8 54.8 21.5 54.8 -5 34.8 -5 34.6"/>
          <polygon class="cls-182" points="-5 34.4 22.1 54.8 21.8 54.8 -5 34.6 -5 34.4"/>
          <polygon class="cls-38" points="-5 34.2 22.4 54.8 22.1 54.8 -5 34.4 -5 34.2"/>
          <polygon class="cls-181" points="-5 34 22.7 54.8 22.4 54.8 -5 34.2 -5 34"/>
          <polygon class="cls-43" points="-5 33.7 23 54.8 22.7 54.8 -5 34 -5 33.7"/>
          <polygon class="cls-105" points="-5 33.5 23.3 54.8 23 54.8 -5 33.7 -5 33.5"/>
          <polygon class="cls-1" points="-5 33.3 23.6 54.8 23.3 54.8 -5 33.5 -5 33.3"/>
          <polygon class="cls-122" points="-5 33.1 23.9 54.8 23.6 54.8 -5 33.3 -5 33.1"/>
          <polygon class="cls-109" points="-5 32.8 24.2 54.8 23.9 54.8 -5 33.1 -5 32.8"/>
          <polygon class="cls-115" points="-5 32.6 24.5 54.8 24.2 54.8 -5 32.8 -5 32.6"/>
          <polygon class="cls-57" points="-5 32.4 24.8 54.8 24.5 54.8 -5 32.6 -5 32.4"/>
          <polygon class="cls-84" points="-5 32.2 25.1 54.8 24.8 54.8 -5 32.4 -5 32.2"/>
          <polygon class="cls-114" points="-5 32 25.4 54.8 25.1 54.8 -5 32.2 -5 32"/>
          <polygon class="cls-90" points="-5 31.7 25.7 54.8 25.4 54.8 -5 32 -5 31.7"/>
          <polygon class="cls-39" points="-5 31.5 26 54.8 25.7 54.8 -5 31.7 -5 31.5"/>
          <polygon class="cls-159" points="-5 31.3 26.2 54.8 26 54.8 -5 31.5 -5 31.3"/>
          <polygon class="cls-50" points="-5 31.1 26.5 54.8 26.2 54.8 -5 31.3 -5 31.1"/>
          <polygon class="cls-174" points="-5 30.8 26.8 54.8 26.5 54.8 -5 31.1 -5 30.8"/>
          <polygon class="cls-55" points="-5 30.6 27.1 54.8 26.8 54.8 -5 30.8 -5 30.6"/>
          <polygon class="cls-142" points="-5 30.4 27.4 54.8 27.1 54.8 -5 30.6 -5 30.4"/>
          <polygon class="cls-117" points="-5 30.2 27.7 54.8 27.4 54.8 -5 30.4 -5 30.2"/>
          <polygon class="cls-119" points="-5 29.9 28 54.8 27.7 54.8 -5 30.2 -5 29.9"/>
          <polygon class="cls-14" points="-5 29.7 28.3 54.8 28 54.8 -5 29.9 -5 29.7"/>
          <polygon class="cls-164" points="-5 29.5 28.6 54.8 28.3 54.8 -5 29.7 -5 29.5"/>
          <polygon class="cls-16" points="-5 29.3 28.9 54.8 28.6 54.8 -5 29.5 -5 29.3"/>
          <polygon class="cls-81" points="-5 29.1 29.2 54.8 28.9 54.8 -5 29.3 -5 29.1"/>
          <polygon class="cls-40" points="-5 28.8 29.3 54.7 29.3 54.8 29.2 54.8 -5 29.1 -5 28.8"/>
          <polygon class="cls-79" points="-5 28.6 29.3 54.4 29.3 54.7 -5 28.8 -5 28.6"/>
          <polygon class="cls-97" points="-5 28.4 29.3 54.2 29.3 54.4 -5 28.6 -5 28.4"/>
          <polygon class="cls-65" points="-5 28.2 29.3 54 29.3 54.2 -5 28.4 -5 28.2"/>
          <polygon class="cls-123" points="-5 27.9 29.3 53.8 29.3 54 -5 28.2 -5 27.9"/>
          <polygon class="cls-123" points="-5 27.7 29.3 53.5 29.3 53.8 -5 27.9 -5 27.7"/>
          <polygon class="cls-64" points="-5 27.5 29.3 53.3 29.3 53.5 -5 27.7 -5 27.5"/>
          <polygon class="cls-13" points="-5 27.3 29.3 53.1 29.3 53.3 -5 27.5 -5 27.3"/>
          <polygon class="cls-28" points="-5 27.1 29.3 52.9 29.3 53.1 -5 27.3 -5 27.1"/>
          <polygon class="cls-28" points="-5 26.8 29.3 52.7 29.3 52.9 -5 27.1 -5 26.8"/>
          <polygon class="cls-68" points="-5 26.6 29.3 52.4 29.3 52.7 -5 26.8 -5 26.6"/>
          <polygon class="cls-133" points="-5 26.4 29.3 52.2 29.3 52.4 -5 26.6 -5 26.4"/>
          <polygon class="cls-133" points="-5 26.2 29.3 52 29.3 52.2 -5 26.4 -5 26.2"/>
          <polygon class="cls-156" points="-5 25.9 29.3 51.8 29.3 52 -5 26.2 -5 25.9"/>
          <polygon class="cls-12" points="-5 25.7 29.3 51.5 29.3 51.8 -5 25.9 -5 25.7"/>
          <polygon class="cls-36" points="-5 25.5 29.3 51.3 29.3 51.5 -5 25.7 -5 25.5"/>
          <polygon class="cls-152" points="-5 25.3 29.3 51.1 29.3 51.3 -5 25.5 -5 25.3"/>
          <polygon class="cls-152" points="-5 25.1 29.3 50.9 29.3 51.1 -5 25.3 -5 25.1"/>
          <polygon class="cls-152" points="-5 24.8 29.3 50.7 29.3 50.9 -5 25.1 -5 24.8"/>
          <polygon class="cls-152" points="-5 24.6 29.3 50.4 29.3 50.7 -5 24.8 -5 24.6"/>
          <polygon class="cls-128" points="-5 24.4 29.3 50.2 29.3 50.4 -5 24.6 -5 24.4"/>
          <polygon class="cls-128" points="-5 24.2 29.3 50 29.3 50.2 -5 24.4 -5 24.2"/>
          <polygon class="cls-118" points="-5 23.9 29.3 49.8 29.3 50 -5 24.2 -5 23.9"/>
          <polygon class="cls-118" points="-5 23.7 29.3 49.5 29.3 49.8 -5 23.9 -5 23.7"/>
          <polygon class="cls-88" points="-5 23.5 29.3 49.3 29.3 49.5 -5 23.7 -5 23.5"/>
          <polygon class="cls-88" points="-5 23.3 29.3 49.1 29.3 49.3 -5 23.5 -5 23.3"/>
          <polygon class="cls-88" points="-5 23 29.3 48.9 29.3 49.1 -5 23.3 -5 23"/>
          <polygon class="cls-165" points="-5 22.8 29.3 48.6 29.3 48.9 -5 23 -5 22.8"/>
          <polygon class="cls-29" points="-5 22.6 29.3 48.4 29.3 48.6 -5 22.8 -5 22.6"/>
          <polygon class="cls-29" points="-5 22.4 29.3 48.2 29.3 48.4 -5 22.6 -5 22.4"/>
          <polygon class="cls-61" points="-5 22.2 29.3 48 29.3 48.2 -5 22.4 -5 22.2"/>
          <polygon class="cls-61" points="-5 21.9 29.3 47.8 29.3 48 -5 22.2 -5 21.9"/>
          <polygon class="cls-61" points="-5 21.7 29.3 47.5 29.3 47.8 -5 21.9 -5 21.7"/>
          <polygon class="cls-61" points="-5 21.5 29.3 47.3 29.3 47.5 -5 21.7 -5 21.5"/>
          <polygon class="cls-61" points="-5 21.3 29.3 47.1 29.3 47.3 -5 21.5 -5 21.3"/>
          <polygon class="cls-61" points="-5 21 29.3 46.9 29.3 47.1 -5 21.3 -5 21"/>
          <polygon class="cls-82" points="-5 20.8 29.3 46.6 29.3 46.9 -5 21 -5 20.8"/>
          <polygon class="cls-82" points="-5 20.6 29.3 46.4 29.3 46.6 -5 20.8 -5 20.6"/>
          <polygon class="cls-82" points="-5 20.4 29.3 46.2 29.3 46.4 -5 20.6 -5 20.4"/>
          <polygon class="cls-82" points="-5 20.2 29.3 46 29.3 46.2 -5 20.4 -5 20.2 -5 20.2"/>
          <polygon class="cls-98" points="-4.7 20.2 29.3 45.8 29.3 46 -5 20.2 -4.7 20.2"/>
          <polygon class="cls-98" points="-4.4 20.2 29.3 45.5 29.3 45.8 -4.7 20.2 -4.4 20.2"/>
          <polygon class="cls-98" points="-4.1 20.2 29.3 45.3 29.3 45.5 -4.4 20.2 -4.1 20.2"/>
          <polygon class="cls-98" points="-3.8 20.2 29.3 45.1 29.3 45.3 -4.1 20.2 -3.8 20.2"/>
          <polygon class="cls-98" points="-3.5 20.2 29.3 44.9 29.3 45.1 -3.8 20.2 -3.5 20.2"/>
          <polygon class="cls-98" points="-3.2 20.2 29.3 44.6 29.3 44.9 -3.5 20.2 -3.2 20.2"/>
          <polygon class="cls-98" points="-2.9 20.2 29.3 44.4 29.3 44.6 -3.2 20.2 -2.9 20.2"/>
          <polygon class="cls-98" points="-2.6 20.2 29.3 44.2 29.3 44.4 -2.9 20.2 -2.6 20.2"/>
          <polygon class="cls-98" points="-2.3 20.2 29.3 44 29.3 44.2 -2.6 20.2 -2.3 20.2"/>
          <polygon class="cls-98" points="-2 20.2 29.3 43.8 29.3 44 -2.3 20.2 -2 20.2"/>
          <polygon class="cls-98" points="29.3 43.8 -2 20.2 29.3 20.2 29.3 43.8"/>
        </g>
      </g>
      <path class="cls-167" d="M5.9,52.1c-.1,0-.2,0-.4,0-1.6-.2-2.9-1.6-2.9-3.2v-22.6c0-.4,0-.7.2-1,0,0,0-.1,0-.2.4-1.1,1.5-1.9,2.7-2,1.3-.1,2.6.5,3.2,1.7,2.2,4.3,5.8,7.7,11,10.3,1.1.6,1.8,1.8,1.8,3.1,0,1.3-.9,2.4-2.1,2.8-6.4,2.3-9.6,4.8-10.4,8.6-.3,1.5-1.6,2.5-3.1,2.5ZM9.1,35.5v3.4c.7-.5,1.5-1,2.3-1.5-.8-.6-1.6-1.2-2.3-1.9ZM2.8,25.3s0,0,0,0c0,0,0,0,0,0ZM2.8,25.3s0,0,0,0h0Z"/>
      <g class="cls-193">
        <g class="cls-191">
          <polygon class="cls-158" points="20.3 53.7 55.4 80.2 20.3 80.2 20.3 53.7"/>
          <polygon class="cls-158" points="20.3 49.6 58.6 78.4 58.6 80.2 55.4 80.2 20.3 53.7 20.3 49.6"/>
          <polygon class="cls-158" points="20.3 49.3 58.6 78.2 58.6 78.4 20.3 49.6 20.3 49.3"/>
          <polygon class="cls-21" points="20.3 49.1 58.6 77.9 58.6 78.2 20.3 49.3 20.3 49.1"/>
          <polygon class="cls-103" points="20.3 48.8 58.6 77.7 58.6 77.9 20.3 49.1 20.3 48.8"/>
          <polygon class="cls-126" points="20.3 48.6 58.6 77.4 58.6 77.7 20.3 48.8 20.3 48.6"/>
          <polygon class="cls-143" points="20.3 48.3 58.6 77.1 58.6 77.4 20.3 48.6 20.3 48.3"/>
          <polygon class="cls-173" points="20.3 48.1 58.6 76.9 58.6 77.1 20.3 48.3 20.3 48.1"/>
          <polygon class="cls-172" points="20.3 47.8 58.6 76.6 58.6 76.9 20.3 48.1 20.3 47.8"/>
          <polygon class="cls-26" points="20.3 47.5 58.6 76.4 58.6 76.6 20.3 47.8 20.3 47.5"/>
          <polygon class="cls-10" points="20.3 47.3 58.6 76.1 58.6 76.4 20.3 47.5 20.3 47.3"/>
          <polygon class="cls-169" points="20.3 47 58.6 75.9 58.6 76.1 20.3 47.3 20.3 47"/>
          <polygon class="cls-11" points="20.3 46.8 58.6 75.6 58.6 75.9 20.3 47 20.3 46.8"/>
          <polygon class="cls-166" points="20.3 46.5 58.6 75.4 58.6 75.6 20.3 46.8 20.3 46.5"/>
          <polygon class="cls-149" points="20.3 46.3 58.6 75.1 58.6 75.4 20.3 46.5 20.3 46.3"/>
          <polygon class="cls-178" points="20.3 46 58.6 74.8 58.6 75.1 20.3 46.3 20.3 46"/>
          <polygon class="cls-110" points="20.3 45.8 58.6 74.6 58.6 74.8 20.3 46 20.3 45.8"/>
          <polygon class="cls-102" points="20.3 45.5 58.6 74.3 58.6 74.6 20.3 45.8 20.3 45.5"/>
          <polygon class="cls-155" points="20.3 45.2 58.6 74.1 58.6 74.3 20.3 45.5 20.3 45.2"/>
          <polygon class="cls-139" points="20.3 45 58.6 73.8 58.6 74.1 20.3 45.2 20.3 45"/>
          <polygon class="cls-150" points="20.3 44.7 58.6 73.6 58.6 73.8 20.3 45 20.3 44.7"/>
          <polygon class="cls-91" points="20.3 44.5 58.6 73.3 58.6 73.6 20.3 44.7 20.3 44.5"/>
          <polygon class="cls-62" points="20.3 44.2 58.6 73.1 58.6 73.3 20.3 44.5 20.3 44.2"/>
          <polygon class="cls-177" points="20.3 44 58.6 72.8 58.6 73.1 20.3 44.2 20.3 44"/>
          <polygon class="cls-48" points="20.3 43.7 58.6 72.5 58.6 72.8 20.3 44 20.3 43.7"/>
          <polygon class="cls-69" points="20.3 43.4 58.6 72.3 58.6 72.5 20.3 43.7 20.3 43.4"/>
          <polygon class="cls-106" points="20.3 43.2 58.6 72 58.6 72.3 20.3 43.4 20.3 43.2"/>
          <polygon class="cls-148" points="20.3 42.9 58.6 71.8 58.6 72 20.3 43.2 20.3 42.9"/>
          <polygon class="cls-140" points="20.3 42.7 58.6 71.5 58.6 71.8 20.3 42.9 20.3 42.7"/>
          <polygon class="cls-5" points="20.3 42.4 58.6 71.3 58.6 71.5 20.3 42.7 20.3 42.4"/>
          <polygon class="cls-112" points="20.3 42.2 58.6 71 58.6 71.3 20.3 42.4 20.3 42.2"/>
          <polygon class="cls-130" points="20.3 41.9 58.6 70.8 58.6 71 20.3 42.2 20.3 41.9 20.3 41.9"/>
          <polygon class="cls-22" points="20.7 41.9 58.6 70.5 58.6 70.8 20.3 41.9 20.7 41.9"/>
          <polygon class="cls-86" points="21 41.9 58.6 70.2 58.6 70.5 20.7 41.9 21 41.9"/>
          <polygon class="cls-131" points="21.3 41.9 58.6 70 58.6 70.2 21 41.9 21.3 41.9"/>
          <polygon class="cls-80" points="21.7 41.9 58.6 69.7 58.6 70 21.3 41.9 21.7 41.9"/>
          <polygon class="cls-46" points="22 41.9 58.6 69.5 58.6 69.7 21.7 41.9 22 41.9"/>
          <polygon class="cls-87" points="22.4 41.9 58.6 69.2 58.6 69.5 22 41.9 22.4 41.9"/>
          <polygon class="cls-94" points="22.7 41.9 58.6 69 58.6 69.2 22.4 41.9 22.7 41.9"/>
          <polygon class="cls-104" points="23 41.9 58.6 68.7 58.6 69 22.7 41.9 23 41.9"/>
          <polygon class="cls-124" points="23.4 41.9 58.6 68.5 58.6 68.7 23 41.9 23.4 41.9"/>
          <polygon class="cls-34" points="23.7 41.9 58.6 68.2 58.6 68.5 23.4 41.9 23.7 41.9"/>
          <polygon class="cls-2" points="24.1 41.9 58.6 67.9 58.6 68.2 23.7 41.9 24.1 41.9"/>
          <polygon class="cls-47" points="24.4 41.9 58.6 67.7 58.6 67.9 24.1 41.9 24.4 41.9"/>
          <polygon class="cls-162" points="24.7 41.9 58.6 67.4 58.6 67.7 24.4 41.9 24.7 41.9"/>
          <polygon class="cls-136" points="25.1 41.9 58.6 67.2 58.6 67.4 24.7 41.9 25.1 41.9"/>
          <polygon class="cls-8" points="25.4 41.9 58.6 66.9 58.6 67.2 25.1 41.9 25.4 41.9"/>
          <polygon class="cls-67" points="25.8 41.9 58.6 66.7 58.6 66.9 25.4 41.9 25.8 41.9"/>
          <polygon class="cls-42" points="26.1 41.9 58.6 66.4 58.6 66.7 25.8 41.9 26.1 41.9"/>
          <polygon class="cls-134" points="26.4 41.9 58.6 66.1 58.6 66.4 26.1 41.9 26.4 41.9"/>
          <polygon class="cls-111" points="26.8 41.9 58.6 65.9 58.6 66.1 26.4 41.9 26.8 41.9"/>
          <polygon class="cls-137" points="27.1 41.9 58.6 65.6 58.6 65.9 26.8 41.9 27.1 41.9"/>
          <polygon class="cls-17" points="27.5 41.9 58.6 65.4 58.6 65.6 27.1 41.9 27.5 41.9"/>
          <polygon class="cls-113" points="27.8 41.9 58.6 65.1 58.6 65.4 27.5 41.9 27.8 41.9"/>
          <polygon class="cls-176" points="28.1 41.9 58.6 64.9 58.6 65.1 27.8 41.9 28.1 41.9"/>
          <polygon class="cls-66" points="28.5 41.9 58.6 64.6 58.6 64.9 28.1 41.9 28.5 41.9"/>
          <polygon class="cls-6" points="28.8 41.9 58.6 64.4 58.6 64.6 28.5 41.9 28.8 41.9"/>
          <polygon class="cls-89" points="29.2 41.9 58.6 64.1 58.6 64.4 28.8 41.9 29.2 41.9"/>
          <polygon class="cls-25" points="29.5 41.9 58.6 63.8 58.6 64.1 29.2 41.9 29.5 41.9"/>
          <polygon class="cls-56" points="29.8 41.9 58.6 63.6 58.6 63.8 29.5 41.9 29.8 41.9"/>
          <polygon class="cls-31" points="30.2 41.9 58.6 63.3 58.6 63.6 29.8 41.9 30.2 41.9"/>
          <polygon class="cls-3" points="30.5 41.9 58.6 63.1 58.6 63.3 30.2 41.9 30.5 41.9"/>
          <polygon class="cls-93" points="30.9 41.9 58.6 62.8 58.6 63.1 30.5 41.9 30.9 41.9"/>
          <polygon class="cls-30" points="31.2 41.9 58.6 62.6 58.6 62.8 30.9 41.9 31.2 41.9"/>
          <polygon class="cls-120" points="31.5 41.9 58.6 62.3 58.6 62.6 31.2 41.9 31.5 41.9"/>
          <polygon class="cls-120" points="36.6 41.9 58.6 58.5 58.6 62.3 31.5 41.9 36.6 41.9"/>
          <polygon class="cls-120" points="58.6 58.5 36.6 41.9 58.6 41.9 58.6 58.5"/>
        </g>
      </g>
      <path class="cls-167" d="M49.6,73.6c-1.2,0-2.4-.7-2.9-1.9-1.9-4.2-12-6.6-18.1-8.1-1.4-.3-2.4-1.6-2.5-3.1,0-1.5,1-2.8,2.4-3.1l1-.3c7.4-2,14.4-3.8,17.6-7.6.9-1,2.3-1.4,3.6-.9,1.3.5,2.1,1.7,2.1,3v18.7c0,1.5-1.1,2.8-2.5,3.1-.2,0-.5,0-.7,0ZM40.9,60.5c2,.7,3.8,1.5,5.4,2.4v-4.8c-1.7.9-3.5,1.7-5.4,2.3Z"/>
      <path class="cls-19" d="M5.9,48.8v.3c1.1,6.4,12.5,8.7,23.4,11.4,8.2-2.2,16.2-4.1,20.3-8.8v-.4c-.4-7.1-17.7-6.5-31.2-13.3-6.2,2.2-11.2,5.2-12.5,10.9"/>
      <g class="cls-192">
        <g class="cls-195">
          <polygon class="cls-153" points="-16.7 29.2 30.8 70.5 -16.7 70.5 -16.7 29.2"/>
          <polygon class="cls-153" points="-16.7 12.3 50.2 70.5 30.8 70.5 -16.7 29.2 -16.7 12.3"/>
          <polygon class="cls-153" points="-16.7 11.3 51.4 70.5 50.2 70.5 -16.7 12.3 -16.7 11.3"/>
          <polygon class="cls-83" points="-16.7 10.3 52.5 70.5 51.4 70.5 -16.7 11.3 -16.7 10.3"/>
          <polygon class="cls-121" points="-16.7 9.4 53.6 70.5 52.5 70.5 -16.7 10.3 -16.7 9.4"/>
          <polygon class="cls-45" points="-16.7 8.4 54.7 70.5 53.6 70.5 -16.7 9.4 -16.7 8.4"/>
          <polygon class="cls-125" points="-16.7 7.4 55.8 70.5 54.7 70.5 -16.7 8.4 -16.7 7.4"/>
          <polygon class="cls-59" points="-16.7 6.4 57 70.5 55.8 70.5 -16.7 7.4 -16.7 6.4"/>
          <polygon class="cls-60" points="-16.7 5.5 58.1 70.5 57 70.5 -16.7 6.4 -16.7 5.5"/>
          <polygon class="cls-108" points="-16.7 4.5 59.2 70.5 58.1 70.5 -16.7 5.5 -16.7 4.5"/>
          <polygon class="cls-151" points="-16.7 3.5 60.3 70.5 59.2 70.5 -16.7 4.5 -16.7 3.5"/>
          <polygon class="cls-135" points="-16.7 2.5 61.4 70.5 60.3 70.5 -16.7 3.5 -16.7 2.5"/>
          <polygon class="cls-51" points="-16.7 1.6 62.6 70.5 61.4 70.5 -16.7 2.5 -16.7 1.6"/>
          <polygon class="cls-41" points="-16.7 .6 63.7 70.5 62.6 70.5 -16.7 1.6 -16.7 .6"/>
          <polygon class="cls-175" points="-16.7 -.4 64.8 70.5 63.7 70.5 -16.7 .6 -16.7 -.4"/>
          <polygon class="cls-107" points="-16.7 -1.4 65.9 70.5 64.8 70.5 -16.7 -.4 -16.7 -1.4"/>
          <polygon class="cls-52" points="-16.7 -2.3 67 70.5 65.9 70.5 -16.7 -1.4 -16.7 -2.3"/>
          <polygon class="cls-27" points="-16.7 -3.3 68.2 70.5 67 70.5 -16.7 -2.3 -16.7 -3.3"/>
          <polygon class="cls-157" points="-16.7 -4.3 69.3 70.5 68.2 70.5 -16.7 -3.3 -16.7 -4.3"/>
          <polygon class="cls-127" points="-16.7 -5.3 70.4 70.5 69.3 70.5 -16.7 -4.3 -16.7 -5.3"/>
          <polygon class="cls-18" points="-16.7 -6.2 71.5 70.5 70.4 70.5 -16.7 -5.3 -16.7 -6.2"/>
          <polygon class="cls-95" points="-16.7 -7.2 72.1 70 72.1 70.5 71.5 70.5 -16.7 -6.2 -16.7 -7.2"/>
          <polygon class="cls-180" points="-16.7 -8.2 72.1 69.1 72.1 70 -16.7 -7.2 -16.7 -8.2"/>
          <polygon class="cls-144" points="-16.7 -9.1 72.1 68.1 72.1 69.1 -16.7 -8.2 -16.7 -9.1"/>
          <polygon class="cls-85" points="-16.7 -10.1 72.1 67.1 72.1 68.1 -16.7 -9.1 -16.7 -10.1"/>
          <polygon class="cls-101" points="-16.7 -11.1 72.1 66.1 72.1 67.1 -16.7 -10.1 -16.7 -11.1"/>
          <polygon class="cls-101" points="-16.7 -12.1 72.1 65.2 72.1 66.1 -16.7 -11.1 -16.7 -12.1"/>
          <polygon class="cls-145" points="-16.7 -13 72.1 64.2 72.1 65.2 -16.7 -12.1 -16.7 -13"/>
          <polygon class="cls-54" points="-16.7 -14 72.1 63.2 72.1 64.2 -16.7 -13 -16.7 -14"/>
          <polygon class="cls-54" points="-16.7 -15 72.1 62.2 72.1 63.2 -16.7 -14 -16.7 -15"/>
          <polygon class="cls-49" points="-16.7 -16 72.1 61.3 72.1 62.2 -16.7 -15 -16.7 -16"/>
          <polygon class="cls-49" points="-16.7 -16.9 72.1 60.3 72.1 61.3 -16.7 -16 -16.7 -16.9"/>
          <polygon class="cls-49" points="24.7 -18.4 72.1 22.9 72.1 60.3 -16.7 -16.9 -16.7 -18.4 24.7 -18.4"/>
          <polygon class="cls-49" points="72.1 22.9 24.7 -18.4 72.1 -18.4 72.1 22.9"/>
        </g>
      </g>
      <g class="cls-199">
        <g class="cls-201">
          <polygon class="cls-153" points="68.3 62.1 16.2 33.2 68.3 33.2 68.3 62.1"/>
          <polygon class="cls-153" points="68.3 76 -8.9 33.2 16.2 33.2 68.3 62.1 68.3 76"/>
          <polygon class="cls-153" points="68.3 76.8 -10.3 33.2 -8.9 33.2 68.3 76 68.3 76.8"/>
          <polygon class="cls-83" points="68.3 77.6 -11.7 33.2 -10.3 33.2 68.3 76.8 68.3 77.6"/>
          <polygon class="cls-121" points="68.3 78.4 -12.9 33.3 -12.9 33.2 -11.7 33.2 68.3 77.6 68.3 78.4"/>
          <polygon class="cls-45" points="68.3 79.2 -12.9 34.1 -12.9 33.3 68.3 78.4 68.3 79.2"/>
          <polygon class="cls-125" points="68.3 80 -12.9 34.9 -12.9 34.1 68.3 79.2 68.3 80"/>
          <polygon class="cls-59" points="68.3 80.8 -12.9 35.7 -12.9 34.9 68.3 80 68.3 80.8"/>
          <polygon class="cls-60" points="68.3 81.6 -12.9 36.5 -12.9 35.7 68.3 80.8 68.3 81.6"/>
          <polygon class="cls-108" points="68.3 82.3 -12.9 37.3 -12.9 36.5 68.3 81.6 68.3 82.3"/>
          <polygon class="cls-151" points="68.3 83.1 -12.9 38.1 -12.9 37.3 68.3 82.3 68.3 83.1"/>
          <polygon class="cls-135" points="68.3 83.9 -12.9 38.9 -12.9 38.1 68.3 83.1 68.3 83.9"/>
          <polygon class="cls-51" points="68.3 84.7 -12.9 39.7 -12.9 38.9 68.3 83.9 68.3 84.7"/>
          <polygon class="cls-41" points="68.3 85.5 -12.9 40.5 -12.9 39.7 68.3 84.7 68.3 85.5"/>
          <polygon class="cls-175" points="68.3 86.3 -12.9 41.3 -12.9 40.5 68.3 85.5 68.3 86.3"/>
          <polygon class="cls-107" points="68.3 87.1 -12.9 42.1 -12.9 41.3 68.3 86.3 68.3 87.1"/>
          <polygon class="cls-52" points="68.3 87.9 -12.9 42.9 -12.9 42.1 68.3 87.1 68.3 87.9"/>
          <polygon class="cls-27" points="68.3 88.7 -12.9 43.7 -12.9 42.9 68.3 87.9 68.3 88.7"/>
          <polygon class="cls-157" points="68.3 89.5 -12.9 44.5 -12.9 43.7 68.3 88.7 68.3 89.5"/>
          <polygon class="cls-127" points="68.3 90.3 -12.9 45.3 -12.9 44.5 68.3 89.5 68.3 90.3"/>
          <polygon class="cls-18" points="68.3 91.1 -12.9 46.1 -12.9 45.3 68.3 90.3 68.3 91.1"/>
          <polygon class="cls-95" points="68.3 91.9 -12.9 46.9 -12.9 46.1 68.3 91.1 68.3 91.9"/>
          <polygon class="cls-180" points="68.3 92.7 -12.9 47.7 -12.9 46.9 68.3 91.9 68.3 92.7"/>
          <polygon class="cls-144" points="68.3 93.5 -12.9 48.5 -12.9 47.7 68.3 92.7 68.3 93.5"/>
          <polygon class="cls-85" points="68.3 94.3 -12.9 49.3 -12.9 48.5 68.3 93.5 68.3 94.3"/>
          <polygon class="cls-101" points="68.3 95.1 -12.9 50.1 -12.9 49.3 68.3 94.3 68.3 95.1"/>
          <polygon class="cls-101" points="68.3 95.9 -12.9 50.9 -12.9 50.1 68.3 95.1 68.3 95.9"/>
          <polygon class="cls-145" points="68.3 96.7 -12.9 51.7 -12.9 50.9 68.3 95.9 68.3 96.7"/>
          <polygon class="cls-54" points="68.3 97.5 -12.9 52.5 -12.9 51.7 68.3 96.7 68.3 97.5"/>
          <polygon class="cls-54" points="68.3 98.3 -12.9 53.3 -12.9 52.5 68.3 97.5 68.3 98.3"/>
          <polygon class="cls-49" points="68.3 99.1 -12.9 54.1 -12.9 53.3 68.3 98.3 68.3 99.1"/>
          <polygon class="cls-49" points="68.3 99.9 -12.9 54.9 -12.9 54.1 68.3 99.1 68.3 99.9"/>
          <polygon class="cls-49" points="39.3 114.5 -12.9 85.6 -12.9 54.9 68.3 99.9 68.3 114.5 39.3 114.5"/>
          <polygon class="cls-49" points="-12.9 85.6 39.3 114.5 -12.9 114.5 -12.9 85.6"/>
        </g>
      </g>
      <g class="cls-198">
        <g class="cls-197">
          <polygon class="cls-24" points="-5 40.6 13.8 54.8 -5 54.8 -5 40.6"/>
          <polygon class="cls-24" points="-5 40.4 14.1 54.8 13.8 54.8 -5 40.6 -5 40.4"/>
          <polygon class="cls-53" points="-5 40.2 14.4 54.8 14.1 54.8 -5 40.4 -5 40.2"/>
          <polygon class="cls-32" points="-5 40 14.7 54.8 14.4 54.8 -5 40.2 -5 40"/>
          <polygon class="cls-99" points="-5 39.7 15 54.8 14.7 54.8 -5 40 -5 39.7"/>
          <polygon class="cls-9" points="-5 39.5 15.3 54.8 15 54.8 -5 39.7 -5 39.5"/>
          <polygon class="cls-4" points="-5 39.3 15.6 54.8 15.3 54.8 -5 39.5 -5 39.3"/>
          <polygon class="cls-7" points="-5 39.1 15.9 54.8 15.6 54.8 -5 39.3 -5 39.1"/>
          <polygon class="cls-129" points="-5 38.8 16.2 54.8 15.9 54.8 -5 39.1 -5 38.8"/>
          <polygon class="cls-163" points="-5 38.6 16.5 54.8 16.2 54.8 -5 38.8 -5 38.6"/>
          <polygon class="cls-58" points="-5 38.4 16.8 54.8 16.5 54.8 -5 38.6 -5 38.4"/>
          <polygon class="cls-20" points="-5 38.2 17.1 54.8 16.8 54.8 -5 38.4 -5 38.2"/>
          <polygon class="cls-179" points="-5 38 17.4 54.8 17.1 54.8 -5 38.2 -5 38"/>
          <polygon class="cls-96" points="-5 37.7 17.7 54.8 17.4 54.8 -5 38 -5 37.7"/>
          <polygon class="cls-171" points="-5 37.5 18 54.8 17.7 54.8 -5 37.7 -5 37.5"/>
          <polygon class="cls-183" points="-5 37.3 18.3 54.8 18 54.8 -5 37.5 -5 37.3"/>
          <polygon class="cls-138" points="-5 37.1 18.6 54.8 18.3 54.8 -5 37.3 -5 37.1"/>
          <polygon class="cls-132" points="-5 36.8 18.9 54.8 18.6 54.8 -5 37.1 -5 36.8"/>
          <polygon class="cls-160" points="-5 36.6 19.2 54.8 18.9 54.8 -5 36.8 -5 36.6"/>
          <polygon class="cls-161" points="-5 36.4 19.5 54.8 19.2 54.8 -5 36.6 -5 36.4"/>
          <polygon class="cls-92" points="-5 36.2 19.8 54.8 19.5 54.8 -5 36.4 -5 36.2"/>
          <polygon class="cls-70" points="-5 36 20 54.8 19.8 54.8 -5 36.2 -5 36"/>
          <polygon class="cls-63" points="-5 35.7 20.3 54.8 20 54.8 -5 36 -5 35.7"/>
          <polygon class="cls-168" points="-5 35.5 20.6 54.8 20.3 54.8 -5 35.7 -5 35.5"/>
          <polygon class="cls-170" points="-5 35.3 20.9 54.8 20.6 54.8 -5 35.5 -5 35.3"/>
          <polygon class="cls-116" points="-5 35.1 21.2 54.8 20.9 54.8 -5 35.3 -5 35.1"/>
          <polygon class="cls-100" points="-5 34.8 21.5 54.8 21.2 54.8 -5 35.1 -5 34.8"/>
          <polygon class="cls-37" points="-5 34.6 21.8 54.8 21.5 54.8 -5 34.8 -5 34.6"/>
          <polygon class="cls-182" points="-5 34.4 22.1 54.8 21.8 54.8 -5 34.6 -5 34.4"/>
          <polygon class="cls-38" points="-5 34.2 22.4 54.8 22.1 54.8 -5 34.4 -5 34.2"/>
          <polygon class="cls-181" points="-5 34 22.7 54.8 22.4 54.8 -5 34.2 -5 34"/>
          <polygon class="cls-43" points="-5 33.7 23 54.8 22.7 54.8 -5 34 -5 33.7"/>
          <polygon class="cls-105" points="-5 33.5 23.3 54.8 23 54.8 -5 33.7 -5 33.5"/>
          <polygon class="cls-1" points="-5 33.3 23.6 54.8 23.3 54.8 -5 33.5 -5 33.3"/>
          <polygon class="cls-122" points="-5 33.1 23.9 54.8 23.6 54.8 -5 33.3 -5 33.1"/>
          <polygon class="cls-109" points="-5 32.8 24.2 54.8 23.9 54.8 -5 33.1 -5 32.8"/>
          <polygon class="cls-115" points="-5 32.6 24.5 54.8 24.2 54.8 -5 32.8 -5 32.6"/>
          <polygon class="cls-57" points="-5 32.4 24.8 54.8 24.5 54.8 -5 32.6 -5 32.4"/>
          <polygon class="cls-84" points="-5 32.2 25.1 54.8 24.8 54.8 -5 32.4 -5 32.2"/>
          <polygon class="cls-114" points="-5 32 25.4 54.8 25.1 54.8 -5 32.2 -5 32"/>
          <polygon class="cls-90" points="-5 31.7 25.7 54.8 25.4 54.8 -5 32 -5 31.7"/>
          <polygon class="cls-39" points="-5 31.5 26 54.8 25.7 54.8 -5 31.7 -5 31.5"/>
          <polygon class="cls-159" points="-5 31.3 26.2 54.8 26 54.8 -5 31.5 -5 31.3"/>
          <polygon class="cls-50" points="-5 31.1 26.5 54.8 26.2 54.8 -5 31.3 -5 31.1"/>
          <polygon class="cls-174" points="-5 30.8 26.8 54.8 26.5 54.8 -5 31.1 -5 30.8"/>
          <polygon class="cls-55" points="-5 30.6 27.1 54.8 26.8 54.8 -5 30.8 -5 30.6"/>
          <polygon class="cls-142" points="-5 30.4 27.4 54.8 27.1 54.8 -5 30.6 -5 30.4"/>
          <polygon class="cls-117" points="-5 30.2 27.7 54.8 27.4 54.8 -5 30.4 -5 30.2"/>
          <polygon class="cls-119" points="-5 29.9 28 54.8 27.7 54.8 -5 30.2 -5 29.9"/>
          <polygon class="cls-14" points="-5 29.7 28.3 54.8 28 54.8 -5 29.9 -5 29.7"/>
          <polygon class="cls-164" points="-5 29.5 28.6 54.8 28.3 54.8 -5 29.7 -5 29.5"/>
          <polygon class="cls-16" points="-5 29.3 28.9 54.8 28.6 54.8 -5 29.5 -5 29.3"/>
          <polygon class="cls-81" points="-5 29.1 29.2 54.8 28.9 54.8 -5 29.3 -5 29.1"/>
          <polygon class="cls-40" points="-5 28.8 29.3 54.7 29.3 54.8 29.2 54.8 -5 29.1 -5 28.8"/>
          <polygon class="cls-79" points="-5 28.6 29.3 54.4 29.3 54.7 -5 28.8 -5 28.6"/>
          <polygon class="cls-97" points="-5 28.4 29.3 54.2 29.3 54.4 -5 28.6 -5 28.4"/>
          <polygon class="cls-65" points="-5 28.2 29.3 54 29.3 54.2 -5 28.4 -5 28.2"/>
          <polygon class="cls-123" points="-5 27.9 29.3 53.8 29.3 54 -5 28.2 -5 27.9"/>
          <polygon class="cls-123" points="-5 27.7 29.3 53.5 29.3 53.8 -5 27.9 -5 27.7"/>
          <polygon class="cls-64" points="-5 27.5 29.3 53.3 29.3 53.5 -5 27.7 -5 27.5"/>
          <polygon class="cls-13" points="-5 27.3 29.3 53.1 29.3 53.3 -5 27.5 -5 27.3"/>
          <polygon class="cls-28" points="-5 27.1 29.3 52.9 29.3 53.1 -5 27.3 -5 27.1"/>
          <polygon class="cls-28" points="-5 26.8 29.3 52.7 29.3 52.9 -5 27.1 -5 26.8"/>
          <polygon class="cls-68" points="-5 26.6 29.3 52.4 29.3 52.7 -5 26.8 -5 26.6"/>
          <polygon class="cls-133" points="-5 26.4 29.3 52.2 29.3 52.4 -5 26.6 -5 26.4"/>
          <polygon class="cls-133" points="-5 26.2 29.3 52 29.3 52.2 -5 26.4 -5 26.2"/>
          <polygon class="cls-156" points="-5 25.9 29.3 51.8 29.3 52 -5 26.2 -5 25.9"/>
          <polygon class="cls-12" points="-5 25.7 29.3 51.5 29.3 51.8 -5 25.9 -5 25.7"/>
          <polygon class="cls-36" points="-5 25.5 29.3 51.3 29.3 51.5 -5 25.7 -5 25.5"/>
          <polygon class="cls-152" points="-5 25.3 29.3 51.1 29.3 51.3 -5 25.5 -5 25.3"/>
          <polygon class="cls-152" points="-5 25.1 29.3 50.9 29.3 51.1 -5 25.3 -5 25.1"/>
          <polygon class="cls-152" points="-5 24.8 29.3 50.7 29.3 50.9 -5 25.1 -5 24.8"/>
          <polygon class="cls-152" points="-5 24.6 29.3 50.4 29.3 50.7 -5 24.8 -5 24.6"/>
          <polygon class="cls-128" points="-5 24.4 29.3 50.2 29.3 50.4 -5 24.6 -5 24.4"/>
          <polygon class="cls-128" points="-5 24.2 29.3 50 29.3 50.2 -5 24.4 -5 24.2"/>
          <polygon class="cls-118" points="-5 23.9 29.3 49.8 29.3 50 -5 24.2 -5 23.9"/>
          <polygon class="cls-118" points="-5 23.7 29.3 49.5 29.3 49.8 -5 23.9 -5 23.7"/>
          <polygon class="cls-88" points="-5 23.5 29.3 49.3 29.3 49.5 -5 23.7 -5 23.5"/>
          <polygon class="cls-88" points="-5 23.3 29.3 49.1 29.3 49.3 -5 23.5 -5 23.3"/>
          <polygon class="cls-88" points="-5 23 29.3 48.9 29.3 49.1 -5 23.3 -5 23"/>
          <polygon class="cls-165" points="-5 22.8 29.3 48.6 29.3 48.9 -5 23 -5 22.8"/>
          <polygon class="cls-29" points="-5 22.6 29.3 48.4 29.3 48.6 -5 22.8 -5 22.6"/>
          <polygon class="cls-29" points="-5 22.4 29.3 48.2 29.3 48.4 -5 22.6 -5 22.4"/>
          <polygon class="cls-61" points="-5 22.2 29.3 48 29.3 48.2 -5 22.4 -5 22.2"/>
          <polygon class="cls-61" points="-5 21.9 29.3 47.8 29.3 48 -5 22.2 -5 21.9"/>
          <polygon class="cls-61" points="-5 21.7 29.3 47.5 29.3 47.8 -5 21.9 -5 21.7"/>
          <polygon class="cls-61" points="-5 21.5 29.3 47.3 29.3 47.5 -5 21.7 -5 21.5"/>
          <polygon class="cls-61" points="-5 21.3 29.3 47.1 29.3 47.3 -5 21.5 -5 21.3"/>
          <polygon class="cls-61" points="-5 21 29.3 46.9 29.3 47.1 -5 21.3 -5 21"/>
          <polygon class="cls-82" points="-5 20.8 29.3 46.6 29.3 46.9 -5 21 -5 20.8"/>
          <polygon class="cls-82" points="-5 20.6 29.3 46.4 29.3 46.6 -5 20.8 -5 20.6"/>
          <polygon class="cls-82" points="-5 20.4 29.3 46.2 29.3 46.4 -5 20.6 -5 20.4"/>
          <polygon class="cls-82" points="-5 20.2 29.3 46 29.3 46.2 -5 20.4 -5 20.2 -5 20.2"/>
          <polygon class="cls-98" points="-4.7 20.2 29.3 45.8 29.3 46 -5 20.2 -4.7 20.2"/>
          <polygon class="cls-98" points="-4.4 20.2 29.3 45.5 29.3 45.8 -4.7 20.2 -4.4 20.2"/>
          <polygon class="cls-98" points="-4.1 20.2 29.3 45.3 29.3 45.5 -4.4 20.2 -4.1 20.2"/>
          <polygon class="cls-98" points="-3.8 20.2 29.3 45.1 29.3 45.3 -4.1 20.2 -3.8 20.2"/>
          <polygon class="cls-98" points="-3.5 20.2 29.3 44.9 29.3 45.1 -3.8 20.2 -3.5 20.2"/>
          <polygon class="cls-98" points="-3.2 20.2 29.3 44.6 29.3 44.9 -3.5 20.2 -3.2 20.2"/>
          <polygon class="cls-98" points="-2.9 20.2 29.3 44.4 29.3 44.6 -3.2 20.2 -2.9 20.2"/>
          <polygon class="cls-98" points="-2.6 20.2 29.3 44.2 29.3 44.4 -2.9 20.2 -2.6 20.2"/>
          <polygon class="cls-98" points="-2.3 20.2 29.3 44 29.3 44.2 -2.6 20.2 -2.3 20.2"/>
          <polygon class="cls-98" points="-2 20.2 29.3 43.8 29.3 44 -2.3 20.2 -2 20.2"/>
          <polygon class="cls-98" points="29.3 43.8 -2 20.2 29.3 20.2 29.3 43.8"/>
        </g>
      </g>
      <g class="cls-196">
        <g class="cls-200">
          <polygon class="cls-158" points="20.3 53.7 55.4 80.2 20.3 80.2 20.3 53.7"/>
          <polygon class="cls-158" points="20.3 49.6 58.6 78.4 58.6 80.2 55.4 80.2 20.3 53.7 20.3 49.6"/>
          <polygon class="cls-158" points="20.3 49.3 58.6 78.2 58.6 78.4 20.3 49.6 20.3 49.3"/>
          <polygon class="cls-21" points="20.3 49.1 58.6 77.9 58.6 78.2 20.3 49.3 20.3 49.1"/>
          <polygon class="cls-103" points="20.3 48.8 58.6 77.7 58.6 77.9 20.3 49.1 20.3 48.8"/>
          <polygon class="cls-126" points="20.3 48.6 58.6 77.4 58.6 77.7 20.3 48.8 20.3 48.6"/>
          <polygon class="cls-143" points="20.3 48.3 58.6 77.1 58.6 77.4 20.3 48.6 20.3 48.3"/>
          <polygon class="cls-173" points="20.3 48.1 58.6 76.9 58.6 77.1 20.3 48.3 20.3 48.1"/>
          <polygon class="cls-172" points="20.3 47.8 58.6 76.6 58.6 76.9 20.3 48.1 20.3 47.8"/>
          <polygon class="cls-26" points="20.3 47.5 58.6 76.4 58.6 76.6 20.3 47.8 20.3 47.5"/>
          <polygon class="cls-10" points="20.3 47.3 58.6 76.1 58.6 76.4 20.3 47.5 20.3 47.3"/>
          <polygon class="cls-169" points="20.3 47 58.6 75.9 58.6 76.1 20.3 47.3 20.3 47"/>
          <polygon class="cls-11" points="20.3 46.8 58.6 75.6 58.6 75.9 20.3 47 20.3 46.8"/>
          <polygon class="cls-166" points="20.3 46.5 58.6 75.4 58.6 75.6 20.3 46.8 20.3 46.5"/>
          <polygon class="cls-149" points="20.3 46.3 58.6 75.1 58.6 75.4 20.3 46.5 20.3 46.3"/>
          <polygon class="cls-178" points="20.3 46 58.6 74.8 58.6 75.1 20.3 46.3 20.3 46"/>
          <polygon class="cls-110" points="20.3 45.8 58.6 74.6 58.6 74.8 20.3 46 20.3 45.8"/>
          <polygon class="cls-102" points="20.3 45.5 58.6 74.3 58.6 74.6 20.3 45.8 20.3 45.5"/>
          <polygon class="cls-155" points="20.3 45.2 58.6 74.1 58.6 74.3 20.3 45.5 20.3 45.2"/>
          <polygon class="cls-139" points="20.3 45 58.6 73.8 58.6 74.1 20.3 45.2 20.3 45"/>
          <polygon class="cls-150" points="20.3 44.7 58.6 73.6 58.6 73.8 20.3 45 20.3 44.7"/>
          <polygon class="cls-91" points="20.3 44.5 58.6 73.3 58.6 73.6 20.3 44.7 20.3 44.5"/>
          <polygon class="cls-62" points="20.3 44.2 58.6 73.1 58.6 73.3 20.3 44.5 20.3 44.2"/>
          <polygon class="cls-177" points="20.3 44 58.6 72.8 58.6 73.1 20.3 44.2 20.3 44"/>
          <polygon class="cls-48" points="20.3 43.7 58.6 72.5 58.6 72.8 20.3 44 20.3 43.7"/>
          <polygon class="cls-69" points="20.3 43.4 58.6 72.3 58.6 72.5 20.3 43.7 20.3 43.4"/>
          <polygon class="cls-106" points="20.3 43.2 58.6 72 58.6 72.3 20.3 43.4 20.3 43.2"/>
          <polygon class="cls-148" points="20.3 42.9 58.6 71.8 58.6 72 20.3 43.2 20.3 42.9"/>
          <polygon class="cls-140" points="20.3 42.7 58.6 71.5 58.6 71.8 20.3 42.9 20.3 42.7"/>
          <polygon class="cls-5" points="20.3 42.4 58.6 71.3 58.6 71.5 20.3 42.7 20.3 42.4"/>
          <polygon class="cls-112" points="20.3 42.2 58.6 71 58.6 71.3 20.3 42.4 20.3 42.2"/>
          <polygon class="cls-130" points="20.3 41.9 58.6 70.8 58.6 71 20.3 42.2 20.3 41.9 20.3 41.9"/>
          <polygon class="cls-22" points="20.7 41.9 58.6 70.5 58.6 70.8 20.3 41.9 20.7 41.9"/>
          <polygon class="cls-86" points="21 41.9 58.6 70.2 58.6 70.5 20.7 41.9 21 41.9"/>
          <polygon class="cls-131" points="21.3 41.9 58.6 70 58.6 70.2 21 41.9 21.3 41.9"/>
          <polygon class="cls-80" points="21.7 41.9 58.6 69.7 58.6 70 21.3 41.9 21.7 41.9"/>
          <polygon class="cls-46" points="22 41.9 58.6 69.5 58.6 69.7 21.7 41.9 22 41.9"/>
          <polygon class="cls-87" points="22.4 41.9 58.6 69.2 58.6 69.5 22 41.9 22.4 41.9"/>
          <polygon class="cls-94" points="22.7 41.9 58.6 69 58.6 69.2 22.4 41.9 22.7 41.9"/>
          <polygon class="cls-104" points="23 41.9 58.6 68.7 58.6 69 22.7 41.9 23 41.9"/>
          <polygon class="cls-124" points="23.4 41.9 58.6 68.5 58.6 68.7 23 41.9 23.4 41.9"/>
          <polygon class="cls-34" points="23.7 41.9 58.6 68.2 58.6 68.5 23.4 41.9 23.7 41.9"/>
          <polygon class="cls-2" points="24.1 41.9 58.6 67.9 58.6 68.2 23.7 41.9 24.1 41.9"/>
          <polygon class="cls-47" points="24.4 41.9 58.6 67.7 58.6 67.9 24.1 41.9 24.4 41.9"/>
          <polygon class="cls-162" points="24.7 41.9 58.6 67.4 58.6 67.7 24.4 41.9 24.7 41.9"/>
          <polygon class="cls-136" points="25.1 41.9 58.6 67.2 58.6 67.4 24.7 41.9 25.1 41.9"/>
          <polygon class="cls-8" points="25.4 41.9 58.6 66.9 58.6 67.2 25.1 41.9 25.4 41.9"/>
          <polygon class="cls-67" points="25.8 41.9 58.6 66.7 58.6 66.9 25.4 41.9 25.8 41.9"/>
          <polygon class="cls-42" points="26.1 41.9 58.6 66.4 58.6 66.7 25.8 41.9 26.1 41.9"/>
          <polygon class="cls-134" points="26.4 41.9 58.6 66.1 58.6 66.4 26.1 41.9 26.4 41.9"/>
          <polygon class="cls-111" points="26.8 41.9 58.6 65.9 58.6 66.1 26.4 41.9 26.8 41.9"/>
          <polygon class="cls-137" points="27.1 41.9 58.6 65.6 58.6 65.9 26.8 41.9 27.1 41.9"/>
          <polygon class="cls-17" points="27.5 41.9 58.6 65.4 58.6 65.6 27.1 41.9 27.5 41.9"/>
          <polygon class="cls-113" points="27.8 41.9 58.6 65.1 58.6 65.4 27.5 41.9 27.8 41.9"/>
          <polygon class="cls-176" points="28.1 41.9 58.6 64.9 58.6 65.1 27.8 41.9 28.1 41.9"/>
          <polygon class="cls-66" points="28.5 41.9 58.6 64.6 58.6 64.9 28.1 41.9 28.5 41.9"/>
          <polygon class="cls-6" points="28.8 41.9 58.6 64.4 58.6 64.6 28.5 41.9 28.8 41.9"/>
          <polygon class="cls-89" points="29.2 41.9 58.6 64.1 58.6 64.4 28.8 41.9 29.2 41.9"/>
          <polygon class="cls-25" points="29.5 41.9 58.6 63.8 58.6 64.1 29.2 41.9 29.5 41.9"/>
          <polygon class="cls-56" points="29.8 41.9 58.6 63.6 58.6 63.8 29.5 41.9 29.8 41.9"/>
          <polygon class="cls-31" points="30.2 41.9 58.6 63.3 58.6 63.6 29.8 41.9 30.2 41.9"/>
          <polygon class="cls-3" points="30.5 41.9 58.6 63.1 58.6 63.3 30.2 41.9 30.5 41.9"/>
          <polygon class="cls-93" points="30.9 41.9 58.6 62.8 58.6 63.1 30.5 41.9 30.9 41.9"/>
          <polygon class="cls-30" points="31.2 41.9 58.6 62.6 58.6 62.8 30.9 41.9 31.2 41.9"/>
          <polygon class="cls-120" points="31.5 41.9 58.6 62.3 58.6 62.6 31.2 41.9 31.5 41.9"/>
          <polygon class="cls-120" points="36.6 41.9 58.6 58.5 58.6 62.3 31.5 41.9 36.6 41.9"/>
          <polygon class="cls-120" points="58.6 58.5 36.6 41.9 58.6 41.9 58.6 58.5"/>
        </g>
      </g>
    </g>
  </g>
  <g>
    <path class="cls-167" d="M93.2,84.4l-3.9,6.2v4.1h-2.1v-4l-3.9-6.3h2.4l1.5,2.5c.4.6.9,1.6,1.1,2,.2-.4.7-1.4,1.1-2l1.5-2.5h2.3Z"/>
    <path class="cls-167" d="M103.7,94.7h-7.4v-10.3h7.2v2h-5.1v1.8h3v2h-3v2.5h5.3v2Z"/>
    <path class="cls-167" d="M116.6,94.7h-2.3l-.8-2.3h-3.8l-.8,2.3h-2.2l4-10.3h2l3.9,10.3ZM112.8,90.5l-.7-1.9c-.2-.6-.4-1.2-.5-1.6-.1.4-.3,1-.5,1.6l-.7,1.9h2.4Z"/>
    <path class="cls-167" d="M128.3,94.7h-2.4l-1.8-3.7h-2.1v3.7h-2.1v-10.3h4.8c1.9,0,3.6,1.1,3.6,3.3s-.7,2.5-2,3l2,4ZM126.2,87.7c0-.9-.6-1.3-1.5-1.3h-2.7v2.7h2.7c1,0,1.5-.4,1.5-1.3Z"/>
    <path class="cls-167" d="M139.5,91.6c0,2-1.2,3.3-4.1,3.3s-3.2-.7-4-1.9l1.5-1.3c.7.8,1.7,1.2,2.6,1.2s1.8-.3,1.8-1.1-.4-1-2.3-1.4c-1.9-.4-3.2-1-3.2-3.1s1.7-3,3.7-3,2.8.6,3.8,1.6l-1.5,1.4c-.7-.7-1.4-1.1-2.3-1.1s-1.5.5-1.5.9c0,.6.4.9,2.1,1.2,1.6.4,3.5.9,3.5,3.2Z"/>
    <path class="cls-167" d="M158.1,94.7h-2.3l-.8-2.3h-3.8l-.8,2.3h-2.2l4-10.3h2l3.9,10.3ZM154.3,90.5l-.7-1.9c-.2-.6-.4-1.2-.5-1.6-.1.4-.3,1-.5,1.6l-.7,1.9h2.4Z"/>
    <path class="cls-167" d="M169.9,94.7h-1.8l-3.8-5.6c-.3-.4-.6-.9-.7-1.2,0,.4,0,1.7,0,2.3v4.5h-2v-10.3h2l3.7,5.5c.3.4.6.9.7,1.2,0-.4,0-1.7,0-2.3v-4.4h2v10.3Z"/>
    <path class="cls-167" d="M182.4,89.6c0,3.6-2.6,5.2-5.3,5.2h-3.1v-10.3h3.2c3,0,5.1,1.4,5.1,5.2ZM180.2,89.6c0-2.1-.9-3.2-3.1-3.2h-1.1v6.3h1c2.2,0,3.2-1.3,3.2-3.2Z"/>
    <path class="cls-167" d="M199.8,90.7c0,2.7-1.8,4.2-4.1,4.2s-4.5-2.1-4.5-5.3,1.9-5.3,4.6-5.3,3.2,1,3.9,2.6l-2,.8c-.4-.8-.9-1.3-2-1.3s-2.4,1.4-2.4,3.3.9,3.3,2.4,3.3,1.9-.7,2-1.6h-1.6v-1.9h3.7v1.4Z"/>
    <path class="cls-167" d="M212,89.5c0,3.3-1.9,5.3-4.6,5.3s-4.5-2-4.5-5.3,1.9-5.3,4.6-5.3,4.5,2,4.5,5.3ZM209.8,89.6c0-2.1-1-3.3-2.4-3.3s-2.4,1.2-2.4,3.3,1,3.3,2.4,3.3,2.4-1.2,2.4-3.3Z"/>
    <path class="cls-167" d="M217.7,94.7h-2.1v-10.3h2.1v10.3Z"/>
    <path class="cls-167" d="M230.4,94.7h-1.8l-3.8-5.6c-.3-.4-.6-.9-.7-1.2,0,.4,0,1.7,0,2.3v4.5h-2v-10.3h2l3.7,5.5c.3.4.6.9.7,1.2,0-.4,0-1.7,0-2.3v-4.4h2v10.3Z"/>
    <path class="cls-167" d="M242.6,90.7c0,2.7-1.8,4.2-4.1,4.2s-4.5-2.1-4.5-5.3,1.9-5.3,4.6-5.3,3.2,1,3.9,2.6l-2,.8c-.4-.8-.9-1.3-2-1.3s-2.4,1.4-2.4,3.3.9,3.3,2.4,3.3,1.9-.7,2-1.6h-1.6v-1.9h3.7v1.4Z"/>
    <path class="cls-167" d="M259.6,91.6c0,2-1.2,3.3-4.1,3.3s-3.2-.7-4-1.9l1.5-1.3c.7.8,1.7,1.2,2.6,1.2s1.8-.3,1.8-1.1-.4-1-2.3-1.4c-1.9-.4-3.2-1-3.2-3.1s1.7-3,3.7-3,2.8.6,3.8,1.6l-1.5,1.4c-.7-.7-1.4-1.1-2.3-1.1s-1.5.5-1.5.9c0,.6.4.9,2.1,1.2,1.6.4,3.5.9,3.5,3.2Z"/>
    <path class="cls-167" d="M270.2,86.4h-3v8.3h-2.1v-8.3h-3v-2h8v2Z"/>
    <path class="cls-167" d="M282.1,94.7h-2.4l-1.8-3.7h-2.1v3.7h-2.1v-10.3h4.8c1.9,0,3.6,1.1,3.6,3.3s-.7,2.5-2,3l2,4ZM279.9,87.7c0-.9-.6-1.3-1.5-1.3h-2.7v2.7h2.7c1,0,1.5-.4,1.5-1.3Z"/>
    <path class="cls-167" d="M294.2,89.5c0,3.3-1.9,5.3-4.6,5.3s-4.5-2-4.5-5.3,1.9-5.3,4.6-5.3,4.5,2,4.5,5.3ZM292.1,89.6c0-2.1-1-3.3-2.4-3.3s-2.4,1.2-2.4,3.3,1,3.3,2.4,3.3,2.4-1.2,2.4-3.3Z"/>
    <path class="cls-167" d="M306.2,94.7h-1.8l-3.8-5.6c-.3-.4-.6-.9-.7-1.2,0,.4,0,1.7,0,2.3v4.5h-2v-10.3h2l3.7,5.5c.3.4.6.9.7,1.2,0-.4,0-1.7,0-2.3v-4.4h2v10.3Z"/>
    <path class="cls-167" d="M318.4,90.7c0,2.7-1.8,4.2-4.1,4.2s-4.5-2.1-4.5-5.3,1.9-5.3,4.6-5.3,3.2,1,3.9,2.6l-2,.8c-.4-.8-.9-1.3-2-1.3s-2.4,1.4-2.4,3.3.9,3.3,2.4,3.3,1.9-.7,2-1.6h-1.6v-1.9h3.7v1.4Z"/>
  </g>
  <g>
    <g>
      <g>
        <path class="cls-185" d="M61.5,80c-5.2,1.9-6.6,10.8-.8,11,.2,0,1.1,0,2.1-.3-.9,1.8-3.8,6-6.1,5.6,7.3,3.2,11.2-7.1,11.2-11.6,0-3.2-3.2-5.8-6.3-4.6ZM60.7,88.2c-1.1-.6-1.3-2.3-.5-3.9.8-1.6,2.4-2.4,3.5-1.9,1.1.6,1.3,2.3.5,3.9-.8,1.6-2.4,2.4-3.5,1.9Z"/>
        <path class="cls-185" d="M65.5,81.8s-2.7-2.1-5.3.4c-2.6,2.5-3.4,9.7,2.6,8.4,6-1.4,4.6-4.6,4.6-4.6l-1.9-4.2ZM60.7,88.2c-1.1-.6-1.3-2.3-.5-3.9.8-1.6,2.4-2.4,3.5-1.9,1.1.6,1.3,2.3.5,3.9-.8,1.6-2.4,2.4-3.5,1.9Z"/>
        <path class="cls-185" d="M61.5,80c-.9.3-1.7.9-2.4,1.5,0,0,1.1-.9,2.7-.9,1.7,0,1.6,1.4.5,1.7h0c.5-.1.9-.1,1.4,0,1.1.6,1.3,2.3.5,3.9-.2.3-.4.7-.6.9.7.8,2.1,1.8,3.6,0,.2-.2.3-.4.5-.5.1-.8.2-1.6.2-2.2,0-3.2-3.2-5.8-6.3-4.6Z"/>
        <path class="cls-185" d="M63,81c.3.4,0,1.1-.7,1.3h0c.5-.1.9-.1,1.4,0,1.1.6,1.3,2.3.5,3.9-.2.3-.4.7-.6.9.7.8,2.1,1.8,3.6,0,.1-.1.3-.3.4-.4,0-.5-.1-.8-.1-.8l-1.9-4.2s-1.1-.8-2.5-.8Z"/>
        <path class="cls-185" d="M64.2,86.3c-.8,1.6-2.4,2.4-3.5,1.9-.8-.4-1.1-1.4-.9-2.5-1.1,5.5,3.1,4.9,3.1,4.9-.9,1.8-3.8,6-6.1,5.6,7.3,3.2,11.2-7.1,11.2-11.6,0-3.2-3.2-5.8-6.3-4.6-.7.2-1.3.6-1.8,1.1,0,0,.2,0,.3-.1,0,0-.2,0-.3.1.6-.4,1.3-.7,1.9-.8,0,0,0,0,0,0,3.7-.8,3.1,4.3,3.1,4.3,0,.6-.2,1.2-.5,1.7ZM60,80.9c0,0,.2,0,.3-.1,0,0-.2,0-.3.1ZM60.2,80.7c0,0,.2,0,.2-.1,0,0-.2,0-.2.1ZM60.5,80.6c0,0,.2,0,.2,0,0,0-.2,0-.2,0ZM60.7,80.5c0,0,.2,0,.2,0,0,0-.1,0-.2,0ZM60.9,80.4c0,0,.1,0,.2,0,0,0-.1,0-.2,0ZM61.1,80.4c0,0,.1,0,.2,0,0,0-.1,0-.2,0ZM61.4,80.3c0,0,.1,0,.2,0,0,0-.1,0-.2,0Z"/>
        <path class="cls-185" d="M60.1,89.6c.9,1.3,2.7,1.1,2.7,1.1-.9,1.7-3.7,5.8-5.9,5.6,5.9.8,8.6-7.6,8.6-7.6,0,0-2.5.2-5.4,1Z"/>
        <path class="cls-185" d="M64.2,86.3c-.6,1.2-1.7,2-2.7,2.1-.2.8-.3,1.5-.4,2,.8.4,1.7.3,1.7.3-.2.4-.5.9-.9,1.5h0c1.2-1.5,4.9-3.1,3.2,1.1,1.8-2.7,2.8-6.4,2.7-8.6,0-1.5-.7-2.8-1.8-3.8-.5.7-1,1.5-1.4,2.1.1.9,0,1.7,0,1.7,0,.6-.2,1.2-.5,1.7Z"/>
        <path class="cls-185" d="M61.3,89.3c0,.4-.1.8-.2,1.1.8.4,1.7.3,1.7.3-.2.4-.5.9-.9,1.5h0c.6-.8,1.9-1.6,2.8-1.6.5-1.1.8-1.9.8-1.9,0,0-1.8.2-4.2.7Z"/>
        <path class="cls-185" d="M64.2,86.3c-.8,1.6-2.4,2.4-3.5,1.9-.8-.4-1.1-1.4-.9-2.5-1.1,5.5,3.1,4.9,3.1,4.9,3.1-.9,5.7-4.5,4.6-8-1-2.2-3.4-3.6-5.9-2.6-.7.3-1.3.6-1.8,1.1,1.5-1.1,3.4-1,4.1-.3,1.2,1.2.9,3.8.9,3.8,0,.6-.2,1.2-.5,1.7Z"/>
        <path class="cls-185" d="M64.2,86.3c-.8,1.6-2.4,2.4-3.5,1.9-.8-.4-1.1-1.4-.9-2.5-.3,1.6-.2,2.7.2,3.5,2.4.9,5.6-1.2,6.3-3.8.9-3.8-2.1-7.1-6.1-4.6,1.4-.9,3.1-.7,3.8,0,1.2,1.2.9,3.8.9,3.8,0,.6-.2,1.2-.5,1.7Z"/>
        <path class="cls-185" d="M62.3,88.2c-.6.3-1.2.3-1.7,0-.8-.4-1.1-1.4-.9-2.5-1.1,5.5,3.1,4.9,3.1,4.9,1.4-.4,2.7-1.3,3.6-2.5,0,0-1.3,1.5-3.1,1.8-1.8.3-2-1.3-1-1.7h0Z"/>
        <path class="cls-185" d="M62.3,88.2c-.6.3-1.2.3-1.7,0-.8-.4-1.1-1.4-.9-2.5-.3,1.6-.2,2.7.2,3.5.6.2,1.3.3,1.9.2-.2-.4,0-1,.6-1.2h0Z"/>
      </g>
      <g>
        <path class="cls-185" d="M77.6,91.4c-3,7.3-10.9,7.4-10.2.1.5-4.5,2.8-12.7,9.1-11.8,4.3.6,2.2,9,1.1,11.6ZM75.9,82.1c-3.8.8-6,9.9-5.2,12.5,4.3-1.5,6-11.3,5.2-12.5Z"/>
        <path class="cls-185" d="M77.6,91.4c-1.4,3.5-3.9,5.3-6.1,5.5-.9-.4-1.4-.7-1.4-.7,0,0-2.5-2.6,0-9.7,2.5-7.1,9.8-7.8,8.9,0-.3,1.9-.9,3.7-1.3,4.8ZM75.9,82.1c-3.8.8-6,9.9-5.2,12.5,4.3-1.5,6-11.3,5.2-12.5Z"/>
        <path class="cls-185" d="M75.9,82.1c.8,1.2-.9,11-5.2,12.5,0,0-3.8,1.4-3.2-4.2,0,.4-.1.8-.2,1.2-.8,7.3,7.2,7.2,10.2-.1.4-1,1-2.8,1.3-4.8.7-5-3-4.5-3-4.5Z"/>
        <path class="cls-185" d="M75.9,82.1c.8,1.2-.9,11-5.2,12.5,0,0-3.8,1.4-3.2-4.2,0,0,0,.1,0,.2,0,0,0,.1,0,.2-.9,6.8,6.5,6.2,8.6.4,2.2-5.9,1.2-8.8,1.2-8.8-.7-.3-1.5-.2-1.5-.2Z"/>
        <path class="cls-185" d="M75.9,82.1c.2.4.3,1.6,0,3.1.2-.7,1-1.6,2-.9,1.1.7.7,3.4.7,3.4,0-.3.1-.7.2-1,.7-5-3-4.5-3-4.5ZM75.9,85.4h0Z"/>
        <path class="cls-185" d="M75.9,82.1c.2.4.3,1.6,0,3.1.2-.6.8-1.4,1.6-1.1,0-1.1-.2-1.7-.2-1.7-.7-.3-1.5-.2-1.5-.2ZM75.9,85.4h0Z"/>
      </g>
    </g>
    <g>
      <g>
        <path class="cls-146" d="M61.5,80c-5.2,1.9-6.6,10.8-.8,11,.2,0,1.1,0,2.1-.3-.9,1.8-3.8,6-6.1,5.6,7.3,3.2,11.2-7.1,11.2-11.6,0-3.2-3.2-5.8-6.3-4.6ZM60.7,88.2c-1.1-.6-1.3-2.3-.5-3.9.8-1.6,2.4-2.4,3.5-1.9,1.1.6,1.3,2.3.5,3.9-.8,1.6-2.4,2.4-3.5,1.9Z"/>
        <path class="cls-74" d="M65.5,81.8s-2.7-2.1-5.3.4c-2.6,2.5-3.4,9.7,2.6,8.4,6-1.4,4.6-4.6,4.6-4.6l-1.9-4.2ZM60.7,88.2c-1.1-.6-1.3-2.3-.5-3.9.8-1.6,2.4-2.4,3.5-1.9,1.1.6,1.3,2.3.5,3.9-.8,1.6-2.4,2.4-3.5,1.9Z"/>
        <path class="cls-72" d="M61.5,80c-.9.3-1.7.9-2.4,1.5,0,0,1.1-.9,2.7-.9,1.7,0,1.6,1.4.5,1.7h0c.5-.1.9-.1,1.4,0,1.1.6,1.3,2.3.5,3.9-.2.3-.4.7-.6.9.7.8,2.1,1.8,3.6,0,.2-.2.3-.4.5-.5.1-.8.2-1.6.2-2.2,0-3.2-3.2-5.8-6.3-4.6Z"/>
        <path class="cls-35" d="M63,81c.3.4,0,1.1-.7,1.3h0c.5-.1.9-.1,1.4,0,1.1.6,1.3,2.3.5,3.9-.2.3-.4.7-.6.9.7.8,2.1,1.8,3.6,0,.1-.1.3-.3.4-.4,0-.5-.1-.8-.1-.8l-1.9-4.2s-1.1-.8-2.5-.8Z"/>
        <path class="cls-71" d="M64.2,86.3c-.8,1.6-2.4,2.4-3.5,1.9-.8-.4-1.1-1.4-.9-2.5-1.1,5.5,3.1,4.9,3.1,4.9-.9,1.8-3.8,6-6.1,5.6,7.3,3.2,11.2-7.1,11.2-11.6,0-3.2-3.2-5.8-6.3-4.6-.7.2-1.3.6-1.8,1.1,0,0,.2,0,.3-.1,0,0-.2,0-.3.1.6-.4,1.3-.7,1.9-.8,0,0,0,0,0,0,3.7-.8,3.1,4.3,3.1,4.3,0,.6-.2,1.2-.5,1.7ZM60,80.9c0,0,.2,0,.3-.1,0,0-.2,0-.3.1ZM60.2,80.7c0,0,.2,0,.2-.1,0,0-.2,0-.2.1ZM60.5,80.6c0,0,.2,0,.2,0,0,0-.2,0-.2,0ZM60.7,80.5c0,0,.2,0,.2,0,0,0-.1,0-.2,0ZM60.9,80.4c0,0,.1,0,.2,0,0,0-.1,0-.2,0ZM61.1,80.4c0,0,.1,0,.2,0,0,0-.1,0-.2,0ZM61.4,80.3c0,0,.1,0,.2,0,0,0-.1,0-.2,0Z"/>
        <path class="cls-44" d="M60.1,89.6c.9,1.3,2.7,1.1,2.7,1.1-.9,1.7-3.7,5.8-5.9,5.6,5.9.8,8.6-7.6,8.6-7.6,0,0-2.5.2-5.4,1Z"/>
        <path class="cls-73" d="M64.2,86.3c-.6,1.2-1.7,2-2.7,2.1-.2.8-.3,1.5-.4,2,.8.4,1.7.3,1.7.3-.2.4-.5.9-.9,1.5h0c1.2-1.5,4.9-3.1,3.2,1.1,1.8-2.7,2.8-6.4,2.7-8.6,0-1.5-.7-2.8-1.8-3.8-.5.7-1,1.5-1.4,2.1.1.9,0,1.7,0,1.7,0,.6-.2,1.2-.5,1.7Z"/>
        <path class="cls-154" d="M61.3,89.3c0,.4-.1.8-.2,1.1.8.4,1.7.3,1.7.3-.2.4-.5.9-.9,1.5h0c.6-.8,1.9-1.6,2.8-1.6.5-1.1.8-1.9.8-1.9,0,0-1.8.2-4.2.7Z"/>
        <path class="cls-33" d="M64.2,86.3c-.8,1.6-2.4,2.4-3.5,1.9-.8-.4-1.1-1.4-.9-2.5-1.1,5.5,3.1,4.9,3.1,4.9,3.1-.9,5.7-4.5,4.6-8-1-2.2-3.4-3.6-5.9-2.6-.7.3-1.3.6-1.8,1.1,1.5-1.1,3.4-1,4.1-.3,1.2,1.2.9,3.8.9,3.8,0,.6-.2,1.2-.5,1.7Z"/>
        <path class="cls-147" d="M64.2,86.3c-.8,1.6-2.4,2.4-3.5,1.9-.8-.4-1.1-1.4-.9-2.5-.3,1.6-.2,2.7.2,3.5,2.4.9,5.6-1.2,6.3-3.8.9-3.8-2.1-7.1-6.1-4.6,1.4-.9,3.1-.7,3.8,0,1.2,1.2.9,3.8.9,3.8,0,.6-.2,1.2-.5,1.7Z"/>
        <path class="cls-77" d="M62.3,88.2c-.6.3-1.2.3-1.7,0-.8-.4-1.1-1.4-.9-2.5-1.1,5.5,3.1,4.9,3.1,4.9,1.4-.4,2.7-1.3,3.6-2.5,0,0-1.3,1.5-3.1,1.8-1.8.3-2-1.3-1-1.7h0Z"/>
        <path class="cls-76" d="M62.3,88.2c-.6.3-1.2.3-1.7,0-.8-.4-1.1-1.4-.9-2.5-.3,1.6-.2,2.7.2,3.5.6.2,1.3.3,1.9.2-.2-.4,0-1,.6-1.2h0Z"/>
      </g>
      <g>
        <path class="cls-78" d="M77.6,91.4c-3,7.3-10.9,7.4-10.2.1.5-4.5,2.8-12.7,9.1-11.8,4.3.6,2.2,9,1.1,11.6ZM75.9,82.1c-3.8.8-6,9.9-5.2,12.5,4.3-1.5,6-11.3,5.2-12.5Z"/>
        <path class="cls-141" d="M77.6,91.4c-1.4,3.5-3.9,5.3-6.1,5.5-.9-.4-1.4-.7-1.4-.7,0,0-2.5-2.6,0-9.7,2.5-7.1,9.8-7.8,8.9,0-.3,1.9-.9,3.7-1.3,4.8ZM75.9,82.1c-3.8.8-6,9.9-5.2,12.5,4.3-1.5,6-11.3,5.2-12.5Z"/>
        <path class="cls-75" d="M75.9,82.1c.8,1.2-.9,11-5.2,12.5,0,0-3.8,1.4-3.2-4.2,0,.4-.1.8-.2,1.2-.8,7.3,7.2,7.2,10.2-.1.4-1,1-2.8,1.3-4.8.7-5-3-4.5-3-4.5Z"/>
        <path class="cls-154" d="M75.9,82.1c.8,1.2-.9,11-5.2,12.5,0,0-3.8,1.4-3.2-4.2,0,0,0,.1,0,.2,0,0,0,.1,0,.2-.9,6.8,6.5,6.2,8.6.4,2.2-5.9,1.2-8.8,1.2-8.8-.7-.3-1.5-.2-1.5-.2Z"/>
        <path class="cls-44" d="M75.9,82.1c.2.4.3,1.6,0,3.1.2-.7,1-1.6,2-.9,1.1.7.7,3.4.7,3.4,0-.3.1-.7.2-1,.7-5-3-4.5-3-4.5ZM75.9,85.4h0Z"/>
        <path class="cls-154" d="M75.9,82.1c.2.4.3,1.6,0,3.1.2-.6.8-1.4,1.6-1.1,0-1.1-.2-1.7-.2-1.7-.7-.3-1.5-.2-1.5-.2ZM75.9,85.4h0Z"/>
      </g>
    </g>
  </g>
</svg>