<?xml version="1.0" encoding="UTF-8" standalone="no"?>
<!-- Created with Inkscape (http://www.inkscape.org/) -->

<svg
   width="206.94499mm"
   height="73.373177mm"
   viewBox="0 0 206.94499 73.373177"
   version="1.1"
   id="svg6378"
   inkscape:version="1.2.2 (b0a8486541, 2022-12-01)"
   sodipodi:docname="kofc-horiz.svg"
   xmlns:inkscape="http://www.inkscape.org/namespaces/inkscape"
   xmlns:sodipodi="http://sodipodi.sourceforge.net/DTD/sodipodi-0.dtd"
   xmlns="http://www.w3.org/2000/svg"
   xmlns:svg="http://www.w3.org/2000/svg">
  <sodipodi:namedview
     id="namedview6380"
     pagecolor="#ffffff"
     bordercolor="#000000"
     borderopacity="0.25"
     inkscape:showpageshadow="2"
     inkscape:pageopacity="0.0"
     inkscape:pagecheckerboard="0"
     inkscape:deskcolor="#d1d1d1"
     inkscape:document-units="mm"
     showgrid="false"
     inkscape:zoom="0.85122415"
     inkscape:cx="581.51545"
     inkscape:cy="136.27433"
     inkscape:window-width="1762"
     inkscape:window-height="1089"
     inkscape:window-x="0"
     inkscape:window-y="0"
     inkscape:window-maximized="1"
     inkscape:current-layer="layer1" />
  <defs
     id="defs6375" />
  <g
     inkscape:label="Layer 1"
     inkscape:groupmode="layer"
     id="layer1"
     transform="translate(-2.2930509,-112.05554)">
    <path
       d="m 108.43961,146.36086 -1.75281,-1.90526 v -7.8233 c 0.83868,-0.22851 1.57446,-0.35546 2.23482,-0.35546 1.62643,0 2.64244,0.76187 2.64244,2.79411 v 5.38465 l -1.72733,1.90526 h 7.06116 l -1.90464,-1.90526 v -7.03588 c 0,-2.46369 -1.2188,-3.60702 -3.09901,-3.60702 -1.85469,0 -3.78481,0.9654 -5.20744,2.13407 v -2.31157 l -5.18067,2.18418 1.77737,1.01631 v 7.61991 l -1.02783,1.02756 -1.48246,-1.23094 -6.477004,-8.38188 2.895583,-2.92149 5.384381,-4.41902 h -7.213195 v 3.96247 l -4.596939,4.54641 v -6.42647 l 1.904348,-2.08241 h -7.670466 l 1.929819,2.08241 v 13.66542 l -1.929819,2.0832 h 7.670466 l -1.904348,-2.0832 v -7.01049 l 5.257386,6.85807 -1.9558,2.23562 z m 9.44067,0 h 7.21504 l -1.90568,-1.90526 v -10.8204 l -5.28287,2.10814 1.87916,1.24441 v 7.46785 z m 3.32828,-13.58913 c 1.26977,0 2.31126,-1.01589 2.31126,-2.31154 0,-1.29535 -1.04149,-2.31125 -2.31126,-2.31125 -1.27077,0 -2.31125,1.0159 -2.31125,2.31125 0,1.29565 1.04048,2.31154 2.31125,2.31154 z m 14.04282,16.12929 c 0,-1.09236 -0.7867,-1.90569 -2.23482,-2.15922 l -2.54056,-0.4319 c -1.2188,0.68543 -1.80272,1.62572 -1.80272,2.51427 0,1.27029 1.06697,2.23514 3.25083,2.23514 2.28578,0 3.32727,-1.09154 3.32727,-2.15829 z m -5.51113,-10.49055 c 0,2.2603 0.73575,3.45414 1.90464,3.45414 1.14237,0 1.90464,-1.26983 1.90464,-3.45414 0,-2.23514 -0.68483,-3.53088 -1.90464,-3.53088 -1.14341,0 -1.90464,1.2451 -1.90464,3.53088 z m 8.38184,9.49968 c -0.0762,2.26072 -2.28577,4.36888 -6.65451,4.36888 -3.35379,0 -5.94427,-0.96537 -5.94427,-3.12447 0,-1.19385 1.19336,-2.56565 3.88572,-3.04765 l -3.42815,-0.58484 3.20089,-3.25105 c -1.9566,-0.6094 -3.12546,-2.00635 -3.12546,-3.80959 0,-2.2861 1.85469,-4.3438 5.58858,-4.3438 h 7.3149 l -2.92066,2.08278 c 0.71132,0.66075 1.0415,1.27029 1.0415,2.26102 0,2.61615 -2.46413,4.16585 -5.43574,4.16585 -0.68584,0 -1.32072,-0.0767 -1.90464,-0.20394 v 1.21973 l 4.39425,0.76143 c 2.56499,0.43198 4.03854,1.72734 3.98759,3.5055 z m 0.95489,-1.54929 h 7.08661 l -1.77827,-1.90526 v -7.59444 c 0.81322,-0.33037 1.55001,-0.50789 2.41316,-0.50789 1.59996,0 2.23485,0.63448 2.23485,2.79367 v 5.30866 l -1.8792,1.90526 h 6.95925 l -1.65089,-1.90526 v -6.95912 c 0,-2.51539 -1.09244,-3.68378 -3.04803,-3.68378 -1.87919,0 -3.5046,0.81324 -5.02914,2.15912 v -7.74687 l -5.1565,2.20976 1.75281,1.09222 v 12.92867 z m 17.40574,-3.27692 c 0,2.591 1.26976,3.58182 3.04807,3.58182 1.75279,0 3.5056,-0.86386 4.08953,-2.31167 -0.76127,0.50802 -1.54898,0.68596 -2.21039,0.68596 -0.88861,0 -1.47254,-0.55895 -1.47254,-1.5493 v -7.87479 h 3.7084 v -1.49833 h -3.7084 v -3.80999 l -6.01966,5.30832 h 2.56499 z m 13.77887,2.33663 c -1.82821,0 -3.40265,-2.05681 -4.5206,-3.93698 l -1.04149,3.86097 c 1.59994,0.88934 3.37825,1.49875 5.0801,1.49875 2.71786,0 4.54708,-1.57479 4.54708,-3.88646 0,-1.87968 -1.1434,-2.92065 -4.16594,-4.4194 -1.75281,-0.86378 -2.53955,-1.3459 -2.53955,-2.18418 0,-0.76195 0.58394,-1.29576 1.54901,-1.29576 1.16783,0 2.20934,0.78734 3.91119,3.55598 l 0.68583,-3.68252 c -0.86317,-0.50803 -2.56502,-1.11743 -4.3178,-1.11743 -2.66693,0 -4.52164,1.42191 -4.52164,3.75865 0,1.80326 1.06697,2.99708 3.86128,4.31831 2.33673,1.09184 2.8442,1.7268 2.8442,2.41263 0,0.76239 -0.6094,1.11744 -1.37167,1.11744 z m 19.32978,-6.17212 c 0,-2.41276 -0.53298,-4.16505 -2.46414,-4.16505 -1.90565,0 -2.43759,1.75229 -2.43759,4.16505 v 1.9816 c 0,2.43822 0.53194,4.16505 2.43759,4.16505 1.93116,0 2.46414,-1.72683 2.46414,-4.13997 z m 3.91119,1.01622 c 0,3.70849 -2.79327,6.40109 -6.37533,6.40109 -3.55654,0 -6.34982,-2.6926 -6.34982,-6.40109 0,-3.73388 2.79328,-6.45197 6.34982,-6.45197 3.58206,0 6.37533,2.71809 6.37533,6.45197 z m 2.67304,4.19093 -1.85473,1.90526 h 7.18856 l -1.88022,-1.90526 v -8.83964 h 2.97161 v -1.49833 h -2.97161 l -1.5235,-2.92067 c -0.40662,-0.76225 -0.12616,-1.32122 0.43106,-1.32122 1.01601,0 0.88967,2.6926 2.76882,2.6926 0.88967,0 1.44811,-0.66036 1.44811,-1.54888 0,-1.70215 -1.49907,-2.79451 -3.32726,-2.79451 -2.54057,0 -3.96318,1.70176 -3.55659,4.08901 l 0.30575,1.80367 h -1.90569 v 1.49833 h 1.90569 z m -103.076098,9.05506 c 0.875393,0 1.590781,0.1054 2.306863,0.39683 l 2.439455,5.38325 2.59825,-5.03847 c -1.855852,-1.40523 -3.738365,-2.43896 -6.97392,-2.43896 -5.991847,0 -9.305767,4.85212 -9.305767,9.96939 0,5.35602 3.52609,9.27988 8.749661,9.27988 4.666219,0 7.530026,-3.02217 7.530026,-7.2386 -0.610326,0.98167 -2.147698,3.73879 -6.204425,3.73879 -4.030534,0 -6.549172,-3.10227 -6.549172,-7.66263 0,-4.1097 2.094704,-6.38948 5.409029,-6.38948 z m 17.986628,9.81021 c 0,-2.51905 -0.55744,-4.34859 -2.57214,-4.34859 -1.98922,0 -2.54564,1.82954 -2.54564,4.34859 v 2.06803 c 0,2.54521 0.55642,4.34817 2.54564,4.34817 2.0147,0 2.57214,-1.80296 2.57214,-4.32161 z m 4.08342,1.06004 c 0,3.87124 -2.91659,6.68167 -6.65556,6.68167 -3.71248,0 -6.62854,-2.81043 -6.62854,-6.68167 0,-3.89754 2.91606,-6.73505 6.62854,-6.73505 3.73897,0 6.65556,2.83751 6.65556,6.73505 z m 5.91162,-12.5676 -5.40922,2.30676 1.90871,1.08717 v 13.54856 l -1.9352,1.98871 h 7.37094 l -1.93523,-1.98871 z m 15.18215,5.6479 -5.17078,2.27976 1.64376,0.9283 v 6.8672 c -0.90084,0.71568 -1.80273,1.00746 -2.7311,1.00746 -1.29931,0 -1.90871,-0.55682 -1.90871,-1.90955 v -9.17317 l -5.17079,2.27976 1.6448,0.9283 v 6.44244 c 0,2.65153 1.51025,3.95087 3.84392,3.95087 1.72326,0 3.04906,-0.71571 4.32188,-2.38607 v 2.62492 l 5.38276,-2.43936 -1.85574,-1.21973 z m 23.3235,3.57909 c 0,-2.28017 -1.13932,-3.3936 -2.96958,-3.3936 -1.82924,0 -3.49948,0.71566 -5.03829,2.04129 -0.39743,-1.43189 -1.45728,-2.04129 -2.78307,-2.04129 -1.69779,0 -3.52701,0.90124 -4.90582,2.06798 v -2.25429 l -5.30225,2.28058 1.80275,1.00747 v 8.00736 l -1.93623,1.98871 h 7.23846 l -1.80273,-1.98871 v -8.21913 c 0.63691,-0.18573 1.3523,-0.29176 2.09522,-0.29176 1.59074,0 2.22667,0.71611 2.22667,2.30645 v 6.20444 l -1.74975,1.98871 h 7.07951 l -1.80278,-1.98871 v -7.66302 c 0,-0.21146 0,-0.39722 -0.026,-0.5824 0.58292,-0.15969 1.24529,-0.26547 2.0942,-0.26547 1.61728,0 2.25416,0.71611 2.25416,2.30645 v 6.20444 l -1.74974,1.98871 h 7.21198 l -1.93624,-1.98871 z m 12.16058,3.63236 c 0,-3.20802 -1.37776,-4.63953 -3.49949,-4.63953 -0.63589,0 -1.06085,0.106 -1.53777,0.26462 v 7.21188 c 0,1.67077 0.92836,2.30687 1.93522,2.30687 1.96273,0 3.10204,-1.96252 3.10204,-5.14398 z m 3.84497,-1.32518 c 0,4.61334 -2.83708,7.7151 -6.52308,7.7151 -1.56326,0 -2.65059,-0.39726 -3.87045,-1.40522 l -2.01469,1.59119 v -16.30639 l -1.53777,-0.82209 5.06376,-2.30676 v 7.66292 c 1.27282,-1.16675 2.65163,-1.72366 4.16291,-1.72366 2.73111,0 4.71932,2.17388 4.71932,5.59491 z m 14.18142,-5.88627 -5.16975,2.27976 1.64376,0.9283 v 6.8672 c -0.90088,0.71568 -1.80275,1.00746 -2.73012,1.00746 -1.29932,0 -1.90972,-0.55682 -1.90972,-1.90955 v -9.17317 l -5.17079,2.27976 1.64481,0.9283 v 6.44244 c 0,2.65153 1.51127,3.95087 3.84395,3.95087 1.72424,0 3.04904,-0.71571 4.32187,-2.38607 v 2.62492 l 5.38274,-2.43936 -1.85675,-1.21973 z m 13.0971,9.73092 c 0,2.41234 -1.90874,4.05642 -4.74482,4.05642 -1.77725,0 -3.63297,-0.63661 -5.30424,-1.5649 l 1.08734,-4.02971 c 1.16683,1.96172 2.81059,4.1093 4.72035,4.1093 0.79485,0 1.43178,-0.37055 1.43178,-1.16633 0,-0.7157 -0.53095,-1.37849 -2.97058,-2.51863 -2.91558,-1.37888 -4.02943,-2.62534 -4.02943,-4.50777 0,-2.43906 1.93522,-3.92465 4.71932,-3.92465 1.82925,0 3.60651,0.63652 4.50838,1.16754 l -0.71639,3.84468 c -1.77624,-2.89092 -2.86363,-3.71288 -4.08343,-3.71288 -1.00786,0 -1.61726,0.55691 -1.61726,1.35301 0,0.87456 0.82137,1.3786 2.65059,2.27986 3.15504,1.56397 4.34839,2.65111 4.34839,4.61406 z m 4.35244,-10.76641 c 0,-0.3308 -0.25998,-0.58994 -0.749,-0.58994 h -0.14348 v 1.10826 c 0.0721,0.0149 0.17327,0.0288 0.25999,0.0288 0.44532,0 0.63283,-0.21552 0.63283,-0.54705 z m -0.82034,0.77747 h -0.0721 v 0.97893 l 0.33118,0.30213 h -1.3961 l 0.33118,-0.28802 v -2.38958 l -0.33118,-0.28771 h 1.25243 c 1.06492,0 1.43892,0.35944 1.43892,0.82043 0,0.35987 -0.28744,0.66241 -0.77652,0.79173 0.12945,0.35995 0.31591,0.73443 0.87741,1.41039 -0.69093,0 -1.20863,-0.56131 -1.65497,-1.33832 z m 2.43254,-0.17272 c 0,-1.29532 -0.93551,-2.1591 -2.14515,-2.1591 -1.20865,0 -2.14415,0.86378 -2.14415,2.1591 0,1.29536 0.9355,2.15924 2.14415,2.15924 1.20964,0 2.14515,-0.82045 2.14515,-2.15924 z m -4.69285,0 c 0,-1.51147 1.12304,-2.50467 2.5477,-2.50467 1.42465,0 2.54766,0.9932 2.54766,2.50467 0,1.5111 -1.12301,2.50429 -2.54766,2.50429 -1.42466,0 -2.5477,-0.99319 -2.5477,-2.50429"
       style="fill:#232e61;fill-opacity:1;fill-rule:nonzero;stroke:none;stroke-width:0.101907"
       id="path5104" />
    <path
       d="M 56.918066,146.40182 H 75.66624 L 62.224476,132.95924 66.81621,128.24768 H 57.512389 L 41.319944,112.05554 v 10.52395 l -2.340299,-2.5863 -2.340707,2.587 v -10.52465 l -16.192034,16.19214 h -9.303447 l 4.591767,4.71156 -13.4421731,13.44258 H 21.041226 v 4.68099 H 2.2930509 l 34.3458871,34.34591 v -10.32453 l 2.340707,2.35944 2.340299,-2.35904 v 10.32413 L 75.66624,151.08281 H 56.918066 v -4.68099"
       style="fill:#232e61;fill-opacity:1;fill-rule:nonzero;stroke:none;stroke-width:0.101907"
       id="path5106" />
    <path
       d="m 56.918066,141.94378 4.08e-4,-3.53964 2.194571,-2.2515 5.790877,5.79114 z m -5.709965,-13.6961 h -4.758963 l -0.67116,-0.74128 v -4.68894 z m -30.166875,27.29319 v 3.84017 l 11.139681,11.22977 v 4.056 L 13.054962,155.54087 h 7.986264"
       style="fill:#ee2a36;fill-opacity:1;fill-rule:nonzero;stroke:none;stroke-width:0.101907"
       id="path5108" />
    <path
       d="m 45.777978,170.61081 11.140088,-11.22977 v -3.84017 h 7.986265 l -19.126353,19.12625 z m -13.597071,-43.10441 -0.670754,0.74128 h -4.759372 l 5.430126,-5.43022 z m -11.139273,14.43738 h -7.986672 l 5.791693,-5.79114 2.194979,2.2515 v 3.53964"
       style="fill:#ffffff;fill-opacity:1;fill-rule:nonzero;stroke:none;stroke-width:0.101907"
       id="path5110" />
    <path
       d="M 54.601309,140.90362 H 23.358392 l -8.14e-4,17.52366 15.621661,15.74742 15.62207,-15.74742 z m 2.316757,1.826 h 9.883876 l -7.140739,-7.14022 2.014297,-2.06693 12.093125,12.09316 H 56.918066 Z m -4.598564,-14.48194 -7.327738,-7.32744 v 5.71722 l -2.885606,-3.18942 v -9.49488 l 14.29483,14.29452 z m -16.466778,-4.79922 -2.885196,3.189 v -5.71722 l -7.328147,7.32744 h -4.081488 l 14.294831,-14.29452 z m -17.555043,12.14094 -7.139895,7.14022 h 9.883848 l -4.08e-4,2.88601 H 4.1906752 L 16.283789,133.52247 Z M 4.1906752,151.86903 H 21.041226 v 2.88563 h -9.88344 l 21.809742,21.81012 v -5.16145 l 2.885196,2.90874 v 9.21904 z m 37.9154828,31.66208 v -9.21862 l 2.885606,-2.90957 v 5.16186 l 21.810584,-21.81012 h -9.884282 v -2.88563 H 73.768625 Z M 21.827439,159.05749 v -20.9726 l -8.820576,-9.05111 h 18.852425 l 7.120357,-7.86909 7.120768,7.86909 H 64.95243 l -8.820169,9.05111 -3.08e-4,20.9726 -17.152308,17.29036 -17.152206,-17.29036"
       style="fill:#f4b10c;fill-opacity:1;fill-rule:nonzero;stroke:none;stroke-width:0.101907"
       id="path5112" />
    <path
       d="m 36.98848,165.78011 h 0.85867 c 0.0493,0 0.08918,-0.04 0.08918,-0.0893 v -12.17587 c 0,-0.0494 -0.03985,-0.0893 -0.08918,-0.0893 h -0.85867 c -0.0493,0 -0.08918,0.0397 -0.08918,0.0893 v 12.17587 c 0,0.0494 0.03985,0.0893 0.08918,0.0893 z m 2.425087,-12.35423 h -0.867842 c -0.04891,0 -0.08957,0.0402 -0.08957,0.0893 v 12.17588 c 0,0.0491 0.04068,0.0893 0.08957,0.0893 h 0.867842 c 0.0493,0 0.08918,-0.0399 0.08918,-0.0893 v -12.17588 c 0,-0.0494 -0.03985,-0.0893 -0.08918,-0.0893 z m -2.425087,-2.17112 h 0.858263 c 0.0493,0 0.08958,-0.0402 0.08958,-0.0887 V 150.536 c 0,-0.0494 -0.04024,-0.0896 -0.08958,-0.0896 H 36.98848 c -0.0493,0 -0.08957,0.0402 -0.08957,0.0896 v 0.63008 c 0,0.0494 0.04027,0.0887 0.08957,0.0887 z m 1.468077,-1.37454 h 1.046179 v -1.77502 c 1.100698,0.097 2.310438,0.37148 3.575109,0.64293 -0.541026,-0.97766 -2.363434,-2.05085 -3.575109,-2.45658 v -1.77776 c 0.0028,-0.22995 0.02774,-0.29778 0.06724,-0.34273 l 0.428312,-0.42839 -1.030994,-1.23165 -1.030586,1.23165 0.41079,0.4109 c 0.01935,0.0203 0.09357,0.0979 0.109049,0.2591 v 1.65672 c -1.913512,-0.40243 -3.266941,-1.99668 -3.266941,-1.99668 -0.153265,0.10257 -0.923588,1.15635 -0.923588,2.92818 0,2.05845 0.878137,2.67712 1.080422,2.67743 0.0115,0 0.01993,-0.001 0.02426,-0.006 0.757885,-1.13251 1.82353,-1.54616 3.085854,-1.59628 z m 3.04407,2.95969 c 0.04943,0 0.08957,-0.0397 0.08957,-0.0893 v -0.8591 c 0,-0.0494 -0.04016,-0.0896 -0.08957,-0.0896 h -5.041555 c -0.04943,0 -0.08918,0.0402 -0.08918,0.0896 v 0.8591 c 0,0.0494 0.03974,0.0893 0.08918,0.0893 z m -2.08706,-2.39358 h -0.867842 c -0.04891,0 -0.08918,0.0402 -0.08918,0.0896 v 0.63008 c 0,0.0494 0.04027,0.0887 0.08918,0.0887 h 0.867842 c 0.0493,0 0.08957,-0.0393 0.08957,-0.0887 v -0.63008 c 0,-0.0494 -0.04027,-0.0896 -0.08957,-0.0896 z m -2.954495,15.89792 c -0.04943,0 -0.08918,0.0393 -0.08918,0.0887 v 0.85897 c 0,0.0494 0.03974,0.0896 0.08918,0.0896 h 5.041555 c 0.04943,0 0.08957,-0.0402 0.08957,-0.0896 v -0.85897 c 0,-0.0494 -0.04016,-0.0887 -0.08957,-0.0887 z m 2.198953,4.18686 h 0.644056 l 0.200649,-2.6189 h -1.046173 z m 2.401953,-17.01605 c 0,-0.0494 -0.03943,-0.0893 -0.08877,-0.0893 h -0.858666 c -0.04891,0 -0.08957,0.0399 -0.08957,0.0893 v 12.17587 c 0,0.0494 0.04068,0.0893 0.08957,0.0893 h 0.858668 c 0.04934,0 0.08877,-0.0397 0.08877,-0.0893 z m -0.947431,-2.2603 h 0.858669 c 0.04934,0 0.08877,-0.0393 0.08877,-0.0887 V 150.536 c 0,-0.0494 -0.04016,-0.0896 -0.08877,-0.0896 h -0.858669 c -0.04891,0 -0.08877,0.0402 -0.08877,0.0896 v 0.63008 c 0,0.0494 0.03983,0.0887 0.08877,0.0887 z m -6.406192,-1.91911 c -0.243661,-0.19818 -0.649251,-0.10018 -0.928681,0.17774 -0.380214,-0.0757 -0.530629,0.0423 -0.551421,0.0673 -0.09385,0.11496 -0.03261,0.41395 0.07929,0.63487 l -0.404061,0.61227 c -0.0055,0.003 -0.292166,0.23195 -0.66953,0.13317 0,0 -0.545001,-0.38215 -0.733325,-0.53696 -0.173958,-0.14333 -0.257528,-0.26112 -0.399985,-0.37816 l -1.085209,-0.90087 0.03343,-0.0411 c 0.04382,-0.0538 0.08559,-0.18922 -0.02904,-0.2828 l -0.739235,-0.60461 c -0.182715,-0.14871 -0.479679,-0.13184 -0.640487,0.0647 l -0.477335,0.57963 c -0.159568,0.19355 -0.132071,0.48133 0.06096,0.6409 l 0.736072,0.60909 c 0.09833,0.0814 0.233263,0.0334 0.283009,-0.026 l 0.03383,-0.0403 1.093565,0.89128 c 0.142463,0.11616 0.274225,0.17531 0.448593,0.31885 0.188315,0.15432 0.668003,0.615 0.668003,0.615 0.103854,0.21375 0.105063,0.46612 -8.15e-4,0.6831 l -0.521864,0.51473 c -0.169161,-0.0473 -0.530634,-0.0856 -0.638553,0.0457 -0.07001,0.0844 -0.05972,0.31052 0.04068,0.55367 -0.227775,0.34199 -0.233666,0.74686 0.0055,0.94509 0.246811,0.20366 0.651286,0.0981 0.923989,-0.16639 0.200159,0.0439 0.482022,0.043 0.568034,-0.06 0.08273,-0.10108 0.05491,-0.38011 -0.08204,-0.64722 l 0.339148,-0.5235 c 0.573228,0.25797 0.740457,0.0637 1.008778,0.28396 l 0.131758,0.10944 0.753503,-0.42076 0.26709,-0.82117 -0.132475,-0.1081 c -0.268332,-0.2204 -0.109542,-0.4223 -0.474172,-0.93509 l 0.44829,-0.43382 c 0.248342,0.0714 0.560491,0.0652 0.65078,-0.0445 0.07093,-0.0872 0.05778,-0.32079 -0.05096,-0.56882 0.222576,-0.34192 0.22379,-0.74361 -0.01506,-0.93906 z m 2.663141,5.82865 -2.722043,-2.31327 -0.158881,0.49008 -0.06056,0.18572 -0.171095,0.0956 -0.441871,0.24669 3.554423,2.82639 z m 5.21989,5.54274 4.636777,3.681 c 0.237336,0.20307 0.660463,0.34078 0.796204,0.18349 0.135327,-0.15764 -0.06329,-0.55528 -0.299403,-0.76031 l -5.133578,-4.78047 z M 49.420343,150.547 c 0.33324,-0.29216 0.367887,-0.80058 0.07562,-1.13451 -0.280233,-0.32041 -0.786519,-0.38013 -1.134429,-0.0757 -0.333643,0.29134 -0.367479,0.80048 -0.07573,1.13413 0.27954,0.31966 0.786215,0.3805 1.134531,0.076 z m -7.830957,5.06746 4.059168,-3.55036 -0.469689,-0.53746 c -0.17314,-0.19788 -0.465311,-0.60501 -0.276275,-0.914 -0.211367,0.10182 -0.472544,0.0578 -0.634883,-0.12766 -0.195046,-0.22329 -0.172434,-0.56131 0.05013,-0.75634 0.222865,-0.1947 0.561305,-0.17253 0.756353,0.0506 0.162338,0.18554 0.171504,0.4502 0.04261,0.64679 0.331196,-0.14676 0.695413,0.197 0.868962,0.39492 l 0.4701,0.53824 0.876197,-0.76593 c -0.273531,-0.65485 -0.122203,-1.43627 0.441868,-1.92909 0.863053,-0.75513 1.949384,-0.34832 2.394005,0.16008 0.617455,0.7057 0.545816,1.77816 -0.159996,2.39522 -0.778267,0.68023 -1.708169,0.35503 -1.970477,0.18015 l -0.875794,0.76635 0.470508,0.53736 c 0.173548,0.19874 0.465412,0.60545 0.276276,0.91484 0.211772,-0.10286 0.47295,-0.0578 0.634983,0.12766 0.195046,0.22272 0.172341,0.56119 -0.05024,0.75627 -0.222863,0.1947 -0.56161,0.17253 -0.756251,-0.0508 -0.162022,-0.18553 -0.171616,-0.45021 -0.04218,-0.64639 -0.331606,0.14646 -0.696229,-0.19759 -0.869472,-0.39529 l -0.469691,-0.53747 -4.766201,4.1675 z m -5.21989,10.34875 c -1.012344,0.45545 -2.095112,-0.0579 -3.064756,-1.08792 -0.34832,-0.37013 -0.703876,-0.7153 -1.034256,-0.73721 -0.319685,-0.0203 -1.206175,0.15635 -1.206175,0.15635 0,0 0.31693,-0.84704 0.345974,-1.16593 0.0314,-0.32999 -0.252819,-0.73569 -0.562934,-1.13811 -0.959762,-1.24713 -1.001544,-2.48876 -0.139731,-3.47003 l -0.701426,-0.32365 c -0.04177,-0.0203 -0.03616,-0.0803 0.0082,-0.0924 0,0 1.250807,-0.96293 2.505896,-1.04212 -0.204232,0.83515 -0.480084,2.53171 -0.480084,2.53171 0.0024,0.0463 -0.05451,0.0708 -0.08551,0.0355 l -0.446659,-0.5 c -0.589227,0.62968 -0.544589,1.36812 0.133684,2.24954 0.19392,0.25188 0.747594,1.107 1.575998,0.37774 l 3.151989,-2.68586 v 1.40844 l -2.45739,2.09308 c -0.851841,0.70144 -0.09551,1.38413 0.122278,1.61535 0.810467,0.86151 1.575181,1.20819 2.335101,0.60991 v 1.16551"
       style="fill:#ffffff;fill-opacity:1;fill-rule:nonzero;stroke:none;stroke-width:0.101907"
       id="path5114" />
    <path
       d="m 41.535275,136.84802 v -1.52656 h 0.676765 l 0.913191,0.80965 v -2.32237 l -0.912374,0.8013 h -0.677582 v -1.70255 h 1.178351 l 1.337534,1.51434 v -2.1747 h -4.569928 l 0.722521,0.76866 v 3.82633 l -0.722521,0.76938 h 2.659165 z m -5.199205,-4.08628 c 0.736383,0 1.175907,0.65773 1.175907,1.75914 v 0.81648 c 0,1.1015 -0.439524,1.75913 -1.175907,1.75913 -0.730876,0 -1.168366,-0.65763 -1.168366,-1.75913 v -0.81648 c 0,-1.10141 0.43749,-1.75914 1.168366,-1.75914 m 0,4.93701 c 1.808855,0 2.755878,-1.39369 2.755878,-2.76984 0,-1.33395 -0.862644,-2.76984 -2.755878,-2.76984 -1.326832,0 -2.755162,0.86704 -2.755162,2.76984 0,1.37615 0.947024,2.76984 2.755162,2.76984 m 14.418647,2.15361 c 2.249091,0 3.760172,-1.45382 3.760172,-3.61729 v -0.21464 l -0.148883,0.24093 c -0.322434,0.52307 -1.077158,1.74873 -2.959689,1.74873 -1.917486,0 -3.155864,-1.45331 -3.155864,-3.70249 0,-1.92749 0.969646,-3.07791 2.595373,-3.07791 0.439526,0 0.766749,0.0548 1.087146,0.182 l 1.240414,2.73683 1.358628,-2.63286 -0.04137,-0.0315 c -0.987174,-0.74719 -1.910762,-1.21018 -3.462501,-1.21018 -3.042031,0 -4.633108,2.49441 -4.633108,4.95895 0,2.71956 1.792853,4.61964 4.35969,4.61964 m -22.825582,-0.29502 0.98636,-1.12661 -2.650813,-3.4576 v 3.53445 l 0.96017,1.04976 h -3.867274 l 0.973722,-1.04976 v -6.88902 l -0.973722,-1.05056 h 3.867274 l -0.96017,1.05056 v 3.23995 l 2.318086,-2.29252 v -1.99799 h 3.636762 l -2.715215,2.22799 -1.460227,1.47327 3.266227,4.22516 1.280256,1.06292 h -4.661436"
       style="fill:#232e61;fill-opacity:1;fill-rule:nonzero;stroke:none;stroke-width:0.101907"
       id="path5116" />
  </g>
</svg>
