<?xml version="1.0" encoding="UTF-8"?><svg width="1038px" height="318px" version="1.1" xmlns="http://www.w3.org/2000/svg" xmlns:xlink="http://www.w3.org/1999/xlink"><title>Group</title><g id="Symbols" stroke="none" stroke-width="1" fill="none" fill-rule="evenodd"><g id="Logo/Secondary/Black" transform="translate(-43.000000, -43.000000)"><g id="Group" transform="translate(43.409929, 43.638100)"><path d="M735.321971,208.1118 C770.676971,208.1118 799.358971,232.4448 799.358971,262.4658 C799.358971,292.4938 770.676971,316.8268 735.321971,316.8268 C699.947971,316.8268 671.284971,292.4938 671.284971,262.4658 C671.284971,232.4448 699.947971,208.1118 735.321971,208.1118 Z M446.252571,210.4539 C473.642571,210.4539 495.969571,228.5159 500.065571,253.7219 C500.065571,253.7219 500.065571,254.9729 498.035571,254.9649 C493.293031,254.94906 487.340927,254.940577 480.941006,254.93698 L479.185042,254.936118 C478.890721,254.935994 478.595619,254.93588 478.299806,254.935775 L475.620232,254.935078 C475.320799,254.935027 475.02087,254.934985 474.720517,254.934951 L471.100479,254.934941 C470.797874,254.934972 470.495131,254.93501 470.192322,254.935055 L466.559978,254.935936 C465.65338,254.936237 464.748757,254.936595 463.84804,254.937004 L462.052385,254.937889 C447.73797,254.945484 434.753139,254.965115 431.009536,254.971125 L430.590289,254.971804 C430.528627,254.971904 430.47112,254.971998 430.417837,254.972086 L429.930571,254.9729 L429.930571,254.9729 L429.930251,254.99563 C429.930153,255.003169 429.930036,255.012564 429.929909,255.023787 L429.929059,255.112827 C429.928618,255.168086 429.928192,255.23928 429.927959,255.325641 L429.927801,255.518358 C429.930861,258.7056 430.213371,275.0811 435.557571,283.8669 C442.582571,295.4309 451.541571,299.2229 464.300571,299.4879 C471.636571,299.6399 485.221571,296.5229 494.756571,281.8389 C495.969571,279.9589 498.194571,279.3399 497.725571,281.8389 C494.843571,297.1939 470.097571,315.8819 446.252571,315.8819 C415.966571,315.8819 391.421571,292.2839 391.421571,263.1779 C391.421571,234.0519 415.966571,210.4539 446.252571,210.4539 Z M603.517471,216.8087 C619.992729,208.190473 634.035245,211.024279 647.641973,213.862221 L648.613168,214.064784 L648.613168,214.064784 L649.583042,214.266434 L649.583042,214.266434 L650.551758,214.466243 C651.681313,214.69792 652.808832,214.923947 653.935471,215.1377 C658.833471,216.0657 663.929471,208.1157 663.868471,215.3117 C663.824471,221.5487 663.558471,236.8437 663.497471,241.4227 C663.478471,243.4097 661.359471,243.2657 660.873471,242.3027 C655.653471,232.0127 646.732471,218.2727 633.325471,218.2727 C628.327471,218.2727 622.701471,220.2897 620.510471,224.0397 C618.500471,227.4857 618.853471,233.0327 621.761471,235.7627 C626.956871,240.62875 633.548771,243.599357 640.122296,246.431497 L641.811335,247.157816 C642.373619,247.399643 642.934877,247.641558 643.494218,247.88467 L644.61008,248.372814 C655.181471,253.031559 664.846391,258.38818 667.493471,272.0317 C669.741471,283.5837 668.343471,294.8407 662.629471,301.1577 C646.909471,318.5487 628.627471,316.6717 609.269471,311.2767 C601.079471,308.9977 597.394471,309.7677 593.018471,313.1537 C591.642471,313.6577 590.528471,313.0657 590.641471,311.0187 C591.316471,299.9707 590.250471,289.0777 590.987471,278.8637 C591.164471,276.3987 592.556471,274.6517 595.365471,279.9707 C602.000471,292.4787 613.173471,310.8857 627.501471,308.2777 C632.571471,307.3487 635.831471,302.9277 637.507471,299.6517 C638.784471,297.1497 638.970471,290.6807 636.514471,287.2807 C631.632691,280.58481 624.580773,277.071297 617.373084,273.875532 L616.203222,273.359633 C616.008123,273.273963 615.812991,273.188412 615.617863,273.102924 L614.447485,272.59029 C603.140614,267.633329 592.119871,262.50592 589.144471,246.1737 C586.823471,233.4307 593.629471,221.9847 603.517471,216.8087 Z M936.818471,216.8147 C950.743987,209.529514 962.9347,210.420618 974.592179,212.588794 L975.576075,212.774906 C975.739855,212.806379 975.903536,212.838068 976.067122,212.869952 L977.047512,213.06345 C977.700376,213.193806 978.351816,213.326674 979.002047,213.46082 L979.976514,213.662842 C981.274665,213.933071 982.56841,214.205944 983.859467,214.471589 L984.827283,214.669315 C985.633421,214.8327 986.438678,214.992298 987.243471,215.1457 C989.233995,215.525409 991.261619,214.431342 992.961063,213.48573 L993.249113,213.325382 C995.574156,212.032693 997.215053,211.212665 997.169471,215.3167 C997.131471,221.5457 996.877471,236.8557 996.806471,241.4287 C996.779471,243.4227 994.678471,243.2517 994.182471,242.2967 C988.965471,231.9987 980.039471,218.2557 966.625471,218.2557 C961.628471,218.2557 956.002471,220.2947 953.822471,224.0447 C951.809471,227.4837 952.165471,233.0377 955.062471,235.7677 C960.557341,240.90774 967.610955,243.932538 974.553232,246.915929 L975.677766,247.399687 C987.095253,252.320861 997.964751,257.43418 1000.80247,272.0327 C1003.04247,283.5887 1001.64347,294.8347 995.930471,301.1437 C980.218471,318.5347 961.948471,316.6657 942.576471,311.2887 C934.379471,308.9917 934.471471,309.1777 927.904471,311.8277 C925.360471,312.8547 922.145471,312.5477 920.408471,312.5477 L920.408471,312.5477 L918.400334,312.547951 C907.191223,312.558213 893.325041,312.70846 879.511755,312.676006 L877.001435,312.66802 C873.238639,312.652806 869.491993,312.622548 865.816471,312.5707 C863.165471,312.8817 863.965471,311.0737 865.034471,310.6937 C870.354471,308.8247 874.729471,305.2267 874.729471,296.9497 L874.729471,296.9497 L874.729471,246.9677 C874.729471,241.8187 874.191471,234.1637 867.286471,230.8197 C861.918471,228.2157 854.464471,228.5907 849.042471,232.8257 C846.134471,235.1007 842.699471,238.0617 842.699471,246.6497 L842.699471,246.6497 L842.680471,296.9497 C842.699471,305.0747 847.844471,308.6917 853.012471,310.5427 C855.211471,311.3237 854.960471,312.6087 852.762471,312.6087 L852.762471,312.6087 L850.069652,312.608981 C849.84118,312.609027 849.611748,312.609078 849.381399,312.609135 L847.284689,312.609778 C847.049231,312.609863 846.812988,312.609954 846.576001,312.610049 L845.145509,312.610671 C844.905723,312.610783 844.665281,312.610899 844.424226,312.611019 L842.970883,312.611785 C840.050871,312.613404 837.055057,312.615532 834.058338,312.617854 L832.560251,312.61903 C826.81995,312.623587 821.122183,312.62866 815.994304,312.632023 L814.669871,312.63286 C814.451402,312.632993 814.234097,312.633122 814.018,312.633247 L812.73625,312.633951 C812.525155,312.63406 812.315355,312.634166 812.106891,312.634266 L810.872506,312.634818 C810.669565,312.634901 810.468049,312.634979 810.267999,312.635052 L803.305267,312.635031 C803.150695,312.634946 802.998153,312.634854 802.847686,312.634755 L801.970119,312.634068 C798.562185,312.630953 796.398911,312.62334 796.079471,312.6087 C793.579432,312.484641 794.297938,311.882143 795.238598,311.380856 L795.392612,311.300545 C795.702641,311.142063 796.019001,310.997524 796.239471,310.8867 C801.487471,308.2567 803.336471,300.5557 803.336471,296.9497 L803.336471,296.9497 L803.336888,293.468844 C803.341443,274.84904 803.382171,267.973676 803.399446,261.491753 L803.401403,260.715084 L803.401403,260.715084 L803.403112,259.937833 C803.404426,259.288671 803.405458,258.634363 803.406148,257.963557 L803.406808,257.149945 C803.406889,257.012781 803.406956,256.874776 803.407008,256.735838 L803.407052,255.457773 C803.407009,255.312424 803.406949,255.165871 803.406872,255.018021 L803.406204,254.114653 C803.401948,249.666205 803.382581,243.97546 803.336471,234.8277 C803.329471,231.6657 801.717471,220.5787 796.550471,219.1957 C794.202471,218.5847 793.175471,216.0147 797.490471,215.6157 L797.490471,215.6157 L798.660801,215.505368 C809.975015,214.441491 821.396471,213.457167 839.666471,212.7457 C841.767471,212.9507 842.699471,211.8587 842.699471,215.9197 L842.699471,215.9197 L842.699471,227.4377 C842.699471,230.4067 844.152471,228.8107 844.549471,228.3327 C855.988471,214.1637 876.128471,207.7947 892.530471,213.7017 C901.595471,216.9817 913.823471,227.7637 914.088471,244.4577 C914.399471,263.2177 913.770471,276.9617 914.088471,296.9497 C914.008471,304.9537 923.536471,312.6087 924.022471,306.2007 C924.457471,300.2827 923.589471,288.7377 924.298471,278.8727 C924.484471,276.3927 925.857471,274.6637 928.673471,279.9527 C935.301471,292.4757 946.474471,310.8867 960.814471,308.2747 C965.871471,307.3537 969.132471,302.9287 970.808471,299.6537 C972.101471,297.1477 972.286471,290.6757 969.815471,287.2817 C956.639471,269.1817 927.573471,274.3377 922.455471,246.1677 C920.143471,233.4357 926.929471,221.9857 936.818471,216.8147 Z M84.9194714,166.4021 C89.2984714,166.0911 89.9084714,166.5611 90.6904714,168.5941 C107.346471,213.0101 120.540471,251.8461 136.305471,296.2781 C137.810471,300.5471 142.083471,306.9891 147.399471,306.2071 C151.322471,305.6231 151.687471,300.5591 151.687471,296.9411 L151.687917,293.460942 C151.69269,275.217219 151.734606,268.250936 151.753665,261.878622 L151.755881,261.10058 L151.755881,261.10058 L151.757843,260.324117 C151.759976,259.41747 151.761542,258.505146 151.762366,257.555998 L151.762888,256.732698 C151.763053,256.315813 151.763074,255.890529 151.762935,255.454396 L151.762028,254.110994 C151.757477,249.661573 151.736771,243.96918 151.687471,234.8191 C151.679471,231.6721 150.056471,220.5781 144.900471,219.2061 C142.553471,218.5691 141.514471,216.0131 145.840471,215.6071 C146.035671,215.588783 146.23083,215.570486 146.425982,215.55221 L147.597092,215.44281 C147.987621,215.406432 148.378401,215.370145 148.76971,215.333958 L149.945505,215.225702 C160.350628,214.272221 171.322688,213.39435 188.034471,212.7451 C190.116471,212.9501 191.057471,211.8581 191.057471,215.9261 L191.057471,215.9261 L191.057471,227.4371 C191.057471,230.4131 192.501471,228.8281 192.900471,228.3311 C204.319471,214.1711 224.471471,207.7931 240.887471,213.7011 C249.946471,216.9731 262.154471,227.7481 262.449471,244.4561 C262.749471,263.2091 262.112471,276.9531 262.449471,296.9411 C262.449471,304.9261 268.694471,308.6721 273.842471,310.8521 C275.446471,311.5271 275.712471,312.5881 272.754471,312.5731 C271.008694,312.5601 269.185928,312.553779 267.296138,312.552392 L265.384375,312.552585 C255.717544,312.561129 244.45812,312.678486 232.851474,312.68655 L230.525884,312.686641 C225.090428,312.683151 219.597434,312.652693 214.173471,312.5731 C211.523471,312.8801 212.322471,311.0641 213.396471,310.6851 C218.700471,308.8241 223.071471,305.2261 223.071471,296.9411 L223.071471,296.9411 L223.071024,246.710553 C223.052607,241.560766 222.435176,234.115477 215.637471,230.8381 C210.276471,228.2181 202.814471,228.5891 197.400471,232.8251 C194.484471,235.1031 191.057471,238.0601 191.057471,246.6561 L191.057471,246.6561 L191.011471,296.9411 C191.057471,305.0781 196.194471,308.6991 201.351471,310.5411 C203.549471,311.3221 204.239471,312.6071 200.964471,312.5731 C196.158551,312.51794 186.794612,312.496335 175.184792,312.493819 L170.078393,312.493867 C160.925158,312.49585 150.694411,312.507407 140.361587,312.522436 L137.407416,312.526819 C117.213119,312.557344 96.9838324,312.598889 83.9787977,312.606033 L82.1280356,312.606828 C81.528867,312.607008 80.9477314,312.6071 80.3854714,312.6071 C77.8864714,312.6071 77.6284714,311.2431 78.6904714,311.0191 C90.0694714,308.7101 92.8774714,302.4541 91.4874714,296.8281 L91.4874714,296.8281 L79.7554714,263.4101 L38.0464714,263.4101 L28.6704714,290.1091 C26.4934714,297.9231 26.9634714,308.0691 40.5444714,311.2081 C41.2004714,311.3491 42.4334714,312.6071 39.6234714,312.6071 L39.6234714,312.6071 L1.98247145,312.6071 C-0.531528553,312.6071 -0.364528553,311.5081 0.882471447,311.0381 C9.43647145,307.8421 10.5704714,303.8611 13.9974714,297.1461 C18.9937314,282.15937 26.2695955,260.77425 33.5593548,239.536925 L34.625985,236.430838 C44.7549177,206.947478 54.6970914,178.36696 58.3644714,168.2791 C58.9754714,166.5611 59.1464714,166.2431 62.5844714,166.4021 C68.6774714,166.5611 77.7274714,166.4021 84.9194714,166.4021 Z M383.558271,150.7901 C386.355388,150.411681 386.61868,152.635777 386.630278,153.369929 L386.630271,153.47779 C386.628976,153.555009 386.625271,153.5991 386.625271,153.5991 C386.683791,157.15989 386.708161,163.820659 386.711508,172.411969 L386.711573,176.621322 C386.702991,203.171266 386.535622,244.350915 386.527905,271.793829 L386.527712,274.731745 C386.52936,284.814178 386.555971,292.74362 386.625271,296.9411 C386.625271,304.9261 392.871271,308.6721 398.019271,310.8521 C399.630271,311.5271 399.907271,312.6611 396.931271,312.5731 C393.598931,312.4697 388.991784,312.428349 383.612489,312.42347 L381.370068,312.423444 C374.521231,312.42908 366.612629,312.484398 358.573437,312.542118 L356.785177,312.554965 C348.433461,312.614923 340.015322,312.673699 332.56705,312.678564 L330.207638,312.678207 C326.335201,312.6743 322.772971,312.6533 319.680271,312.6071 C290.290271,312.6071 266.525271,291.4141 266.525271,263.1641 C266.525271,234.9331 290.350271,212.0361 319.722271,212.0361 C329.295271,212.0361 337.747271,214.0571 345.455271,218.1061 C345.856271,218.6031 347.308271,219.9871 347.308271,217.0071 C347.308271,208.897609 347.166273,196.31032 347.158799,184.418491 L347.15881,182.496999 C347.162643,176.755715 347.20185,171.245205 347.308271,166.5611 C347.487271,158.4441 333.731271,157.4971 332.325271,157.3371 C330.925271,157.1971 329.356271,155.9501 331.703271,155.1611 C332.537351,154.8829 345.260379,153.880028 357.940218,152.894051 L359.402405,152.780401 C370.600633,151.91031 381.405931,151.07576 383.558271,150.7901 Z M545.733571,234.3562 C555.700571,220.4532 561.938571,205.6182 578.339571,211.0772 C586.013571,213.6482 588.023571,215.1452 587.874571,216.7032 L587.874571,216.7032 L581.937571,247.1682 C581.149571,251.8472 575.370571,242.6482 568.478571,239.2972 C563.109571,236.6922 555.654571,237.0562 550.233571,241.3032 C547.325571,243.5702 543.886571,246.5312 543.886571,255.1262 L543.886571,255.1262 L543.871571,296.9452 C543.886571,305.0822 549.046571,308.6992 554.202571,310.5372 C556.398571,311.3192 556.152571,312.6122 553.964571,312.6122 L553.964571,312.6122 L549.185171,312.612925 C548.951097,312.612991 548.716198,312.613062 548.480516,312.613136 L546.339441,312.613912 C546.099457,312.61401 545.858821,312.614111 545.617577,312.614215 L544.16315,312.61488 C543.43263,312.615232 542.697409,312.615611 541.958657,312.616014 L540.476788,312.616849 C532.799715,312.621313 524.828691,312.627968 517.853071,312.632075 L516.515727,312.632837 C516.295024,312.632958 516.075442,312.633076 515.857027,312.633192 L514.560866,312.633844 C514.347286,312.633946 514.134959,312.634044 513.923926,312.634139 L512.060782,312.634893 C511.857912,312.634965 511.656467,312.635032 511.456491,312.635096 L504.497094,312.635077 C504.342616,312.635004 504.190169,312.634924 504.039797,312.634838 L503.162803,312.634241 C503.020902,312.634128 502.881162,312.634009 502.743626,312.633882 L501.945211,312.633039 C499.245763,312.629785 497.556611,312.62333 497.278571,312.6122 C493.832571,312.4522 496.475571,311.3642 497.422571,310.8942 C502.685571,308.2702 504.535571,300.5622 504.535571,296.9452 L504.535571,296.9452 L504.53597,293.464703 C504.540324,274.846894 504.579259,267.973435 504.595774,261.491826 L504.597644,260.715187 L504.597644,260.715187 L504.599278,259.937951 C504.600534,259.288794 504.601521,258.634474 504.60218,257.963637 L504.602811,257.14998 C504.602889,257.012806 504.602953,256.874791 504.603002,256.735843 L504.603045,255.45766 C504.603004,255.312296 504.602946,255.165726 504.602873,255.017859 L504.602234,254.114378 C504.598165,249.665336 504.579651,243.97328 504.535571,234.8232 C504.520571,231.6682 502.897571,220.5862 497.722571,219.2022 C495.394571,218.5732 494.348571,216.0142 498.670571,215.6042 C499.061071,215.567933 499.451411,215.531721 499.841868,215.495573 L501.013866,215.387329 C501.20935,215.369323 501.404932,215.351336 501.600647,215.333368 L502.77681,215.225806 C513.185241,214.277904 524.161688,213.39145 540.857571,212.7422 C542.957571,212.9582 543.886571,211.8582 543.886571,215.9232 L543.886571,215.9232 L543.886571,233.4692 C543.886571,236.4342 545.368571,234.8572 545.733571,234.3562 Z M735.321971,218.7278 C722.028971,218.7278 711.264971,238.3108 711.264971,262.4658 C711.264971,286.6208 722.028971,306.2038 735.321971,306.2038 C748.602971,306.2038 759.378971,286.6208 759.378971,262.4658 C759.378971,238.3108 748.602971,218.7278 735.321971,218.7278 Z M340.139271,224.6651 C330.873271,217.7161 315.930271,219.0351 310.004271,233.6741 C302.164271,252.9531 305.466271,282.4621 318.111271,296.8961 C324.538271,304.2251 335.142271,307.2921 341.735271,305.0321 C345.394271,303.7731 347.487271,301.5141 347.328271,296.8281 L347.328271,296.8281 L347.328271,236.2261 C347.328271,230.5991 343.267271,227.0121 340.139271,224.6651 Z M58.3304714,204.9921 L42.2744714,251.2171 L74.9174714,251.2171 L58.3304714,204.9921 Z M446.802571,218.8899 C436.326571,218.8899 428.997571,232.7929 429.930571,247.6359 L429.930571,247.6359 L463.682571,247.6359 C464.300571,231.6929 456.955571,218.8899 446.802571,218.8899 Z M294.446971,49.253 C321.843971,49.253 344.163971,67.304 348.258971,92.521 L348.258971,92.521 L348.258235,92.5392362 C348.24866,92.6933316 348.114614,93.772 346.237971,93.772 C341.278021,93.75728 334.996894,93.7493312 328.264712,93.7458175 L326.498831,93.745 C326.203003,93.74488 325.906465,93.744768 325.609289,93.7446638 L323.819149,93.7441308 C323.519706,93.7440571 323.219769,93.7439908 322.919408,93.7439317 L314.758873,93.7439542 C314.45668,93.7440097 314.154708,93.7440708 313.853027,93.7441372 L311.147705,93.7448727 C310.848417,93.7449692 310.549636,93.7450705 310.251432,93.7451763 L308.469713,93.745864 C306.991678,93.74648 305.531659,93.7472 304.098596,93.748 L302.392433,93.7489969 C292.521962,93.755018 284.14756,93.7644887 280.335431,93.769177 L279.727187,93.7699324 C279.633452,93.7700499 279.543585,93.7701632 279.457656,93.770272 L278.989924,93.7708695 C278.920037,93.7709596 278.854232,93.7710449 278.79258,93.7711251 L278.146862,93.771981 L278.146862,93.771981 L278.132971,93.772 L278.132971,93.772 L278.132267,93.8228764 C278.131857,93.8565376 278.131331,93.9066448 278.130868,93.9724288 L278.130077,94.1246712 C278.129977,94.1534527 278.129897,94.1839191 278.129844,94.2160419 L278.129899,94.4284275 C278.137056,97.8668919 278.461131,113.97437 283.761971,122.667 C290.776971,134.231 299.735971,138.022 312.497971,138.288 C319.834971,138.447 333.425971,135.319 342.950971,120.646 C344.175971,118.766 346.388971,118.136 345.919971,120.646 C343.041971,135.99 318.291971,154.689 294.446971,154.689 C264.168971,154.689 239.626971,131.099 239.626971,101.977 C239.626971,72.866 264.168971,49.253 294.446971,49.253 Z M160.301471,0 C162.394471,0.212 163.323471,-0.879 163.323471,3.181 L163.323471,3.181 L163.323471,65.349 C163.323471,68.325 164.768471,66.729 165.158471,66.244 C176.597471,52.075 196.737471,45.694 213.139471,51.605 C222.204471,54.877 234.431471,65.656 234.696471,82.369 C235.015471,101.11 234.386471,114.854 234.696471,134.854 C234.696471,142.827 240.964471,146.577 246.120471,148.757 C247.713471,149.428 247.982471,150.562 245.013471,150.474 C229.870471,150.004 207.372471,150.785 186.450471,150.474 C183.781471,150.785 184.597471,148.977 185.670471,148.598 C190.970471,146.729 195.346471,143.126 195.346471,134.854 L195.346471,134.854 L195.346471,84.867 C195.346471,79.711 194.807471,72.075 187.914471,68.731 C182.542471,66.126 175.080471,66.49 169.666471,70.726 C166.762471,73.004 163.323471,75.973 163.323471,84.56 L163.323471,84.56 L163.289471,134.854 C163.323471,142.979 168.464471,146.603 173.628471,148.446 C175.827471,149.223 176.127471,150.535 172.381471,150.474 C163.708684,150.342485 155.87299,150.378533 148.115491,150.439892 L144.793423,150.467324 C135.381924,150.547089 125.925865,150.634212 115.066471,150.474 C112.089471,150.785 111.460471,149.382 113.182471,148.916 C118.664471,147.426 123.964471,142.979 123.964471,134.854 L123.964471,134.854 L123.964861,131.360448 C123.965116,130.195324 123.965494,129.029678 123.965982,127.863766 L123.968883,122.616221 C123.970468,120.283943 123.972426,117.952128 123.974662,115.622812 L123.978213,112.130969 C123.998147,93.520524 124.032948,75.1353312 124.035039,58.0190501 L124.035036,54.8248723 C124.033535,43.1692789 124.015167,32.1442754 123.964471,22.089 C123.926311,15.00276 115.035435,13.6650576 105.340188,13.4715055 L104.530561,13.4579259 C103.854608,13.4486523 103.175854,13.4442795 102.496994,13.4432656 L101.682485,13.4435625 C101.275377,13.4444184 100.868619,13.4462615 100.462794,13.4487587 L99.6525594,13.4545264 C97.765717,13.4695588 95.9076314,13.494 94.1374714,13.494 C91.0094714,13.494 91.4724714,15.204 91.4724714,15.204 L91.4724714,15.204 L91.4724714,134.709 C91.4724714,142.873 100.439471,146.584 106.683471,149.094 C106.683471,149.094 108.503471,151.104 104.753471,150.474 L104.753471,150.474 L36.8074714,150.474 C33.0504714,150.944 35.5674714,148.916 35.5674714,148.916 C41.6564714,146.577 49.1444714,142.349 49.3044714,134.854 C49.3722714,131.6692 49.3993914,119.64109 49.4041374,104.362288 L49.4040378,93.2072272 C49.3944841,59.6749078 49.3100862,18.0980022 49.3047372,15.4919929 L49.3044714,15.363 C49.3044714,15.363 48.8334714,13.521 46.3354714,13.494 C32.9094714,13.342 23.1014714,13.38 14.5854714,23.116 C11.3514714,26.832 9.61447145,31.374 8.38347145,34.104 C7.60247145,35.833 6.49447145,36.303 6.49447145,33.482 C6.49447145,22.862 6.82447145,13.957 7.60247145,3.811 C7.97747145,-0.986 11.1924714,2.559 19.9394714,2.559 C70.3924714,2.559 114.945471,1.763 160.301471,0 Z M295.004971,57.697 C284.539971,57.697 277.183971,71.6 278.132971,86.424 L278.132971,86.424 L311.876971,86.424 C312.497971,70.501 305.149971,57.697 295.004971,57.697 Z" id="Combined-Shape" fill="#000000"/><path d="M1022.74387,227.3447 C1023.52387,227.3447 1024.13487,227.1777 1024.55287,226.8407 C1024.97587,226.5027 1025.18887,226.0447 1025.18887,225.4487 L1025.18887,225.3617 C1025.18887,224.7137 1024.95787,224.2357 1024.50687,223.9057 C1024.06287,223.5877 1023.45987,223.4277 1022.69787,223.4277 L1019.79387,223.4277 L1019.79387,227.3447 L1022.74387,227.3447 Z M1015.27387,219.5457 L1022.82287,219.5457 C1024.11587,219.5457 1025.21587,219.7047 1026.10987,220.0277 C1027.01287,220.3537 1027.74087,220.7967 1028.30887,221.3547 C1029.23787,222.2867 1029.70087,223.5157 1029.70087,225.0657 L1029.70087,225.1567 C1029.70087,226.4157 1029.39687,227.4587 1028.78687,228.2777 C1028.18387,229.0887 1027.37687,229.7027 1026.36787,230.1277 L1030.24687,235.7807 L1025.05687,235.7807 L1021.76887,230.8447 L1021.68887,230.8447 L1019.79387,230.8447 L1019.79387,235.7807 L1015.27387,235.7807 L1015.27387,219.5457 Z M1021.93587,241.7707 C1023.87687,241.7707 1025.66687,241.4077 1027.31587,240.6907 C1028.95387,239.9737 1030.38387,238.9887 1031.59687,237.7367 C1032.80287,236.4897 1033.74987,235.0377 1034.44787,233.3687 C1035.13087,231.7127 1035.47487,229.9567 1035.47487,228.1067 L1035.47487,228.0277 C1035.47487,226.1657 1035.13087,224.4027 1034.44787,222.7457 C1033.74987,221.0887 1032.80887,219.6447 1031.61187,218.4307 C1030.42487,217.2107 1028.99987,216.2317 1027.36087,215.5157 C1025.71287,214.7987 1023.93787,214.4427 1022.02687,214.4427 C1020.08587,214.4427 1018.29687,214.7987 1016.64687,215.5157 C1014.99787,216.2317 1013.57187,217.2177 1012.36587,218.4657 C1011.16087,219.7237 1010.20487,221.1797 1009.52287,222.8367 C1008.83287,224.4937 1008.48787,226.2447 1008.48787,228.1067 L1008.48787,228.1867 C1008.48787,230.0477 1008.82087,231.8037 1009.49587,233.4607 C1010.17887,235.1247 1011.11887,236.5617 1012.32487,237.7827 C1013.53787,239.0077 1014.95587,239.9737 1016.60087,240.6907 C1018.25087,241.4077 1020.03287,241.7707 1021.93587,241.7707 L1021.93587,241.7707 Z M1021.93587,243.4547 C1019.80187,243.4547 1017.80687,243.0447 1015.95687,242.2297 C1014.09587,241.4147 1012.48387,240.3157 1011.12687,238.9157 C1009.76187,237.5287 1008.68087,235.9137 1007.89187,234.0707 C1007.11087,232.2357 1006.71387,230.2677 1006.71387,228.1867 L1006.71387,228.1067 C1006.71387,226.0257 1007.11087,224.0577 1007.89187,222.2077 C1008.68087,220.3457 1009.76887,218.7157 1011.14487,217.3127 C1012.51787,215.9067 1014.14787,214.7877 1016.01687,213.9757 C1017.87887,213.1687 1019.88887,212.7597 1022.02687,212.7597 C1024.16187,212.7597 1026.15587,213.1687 1028.00587,213.9837 C1029.86787,214.7877 1031.47887,215.8947 1032.83687,217.2897 C1034.20087,218.6777 1035.28187,220.3007 1036.06987,222.1357 C1036.85087,223.9777 1037.24987,225.9457 1037.24987,228.0277 L1037.24987,228.1067 C1037.24987,230.1887 1036.85087,232.1567 1036.06987,234.0067 C1035.28187,235.8607 1034.18987,237.4977 1032.81687,238.9007 C1031.44487,240.3077 1029.81387,241.4147 1027.94487,242.2297 C1026.07587,243.0447 1024.06987,243.4547 1021.93587,243.4547 L1021.93587,243.4547 Z" id="Fill-20" fill="#000000"/><path d="M376.096048,93.9107594 C401.166586,93.9199928 415.543248,94.0231 443.890471,94.0231 C460.750471,94.0231 476.204471,98.8341 487.768471,108.5441 C505.777611,123.65226 516.942125,133.474151 527.641814,142.746543 L528.676031,143.642314 C528.84823,143.791377 529.020362,143.940336 529.192453,144.089212 L530.224726,144.981626 C530.568797,145.27887 530.91292,145.57594 531.257309,145.872995 L532.291487,146.764272 C537.29594,151.073424 542.401311,155.41279 548.260471,160.2671 C549.136471,160.9951 548.890471,160.8171 549.766471,161.4991 C551.168471,162.5801 550.858471,163.9981 548.829471,162.5801 C531.415471,150.5191 506.821471,155.4031 486.430471,157.7681 C460.599471,160.7521 437.456471,154.8601 421.956471,140.7831 C405.938471,126.1901 393.923471,111.2061 380.330471,99.0201 C378.389471,97.2761 374.870471,95.4221 372.054471,94.7931 C371.671471,94.7251 370.485471,93.9101 372.497471,93.9101 L372.497471,93.9101 Z M492.099394,93.9107594 C517.186574,93.9199928 531.564148,94.0231 559.911371,94.0231 C576.778371,94.0231 592.232371,98.8341 603.803371,108.5441 C623.840281,125.35802 635.413086,135.624613 647.299873,145.872995 L648.334512,146.764272 L648.334512,146.764272 L649.372016,147.65641 C654.049156,151.674407 658.852291,155.74757 664.307371,160.2671 C665.183371,160.9951 664.944371,160.8171 665.805371,161.4991 C667.223371,162.5801 666.911371,163.9981 664.865371,162.5801 C647.443371,150.5191 622.856371,155.4031 602.450371,157.7681 C576.630371,160.7521 553.476371,154.8601 537.977371,140.7831 C521.951371,126.1901 509.916371,111.2061 496.339371,99.0201 C494.402371,97.2761 490.872371,95.4221 488.047371,94.7931 C487.683371,94.7251 486.496371,93.9101 488.498371,93.9101 L488.498371,93.9101 Z M608.097883,93.9107594 C633.177834,93.9199928 647.561852,94.0231 675.889971,94.0231 C692.761971,94.0231 708.204971,98.8341 719.767971,108.5441 C738.653071,124.3833 750.010911,134.41228 761.200892,144.089212 L762.233551,144.981626 C762.749857,145.427492 763.266287,145.872966 763.783565,146.318585 L764.819468,147.210174 C764.992379,147.358857 765.165437,147.507596 765.33867,147.65641 L766.380378,148.550366 C770.731346,152.280287 775.224971,156.08235 780.279971,160.2671 C781.155971,160.9951 780.900971,160.8171 781.768971,161.4991 C783.187971,162.5801 782.857971,163.9981 780.829971,162.5801 C766.376351,152.56947 746.967474,154.23225 729.133718,156.439179 L727.847366,156.599508 C724.638801,157.001922 721.486821,157.41335 718.429971,157.7681 C692.609971,160.7521 669.448971,154.8601 653.967971,140.7831 C637.956971,126.1901 625.915971,111.2061 612.338971,99.0201 C610.400971,97.2761 606.870971,95.4221 604.064971,94.7931 C603.681971,94.7251 602.495971,93.9101 604.497971,93.9101 L604.497971,93.9101 Z M724.093983,93.9107594 C749.173934,93.9199928 763.557952,94.0231 791.886071,94.0231 C808.758071,94.0231 824.201071,98.8341 835.764071,108.5441 C842.155951,113.90506 847.685924,118.600423 852.639079,122.841819 L853.975853,123.987466 C863.236157,131.930439 870.488633,138.288987 877.716915,144.535609 L878.749576,145.427382 C878.92173,145.575936 879.093924,145.724467 879.266185,145.872995 L880.300762,146.764272 L880.300762,146.764272 L881.338223,147.65641 C886.015213,151.674407 890.818831,155.74757 896.276071,160.2671 C897.152071,160.9951 896.897071,160.8171 897.773071,161.4991 C899.184071,162.5801 898.854071,163.9981 896.833071,162.5801 C879.422071,150.5191 854.824071,155.4031 834.437071,157.7681 C808.606071,160.7521 785.452071,154.8601 769.964071,140.7831 C753.953071,126.1901 741.920071,111.2061 728.335071,99.0201 C726.405071,97.2761 722.879071,95.4221 720.061071,94.7931 C719.686071,94.7251 718.500071,93.9101 720.494071,93.9101 L720.494071,93.9101 Z M898.286171,45.7115 C933.023171,42.9405 950.228171,69.9585 979.816171,82.2725 C988.730171,85.9845 997.306171,88.0505 1006.53117,88.9835 C997.306171,89.9275 988.730171,91.9865 979.816171,95.6975 C969.164491,100.13486 960.117648,106.474878 951.279928,112.643227 L949.808671,113.66934 C934.620751,124.248732 919.823111,133.97714 898.286171,132.2585 C869.001171,129.9085 858.600171,116.0045 832.053171,96.3275 C828.243171,93.4995 824.007171,90.9325 820.648171,88.9835 C824.007171,87.0385 828.243171,84.4715 832.053171,81.6435 C858.600171,61.9545 869.001171,48.0625 898.286171,45.7115 Z M548.828771,14.6469 C550.857771,13.2359 551.168771,14.6469 549.765771,15.7339 C548.890771,16.4089 549.140771,16.2309 548.260771,16.9669 C540.988411,22.99006 534.876619,28.2203272 528.677161,33.5848496 L527.642892,34.4803388 C521.257255,40.0121484 514.705761,45.740185 506.63324,52.671025 L505.310636,53.8056472 C500.187904,58.1966666 494.449121,63.07349 487.768771,68.6779 C476.204771,78.3919 460.601771,83.3619 443.737771,83.3619 L443.737771,83.3619 L437.429909,83.3612059 C437.024603,83.3611157 436.622188,83.3610173 436.222573,83.3609108 L433.857767,83.360178 C422.583275,83.3561937 413.51108,83.3459507 404.421109,83.3364298 L402.539443,83.3344725 C395.319837,83.3270268 387.992742,83.3203382 379.450625,83.3178892 L376.043586,83.317155 C375.657589,83.3170992 375.269023,83.3170523 374.877796,83.3170145 L372.497771,83.3169 C370.483771,83.3169 371.674771,82.5129 372.053771,82.4219 C374.870771,81.8039 378.389771,79.9499 380.330771,78.2129 C393.922771,66.0199 405.937771,51.0289 421.956771,36.4509 C437.455771,22.3619 460.601771,16.4629 486.430771,19.4649 C506.819771,21.8239 531.414771,26.6949 548.828771,14.6469 Z M780.830571,14.6459 C782.859571,13.2349 783.185571,14.6459 781.767571,15.7339 C780.899571,16.4089 781.156571,16.2309 780.280571,16.9659 C774.820361,21.48327 770.01545,25.5549294 765.338174,29.5717826 L764.300666,30.4636733 C752.043274,41.0107986 740.398201,51.37917 719.770571,68.6769 C708.205571,78.3909 692.593571,83.3609 675.729571,83.3609 L675.729571,83.3609 L669.425232,83.3602059 C669.020145,83.3601157 668.617947,83.3600173 668.218546,83.3599108 L665.854986,83.359178 C654.586339,83.3551937 645.517443,83.3449507 636.428224,83.3354298 L634.546678,83.3334725 C627.32739,83.3260268 619.999012,83.3193382 611.45401,83.3168892 L608.04576,83.316155 C607.65962,83.3160992 607.270907,83.3160523 606.87953,83.3160145 L604.498571,83.3159 C602.493571,83.3159 603.684571,82.5119 604.063571,82.4209 C606.872571,81.8029 610.399571,79.9489 612.339571,78.2129 C625.912571,66.0199 637.954571,51.0279 653.969571,36.4499 C669.449571,22.3649 692.611571,16.4619 718.431571,19.4639 C738.810571,21.8229 763.416571,26.6949 780.830571,14.6459 Z M896.834671,14.6459 C898.856671,13.2349 899.182671,14.6459 897.774671,15.7339 C896.896671,16.4089 897.153671,16.2309 896.277671,16.9659 C891.022551,21.31596 886.373533,25.2527136 881.860054,29.1252202 L880.820674,30.0178939 C879.43747,31.2070286 878.063672,32.3926229 876.685571,33.584845 L875.650975,34.4804131 C864.947381,43.7507424 853.779531,53.57184 835.766671,68.6769 C824.202671,78.3909 808.607671,83.3609 791.725671,83.3609 L791.725671,83.3609 L785.421522,83.3602059 C785.016446,83.3601157 784.614258,83.3600173 784.214867,83.3599108 L781.851362,83.359178 C771.360096,83.3554685 762.775387,83.3463337 754.30579,83.3374076 L752.424825,83.3354298 L752.424825,83.3354298 L750.54328,83.3334725 C743.323999,83.3260268 735.995662,83.3193382 727.450889,83.3168892 L724.042739,83.316155 C723.656611,83.3160992 723.267911,83.3160523 722.876547,83.3160145 L720.495671,83.3159 C718.501671,83.3159 719.688671,82.5119 720.059671,82.4209 C722.876671,81.8029 726.406671,79.9489 728.336671,78.2129 C741.920671,66.0199 753.950671,51.0279 769.966671,36.4499 C785.453671,22.3649 808.607671,16.4619 834.435671,19.4639 C854.825671,21.8229 879.420671,26.6949 896.834671,14.6459 Z M664.865571,14.6459 C666.913571,13.2349 667.220571,14.6459 665.806571,15.7339 C664.945571,16.4089 665.184571,16.2309 664.308571,16.9659 C658.853491,21.48327 654.050356,25.5549294 649.373236,29.5717826 L648.335736,30.4636733 C647.127241,31.5035308 645.924598,32.5416506 644.718642,33.584845 L643.683939,34.4804131 C632.979213,43.7507424 621.809131,53.57184 603.805571,68.6769 C592.233571,78.3909 576.612571,83.3609 559.756571,83.3609 L559.756571,83.3609 L553.448339,83.3602059 C553.043012,83.3601157 552.640576,83.3600173 552.240943,83.3599108 L549.876027,83.359178 C538.60103,83.3551937 529.528683,83.3449507 520.436897,83.3354298 L518.554831,83.3334725 C511.333595,83.3260268 504.003737,83.3193382 495.456718,83.3168892 L492.047648,83.316155 C491.661413,83.3160992 491.272604,83.3160523 490.88113,83.3160145 L488.499571,83.3159 C486.494571,83.3159 487.685571,82.5119 488.044571,82.4209 C490.873571,81.8029 494.399571,79.9489 496.340571,78.2129 C509.913571,66.0199 521.947571,51.0279 537.978571,36.4499 C553.473571,22.3649 576.627571,16.4619 602.447571,19.4639 C622.857571,21.8229 647.444571,26.6949 664.865571,14.6459 Z" id="Combined-Shape" fill="#F5A71C"/></g></g></g></svg>