<svg xmlns="http://www.w3.org/2000/svg" fill="none" viewBox="0 0 216 44" height="32" width="161"><path fill="#1A1919" fill-rule="evenodd" d="M60.79 23.34h13.608c2.39 0 3.356.333 3.75.616.215.15.338.316.437.586.11.306.167.746.167 1.309 0 .627-.065 1.114-.19 1.44-.077.197-.17.335-.307.46q-.347.307-1.195.464c-.63.116-1.501.171-2.743.171H60.79zm17.516-4.701c-.14.272-.357.477-1.002.653-.65.175-1.649.257-3.142.257H60.79v-3.78h13.467c2.415 0 3.372.263 3.753.485.213.123.287.222.351.365.06.139.131.413.13.937.001.596-.1.918-.185 1.083m2.575 2.787q.177-.135.335-.287c.873-.842 1.314-2.057 1.31-3.609 0-.942-.132-1.728-.404-2.4-.456-1.15-1.395-2.025-2.715-2.528-1.241-.479-2.867-.701-5.115-.701H56.835v20.356H74.81c2.662-.001 4.516-.433 5.842-1.362a4.8 4.8 0 0 0 1.648-2.035c.343-.791.51-1.7.51-2.776 0-1.746-.403-3.06-1.234-4.021a4.3 4.3 0 0 0-.694-.637M93.558 23.442h16.269v-3.815H93.558V15.77h18.961V11.9H89.602v20.357h23.048v-3.871H93.558zM123.282 12.62c-2.08.695-3.564 1.962-4.409 3.762-.681 1.442-.985 3.198-.985 5.696 0 2.462.242 5.257 2.042 7.32.842.965 1.986 1.69 3.401 2.157 1.428.471 3.136.7 5.224.702h14.737v-3.871h-14.477c-1.557 0-2.784-.13-3.75-.399-1.282-.36-2.04-.906-2.53-1.826-.475-.888-.695-2.185-.692-4.083 0-1.258.094-2.238.289-2.997.304-1.187.82-1.912 1.728-2.427 1.036-.587 2.692-.884 4.923-.884h14.509V11.9h-14.737c-2.107 0-3.832.236-5.273.72M179.27 11.9h-7.191l-17.003 9.765v-9.764h-3.956v20.356h3.956v-6.221l5.711-3.317 12.269 9.538h6.253l-14.863-11.58zM215.627 23.358c-.436-1.274-1.344-2.252-2.622-2.825-1.234-.563-2.848-.826-5.081-.83h-9.837c-.896 0-1.625-.055-2.169-.163-.446-.089-.687-.194-.821-.272-.245-.137-.325-.255-.402-.446-.096-.248-.145-.648-.145-1.189 0-.43.038-.753.112-.959.086-.236.172-.392.637-.577.559-.217 1.503-.328 2.807-.328h16.962v-3.868h-17.224c-2.497 0-4.298.476-5.505 1.455-.62.5-1.085 1.14-1.383 1.91-.26.682-.388 1.448-.388 2.342 0 .993.123 1.824.374 2.541.421 1.196 1.276 2.102 2.468 2.618 1.084.479 2.485.702 4.409.703h9.680000000000001c1.981 0 3.278.187 3.855.555.238.15.367.307.476.577q.186.46.187 1.36c.005.755-.098 1.178-.185 1.4a1 1 0 0 1-.285.423q-.359.301-1.222.443c-.645.109-1.514.158-2.819.158h-16.314v3.872h16.625c2.927-.006 4.739-.403 6.062-1.33a4.62 4.62 0 0 0 1.644-2.096c.319-.793.475-1.734.477-2.876-.002-1.021-.123-1.871-.373-2.598M181.184 17.236h4.065l1.704-5.407h-4.065zM46.918 44h.951V.086h-.951z" clip-rule="evenodd"></path><path fill="#005E3C" fill-rule="evenodd" d="M0 7.615h37.665a12 12 0 0 0-.709-1.783H0zM0 10.207h38.16c-.05-.637-.151-1.27-.301-1.89H0zM0 16.768h36.695c.421-.71.752-1.463.994-2.24H0zM0 13.285h37.996c.133-.712.2-1.436.2-2.16H0zM0 43.941h28.498c12.186-.216 13.352-20.73.235-22.003 2.463-.444 4.411-1.405 5.886-2.685H0zM0 5.238h36.64a11 11 0 0 0-1.129-1.62H0zM0 3.132h35.072c-.52-.544-1.1-1.036-1.74-1.458H0zM27.913 0H0v1.35h32.801C31.412.554 29.776.062 27.913 0" clip-rule="evenodd"></path><path fill="#005E3C" fill-rule="evenodd" d="M36.382 42.472h.183c.208 0 .384-.076.384-.272 0-.138-.1-.276-.384-.276a1.4 1.4 0 0 0-.183.012zm0 .872h-.252v-1.577c.133-.019.259-.037.448-.037.239 0 .396.05.49.118q.145.103.146.328c0 .206-.139.333-.308.383v.012c.138.025.232.152.264.383.038.245.076.34.1.39h-.264c-.038-.05-.075-.194-.107-.403-.038-.2-.139-.275-.34-.275h-.177zm.265-2.017c-.624 0-1.134.535-1.134 1.194 0 .673.51 1.2 1.14 1.2.63.007 1.134-.527 1.134-1.193s-.504-1.201-1.134-1.201zm.006-.22c.775 0 1.393.628 1.393 1.413 0 .8-.618 1.421-1.398 1.421a1.405 1.405 0 0 1-1.407-1.42c0-.786.63-1.415 1.407-1.415z" clip-rule="evenodd"></path><path fill="#FFDB00" fill-rule="evenodd" d="M13.17 1.676c2.383 18.148 14.773 15.51 4.528 41.703-.069.207.194.309.277.562H15.14c.083-.467.585-.706.585-.706 3.855-2.271 2.944-17.133-1.683-21.441-5.15-4.796-.871-20.118-.871-20.118" clip-rule="evenodd"></path></svg>