<?xml version="1.0" encoding="utf-8"?>
<!-- Generator: Adobe Illustrator 26.3.1, SVG Export Plug-In . SVG Version: 6.00 Build 0)  -->
<svg version="1.1" id="Layer_1" xmlns="http://www.w3.org/2000/svg" xmlns:xlink="http://www.w3.org/1999/xlink" x="0px" y="0px"
	 viewBox="0 0 3024 576" style="enable-background:new 0 0 3024 576;" xml:space="preserve">
<style type="text/css">
	.st0{fill:#1A1818;}
	.st1{fill:#D0B787;}
	.st2{fill:#FFFFFF;}
</style>
<g>
	<path class="st0" d="M509.14,68.65h-65.02L312.52,387.84c-9.48-16.03-22.37-40.21-38.66-72.54c-12.1-23.09-22.23-39.5-30.39-49.24
		c-8.17-9.74-17.51-17.43-28.03-23.09c19-8.01,33.33-18.96,42.99-32.86c9.66-13.9,14.49-30.19,14.49-48.88
		c0-27.48-9.74-49.78-29.21-66.9c-19.48-17.12-44.68-25.68-75.62-25.68H49.58v329.1h63.61V258.76h23.09
		c10.21,0,19.24,2.55,27.09,7.66c7.85,5.11,16.02,13.74,24.5,25.91c8.48,12.17,21.83,35.77,40.05,70.79
		c8.32,15.86,14.92,27.41,19.79,34.63H375.1l31.8-80.1h146.29l34.16,80.1h67.14L509.14,68.65z M192.93,196.57
		c-9.5,8.33-22.58,12.49-39.22,12.49h-40.52v-91.64h39.58c17.43,0,30.86,3.73,40.28,11.19c9.42,7.46,14.13,18.73,14.13,33.81
		C207.18,176.86,202.43,188.25,192.93,196.57z M426.22,269.36l50.65-130.27l55.6,130.27H426.22z"/>
	<path class="st0" d="M885.95,68.65v49.71H736.83v86.46h142.76v49.71H736.83v93.52h152.42v49.71H673.22V68.65H885.95z"/>
	<path class="st0" d="M1102.71,64.41c18.69,0,36.99,2.12,54.89,6.36c17.9,4.24,37.22,11.47,57.95,21.67v59.84
		c-20.26-11.62-38.99-20.02-56.18-25.21s-35.14-7.77-53.83-7.77c-23.4,0-44.52,4.83-63.37,14.49
		c-18.85,9.66-33.49,23.29-43.94,40.87c-10.45,17.59-15.67,37.14-15.67,58.66c0,21.99,5.18,41.7,15.55,59.13
		c10.37,17.43,24.97,30.9,43.82,40.4c18.85,9.5,40.05,14.25,63.61,14.25c18.06,0,35.3-2.59,51.71-7.77
		c16.41-5.18,37.1-14.52,62.07-28.03v59.84c-21.36,11.15-40.99,19.08-58.89,23.79c-17.9,4.71-38.79,7.07-62.66,7.07
		c-34.71,0-65.73-6.91-93.05-20.73c-27.33-13.82-48.8-33.72-64.43-59.72c-15.63-25.99-23.44-54.45-23.44-85.4
		c0-33.14,8.05-62.9,24.15-89.28c16.1-26.38,38.24-46.72,66.43-61.01C1035.61,71.56,1067.38,64.41,1102.71,64.41z"/>
	<path class="st0" d="M1942.37,435.48l-1.28-0.6l23.68-52.22l-56.56-25.65L1896.88,382l-17.12-7.76l6-13.22l-39.14-17.75
		l-17.91,39.5l-228.38-105.93c3.77-13.97,5.66-28.47,5.66-43.51c0-31.57-8.09-60.58-24.26-87.05
		c-16.18-26.46-37.89-46.72-65.14-60.78c-27.25-14.05-57.92-21.08-91.99-21.08c-35.49,0-66.9,7.34-94.23,22.03
		c-27.33,14.69-48.76,35.3-64.31,61.84c-15.55,26.54-23.32,54.89-23.32,85.04c0,31.25,7.77,59.8,23.32,85.63
		c15.55,25.84,37.26,46.14,65.14,60.9c27.88,14.76,58.85,22.14,92.94,22.14c34.55,0,65.61-7.26,93.17-21.79
		c18.63-9.81,34.55-22.33,47.8-37.53l345.05,159.34c8.72,4.03,19.06,0.42,23.39-8.15l17.25-34.17
		C1955.32,450.69,1951.51,439.73,1942.37,435.48z M1507.86,315.3c-21.75,21.2-49.51,31.8-83.28,31.8c-22.3,0-42.29-4.79-59.95-14.37
		c-17.67-9.58-31.45-23.09-41.34-40.52c-9.89-17.43-14.84-37.06-14.84-58.89c0-21.99,4.79-41.66,14.37-59.01
		c9.58-17.35,23.28-30.86,41.11-40.52c17.82-9.66,37.89-14.49,60.19-14.49c22.3,0,42.36,4.79,60.19,14.37
		c17.82,9.58,31.64,23.13,41.46,40.64c9.81,17.51,14.72,37.18,14.72,59.01C1540.49,266.77,1529.61,294.1,1507.86,315.3z"/>
	<polygon class="st1" points="2729.74,86.63 2525.42,86.63 2525.42,112.4 2613.06,112.4 2613.06,352.81 2641.67,352.81 
		2641.67,112.4 2729.74,112.4 	"/>
	<polygon class="st1" points="1914.59,325.76 1914.59,228.73 2052.98,228.73 2052.98,201.69 1914.59,201.69 1914.59,113.67 
		2061.47,113.67 2061.47,86.63 1884.37,86.63 1884.37,352.81 2069.95,352.81 2069.95,325.76 	"/>
	<polygon class="st1" points="2396.57,325.76 2396.57,86.63 2366.35,86.63 2366.35,352.81 2528.6,352.81 2528.6,325.76 	"/>
	<path class="st1" d="M2300.34,352.81h30.19L2234.2,86.63h-39.68l-97.34,266.18h29.85l29.7-82.35h114.04L2300.34,352.81z
		 M2165.65,245.7l48.2-133.64l48.01,133.64H2165.65z"/>
	<polygon class="st1" points="2942.75,85.27 2866.03,219.72 2790.79,86.63 2756.88,86.63 2851.73,244.68 2851.73,352.81 
		2880.34,352.81 2880.34,244.68 2974.97,85.27 	"/>
	<path class="st1" d="M1826.62,324.41c0-11.21,0-40.21,0-40.21c0-38.74-13.89-51.9-33.14-56.77c8.53-3.9,36.31-23.39,36.31-67.98
		s-42.64-72.81-78.46-72.81h-109.37v266.18h27.51V238.39h81.62c41.42,0,47.27,28.27,47.27,44.35v40.94c0,6.82,2.44,23.15,6.17,29.13
		h30.86C1832.96,349.77,1826.62,335.61,1826.62,324.41z M1749.38,212.81h-79.91V112.17h80.4c31.68,0,51.41,21.2,51.41,49.71
		S1776.67,212.81,1749.38,212.81z"/>
	<g>
		<path class="st0" d="M49.03,413.93h25.03c17.78,0,27.25,7.72,27.25,23.16c0,11.34-5.73,17.31-14.97,20.82v0.58l20.47,35.55H93.36
			l-18.71-33.33H61.08v33.33H49.03V413.93z M72.89,451.83c11.23,0,15.79-4.68,15.79-14.38c0-9.71-4.8-13.68-15.91-13.68h-11.7v28.07
			H72.89z"/>
		<path class="st0" d="M110.9,464.93v-1.52c0-20.47,12.28-30.17,26.67-30.17c16.84,0,24.68,9.71,24.68,28.54v5.61h-39.53
			c0.82,13.68,7.49,18.24,19.18,18.24c7.84,0,12.98-1.87,18.48-4.33v8.07c-3.74,2.69-10.64,5.73-20.58,5.73
			C120.49,495.1,110.9,483.64,110.9,464.93z M122.71,458.96h27.48c0-12.05-4.44-16.61-13.1-16.61
			C130.78,442.35,123.65,445.63,122.71,458.96z"/>
		<path class="st0" d="M171.6,434.4h11.11v4.8h0.47c3.63-3.39,9.82-5.97,17.08-5.97c12.98,0,24.33,7.13,24.33,29.12v1.64
			c0,22.11-10.53,30.41-26.9,30.41c-6.67,0-11.46-1.75-14.62-3.51v20.7H171.6V434.4z M212.54,465.51v-2.46
			c0-15.55-5.61-20.12-15.67-20.12c-6.32,0-11.34,1.99-13.8,3.86v34.85c2.46,1.87,7.49,3.74,13.22,3.74
			C206.57,485.39,212.54,480.72,212.54,465.51z"/>
		<path class="st0" d="M233.94,477.67V434.4h11.58v41.29c0,7.02,2.34,9.71,10.41,9.71c5.85,0,10.53-1.99,14.62-3.86V434.4h11.46
			v59.65h-9.82l-1.17-5.15h-0.58c-4.91,3.51-10.88,6.2-18.36,6.2C240.37,495.1,233.94,489.25,233.94,477.67z"/>
		<path class="st0" d="M298.39,479.66v-36.02h-8.42v-9.24h8.42v-14.03h11.58v14.03h14.39v9.24h-14.39v34.38
			c0,5.38,1.75,7.37,8.19,7.37c2.46,0,5.03-0.35,7.37-0.7v7.72c-2.46,1.05-5.15,2.22-10.64,2.22
			C304.94,494.63,298.39,490.54,298.39,479.66z"/>
		<path class="st0" d="M330.78,478.14c0-10.64,7.02-15.91,18.6-17.43l14.97-1.75v-5.15c0-8.89-3.74-10.88-14.27-10.88
			c-5.85,0-10.76,0.94-14.39,1.75v-8.07c5.5-2.22,11.58-3.39,18.95-3.39c13.45,0,21.29,5.61,21.29,17.66v43.16h-9.47l-1.05-5.03
			h-0.7c-2.81,3.51-7.72,6.08-15.44,6.08C338.5,495.1,330.78,489.72,330.78,478.14z M364.35,482.82v-15.91l-12.4,1.29
			c-6.32,0.7-9.47,3.27-9.47,9.47c0,6.08,3.86,9.01,9.82,9.01C357.21,486.68,362.01,485.04,364.35,482.82z"/>
		<path class="st0" d="M391.83,479.66v-36.02h-8.42v-9.24h8.42v-14.03h11.58v14.03h14.39v9.24h-14.39v34.38
			c0,5.38,1.75,7.37,8.19,7.37c2.46,0,5.03-0.35,7.37-0.7v7.72c-2.46,1.05-5.15,2.22-10.64,2.22
			C398.38,494.63,391.83,490.54,391.83,479.66z"/>
		<path class="st0" d="M428.09,412.06h11.7v11.23h-11.7V412.06z M428.21,434.4h11.46v59.65h-11.46V434.4z"/>
		<path class="st0" d="M449.73,465.51v-1.99c0-18.95,11.23-30.29,27.84-30.29c17.31,0,27.48,11.11,27.48,29.94v1.75
			c0,18.95-11.34,30.17-27.6,30.17C459.79,495.1,449.73,484.11,449.73,465.51z M493,466.1v-3.16c0-15.79-7.02-20.47-15.67-20.47
			c-10.06,0-15.79,6.9-15.79,20v3.16c0,15.79,7.13,20.47,16.02,20.47C487.27,486.09,493,479.19,493,466.1z"/>
		<path class="st0" d="M514.52,434.4h11.11v5.15h0.47c5.03-3.51,12.75-6.32,20-6.32c11.58,0,17.19,4.8,17.19,16.37v44.44h-11.58
			v-41.75c0-6.55-1.87-9.24-10.88-9.24c-5.03,0-10.76,1.75-14.85,3.74v47.25h-11.46V434.4z"/>
		<path class="st0" d="M576.51,482.7h12.87v12.63h-12.87V482.7z"/>
		<path class="st0" d="M635.34,413.93h25.03c17.78,0,27.25,7.72,27.25,23.16c0,11.34-5.73,17.31-14.97,20.82v0.58l20.47,35.55
			h-13.45l-18.71-33.33h-13.57v33.33h-12.05V413.93z M659.2,451.83c11.23,0,15.79-4.68,15.79-14.38c0-9.71-4.79-13.68-15.91-13.68
			h-11.7v28.07H659.2z"/>
		<path class="st0" d="M697.21,464.93v-1.52c0-20.47,12.28-30.17,26.67-30.17c16.84,0,24.68,9.71,24.68,28.54v5.61h-39.53
			c0.82,13.68,7.49,18.24,19.18,18.24c7.84,0,12.98-1.87,18.48-4.33v8.07c-3.74,2.69-10.64,5.73-20.58,5.73
			C706.8,495.1,697.21,483.64,697.21,464.93z M709.02,458.96h27.48c0-12.05-4.44-16.61-13.1-16.61
			C717.09,442.35,709.96,445.63,709.02,458.96z"/>
		<path class="st0" d="M758.26,408.67h11.46v85.38h-11.46V408.67z"/>
		<path class="st0" d="M785.86,412.06h11.7v11.23h-11.7V412.06z M785.98,434.4h11.46v59.65h-11.46V434.4z"/>
		<path class="st0" d="M807.38,478.14c0-10.64,7.02-15.91,18.6-17.43l14.97-1.75v-5.15c0-8.89-3.74-10.88-14.27-10.88
			c-5.85,0-10.76,0.94-14.39,1.75v-8.07c5.5-2.22,11.58-3.39,18.95-3.39c13.45,0,21.29,5.61,21.29,17.66v43.16h-9.47l-1.05-5.03
			h-0.7c-2.81,3.51-7.72,6.08-15.44,6.08C815.1,495.1,807.38,489.72,807.38,478.14z M840.95,482.82v-15.91l-12.4,1.29
			c-6.32,0.7-9.47,3.27-9.47,9.47c0,6.08,3.86,9.01,9.82,9.01C833.82,486.68,838.61,485.04,840.95,482.82z"/>
		<path class="st0" d="M865.16,492.29v-83.62h11.46v29.59h0.58c4.56-2.81,10.06-5.03,18.01-5.03c10.99,0,22.92,6.78,22.92,29v1.64
			c0,20.23-10.53,31.58-30.53,31.58C880.37,495.45,870.42,494.16,865.16,492.29z M906.1,465.63v-2.46
			c0-15.32-5.15-20.23-16.49-20.23c-5.26,0-10.29,1.87-12.98,3.16v38.13c2.46,0.94,6.08,1.99,11.81,1.99
			C897.79,486.21,906.1,481.77,906.1,465.63z"/>
		<path class="st0" d="M928.09,412.06h11.7v11.23h-11.7V412.06z M928.2,434.4h11.46v59.65H928.2V434.4z"/>
		<path class="st0" d="M953.58,408.67h11.46v85.38h-11.46V408.67z"/>
		<path class="st0" d="M981.19,412.06h11.7v11.23h-11.7V412.06z M981.3,434.4h11.46v59.65H981.3V434.4z"/>
		<path class="st0" d="M1009.61,479.66v-36.02h-8.42v-9.24h8.42v-14.03h11.58v14.03h14.39v9.24h-14.39v34.38
			c0,5.38,1.75,7.37,8.19,7.37c2.46,0,5.03-0.35,7.37-0.7v7.72c-2.46,1.05-5.15,2.22-10.64,2.22
			C1016.16,494.63,1009.61,490.54,1009.61,479.66z"/>
		<path class="st0" d="M1042.47,509.84v-8.07c1.4,0.47,3.63,0.7,5.61,0.7c5.61,0,9.82-0.47,11.58-5.03l2.57-6.67l-22.81-56.37h12.28
			l16.26,41.75h0.23l14.97-41.75h11.23l-23.98,64.68c-4.09,11.23-9.47,12.4-20,12.4C1047.62,511.47,1044.11,510.66,1042.47,509.84z"
			/>
		<path class="st0" d="M1101.89,482.7h12.87v12.63h-12.87V482.7z"/>
		<path class="st0" d="M1160.72,413.93h25.03c17.78,0,27.25,7.72,27.25,23.16c0,11.34-5.73,17.31-14.97,20.82v0.58l20.47,35.55
			h-13.45l-18.71-33.33h-13.57v33.33h-12.05V413.93z M1184.57,451.83c11.23,0,15.79-4.68,15.79-14.38c0-9.71-4.79-13.68-15.91-13.68
			h-11.7v28.07H1184.57z"/>
		<path class="st0" d="M1222.59,464.93v-1.52c0-20.47,12.28-30.17,26.67-30.17c16.84,0,24.68,9.71,24.68,28.54v5.61h-39.53
			c0.82,13.68,7.49,18.24,19.18,18.24c7.84,0,12.98-1.87,18.48-4.33v8.07c-3.74,2.69-10.64,5.73-20.58,5.73
			C1232.18,495.1,1222.59,483.64,1222.59,464.93z M1234.4,458.96h27.48c0-12.05-4.44-16.61-13.1-16.61
			C1242.47,442.35,1235.33,445.63,1234.4,458.96z"/>
		<path class="st0" d="M1279.66,490.77v-8.65c4.91,1.87,9.36,3.74,17.78,3.74c8.54,0,12.28-2.92,12.28-7.95
			c0-4.56-2.22-6.78-9.47-8.42l-5.5-1.52c-8.89-2.11-14.97-6.43-14.97-16.96c0-10.64,6.78-17.78,21.29-17.78
			c8.19,0,13.22,1.75,16.72,3.51v8.89c-3.16-1.29-9.24-2.92-15.79-2.92c-7.48,0-11.23,2.22-11.23,7.37c0,4.56,2.34,6.32,8.3,7.95
			l5.61,1.4c11.7,2.81,16.37,7.02,16.37,17.66c0,11.81-8.42,17.89-21.99,17.89C1291.36,494.98,1284.46,493.7,1279.66,490.77z"/>
		<path class="st0" d="M1330.19,477.67V434.4h11.58v41.29c0,7.02,2.34,9.71,10.41,9.71c5.85,0,10.53-1.99,14.62-3.86V434.4h11.46
			v59.65h-9.82l-1.17-5.15h-0.58c-4.91,3.51-10.88,6.2-18.36,6.2C1336.62,495.1,1330.19,489.25,1330.19,477.67z"/>
		<path class="st0" d="M1391.71,408.67h11.46v85.38h-11.46V408.67z"/>
		<path class="st0" d="M1422.35,479.66v-36.02h-8.42v-9.24h8.42v-14.03h11.58v14.03h14.39v9.24h-14.39v34.38
			c0,5.38,1.76,7.37,8.19,7.37c2.46,0,5.03-0.35,7.37-0.7v7.72c-2.46,1.05-5.15,2.22-10.64,2.22
			C1428.9,494.63,1422.35,490.54,1422.35,479.66z"/>
		<path class="st0" d="M1454.75,490.77v-8.65c4.91,1.87,9.36,3.74,17.78,3.74c8.54,0,12.28-2.92,12.28-7.95
			c0-4.56-2.22-6.78-9.47-8.42l-5.5-1.52c-8.89-2.11-14.97-6.43-14.97-16.96c0-10.64,6.78-17.78,21.29-17.78
			c8.19,0,13.22,1.75,16.72,3.51v8.89c-3.16-1.29-9.24-2.92-15.79-2.92c-7.49,0-11.23,2.22-11.23,7.37c0,4.56,2.34,6.32,8.3,7.95
			l5.61,1.4c11.7,2.81,16.37,7.02,16.37,17.66c0,11.81-8.42,17.89-21.99,17.89C1466.44,494.98,1459.54,493.7,1454.75,490.77z"/>
		<path class="st0" d="M1506.09,482.7h12.86v12.63h-12.86V482.7z"/>
	</g>
</g>
</svg>
