<?xml version="1.0" encoding="UTF-8"?>
<!-- Created with Inkscape (http://www.inkscape.org/) -->
<svg width="304.8mm" height="104.08mm" version="1.1" viewBox="0 0 304.8 104.08" xmlns="http://www.w3.org/2000/svg">
 <defs>
  <clipPath id="clipPath2">
   <path transform="translate(-468.2 -214.08)" d="m0 327.11h898.7v-327.11h-898.7z"/>
  </clipPath>
  <clipPath id="clipPath4">
   <path transform="translate(-456.18 -174)" d="m0 327.11h898.7v-327.11h-898.7z"/>
  </clipPath>
  <clipPath id="clipPath6">
   <path transform="translate(-43.377 -214.57)" d="m0 327.11h898.7v-327.11h-898.7z"/>
  </clipPath>
  <clipPath id="clipPath8">
   <path transform="translate(-193.55 -215.35)" d="m0 327.11h898.7v-327.11h-898.7z"/>
  </clipPath>
  <clipPath id="clipPath10">
   <path transform="translate(-482.97 -163.16)" d="m0 327.11h898.7v-327.11h-898.7z"/>
  </clipPath>
  <clipPath id="clipPath12">
   <path transform="translate(-316.47 -215.35)" d="m0 327.11h898.7v-327.11h-898.7z"/>
  </clipPath>
  <clipPath id="clipPath14">
   <path transform="translate(-222.81 -239.68)" d="m0 327.11h898.7v-327.11h-898.7z"/>
  </clipPath>
  <clipPath id="clipPath16">
   <path transform="translate(-456.41 -219.75)" d="m0 327.11h898.7v-327.11h-898.7z"/>
  </clipPath>
  <clipPath id="clipPath18">
   <path transform="translate(-817.77 -154.56)" d="m0 327.11h898.7v-327.11h-898.7z"/>
  </clipPath>
  <clipPath id="clipPath20">
   <path transform="translate(-675.53 -215.35)" d="m0 327.11h898.7v-327.11h-898.7z"/>
  </clipPath>
  <clipPath id="clipPath22">
   <path transform="translate(-302.44 -227.85)" d="m0 327.11h898.7v-327.11h-898.7z"/>
  </clipPath>
  <clipPath id="clipPath24">
   <path transform="translate(-786.9 -214.57)" d="m0 327.11h898.7v-327.11h-898.7z"/>
  </clipPath>
  <clipPath id="clipPath26">
   <path transform="translate(-534.21 -243.75)" d="m0 327.11h898.7v-327.11h-898.7z"/>
  </clipPath>
  <clipPath id="clipPath28">
   <path transform="translate(-546.22 -227.69)" d="m0 327.11h898.7v-327.11h-898.7z"/>
  </clipPath>
  <clipPath id="clipPath30">
   <path transform="translate(-716.12 -187.16)" d="m0 327.11h898.7v-327.11h-898.7z"/>
  </clipPath>
  <clipPath id="clipPath32">
   <path transform="translate(-361.6 -155.5)" d="m0 327.11h898.7v-327.11h-898.7z"/>
  </clipPath>
  <clipPath id="clipPath34">
   <path transform="translate(-20.497 -190.4)" d="m0 327.11h898.7v-327.11h-898.7z"/>
  </clipPath>
  <clipPath id="clipPath36">
   <path d="m0 327.11h898.7v-327.11h-898.7z"/>
  </clipPath>
  <clipPath id="clipPath38">
   <path d="m0 327.11h898.7v-327.11h-898.7z"/>
  </clipPath>
  <clipPath id="clipPath40">
   <path transform="translate(-454.83 -93.834)" d="m0 327.11h898.7v-327.11h-898.7z"/>
  </clipPath>
  <clipPath id="clipPath42">
   <path transform="translate(-725.44 -91.304)" d="m0 327.11h898.7v-327.11h-898.7z"/>
  </clipPath>
  <clipPath id="clipPath44">
   <path transform="translate(-745.12 -116.03)" d="m0 327.11h898.7v-327.11h-898.7z"/>
  </clipPath>
  <clipPath id="clipPath46">
   <path transform="translate(-647.54 -91.304)" d="m0 327.11h898.7v-327.11h-898.7z"/>
  </clipPath>
  <clipPath id="clipPath48">
   <path transform="translate(-509.52 -118.96)" d="m0 327.11h898.7v-327.11h-898.7z"/>
  </clipPath>
  <clipPath id="clipPath50">
   <path transform="translate(-521.58 -116.03)" d="m0 327.11h898.7v-327.11h-898.7z"/>
  </clipPath>
  <clipPath id="clipPath52">
   <path transform="translate(-326.3 -91.304)" d="m0 327.11h898.7v-327.11h-898.7z"/>
  </clipPath>
  <clipPath id="clipPath54">
   <path transform="translate(-864.31 -109.85)" d="m0 327.11h898.7v-327.11h-898.7z"/>
  </clipPath>
  <clipPath id="clipPath56">
   <path transform="translate(-793.08 -91.304)" d="m0 327.11h898.7v-327.11h-898.7z"/>
  </clipPath>
  <clipPath id="clipPath58">
   <path transform="translate(-387.71 -121.89)" d="m0 327.11h898.7v-327.11h-898.7z"/>
  </clipPath>
  <clipPath id="clipPath60">
   <path transform="translate(-624.53 -112.56)" d="m0 327.11h898.7v-327.11h-898.7z"/>
  </clipPath>
  <clipPath id="clipPath62">
   <path transform="translate(-21.629 -305.98)" d="m0 327.11h898.7v-327.11h-898.7z"/>
  </clipPath>
  <clipPath id="clipPath64">
   <path transform="translate(-77.836 -277.87)" d="m0 327.11h898.7v-327.11h-898.7z"/>
  </clipPath>
  <clipPath id="clipPath66">
   <path transform="translate(-151.73 -283.94)" d="m0 327.11h898.7v-327.11h-898.7z"/>
  </clipPath>
  <clipPath id="clipPath68">
   <path transform="translate(-34.134 -25.474)" d="m0 327.11h898.7v-327.11h-898.7z"/>
  </clipPath>
  <clipPath id="clipPath70">
   <path transform="translate(-74.292 -21.112)" d="m0 327.11h898.7v-327.11h-898.7z"/>
  </clipPath>
  <clipPath id="clipPath72">
   <path transform="translate(-93.57 -42.223)" d="m0 327.11h898.7v-327.11h-898.7z"/>
  </clipPath>
  <clipPath id="clipPath74">
   <path transform="translate(-143.7 -34.009)" d="m0 327.11h898.7v-327.11h-898.7z"/>
  </clipPath>
  <clipPath id="clipPath76">
   <path transform="translate(-171.48 -25.474)" d="m0 327.11h898.7v-327.11h-898.7z"/>
  </clipPath>
  <clipPath id="clipPath78">
   <path transform="translate(-202.01 -27.371)" d="m0 327.11h898.7v-327.11h-898.7z"/>
  </clipPath>
  <clipPath id="clipPath80">
   <path transform="translate(-238.35 -25.474)" d="m0 327.11h898.7v-327.11h-898.7z"/>
  </clipPath>
  <clipPath id="clipPath82">
   <path transform="translate(-269 -21.064)" d="m0 327.11h898.7v-327.11h-898.7z"/>
  </clipPath>
  <clipPath id="clipPath84">
   <path transform="translate(-288.9 -42.223)" d="m0 327.11h898.7v-327.11h-898.7z"/>
  </clipPath>
  <clipPath id="clipPath86">
   <path transform="translate(-339.03 -34.009)" d="m0 327.11h898.7v-327.11h-898.7z"/>
  </clipPath>
  <clipPath id="clipPath88">
   <path transform="translate(-360.25 -42.223)" d="m0 327.11h898.7v-327.11h-898.7z"/>
  </clipPath>
  <clipPath id="clipPath90">
   <path transform="translate(-406.4 -45.771)" d="m0 327.11h898.7v-327.11h-898.7z"/>
  </clipPath>
  <clipPath id="clipPath92">
   <path transform="translate(-433.31 -42.223)" d="m0 327.11h898.7v-327.11h-898.7z"/>
  </clipPath>
  <clipPath id="clipPath94">
   <path transform="translate(-490.04 -20.59)" d="m0 327.11h898.7v-327.11h-898.7z"/>
  </clipPath>
  <clipPath id="clipPath96">
   <path transform="translate(-515.96 -25.474)" d="m0 327.11h898.7v-327.11h-898.7z"/>
  </clipPath>
  <clipPath id="clipPath98">
   <path transform="translate(-546.26 -38.857)" d="m0 327.11h898.7v-327.11h-898.7z"/>
  </clipPath>
  <clipPath id="clipPath100">
   <path transform="translate(-570.94 -42.223)" d="m0 327.11h898.7v-327.11h-898.7z"/>
  </clipPath>
  <clipPath id="clipPath102">
   <path transform="translate(-627.66 -20.59)" d="m0 327.11h898.7v-327.11h-898.7z"/>
  </clipPath>
  <clipPath id="clipPath104">
   <path transform="translate(-653.6 -25.474)" d="m0 327.11h898.7v-327.11h-898.7z"/>
  </clipPath>
  <clipPath id="clipPath106">
   <path transform="translate(-673.25 -42.223)" d="m0 327.11h898.7v-327.11h-898.7z"/>
  </clipPath>
  <clipPath id="clipPath108">
   <path transform="translate(-718.17 -48.948)" d="m0 327.11h898.7v-327.11h-898.7z"/>
  </clipPath>
  <clipPath id="clipPath110">
   <path transform="translate(-734.09 -28.651)" d="m0 327.11h898.7v-327.11h-898.7z"/>
  </clipPath>
  <clipPath id="clipPath112">
   <path transform="translate(-768.32 -38.857)" d="m0 327.11h898.7v-327.11h-898.7z"/>
  </clipPath>
  <clipPath id="clipPath114">
   <path transform="translate(-804.97 -25.528)" d="m0 327.11h898.7v-327.11h-898.7z"/>
  </clipPath>
  <clipPath id="clipPath116">
   <path transform="translate(-872.28 -20.614)" d="m0 327.11h898.7v-327.11h-898.7z"/>
  </clipPath>
 </defs>
 <g transform="translate(13.229 -13.494)" fill="#231f20">
  <path transform="matrix(.35278 0 0 -.35278 146.27 48.077)" d="m0 0c1.387 2.098 2.301 4.357 2.763 6.989 2.248 1.6 3.85 4.193 4.539 7.597 0.634 3.409 0.634 7.771-0.227 13.161 2.698-3.415 4.541-6.989 5.409-10.902 1.152-3.859 1.603-7.597 1.376-11.008-1.611-1.935-4.087-3.902-7.247-5.673-3.217-1.979-7.068-3.902-11.152-5.673h-0.629c2.007 1.605 3.621 3.574 5.168 5.509m-23.571-1.935h-22.88v21.706c0 4.561 0.925 8.259 2.989 11.051 2.009 2.597 5.003 4.033 8.853 4.033h15.35c6.095-0.163 11.096-2.098 14.72-6.002 3.678-3.738 5.464-8.26 5.464-13.769 0.227-5.185-1.786-9.247-5.464-12.334-3.851-3.074-10.172-4.685-19.032-4.685m-28.74 3.205c-1.151-1.771-2.075-4.029-2.765-6.779h-0.857c-0.69 2.75-1.39 5.008-2.532 6.779-1.33 1.804-2.472 3.415-4.084 4.567 1.612 1.76 2.754 4.521 4.084 7.771 1.142 3.411 2.069 8.127 2.983 14.139 0.868-6.012 1.786-10.728 3.171-14.139 1.375-3.25 2.699-6.011 4.537-7.771-1.838-1.152-3.162-2.763-4.537-4.567m56.17-9.531c-2.707 1.112-5.406 1.923-8.398 2.588 2.068 0.652 3.849 0.947 5.464 0.947 1.614 0 3.162-0.295 4.314-0.947 2.931 1.769 6.149 4.521 9.536 8.095 3.397 3.739 5.238 8.424 5.405 14.099-0.167 8.594-3.847 14.756-11.092 18.658-7.249 3.914-16.561 5.674-27.885 5.674h-59.848v-3.575l5.917-0.619c2.242-0.164 4.084-1.48 5.866-3.578 1.841-2.259 2.994-6.487 2.994-12.488v-26.266c1.092 0.652 2.471 0.947 3.849 0.947 1.319 0 2.696-0.295 4.086-0.947-0.69-1.152-1.39-2.424-2.767-3.902-1.095-1.443-2.471-2.759-4.076-4.075 1.605-2.586 2.981-5.997 4.311-10.03 1.142-4.227 2.069-9.738 2.983-16.561 0.868 6.823 1.786 12.334 3.171 16.561 1.141 4.033 2.471 7.444 4.075 10.03-1.604 1.316-2.934 2.632-4.075 4.075-1.151 1.478-2.075 2.75-2.765 3.902h49.908c1.091-1.316 1.779-2.748 2.242-4.239 0.455-1.434 0.455-2.75 0.228-4.18 3.85-1.817 6.785-4.893 9.311-9.414 2.247-4.401 2.475-9.912 0.867-16.735 3.445 5.225 5.231 10.564 5.455 15.745 0.463 5.337-0.451 9.41-2.237 12.486-2.076 1.446-4.31 2.598-6.839 3.749" clip-path="url(#clipPath2)"/>
  <path transform="matrix(.35278 0 0 -.35278 142.03 62.216)" d="m0 0c-2.008-2.259-4.312-3.411-6.321-3.531-1.153 0-1.838 0.619-2.526 1.771-0.699 1.152-0.87 2.588-0.87 4.357v10.891l7.709-0.164c1.784 0 3.16-0.662 4.312-1.65 0.858-1.111 1.32-2.423 1.32-3.857-0.235-2.927-1.32-5.515-3.624-7.817m-10.634 29.681h-19.719v-25.115c0-3.738 0.69-6.661 2.066-8.585 1.38-2.142 3.161-3.087 5.691-3.087h12.651c6.096 0.326 10.862 2.423 14.031 6.334 3.161 4.021 4.767 8.423 4.767 13.11 0 5.169-1.841 9.408-5.229 12.496-3.397 3.076-8.16 4.683-14.258 4.847" clip-path="url(#clipPath4)"/>
  <path transform="matrix(.35278 0 0 -.35278 -3.5965 47.905)" d="m0 0c-5.227 2.098-9.312 4.687-12.249 7.608 0 3.086 0.466 6.324 1.38 9.739 1.095 3.574 2.469 6.825 4.084 9.912 0-4.565 0.462-8.141 1.785-10.728 1.376-2.763 3.624-4.695 6.612-6.173-0.235-3.249 1.324-5.997 4.765-8.583 3.399-2.587 8.625-5.022 15.87-7.608h-0.913c-8.86 1.607-15.871 3.531-21.334 5.833m49.905-25.146c3.162-4.197 4.776-9.251 5.238-15.583 2.925 6.332 4.073 11.67 3.387 16.397-0.462 4.859-2.699 9.087-6.559 13.117-3.446 0.815-7.53 1.643-12.473 2.466-5.002 0.772-10.691 1.6-17.251 2.588h31.054c-3.624 2.098-8.625 4.033-14.493 5.509-6.153 1.598-12.936 3.238-20.184 5.013-7.067 1.639-12.008 3.9-14.775 6.497-2.927 2.75-4.311 6.325-4.073 10.564 0 3.693 1.601 7.272 4.998 10.517 3.623 3.08 9.314 4.851 17.473 5.011 9.088-0.16 16.789-2.422 23.346-6.615 6.616-4.228 10.689-9.248 12.248-14.921h4.313v24.951h-5.872c-0.689-0.654-1.601-1.107-2.754-1.6-1.095-0.499-2.699-0.823-4.313-0.823-2.244 0-4.774 0.324-7.473 0.823-2.706 0.493-5.236 1.112-7.473 1.6-2.077 0.324-4.548 0.664-7.245 0.828-2.763 0.16-6.152 0.16-10.002 0.16-8.86-0.16-16.562-2.26-23.345-6.661-6.84-4.357-10.464-10.52-10.926-18.335 0-4.845 0.924-9.073 2.766-12.648 2.01-3.709 5.397-6.956 10.396-9.87h25.421c6.15-1.976 10.407-3.902 12.935-5.833 2.475-1.98 3.849-3.904 4.539-5.673 4.314-0.992 7.935-3.415 11.097-7.479" clip-path="url(#clipPath6)"/>
  <path transform="matrix(.35278 0 0 -.35278 49.382 47.629)" d="m0 0c-1.151-1.771-2.075-4.029-2.764-6.78h-0.63c-0.69 2.751-1.606 5.009-2.755 6.78-1.324 1.803-2.711 3.415-4.312 4.566 1.601 1.76 2.988 4.521 4.312 7.772 1.149 3.411 2.065 8.127 2.99 14.138 0.857-6.011 2.008-10.727 3.159-14.138 1.098-3.251 2.472-6.012 4.079-7.772-1.607-1.151-2.756-2.763-4.079-4.566m36.046 10.076v-5.673h5.692v35.179h-89.857v-35.179h5.687v5.673c0 3.575 0.463 7.152 1.38 10.682 0.868 3.574 2.47 6.501 4.941 8.958 2.532 2.593 6.156 3.706 10.702 3.869 4.765 0 8.163-1.436 10.4-4.033 2.076-2.792 2.99-6.65 2.99-11.544v-24.952c1.323 0.652 2.71 0.947 4.084 0.947 1.548 0 2.935-0.295 4.541-0.947-0.69-1.151-1.606-2.423-2.993-3.901-1.086-1.444-2.473-2.76-4.074-4.076 1.601-2.586 2.988-5.997 4.312-10.194 1.149-4.062 2.065-9.573 2.99-16.396 0.857 6.823 2.008 12.334 3.159 16.396 1.323 4.197 2.7 7.608 4.314 10.194-1.614 1.316-2.991 2.632-4.314 4.076-1.151 1.478-2.075 2.75-2.764 3.901 1.613 0.652 3.22 0.947 4.55 0.947 1.603 0 2.755-0.295 3.848-0.947v24.952c0 4.894 0.917 8.752 2.992 11.544 2.009 2.597 5.633 4.033 10.407 4.033 4.541-0.163 8.164-1.276 10.691-3.869 2.471-2.457 4.086-5.384 4.946-8.958 0.925-3.693 1.376-7.107 1.376-10.682" clip-path="url(#clipPath8)"/>
  <path transform="matrix(.35278 0 0 -.35278 151.48 66.042)" d="m0 0c-6.839-5.014-15.859-7.653-27.473-7.653h-69.797v9.249l7.235 0.826c2.766 0.324 4.549 1.806 5.699 3.899 1.144 2.264 1.606 5.351 1.606 9.089v56.108c0 3.902-0.689 6.989-2.069 9.077-1.15 2.258-2.932 3.574-5.236 3.909l-7.235 0.785v9.249h63.926c14.03 0 24.495-2.437 31.743-7.282 7.245-4.727 10.923-11.348 10.923-19.811-0.234-6.002-1.84-10.847-4.773-14.586-2.767-3.749-5.464-6.173-8.164-7.444v-0.164c4.711-2.748 8.164-6.162 10.401-9.911 2.302-3.739 3.396-7.761 3.396-12.322-0.224-10.196-3.624-17.847-10.182-23.018m26.97 19.148c-2.7 4.686-6.099 8.758-10.635 12.453 3.16 1.816 6.321 4.566 9.311 8.305 2.698 3.529 4.312 8.095 4.54 13.281 0 6.985-2.529 13.81-7.295 20.419-4.774 6.825-11.559 12.334-20.646 16.899-9.312 4.523-20.409 6.781-33.57 6.945h-70.031v-14.921l7.246-0.946c2.294 0 4.075-0.817 5.462-2.304 1.379-1.434 2.069-4.022 2.069-7.761v-55.285c0-2.956-0.462-5.389-1.379-7.313-0.925-1.935-2.528-3.251-4.548-3.575l-8.85-0.988v-8.118c0.29-0.157 0.562-0.334 0.858-0.482v-7.123l13.69-12.806h80.431c10.926 0.164 19.946 2.75 26.797 7.771 6.785 4.891 10.399 11.552 10.634 19.812 0 5.997-1.323 11.182-4.084 15.737" clip-path="url(#clipPath10)"/>
  <path transform="matrix(.35278 0 0 -.35278 92.746 47.629)" d="m0 0c-1.546 1.98-3.387 3.415-5.001 4.566 0.689 1.76 0.924 4.521 0.924 7.772 0 3.411-0.697 8.127-1.554 14.138 2.934-6.011 5.404-10.727 7.47-14.138 2.013-3.251 4.084-6.012 6.096-7.772-0.688-1.151-1.095-2.586-1.547-4.566-0.465-1.771-0.698-4.029-0.698-6.78h-0.691c-1.603 2.751-3.385 5.009-4.999 6.78m14.55-14.921c-2.077 1.316-3.852 2.632-5.463 4.076-1.614 1.478-2.699 2.75-3.397 3.901 2.707 1.271 5.407 1.271 8.17 0l-17.02 46.526h-14.314l-17.418-46.526c1.775 0.652 3.384 0.947 4.944 0.947 1.601 0 2.98-0.295 4.311-0.947l12.238 32.268h0.463l9.776-32.268c0.925 0.652 2.01 0.947 3.395 0.947 1.604 0 2.926-0.295 4.764-0.947-0.223-1.151-0.686-2.423-1.838-3.901-0.86-1.444-2.009-2.76-3.161-4.076 2.934-3.529 5.69-7.267 7.935-11.182 2.301-3.857 4.776-9.076 7.71-15.408-1.33 6.495-2.02 11.67-2.02 15.745 0 4.066 0.235 7.64 0.925 10.845" clip-path="url(#clipPath12)"/>
  <path transform="matrix(.35278 0 0 -.35278 59.705 39.045)" d="m0 0c-2.064 4.068-5.464 6.166-10.228 6.501-4.085-0.335-6.783-2.098-7.936-5.509-1.15-3.413-1.782-6.824-1.612-10.238v-51.871c0-3.738 0.462-6.825 1.612-9.089 1.153-2.093 3.162-3.575 6.156-3.899l7.007-0.826v-9.249h-54.905v9.249l7.246 0.826c2.755 0.324 4.775 1.806 5.914 3.899 1.153 2.264 1.615 5.351 1.615 9.089v51.871c0.228 3.414-0.462 6.825-1.615 10.238-1.139 3.411-3.845 5.174-7.924 5.509-4.774-0.335-8.17-2.433-10.239-6.501-2.01-4.028-2.934-8.584-2.934-13.603v-9.085h-13.396v40.699h97.572v-40.699h-13.399v9.085c0 5.019-0.913 9.575-2.934 13.603m15.411-39.253h21.792v44.309l-16.795 15.867h-105.72v-46.526l21.096-13.65h15.002v-21.041c0-2.956-0.45-5.389-1.139-7.313-0.925-1.935-2.539-3.251-4.777-3.575l-8.624-0.988v-14.921l14.54-13.608h64.863v12.334l-14.55 13.773v48.989z" clip-path="url(#clipPath14)"/>
  <path transform="matrix(.35278 0 0 -.35278 142.11 46.076)" d="m0 0c-2.009-1.152-4.077-1.607-6.093-1.607h-3.852v5.673c0 1.443 0.408 2.923 1.096 4.029 0.914 1.153 2.066 1.806 3.385 1.806h5.926c1.152 0 1.842-0.653 2.248-1.642 0.225-1.107 0.452-2.422 0.452-3.869-0.227-1.968-1.085-3.402-3.162-4.39m3.624 21.734c-2.934 3.088-6.549 4.696-10.407 4.696h-16.04c-2.53 0-4.312-1.117-5.691-3.25-1.376-2.097-2.066-5.02-2.066-9.082v-18.954h20.408c6.323 0 10.862 1.281 14.031 3.868 3.161 2.422 4.766 5.996 4.766 10.399-0.227 5.175-1.84 9.248-5.001 12.323" clip-path="url(#clipPath16)"/>
  <path transform="matrix(.35278 0 0 -.35278 269.59 69.076)" d="m0 0c-4.313 0-8.397 0.501-12.021 1.283-3.678 0.818-6.84 1.643-9.311 2.632-2.532 0.946-5.002 1.594-7.068 2.258-2.02 0.652-4.086 0.947-5.871 0.947-1.836 0-3.384-0.782-4.774-1.935-1.141-1.27-2.472-2.75-3.385-4.239h-11.323v34.898h11.323c0.686-2.099 1.376-4.226 2.471-6.163 1.376-1.933 2.756-3.902 4.538-5.835 2.935-3.411 7.021-6.162 12.485-8.261 5.689-2.302 12.238-3.411 19.946-3.574 4.776 0.163 8.849 1.272 11.843 3.738 3.159 2.422 4.717 5.185 4.717 8.585-0.406 4.521-2.708 7.935-7.021 10.358-4.314 2.259-8.388 3.915-12.471 5.065l-17.715 5.171c-10.172 2.925-17.417 6.947-21.953 12.01-4.552 4.849-6.618 11.51-6.618 19.431 0.228 8.758 4.314 15.423 12.022 20.433 7.7 4.891 17.25 7.477 28.798 7.477 3.678 0 7.075-0.164 10.463-0.652 3.4-0.329 6.098-0.828 8.399-1.272 1.785-0.498 3.623-0.826 5.229-1.15 1.781-0.327 3.395-0.504 5.177-0.504 1.38 0 2.53 0.34 3.444 0.828 1.095 0.488 2.02 0.946 2.709 1.609h11.097v-30.508h-11.097c-0.689 2.468-1.839 4.729-3.161 6.989-1.384 2.099-2.764 3.913-4.546 5.508-2.294 1.98-5.692 4.068-10.467 6.002-4.536 1.975-9.483 2.923-14.48 3.087-6.391-0.164-11.153-1.611-14.091-4.197-2.932-2.748-4.536-5.675-4.536-9.086-0.238-4.564 1.837-7.8 6.15-10.062 4.077-2.099 10.4-4.076 19.021-5.674 14.78-2.923 25.648-7.149 32.661-12.334 6.847-5.174 10.234-12.662 10.234-22.194-0.227-9.247-4.084-16.724-11.784-22.233-7.472-5.51-17.248-8.261-29.034-8.436m38.519-12.322c6.84 2.911 12.304 6.826 16.389 11.998 4.309 5.022 6.321 11.019 6.556 17.844-0.235 12.161-4.546 22.237-13.399 29.994-8.621 7.771-21.097 13.61-37.203 17.519-7.475 1.762-12.238 3.579-14.258 5.173-2.293 1.642-3.218 3.415-2.989 5.511 0 2.466 0.923 4.565 2.989 6.001 2.02 1.476 4.947 2.302 9.031 2.302 4.537-0.163 7.935-1.64 10.236-4.401 2.237-2.912 3.851-6.162 4.769-9.901l20.405-13.604h14.956v34.069l-16.795 16.191h-16.787c-0.462-0.652-1.317-1.107-2.009-1.595-0.922-0.5-2.067-0.827-3.16-0.827-1.152 0-2.531 0.163-4.086 0.5-1.607 0.327-3.682 0.651-5.918 1.11-2.244 0.488-5.011 0.812-7.932 0.975-2.938 0.341-6.154 0.501-9.55 0.501-12.938 0-23.795-2.759-32.656-8.261-8.626-5.343-13.165-13.157-13.627-23.06 0.227-7.269 2.068-13.77 5.691-19.279 3.624-5.51 8.17-10.236 13.397-13.933 5.408-3.898 10.87-6.825 16.333-8.92 3.162-1.152 7.011-2.297 11.325-3.414 4.311-1.316 7.934-2.586 11.324-3.904 3.451-1.434 4.998-3.245 5.232-5.169-0.234-2.144-1.375-3.749-3.845-4.73-2.476-0.943-5.015-1.447-7.486-1.447-4.311 0-8.159 0.828-11.548 2.428-3.455 1.487-6.154 3.247-8.398 5.343-1.84 1.642-4.084 3.904-6.84 6.989-2.475 2.923-4.773 5.839-6.786 8.926h-19.946v-40.083l15.174-14.096h19.718c0.69 0.99 1.614 2.262 2.531 3.738 1.092 1.446 2.472 2.262 4.085 2.423 1.546 0 3.16-0.324 4.943-0.977 1.842-0.619 3.68-1.282 5.464-2.261 2.304-1.154 5.689-2.097 9.773-2.759 4.079-0.816 8.627-1.153 13.39-1.153 7.712 0 14.957 1.477 21.507 4.239" clip-path="url(#clipPath18)"/>
  <path transform="matrix(.35278 0 0 -.35278 219.41 47.629)" d="m0 0c-1.149-1.771-2.066-4.029-2.763-6.78h-0.633c-0.69 2.751-1.376 5.009-2.754 6.78-1.096 1.98-2.471 3.415-4.314 4.566 1.843 1.76 3.218 4.521 4.542 7.772 1.15 3.411 2.298 8.127 2.934 14.138 0.922-6.011 1.839-10.727 2.988-14.138 1.323-3.251 2.7-6.012 4.314-7.772-1.614-1.151-2.991-2.586-4.314-4.566m48.528 9.741h6.38v29.841h-81.469v-3.574l5.918-0.619c2.244-0.164 4.086-1.48 5.868-3.738 1.84-2.099 2.992-6.327 2.992-12.328v-26.267c1.093 0.652 2.237 0.947 3.847 0.947 1.323 0 2.938-0.295 4.54-0.947-0.69-1.151-1.376-2.423-2.754-3.901-1.096-1.444-2.471-2.76-4.314-4.076 1.615-2.586 3.218-5.997 4.314-10.194 1.378-4.062 2.302-9.573 3.162-16.396 0.922 6.823 1.839 12.334 3.215 16.396 1.096 4.197 2.711 7.608 4.312 10.194-1.601 1.316-3.216 2.632-4.312 4.076-1.376 1.478-2.293 2.75-2.99 3.901 2.763 0.652 5.238 0.947 7.992 0.827 2.472 0 4.943-0.339 7.482-0.99 2.235 0.651 4.767 0.99 7.473 0.99 2.699 0.12 5.464-0.175 8.163-0.827v3.859h-22.712v24.008c-0.226 3.575 1.148 6.824 3.907 9.735 2.707 2.764 7.708 4.238 15.181 4.403 5.463 0.164 10.635-1.316 15.635-4.228 5.236-3.086 7.707-8.758 8.17-17.019z" clip-path="url(#clipPath20)"/>
  <path transform="matrix(.35278 0 0 -.35278 87.796 43.22)" d="m0 0-9.542-24.787h17.94l-7.533 24.787z" clip-path="url(#clipPath22)"/>
  <path transform="matrix(.35278 0 0 -.35278 258.7 47.905)" d="m0 0c-5.236 2.098-9.315 4.687-12.249 7.608 0 3.086 0.462 6.324 1.376 9.739 1.095 3.574 2.475 6.825 4.089 9.912 0-4.565 0.452-8.141 1.783-10.728 1.379-2.763 3.61-4.695 6.604-6.173-0.227-3.249 1.32-5.997 4.774-8.583 3.396-2.587 8.625-5.022 15.873-7.608h-0.925c-8.853 1.607-15.866 3.531-21.325 5.833m51.973-11.215c-3.456 0.815-7.532 1.643-12.477 2.466-5.003 0.772-10.702 1.6-17.246 2.588h31.04c-3.622 2.098-8.625 4.033-14.484 5.509-6.149 1.598-12.934 3.238-20.18 5.013-7.078 1.639-12.022 3.9-14.779 6.497-2.934 2.75-4.31 6.325-4.086 10.564 0 3.693 1.615 7.272 5.003 10.517 3.622 3.08 9.323 4.851 17.486 5.011 9.083-0.16 16.784-2.422 23.34-6.615 6.605-4.228 10.69-9.248 12.249-14.921h4.311v24.951h-5.87c-0.685-0.654-1.61-1.107-2.753-1.6-1.094-0.499-2.707-0.823-4.314-0.823-2.244 0-4.772 0.324-7.48 0.823-2.699 0.493-5.227 1.112-7.475 1.6-2.064 0.324-4.535 0.664-7.234 0.828-2.767 0.16-6.154 0.16-10.013 0.16-8.852-0.16-16.56-2.26-23.343-6.661-6.841-4.357-10.464-10.52-10.918-18.335 0-4.845 0.917-9.073 2.755-12.648 2.011-3.709 5.407-6.956 10.407-9.87h25.413c6.15-1.976 10.407-3.902 12.933-5.833 2.472-1.98 3.859-3.904 4.548-5.673 4.314-0.992 7.936-3.415 11.097-7.479 3.162-4.197 4.767-9.251 5.23-15.583 2.933 6.332 4.085 11.67 3.395 16.397-0.462 4.859-2.71 9.087-6.555 13.117" clip-path="url(#clipPath24)"/>
  <path transform="matrix(.35278 0 0 -.35278 169.56 37.61)" d="m0 0c-1.152 2.259-2.937 3.575-5.236 3.91l-7.251 0.784v9.249h54.683v-9.249l-7.248-0.784c-2.291-0.335-4.076-1.651-5.229-3.91-1.376-2.088-2.072-5.174-2.072-9.077v-51.914c-0.172-4.683 0.924-8.261 3.68-10.684 2.704-2.435 7.935-3.749 16.105-3.749 7.925 0 13.388 0.99 16.784 2.925 3.162 1.804 4.776 4.726 4.776 8.585v8.924h14.256v-33.258h-95.735v9.249l7.251 0.827c2.761 0.323 4.535 1.805 5.688 3.898 1.152 2.264 1.614 5.351 1.614 9.089v56.108c0 3.903-0.69 6.989-2.066 9.077m-3.172-71.675c-0.916-1.934-2.527-3.25-4.539-3.574l-8.85-0.988v-14.921l14.54-13.609h105.9v36.168l-17.012 16.355h-21.966v-9.073c0-3.045-0.924-5.509-2.526-7.118-1.787-1.806-3.624-2.752-5.871-2.752-2.066 0-3.906 0.327-5.464 1.11-1.839 0.825-2.699 2.304-2.699 4.403v40.525c0 4.402 0.86 7.478 2.247 9.411 1.602 1.969 3.388 2.912 5.464 3.087l7.007 0.815v12.824l-16.783 15.868h-62.842v-14.921l7.235-0.947c2.304 0 4.09-0.817 5.464-2.304 1.387-1.434 2.076-4.022 2.076-7.761v-55.285c0-2.956-0.462-5.389-1.386-7.313" clip-path="url(#clipPath26)"/>
  <path transform="matrix(.35278 0 0 -.35278 173.8 43.276)" d="m0 0c1.152 3.411 2.302 8.127 2.933 14.138 0.691-6.011 1.841-10.727 2.993-14.138 1.32-3.251 2.699-5.837 4.537-7.772-1.838-1.151-3.217-2.586-4.313-4.402-1.376-1.935-2.301-4.193-2.989-6.944h-0.635c-0.684 2.751-1.374 5.009-2.753 6.944-1.093 1.816-2.472 3.251-4.314 4.402 1.842 1.935 3.221 4.521 4.541 7.772m-5.86 6.985v-26.267c1.084 0.652 2.471 0.947 3.85 0.947 1.32 0 2.935-0.295 4.536-0.947-0.684-1.151-1.374-2.423-2.753-3.901-1.093-1.444-2.472-2.76-4.314-4.076 1.607-2.586 3.221-5.997 4.314-10.194 1.379-4.062 2.293-9.573 3.16-16.396 0.916 6.823 1.841 12.334 3.217 16.396 1.096 4.197 2.699 7.608 4.313 10.194-1.838 1.316-3.217 2.632-4.313 4.076-1.376 1.478-2.301 2.75-2.989 3.901 1.613 0.652 2.989 0.947 4.547 0.947 1.379 0 2.755-0.295 3.851-0.947v26.267c0 6.001 1.15 10.229 2.988 12.487 1.786 2.263 3.852 3.415 5.861 3.579l5.926 0.619v3.574h-46.969v-3.574l5.915-0.619c2.244-0.164 4.086-1.316 5.871-3.579 1.838-2.258 2.989-6.486 2.989-12.487" clip-path="url(#clipPath28)"/>
  <path transform="matrix(.35278 0 0 -.35278 233.73 57.574)" d="m0 0v-2.597c0-4.727-0.928-8.261-2.475-10.4-1.615-2.088-2.99-3.076-4.548-3.076-1.14 0-2.064 0.49-2.527 1.476-0.455 0.946-0.633 2.264-0.633 3.578v11.019zm-2.013 55.773c-3.678 3.076-8.397 4.727-13.859 4.727-5.692 0-9.541-0.989-11.785-2.922-2.304-1.969-3.218-4.726-3.218-8.465v-21.041h22.477v-11.552h-22.477v-26.596c0-3.245 0.914-5.997 3.218-7.932 2.244-2.098 6.093-3.25 11.785-3.25 7.709 0.164 13.162 1.936 15.872 5.349 2.695 3.576 4.073 7.813 3.846 12.986v7.933h14.314v-36.668h-89.166v9.249l7.238 0.827c2.764 0.324 4.546 1.641 5.698 3.898 1.145 2.264 1.607 5.351 1.607 9.09v56.107c0 3.903-0.69 6.815-2.07 9.077-1.151 2.259-2.933 3.575-5.235 3.91l-7.238 0.784v9.249h89.166v-35.354h-14.314v6.825c-0.224 6.161-2.01 10.684-5.859 13.769m17.183-37.114h23.862v38.266l-17.712 16.521h-96.409v-14.921l7.245-0.947c2.294-0.163 4.076-0.817 5.46-2.304 1.38-1.598 2.07-4.022 2.07-7.761v-55.285c0-2.956-0.462-5.389-1.379-7.313-0.926-1.934-2.526-3.25-4.547-3.574l-8.849-0.988v-14.921l14.548-13.609h99.573v39.253l-17.712 16.859h-11.319v7.313l-20.006 18.943-0.178 4.075c-0.227 1.64 0.178 2.91 1.096 4.066 0.924 0.945 2.298 1.607 4.311 1.607 1.838 0 2.934-0.498 3.848-1.445 0.69-0.813 0.928-2.129 0.928-3.9v-5.673z" clip-path="url(#clipPath30)"/>
  <path transform="matrix(.35278 0 0 -.35278 108.67 68.742)" d="m0 0h-55.762v9.249l5.86 1.151c2.989 0.5 5.009 2.1 6.151 4.687 0.924 2.802 0.7 7.159-1.142 13.16l-1.614 4.847h-27.43l-1.829-4.847c-1.554-4.86-1.782-8.922-0.641-12.009 1.096-3.239 3.171-5.174 5.643-5.838l5.915-1.151v-9.249h-48.12v9.249l5.001 1.151c2.763 0.5 5.237 2.424 7.708 5.675 2.293 3.25 5 9.085 8.159 17.183l26.101 68.933h21.107l26.789-74.108c2.01-5.673 4.087-9.746 5.868-12.498 2.068-2.586 4.077-4.033 5.915-4.521l6.321-1.815zm20.017 3.892c-3.256 1.759-6.128 3.999-8.398 6.672-2.531 3.086-4.079 6.009-5.228 8.761l-24.271 66.835-25.409 18.944h-25.872l-27.024-71.846c-2.471-6.62-4.943-11.676-7.235-14.761-2.471-3.076-5.003-5.01-7.709-5.498l-5.919-1.282v-13.315l15.692-14.921h57.605v5.673l5.871-5.673h58.754v12.807l-0.857 0.802z" clip-path="url(#clipPath32)"/>
  <path transform="matrix(.35278 0 0 -.35278 -11.668 56.431)" d="m0 0h11.32c0.691-2.098 1.386-4.226 2.474-6.163 1.387-1.933 2.763-3.902 4.548-5.835 2.924-3.411 7.008-6.162 12.473-8.261 5.691-2.302 12.247-3.411 19.948-3.574 4.772 0.163 8.861 1.272 11.85 3.738 3.162 2.423 4.708 5.185 4.708 8.585-0.394 4.521-2.699 7.935-7.01 10.358-4.314 2.259-8.4 3.915-12.473 5.065l-17.713 5.171c-10.179 2.925-17.419 6.947-21.966 12.01-4.535 4.849-6.611 11.51-6.611 19.431 0.233 8.758 4.311 15.423 12.02 20.433 7.698 4.891 17.247 7.477 28.804 7.477 3.68 0 7.069-0.164 10.464-0.651 3.388-0.33 6.099-0.829 8.39-1.273 1.782-0.498 3.624-0.826 5.238-1.15 1.782-0.327 3.387-0.504 5.169-0.504 1.379 0 2.528 0.34 3.456 0.828 1.092 0.488 2.01 0.947 2.697 1.609h11.093v-30.508h-11.093c-0.687 2.468-1.839 4.729-3.163 6.989-1.376 2.099-2.755 3.913-4.537 5.508-2.303 1.98-5.698 4.068-10.462 6.002-4.552 1.975-9.495 2.923-14.497 3.087-6.377-0.164-11.152-1.611-14.085-4.197-2.926-2.748-4.54-5.675-4.54-9.086-0.224-4.564 1.841-7.8 6.154-10.062 4.085-2.099 10.406-4.075 19.031-5.673 14.777-2.924 25.634-7.15 32.657-12.335 6.84-5.174 10.229-12.662 10.229-22.193-0.228-9.248-4.079-16.725-11.787-22.234-7.473-5.509-17.246-8.261-29.033-8.436-4.312 0-8.387 0.501-12.01 1.283-3.682 0.818-6.844 1.644-9.316 2.632-2.537 0.947-5.008 1.594-7.077 2.259-2.01 0.651-4.084 0.946-5.859 0.946-1.838 0-3.396-0.782-4.772-1.934-1.151-1.271-2.476-2.751-3.399-4.239h-11.32zm30.588-51.416c0.689 0.99 1.605 2.262 2.529 3.738 1.085 1.446 2.472 2.263 4.076 2.423 1.557 0 3.159-0.324 4.946-0.977 1.837-0.619 3.678-1.282 5.464-2.261 2.301-1.154 5.688-2.097 9.773-2.759 4.085-0.816 8.626-1.152 13.4-1.152 7.697 0 14.944 1.476 21.503 4.239 6.84 2.91 12.306 6.825 16.379 11.997 4.313 5.022 6.334 11.019 6.56 17.844-0.226 12.161-4.54 22.237-13.4 29.994-8.625 7.771-21.097 13.61-37.196 17.52-7.473 1.762-12.248 3.578-14.258 5.172-2.299 1.642-3.223 3.415-2.989 5.512 0 2.466 0.914 4.564 2.989 6 2.01 1.476 4.947 2.302 9.022 2.302 4.547-0.163 7.935-1.639 10.237-4.401 2.245-2.912 3.852-6.162 4.776-9.901l20.409-13.604h14.945v34.069l-16.783 16.191h-16.789c-0.462-0.651-1.33-1.107-2.02-1.595-0.914-0.5-2.066-0.827-3.161-0.827-1.149 0-2.527 0.163-4.073 0.5-1.615 0.327-3.681 0.651-5.929 1.11-2.242 0.488-5.001 0.812-7.935 0.976-2.934 0.34-6.15 0.5-9.539 0.5-12.936 0-23.806-2.759-32.655-8.261-8.625-5.343-13.173-13.157-13.635-23.059 0.235-7.27 2.076-13.771 5.699-19.28 3.622-5.51 8.164-10.236 13.389-13.933 5.405-3.898 10.869-6.825 16.334-8.92 3.16-1.152 7.012-2.297 11.32-3.414 4.313-1.316 7.935-2.586 11.335-3.904 3.445-1.434 5-3.245 5.225-5.169-0.225-2.144-1.374-3.749-3.849-4.73-2.472-0.943-5-1.447-7.474-1.447-4.309 0-8.158 0.828-11.558 2.428-3.453 1.487-6.152 3.247-8.398 5.343-1.838 1.642-4.075 3.904-6.839 6.989-2.472 2.924-4.765 5.839-6.785 8.926h-19.946v-40.083l15.182-14.096z" clip-path="url(#clipPath34)"/>
  <path transform="matrix(.35278 0 0 -.35278 -18.899 123.6)" d="m876.77 299.3h-718.19v-11.1h718.19z" clip-path="url(#clipPath36)"/>
  <path transform="matrix(.35278 0 0 -.35278 -18.899 123.6)" d="m319.2 111.71h-303.13v-11.098h303.13z" clip-path="url(#clipPath38)"/>
  <path transform="matrix(.35278 0 0 -.35278 141.55 90.498)" d="m0 0c-0.701-0.608-1.729-0.879-3.141-0.826h-16.347v12.815h11.474c1.096 0 1.928-0.221 2.635-0.608 0.698-0.384 1.086-1.043 1.282-1.935h2.945v9.997l-2.945-0.056c-0.196-0.823-0.64-1.38-1.227-1.715-0.576-0.327-1.341-0.491-2.302-0.436h-11.862v8.335h15.391c1.22 0 2.113-0.324 2.688-0.931 0.577-0.612 1.029-1.384 1.349-2.219h3.079v8.401h-35.969v-2.706c1.084-0.175 1.792-0.446 2.18-0.826 0.32-0.448 0.506-1.164 0.506-2.11v-25.668c0-0.839-0.186-1.554-0.573-2.042-0.455-0.504-1.153-0.783-2.113-0.839v-2.643h37.374v8.662l-3.012-0.051c-0.253-1.163-0.708-1.991-1.412-2.599" clip-path="url(#clipPath40)"/>
  <path transform="matrix(.35278 0 0 -.35278 237.02 91.39)" d="m0 0c-0.452-0.504-1.148-0.783-2.113-0.839v-2.643h12.438v2.643h-0.775c-0.641 0.056-1.085 0.335-1.34 0.782-0.32 0.381-0.453 0.829-0.521 1.316-0.056 0.171-0.056 0.284-0.056 0.445v26.616c0.056 0.5 0.257 0.999 0.512 1.432 0.252 0.448 0.708 0.719 1.405 0.839l0.775 0.108v2.653h-12.438v-2.707c1.085-0.174 1.792-0.445 2.18-0.893 0.321-0.433 0.51-1.096 0.51-2.042v-9.324l-17.048 14.966h-14.621v-2.707c1.089-0.174 1.794-0.445 2.18-0.826 0.322-0.448 0.512-1.163 0.512-2.109v-25.668c0-0.839-0.19-1.554-0.577-2.042-0.451-0.504-1.159-0.783-2.115-0.839v-2.643h12.439v2.586c-1.096 0.057-1.804 0.392-2.124 0.896-0.377 0.488-0.574 1.152-0.574 2.095v22.192l21.928-18.607v-3.638c0-0.839-0.189-1.554-0.577-2.042" clip-path="url(#clipPath42)"/>
  <path transform="matrix(.35278 0 0 -.35278 243.96 82.666)" d="m0 0 3.197-0.051c0.199 1.162 0.587 1.986 1.16 2.541 0.579 0.557 1.54 0.828 2.89 0.881h5.632v-26.059c0-0.839-0.186-1.555-0.574-2.042-0.444-0.505-1.152-0.783-2.113-0.839v-2.643h16.155v2.586c-1.089 0.057-1.795 0.34-2.115 0.772-0.387 0.504-0.577 1.219-0.577 2.219v26.006h5.964c1.218 0 2.046-0.324 2.568-0.932 0.506-0.664 0.763-1.436 0.826-2.382h3.211v8.565h-36.224z" clip-path="url(#clipPath44)"/>
  <path transform="matrix(.35278 0 0 -.35278 209.54 91.39)" d="m0 0c-0.444-0.504-1.152-0.783-2.114-0.839v-2.643h37.375v8.662l-3.012-0.051c-0.253-1.163-0.705-1.991-1.412-2.599-0.701-0.608-1.731-0.88-3.143-0.826h-16.344v12.814h11.477c1.092 0 1.922-0.22 2.63-0.607 0.697-0.384 1.084-1.043 1.283-1.935h2.944v9.997l-2.944-0.056c-0.199-0.823-0.641-1.38-1.226-1.715-0.573-0.327-1.339-0.491-2.305-0.436h-11.859v8.335h15.39c1.219 0 2.114-0.324 2.692-0.932 0.573-0.611 1.024-1.383 1.348-2.218h3.076v8.401h-35.97v-2.707c1.084-0.174 1.794-0.445 2.18-0.826 0.322-0.448 0.507-1.163 0.507-2.109v-25.668c0-0.839-0.185-1.554-0.573-2.042" clip-path="url(#clipPath46)"/>
  <path transform="matrix(.35278 0 0 -.35278 160.85 81.633)" d="m0 0v0.662c0.057 0.501 0.258 0.999 0.511 1.433 0.254 0.447 0.708 0.719 1.406 0.839l0.775 0.107v2.654h-12.438v-2.707c1.084-0.174 1.792-0.446 2.18-0.893 0.32-0.434 0.509-1.096 0.509-2.042v-9.324l-17.051 14.966h-14.622v-2.707c1.092-0.174 1.8-0.446 2.187-0.826 0.313-0.448 0.509-1.163 0.509-2.109v-25.668c0-0.839-0.196-1.555-0.576-2.042-0.452-0.505-1.16-0.783-2.12-0.839v-2.643h12.445v2.586c-1.096 0.057-1.804 0.391-2.126 0.896-0.375 0.487-0.573 1.151-0.573 2.095v22.191l21.927-18.606v-3.638c0-0.839-0.189-1.555-0.577-2.042-0.451-0.505-1.151-0.783-2.112-0.839v-2.643h12.438v2.643h-0.775c-0.641 0.056-1.086 0.334-1.338 0.782-0.321 0.381-0.456 0.828-0.522 1.316-0.057 0.171-0.057 0.284-0.057 0.444v0.392z" clip-path="url(#clipPath48)"/>
  <path transform="matrix(.35278 0 0 -.35278 165.1 82.666)" d="m0 0 3.197-0.051c0.198 1.162 0.585 1.986 1.16 2.541 0.577 0.557 1.538 0.828 2.877 0.881h5.643v-26.059c0-0.839-0.186-1.555-0.573-2.042-0.445-0.505-1.152-0.783-2.114-0.839v-2.643h16.152v2.586c-1.085 0.057-1.789 0.34-2.114 0.772-0.386 0.504-0.575 1.219-0.575 2.219v26.006h5.965c1.214 0 2.045-0.324 2.564-0.932 0.509-0.664 0.765-1.436 0.831-2.382h3.21v8.565h-36.223z" clip-path="url(#clipPath50)"/>
  <path transform="matrix(.35278 0 0 -.35278 96.211 91.39)" d="m0 0c-0.455-0.504-1.152-0.783-2.113-0.839v-2.643h37.374v8.662l-3.012-0.051c-0.253-1.163-0.708-1.991-1.416-2.599-0.705-0.608-1.725-0.88-3.143-0.826h-16.34v12.814h11.473c1.085 0 1.928-0.22 2.623-0.607 0.709-0.384 1.097-1.043 1.283-1.935h2.955v9.997l-2.955-0.056c-0.186-0.823-0.641-1.38-1.216-1.715-0.577-0.327-1.341-0.491-2.302-0.436h-11.861v8.335h15.379c1.219 0 2.124-0.324 2.699-0.932 0.577-0.611 1.021-1.383 1.342-2.218h3.083v8.401h-35.966v-2.707c1.085-0.174 1.792-0.445 2.18-0.826 0.321-0.448 0.506-1.163 0.506-2.109v-25.668c0-0.839-0.185-1.554-0.573-2.042" clip-path="url(#clipPath52)"/>
  <path transform="matrix(.35278 0 0 -.35278 286.01 84.847)" d="m0 0c-1.669-0.715-3.529-1.108-5.509-1.052h-5.267v10.605h5.588c2.112 0 3.972-0.391 5.441-1.163 1.472-0.771 2.248-2.207 2.248-4.249 0-2.043-0.832-3.422-2.501-4.141m12.636-17.396c-0.134 0.171-0.265 0.279-0.32 0.443-0.135 0.163-0.265 0.327-0.388 0.557l-7.702 11.04c2.766 0.719 5.071 1.989 6.803 3.813 1.73 1.763 2.558 3.913 2.558 6.455-0.186 3.478-1.794 5.968-4.734 7.511-3.02 1.488-6.285 2.27-9.814 2.325h-0.134c-0.056 0-0.188 0-0.254 0.056h-22.891v-2.706c1.096-0.175 1.801-0.446 2.188-0.826 0.314-0.448 0.512-1.164 0.512-2.11v-25.668c0-0.839-0.198-1.554-0.579-2.042-0.451-0.504-1.159-0.782-2.121-0.839v-2.642h16.163v2.586c-1.092 0.056-1.793 0.391-2.113 0.895-0.388 0.488-0.586 1.152-0.586 2.095v10.161h3.53l10.832-15.737h12.181v2.586c-0.832 0.231-1.405 0.504-1.86 0.839-0.444 0.323-0.896 0.715-1.271 1.208" clip-path="url(#clipPath54)"/>
  <path transform="matrix(.35278 0 0 -.35278 260.88 91.39)" d="m0 0c-0.455-0.504-1.163-0.783-2.126-0.839v-2.643h37.384v8.662l-3.019-0.051c-0.254-1.163-0.698-1.991-1.406-2.599s-1.725-0.88-3.143-0.826h-16.351v12.814h11.484c1.085 0 1.915-0.22 2.625-0.607 0.708-0.384 1.092-1.043 1.281-1.935h2.952v9.997l-2.952-0.056c-0.189-0.823-0.641-1.38-1.219-1.715-0.574-0.327-1.349-0.491-2.312-0.436h-11.859v8.335h15.39c1.219 0 2.113-0.324 2.699-0.932 0.573-0.611 1.017-1.383 1.338-2.218h3.079v8.401h-35.971v-2.707c1.096-0.174 1.802-0.445 2.181-0.826 0.322-0.448 0.518-1.163 0.518-2.109v-25.668c0-0.839-0.196-1.554-0.573-2.042" clip-path="url(#clipPath56)"/>
  <path transform="matrix(.35278 0 0 -.35278 117.88 80.598)" d="m0 0c0.062 0 0.186 0 0.32 0.054 0.067 0 0.186 0 0.253 0.053v2.654h-16.353l0.068-2.707c0.839-0.174 1.472-0.445 1.924-0.946 0.455-0.487 0.831-1.043 1.095-1.65l12.435-31.531h9.364l12.181 31.474c0.32 0.828 0.764 1.436 1.349 1.827 0.508 0.381 1.216 0.716 2.176 0.879v2.654h-12.889v-2.707h0.444c0.135-0.054 0.264-0.054 0.455-0.11 0.442-0.119 0.832-0.279 1.214-0.445 0.388-0.216 0.579-0.555 0.646-0.999 0-0.163 0-0.378-0.067-0.542-0.068-0.176-0.124-0.34-0.191-0.5l-7.755-21.095-8.209 21.419c-0.067 0.176-0.067 0.283-0.067 0.447-0.064 0.108-0.064 0.217-0.064 0.392 0 0.38 0.198 0.715 0.518 0.931 0.322 0.221 0.698 0.392 1.153 0.448" clip-path="url(#clipPath58)"/>
  <path transform="matrix(.35278 0 0 -.35278 201.42 83.892)" d="m0 0 2.878-1.544 8.023 7.228c-2.312 2.49-5.004 4.368-8.077 5.52-3.087 1.163-6.484 1.718-10.136 1.718-6.026 0-11.474-1.651-16.277-4.912-4.801-3.258-7.247-7.682-7.247-13.259 0-2.923 0.775-5.684 2.248-8.28 1.472-2.597 3.463-4.859 6.087-6.686 2.687-1.878 5.699-3.205 9.039-3.977 3.265-0.812 6.661-1.259 10.068-1.423 0.442-0.053 0.95-0.053 1.405-0.053h3.462c0.64 0.053 1.283 0.053 1.991 0.108 1.018 0.052 2.046 0.174 3.074 0.283 0.963 0.16 1.984 0.324 2.945 0.541v9.002l-3.462-0.057c-0.444-1.27-1.337-2.216-2.557-2.813-1.283-0.608-2.632-0.947-4.104-1.107-0.388-0.056-0.775-0.056-1.163-0.056-0.377-0.057-0.764-0.057-1.085-0.057-4.812 0-8.651 1.6-11.603 4.805-2.957 3.141-4.424 6.683-4.424 10.596 0 3.258 0.961 6.077 2.885 8.403 1.86 2.259 4.869 3.422 8.971 3.422 1.994 0 3.851-0.448 5.458-1.38 1.601-0.946 2.433-2.326 2.433-4.196-0.067-0.336-0.135-0.665-0.256-0.943-0.199-0.328-0.384-0.612-0.576-0.883" clip-path="url(#clipPath60)"/>
  <path transform="matrix(.35278 0 0 -.35278 -11.269 15.656)" d="m0 0c0.568 0.557 1.5 0.828 2.813 0.881h5.5v-26.063c0-0.835-0.19-1.554-0.559-2.042-0.442-0.501-1.128-0.783-2.064-0.835v-2.654h15.759v2.597c-1.07 0.057-1.756 0.34-2.069 0.771-0.376 0.501-0.555 1.22-0.555 2.219v26.007h5.812c1.188 0 2-0.324 2.5-0.936 0.499-0.664 0.745-1.436 0.812-2.378h3.125v8.561h-35.329v-8.618l3.131-0.051c0.189 1.162 0.559 1.986 1.124 2.541" clip-path="url(#clipPath62)"/>
  <path transform="matrix(.35278 0 0 -.35278 8.5597 25.574)" d="m0 0c-1.065 0.057-1.754 0.391-2.064 0.892-0.377 0.487-0.568 1.15-0.568 2.098v11.812h16.126v-11.868c0-0.836-0.191-1.555-0.566-2.042-0.433-0.501-1.123-0.783-2.059-0.835v-2.654h15.76v2.654h-0.757c-0.623 0.052-1.065 0.334-1.311 0.782-0.309 0.38-0.444 0.824-0.5 1.312-0.064 0.175-0.064 0.284-0.064 0.448v26.612c0.064 0.505 0.255 1.005 0.501 1.437 0.253 0.447 0.689 0.719 1.374 0.839l0.757 0.107v2.65h-15.76v-2.706c1.059-0.171 1.749-0.443 2.124-0.89 0.31-0.432 0.501-1.096 0.501-2.043v-8.607h-16.126v9.213c0.067 0.505 0.255 1.005 0.5 1.437 0.254 0.447 0.69 0.719 1.38 0.839l0.752 0.107v2.65h-15.756v-2.706c1.055-0.171 1.745-0.443 2.122-0.823 0.313-0.448 0.498-1.163 0.498-2.11v-25.671c0-0.836-0.185-1.555-0.562-2.042-0.437-0.501-1.126-0.783-2.058-0.835v-2.654h15.756z" clip-path="url(#clipPath64)"/>
  <path transform="matrix(.35278 0 0 -.35278 34.627 23.431)" d="m0 0-2.944-0.055c-0.246-1.162-0.679-1.987-1.369-2.595-0.69-0.611-1.687-0.883-3.067-0.826h-15.947v12.815h11.19c1.066 0 1.88-0.221 2.569-0.612 0.689-0.38 1.065-1.043 1.253-1.934h2.87v10.001l-2.87-0.057c-0.188-0.826-0.63-1.379-1.187-1.718-0.566-0.324-1.323-0.488-2.255-0.433h-11.57v8.336h15.012c1.181 0 2.056-0.324 2.624-0.936 0.559-0.608 1.001-1.38 1.311-2.215h3.001v8.398h-35.072v-2.706c1.056-0.171 1.746-0.443 2.122-0.823 0.313-0.448 0.502-1.163 0.502-2.11v-25.671c0-0.836-0.189-1.555-0.566-2.042-0.436-0.501-1.126-0.783-2.058-0.835v-2.655h36.451z" clip-path="url(#clipPath66)"/>
  <path transform="matrix(.35278 0 0 -.35278 -6.8573 114.61)" d="m0 0-0.237-1.043c-0.095-0.474-0.401-0.91-0.923-1.304-0.521-0.395-1.099-0.593-1.732-0.593-0.949 0-1.643 0.222-2.087 0.666-0.44 0.442-0.664 1.155-0.664 2.138v18.252h6.259v4.22h-6.259v10.917l-7.302-2.279v-8.638h-3.272v-4.22h3.272v-18.78c0-2.213 0.759-3.983 2.272-5.311 1.513-1.327 3.539-1.991 6.073-1.991 0.919 0 1.828 0.071 2.729 0.213s1.888 0.373 2.962 0.688l1.185 0.379-0.047 6.686z" clip-path="url(#clipPath68)"/>
  <path transform="matrix(.35278 0 0 -.35278 7.3097 116.15)" d="m0 0c-0.22 0.252-0.341 0.56-0.353 0.925-0.018 0.364-0.026 0.735-0.026 1.114v14.652c0 3.541-0.919 6.309-2.751 8.3-1.832 1.992-4.315 2.987-7.444 2.987-1.263 0-2.673-0.237-4.22-0.711-1.548-0.474-2.781-1.075-3.699-1.802l-1.47-1.09v15.221h-9.768v-1.992c0.505 0 1.026-0.237 1.565-0.711 0.284-0.254 0.483-0.563 0.591-0.925 0.112-0.364 0.168-0.782 0.168-1.256v-33.242c0-0.759-0.104-1.265-0.311-1.517-0.202-0.255-0.388-0.412-0.543-0.475-0.159-0.064-0.396-0.127-0.711-0.189l-0.474-0.095v-2.134h11.759v2.134l-0.426 0.095c-0.6 0.095-1.074 0.362-1.423 0.806-0.19 0.222-0.31 0.545-0.358 0.972-0.047 0.427-0.069 1.004-0.069 1.731v15.268l0.621 1.043c1.371 2.246 3.427 3.369 6.164 3.369 1.944-0.159 3.337-0.8 4.182-1.92 0.844-1.123 1.267-2.839 1.267-5.147v-13.609c0-0.442-0.022-0.806-0.069-1.091-0.047-0.284-0.151-0.521-0.31-0.711-0.35-0.379-0.824-0.616-1.423-0.711l-0.427-0.095v-2.134h11.902v2.134l-0.427 0.095c-0.663 0.095-1.168 0.332-1.517 0.711" clip-path="url(#clipPath70)"/>
  <path transform="matrix(.35278 0 0 -.35278 14.11 108.7)" d="m0 0c1.19 1.164 2.612 1.746 4.263 1.746 1.522 0 2.776-0.623 3.759-1.865 0.987-1.243 1.479-2.659 1.479-4.254h-11.286c0 1.752 0.595 3.211 1.785 4.373m14.432-17.581c-1.487-1.438-3.366-2.155-5.643-2.155-2.78 0-5.185 0.84-7.207 2.523-2.246 1.873-3.367 4.35-3.367 7.43l-0.094 0.953h19.583v1.426c0 3.902-1.185 7.199-3.556 9.896-2.466 2.821-5.66 4.233-9.579 4.233-4.078 0-7.47-1.516-10.173-4.544s-4.052-6.714-4.052-11.057c0-4.567 1.565-8.388 4.694-11.464 3.13-3.076 6.954-4.612 11.475-4.612 2.496 0 4.686 0.191 6.57 0.571 1.879 0.381 3.405 0.843 4.574 1.381l0.806 0.334v7.624h-2.182c-0.918-1.373-1.534-2.22-1.849-2.539" clip-path="url(#clipPath72)"/>
  <path transform="matrix(.35278 0 0 -.35278 31.796 111.6)" d="m0 0c-1.168 0.791-3.492 1.692-6.97 2.703l-1.992 0.521c-1.897 0.539-3.065 0.919-3.509 1.138-1.172 0.569-1.754 1.345-1.754 2.324 0 1.17 0.582 2.024 1.754 2.563 0.918 0.409 2.199 0.616 3.841 0.616 1.582 0 2.949-0.302 4.099-0.901 1.156-0.601 1.733-1.328 1.733-2.183 0-0.442-0.125-0.837-0.379-1.186l-0.284-0.426 1.944-1.518 4.552 4.934-0.427 0.616c-1.328 1.865-3.147 3.255-5.453 4.173-1.867 0.726-3.918 1.091-6.164 1.091-3.828 0-6.91-0.815-9.247-2.442-2.34-1.63-3.509-3.865-3.509-6.712 0-2.306 0.837-4.203 2.513-5.69 1.264-1.138 3.208-2.117 5.833-2.94l1.897-0.617c1.232-0.316 2.465-0.631 3.698-0.948 2.371-0.664 3.556-1.754 3.556-3.272 0-1.265-0.491-2.149-1.47-2.655-0.663-0.347-1.961-0.602-3.888-0.759-0.189-0.032-0.474-0.047-0.853-0.047-1.832 0-3.406 0.403-4.72 1.209-1.311 0.806-1.966 1.746-1.966 2.821 0 0.569 0.202 1.106 0.616 1.612l0.522 0.664-1.802 1.47-5.737-5.358 0.569-1.138c0.978-1.897 2.711-3.367 5.19-4.41 2.483-1.043 5.211-1.565 8.181-1.565 3.794 0 6.893 0.806 9.294 2.419 2.53 1.707 3.793 3.968 3.793 6.78 0 3.162-1.155 5.533-3.461 7.113" clip-path="url(#clipPath74)"/>
  <path transform="matrix(.35278 0 0 -.35278 41.596 114.61)" d="m0 0-0.237-1.043c-0.095-0.474-0.401-0.91-0.923-1.304-0.521-0.395-1.099-0.593-1.732-0.593-0.949 0-1.643 0.222-2.087 0.666-0.44 0.442-0.664 1.155-0.664 2.138v18.252h6.259v4.22h-6.259v10.917l-7.302-2.279v-8.638h-3.272v-4.22h3.272v-18.78c0-2.213 0.759-3.983 2.272-5.311 1.513-1.327 3.539-1.991 6.074-1.991 0.918 0 1.827 0.071 2.728 0.213s1.888 0.373 2.962 0.688l1.185 0.379-0.047 6.686z" clip-path="url(#clipPath76)"/>
  <path transform="matrix(.35278 0 0 -.35278 52.367 113.94)" d="m0 0-0.522-1.043c-0.444-0.886-1.185-1.692-2.228-2.418-1.203-0.854-2.449-1.281-3.746-1.281-1.453 0-2.681 0.38-3.677 1.138-0.996 0.759-1.492 1.897-1.492 3.414 0 1.675 0.63 3.035 1.897 4.078 1.487 1.233 4.173 2.181 8.061 2.845l1.707 0.285zm7.634-5.263v16.501c0 6.798-4.315 10.197-12.945 10.197-1.392 0-3.06-0.142-5.004-0.427-1.945-0.284-3.88-0.711-5.807-1.28l-1.233-0.38v-6.498h2.664l0.427 0.664c0.694 1.045 1.647 1.795 2.854 2.254 1.202 0.457 2.345 0.688 3.422 0.688 2.535 0 4.501-0.356 5.897-1.067 1.393-0.711 2.091-1.748 2.091-3.108v-0.901l-2.086-0.284c-3.509-0.505-6.324-1.074-8.441-1.707-2.879-0.854-5.091-1.992-6.638-3.414-1.802-1.643-2.703-3.731-2.703-6.26 0-2.972 1.009-5.358 3.035-7.16 1.927-1.707 4.392-2.56 7.397-2.56 3.763 0 6.845 1.073 9.246 3.224l0.664 0.569v-2.987h9.247v2.134c-0.505-0.095-0.979 0.03-1.423 0.379-0.444 0.347-0.664 0.821-0.664 1.423" clip-path="url(#clipPath78)"/>
  <path transform="matrix(.35278 0 0 -.35278 65.186 114.61)" d="m0 0c-1.944-1.675-4.25-2.513-6.927-2.513h-2.531v17.26l0.858 0.95c1.371 1.548 3.108 2.324 5.207 2.324 2.264 0 4.014-1.013 5.255-3.037 1.082-1.737 1.625-3.888 1.625-6.449 0-3.666-1.164-6.511-3.487-8.535m-0.922 23.711c-1.169 0-2.397-0.198-3.678-0.593-1.28-0.396-2.439-0.942-3.483-1.636l-1.375-1.043v14.794h-9.768v-1.991c0.535 0 1.056-0.222 1.565-0.664 0.285-0.222 0.466-0.459 0.543-0.711 0.082-0.255 0.121-0.602 0.121-1.043v-33.954c0-0.506-0.108-0.877-0.315-1.114-0.211-0.237-0.405-0.427-0.586-0.569-0.177-0.142-0.397-0.231-0.655-0.261l-0.436-0.095v-2.133h12.803c4.996 0 9.135 1.485 12.424 4.457 3.508 3.162 5.263 7.382 5.263 12.66 0 3.542-1.013 6.641-3.035 9.296-2.341 3.065-5.47 4.6-9.388 4.6" clip-path="url(#clipPath80)"/>
  <path transform="matrix(.35278 0 0 -.35278 75.999 116.17)" d="m0 0c-0.19 0.222-0.306 0.489-0.353 0.806-0.048 0.317-0.074 0.744-0.074 1.28v37.557h-10.147v-1.991c0.159 0.03 0.457-0.018 0.901-0.143 0.444-0.127 0.806-0.308 1.09-0.545 0.285-0.237 0.466-0.506 0.548-0.806 0.077-0.302 0.116-0.72 0.116-1.257v-33.431c0-0.726-0.103-1.209-0.306-1.446-0.207-0.237-0.427-0.397-0.664-0.474-0.237-0.08-0.547-0.151-0.926-0.214l-0.475-0.095v-2.133h12.282v2.133l-0.427 0.095c-0.724 0.095-1.246 0.315-1.565 0.664" clip-path="url(#clipPath82)"/>
  <path transform="matrix(.35278 0 0 -.35278 83.018 108.7)" d="m0 0c1.19 1.164 2.608 1.746 4.259 1.746 1.526 0 2.78-0.623 3.763-1.865 0.983-1.243 1.474-2.659 1.474-4.254h-11.285c0 1.752 0.595 3.211 1.789 4.373m14.432-17.581c-1.487-1.438-3.371-2.155-5.647-2.155-2.78 0-5.181 0.84-7.207 2.523-2.242 1.873-3.367 4.35-3.367 7.43l-0.095 0.953h19.588v1.426c0 3.902-1.185 7.199-3.556 9.896-2.466 2.821-5.66 4.233-9.583 4.233-4.078 0-7.466-1.516-10.169-4.544s-4.056-6.714-4.056-11.057c0-4.567 1.565-8.388 4.694-11.464 3.13-3.076 6.958-4.612 11.475-4.612 2.5 0 4.69 0.191 6.57 0.571 1.879 0.381 3.405 0.843 4.578 1.381l0.806 0.334v7.624h-2.182c-0.918-1.373-1.534-2.22-1.849-2.539" clip-path="url(#clipPath84)"/>
  <path transform="matrix(.35278 0 0 -.35278 100.7 111.6)" d="m0 0c-1.168 0.791-3.492 1.692-6.97 2.703l-1.992 0.521c-1.897 0.539-3.065 0.919-3.509 1.138-1.172 0.569-1.754 1.345-1.754 2.324 0 1.17 0.582 2.024 1.754 2.563 0.918 0.409 2.199 0.616 3.841 0.616 1.582 0 2.949-0.302 4.099-0.901 1.156-0.601 1.733-1.328 1.733-2.183 0-0.442-0.125-0.837-0.379-1.186l-0.284-0.426 1.944-1.518 4.552 4.934-0.427 0.616c-1.328 1.865-3.147 3.255-5.453 4.173-1.867 0.726-3.918 1.091-6.164 1.091-3.828 0-6.91-0.815-9.247-2.442-2.34-1.63-3.509-3.865-3.509-6.712 0-2.306 0.837-4.203 2.513-5.69 1.264-1.138 3.208-2.117 5.833-2.94l1.897-0.617c1.232-0.316 2.465-0.631 3.698-0.948 2.371-0.664 3.556-1.754 3.556-3.272 0-1.265-0.491-2.149-1.47-2.655-0.663-0.347-1.961-0.602-3.888-0.759-0.189-0.032-0.474-0.047-0.853-0.047-1.832 0-3.406 0.403-4.72 1.209-1.311 0.806-1.966 1.746-1.966 2.821 0 0.569 0.202 1.106 0.616 1.612l0.522 0.664-1.802 1.47-5.737-5.358 0.569-1.138c0.978-1.897 2.711-3.367 5.19-4.41 2.483-1.043 5.211-1.565 8.181-1.565 3.794 0 6.893 0.806 9.294 2.419 2.53 1.707 3.793 3.968 3.793 6.78 0 3.162-1.155 5.533-3.461 7.113" clip-path="url(#clipPath86)"/>
  <path transform="matrix(.35278 0 0 -.35278 108.19 108.7)" d="m0 0c1.19 1.164 2.612 1.746 4.263 1.746 1.522 0 2.776-0.623 3.759-1.865 0.987-1.243 1.479-2.659 1.479-4.254h-11.286c0 1.752 0.595 3.211 1.785 4.373m14.432-17.581c-1.487-1.438-3.366-2.155-5.643-2.155-2.78 0-5.185 0.84-7.207 2.523-2.246 1.873-3.367 4.35-3.367 7.43l-0.094 0.953h19.583v1.426c0 3.902-1.185 7.199-3.556 9.896-2.466 2.821-5.66 4.233-9.579 4.233-4.078 0-7.47-1.516-10.173-4.544s-4.052-6.714-4.052-11.057c0-4.567 1.565-8.388 4.694-11.464 3.13-3.076 6.954-4.612 11.475-4.612 2.496 0 4.686 0.191 6.57 0.571 1.879 0.381 3.405 0.843 4.574 1.381l0.806 0.334v7.624h-2.182c-0.918-1.373-1.534-2.22-1.849-2.539" clip-path="url(#clipPath88)"/>
  <path transform="matrix(.35278 0 0 -.35278 124.47 107.45)" d="m0 0h0.474c0.444 0 0.824-0.175 1.142-0.524 0.126-0.127 0.19-0.349 0.19-0.664 0-0.286-0.047-0.642-0.138-1.071-0.09-0.427-0.181-0.797-0.271-1.114l-5.505-15.784-5.276 15.592c-0.095 0.252-0.272 0.759-0.522 1.52-0.254 0.76-0.302 1.237-0.147 1.426 0.38 0.412 0.824 0.619 1.328 0.619h0.522v2.181h-12.613v-2.181h0.284c0.664 0 1.186-0.269 1.565-0.806 0.284-0.379 0.556-0.886 0.806-1.517 0.065-0.19 0.207-0.587 0.427-1.186l8.488-24.09h7.349l8.635 24.09c0.125 0.379 0.288 0.907 0.495 1.589 0.207 0.679 0.436 1.168 0.69 1.47 0.25 0.299 0.616 0.45 1.091 0.45h0.474v2.181h-9.488z" clip-path="url(#clipPath90)"/>
  <path transform="matrix(.35278 0 0 -.35278 133.96 108.7)" d="m0 0c1.19 1.164 2.608 1.746 4.259 1.746 1.526 0 2.78-0.623 3.763-1.865 0.983-1.243 1.474-2.659 1.474-4.254h-11.285c0 1.752 0.595 3.211 1.789 4.373m14.432-17.581c-1.487-1.438-3.371-2.155-5.647-2.155-2.78 0-5.181 0.84-7.207 2.523-2.242 1.873-3.367 4.35-3.367 7.43l-0.095 0.953h19.588v1.426c0 3.902-1.185 7.199-3.556 9.896-2.466 2.821-5.66 4.233-9.583 4.233-4.078 0-7.466-1.516-10.169-4.544s-4.056-6.714-4.056-11.057c0-4.567 1.565-8.388 4.694-11.464 3.13-3.076 6.958-4.612 11.475-4.612 2.5 0 4.69 0.191 6.57 0.571 1.879 0.381 3.405 0.843 4.578 1.381l0.806 0.334v7.624h-2.182c-0.918-1.373-1.534-2.22-1.849-2.539" clip-path="url(#clipPath92)"/>
  <path transform="matrix(.35278 0 0 -.35278 153.97 116.34)" d="m0 0c-0.224 0.095-0.435 0.261-0.642 0.498s-0.315 0.537-0.332 0.901-0.022 0.75-0.022 1.162v14.32c0 3.509-0.793 6.276-2.371 8.3-1.677 2.116-4.112 3.177-7.306 3.177-2.087 0-4.13-0.427-6.139-1.28-2.008-0.854-3.422-1.787-4.246-2.798v3.082h-9.294v-2.181c0.19-0.032 0.41-0.08 0.664-0.142 0.255-0.065 0.457-0.175 0.617-0.332 0.414-0.38 0.651-0.783 0.711-1.209 0.065-0.427 0.095-1.162 0.095-2.205v-19.349c0-0.726-0.13-1.241-0.388-1.541-0.259-0.302-0.664-0.498-1.211-0.593l-0.488-0.095v-2.133h11.95v2.133l-0.427 0.095c-0.724 0.095-1.246 0.315-1.565 0.664-0.155 0.19-0.246 0.412-0.258 0.664-0.018 0.252-0.026 0.522-0.026 0.806v17.165l1.138 1.281c0.853 0.885 1.582 1.487 2.181 1.804 0.888 0.474 1.991 0.711 3.319 0.711 1.867 0 3.259-0.602 4.173-1.802 0.763-1.013 1.142-2.42 1.142-4.222v-14.32c0-0.222-0.017-0.561-0.047-1.02-0.035-0.459-0.168-0.815-0.405-1.067-0.238-0.254-0.388-0.411-0.453-0.474-0.125-0.095-0.285-0.159-0.474-0.19l-0.806-0.095v-2.133h12.19v2.133l-0.426 0.095c-0.414 0.063-0.699 0.125-0.854 0.19" clip-path="url(#clipPath94)"/>
  <path transform="matrix(.35278 0 0 -.35278 163.12 114.61)" d="m0 0-0.237-1.043c-0.095-0.474-0.405-0.91-0.927-1.304-0.521-0.395-1.095-0.593-1.729-0.593-0.948 0-1.642 0.222-2.086 0.666-0.444 0.442-0.664 1.155-0.664 2.138v18.252h6.259v4.22h-6.259v10.917l-7.302-2.279v-8.638h-3.272v-4.22h3.272v-18.78c0-2.213 0.754-3.983 2.267-5.311 1.513-1.327 3.539-1.991 6.078-1.991 0.919 0 1.824 0.071 2.725 0.213s1.892 0.373 2.966 0.688l1.185 0.379-0.047 6.686z" clip-path="url(#clipPath96)"/>
  <path transform="matrix(.35278 0 0 -.35278 173.81 109.89)" d="m0 0 2.043-1.338 5.027 6.334-0.569 0.619c-1.552 1.491-3.479 2.651-5.785 3.476-1.901 0.666-3.716 1-5.458 1-5.121 0-9.087-1.631-11.902-4.892-2.431-2.817-3.651-6.333-3.651-10.542 0-4.845 1.962-8.835 5.88-11.969 3.699-2.976 8.096-4.463 13.182-4.463 1.013 0 2.121 0.079 3.324 0.237 1.198 0.159 1.974 0.301 2.323 0.426l1.091 0.427v7.397h-2.509c-0.125-0.189-0.504-0.791-1.134-1.802-0.883-0.885-2.241-1.327-4.069-1.327-2.586 0-4.789 0.855-6.621 2.567-2.173 2.026-3.263 4.895-3.263 8.602 0 2.754 0.629 5.101 1.892 7.033 1.414 2.185 3.384 3.28 5.906 3.28 1.258 0 2.345-0.295 3.258-0.886 0.91-0.588 1.367-1.377 1.367-2.364 0-0.127-0.03-0.382-0.095-0.763z" clip-path="url(#clipPath98)"/>
  <path transform="matrix(.35278 0 0 -.35278 182.52 108.7)" d="m0 0c1.19 1.164 2.608 1.746 4.259 1.746 1.526 0 2.78-0.623 3.763-1.865 0.983-1.243 1.474-2.659 1.474-4.254h-11.285c0 1.752 0.595 3.211 1.789 4.373m14.432-17.581c-1.487-1.438-3.371-2.155-5.647-2.155-2.78 0-5.181 0.84-7.207 2.523-2.242 1.873-3.367 4.35-3.367 7.43l-0.095 0.953h19.588v1.426c0 3.902-1.186 7.199-3.556 9.896-2.466 2.821-5.66 4.233-9.583 4.233-4.078 0-7.466-1.516-10.169-4.544s-4.056-6.714-4.056-11.057c0-4.567 1.565-8.388 4.694-11.464 3.13-3.076 6.958-4.612 11.475-4.612 2.5 0 4.69 0.191 6.57 0.571 1.879 0.381 3.405 0.843 4.578 1.381l0.806 0.334v7.624h-2.182c-0.918-1.373-1.534-2.22-1.849-2.539" clip-path="url(#clipPath100)"/>
  <path transform="matrix(.35278 0 0 -.35278 202.53 116.34)" d="m0 0c-0.22 0.095-0.435 0.261-0.638 0.498-0.207 0.237-0.319 0.537-0.332 0.901-0.017 0.364-0.026 0.75-0.026 1.162v14.32c0 3.509-0.789 6.276-2.371 8.3-1.677 2.116-4.108 3.177-7.302 3.177-2.086 0-4.134-0.427-6.143-1.28-2.004-0.854-3.422-1.787-4.241-2.798v3.082h-9.294v-2.181c0.189-0.032 0.409-0.08 0.664-0.142 0.25-0.065 0.457-0.175 0.616-0.332 0.41-0.38 0.647-0.783 0.711-1.209 0.061-0.427 0.095-1.162 0.095-2.205v-19.349c0-0.726-0.129-1.241-0.388-1.541-0.258-0.302-0.664-0.498-1.215-0.593l-0.483-0.095v-2.133h11.949v2.133l-0.427 0.095c-0.728 0.095-1.25 0.315-1.565 0.664-0.159 0.19-0.245 0.412-0.263 0.664-0.012 0.252-0.021 0.522-0.021 0.806v17.165l1.138 1.281c0.854 0.885 1.582 1.487 2.181 1.804 0.884 0.474 1.992 0.711 3.319 0.711 1.867 0 3.255-0.602 4.173-1.802 0.759-1.013 1.138-2.42 1.138-4.222v-14.32c0-0.222-0.017-0.561-0.047-1.02s-0.164-0.815-0.401-1.067c-0.242-0.254-0.388-0.411-0.453-0.474-0.125-0.095-0.284-0.159-0.474-0.19l-0.806-0.095v-2.133h12.186v2.133l-0.426 0.095c-0.41 0.063-0.695 0.125-0.854 0.19" clip-path="url(#clipPath102)"/>
  <path transform="matrix(.35278 0 0 -.35278 211.68 114.61)" d="m0 0-0.237-1.043c-0.095-0.474-0.405-0.91-0.927-1.304-0.521-0.395-1.095-0.593-1.728-0.593-0.949 0-1.643 0.222-2.087 0.666-0.444 0.442-0.664 1.155-0.664 2.138v18.252h6.259v4.22h-6.259v10.917l-7.302-2.279v-8.638h-3.272v-4.22h3.272v-18.78c0-2.213 0.754-3.983 2.267-5.311 1.514-1.327 3.54-1.991 6.079-1.991 0.918 0 1.823 0.071 2.724 0.213s1.892 0.373 2.966 0.688l1.185 0.379-0.047 6.686z" clip-path="url(#clipPath104)"/>
  <path transform="matrix(.35278 0 0 -.35278 218.61 108.7)" d="m0 0c1.19 1.164 2.608 1.746 4.259 1.746 1.526 0 2.78-0.623 3.763-1.865 0.983-1.243 1.474-2.659 1.474-4.254h-11.285c0 1.752 0.595 3.211 1.789 4.373m14.432-17.581c-1.487-1.438-3.371-2.155-5.647-2.155-2.78 0-5.181 0.84-7.207 2.523-2.242 1.873-3.367 4.35-3.367 7.43l-0.095 0.953h19.588v1.426c0 3.902-1.185 7.199-3.556 9.896-2.466 2.821-5.66 4.233-9.583 4.233-4.078 0-7.466-1.516-10.169-4.544s-4.056-6.714-4.056-11.057c0-4.567 1.565-8.388 4.694-11.464 3.13-3.076 6.958-4.612 11.475-4.612 2.5 0 4.69 0.191 6.57 0.571 1.879 0.381 3.405 0.843 4.578 1.381l0.806 0.334v7.624h-2.182c-0.918-1.373-1.534-2.22-1.849-2.539" clip-path="url(#clipPath106)"/>
  <path transform="matrix(.35278 0 0 -.35278 234.45 106.33)" d="m0 0c-0.819 0-1.754-0.11-2.798-0.325-1.043-0.216-1.983-0.539-2.819-0.973-0.836-0.431-1.526-0.883-2.065-1.357-0.534-0.475-1.073-1.108-1.612-1.897v3.556h-8.962v-2.181c0.285 0 0.578-0.041 0.88-0.119 0.297-0.079 0.569-0.237 0.806-0.474s0.388-0.498 0.448-0.782c0.065-0.285 0.095-0.649 0.095-1.091v-20.866c0-0.758-0.108-1.28-0.332-1.564-0.22-0.285-0.629-0.475-1.233-0.569l-0.427-0.095v-2.039h12.092v2.039l-0.474 0.095c-0.345 0.094-0.647 0.181-0.901 0.26-0.25 0.078-0.457 0.22-0.617 0.427-0.155 0.205-0.258 0.474-0.306 0.806-0.047 0.332-0.073 0.75-0.073 1.257v15.6c0 0.981 0.513 2.015 1.543 3.108 1.026 1.091 2.125 1.636 3.294 1.636 0.758 0 1.422-0.22 1.991-0.655s0.935-0.948 1.091-1.539l0.189-0.7h2.229v8.252c-0.379 0.063-0.711 0.11-0.996 0.143-0.284 0.03-0.629 0.047-1.043 0.047" clip-path="url(#clipPath108)"/>
  <path transform="matrix(.35278 0 0 -.35278 240.07 113.49)" d="m0 0c-1.802 0-3.186-0.554-4.151-1.66-0.966-1.105-1.444-2.433-1.444-3.983 0-1.517 0.495-2.838 1.491-3.959s2.362-1.683 4.104-1.683c1.802 0 3.224 0.586 4.268 1.754 0.913 1.043 1.375 2.339 1.375 3.888 0 1.518-0.475 2.813-1.423 3.889-1.043 1.17-2.453 1.754-4.22 1.754" clip-path="url(#clipPath110)"/>
  <path transform="matrix(.35278 0 0 -.35278 252.15 109.89)" d="m0 0 2.043-1.338 5.027 6.334-0.57 0.619c-1.551 1.491-3.478 2.651-5.784 3.476-1.901 0.666-3.716 1-5.458 1-5.121 0-9.087-1.631-11.902-4.892-2.431-2.817-3.651-6.333-3.651-10.542 0-4.845 1.962-8.835 5.88-11.969 3.699-2.976 8.096-4.463 13.182-4.463 1.013 0 2.121 0.079 3.324 0.237 1.198 0.159 1.974 0.301 2.323 0.426l1.091 0.427v7.397h-2.509c-0.125-0.189-0.504-0.791-1.134-1.802-0.883-0.885-2.241-1.327-4.069-1.327-2.586 0-4.789 0.855-6.621 2.567-2.173 2.026-3.263 4.895-3.263 8.602 0 2.754 0.629 5.101 1.892 7.033 1.414 2.185 3.384 3.28 5.906 3.28 1.258 0 2.345-0.295 3.258-0.886 0.91-0.588 1.367-1.377 1.367-2.364 0-0.127-0.03-0.382-0.095-0.763z" clip-path="url(#clipPath112)"/>
  <path transform="matrix(.35278 0 0 -.35278 265.08 114.59)" d="m0 0c-1.267-2.091-3.164-3.136-5.694-3.136-2.97 0-5.134 1.205-6.497 3.612-1.043 1.869-1.564 4.404-1.564 7.604 0 3.992 0.793 6.764 2.37 8.316 1.268 1.237 3.117 1.855 5.548 1.855 2.561 0 4.505-1.252 5.837-3.754 1.104-2.093 1.66-4.66 1.66-7.699 0-2.727-0.556-4.992-1.66-6.798m-5.742 23.42c-4.867 0-8.82-1.632-11.854-4.893-2.906-3.103-4.363-6.996-4.363-11.682 0-4.241 1.565-7.852 4.695-10.828 3.129-2.977 7.035-4.464 11.712-4.464 4.492 0 8.19 1.599 11.1 4.798 2.78 3.069 4.173 6.822 4.173 11.253 0 4.561-1.496 8.335-4.484 11.326-2.987 2.994-6.647 4.49-10.979 4.49" clip-path="url(#clipPath114)"/>
  <path transform="matrix(.35278 0 0 -.35278 288.82 116.33)" d="m0 0c-0.237 0.078-0.44 0.213-0.616 0.403-0.173 0.19-0.268 0.418-0.285 0.688-0.013 0.269-0.021 0.545-0.021 0.829v15.601c0 3.416-0.794 6.007-2.371 7.778-1.677 1.865-4.238 2.798-7.682 2.798-2.086 0-4.207-0.459-6.354-1.375-1.931-0.854-3.319-1.819-4.173-2.893-1.267 1.485-2.577 2.567-3.935 3.249-1.362 0.679-2.945 1.019-4.746 1.019-1.897 0-3.794-0.444-5.69-1.328-1.673-0.758-2.988-1.644-3.936-2.655v3.224h-9.673v-2.181c0.444 0.095 1.013-0.142 1.707-0.711 0.349-0.317 0.547-0.625 0.595-0.925 0.047-0.302 0.069-0.592 0.069-0.877v-21.056c0-0.601-0.108-1.019-0.332-1.256-0.22-0.237-0.63-0.42-1.233-0.545l-0.474-0.095v-2.134h11.664v2.138l-0.483 0.095c-0.193 0.032-0.431 0.071-0.702 0.118-0.276 0.048-0.5 0.175-0.681 0.38-0.177 0.207-0.268 0.642-0.268 1.308v17.103l0.949 1.377c0.698 1.013 1.513 1.718 2.444 2.114 0.931 0.395 2.048 0.595 3.341 0.595 1.517 0 2.72-0.523 3.604-1.569 0.888-1.045 1.332-2.487 1.332-4.323v-15.249c0-0.572-0.113-1.001-0.332-1.285-0.225-0.285-0.604-0.474-1.143-0.569l-0.474-0.095v-2.138h11.859v2.138l-0.474 0.095c-0.569 0.095-0.975 0.284-1.212 0.569-0.237 0.284-0.388 0.603-0.448 0.95-0.065 0.35-0.095 0.761-0.095 1.238v16.579l1.091 1.282c0.789 0.888 1.556 1.504 2.297 1.854 0.742 0.347 1.716 0.523 2.919 0.523 1.642 0 2.922-0.396 3.841-1.189 1.073-0.919 1.612-2.358 1.612-4.322v-14.111c0-1.013-0.035-1.688-0.095-2.02-0.065-0.331-0.177-0.577-0.332-0.737-0.319-0.379-0.634-0.584-0.948-0.616l-0.475-0.095v-2.138h11.76v2.134l-0.474 0.095c-0.38 0.062-0.69 0.133-0.927 0.213" clip-path="url(#clipPath116)"/>
 </g>
</svg>
