<?xml version="1.0" encoding="UTF-8"?>
<!-- Created with Inkscape (http://www.inkscape.org/) -->
<svg width="1920" height="900" version="1.1" viewBox="0 0 1920 900" xmlns="http://www.w3.org/2000/svg">
 <defs>
  <clipPath id="clipPath2">
   <path d="m10463 3198.4h2941.1v5601.9h-2941.1z"/>
  </clipPath>
  <clipPath id="clipPath3">
   <path d="m10463 3198.4h2941.1v5601.9h-2941.1z"/>
  </clipPath>
  <clipPath id="clipPath4">
   <path d="m10463 3198.4h2941.1v5601.9h-2941.1z"/>
  </clipPath>
  <clipPath id="clipPath5">
   <path d="m10463 3198.4h2941.1v5601.9h-2941.1z"/>
  </clipPath>
  <clipPath id="clipPath6">
   <path d="m10463 3198.4h2941.1v5601.9h-2941.1z"/>
  </clipPath>
  <clipPath id="clipPath7">
   <path d="m10463 3198.4h2941.1v5601.9h-2941.1z"/>
  </clipPath>
  <clipPath id="clipPath8">
   <path d="m10463 3198.4h2941.1v5601.9h-2941.1z"/>
  </clipPath>
  <clipPath id="clipPath9">
   <path d="m10463 3198.4h2941.1v5601.9h-2941.1z"/>
  </clipPath>
  <clipPath id="clipPath10">
   <path d="m10463 3198.4h2941.1v5601.9h-2941.1z"/>
  </clipPath>
  <clipPath id="clipPath11">
   <path d="m10463 3198.4h2941.1v5601.9h-2941.1z"/>
  </clipPath>
  <clipPath id="clipPath12">
   <path d="m10463 3198.4h2941.1v5601.9h-2941.1z"/>
  </clipPath>
  <clipPath id="clipPath13">
   <path d="m10463 3198.4h2941.1v5601.9h-2941.1z"/>
  </clipPath>
  <clipPath id="clipPath14">
   <path d="m10463 3198.4h2941.1v5601.9h-2941.1z"/>
  </clipPath>
  <clipPath id="clipPath15">
   <path d="m10463 3198.4h2941.1v5601.9h-2941.1z"/>
  </clipPath>
  <clipPath id="clipPath16">
   <path d="m10463 3198.4h2941.1v5601.9h-2941.1z"/>
  </clipPath>
  <clipPath id="clipPath17">
   <path d="m10463 3198.4h2941.1v5601.9h-2941.1z"/>
  </clipPath>
  <clipPath id="clipPath18">
   <path d="m10463 3198.4h2941.1v5601.9h-2941.1z"/>
  </clipPath>
  <clipPath id="clipPath19">
   <path d="m10463 3198.4h2941.1v5601.9h-2941.1z"/>
  </clipPath>
  <clipPath id="clipPath20">
   <path d="m10463 3198.4h2941.1v5601.9h-2941.1z"/>
  </clipPath>
  <clipPath id="clipPath21">
   <path d="m10463 3198.4h2941.1v5601.9h-2941.1z"/>
  </clipPath>
  <clipPath id="clipPath22">
   <path d="m10463 3198.4h2941.1v5601.9h-2941.1z"/>
  </clipPath>
  <clipPath id="clipPath23">
   <path d="m10463 3198.4h2941.1v5601.9h-2941.1z"/>
  </clipPath>
  <clipPath id="clipPath24">
   <path d="m10463 3198.4h2941.1v5601.9h-2941.1z"/>
  </clipPath>
  <clipPath id="clipPath25">
   <path d="m10463 3198.4h2941.1v5601.9h-2941.1z"/>
  </clipPath>
  <clipPath id="clipPath26">
   <path d="m10463 3198.4h2941.1v5601.9h-2941.1z"/>
  </clipPath>
  <clipPath id="clipPath27">
   <path d="m10463 3198.4h2941.1v5601.9h-2941.1z"/>
  </clipPath>
  <clipPath id="clipPath28">
   <path d="m10463 3198.4h2941.1v5601.9h-2941.1z"/>
  </clipPath>
  <clipPath id="clipPath29">
   <path d="m10463 3198.4h2941.1v5601.9h-2941.1z"/>
  </clipPath>
  <clipPath id="clipPath30">
   <path d="m10463 3198.4h2941.1v5601.9h-2941.1z"/>
  </clipPath>
  <clipPath id="clipPath60">
   <path transform="matrix(.13333 0 0 -.13333 0 1536)" d="m10463 3198.4h2941.1v5601.9h-2941.1z"/>
  </clipPath>
 </defs>
 <text x="145.01103" y="491.73959" font-size="16px" stroke-width="1.3333" xml:space="preserve"><tspan x="145.01103 256.6272 337.39468 489.11768 631.71954 738.28772 787.64563 942.44995 1095.5715 1240.5605" y="491.73959" fill="#a71936" font-family="Impact" font-size="280.44px" font-stretch="condensed" stroke-width="1.3333">FINAL BOSS</tspan></text>
 <text x="151.64131" y="642.36896" font-size="16px" stroke-width="1.3333" xml:space="preserve"><tspan x="151.64131 232.74797 309.30795 422.38797 498.50797 567.58795 612.32129 687.26794 739.77466 765.58795 844.6413 919.58795 996.29462 1041.0278 1114.9479 1155.1345" y="642.36896" fill="#231f20" font-family="Impact" font-size="146.67px" font-stretch="condensed" stroke-width="1.3333">Dumpster Rentals</tspan></text>
 <g transform="translate(12.229 -330.19)" clip-path="url(#clipPath60)">
  <path transform="matrix(.13333 0 0 -.13333 0 1536)" d="m13383 3805.9c59.6-94.81-18-265.7-124.4-355.81-153.9-130.5-374.2-97-572-67-209.7 31.91-370.3 103.71-471.3 158.5-33.2 306.31-46 612.21-79.1 918.41 0 0.2-0.1 0.5-0.1 0.7 0.8 0.3 1.6 0.7 2.5 1.1 22.8-28.6 40.6-43.4 72.7-66.71 174.6-126.89 468.1-134.09 592.4-36.79 111.5-154.21 30.2-366.5 169.1-366.8 197.9-0.5 323.8-48.2 410.2-185.6" clip-path="url(#clipPath2)" fill="#231f20"/>
  <path transform="matrix(.13333 0 0 -.13333 0 1536)" d="m12537 5817.7c-5.3 1.6-10.5 3.1-15.5 4.6 73.2 147.5 84 292.2 85.8 322.29 5.3 87.11 16.8 276.71-113.3 431.41-22.8 27.09-15.2 23.09-38.5 40.9 34.8-3.1 69.1 0 99.2 16.19 25 13.41 44.2 34.71 62.9 55.41-46.2-25.5-101-24.41-152.3-10.2v0.1l4.8 16.6c32.8 22.2 67.3 30.7 102.7 35.59 5.5 0.81 11 1.31 16.4 1.61 7.9 0.39 15.8 0.3 23.7-0.2l-0.3-5.6c2.5-0.2 5-0.4 7.5-0.7 97.2-10.4 192.1-83.8 275.9-148.7 89.2-69 208.6-161.41 222.9-296.1 8.3-78.7-22.1-144.4 32.8-201.5 34.1-35.5 70.6-35.9 86.4-74.4 19.7-48-28.7-68.2-22.5-134.1 0.9-9.4 7.5-18.6 11.8-26.6 18.1-33.71 38-66.3 56.9-99.5 3.1-5.3 6.2-10.71 8.6-16.4 18.6-43.9 15.2-149.4-26.7-180.9-7.4-5.5-16.1-8.8-26.2-10-78.3-9.2-240.7 103.59-518.6 214.59-76.2 30.5-136.1 50.91-184.4 65.61" clip-path="url(#clipPath3)" fill="#231f20"/>
  <path transform="matrix(.13333 0 0 -.13333 0 1536)" d="m12100 4980.3c-26.6 5.29-52.2 13.9-75.2 27.2-18.1 10.4-34.5 23.7-48.5 40.5-53.3 63.9-51.7 148.5-18.5 229.3 20.9 40.4 48.8 88.5 91.9 136.6 19.5 21.8 37.9 38.9 55.7 52.69 0.2 0.21 0.4 0.31 0.6 0.5 0.9 0.71 1.7 1.31 2.6 1.91 2.3 1.8 4.5 3.4 6.8 5.09 21.7 15.41 44.3 27.81 67.4 39.11 0.6 0.2 1.2 0.5 1.9 0.89 24.7 11.71 49.8 21.91 76.9 35.71 0.3 0.2 0.6 0.29 0.9 0.5 56.5 27.2 112.9 61.1 163.3 128.5 0.1 0.2 0.3 0.29 0.4 0.5 21.2 24 39.8 49.1 56.3 74.7 17.8 22.8 35.4 44 54.3 63.7 48.3-14.7 108.2-35.11 184.4-65.61 277.9-111 440.3-223.79 518.6-214.59 0.8-5.8 1-11.5 0.8-17-2.3-50.6-42.3-85.91-59.7-100.8-94.6-81.11-240.4-81.9-346.5-107.8-137.3-33.5-190.1-104.4-254.9-173-50.5-53.6-108.5-105.7-219.7-137.4-24.3-7-150.3-42.91-259.8-21.2" clip-path="url(#clipPath4)" fill="#f4985c"/>
  <path transform="matrix(.13333 0 0 -.13333 0 1536)" d="m12139 4461.8c-0.9 1.1-1.8 2.29-2.8 3.5-12 171.7-24 343.29-36.1 515 109.5-21.71 235.5 14.2 259.8 21.2 111.2 31.7 169.2 83.8 219.7 137.4 100.3-73 139.2-188.4 209.1-395.4 63.9-189.5 95.9-284.2 49.4-350.1-9.1-12.9-20.6-24.6-34-35.1-124.3-97.3-417.8-90.1-592.4 36.79-32.1 23.31-49.9 38.11-72.7 66.71" clip-path="url(#clipPath5)" fill="#a71936"/>
  <path transform="matrix(.13333 0 0 -.13333 0 1536)" d="m12637 8705.8c9.4-1.3 6.6-85.9 0.5-153.71-5.6-61.09-16.1-169.29-62.2-307.69-42.9-128.81-90.7-206-176.4-344.31-27.1-43.69-46.8-72.59-63.7-91.5h-0.1c-3.2-1.5-6.2-4.59-9-9.39-12.1-11.61-23-18.11-34.7-21.4-0.1-0.1-0.1-0.1-0.2-0.1-59-4.5-127.3 38.39-158.1 83-2.7 4-5.2 8-7.4 12.2-0.1 0.19-0.2 0.4-0.3 0.6-7.7 15.9-12.9 33.09-14.7 51.09-1.8 17.71-0.3 36.21 4.2 54.11 0.3 1.2 0.7 2.5 1.1 3.8 2.7 9 6.1 17.8 9.9 26.3 0.1 0.5 0.4 1 0.7 1.5 8.2 16.79 19.5 31.9 33.5 43.6 38.3 31.9 92 31.6 136.3 51.1 48.1 21.3 90.7 54.3 125.6 93.4 52.7 59 88.8 131 117.1 204.9 23.5 61.4 42 124.7 62.6 187.1 3.6 10.8 25.3 116.8 35.3 115.4" clip-path="url(#clipPath6)" fill="#dbd19d"/>
  <path transform="matrix(.13333 0 0 -.13333 0 1536)" d="m12461 5936.9c1.1 15.1 0.3 30.8-6.5 44.3-1 1.89-2 3.7-3.2 5.39-13.8 21-41.1 30.81-66.7 31.61-97 3-176.1-46.4-229.8-125-46.1-67.5-74.4-145.9-121.4-212.7-44.1-62.7-119.2-125.6-201.2-114.3 24-12.4 48.7-24.9 75.5-28.2 58.4-7.41 112.4 29.3 159.9 64.09 65.2 47.71 130.9 95.5 203.2 131.71 90.2 45.2 182.2 89.4 190.2 203.1m-1166.4-230.4c-153.4 166.4-170.7 391.7-172 411.7-3.9 63.5-2.9 203.3 79.1 351.2 8.9 16.1 25.8 53.6 63.4 100 21.7 26.69 50.2 56.4 87.9 86.4l-0.8 6.29c63.7 10.41 127.7 18.81 192.3 19.41 107.4 1.09 216.1 0.4 276.8 103.09 8 13.5 14.6 28.61 14.3 44.31 0 1.1 0 2.19-0.1 3.3h0.4c0.7-12.8 5.6-25.2 11.6-36.61 54.1-103.79 162.6-110.09 269.8-117.89 85.8-6.2 169.9-25.9 253.4-45.7 27.3-6.5 56-12.8 84.3-15.1 23.3-17.81 15.7-13.81 38.5-40.9 130.1-154.7 118.6-344.3 113.3-431.41-1.8-30.09-12.6-174.79-85.8-322.29-11.3-22.9-24.2-45.8-38.8-68.3-18.1-23.2-36.3-48-56.3-74.7-0.1-0.21-0.3-0.3-0.4-0.5-24-27.3-51.1-53.21-81.9-76.9-29.7-22.9-56.4-38.81-81.4-51.6-0.3-0.21-0.6-0.3-0.9-0.5-25.8-12.4-51.7-23.4-76.9-35.71-0.7-0.39-1.3-0.69-1.9-0.89-22.4-10.61-44.4-22.3-67.4-39.11-2.3-1.59-4.5-3.19-6.8-5.09-0.9-0.6-1.7-1.2-2.6-1.91-0.2-0.19-0.4-0.29-0.6-0.5-63.4-48.59-118-117.39-147.6-189.29-32.2-62.4-47.8-106.71-76.9-104.8-10.1 0.7-17.6 6.5-23.9 16.5-10.2 59.5-32 123.2-63.7 180.4-15.3 32.19-35.6 65.1-64.1 95.9-107.7 116.6-199.5 60.79-350.6 167.5-31.7 22.4-59.4 47.29-83.7 73.7" clip-path="url(#clipPath7)" fill="#8f611f"/>
  <path transform="matrix(.13333 0 0 -.13333 0 1536)" d="m12589 6732.2c-5.4-0.3-10.9-0.8-16.4-1.61-35.4-4.89-69.9-13.39-102.7-35.59l-4.8-16.6c-33.3 9.1-65.1 23.8-92.2 40.3-9.2 5.6-18.1 11.5-26.9 17.6l16.6 7.4c55.5 48.1 105.3 108.8 104.6 190.7-0.2 30.9-9 82.3-41.1 127.4-9.3 13.1-19.5 24.1-30 33.29 21.4 0.91 42.9 1.81 64.7 2.71 1.8 2.79 3.5 5.79 5.4 8.79l0.4-0.19c78.3-86.5 122.1-206.31 122.4-374.2" clip-path="url(#clipPath8)" fill="#724f33"/>
  <path transform="matrix(.13333 0 0 -.13333 0 1536)" d="m12455 6616.9c-28.3 2.3-57 8.6-84.3 15.1-83.5 19.8-167.6 39.5-253.4 45.7-107.2 7.8-215.7 14.1-269.8 117.89-6 11.41-10.9 23.81-11.6 36.61-0.1 2.5-0.1 5 0.1 7.5 0.2 2.1 0.5 4.2 0.9 6.3 5.1 25 28 44.7 52.8 55.3 94.4 40.1 192.3 24 277.1-29.3 63.6-40 117.3-93.1 178.9-135.7 8.8-6.1 17.7-12 26.9-17.6 27.1-16.5 58.9-31.2 92.2-40.3v-0.1c51.3-14.21 106.1-15.3 152.3 10.2-18.7-20.7-37.9-42-62.9-55.41-30.1-16.19-64.4-19.29-99.2-16.19" clip-path="url(#clipPath9)" fill="#8f611f"/>
  <path transform="matrix(.13333 0 0 -.13333 0 1536)" d="m11171 7063.4h-0.1c-27.3 1.69-70 7.6-100.2 38.69-35.3 36.2-37.9 90.41-40.5 143.7-2.6 53.91 5.1 94.5 11.2 125.41 10 50.89 22.5 111.39 64.9 173.5 0 0 24.9 36.59 59.1 67 29.2 25.89 75.9 41.59 132.2 50.09h0.3c10-0.59 23.3 2.8 35.2 4.11 3.6 0.39 7.2 0.8 10.8 1.1 0.6 0.09 1.3 0.09 2 0.2 146.9 11.39 336.4-14.3 456-34.8 0.7-0.11 1.4-0.2 2.1-0.31 55.7-9.59 95.9-17.89 108.9-20.69 295.8-62.7 523.3-112.4 645.8-139.4 1.9-44.8-0.2-103.5-14.9-170.41-18.6-84.09-50.5-149.89-77.1-195-1.9-3-3.6-6-5.4-8.8-21.8-0.89-43.3-1.79-64.7-2.7-87.7-3.5-172-6.8-252.7-9.8-10.8-0.39-21.5-0.79-32.1-1.2-64.3-2.39-126.1-4.59-185.2-6.5-82.9-2.89-160.6-5.3-232.2-7.39-82.4-2.41-156.8-4.3-222.3-5.7-76.4-1.6-140.6-2.5-191.1-2.71-47.7-0.29-83.1 0.21-104.8 1.3-1.7 0.11-3.4 0.2-5.2 0.31" clip-path="url(#clipPath10)" fill="#a71936"/>
  <path transform="matrix(.13333 0 0 -.13333 0 1536)" d="m12467 6934.4c0.7-81.9-49.1-142.6-104.6-190.7l-16.6-7.4c-61.6 42.6-115.3 95.7-178.9 135.7-84.8 53.3-182.7 69.4-277.1 29.3-24.8-10.6-47.7-30.3-52.8-55.3-0.4-2.1-0.7-4.2-0.9-6.3-0.2-2.5-0.2-5-0.1-7.5h-0.4c-0.1 1.1-0.3 2.1-0.4 3.2-3.4 25.9-25 47.5-49.1 59.9-91.5 47.1-190.3 37-278.3-11.9-75.6-42-139.3-102.4-215.4-143.4-2.7-1.5-5.5-2.91-8.2-4.3l-9.5 12.3c-23.2 27.2-30.1 43.9-39.1 64.5-11.5 26.09-36 83.5-19.6 148.09 3.9 15.31 16.5 56.31 64.3 100.11v1.1c50.5 0.2 114.7 1.1 191.1 2.7l0.4-14.7c-0.6-16.1 3.7-31.3 11.6-44.8 17.8-30.5 54.4-52 97.2-53.41 61.9-2 113.3 38.81 115 91 0.2 6.5-0.4 12.91-1.7 19.11l-0.2 8.5c71.6 2.1 149.3 4.5 232.2 7.39l0.2-6.19c-0.7-4.1-1.1-8.31-1.3-12.5-1.7-54.4 47-100.1 108.8-102 61.8-2 113.4 40.4 115.1 94.8 0.4 13.39-0.4 21.89-5.5 33.6 80.7 3 165 6.29 252.7 9.79 10.5-9.19 20.7-20.19 30-33.29 32.1-45.1 40.9-96.5 41.1-127.4" clip-path="url(#clipPath11)" fill="#f4985c"/>
  <path transform="matrix(.13333 0 0 -.13333 0 1536)" d="m12455 5981.2c6.8-13.5 7.6-29.2 6.5-44.3-8-113.7-100-157.9-190.2-203.1-72.3-36.21-138-84-203.2-131.71-47.5-34.79-101.5-71.5-159.9-64.09-26.8 3.3-51.5 15.8-75.5 28.2 82-11.3 157.1 51.6 201.2 114.3 47 66.8 75.3 145.2 121.4 212.7 53.7 78.6 132.8 128 229.8 125 25.6-0.8 52.9-10.61 66.7-31.61 1.2-1.69 2.2-3.5 3.2-5.39" clip-path="url(#clipPath12)" fill="#6c4a26"/>
  <path transform="matrix(.13333 0 0 -.13333 0 1536)" d="m12335 7808.6c38.2 17.5 95.4-195.39 95-262.09-0.5-83.91-80 1.59-206.6 16.3-148.7 17.2-268.7 42.5-379.6 64.6l93.7-11.1-16 443.4 0.6 7.39c65.1-5.5 130.3-12.29 192.6-32.39 18.6-6 18.5-9.3 11.7-24.4-0.3-0.5-0.6-1-0.7-1.5-4.1-8.4-7.4-17.3-9.9-26.3-0.4-1.3-0.8-2.6-1.1-3.8-0.5-1.7-1-3.5-1.4-5.2-8.2-34.1-4.7-69.3 11.9-100 0.1-0.2 0.2-0.41 0.3-0.6 30.7-62.9 100.6-105.81 155.9-97.31 3.3 0.5 6.5 1.21 9.6 2.11 0.1 0 0.1 0 0.2 0.1 2.6 0.2 5.3 0.5 7.9 0.9 8.9 1.39 19.6 4.6 23.3 13.5 1.1 2.7 2.3 5 3.5 7 3 2.8 6 5.89 9 9.39" clip-path="url(#clipPath13)" fill="#a1a5a6"/>
  <path transform="matrix(.13333 0 0 -.13333 0 1536)" d="m12136 4465.3c0.1-1.5 0.2-3.1 0.3-4.6 0-0.2 0.1-0.5 0.1-0.7 19.2-274.8 38.5-549.5 57.7-824.3-111.6-119.4-223.2-238.7-334.9-358.11-83.4 112.5-166.9 224.91-250.3 337.41 0.5 118.5 1.1 237.09 1.6 355.59 3.8 148.41 7.3 296.81 2.1 445.61 0.8 174.89 1.6 349.89 2.4 524.8 34.5-2.2 71.6-1.91 106.2 3.7l0.8-5c-6.5-355.3-12.5-679.8-19-1035.1 50.7-89.09 101.3-178.19 151.9-267.29 70.9 96.9 141.8 193.9 212.8 290.79-14.4 359.81-28.7 719.61-43 1079.4 23-13.3 48.6-21.91 75.2-27.2 12.1-171.71 24.1-343.3 36.1-515" clip-path="url(#clipPath14)" fill="#a2a0a5"/>
  <path transform="matrix(.13333 0 0 -.13333 0 1536)" d="m12037 7061.7c25.5 0 46.1-8.7 46.1-19.3 0-10.7-20.6-19.4-46.1-19.4s-46.1 8.7-46.1 19.4c0 10.6 20.6 19.3 46.1 19.3" clip-path="url(#clipPath15)" fill="#231f20"/>
  <path transform="matrix(.13333 0 0 -.13333 0 1536)" d="m12025 5007.5c14.3-359.8 28.6-719.6 43-1079.4-71-96.89-141.9-193.89-212.8-290.79-50.6 89.1-101.2 178.2-151.9 267.29 6.5 355.31 12.5 679.81 19 1035.1l-0.8 5c61.6 9.89 115.3 36.7 133.2 96.39 11.8 39.5 12.3 91.81 2.5 147.91 6.3-10 13.8-15.8 23.9-16.5 29.1-1.91 44.7 42.4 76.9 104.8-33.2-80.8-34.8-165.4 18.5-229.3 14-16.8 30.4-30.1 48.5-40.5" clip-path="url(#clipPath16)" fill="#85838a"/>
  <path transform="matrix(.13333 0 0 -.13333 0 1536)" d="m11892 7982.6c0.7 20.21-15.1 37.11-35.3 37.71-20.2 0.7-37.1-15.1-37.8-35.3-0.6-20.2 15.2-37.1 35.4-37.8 20.2-0.61 37.1 15.2 37.7 35.39m8.4-137c0.6 20.21-15.2 37.11-35.4 37.71-20.2 0.7-37.1-15.21-37.7-35.4-0.7-20.1 15.2-37 35.4-37.7 20.1-0.61 37 15.2 37.7 35.39m0-150.89c0.6 20.2-15.2 37.1-35.4 37.8-20.2 0.59-37.1-15.2-37.7-35.41-0.7-20.19 15.2-37.09 35.4-37.79 20.1-0.6 37 15.2 37.7 35.4m21 365 16-443.4-93.7 11.1c-14.3 2.9-28.5 5.69-42.6 8.4l-11.6 419.1" clip-path="url(#clipPath17)" fill="#a71936"/>
  <g fill="#a1a5a6">
   <path transform="matrix(.13333 0 0 -.13333 0 1536)" d="m11922 8067-0.6-7.39-131.9-4.8 11.6-419.1c-147.8 28.5-283.4 48.4-455.9 31.4-0.7-0.11-1.4-0.11-2-0.2-15.9-1.2-31.3-3-46-5.2h-0.3c-13.5 1-20.5 9.79-8.2 42.7 20.9 56.2 56.5 120.8 108.6 120.4 6.4-5.81 13.2-9.9 20.8-13.1 64.8-27.1 171.6 19 201.8 103.4 6.1 17.1 9.2 35.89 9 54.7 1.2 15-0.4 29.1-5.2 41.19-18.2 46.41 32.9 58.81 69.9 61.31 72.4 4.8 145.2 1.5 217.5-4.4 3.6-0.3 7.3-0.6 10.9-0.91" clip-path="url(#clipPath18)"/>
   <path transform="matrix(.13333 0 0 -.13333 0 1536)" d="m11865 7732.5c20.2-0.7 36-17.6 35.4-37.8-0.7-20.2-17.6-36-37.7-35.4-20.2 0.7-36.1 17.6-35.4 37.79 0.6 20.21 17.5 36 37.7 35.41" clip-path="url(#clipPath19)"/>
   <path transform="matrix(.13333 0 0 -.13333 0 1536)" d="m11865 7883.3c20.2-0.6 36-17.5 35.4-37.71-0.7-20.19-17.6-36-37.7-35.39-20.2 0.7-36.1 17.6-35.4 37.7 0.6 20.19 17.5 36.1 37.7 35.4" clip-path="url(#clipPath20)"/>
   <path transform="matrix(.13333 0 0 -.13333 0 1536)" d="m11857 8020.3c20.2-0.6 36-17.5 35.3-37.71-0.6-20.19-17.5-36-37.7-35.39-20.2 0.7-36 17.6-35.4 37.8 0.7 20.2 17.6 36 37.8 35.3" clip-path="url(#clipPath21)"/>
  </g>
  <path transform="matrix(.13333 0 0 -.13333 0 1536)" d="m11232 5094.9c-62 56.69-121.6 112.3-246.8 131.19-106.9 16.21-250.7 4-351.1 76-17.3 12.41-55.8 40.81-66 85.5l-0.3 2.11c84.2 11.3 239 119.39 491.5 228.89 100.8 43.71 173.2 68.61 227.5 85.5 28.9-23 48.3-50 99.9-84 146.2-96.59 168.9-39.29 274.9-104.69 53.7-33.2 98.1-86 131.4-146 36.3-76.5 43.8-148.9 63.7-180.4 9.8-56.1 9.3-108.41-2.5-147.91-17.9-59.69-71.6-86.5-133.2-96.39-34.6-5.61-71.7-5.9-106.2-3.7-64.5 4.09-120.2 16.9-134.4 19.59-126 24.11-188.4 79.71-248.4 134.31" clip-path="url(#clipPath22)" fill="#f4985c"/>
  <path transform="matrix(.13333 0 0 -.13333 0 1536)" d="m11836 6828.9c0.3-15.7-6.3-30.8-14.3-44.3-60.7-102.7-169.4-102-276.8-103.1-64.6-0.6-128.6-9-192.3-19.4-21.2-3.5-42.4-7.2-63.6-10.9-61.8-10.9-130.5-20.6-183.1 13-24 15.4-41.8 38.3-59.1 60.8 70.4-46.1 166.9-25.2 237.7 10.7 2.7 1.4 5.5 2.8 8.2 4.3 76.1 41 139.8 101.4 215.4 143.4 88 48.9 186.8 59 278.3 11.9 24.1-12.4 45.7-34 49.1-59.9 0.1-1.1 0.3-2.1 0.4-3.2s0.1-2.2 0.1-3.3" clip-path="url(#clipPath23)" fill="#8f611f"/>
  <path transform="matrix(.13333 0 0 -.13333 0 1536)" d="m11590 7046.7c25.5 0 46.1-8.7 46.1-19.3 0-10.7-20.6-19.4-46.1-19.4s-46.1 8.7-46.1 19.4c0 10.6 20.6 19.3 46.1 19.3" clip-path="url(#clipPath24)" fill="#231f20"/>
  <path transform="matrix(.13333 0 0 -.13333 0 1536)" d="m10985 4280.5c-23 16.59-41.5 36.4-54 59-38.4 70-3.3 164.4 66.9 353.4 81.6 219.4 124.7 335.5 234.5 402 60-54.6 122.4-110.2 248.4-134.31 14.2-2.69 69.9-15.5 134.4-19.59-0.8-174.91-1.6-349.91-2.4-524.8-29.6-44.4-65.8-83.3-108.9-113.8-155.8-110.1-398.9-108.4-518.9-21.9" clip-path="url(#clipPath25)" fill="#a71936"/>
  <path transform="matrix(.13333 0 0 -.13333 0 1536)" d="m11613 4416.2c-0.7-148.5-1.4-297.11-2.1-445.61-4-157.5-8.3-315-2.8-472.89-87.5-68.7-228.7-163-421.6-225.11-181.9-58.5-384.6-123.69-547.2-17.79-112.4 73.29-208.7 230.29-165.7 332.29 62.5 148.11 174.4 213.5 360.5 242.91 130.9 20.59 24.5 218.8 109.4 387.2 12.6 25.2 27.2 46 41.7 63.3 120-86.5 363.1-88.2 518.9 21.9 43.1 30.5 79.3 69.4 108.9 113.8" clip-path="url(#clipPath26)" fill="#231f20"/>
  <path transform="matrix(.13333 0 0 -.13333 0 1536)" d="m11603 8052.5c17.1-23.2 25.5-52.91 25.8-82.6-6.4-80.6-94-186.6-210.5-148.6-7.3 2.29-14.4 3.5-21.1 3.6-20.9 18.9-37.2 55.6-63 136.1-49.8 154.8-77.6 241.3-88.2 376.59-11.3 145.41 4.6 253 14 313.61 10.3 67.39 28.1 150.1 37.5 149.1 10-1 5.6-109.21 6.4-120.5 5-65.6 7.6-131.4 15.6-196.71 9.6-78.5 27.3-157.09 64.2-227.09 24.5-46.3 57.9-88.7 99.4-120.91 38.2-29.59 90.4-42.39 119.9-82.59" clip-path="url(#clipPath27)" fill="#dbd19d"/>
  <path transform="matrix(.13333 0 0 -.13333 0 1536)" d="m11353 6662 0.8-6.29c-37.7-30-66.2-59.71-87.9-86.4-26.8 14.19-54.4 23.19-82.4 26.3-45.7 4.89-90.7-6.5-134.4-27-8.9 55.7-11.8 107.8-9.3 156.7l7.4-0.4c17.3-22.5 35.1-45.41 59.1-60.8 52.6-33.61 121.3-23.9 183.1-13 21.2 3.7 42.4 7.39 63.6 10.89" clip-path="url(#clipPath28)" fill="#724f33"/>
  <path transform="matrix(.13333 0 0 -.13333 0 1536)" d="m11287 5704c-54.3-16.89-126.7-41.79-227.5-85.5-252.5-109.5-407.3-217.59-491.5-228.89-19.3-2.61-34.8-0.11-47 8.5-23.9 16.89-31 50.89-34.7 78-4 29.89-8.9 71.2 1.1 99.8 2.1 5.9 5 11.4 8 16.8 18.3 33.5 37.1 66.79 54.4 100.9 4.5 8.7 11.6 19.1 12.3 29.3 4.3 66-44.7 84.8-26.4 133.4 14.6 38.9 51.1 40.3 84.2 76.8 53.2 58.7 20.9 123.5 26.9 202.39 10.4 135.11 127.1 230.91 214.2 302.5 57.8 47.61 121.1 99.5 187.5 130.61 43.7 20.5 88.7 31.89 134.4 27 28-3.11 55.6-12.11 82.4-26.3-37.6-46.4-54.5-83.9-63.4-100-82-147.9-83-287.7-79.1-351.2 1.3-20 18.6-245.3 172-411.7-2.6-0.8-5.2-1.6-7.8-2.41" clip-path="url(#clipPath29)" fill="#231f20"/>
  <path transform="matrix(.13333 0 0 -.13333 0 1536)" d="m11275 6748 9.5-12.3c-70.8-35.9-167.3-56.8-237.7-10.7l-7.4 0.4c6.7 136.69 55 247.69 131.1 338h0.1c1.8-0.1 3.5-0.2 5.2-0.31 21.7-1.09 57.1-1.59 104.8-1.29v-1.1c-47.8-43.8-60.4-84.8-64.3-100.11-16.4-64.59 8.1-122 19.6-148.09 9-20.6 15.9-37.3 39.1-64.5" clip-path="url(#clipPath30)" fill="#724f33"/>
 </g>
 <g fill="none" stroke="#231f20" stroke-linecap="round" stroke-miterlimit="10">
  <g stroke-width="4">
   <path d="m1501.6 264.03c0.08-0.11867 0.1733-0.22534 0.2667-0.33334"/>
   <path d="m1486.9 338.05c-0.6133-2.7467-1.1333-5.44-1.5466-8.0667-1.1867-7.4267-1.5734-14.373-1.24-20.893 0.8933-18.225 7.3333-33.025 17.48-45.067"/>
   <path d="m1674.5 258.29c10.44 11.533 16.28 27.507 16.32 49.893 0 0.69333 0 1.4-0.013 2.1067"/>
   <path d="m1660.6 306.65c7.4-6.4133 14.04-14.507 13.947-25.427-0.027-4.12-1.2-10.973-5.48-16.987-1.24-1.7467-2.6-3.2133-4-4.4387-0.08-0.0813-0.1466-0.148-0.2266-0.21466"/>
   <path d="m1516.3 264.39c-6.3734 5.84-8.0534 11.307-8.5734 13.348-2.1866 8.612 1.08 16.267 2.6134 19.745 1.2 2.7467 2.12 4.9733 5.2133 8.6"/>
   <path d="m1559.6 616.75c0.3866 0.0933 0.7066 0.17333 0.9733 0.24 0.6933 19.84 0.2267 39.627-0.28 59.415-0.5333 21-1.1067 42-0.3733 63.052-11.667 9.16-30.493 21.733-56.213 30.015-24.253 7.8-51.28 16.492-72.96 2.372-14.987-9.772-27.827-30.705-22.093-44.305 8.3334-19.748 23.253-28.467 48.067-32.388 17.453-2.7453 3.2667-29.173 14.587-51.627 1.68-3.36 3.6267-6.1333 5.56-8.44 0.1067-0.13333 0.2-0.25333 0.3067-0.37333"/>
   <path d="m1630.4 611.15c4.4133 40.827 6.12 81.613 10.547 122.45 13.467 7.3053 34.88 16.879 62.84 21.133 26.373 4 55.747 8.4667 76.267-8.9333 14.187-12.015 24.533-34.8 16.587-47.441-11.52-18.32-28.307-24.68-54.693-24.747-18.52-0.04-7.68-28.345-22.547-48.907-0.04-0.0533-0.067-0.0933-0.1067-0.14667-0.12-0.14666-0.2266-0.30666-0.3466-0.45333"/>
   <path d="m1631.1 610.79c-0.1067 0.04-0.2133 0.0813-0.32 0.12-0.12 0.0533-0.2267 0.10667-0.3333 0.14667"/>
   <path d="m1560.6 616.99c-3.9467 5.92-8.7733 11.107-14.52 15.173-20.773 14.68-53.187 14.453-69.187 2.92-3.0666-2.212-5.5333-4.8533-7.2-7.8667-5.1199-9.3333-0.44-21.92 8.92-47.12 10.88-29.253 16.627-44.733 31.267-53.6 0.12-0.08 0.2533-0.15867 0.3867-0.24"/>
   <path d="m1630.2 610.16c0.08 0.0933 0.1467 0.18667 0.2134 0.28 0.1333 0.16134 0.2533 0.32 0.3733 0.46667 3.04 3.8133 5.4133 5.7867 9.6933 8.8947 23.28 16.919 62.413 17.879 78.987 4.9053 1.7867-1.4 3.32-2.96 4.5333-4.68 6.2-8.7867 1.9334-21.413-6.5866-46.68-9.32-27.6-14.507-42.987-27.88-52.72-0.2667-0.21333-0.5467-0.4-0.8267-0.6"/>
   <path d="m1560.9 546.47v0.54534c-0.1067 23.321-0.2133 46.655-0.32 69.973-0.093 19.8-0.1867 39.615-0.28 59.415-0.067 15.8-0.1467 31.612-0.2133 47.412 11.12 15 22.253 29.988 33.373 44.988 14.893-15.921 29.773-31.828 44.653-47.748-2.56-36.64-5.1333-73.267-7.6933-109.91 0-0.0267-0.013-0.0667-0.013-0.0933-0.013-0.2-0.027-0.41334-0.04-0.61334-1.6-22.893-3.2-45.772-4.8134-68.667l-0.04-0.63867"/>
   <path d="m1421.4 487.47c1.36 5.9587 6.4934 9.7453 8.8 11.4 13.387 9.6 32.56 7.972 46.813 10.133 16.693 2.5187 24.64 9.9333 32.907 17.492 8 7.28 16.32 14.693 33.12 17.908 1.8933 0.35866 9.32 2.0667 17.92 2.612 4.6 0.29333 9.5467 0.25466 14.16-0.49334 8.2133-1.3187 15.373-4.8933 17.76-12.852 1.5733-5.2667 1.64-12.241 0.3333-19.721-1.36-7.9333-4.2666-16.427-8.4933-24.053-4.44-8-10.36-15.04-17.52-19.467-14.133-8.72-17.16-1.08-36.653-13.959-6.88-4.5333-9.4667-8.1333-13.32-11.2-0.2667-0.21467-0.5467-0.428-0.8267-0.64134"/>
   <path d="m1669.1 448.57c2.6666-3.56 5.0933-6.8667 7.5066-9.96 2.3734-3.04 4.72-5.8667 7.24-8.4933 0.093-0.10667 0.2-0.2 0.2934-0.30667"/>
   <path d="m1647.2 465.77c7.5333-3.6267 15.053-8.1467 21.773-17.133"/>
   <path d="m1636.9 470.6c3.36-1.6413 6.8133-3.108 10.253-4.7613"/>
   <path d="m1626.7 476.61c0.3067-0.24 0.6-0.45333 0.9067-0.67867 2.8933-2.0547 5.9066-3.708 8.9866-5.2147"/>
   <path d="m1777.5 467.08c0.027 0.13333 0.04 0.26666 0.053 0.4 0.1066 0.77333 0.1333 1.5333 0.1066 2.2667-0.3066 6.7467-5.64 11.455-7.96 13.44-12.613 10.815-32.053 10.92-46.2 14.373-18.307 4.4667-25.347 13.92-33.987 23.067-6.7334 7.1467-14.467 14.093-29.293 18.32-3.24 0.93333-20.04 5.7213-34.64 2.8267-3.5466-0.70534-6.96-1.8533-10.027-3.6267-2.4134-1.3867-4.6-3.16-6.4667-5.4-7.1067-8.52-6.8933-19.8-2.4667-30.573 3.9467-9.5867 11.227-18.76 19.68-25.239"/>
   <path d="m1514.4 329.94c-0.027-0.0147-0.067-0.028-0.093-0.0413-3.5733-1.892-7.2533-3.092-10.987-3.5067-6.0934-0.652-12.093 0.86666-17.92 3.6-8.8534 4.148-17.293 11.067-25 17.415-11.613 9.5453-27.173 22.319-28.56 40.333-0.8 10.519 3.5067 19.159-3.5867 26.985-4.4133 4.8667-9.28 5.0533-11.227 10.24-2.44 6.48 4.0933 8.9867 3.52 17.787-0.093 1.36-1.04 2.7467-1.64 3.9067-2.3067 4.548-4.8134 8.9867-7.2534 13.453-0.4 0.72-0.7866 1.4533-1.0666 2.24-1.3334 3.8133-0.68 9.3213-0.1467 13.307 0.4933 3.6147 1.44 8.148 4.6267 10.4 1.6266 1.148 3.6933 1.4813 6.2666 1.1333 11.227-1.5067 31.867-15.919 65.533-30.519 13.44-5.828 23.093-9.148 30.333-11.4 0.3466-0.108 0.6933-0.21467 1.04-0.32134 0.2666-0.0787 0.5333-0.16 0.7866-0.24"/>
   <path d="m1674.9 313.15c4.3734-2.96 8.9734-4.0933 13.693-4.7453 0.7333-0.108 1.4666-0.17466 2.1866-0.21466 1.0534-0.052 2.1067-0.04 3.16 0.0267 0.12 0 0.24 0 0.36 0.0133"/>
   <path d="m1694.9 309.05c12.96 1.3867 25.613 11.173 36.787 19.827 11.893 9.2 27.813 21.521 29.72 39.48 1.1067 10.493-2.9467 19.253 4.3733 26.867 4.5467 4.7333 9.4134 4.7867 11.52 9.92 2.6267 6.4-3.8266 9.0933-3 17.88 0.12 1.2533 1 2.48 1.5734 3.5467 2.4133 4.4947 5.0666 8.84 7.5866 13.267 0.4134 0.70666 0.8267 1.428 1.1467 2.1867 2.48 5.8533 2.0267 19.92-3.56 24.12-0.9867 0.73334-2.1467 1.1733-3.4933 1.3333-10.44 1.2267-32.093-13.812-69.147-28.612-10.16-4.0667-18.147-6.788-24.587-8.748-0.7066-0.21334-1.4-0.41334-2.0666-0.61334"/>
   <path d="m1693.9 308.96c0.3334 0.0267 0.6667 0.0533 1 0.0933"/>
   <path d="m1681.7 429.51c9.76-19.667 11.2-38.96 11.44-42.972 0.7066-11.615 2.24-36.895-15.107-57.521-3.04-3.612-2.0267-3.0787-5.1333-5.4533-0.08-0.0533-0.16-0.10667-0.24-0.17333"/>
   <path d="m1526 318.37c-5.0266 4-8.8266 7.9613-11.72 11.52-5.0133 6.1867-7.2666 11.187-8.4533 13.333-10.933 19.72-11.067 38.36-10.547 46.827 0.1734 2.6667 2.48 32.707 22.933 54.893 3.24 3.5213 6.9333 6.84 11.16 9.8267 20.147 14.227 32.387 6.7867 46.747 22.333 3.8 4.1067 6.5067 8.4933 8.5467 12.787 4.84 10.2 5.84 19.853 8.4933 24.053 0.84 1.3333 1.84 2.1067 3.1867 2.2 3.88 0.25467 5.96-5.6533 10.253-13.973 2.7867-5.3867 6.5067-11.8 12.253-18.213 2.6-2.9067 5.0533-5.1867 7.4266-7.0267 0.027-0.0267 0.053-0.04 0.08-0.0653 0.12-0.0947 0.2267-0.17467 0.3467-0.25467 0.3067-0.25333 0.6-0.46667 0.9067-0.68 3.0666-2.24 6-3.8 8.9866-5.2133 0.08-0.0267 0.16-0.0667 0.2534-0.12 3.2933-1.56 6.64-2.92 10.253-4.76 0.04-0.0267 0.08-0.04 0.12-0.0667 3.3333-1.7067 6.8933-3.8267 10.853-6.88 4.1067-3.16 7.72-6.6133 10.92-10.253 0.013-0.0267 0.04-0.04 0.053-0.0667 2.8266-3.2 5.3066-6.5467 7.5066-9.96 1.9467-3 3.6667-6.0533 5.1734-9.1067"/>
  </g>
  <path d="m1631.3 261.04c0.013 0.028 0.027 0.04 0.027 0.0667 0.68 1.5613 0.7867 2.6947 0.7333 4.48-0.2266 7.2533-7.1066 12.907-15.347 12.64-8.24-0.25334-14.733-6.3467-14.507-13.6 0.027-0.55867 0.08-1.12 0.1733-1.6667" stroke-width="2.6667"/>
  <path d="m1571.5 264.25c0.1734 0.82667 0.2534 1.6813 0.2267 2.548-0.2267 6.9587-7.08 12.4-15.333 12.133-5.7067-0.188-10.587-3.0547-12.96-7.1213" stroke-width="2.6667"/>
  <g stroke-width="4">
   <path d="m1543.4 271.81c-1.0534-1.8-1.6267-3.8267-1.5467-5.9733"/>
   <path d="m1524.7 183.55c-0.48 0.04-0.96 0.0933-1.44 0.14667-1.5866 0.17466-3.36 0.62666-4.6933 0.54666"/>
   <path d="m1656.9 164.67c5.0933-2.3333 12.72 26.052 12.667 34.945-0.067 11.188-10.667-0.212-27.547-2.1733-19.827-2.2933-35.827-5.6667-50.613-8.6133-1.9067-0.38667-3.8-0.75867-5.68-1.12-19.707-3.8-37.787-6.4533-60.787-4.1867"/>
   <path d="m1651.1 168.77c0.3467-0.0267 0.7067-0.0667 1.0533-0.12 1.1867-0.18534 2.6134-0.61334 3.1067-1.8 0.1467-0.36 0.3067-0.66667 0.4667-0.93334 0.3733-0.64 0.7733-1.052 1.2-1.252"/>
   <path d="m1629 156.09c0.2933 0.56 0.6266 1.0933 0.9866 1.6267 4.1067 5.948 13.213 11.667 21.08 11.067"/>
   <path d="m1627.5 141.99c-0.067 0.22667-0.1334 0.46667-0.1867 0.69333-1.0933 4.5467-0.6267 9.24 1.5867 13.333"/>
   <path d="m1629 137.97c-0.5066 1.1333-0.96 2.3067-1.32 3.5067"/>
   <path d="m1518.5 184.24c-1.8-0.13333-2.7333-1.3053-1.0933-5.6933 2.7866-7.4933 7.5333-16.107 14.48-16.053 0.8933 0.0133 1.84 0.17466 2.8133 0.48 15.533 5.0667 27.213-9.0667 28.067-19.813 0.16-2-0.053-3.88-0.6934-5.492-2.4266-6.188 4.3867-7.8413 9.32-8.1747 9.6534-0.64 19.36-0.2 29 0.58666 0.48 0.04 0.9734 0.08 1.4534 0.12134 8.68 0.73333 17.373 1.6387 25.68 4.3187 2.48 0.8 2.4666 1.24 1.56 3.2533"/>
   <path d="m1562.8 143.16c-0.04-3.9587-1.16-7.92-3.44-11.013-3.9334-5.36-10.893-7.0667-15.987-11.012-5.5333-4.2947-9.9867-9.948-13.253-16.121-4.92-9.3333-7.28-19.812-8.56-30.279-1.0667-8.708-1.4134-17.481-2.08-26.228-0.1067-1.5053 0.48-15.933-0.8534-16.067-1.2533-0.13333-3.6266 10.895-5 19.88-1.2533 8.0813-3.3733 22.427-1.8666 41.815 1.4133 18.039 5.12 29.572 11.76 50.212 3.44 10.733 5.6133 15.627 8.4 18.147 0.8533 0.77466 1.76 1.32 2.7733 1.7467 8.64 3.6133 22.88-2.5333 26.907-13.787 0.8133-2.28 1.2266-4.7853 1.2-7.2933z"/>
   <path d="m1629.1 137.77c1.0933-2.2387 2.6-4.2533 4.4666-5.8133 5.1067-4.2533 12.267-4.2133 18.173-6.8133 6.4133-2.84 12.093-7.24 16.747-12.453 7.0267-7.8667 11.84-17.467 15.613-27.32 3.1333-8.1867 5.6-16.627 8.3466-24.947 0.48-1.44 3.3734-15.573 4.7067-15.387 1.2533 0.17333 0.88 11.453 0.067 20.495-0.7467 8.1453-2.1467 22.572-8.2934 41.025-5.72 17.175-12.093 27.467-23.52 45.908-3.6133 5.8253-6.24 9.6787-8.4933 12.2h-0.013c-0.4 0.46667-0.8 0.87867-1.2 1.252-1.6134 1.548-3.0667 2.4147-4.6267 2.8533-0.013 0.0133-0.013 0.0133-0.027 0.0133-0.4133 0.12-0.84 0.21467-1.28 0.28133-7.3733 1.1333-16.693-4.588-20.787-12.975-0.013-0.0253-0.027-0.0533-0.04-0.08-1.0267-2.12-1.72-4.412-1.96-6.812-0.24-2.3613-0.04-4.828 0.56-7.2147 0.04-0.16 0.093-0.33333 0.1466-0.50667 0.3334-1.2 0.7734-2.3867 1.32-3.5067 0.013-0.0667 0.053-0.13334 0.093-0.2z"/>
   <path d="m1585.8 188.16-0.013-0.45333-1.5467-55.88 17.587-0.64 2.1333 59.12-12.493-1.48-5.3867-0.62533"/>
   <path d="m1597.9 141.47c-0.08 2.692-2.3334 4.8-5.0267 4.7187-2.6933-0.0933-4.8-2.3467-4.72-5.04 0.093-2.6933 2.3467-4.8 5.04-4.7067 2.6933 0.08 4.8 2.3333 4.7067 5.028z"/>
   <path d="m1599 159.74c-0.093 2.692-2.3467 4.8-5.0267 4.7187-2.6933-0.0933-4.8133-2.3467-4.72-5.0267 0.08-2.692 2.3333-4.8133 5.0267-4.72 2.6933 0.08 4.8 2.3333 4.72 5.028z"/>
   <path d="m1599 179.85c-0.093 2.6933-2.3467 4.8-5.0267 4.72-2.6933-0.0933-4.8133-2.3467-4.72-5.0387 0.08-2.6947 2.3333-4.8 5.0267-4.7213 2.6933 0.0933 4.8 2.3467 4.72 5.04z"/>
   <path d="m1627.1 261.27c1.4133-0.0547 2.84-0.108 4.28-0.16133 10.76-0.4 22-0.83867 33.693-1.3053 2.8534-0.12133 5.72-0.24133 8.6267-0.36133 0.24-0.372 0.4667-0.772 0.72-1.172 3.5467-6.0147 7.8-14.788 10.28-26 1.96-8.9213 2.24-16.748 1.9867-22.721-16.333-3.6-46.667-10.227-86.107-18.587-1.7333-0.37333-7.0933-1.48-14.52-2.7587-0.093-0.0147-0.1867-0.028-0.28-0.0413-15.947-2.7333-41.213-6.1587-60.8-4.64-0.093 0.0147-0.1867 0.0147-0.2667 0.0267-2.12 0.16-4.1733 0.4-6.1333 0.69333h-0.04c-7.5067 1.1333-13.733 3.228-17.627 6.68-4.56 4.0533-7.88 8.9333-7.88 8.9333-5.6533 8.2813-7.32 16.348-8.6533 23.133-0.8133 4.12-1.84 9.5333-1.4933 16.72 0.3466 7.1067 0.6933 14.333 5.4 19.161 4.0266 4.1453 9.72 4.9333 13.36 5.1587h0.013c0.24 0.0133 0.4667 0.0267 0.6933 0.0413 2.8934 0.14533 7.6134 0.212 13.973 0.172 6.7333-0.0267 15.293-0.14667 25.48-0.36 8.7333-0.18667 18.653-0.44 29.64-0.76 9.5466-0.28 19.907-0.6 30.96-0.98533 7.88-0.25467 16.12-0.548 24.693-0.86667"/>
  </g>
  <path d="m1623.3 266.83c0 1.4267-2.7467 2.5867-6.1467 2.5867s-6.1466-1.16-6.1466-2.5867c0-1.4133 2.7466-2.5733 6.1466-2.5733s6.1467 1.16 6.1467 2.5733z" stroke-width="5.3333"/>
  <path d="m1563.7 268.83c0 1.4267-2.7467 2.5867-6.1467 2.5867s-6.1466-1.16-6.1466-2.5867c0-1.4133 2.7466-2.5733 6.1466-2.5733s6.1467 1.16 6.1467 2.5733z" stroke-width="5.3333"/>
 </g>
 <path d="m1600.5 298.78c0.093-0.20267 0.2-0.404 0.32-0.60933 0.96-1.6307 2.64-2.7147 4.32-3.5747 6.5067-3.316 15.72-5.1947 22.067-0.61333 5.7067 4.116 8.32 11.295 13.68 15.828 4.12 3.472 9.6133 4.72 14.92 5.6667 3.76 0.67467-1.5867 2.636-2.76 2.9333-3.56 0.89866-7.2667-0.024-10.493-1.6453-3.9334-1.988-7.4134-4.8693-11.52-6.4853-3.4934-1.3733-7.2534-1.7427-10.973-1.684-3.3866 0.0547-6.84 1.0053-10.107 0.168-4.0134-1.0293-11.827-4.7413-9.4534-9.984" fill="#6e4f23"/>
 <path d="m1584.8 297.62c-0.053-0.212-0.1334-0.428-0.2267-0.64933-0.7067-1.7547-2.2-3.068-3.7467-4.1653-5.9466-4.2267-14.787-7.428-21.747-3.82-6.24 3.2427-9.8667 9.964-15.84 13.668-4.5734 2.836-10.2 3.2693-15.587 3.4347-3.8133 0.11733 1.1867 2.8387 2.3067 3.3027 3.4 1.408 7.2 1.0347 10.613-0.10134 4.2-1.3907 8.0533-3.736 12.36-4.7373 3.64-0.84933 7.4133-0.668 11.093-0.068 3.3334 0.544 6.6267 1.9907 9.9734 1.6387 4.1333-0.43467 12.387-2.9707 10.8-8.5027" fill="#6e4f23"/>
 <text x="157.65063" y="764.61823" font-size="16px" stroke-width="1.3333" xml:space="preserve"><tspan x="157.65063 206.85063 271.00064 334.70065 374.10062 434.05063 494.25061 542.35065 581.75061 645.90063 708.90063 769.10059" y="764.61823" fill="#bf1b2c" font-family="Impact" font-size="100px" font-stretch="condensed" stroke-width="1.3333">765-421-6328</tspan></text>
</svg>
