<?xml version="1.0" encoding="UTF-8"?>
<!-- Created with Inkscape (http://www.inkscape.org/) -->
<svg width="140.73mm" height="69.421mm" version="1.1" viewBox="0 0 140.73 69.421" xmlns="http://www.w3.org/2000/svg">
 <g transform="translate(-34.925 -61.119)">
  <g transform="matrix(.26458 0 0 .26458 34.925 61.12)">
   <path transform="matrix(.13333 0 0 -.13333 0 262.37)" d="m756.79 1060.4-63.809-214.44h126.58zm148.53-455.04c-8.359 0-16.715 7.32-18.816 14.648l-25.098 84.731h-210.28l-25.094-84.731c-2.097-7.328-10.457-14.648-18.816-14.648h-119.26c-13.598 0-17.797 7.32-15.695 14.648l207.12 700.87c3.137 9.41 7.316 14.64 14.652 14.64h124.46c7.336 0 11.516-5.23 14.656-15.69l207.12-699.82c2.1-7.328-4.18-14.648-15.69-14.648h-119.26" fill="#1e273d"/>
   <path transform="matrix(.13333 0 0 -.13333 0 262.37)" d="m2367.9 1457.1c143.4 225.35 385.91 381.74 665.75 407.11l21.36-30.36 59.11-84 59.39 83.81 21.61 30.5c279.63-25.52 521.92-181.85 665.23-407.06h116.19c-167.56 304.15-491.3 510.7-862.42 510.7-371.11 0-694.84-206.55-862.41-510.7h116.19" fill="#bdbcbc"/>
   <path transform="matrix(.13333 0 0 -.13333 0 262.37)" d="m3842.4 483.79c-145.15-210.74-379.16-355.76-647.6-380.17l-21.34 30.32-59.11 84-59.39-83.812-21.62-30.508c-268.44 24.418-502.44 169.44-647.6 380.17h-118.67c171.5-289.35 486.94-483.79 847-483.79s675.5 194.44 847.01 483.79h-118.68" fill="#bdbcbc"/>
   <g fill="#1e273d">
    <path transform="matrix(.13333 0 0 -.13333 0 262.37)" d="m287.65 1046.8c1.055 1.04 3.157 3.13 3.157 6.27v100.43c0 3.12 0 4.17-3.157 7.31l-17.757 17.78c-2.102 2.1-5.239 3.14-8.379 3.14h-107.76v-154.81h107.76c4.179 0 6.277 1.04 8.379 3.14zm-273.01-441.45c-8.3789 0-14.641 7.32-14.641 14.648v700.87c0 8.36 6.2617 14.64 14.641 14.64h332.64c10.473 0 18.832-2.09 27.192-10.46l58.59-59.63c11.519-12.55 11.519-19.88 11.519-27.2v-266.74c0-6.278 1.039-15.696-11.519-28.235l-58.59-59.633c-9.399-9.418-19.871-10.457-25.09-10.457h-195.62v-253.15c0-7.328-7.32-14.648-15.68-14.648h-123.44"/>
    <path transform="matrix(.13333 0 0 -.13333 0 262.37)" d="m1210 605.39c-7.34 0-14.66 5.23-14.66 12.558v563.82h-132.83c-8.38 0-15.7 6.28-15.7 14.65v123.44c0 8.37 7.32 15.69 15.7 15.69h418.42c8.36 0 15.68-7.32 15.68-15.69v-123.44c0-8.37-7.32-14.65-15.68-14.65h-132.85v-563.82c0-7.328-7.32-12.558-14.64-12.558h-123.44"/>
    <path transform="matrix(.13333 0 0 -.13333 0 262.37)" d="m1921.4 605.39c-7.32 0-14.64 6.281-14.64 14.648v274.07h-156.91v-274.07c0-8.367-7.32-14.648-14.64-14.648h-124.48c-8.37 0-14.65 6.281-14.65 14.648v700.87c0 8.36 6.28 14.64 14.65 14.64h124.48c7.32 0 14.64-6.28 14.64-14.64v-273.03h156.91v273.03c0 8.36 7.32 14.64 14.64 14.64h124.5c8.36 0 14.63-6.28 14.63-14.64v-700.87c0-8.367-6.27-14.648-14.63-14.648h-124.5"/>
    <path transform="matrix(.13333 0 0 -.13333 0 262.37)" d="m2564 605.39c-7.34 0-12.56 6.281-14.66 14.648l-73.22 263.61-7.33 52.301-6.28-52.301-81.58-263.61c-3.14-9.418-7.32-14.648-15.69-14.648h-130.76c-7.32 0-13.6 9.418-13.6 15.687l-55.43 699.83c-1.06 7.32 6.27 14.64 14.63 14.64h123.45c8.35 0 15.69-7.32 15.69-14.64l25.1-356.72 59.63 165.28c3.13 7.33 10.46 14.64 18.82 14.64h83.68c8.38 0 16.74-6.27 19.87-14.64l58.59-165.28 26.16 356.72c0 7.32 6.28 14.64 14.64 14.64h124.48c7.31 0 15.69-7.32 14.66-14.64l-56.5-700.87c0-6.277-4.2-14.648-15.69-14.648h-128.66"/>
    <path transform="matrix(.13333 0 0 -.13333 0 262.37)" d="m3652.8 605.39c-7.33 0-14.66 6.281-14.66 14.648v321.15l-194.57 374.48c-5.22 9.42 1.06 19.88 13.6 19.88h134.95c8.36 0 15.69-7.32 18.82-14.64l104.62-207.13 104.6 207.13c3.14 7.32 10.46 14.64 18.82 14.64h134.96c12.54 0 18.82-10.46 13.59-19.88l-194.56-374.48v-321.15c0-8.367-7.34-14.648-14.66-14.648h-125.51"/>
   </g>
   <g fill="#ef2e32">
    <path transform="matrix(.13333 0 0 -.13333 0 262.37)" d="m2971.1 1020.1 266.47 276.36 19.51-381.58zm-135.2 49.74 48.72-640.92 63.76-23.461 443.91 459.68-40.15 637.76-63.76 23.46-452.48-456.52"/>
    <path transform="matrix(.13333 0 0 -.13333 0 262.37)" d="m36.301 415.31c5.1211 0 9.6445 0.621 13.582 1.871 3.9258 1.25 7.2227 3.019 9.8711 5.289 2.6484 2.301 4.6406 5.019 5.9961 8.191 1.3359 3.168 2 6.68 2 10.52 0 7.8-2.5586 13.679-7.6797 17.64-5.1172 3.969-12.797 5.95-23.039 5.95h-19.383v-49.461zm60.527-67.579h-15.723c-3.2383 0-5.6055 1.25-7.1328 3.75l-34.012 46.809c-1.039 1.473-2.1523 2.512-3.3437 3.16-1.1914 0.641-3.0274 0.961-5.5274 0.961h-13.441v-54.68h-17.648v131.02h37.031c8.289 0 15.449-0.84 21.492-2.52 6.0352-1.671 11.016-4.089 14.941-7.25 3.9375-3.179 6.8438-6.992 8.7305-11.492 1.8945-4.476 2.836-9.488 2.836-15.039 0-4.621-0.7344-8.949-2.1915-12.98-1.457-4.02-3.582-7.629-6.3593-10.828-2.7696-3.2-6.1524-5.922-10.152-8.192-3.9843-2.25-8.5078-3.949-13.566-5.109 2.25-1.281 4.2031-3.141 5.8516-5.578l38.215-52.032"/>
    <path transform="matrix(.13333 0 0 -.13333 0 262.37)" d="m213.11 362.18-0.09-14.45h-80.738v131.02h80.738v-14.441h-62.996v-43.528h51.008v-13.89h-51.008v-44.711h63.086"/>
    <path transform="matrix(.13333 0 0 -.13333 0 262.37)" d="m329.72 396.37-20.575 53.309c-0.609 1.582-1.25 3.429-1.914 5.539-0.675 2.101-1.324 4.332-1.925 6.711-1.286-4.93-2.594-9.051-3.93-12.34l-20.578-53.219zm36.933-48.641h-13.711c-1.586 0-2.867 0.399-3.847 1.192-0.973 0.797-1.707 1.797-2.192 3.019l-12.25 31.637h-58.797l-12.25-31.637c-0.355-1.101-1.062-2.07-2.093-2.929-1.039-0.852-2.321-1.282-3.848-1.282h-13.711l52.391 131.02h17.918l52.39-131.02"/>
    <path transform="matrix(.13333 0 0 -.13333 0 262.37)" d="m476.13 362.63v-14.899h-74.336v131.02h17.648v-116.12h56.688"/>
    <path transform="matrix(.13333 0 0 -.13333 0 262.37)" d="m659.91 362.18-0.086-14.45h-80.738v131.02h80.738v-14.441h-62.996v-43.528h51.016v-13.89h-51.016v-44.711h63.082"/>
    <path transform="matrix(.13333 0 0 -.13333 0 262.37)" d="m771.18 458.28c-0.559-0.922-1.153-1.609-1.789-2.07-0.645-0.441-1.415-0.68-2.329-0.68-1.039 0-2.25 0.52-3.66 1.559-1.398 1.031-3.156 2.172-5.261 3.422-2.098 1.25-4.633 2.386-7.586 3.437-2.961 1.02-6.539 1.539-10.735 1.539-3.969 0-7.461-0.527-10.476-1.59-3.02-1.058-5.547-2.507-7.59-4.347-2.043-1.821-3.582-3.973-4.613-6.442-1.043-2.468-1.559-5.14-1.559-8.007 0-3.641 0.902-6.68 2.695-9.09 1.797-2.403 4.18-4.461 7.137-6.172s6.312-3.192 10.062-4.442 7.586-2.527 11.516-3.867c3.93-1.359 7.766-2.859 11.516-4.543 3.75-1.668 7.105-3.789 10.062-6.347 2.957-2.563 5.336-5.7 7.137-9.422 1.789-3.719 2.695-8.289 2.695-13.719 0-5.719-0.984-11.109-2.926-16.129-1.953-5.031-4.804-9.402-8.554-13.121s-8.352-6.641-13.809-8.781c-5.445-2.129-11.656-3.199-18.605-3.199-8.528 0-16.27 1.55-23.223 4.609-6.941 3.082-12.883 7.25-17.824 12.48l5.113 8.422c0.492 0.668 1.086 1.231 1.789 1.699 0.696 0.45 1.481 0.68 2.332 0.68 0.793 0 1.688-0.332 2.699-0.961 1-0.648 2.141-1.449 3.422-2.418 1.278-0.98 2.75-2.051 4.395-3.211 1.644-1.16 3.512-2.211 5.613-3.191 2.106-0.988 4.496-1.789 7.184-2.43 2.679-0.64 5.691-0.949 9.047-0.949 4.211 0 7.961 0.578 11.25 1.73 3.296 1.149 6.086 2.79 8.367 4.891 2.289 2.109 4.035 4.617 5.258 7.539 1.218 2.93 1.824 6.192 1.824 9.789 0 3.949-0.895 7.211-2.699 9.742-1.797 2.528-4.157 4.637-7.086 6.348-2.922 1.711-6.278 3.152-10.059 4.34-3.777 1.199-7.617 2.422-11.516 3.672-3.898 1.238-7.742 2.679-11.519 4.328-3.781 1.641-7.129 3.781-10.059 6.402-2.925 2.629-5.289 5.899-7.086 9.828-1.793 3.93-2.695 8.789-2.695 14.582 0 4.629 0.902 9.118 2.695 13.45 1.797 4.32 4.418 8.16 7.871 11.507 3.442 3.352 7.676 6.043 12.708 8.051 5.031 2.012 10.804 3.02 17.324 3.02 7.308 0 13.976-1.16 19.976-3.481 6.004-2.316 11.293-5.66 15.867-10.058l-4.296-8.399"/>
    <path transform="matrix(.13333 0 0 -.13333 0 262.37)" d="m911.52 463.86h-42.421v-116.13h-17.653v116.13h-42.508v14.891h102.58v-14.891"/>
    <path transform="matrix(.13333 0 0 -.13333 0 262.37)" d="m1004 396.37-20.57 53.309c-0.617 1.582-1.25 3.429-1.926 5.539-0.671 2.101-1.308 4.332-1.921 6.711-1.282-4.93-2.59-9.051-3.93-12.34l-20.563-53.219zm36.93-48.641h-13.71c-1.58 0-2.86 0.399-3.83 1.192-0.98 0.797-1.71 1.797-2.2 3.019l-12.25 31.637h-58.791l-12.258-31.637c-0.363-1.101-1.066-2.07-2.098-2.929-1.046-0.852-2.324-1.282-3.843-1.282h-13.711l52.383 131.02h17.929l52.379-131.02"/>
    <path transform="matrix(.13333 0 0 -.13333 0 262.37)" d="m1150.3 463.86h-42.43v-116.13h-17.64v116.13h-42.52v14.891h102.59v-14.891"/>
    <path transform="matrix(.13333 0 0 -.13333 0 262.37)" d="m1267.4 362.18-0.09-14.45h-80.74v131.02h80.74v-14.441h-63v-43.528h51.02v-13.89h-51.02v-44.711h63.09"/>
    <path transform="matrix(.13333 0 0 -.13333 0 262.37)" d="m1482 410.73v-50.289c-6.59-4.75-13.61-8.312-21.08-10.64-7.47-2.352-15.65-3.531-24.55-3.531-10.54 0-20.05 1.628-28.52 4.902-8.47 3.25-15.71 7.816-21.72 13.707-6 5.883-10.63 12.941-13.85 21.172-3.23 8.219-4.85 17.269-4.85 27.148 0 9.992 1.57 19.11 4.72 27.332 3.13 8.231 7.59 15.289 13.39 21.168 5.79 5.879 12.83 10.442 21.12 13.672 8.28 3.231 17.55 4.848 27.79 4.848 5.19 0 10-0.379 14.45-1.141 4.45-0.769 8.56-1.859 12.34-3.297 3.78-1.429 7.29-3.16 10.52-5.211 3.22-2.039 6.24-4.351 9.05-6.898l-5.03-8.051c-0.8-1.223-1.82-1.992-3.06-2.332-1.25-0.34-2.64-0.027-4.16 0.871-1.46 0.852-3.14 1.891-5.03 3.11-1.89 1.218-4.19 2.39-6.9 3.519-2.72 1.121-5.93 2.082-9.6 2.883-3.69 0.789-8.07 1.187-13.13 1.187-7.37 0-14.04-1.199-20.02-3.621-5.97-2.41-11.06-5.847-15.27-10.316-4.2-4.481-7.44-9.91-9.69-16.281s-3.38-13.512-3.38-21.442c0-8.238 1.17-15.59 3.52-22.078 2.34-6.492 5.69-12 10.06-16.562 4.35-4.539 9.64-7.981 15.86-10.368 6.21-2.371 13.2-3.562 20.93-3.562 6.1 0 11.51 0.68 16.24 2.051 4.72 1.379 9.33 3.281 13.84 5.718v28.801h-20.38c-1.16 0-2.1 0.332-2.79 1-0.7 0.672-1.05 1.5-1.05 2.473v10.058h40.23"/>
    <path transform="matrix(.13333 0 0 -.13333 0 262.37)" d="m1564 415.31c5.12 0 9.66 0.621 13.58 1.871 3.93 1.25 7.23 3.019 9.88 5.289 2.65 2.301 4.65 5.019 5.99 8.191 1.34 3.168 2.01 6.68 2.01 10.52 0 7.8-2.55 13.679-7.69 17.64-5.11 3.969-12.79 5.95-23.03 5.95h-19.39v-49.461zm60.53-67.579h-15.72c-3.24 0-5.61 1.25-7.14 3.75l-34 46.809c-1.05 1.473-2.16 2.512-3.34 3.16-1.19 0.641-3.04 0.961-5.54 0.961h-13.44v-54.68h-17.64v131.02h37.03c8.28 0 15.46-0.84 21.49-2.52 6.03-1.671 11.01-4.089 14.95-7.25 3.93-3.179 6.83-6.992 8.73-11.492 1.88-4.476 2.82-9.488 2.82-15.039 0-4.621-0.72-8.949-2.19-12.98-1.46-4.02-3.58-7.629-6.35-10.828-2.77-3.2-6.16-5.922-10.15-8.192-4-2.25-8.52-3.949-13.58-5.109 2.25-1.281 4.21-3.141 5.85-5.578l38.22-52.032"/>
    <path transform="matrix(.13333 0 0 -.13333 0 262.37)" d="m1760.1 413.2c0 8.039-1.1 15.27-3.29 21.672-2.2 6.391-5.31 11.801-9.33 16.231-4.03 4.41-8.9 7.82-14.63 10.187-5.73 2.383-12.14 3.57-19.2 3.57-7.01 0-13.38-1.187-19.11-3.57-5.73-2.367-10.62-5.777-14.68-10.187-4.05-4.43-7.17-9.84-9.37-16.231-2.19-6.402-3.29-13.633-3.29-21.672 0-8.051 1.1-15.258 3.29-21.621 2.2-6.379 5.32-11.769 9.37-16.187 4.06-4.411 8.95-7.801 14.68-10.153 5.73-2.34 12.1-3.519 19.11-3.519 7.06 0 13.47 1.179 19.2 3.519 5.73 2.352 10.6 5.742 14.63 10.153 4.02 4.418 7.13 9.808 9.33 16.187 2.19 6.363 3.29 13.57 3.29 21.621zm18.2 0c0-9.808-1.56-18.82-4.68-27.008-3.1-8.211-7.49-15.261-13.16-21.179-5.67-5.903-12.48-10.492-20.43-13.762-7.95-3.262-16.75-4.891-26.38-4.891s-18.41 1.629-26.33 4.891c-7.93 3.27-14.72 7.859-20.4 13.762-5.66 5.918-10.04 12.968-13.16 21.179-3.11 8.188-4.66 17.2-4.66 27.008 0 9.813 1.55 18.821 4.66 27.02 3.12 8.203 7.5 15.261 13.16 21.211 5.68 5.941 12.47 10.57 20.4 13.859 7.92 3.281 16.7 4.93 26.33 4.93s18.43-1.649 26.38-4.93c7.95-3.289 14.76-7.918 20.43-13.859 5.67-5.95 10.06-13.008 13.16-21.211 3.12-8.199 4.68-17.207 4.68-27.02"/>
    <path transform="matrix(.13333 0 0 -.13333 0 262.37)" d="m1871.7 361.82c5.43 0 10.27 0.91 14.54 2.731 4.26 1.828 7.87 4.39 10.83 7.687 2.96 3.293 5.22 7.223 6.76 11.801 1.56 4.57 2.34 9.602 2.34 15.082v79.629h17.64v-79.629c0-7.551-1.2-14.582-3.6-21.031-2.42-6.461-5.86-12.051-10.33-16.781-4.49-4.707-9.95-8.43-16.42-11.11-6.46-2.679-13.71-4.008-21.76-4.008s-15.3 1.329-21.76 4.008c-6.46 2.68-11.95 6.403-16.45 11.11-4.52 4.73-7.98 10.32-10.38 16.781-2.41 6.449-3.61 13.48-3.61 21.031v79.629h17.64v-79.539c0-5.492 0.78-10.512 2.33-15.09 1.56-4.582 3.81-8.5 6.76-11.793 2.96-3.277 6.59-5.867 10.89-7.726 4.29-1.864 9.16-2.782 14.58-2.782"/>
    <path transform="matrix(.13333 0 0 -.13333 0 262.37)" d="m2011.7 410.82c5.05 0 9.52 0.68 13.39 2.02 3.87 1.332 7.13 3.211 9.78 5.621 2.65 2.398 4.65 5.277 5.99 8.641 1.34 3.347 2.02 7.027 2.02 11.058 0 8.36-2.58 14.871-7.73 19.57-5.15 4.692-12.97 7.04-23.45 7.04h-21.03v-53.95zm0 67.93c8.28 0 15.49-0.949 21.61-2.879 6.13-1.91 11.2-4.652 15.23-8.172 4.02-3.551 7.03-7.808 9.01-12.808 1.97-4.993 2.96-10.582 2.96-16.731 0-6.101-1.06-11.672-3.19-16.73-2.13-5.071-5.26-9.418-9.37-13.078-4.12-3.653-9.21-6.5-15.27-8.543-6.06-2.039-13.06-3.071-20.98-3.071h-21.03v-49.008h-17.65v131.02h38.68"/>
   </g>
  </g>
 </g>
</svg>
