<?xml version="1.0" encoding="UTF-8"?>
<!-- Created with Inkscape (http://www.inkscape.org/) -->
<svg width="938.21mm" height="221.56mm" version="1.1" viewBox="0 0 938.21 221.56" xml:space="preserve" xmlns="http://www.w3.org/2000/svg"><defs><style>
      .cls-1 {
        fill: #000;
      }

      .cls-1, .cls-2, .cls-3, .cls-4, .cls-5, .cls-6, .cls-7, .cls-8 {
        stroke-width: 0px;
      }

      .cls-2 {
        fill: #546986;
      }

      .cls-3 {
        fill: #aa8d68;
      }

      .cls-4 {
        fill: #f8a234;
      }

      .cls-5 {
        fill: #e9cca6;
      }

      .cls-6 {
        fill: #107288;
      }

      .cls-7 {
        fill: #4b371e;
      }

      .cls-8 {
        fill: #fff;
      }
    </style><style>
      .cls-1 {
        fill: #000;
      }

      .cls-1, .cls-2 {
        stroke-width: 0px;
      }

      .cls-2 {
        fill: #fff;
      }
    </style></defs><g transform="translate(137.71 108.67)"><g transform="matrix(.11397 0 0 .11397 -137.57 -111.86)"><path class="cls-8" d="m1e3 1966.1c-166 0-279.22-60.04-283.96-62.6l-49.82-26.88 12.89-25.75c-8.77-0.89-15.46-2.35-22.91-3.97-3.28-0.71-6.68-1.45-10.54-2.21l-0.86-0.18c-87.9-19.12-146.57-102.34-189.42-163.1l-0.96-1.37-0.23-0.35c-5.94-8.81-11.82-17.93-17.51-26.75l-0.32-0.5c-1.89-2.92-3.76-5.82-5.6-8.67-47.5-71.3-115.92-135.56-209.13-196.39l-0.34-0.22c-51.47-34.26-106.22-79.19-122.1-152.58-12.93-53.15-10.29-107.73-6.54-149.34 2.51-30.95 6.77-61.4 10.9-90.86 3.71-26.52 7.22-51.57 9.52-76.81 6.06-63.88-2.79-126.86-12.16-193.55l-0.02-0.16c-2.37-16.88-4.83-34.34-7.03-51.84-16.02-109.57 5.58-166.12 23.23-199.12 12.8-24.51 30.05-46.3 49.88-62.97 6.19-5.49 13.73-10.65 23.68-17.33 2.8-1.88 5.69-3.82 7.38-5.03l0.59-0.42 0.46-0.31c24.27-16.47 46.19-31.81 67.02-46.92 48.54-35.61 95.37-71.04 134.48-112.71 13.75-15.52 27.28-32.76 36.21-44.49l0.26-0.33c7.19-9.26 14.45-18.79 21.47-28 27.84-36.55 56.57-74.28 91.31-109.15l0.4-0.39c11.04-10.8 24.6-23.39 41.63-35.07 16.79-11.9 38.17-20.95 63.47-26.86l0.66-0.15c27.27-5.92 56.2-8.79 88.47-8.79 48.51 0 96.59 6.98 143.1 13.73 14.45 2.1 29.38 4.27 44.13 6.2 22.02 2.71 43.6 5.31 65.15 7.15 1.04 0.09 2.1 0.13 3.14 0.13s2.1-0.04 3.14-0.13c21.55-1.84 43.13-4.44 65.19-7.16 14.6-1.91 29.48-4.07 43.88-6.16 46.68-6.77 94.94-13.77 143.31-13.77 32.28 0 61.2 2.87 88.43 8.78l0.65 0.15c25.35 5.92 46.73 14.98 63.6 26.92 16.95 11.63 30.51 24.22 41.53 35l0.39 0.39c34.77 34.9 63.5 72.63 91.29 109.11 7.03 9.23 14.3 18.78 21.51 28.06l0.24 0.32c8.94 11.75 22.46 28.97 36.22 44.51 39.11 41.68 85.95 77.11 134.51 112.74 16.77 12.3 33.65 24.03 49.39 34.87 4.75 3.27 9.74 6.53 14.57 9.67 11.93 7.78 24.27 15.82 35.16 25.47 19.83 16.67 37.09 38.47 49.91 63.04 17.62 32.95 39.22 89.5 23.2 199.07-2.22 17.68-4.68 35.12-7.05 51.99-9.37 66.68-18.22 129.67-12.18 193.37 2.31 25.35 5.81 50.37 9.52 76.86l0.02 0.11c4.12 29.45 8.38 59.89 10.9 90.93 3.74 41.56 6.39 96.13-6.54 149.28-15.88 73.41-70.63 118.33-122.09 152.59l-0.33 0.22c-93.23 60.85-161.65 125.11-209.19 196.46-1.76 2.72-3.59 5.55-5.43 8.4l-0.46 0.71c-5.41 8.39-11.55 17.9-17.52 26.76l-1.18 1.69c-42.86 60.79-101.53 144.01-189.37 163.11l-0.85 0.18c-12.87 2.52-20.01 3.93-32.03 4.83l12.92 26.29-51.32 27.69c-4.74 2.56-117.97 62.6-283.91 62.6z"/><path class="cls-8" d="m1255.5 39.85c31.85 0 60.37 2.83 87.18 8.64l0.61 0.14c24.55 5.73 45.23 14.47 61.46 25.98 16.64 11.42 29.96 23.79 40.81 34.4l0.37 0.36c34.46 34.59 63.08 72.16 90.75 108.5 7.04 9.25 14.32 18.81 21.54 28.1l0.23 0.3c9.02 11.85 22.66 29.22 36.54 44.89 39.45 42.05 86.55 77.7 135.38 113.52 16.3 11.95 32.89 23.51 49.54 34.97 16.43 11.32 34.27 21.47 49.21 34.75 19.27 16.19 36.04 37.36 48.54 61.29 17.3 32.35 38.35 87.77 22.58 195.52-2.2 17.53-4.67 35.04-7.05 51.97-9.42 67.04-18.32 130.36-12.21 194.76 2.33 25.51 5.84 50.63 9.57 77.23 4.11 29.38 8.36 59.76 10.86 90.59 3.72 41.25 6.32 95.21-6.41 147.47-15.41 71.37-69.08 115.36-119.6 148.99l-0.3 0.2c-93.89 61.28-162.86 126.09-210.86 198.13-1.95 3.01-3.94 6.08-5.94 9.18-5.69 8.82-11.58 17.94-17.45 26.66l-1.12 1.6c-42.28 59.97-100.19 142.1-185.78 160.71l-0.8 0.17c-15.6 3.06-22.53 4.41-40.08 5.25l14.33 29.16-46.3 24.98c-4.68 2.53-116.59 61.89-281.09 61.89-164.54 0-276.46-59.36-281.15-61.89l-44.76-24.15 14.28-28.52c-17.54-0.84-25.98-3.68-41.57-6.74l-0.8-0.17c-85.59-18.61-143.49-100.74-185.78-160.71l-0.88-1.25-0.23-0.35c-5.87-8.72-11.76-17.84-17.45-26.66-2-3.1-3.98-6.17-5.93-9.18-48-72.04-116.97-136.85-210.86-198.13l-0.3-0.2c-50.51-33.63-104.19-77.61-119.6-148.98-12.73-52.27-10.13-106.23-6.41-147.48 2.5-30.83 6.75-61.2 10.86-90.57 3.72-26.6 7.24-51.73 9.55-77.09 6.12-64.55-2.78-127.87-12.2-194.91-2.38-16.94-4.84-34.44-7.05-51.97-15.77-107.75 5.29-163.18 22.59-195.52 12.49-23.93 29.26-45.09 48.53-61.28 5.91-5.25 13.36-10.35 23.11-16.9 2.98-2 5.8-3.89 7.54-5.15l0.46-0.33 0.46-0.32c24.33-16.51 46.3-31.89 67.17-47.02 48.83-35.82 95.94-71.47 135.39-113.53 13.88-15.67 27.52-33.04 36.54-44.89l0.23-0.3c7.21-9.29 14.5-18.85 21.54-28.1 27.67-36.33 56.28-73.9 90.74-108.49l0.37-0.36c10.85-10.61 24.17-22.98 40.81-34.4 16.24-11.5 36.91-20.24 61.46-25.97l0.61-0.14c26.81-5.82 55.33-8.64 87.18-8.64 63.06 0 124.21 11.73 186.46 19.88 22.18 2.73 43.9 5.34 65.42 7.18 1.21 0.1 2.43 0.16 3.64 0.16s2.43-0.05 3.64-0.16c21.51-1.84 43.24-4.45 65.41-7.18 62.05-8.12 123.66-19.88 186.46-19.88m0.01-11.86c-48.79 0-97.27 7.03-144.16 13.83-14.36 2.08-29.21 4.23-43.8 6.15-21.98 2.71-43.49 5.3-64.93 7.13-0.87 0.07-1.76 0.11-2.63 0.11s-1.76-0.04-2.63-0.11c-21.43-1.83-42.94-4.42-64.93-7.13-14.69-1.92-29.59-4.09-44-6.18-46.71-6.78-95.02-13.79-143.95-13.79-32.7 0-62.04 2.92-89.69 8.91h-0.04l-0.04 0.02-0.61 0.14h-0.05l-0.05 0.02c-26.01 6.08-48.06 15.43-65.54 27.79-17.37 11.93-31.14 24.71-42.32 35.65l-0.06 0.06-0.37 0.36-0.06 0.06c-35.01 35.15-63.87 73.03-91.77 109.66-7.02 9.22-14.27 18.74-21.48 28.02l-0.26 0.34-0.04 0.06c-8.86 11.63-22.26 28.71-35.87 44.08-38.76 41.29-85.33 76.52-133.64 111.96-20.76 15.05-42.61 30.35-66.81 46.77l-0.46 0.31-0.14 0.09-0.13 0.1-0.46 0.33c-1.58 1.14-4.3 2.97-7.18 4.9-10.15 6.82-17.83 12.08-24.29 17.79-20.38 17.14-38.1 39.51-51.26 64.71-7.77 14.53-18.79 37.9-24.9 73-6.46 37.13-6.11 80.76 1.04 129.66 2.21 17.54 4.66 35.01 7.04 51.92l0.02 0.11c9.32 66.33 18.13 128.98 12.13 192.14-2.29 25.14-5.79 50.12-9.49 76.57-4.13 29.53-8.41 60.06-10.93 91.21-3.78 42.05-6.44 97.2 6.67 151.14 7.48 34.53 23.63 65.24 49.37 93.9 24.17 26.91 52.89 47.42 75.21 62.29l0.32 0.22 0.06 0.04c92.5 60.37 160.35 124.07 207.44 194.72 1.74 2.69 3.51 5.42 5.29 8.18l0.58 0.9c5.72 8.86 11.63 18.02 17.58 26.86l0.22 0.33 0.07 0.11 0.08 0.11 0.88 1.25c43.41 61.56 102.85 145.87 192.94 165.47h0.06l0.06 0.02 0.8 0.17h0.06l0.06 0.02c3.8 0.74 7.16 1.48 10.41 2.18 5.11 1.11 9.86 2.14 15.15 2.98l-6.58 13.15-5.15 10.28 10.12 5.46 44.76 24.15c4.79 2.58 119.26 63.3 286.77 63.31 167.45 0 281.93-60.73 286.72-63.31l46.3-24.98 10.04-5.42-5.03-10.24-6.62-13.47c7.93-0.93 14.52-2.22 24.01-4.08h0.06l0.06-0.02 0.8-0.17h0.06l0.06-0.02c90.1-19.6 149.54-103.9 192.94-165.46v-0.02l0.03-0.02 1.12-1.6 0.12-0.16c5.96-8.85 11.87-18 17.58-26.86l0.45-0.7c1.83-2.83 3.64-5.63 5.42-8.39 47.08-70.65 114.94-134.35 207.44-194.72l0.36-0.24c22.36-14.88 51.08-35.4 75.25-62.31 25.74-28.66 41.88-59.38 49.37-93.91 13.11-53.94 10.45-109.09 6.67-151.13-2.53-31.19-6.8-61.71-10.93-91.23v-0.07c-3.71-26.43-7.2-51.39-9.5-76.59-5.98-63.05 2.82-125.7 12.15-192.03 2.38-16.9 4.83-34.38 7.05-52.03 16.25-111.21-5.82-168.91-23.85-202.65-13.16-25.2-30.89-47.58-51.26-64.72-11.2-9.93-23.7-18.07-35.79-25.95-4.8-3.13-9.76-6.36-14.45-9.59-15.7-10.81-32.54-22.51-49.25-34.77-48.31-35.43-94.88-70.66-133.63-111.95-13.62-15.39-27.02-32.46-35.87-44.08l-0.04-0.04-0.23-0.3-0.04-0.04c-7.17-9.23-14.42-18.75-21.43-27.96l-0.03-0.05c-27.91-36.64-56.77-74.53-91.78-109.68l-0.06-0.06-0.37-0.36-0.06-0.06c-11.18-10.94-24.95-23.72-42.31-35.64-17.48-12.37-39.54-21.73-65.56-27.8h-0.05l-0.05-0.02-0.61-0.14h-0.04l-0.04-0.02c-27.65-6-56.99-8.91-89.69-8.91z"/><path class="cls-1" d="m1890.6 1055.2c-3.72-26.6-7.24-51.72-9.57-77.23-6.11-64.4 2.79-127.72 12.21-194.76 2.38-16.93 4.84-34.44 7.05-51.97 15.77-107.75-5.28-163.17-22.58-195.52-12.49-23.93-29.26-45.1-48.54-61.29-14.95-13.28-32.78-23.43-49.21-34.75-16.64-11.46-33.24-23.02-49.54-34.97-48.83-35.82-95.94-71.47-135.38-113.52-13.88-15.67-27.51-33.03-36.54-44.89l-0.23-0.3c-7.21-9.29-14.49-18.85-21.54-28.1-27.67-36.33-56.29-73.9-90.75-108.5l-0.37-0.36c-10.85-10.61-24.17-22.98-40.81-34.4-16.24-11.5-36.91-20.24-61.46-25.98l-0.61-0.14c-26.81-5.82-55.33-8.64-87.18-8.64-62.79 0-124.4 11.76-186.46 19.88-22.18 2.73-43.9 5.34-65.41 7.18-2.43 0.21-4.86 0.21-7.29 0-21.51-1.84-43.24-4.45-65.42-7.18-62.25-8.15-123.4-19.88-186.46-19.88-31.85 0-60.36 2.83-87.18 8.64l-0.61 0.14c-24.55 5.73-45.22 14.47-61.46 25.97-16.64 11.42-29.96 23.79-40.81 34.4l-0.37 0.36c-34.46 34.59-63.07 72.16-90.74 108.49-7.04 9.25-14.33 18.81-21.54 28.1l-0.23 0.3c-9.02 11.85-22.66 29.22-36.54 44.89-39.45 42.06-86.56 77.7-135.39 113.52-20.87 15.13-42.84 30.52-67.17 47.02l-0.46 0.32-0.46 0.33c-1.74 1.26-4.56 3.15-7.54 5.15-9.76 6.55-17.21 11.65-23.11 16.9-19.27 16.19-36.04 37.35-48.53 61.28-17.3 32.34-38.36 87.78-22.59 195.52 2.2 17.53 4.66 35.04 7.05 51.97 9.42 67.04 18.32 130.36 12.2 194.91-2.31 25.37-5.83 50.49-9.55 77.09-4.11 29.37-8.36 59.75-10.86 90.57-3.72 41.25-6.32 95.22 6.41 147.48 15.41 71.36 69.08 115.35 119.6 148.97l0.3 0.2c93.89 61.28 162.87 126.09 210.86 198.13 1.95 3.01 3.93 6.08 5.93 9.18 5.69 8.82 11.58 17.94 17.45 26.66l0.23 0.35 0.88 1.25c42.28 59.97 100.19 142.1 185.77 160.71l0.8 0.17c15.6 3.06 24.03 5.89 41.57 6.74l-14.28 28.52 44.76 24.14c4.68 2.53 116.61 61.88 281.15 61.89 164.5 0 276.41-59.37 281.09-61.89l46.3-24.98-14.33-29.16c17.54-0.84 24.48-2.19 40.08-5.25l0.8-0.17c85.59-18.61 143.49-100.74 185.77-160.71l1.12-1.6c5.87-8.72 11.76-17.84 17.45-26.66 2-3.1 3.98-6.17 5.94-9.18 48-72.04 116.97-136.84 210.86-198.13l0.3-0.2c50.52-33.63 104.2-77.62 119.6-148.99 12.73-52.26 10.12-106.22 6.41-147.47-2.5-30.83-6.75-61.21-10.86-90.59z"/><path class="cls-7" d="m802.11 1631.8c38.93-158.33 13.5-267.87-8.31-371.69-21.8-103.83-81.4-218.93-81.4-218.93-118.47-53.98-150.74-113.86-150.74-113.86s-25.52 193.84 7.07 317.82c32.6 123.99 99.7 278.02 233.38 386.66z"/><path class="cls-5" d="m1182 568.2c-50.48 3.71-100.08 33.62-135.3 78.54-15.75 20.08-37.1 46.86-46.69 71.41-9.59-24.56-30.72-50.94-46.47-71.02-35.22-44.91-84.8-75.22-135.51-78.93-89.81-6.57-163.06 79.88-163.06 168.33s63.05 170.19 157.72 171.77c53.33 0.89 92.92-5.33 121.96-17.35 0 0 0.38-66.42 63.64-71.99 1.14-0.1 2.31-0.1 3.45 0 63.26 5.57 63.64 71.99 63.64 71.99 29.04 12.03 68.63 18.24 121.96 17.35 94.67-1.58 157.72-83.33 157.72-171.77s-73.25-174.93-163.06-168.33zm-340.01 227.81c-14.77 0-26.75-24.57-26.75-54.89 0-20.4 5.43-38.18 13.47-47.64 7.26 0.68 9.67 1.6 11.6 1.98 2.02 0.4 6.11 2.77 7.72 3.63 1.19 0.64 9.7 4.1 14.07 5.87 4.13 9.66 6.64 22.31 6.64 36.16 0 30.31-11.98 54.89-26.75 54.89zm309.14 0c-14.77 0-26.75-24.57-26.75-54.89 0-13.86 2.51-26.5 6.64-36.16 4.37-1.77 12.88-5.23 14.07-5.87 1.61-0.86 5.7-3.23 7.72-3.63 1.93-0.39 4.34-1.3 11.6-1.98 8.05 9.46 13.47 27.25 13.47 47.64 0 30.31-11.98 54.89-26.75 54.89z"/><path class="cls-3" d="m999.98 655.63s89.45-129.48 205.82-118.26c0 0 95.08 9.32 145.14 99.93 26.38 47.75 33.68 103.82 19 156.36-16.35 58.51-61.34 133.74-173.99 147.59 0 0-65.03 5.74-137.14-14.3 0 0-18.47 43.05-58.83 88.06-40.36-45.01-58.83-88.06-58.83-88.06-72.11 20.04-137.14 14.3-137.14 14.3-112.66-13.85-157.64-89.08-173.99-147.59-14.68-52.54-7.38-108.61 19-156.36 50.06-90.61 145.14-99.93 145.14-99.93 116.37-11.22 205.82 118.26 205.82 118.26zm-259.66-178.3c-166.63 34.05-200.18 204.68-196.92 249.11 0.15 2.01 0.29 4.01 0.42 6.03 1.31 20.19 12.14 127.72 96.9 203.85 93.89 84.33 276.48 95.57 359.26 204.08 82.79-108.5 265.38-119.75 359.26-204.08 84.76-76.13 95.59-183.66 96.9-203.85 0.13-2.01 0.28-4.01 0.42-6.03 3.26-44.43-30.29-215.06-196.92-249.11-171.12-34.97-259.66 103.58-259.66 103.58s-88.55-138.55-259.66-103.58z"/><path class="cls-7" d="m999.98 424.59s93.85 0 172.46 17.58c0 0-105.7 12.78-172.46 86.6-66.76-73.82-172.46-86.6-172.46-86.6 78.61-17.58 172.46-17.58 172.46-17.58z"/><path class="cls-3" d="m999.98 1235.9s26.54-111.1 242.22-179.89c0 0-73.53 131.89-95.55 305.25-22.04 173.55-0.36 259.57 21.16 297.94 0 0-6.15 17.25-167.84 115.11-161.69-97.86-167.84-115.11-167.84-115.11 21.52-38.37 43.21-124.39 21.16-297.94-22.02-173.36-95.55-305.25-95.55-305.25 215.68 68.79 242.22 179.89 242.22 179.89z"/><path class="cls-7" d="m999.98 1915c155 0 259.68-56.48 259.68-56.48l-6.81-12.14c-27.22 0.73-80.28-9.12-134.01-15.74-51.29-6.32-98.23-9.86-98.23-9.86-10.87 5.34-20.62 5.16-20.62 5.16s-9.76 0.18-20.62-5.16c0 0-46.94 3.54-98.23 9.86-53.74 6.62-106.8 16.47-134.01 15.74l-6.81 12.14s104.68 56.48 259.68 56.48z"/><path class="cls-7" d="m1197.8 1631.8c-38.93-158.33-13.5-267.87 8.31-371.69 21.8-103.83 81.4-218.93 81.4-218.93 118.47-53.98 150.74-113.86 150.74-113.86s25.52 193.84-7.07 317.82c-32.6 123.99-99.7 278.02-233.38 386.66z"/><path class="cls-2" d="m999.98 375.1s169.5-7.24 286.3 49.49 170.88 106.36 209.73 221.81c35.98 106.92-21.43 220.59-21.43 220.59s51.93 210.98-6.3 424.12c-66.43 243.17-223.76 377.32-238.12 391.24l18.25 33.21s70.32 13.38 144.58-56.24c0 0 39.99-40.7 75.69-102.47s111.4-124.61 157.45-161.74 103.87-76.66 125.68-107.83c17.18-24.55 33.85-81.46 21.53-150.12-13.05-72.73-23-146.71-21.76-238.71 0 0 14.92-139.25 20.51-175.3 5.59-36.06 8.7-108.17-43.51-158.52-52.22-50.35-133.65-96.98-174.68-137.38-41.03-40.41-89.52-91.38-137.38-162.25-47.87-70.87-104.44-88.27-116.87-91.38s-78.95-11.19-153.55 3.11-146.13 15.8-146.13 15.8-71.53-1.5-146.13-15.8-141.11-6.22-153.55-3.11-69 20.51-116.87 91.38-96.35 121.84-137.38 162.25-122.46 87.03-174.68 137.38-49.11 122.46-43.51 158.52c5.59 36.06 20.51 175.3 20.51 175.3 1.24 92-8.7 165.98-21.76 238.71-12.32 68.66 4.35 125.57 21.53 150.12 21.81 31.17 79.62 70.69 125.68 107.83 46.06 37.13 121.75 99.97 157.45 161.74s75.69 102.47 75.69 102.47c74.26 69.62 144.58 56.24 144.58 56.24l18.25-33.21c-14.36-13.92-171.69-148.07-238.12-391.24-58.23-213.14-6.3-424.12-6.3-424.12s-57.41-113.66-21.43-220.59c38.85-115.45 92.92-165.08 209.73-221.81s286.3-49.49 286.3-49.49z"/><path class="cls-6" d="m1841.3 981.7c-8.21-86.49 8.61-169.62 19.44-255.86 8.43-57.34 9.98-118.71-18.33-171.54-9.59-18.42-22.96-36.11-39.4-49.79-6.36-5.8-20.79-14.76-27.85-19.84-23.05-15.64-45.84-31.53-68.31-47.82-49.64-36.41-99.41-74.06-141.33-118.85-13.06-14.71-26.76-31.79-38.79-47.59-35.14-45.25-67.86-91.57-109.04-132.91-11.13-10.89-22.51-21.15-35.75-30.21-14.04-10.02-31.45-16.05-47.73-19.85-49.96-10.84-100.03-8.47-150.21-3.87l-2.79 0.31-1.44 0.17-1.23 0.15-0.66 0.1c-34.3 5.57-69.59 10.48-103.85 14.96-23.98 2.96-48 5.84-72.03 7.77-1.35 0.1-2.71 0.1-4.07 0-24.03-1.93-48.05-4.81-72.03-7.77-34.26-4.48-69.55-9.39-103.85-14.96l-0.66-0.1-1.23-0.15-1.44-0.17-2.79-0.31c-50.19-4.61-100.25-6.97-150.21 3.87-16.28 3.8-33.69 9.83-47.73 19.85-13.24 9.05-24.62 19.32-35.75 30.21-41.18 41.34-73.91 87.66-109.04 132.91-12.03 15.8-25.73 32.88-38.79 47.59-41.93 44.79-91.7 82.45-141.33 118.85-22.47 16.3-45.26 32.19-68.31 47.82-7.06 5.08-21.48 14.04-27.85 19.84-16.44 13.68-29.81 31.37-39.4 49.79-28.31 52.83-26.76 114.2-18.33 171.54 10.83 86.24 27.64 169.37 19.44 255.86-5.06 55.54-15.83 110.93-20.4 167.44-3.9 43.26-5.33 90.92 5.55 135.17 12.16 57.3 56.86 94.12 102.84 124.73 85.65 55.9 165.39 123.99 222.38 209.6 7.49 11.53 15.41 23.99 23.14 35.46 39.12 55.48 91.5 130.25 162.33 145.65 40.19 7.88 80.28 6.03 120.39 2.87 40.32-3.71 90.05-11.52 132.59-17.19l-62.65-40.86c-3.97 0.44-7.91 0.88-11.79 1.34-38.18 4.52-81.59 5.98-122.09 4.16-15.64-0.84-30.17-2.06-44.69-5.27-8.56-1.86-16.22-5.02-24.31-9.26-33.37-18.26-61.31-45.73-86.38-75.83-17.54-21.04-32.51-44.33-47.74-67.2-32.79-47.91-72.19-91.08-114.77-130.29-26.6-24.28-54.44-47.18-83.55-68.37-15.96-11.83-35.05-24.61-49.48-37.56-39.33-33.55-66.19-72.34-70.01-123.15-6.88-111.14 30.85-222.58 23.58-334.97-4.14-62.9-13-123.72-21.01-184.83-4.69-35.98-2.71-73.23 7.52-107.77 6.45-21.53 17.54-42.56 34.18-57.41 4.06-3.76 18.46-13.94 23.14-17.41 45.71-33.76 90.64-68.51 133.78-105.73 27.09-23.34 54.33-47.84 78.74-74.76 14.34-15.76 27.85-33.49 41.31-50.07 34.28-42.88 69.27-86.7 108.3-124.17 9.11-8.53 18.77-16.97 28.84-23.69 8.98-6.19 18.79-9.29 29.72-11.89 37.86-8.28 78.82-8.31 117.78-6.26 5.07 0.33 15.67 1.01 19.4 1.47 59.13 7.87 118.76 15.92 178.46 19.28 0 0 4.15 0.42 6.22 0.32 2.07 0.1 6.22-0.32 6.22-0.32 59.71-3.36 119.34-11.4 178.46-19.28 3.73-0.46 14.34-1.14 19.4-1.47 38.96-2.05 79.92-2.03 117.78 6.26 10.94 2.6 20.75 5.7 29.72 11.89 10.07 6.71 19.72 15.16 28.84 23.69 39.04 37.47 74.02 81.29 108.3 124.17 13.46 16.57 26.97 34.3 41.31 50.07 24.4 26.93 51.65 51.42 78.74 74.76 43.14 37.22 88.06 71.97 133.78 105.73 4.68 3.47 19.08 13.64 23.14 17.41 16.64 14.85 27.73 35.88 34.18 57.41 10.24 34.53 12.22 71.79 7.52 107.77-8.01 61.11-16.87 121.93-21.01 184.83-7.27 112.4 30.46 223.83 23.58 334.97-3.81 50.81-30.68 89.6-70.01 123.15-14.43 12.94-33.52 25.73-49.48 37.56-29.11 21.19-56.95 44.09-83.55 68.37-42.59 39.22-81.98 82.38-114.77 130.29-15.23 22.87-30.21 46.16-47.74 67.2-25.07 30.1-53.01 57.57-86.38 75.83-8.08 4.24-15.75 7.4-24.31 9.26-14.51 3.21-29.05 4.42-44.69 5.27-40.51 1.81-83.92 0.35-122.09-4.16-3.88-0.46-7.82-0.9-11.79-1.34l-62.65 40.86c42.54 5.67 92.28 13.47 132.59 17.19 40.11 3.16 80.2 5.02 120.39-2.87 70.82-15.4 123.21-90.17 162.33-145.65 7.73-11.47 15.65-23.93 23.14-35.46 56.99-85.62 136.72-153.7 222.38-209.6 45.98-30.61 90.68-67.43 102.84-124.73 10.88-44.26 9.45-91.91 5.55-135.17-4.57-56.51-15.33-111.9-20.4-167.44z"/><path class="cls-4" d="m999.98 975.98s37.99-46.84 37.98-82.74c0-43.27-37.98-52.78-37.98-52.78s-37.98 9.51-37.98 52.78c0 35.9 37.98 82.74 37.98 82.74z"/></g><g transform="matrix(.34545 0 0 .34545 104.99 -337.43)"><path class="cls-2" d="m143.83 1042.2c-2.29-6.24-4.65-12.69-6.94-18.81l-9.7-26.4c24.47-8.14 37.88-26.66 37.88-52.56 0-17.71-6.44-32.3-18.62-42.2-12.13-9.86-29.24-14.86-50.85-14.86h-63.61c-1.12 0-2.19 0.47-2.94 1.29-0.76 0.82-1.14 1.93-1.04 3.04 1.85 22.17 1.85 57.95 1.85 84.06v48.4c0 26.12 0 61.89-1.85 84.06-0.09 1.11 0.29 2.22 1.04 3.04 0.76 0.82 1.83 1.29 2.94 1.29h34.75c1.12 0 2.19-0.47 2.94-1.29s1.14-1.93 1.04-3.04c-1.85-22.17-1.85-57.95-1.85-84.06v-22.68h19.6l9.27 24.71 0.95 2.53c10.16 27.18 21.67 57.99 25.22 80.47 0.31 1.94 1.98 3.38 3.95 3.38h38.16c1.38 0 2.66-0.71 3.39-1.88s0.81-2.63 0.21-3.87c-8.67-17.81-17.38-41.6-25.8-64.61zm-19.02-97.15c0 7.96-1.82 13.23-5.74 16.59-4.05 3.48-10.71 5.16-20.36 5.16h-29.82v-43.5h29.82c9.64 0 16.3 1.69 20.36 5.16 3.92 3.36 5.74 8.63 5.74 16.59z"/><path class="cls-2" d="m229.43 891.88c0.02-0.16 0.03-0.32 0.03-0.48 0-2.21-1.79-4-4-4h-34.76c-1.12 0-2.19 0.47-2.94 1.29-0.76 0.82-1.14 1.93-1.04 3.04 1.85 22.17 1.85 57.95 1.85 84.06v48.4c0 26.12 0 61.89-1.85 84.06-0.09 1.11 0.29 2.22 1.04 3.04 0.76 0.82 1.83 1.29 2.94 1.29h34.75c1.12 0 2.19-0.47 2.94-1.29 0.76-0.82 1.14-1.93 1.04-3.04-1.85-22.17-1.85-57.95-1.85-84.06v-48.4c0-26.06 0-61.73 1.84-83.92z"/><path class="cls-2" d="m377.53 1024.9-30.41-4.34c-0.19-0.03-0.38-0.04-0.57-0.04-1.03 0-2.03 0.4-2.78 1.12-0.89 0.86-1.33 2.07-1.2 3.3 0.57 5.39 0.91 11.73 0.91 16.96 0 24.83-8.06 38.5-22.68 38.5-8.42 0-14.67-4.89-19.11-14.95-4.84-10.98-7.3-27.78-7.3-49.93v-31.03c0-43.05 9.3-64.88 27.65-64.88 5.33 0 9.78 1.77 13.22 5.25 5.75 5.82 8.7 16.23 8.53 30.11-0.01 1.16 0.48 2.28 1.35 3.05 0.74 0.65 1.68 1 2.65 1 0.18 0 0.36-0.01 0.54-0.04l29.48-4.03c2.03-0.28 3.52-2.04 3.46-4.08-0.63-21.85-6.33-38.87-16.93-50.58-10.19-11.26-24.93-17.22-42.6-17.22-22.52 0-39.69 9.34-51.03 27.77-11 17.86-16.57 44.73-16.57 79.86v18.62c0 35.11 5.41 61.96 16.08 79.82 11.03 18.46 27.74 27.82 49.67 27.82 17.58 0 32.55-5.98 43.28-17.31 12.23-12.9 18.43-31.92 18.43-56.51 0-5.61-0.34-10.74-0.63-14.58-0.14-1.87-1.57-3.39-3.42-3.66z"/><path class="cls-2" d="m538.62 891.88c0.02-0.16 0.03-0.32 0.03-0.48 0-2.21-1.79-4-4-4h-34.76c-1.11 0-2.18 0.46-2.94 1.28s-1.14 1.91-1.05 3.03c1.2 15.56 1.8 39.15 1.85 72.02h-53.43c0.04-32.87 0.65-56.46 1.85-72.02 0.09-1.11-0.3-2.21-1.05-3.03-0.76-0.82-1.82-1.28-2.94-1.28h-34.75c-1.12 0-2.19 0.47-2.94 1.29-0.76 0.82-1.14 1.93-1.04 3.04 1.85 22.18 1.85 57.95 1.85 84.06v48.4c0 26.12 0 61.89-1.85 84.06-0.09 1.11 0.29 2.22 1.04 3.04 0.76 0.82 1.83 1.29 2.94 1.29h34.75c1.12 0 2.19-0.47 2.94-1.29s1.14-1.93 1.04-3.04c-1.85-22.17-1.85-57.95-1.85-84.06v-24.54h53.43v24.54c0 26.12 0 61.89-1.85 84.06-0.09 1.11 0.29 2.22 1.04 3.04 0.76 0.82 1.83 1.29 2.94 1.29h34.75c1.12 0 2.19-0.47 2.94-1.29 0.76-0.82 1.14-1.93 1.04-3.04-1.85-22.17-1.85-57.95-1.85-84.06v-48.4c0-26.06 0-61.73 1.84-83.92z"/><path class="cls-2" d="m662.64 1074.8c-0.12 0-0.24 0-0.36 0.02-17.07 1.52-39.3 1.81-57.7 1.84v-100.87c0-26.06 0-61.73 1.83-83.92 0.02-0.16 0.03-0.32 0.03-0.48 0-2.21-1.79-4-4-4h-34.76c-1.12 0-2.19 0.47-2.94 1.29-0.76 0.82-1.14 1.93-1.04 3.04 1.85 22.17 1.85 57.95 1.85 84.06v48.4c0 26.12 0 61.89-1.85 84.06-0.09 1.11 0.29 2.22 1.04 3.04 0.76 0.82 1.83 1.29 2.94 1.29h94.94c2.21 0 4-1.79 4-4v-29.79c0-1.12-0.47-2.19-1.3-2.95-0.74-0.68-1.7-1.05-2.7-1.05z"/><path class="cls-2" d="m811.61 1037.4c-0.69-4.11-1.41-8.39-2.18-12.9l-9.62-56.47c-0.52-3.07-1.03-6.07-1.52-9.01-4.29-25.3-7.67-45.29-9.6-67.92-0.18-2.07-1.91-3.66-3.99-3.66h-72.3c-2.12 0-3.87 1.65-3.99 3.76-1.41 23.09-4.87 43.58-9.26 69.52-0.4 2.39-0.82 4.83-1.24 7.31l-9.62 56.46c-5.91 34.76-9.48 54.3-16.69 83.17-0.3 1.2-0.03 2.46 0.73 3.43s1.92 1.54 3.15 1.54h34.13c2.11 0 3.85-1.64 3.99-3.74 1.69-25.95 5.2-46.53 10.06-75.02 0.45-2.61 0.9-5.29 1.37-8.04l1.26-6.91h44.21l1.26 6.95c5.28 31.12 8.89 53.73 10.8 83.01 0.14 2.1 1.88 3.74 3.99 3.74h35.06c1.23 0 2.4-0.57 3.15-1.54 0.76-0.97 1.03-2.24 0.73-3.43-6.39-25.55-9.54-44.3-13.89-70.26zm-46.88-53.15h-32.67l11.01-62.74h10.65z"/><path class="cls-2" d="m976.15 891.88c0.02-0.16 0.03-0.32 0.03-0.48 0-2.21-1.79-4-4-4h-34.76c-1.12 0-2.2 0.47-2.95 1.3-0.76 0.83-1.13 1.94-1.03 3.06 1.41 15.54 1.76 37.77 1.83 55.76l-68.77-59.15c-0.73-0.62-1.65-0.97-2.61-0.97h-20.79c-1.12 0-2.19 0.47-2.94 1.29s-1.14 1.93-1.04 3.04c1.85 22.18 1.85 57.95 1.85 84.06v48.4c0 26.12 0 61.89-1.85 84.06-0.09 1.11 0.29 2.22 1.04 3.04s1.83 1.29 2.94 1.29h34.75c1.12 0 2.19-0.47 2.94-1.29 0.76-0.82 1.14-1.93 1.04-3.04-1.85-22.17-1.85-57.95-1.85-84.06v-75.35l55.29 47.7v27.64c0 26.12 0 61.89-1.85 84.06-0.09 1.11 0.29 2.22 1.04 3.04 0.76 0.82 1.83 1.29 2.94 1.29h34.75c1.12 0 2.19-0.47 2.94-1.29s1.14-1.93 1.04-3.04c-1.85-22.18-1.85-57.95-1.85-84.06v-48.4c0-26.06 0-61.73 1.83-83.92z"/><path class="cls-2" d="m1059.2 887.4h-53.99c-1.12 0-2.19 0.47-2.94 1.29s-1.14 1.93-1.04 3.04c1.85 22.17 1.85 57.95 1.85 84.06v48.4c0 26.12 0 61.89-1.85 84.06-0.09 1.11 0.29 2.22 1.04 3.04s1.83 1.29 2.94 1.29h53.99c48.36 0 72.88-36.21 72.88-107.63v-9.93c0-71.42-24.52-107.63-72.88-107.63zm32.61 101.43v22.34c0 44.08-10.67 65.5-32.61 65.5h-17.1v-153.34h17.1c21.94 0 32.61 21.43 32.61 65.5z"/><path class="cls-2" d="m1315.8 891.4c0-2.21-1.79-4-4-4h-98.05c-1.12 0-2.19 0.47-2.94 1.29s-1.14 1.93-1.04 3.04c1.85 22.17 1.85 57.95 1.85 84.06v48.4c0 26.12 0 61.89-1.85 84.06-0.09 1.11 0.29 2.22 1.04 3.04s1.83 1.29 2.94 1.29h34.75c1.12 0 2.19-0.47 2.94-1.29s1.14-1.93 1.04-3.04c-1.85-22.17-1.85-57.95-1.85-84.06v-24.54c17.87 0.03 39.4 0.32 55.82 1.84 0.12 0.01 0.25 0.02 0.37 0.02 0.99 0 1.96-0.37 2.7-1.04 0.83-0.76 1.31-1.83 1.31-2.96v-31.65c0-1.13-0.47-2.2-1.31-2.96-0.74-0.67-1.7-1.04-2.7-1.04-0.12 0-0.25 0-0.37 0.02-16.42 1.52-37.95 1.81-55.82 1.84v-40.4c21.67 0 43.7 0.11 60.75 1.84 0.14 0.01 0.27 0.02 0.4 0.02 0.99 0 1.94-0.36 2.68-1.03 0.84-0.76 1.32-1.84 1.32-2.97v-29.79z"/><path class="cls-2" d="m1455 1037.4c-0.69-4.11-1.41-8.39-2.18-12.9l-9.62-56.47c-0.52-3.07-1.03-6.07-1.52-9-4.29-25.31-7.67-45.3-9.6-67.92-0.18-2.07-1.91-3.66-3.99-3.66h-72.3c-2.12 0-3.87 1.65-3.99 3.76-1.41 23.09-4.88 43.58-9.27 69.53-0.4 2.39-0.82 4.82-1.24 7.31l-9.62 56.46c-5.91 34.76-9.48 54.3-16.69 83.17-0.3 1.2-0.03 2.46 0.73 3.43s1.92 1.54 3.15 1.54h34.13c2.11 0 3.86-1.64 3.99-3.74 1.69-25.95 5.2-46.53 10.06-75.01 0.45-2.61 0.9-5.29 1.37-8.04l1.26-6.91h44.21l1.26 6.95c5.28 31.12 8.89 53.73 10.8 83.01 0.14 2.1 1.88 3.74 3.99 3.74h35.06c1.23 0 2.4-0.57 3.15-1.54 0.76-0.97 1.03-2.24 0.73-3.43-6.39-25.55-9.54-44.3-13.89-70.26zm-46.87-53.15h-32.67l11.01-62.74h10.65z"/><path class="cls-2" d="m1597.3 1042.2c-2.29-6.24-4.65-12.7-6.94-18.82l-9.7-26.4c24.47-8.14 37.88-26.66 37.88-52.56 0-17.71-6.44-32.3-18.62-42.2-12.13-9.86-29.24-14.86-50.85-14.86h-63.61c-1.12 0-2.19 0.47-2.94 1.29s-1.14 1.93-1.04 3.04c1.85 22.17 1.85 57.95 1.85 84.06v48.4c0 26.12 0 61.89-1.85 84.06-0.09 1.11 0.29 2.22 1.04 3.04s1.83 1.29 2.94 1.29h34.75c1.12 0 2.19-0.47 2.94-1.29s1.14-1.93 1.04-3.04c-1.85-22.17-1.85-57.95-1.85-84.06v-22.68h19.6l9.27 24.71 0.95 2.53c10.16 27.18 21.67 57.99 25.22 80.46 0.31 1.94 1.98 3.38 3.95 3.38h38.16c1.38 0 2.66-0.71 3.39-1.88s0.81-2.63 0.21-3.87c-8.66-17.81-17.38-41.6-25.8-64.6zm-19.03-97.16c0 7.96-1.82 13.23-5.74 16.59-4.05 3.48-10.71 5.16-20.36 5.16h-29.82v-43.5h29.82c9.64 0 16.3 1.69 20.36 5.16 3.92 3.36 5.74 8.63 5.74 16.59z"/><path class="cls-2" d="m1827.1 975.46c0-26.03 0-61.7 1.83-83.89 0.02-0.16 0.03-0.32 0.03-0.48 0-2.21-1.79-4-3.99-4h-0.03l-63.92 0.31c-2.02 0-3.71 1.52-3.95 3.52-3.17 26.03-8.1 49.24-14.21 76.88l-9.13 42.15-9.12-42.13c-6.11-27.66-11.04-50.87-14.21-76.9-0.24-2.01-1.95-3.52-3.97-3.52h-64.23c-1.12 0-2.19 0.47-2.94 1.29s-1.14 1.93-1.04 3.04c1.85 22.17 1.85 57.95 1.85 84.06v48.4c0 26.12 0 61.89-1.85 84.06-0.09 1.11 0.29 2.22 1.04 3.04s1.83 1.29 2.94 1.29h34.75c1.12 0 2.19-0.47 2.94-1.29s1.14-1.93 1.04-3.04c-1.85-22.17-1.85-57.95-1.85-84.06v-94.53l39.57 170.52c0.42 1.81 2.04 3.1 3.9 3.1h22.34c1.86 0 3.48-1.28 3.9-3.1l39.57-170.52v94.53c0 26.12 0 61.89-1.85 84.06-0.09 1.11 0.29 2.22 1.04 3.04s1.83 1.29 2.94 1.29h34.75c1.12 0 2.19-0.47 2.94-1.29s1.14-1.93 1.04-3.04c-1.85-22.17-1.85-57.95-1.85-84.06l-0.31-48.74z"/><path class="cls-2" d="m1922.6 981.26c-17.93-14.64-33.42-27.28-33.42-43 0-11.33 7.81-18.65 19.89-18.65 5.91 0 10.57 1.8 13.83 5.36 5.15 5.61 7.25 15.88 6.07 29.7-0.1 1.21 0.35 2.4 1.22 3.23 0.75 0.71 1.74 1.11 2.76 1.11 0.18 0 0.35-0.01 0.53-0.03l30.41-4.03c1.88-0.25 3.33-1.79 3.46-3.68 1.56-21.6-3.48-39.33-14.59-51.27-10.3-11.08-25.41-16.93-43.7-16.93s-33.44 5.66-44.27 16.36c-10.08 9.95-15.72 23.95-15.89 39.41-0.36 33.82 25.21 54.6 47.76 72.93 18.04 14.66 35.08 28.51 35.08 46.26 0 13.38-8.99 22.37-22.37 22.37-6.4 0-11.48-2.06-15.09-6.13-6.25-7.03-8.46-20.11-6.38-37.8 0.15-1.23-0.29-2.46-1.18-3.33-0.75-0.74-1.76-1.14-2.8-1.14-0.19 0-0.37 0.01-0.56 0.04l-30.72 4.34c-1.87 0.26-3.29 1.79-3.43 3.67-1.89 26.06 3.5 46.11 16.02 59.58 10.53 11.33 25.79 17.32 44.13 17.32 19.45 0 35.71-6.41 47.02-18.53 10.07-10.8 15.62-25.58 15.62-41.63 0-35.17-26.26-56.61-49.43-75.52z"/><path class="cls-1" d="m121.98 994.42c25.13-6.83 39.1-24.2 39.1-49.96 0-33.51-23.89-53.06-65.47-53.06h-63.61c1.86 22.34 1.86 57.71 1.86 84.4v48.4c0 26.69 0 62.06-1.86 84.4h34.75c-1.86-22.34-1.86-57.71-1.86-84.4v-26.68h26.37l10.24 27.3c10.55 28.24 22.65 60.19 26.37 83.78h38.16c-11.17-22.96-22.34-55.54-32.89-83.78l-11.17-30.4zm-23.27-23.59h-33.82v-51.51h33.82c21.1 0 30.1 7.76 30.1 25.75s-9 25.75-30.1 25.75z"/><path class="cls-1" d="m225.46 891.4h-34.75c1.86 22.34 1.86 57.71 1.86 84.4v48.4c0 26.69 0 62.06-1.86 84.4h34.75c-1.86-22.34-1.86-57.71-1.86-84.4v-48.4c0-26.69 0-62.06 1.86-84.4z"/><path class="cls-1" d="m346.55 1024.5c0.62 5.9 0.93 12.41 0.93 17.38 0 31.96-13.03 42.51-26.68 42.51-20.17 0-30.41-23.27-30.41-68.88v-31.03c0-45.61 10.55-68.88 31.65-68.88 16.44 0 26.06 14.27 25.75 39.4l29.48-4.03c-1.24-42.82-22.65-63.91-55.54-63.91-42.2 0-63.61 34.44-63.61 103.63v18.62c0 69.19 20.79 103.63 61.75 103.63 30.72 0 57.71-19.55 57.71-69.81 0-5.27-0.31-10.24-0.62-14.27l-30.41-4.34z"/><path class="cls-1" d="m534.65 891.4h-34.75c1.55 20.17 1.86 50.89 1.86 76.33h-61.43c0-25.44 0.31-56.16 1.86-76.33h-34.75c1.86 22.34 1.86 57.71 1.86 84.4v48.4c0 26.69 0 62.06-1.86 84.4h34.75c-1.86-22.34-1.86-57.71-1.86-84.4v-28.54h61.43v28.54c0 26.69 0 62.06-1.86 84.4h34.75c-1.86-22.34-1.86-57.71-1.86-84.4v-48.4c0-26.69 0-62.06 1.86-84.4z"/><path class="cls-1" d="m600.58 975.8c0-26.69 0-62.06 1.86-84.4h-34.75c1.86 22.34 1.86 57.71 1.86 84.4v48.4c0 26.69 0 62.06-1.86 84.4h94.94v-29.79c-17.37 1.55-40.33 1.86-62.05 1.86z"/><path class="cls-1" d="m795.87 968.66c-4.96-29.48-9-51.81-11.17-77.26h-72.3c-1.55 25.45-5.58 47.78-10.55 77.26l-9.62 56.47c-5.59 32.89-9.31 53.68-16.75 83.46h34.13c1.86-28.55 5.9-50.58 11.48-83.46l1.86-10.24h50.89l1.86 10.24c5.58 32.89 9 54.92 10.86 83.46h35.06c-7.45-29.79-10.55-50.58-16.13-83.46zm-68.57 19.55 12.41-70.75h17.37l12.41 70.75h-42.2z"/><path class="cls-1" d="m972.17 891.4h-34.75c1.55 17.07 1.86 41.89 1.86 64.85l-75.4-64.85h-20.79c1.86 22.34 1.86 57.71 1.86 84.4v48.4c0 26.69 0 62.06-1.86 84.4h34.75c-1.86-22.34-1.86-57.71-1.86-84.4v-84.08l63.3 54.61v29.48c0 26.69 0 62.06-1.86 84.4h34.75c-1.86-22.34-1.86-57.71-1.86-84.4v-48.4c0-26.69 0-62.06 1.86-84.4z"/><path class="cls-1" d="m1059.2 891.4h-53.99c1.86 22.34 1.86 57.71 1.86 84.4v48.4c0 26.69 0 62.06-1.86 84.4h53.99c45.92 0 68.88-34.44 68.88-103.63v-9.93c0-69.19-22.96-103.63-68.88-103.63zm36.61 119.77c0 46.54-12.1 69.5-36.61 69.5h-21.1v-161.34h21.1c24.51 0 36.61 22.96 36.61 69.5z"/><path class="cls-1" d="m1215.6 975.8v48.4c0 26.69 0 62.06-1.86 84.4h34.75c-1.86-22.34-1.86-57.71-1.86-84.4v-28.54c21.1 0 43.44 0.31 60.19 1.86v-31.65c-16.75 1.55-39.09 1.86-60.19 1.86v-48.4c22.65 0 46.85 0 65.16 1.86v-29.79h-98.05c1.86 22.34 1.86 57.71 1.86 84.4z"/><path class="cls-1" d="m1439.3 968.66c-4.96-29.48-9-51.81-11.17-77.26h-72.3c-1.55 25.45-5.58 47.78-10.55 77.26l-9.62 56.47c-5.59 32.89-9.31 53.68-16.75 83.46h34.13c1.86-28.55 5.9-50.58 11.48-83.46l1.86-10.24h50.89l1.86 10.24c5.58 32.89 9 54.92 10.86 83.46h35.06c-7.45-29.79-10.55-50.58-16.13-83.46zm-68.57 19.55 12.41-70.75h17.37l12.41 70.75h-42.2z"/><path class="cls-1" d="m1575.4 994.42c25.13-6.83 39.1-24.2 39.1-49.96 0-33.51-23.89-53.06-65.47-53.06h-63.61c1.86 22.34 1.86 57.71 1.86 84.4v48.4c0 26.69 0 62.06-1.86 84.4h34.75c-1.86-22.34-1.86-57.71-1.86-84.4v-26.68h26.37l10.24 27.3c10.55 28.24 22.65 60.19 26.37 83.78h38.16c-11.17-22.96-22.34-55.54-32.89-83.78l-11.17-30.4zm-23.27-23.59h-33.82v-51.51h33.82c21.1 0 30.1 7.76 30.1 25.75s-9 25.75-30.1 25.75z"/><path class="cls-1" d="m1823.1 975.49c0-26.69 0-62.06 1.86-84.39l-63.92 0.31c-3.1 25.45-7.76 47.78-14.27 77.26l-13.03 60.19-13.03-60.19c-6.52-29.48-11.17-51.81-14.27-77.26h-64.23c1.86 22.34 1.86 57.71 1.86 84.4v48.4c0 26.69 0 62.06-1.86 84.4h34.75c-1.86-22.34-1.86-57.71-1.86-84.4v-106.73h5.28l42.2 181.82h22.34l42.2-181.82h5.28v106.73c0 26.69 0 62.06-1.86 84.4h34.75c-1.86-22.34-1.86-57.71-1.86-84.4l-0.31-48.71z"/><path class="cls-1" d="m1885.2 938.25c0-13.03 9-22.65 23.89-22.65 17.69 0 26.06 13.96 23.89 39.4l30.41-4.03c3.1-42.82-20.48-63.91-54.3-63.91-35.99 0-55.85 23.27-56.16 51.81-0.62 58.96 82.84 76.33 82.84 119.15 0 14.9-10.24 26.37-26.37 26.37-19.55 0-29.17-16.75-25.44-48.4l-30.72 4.34c-3.72 51.2 22.34 72.61 56.16 72.61 39.4 0 58.64-27.3 58.64-56.16 0-60.19-82.84-79.12-82.84-118.52z"/></g></g></svg>
