<?xml version="1.0" encoding="UTF-8"?>
<!-- Created with Inkscape (http://www.inkscape.org/) -->
<svg width="9.2485in" height="1.9351in" version="1.1" viewBox="0 0 234.91 49.15" xmlns="http://www.w3.org/2000/svg" xmlns:cc="http://creativecommons.org/ns#" xmlns:dc="http://purl.org/dc/elements/1.1/" xmlns:rdf="http://www.w3.org/1999/02/22-rdf-syntax-ns#">
 <metadata>
  <rdf:RDF>
   <cc:Work rdf:about="">
    <dc:format>image/svg+xml</dc:format>
    <dc:type rdf:resource="http://purl.org/dc/dcmitype/StillImage"/>
   </cc:Work>
  </rdf:RDF>
 </metadata>
 <g transform="translate(-12.567 -112.92)">
  <g transform="matrix(.35278 0 0 -.35278 12.567 162.07)">
   <g transform="scale(.1)" fill="#193f34">
    <path d="m1270.6 329.81c0 4.031 1.61 5.64 4.85 5.64 12.09 0 52.4 0 62.89-1.609 19.35-2.418 39.52-4.828 66.93-23.391 62.09-42.73 78.22-112.9 78.22-161.28 0-91.121-70.16-114.5-113.7-114.5-14.51 0-49.19 1.6094-70.97 12.09-25 12.098-25 23.398-27.41 62.91-0.81 12.09-0.81 112.08-0.81 174.18zm0 255.62c0 4.832 2.42 7.254 9.68 8.867 12.9 3.222 29.84 4.043 38.7 4.043 79.03 0 108.87-71.778 108.87-138.71 0-33.067-12.1-62.09-29.03-81.442-16.94-19.363-28.22-20.972-73.38-20.972-29.84 0-44.36 2.422-49.19 3.222-4.04 1.629-5.65 3.239-5.65 8.879zm-64.51-340.29c0-77.422 0-141.12-4.03-174.98-3.22-23.398-7.26-41.129-23.39-44.371-7.26-1.6094-16.93-3.2188-24.19-3.2188-4.84 0-6.45-2.4219-6.45-4.832 0-4.8477 4.03-6.457 12.9-6.457 24.19 0 74.99 2.4179 79.03 2.4179 6.45 0 88.7-4.8281 107.25-4.8281 137.89 0 205.63 89.5 205.63 175.79 0 94.34-79.83 151.59-139.51 170.15 37.9 39.511 75.81 79.023 75.81 145.14 0 40.324-29.04 120.97-161.29 120.97-37.09 0-68.53-2.434-87.89-2.434-4.04 0-54.84 2.434-91.13 2.434-8.87 0-12.89-1.613-12.89-6.465 0-3.223 3.22-4.836 6.45-4.836 7.25 0 20.96-0.801 27.41-2.422 26.62-5.633 33.06-18.543 34.67-45.957 1.62-25.801 1.62-48.379 1.62-174.18v-141.92" fill-rule="evenodd"/>
    <path d="m1734.6 278.2c-2.43 0-4.04 1.61-2.43 5.653l70.98 217.71c4.02 12.09 8.06 12.09 12.09 0l76.59-217.71c0.82-3.243 0.82-5.653-3.21-5.653zm-112.89-178.22c-14.53-40.309-30.64-70.949-67.74-75.801-6.45-0.8086-17.74-1.6094-23.39-1.6094-4.03 0-7.25-1.6094-7.25-4.832 0-4.8477 4.84-6.457 15.32-6.457 37.89 0 82.24 2.4179 91.12 2.4179 8.86 0 43.54-2.4179 62.9-2.4179 7.25 0 12.09 1.6093 12.09 6.457 0 3.2226-2.41 4.832-8.06 4.832h-8.07c-13.71 0-30.64 7.2695-30.64 23.379 0 14.52 4.04 33.883 11.3 54.031l48.38 142.74c1.61 4.031 4.02 6.453 8.05 6.453h173.37c4.04 0 5.65-1.621 7.27-4.844l74.99-198.38c4.84-12.891 0-20.16-4.83-21.77-3.23-0.8086-5.65-2.418-5.65-5.6406 0-4.8399 8.87-4.8399 24.19-5.6485 55.64-1.6093 114.5-1.6093 126.6-1.6093 8.87 0 16.13 1.6093 16.13 6.457 0 4.0234-3.22 4.832-8.06 4.832-8.07 0-20.17 0.8008-32.26 4.8516-16.94 4.8281-40.32 17.738-69.34 89.508-49.2 122.57-175.8 455.59-187.9 486.25-9.67 24.992-12.89 29.023-17.74 29.023-4.84 0-8.06-4.832-17.73-31.445l-183.05-500.77" fill-rule="evenodd"/>
    <path d="m2214.9 507.21c25.8-29.023 116.76-130.63 210.15-231.44 85.33-91.918 201.26-210.46 210.11-218.52 42.85-42.738 52.6-51.602 59.11-51.602 5.69 0 7.31 4.0234 7.31 57.242l1.62 472.55c0 48.379 3.22 66.125 29.83 71.758 9.67 2.422 15.32 2.422 19.36 2.422 5.64 0 8.87 2.422 8.87 5.645 0 4.836-5.65 5.656-14.52 5.656-33.06 0-59.78-2.434-68.73-2.434-8.94 0-47.68 2.434-83.91 2.434-9.65 0-16.09-0.82-16.09-5.656 0-3.223 0.8-5.645 6.44-5.645 6.44 0 24.95-0.801 39.44-4.031 24.96-6.445 30.6-24.192 31.41-76.602l8.89-409.65c-25.8 26.609-113.56 124.99-193.25 210.47-123.98 133.05-243.93 262.88-256.04 276.59-8.14 8.059-21.96 25.801-28.45 25.801-6.51 0-8.94-8.867-8.94-40.32l-0.81-462.06c0-73.379-4.04-96.761-24.2-102.4-12.1-4.0508-26.6-4.8516-33.07-4.8516-4.02 0-6.44-1.6094-6.44-4.832 0-5.6485 4.83-6.457 12.91-6.457 36.28 0 70.3 2.4179 77.61 2.4179s39.65-2.4179 85.6-2.4179c9.69 0 14.52 1.6093 14.52 6.457 0 3.2226-2.42 4.832-6.44 4.832-7.27 0-25.01 0.8008-40.33 4.8516-21.78 6.4375-29.84 27.41-31.45 93.527l-10.51 386.26"/>
    <path d="m2848.2 245.14c0-77.422 0-141.12-4.02-174.98-3.23-23.398-7.26-41.129-23.4-44.371-7.25-1.6094-16.93-3.2188-24.19-3.2188-4.83 0-6.45-2.4219-6.45-4.832 0-4.8477 4.03-6.457 12.9-6.457 24.19 0 70.97 2.4179 77.42 2.4179s53.21-2.4179 92.73-2.4179c8.87 0 12.91 2.4179 12.91 6.457 0 2.4101-1.62 4.832-6.45 4.832-7.26 0-20.17 1.6094-31.45 3.2188-24.19 3.2422-29.03 20.973-31.45 44.371-4.04 33.86-4.04 97.559-4.04 174.98v79.019h4.04c38.71-47.57 209.65-232.23 245.94-262.08 34.68-27.406 54.84-45.148 97.57-49.188 17.75-1.6093 33.06-1.6093 55.65-1.6093h41.13c13.7 0 17.73 2.4179 17.73 6.457 0 3.2226-4.84 4.832-10.49 4.832-5.63 0-29.02 1.6094-49.99 10.488-38.71 16.133-52.42 29.02-120.15 91.921-33.06 30.649-200.78 204.03-221.75 227.41 16.93 20.16 157.23 157.24 177.4 176.6 36.29 34.676 54.03 54.832 87.09 69.356 16.13 7.246 33.07 11.277 45.16 11.277 6.45 0 8.06 1.613 8.06 5.645 0 4.043-3.22 5.656-12.09 5.656-20.16 0-73.39-2.434-77.41-2.434-19.36 0-44.36 2.434-60.49 2.434-5.63 0-9.67-1.613-9.67-5.656 0-3.223 3.22-4.832 7.26-6.446 6.45-2.422 10.48-7.254 10.48-16.941 0-13.703-20.97-34.668-43.54-58.059-29.03-31.445-174.99-179.82-188.7-195.14h-3.23v48.379c0 125.8 0 148.38 1.61 174.18 1.62 28.223 8.08 41.934 29.84 45.957 9.68 1.621 14.52 2.422 20.17 2.422 3.22 0 6.44 1.613 6.44 4.836 0 4.852-4.03 6.465-12.9 6.465-24.2 0-70.96-2.434-78.22-2.434-4.84 0-52.42 2.434-88.7 2.434-8.88 0-12.9-1.613-12.9-6.465 0-3.223 3.23-4.836 6.45-4.836 7.26 0 20.97-0.801 27.41-2.422 26.62-5.633 33.06-18.543 34.67-45.957 1.62-25.801 1.62-48.379 1.62-174.18v-141.92"/>
    <path d="m3709.6 42.73c-90.31 0-161.27 72.59-161.27 173.39 0 64.488 30.64 108.04 72.57 135.47 22.58-33.07 74.18-90.32 95.15-112.9 20.97-22.57 100.8-99.179 145.95-136.28-27.41-28.23-77.4-59.68-152.4-59.68zm-28.22-42.742c119.34 0 183.05 68.543 201.59 87.102 88.7-70.16 108.06-75.808 167.74-75.808h79.02c7.25 0 13.71 2.4179 13.71 5.6484 0 4.832-4.04 5.6406-11.29 5.6406-29.03 0-70.16 16.129-95.97 31.461-22.57 12.891-58.06 34.668-111.28 79.828 35.49 43.551 79.84 124.99 79.84 190.3 0 8.07-2.42 14.52-14.52 16.129-45.16 4.832-77.4 5.641-96.76 5.641-6.46 0-12.91-1.602-12.91-5.641s4.85-5.648 9.69-5.648c12.09 0 29.02-2.411 39.5-12.891 12.1-12.102 15.32-27.422 15.32-39.531 0-49.18-18.54-103.2-41.12-133.85-25.8 21.77-124.99 114.51-152.4 144.34-83.87 91.129-127.42 143.54-127.42 206.44 0 75.793 54.04 105.64 102.42 105.64 35.48 0 62.9-16.934 80.64-35.488 20.16-20.969 24.99-47.571 24.99-68.535 0-12.102 0.81-15.325 4.83-15.325 3.25 0 5.65 1.614 8.08 13.711 2.4 12.09 5.65 68.536 5.65 92.727 0 9.687-0.82 14.519-10.48 20.164-21.79 12.102-56.47 20.156-97.58 20.156-108.07 0-173.37-84.668-173.37-148.38 0-36.289 9.67-69.343 39.5-111.27-62.9-37.102-123.37-100-123.37-194.34 0-70.16 54.83-178.22 195.95-178.22" fill-rule="evenodd"/>
    <path d="m4493.8 586.24 101.42-1.621c77.26-1.609 95.77-20.156 98.99-44.344l0.81-8.879c0.83-11.277 2.48-13.699 6.6-13.699 3.29 0 5.77 3.223 5.77 10.477 0 8.879 2.47 64.512 2.47 88.703 0 4.832 0 9.676-4.12 9.676-6.59 0-28.43-8.067-79.94-8.067h-302.17c-9.66 0-40.3 1.614-63.69 4.043-21.77 1.614-29.84 9.668-35.48 9.668-3.24 0-6.45-10.488-8.06-15.32-1.61-6.445-17.76-75.793-17.76-83.867 0-4.836 1.62-7.258 4.05-7.258 3.22 0 5.64 1.613 8.05 8.066 2.43 5.645 4.85 11.289 13.72 24.993 12.9 19.363 32.26 25.007 82.25 25.808l119.36 1.621v-341.1c0-77.422 0-141.12-4.05-174.98-3.22-23.398-7.25-41.129-23.39-44.371-7.24-1.6094-16.93-3.2188-24.19-3.2188-4.83 0-6.44-2.4219-6.44-4.832 0-4.8477 4.03-6.457 12.91-6.457 24.18 0 74.98 2.4179 79.01 2.4179 4.04 0 54.85-2.4179 99.19-2.4179 8.87 0 12.9 2.4179 12.9 6.457 0 2.4101-1.62 4.832-6.45 4.832-7.26 0-24.99 1.6094-36.29 3.2188-24.19 3.2422-29.03 20.973-31.45 44.371-4.02 33.86-4.02 97.559-4.02 174.98v341.1"/>
    <path d="m4871 580.6c0 4.836 2.42 8.058 6.45 9.668 8.07 2.422 29.84 4.836 54.02 4.836 86.3 0 139.51-60.481 139.51-161.27 0-61.281-20.97-104.82-49.18-124.18-18.56-12.91-41.13-15.32-60.49-15.32-35.48 0-72.57 5.633-84.67 12.902-4.03 2.418-5.64 5.641-5.64 9.692zm-64.51-335.46c0-77.422 0-141.12-4.03-174.98-3.22-23.398-7.26-41.129-23.39-44.371-7.26-1.6094-16.93-3.2188-24.2-3.2188-4.83 0-6.44-2.4219-6.44-4.832 0-4.8477 4.02-6.457 12.9-6.457 24.19 0 74.99 2.4179 75.8 2.4179 4.03 0 54.82-2.4179 99.19-2.4179 8.87 0 12.9 2.4179 12.9 6.457 0 2.4101-1.62 4.832-6.45 4.832-7.26 0-25 1.6094-36.28 3.2188-24.2 3.2422-29.04 20.973-31.46 44.371-4.03 33.86-4.03 97.559-4.03 174.98v19.359c0 4.02 1.61 6.441 5.64 6.441l99.19-1.613c4.84 0 7.26-1.609 10.49-4.828 16.12-20.969 54.02-75 87.88-119.36 45.98-60.481 74.2-99.981 108.88-118.53 20.96-11.289 41.12-15.328 86.28-15.328h57.24c14.52 0 19.36 1.6093 19.36 6.457 0 2.4101-3.22 4.832-7.26 4.832-4.83 0-16.13 0-31.45 2.4297-20.15 3.2305-54.83 12.09-98.37 58.051-46.77 50-101.61 121.77-167.74 206.44 72.59 66.934 97.57 126.6 97.57 186.28 0 55.632-35.47 95.144-55.63 109.67-42.74 30.632-96.76 35.488-147.57 35.488-24.99 0-86.28-2.434-95.16-2.434-4.03 0-54.83 2.434-91.12 2.434-8.87 0-12.89-1.613-12.89-6.465 0-3.223 3.22-4.836 6.44-4.836 7.26 0 20.97-0.801 27.42-2.422 26.61-5.633 33.06-18.543 34.67-45.957 1.62-25.801 1.62-48.379 1.62-174.18v-141.92" fill-rule="evenodd"/>
    <g>
     <path d="m5286.9 269.33c0-117.73 30.65-174.18 70.16-212.08 57.25-54.031 138.7-57.262 166.12-57.262 47.57 0 108.05 8.0703 166.12 59.684 64.51 57.258 74.18 154.02 74.18 241.1v86.289c0 125.8 0 148.38 1.61 174.18 1.61 28.223 8.08 41.934 29.83 45.957 9.68 2.422 14.53 2.422 20.16 2.422 3.24 0 6.47 1.613 6.47 4.836 0 4.852-4.05 6.465-12.91 6.465-24.19 0-62.09-2.434-67.74-2.434-4.83 0-49.19 2.434-85.48 2.434-8.86 0-12.89-1.613-12.89-6.465 0-3.223 3.22-4.836 6.45-4.836 7.25 0 20.96-0.801 27.41-2.422 26.61-5.633 33.06-18.543 34.68-45.957 1.6-25.801 1.6-48.379 1.6-174.18v-100.8c0-83.051-9.67-151.61-46.76-197.56-29.03-34.668-77.41-58.059-126.61-58.059-45.96 0-82.26 7.25-121.76 44.348-34.68 33.063-60.48 83.063-60.48 199.17v112.9c0 125.8 0 148.38 1.61 174.18 1.62 28.223 8.06 42.735 29.84 45.957 9.68 1.621 14.52 2.422 20.15 2.422 3.23 0 6.47 1.613 6.47 4.836 0 4.852-4.04 6.465-12.91 6.465-24.19 0-72.57-2.434-79.83-2.434s-56.45 2.434-92.74 2.434c-8.87 0-12.9-1.613-12.9-6.465 0-3.223 3.22-4.836 6.46-4.836 7.25 0 20.96-0.801 27.41-2.422 26.61-5.633 33.05-18.543 34.68-45.957 1.6-25.801 1.6-48.379 1.6-174.18v-117.73"/>
     <path d="m5940.8-0.011719c43.55 0 87.09 9.6836 121.76 33.871 55.65 39.52 68.54 100.79 68.54 133.86 0 64.511-22.57 114.5-117.73 189.5l-22.58 17.742c-75.79 62.094-98.38 89.516-98.38 135.47 0 58.867 43.56 93.543 99.19 93.543 74.19 0 95.95-33.868 100.81-42.735 4.83-8.867 9.66-30.644 10.48-40.32 0.79-6.445 1.6-10.488 6.45-10.488 4.03 0 5.64 5.652 5.64 18.554 0 54.832 3.23 81.446 3.23 85.469 0 4.031-1.62 5.645-8.08 5.645-6.45 0-12.89 0.82-28.21 4.043-20.17 4.832-43.55 8.054-74.99 8.054-102.42 0-166.93-58.867-166.93-145.14 0-54.836 19.36-104.84 104.84-175l36.29-29.84c69.34-57.25 92.72-89.5 92.72-145.14 0-51.609-37.9-107.24-115.3-107.24-54.04 0-107.27 22.582-119.36 82.23-2.41 11.301-2.41 22.578-2.41 29.852 0 6.449-0.82 8.859-5.64 8.859-4.05 0-5.66-4.031-6.46-12.89-0.81-12.911-4.03-45.153-4.03-85.469 0-21.781 0.81-25 12.09-30.66 33.06-16.113 70.16-21.773 108.06-21.773"/>
     <path d="m6442.9 586.24 101.41-1.621c77.27-1.609 95.78-20.156 99-44.344l0.81-8.879c0.83-11.277 2.48-13.699 6.6-13.699 3.3 0 5.78 3.223 5.78 10.477 0 8.879 2.47 64.512 2.47 88.703 0 4.832 0 9.676-4.12 9.676-6.6 0-28.44-8.067-79.95-8.067h-302.15c-9.68 0-40.32 1.614-63.7 4.043-21.77 1.614-29.85 9.668-35.48 9.668-3.24 0-6.46-10.488-8.07-15.32-1.61-6.445-17.74-75.793-17.74-83.867 0-4.836 1.61-7.258 4.03-7.258 3.22 0 5.64 1.613 8.07 8.066 2.42 5.645 4.83 11.289 13.71 24.993 12.9 19.363 32.25 25.007 82.24 25.808l119.36 1.621v-341.1c0-77.422 0-141.12-4.04-174.98-3.23-23.398-7.26-41.129-23.39-44.371-7.25-1.6094-16.94-3.2188-24.19-3.2188-4.84 0-6.45-2.4219-6.45-4.832 0-4.8477 4.04-6.457 12.91-6.457 24.19 0 74.98 2.4179 79.02 2.4179 4.03 0 54.84-2.4179 99.19-2.4179 8.86 0 12.9 2.4179 12.9 6.457 0 2.4101-1.63 4.832-6.46 4.832-7.26 0-24.99 1.6094-36.29 3.2188-24.19 3.2422-29.02 20.973-31.44 44.371-4.03 33.86-4.03 97.559-4.03 174.98v341.1"/>
     <path d="m1207.9 996.32c0-79.394 0-144.71-4.13-179.44-3.3-23.984-7.45-42.18-23.99-45.488-7.44-1.653-17.36-3.301-24.8-3.301-4.96 0-6.61-2.492-6.61-4.961 0-4.973 4.12-6.633 13.21-6.633 24.81 0 76.91 2.492 81.05 2.492s56.22-2.492 101.71-2.492c9.1 0 13.23 2.492 13.23 6.633 0 2.469-1.66 4.961-6.62 4.961-7.44 0-25.62 1.648-37.21 3.301-24.8 3.308-29.76 21.504-32.25 45.488-4.13 34.723-4.13 100.04-4.13 179.44v70.274c0 5.8 1.66 7.45 5.79 7.45 14.05 0 104.2 0 124.86-2.47 25.64-3.32 38.87-18.2 43-29.78 3.31-9.92 4.14-21.5 4.96-29.77 0-4.14 1.65-7.44 5.79-7.44 5.8 0 5.8 8.28 5.8 15.71 0 5.79 1.65 38.87 3.3 55.4 2.47 27.3 6.61 41.35 6.61 46.31 0 4.14-0.82 6.62-4.14 6.62-3.3 0-5.77-4.14-9.08-8.28-7.45-10.74-18.2-13.22-38.05-14.87-11.57-0.83-23.15-0.83-37.2-0.83l-105.85-0.82c-4.96 0-5.79 2.47-5.79 7.43v228.23c0 6.62 2.48 9.09 7.44 9.09l127.35-2.47c32.25-0.83 51.26-15.72 56.23-26.47 4.95-10.75 7.44-24.8 7.44-31.42 0-5.79 1.65-9.92 5.79-9.92s5.79 4.96 6.61 9.1c1.65 9.92 3.31 46.31 4.14 54.57 2.48 23.16 6.61 33.07 6.61 38.87 0 4.14-1.65 7.44-4.95 7.44-3.31 0-6.62-3.3-11.59-4.96-7.43-2.48-20.67-2.48-36.38-3.3-19.02-0.84-186.88-0.84-203.42-0.84-4.14 0-56.24 2.49-93.45 2.49-9.1 0-13.22-1.65-13.22-6.63 0-3.3 3.3-4.95 6.61-4.95 7.45 0 21.5-0.82 28.12-2.49 27.29-5.78 33.9-19.02 35.55-47.12 1.66-26.47 1.66-49.62 1.66-178.63v-145.52"/>
     <path d="m1692.2 1141.8c0 129.01 0 152.16 1.67 178.63 1.65 28.94 8.27 42.99 30.59 47.12 9.93 1.67 14.88 2.49 20.67 2.49 3.31 0 6.62 1.65 6.62 4.95 0 4.98-4.14 6.63-13.24 6.63-24.81 0-76.89-2.49-81.03-2.49s-56.24 2.49-83.51 2.49c-9.1 0-13.24-1.65-13.24-6.63 0-3.3 3.31-4.95 6.61-4.95 5.79 0 16.54-0.82 25.64-3.31 18.19-4.13 26.46-18.2 28.11-46.3 1.65-26.47 1.65-49.62 1.65-178.63v-145.52c0-79.394 0-144.71-4.12-179.44-3.31-23.984-7.45-42.18-23.99-45.488-7.45-1.653-17.36-3.301-24.8-3.301-4.96 0-6.61-2.492-6.61-4.961 0-4.973 4.12-6.633 13.22-6.633 24.8 0 76.9 2.492 81.04 2.492s56.22-2.492 101.71-2.492c9.1 0 13.22 2.492 13.22 6.633 0 2.469-1.65 4.961-6.61 4.961-7.44 0-25.62 1.648-37.2 3.301-24.81 3.308-29.77 21.504-32.25 45.488-4.15 34.723-4.15 100.04-4.15 179.44v145.52"/>
     <path d="m2898.5 1346.1 104-1.66c79.24-1.65 98.22-20.67 101.52-45.48l0.84-9.09c0.84-11.58 2.53-14.06 6.76-14.06 3.38 0 5.92 3.3 5.92 10.75 0 9.1 2.53 66.15 2.53 90.96 0 4.96 0 9.92-4.23 9.92-3.38 0-10.98-1.65-23.38-4.13-13.2-1.65-32.18-4.14-58.6-4.14h-309.85c-9.92 0-41.34 1.66-65.32 4.14-22.32 1.66-30.6 9.92-36.38 9.92-3.31 0-6.62-10.75-8.27-15.71-1.66-6.61-18.2-77.72-18.2-86 0-4.96 1.66-7.45 4.14-7.45 3.31 0 5.79 1.66 8.26 8.28 2.49 5.78 4.98 11.57 14.07 25.63 13.22 19.84 33.07 25.64 84.34 26.46l122.39 1.66v-349.78c0-79.394 0-144.71-4.14-179.44-3.3-23.984-7.44-42.18-23.98-45.488-7.44-1.653-17.36-3.301-24.81-3.301-4.96 0-6.61-2.492-6.61-4.961 0-4.973 4.14-6.633 13.24-6.633 24.8 0 76.89 2.492 81.03 2.492s56.18-2.492 101.58-2.492c9.09 0 13.21 2.492 13.21 6.633 0 2.469-1.65 4.961-6.59 4.961-7.44 0-25.6 1.648-37.15 3.301-24.77 3.308-29.72 21.504-32.19 45.488-4.13 34.723-4.13 100.04-4.13 179.44v349.78"/>
     <path d="m3365.3 987.96c0-79.387 0-144.72-4.12-179.44-3.31-23.985-7.45-42.18-23.99-45.481-7.44-1.66-17.36-3.309-24.81-3.309-4.96 0-6.61-2.492-6.61-4.96 0-4.973 4.13-6.622 13.23-6.622 24.8 0 76.9 2.489 81.04 2.489s56.22-2.489 101.71-2.489c9.1 0 13.22 2.489 13.22 6.622 0 2.468-1.65 4.96-6.61 4.96-7.44 0-25.62 1.649-37.21 3.309-24.8 3.301-29.76 21.496-32.25 45.481-4.13 34.726-4.13 100.05-4.13 179.44v70.279c0 5.79 1.66 7.45 5.79 7.45 14.05 0 104.19 0 124.86-2.48 25.64-3.32 38.86-18.19 43-29.77 3.31-9.92 4.14-21.51 4.96-29.77 0-4.139 1.65-7.447 5.79-7.447 5.79 0 5.79 8.277 5.79 15.707 0 5.8 1.65 38.88 3.31 55.41 2.47 27.29 6.61 41.34 6.61 46.3 0 4.15-0.82 6.63-4.14 6.63-3.31 0-5.78-4.14-9.08-8.27-7.45-10.76-18.19-13.23-38.04-14.88-11.59-0.84-23.16-0.84-37.21-0.84l-105.85-0.82c-4.96 0-5.79 2.48-5.79 7.43v228.24c0 6.62 2.48 9.09 7.44 9.09l127.35-2.47c32.25-0.83 51.26-15.72 56.22-26.47s7.45-24.81 7.45-31.42c0-5.79 1.65-9.91 5.79-9.91s5.79 4.95 6.62 9.09c1.65 9.92 3.3 46.3 4.13 54.57 2.48 23.16 6.61 33.07 6.61 38.86 0 4.14-1.65 7.45-4.96 7.45-3.3 0-6.61-3.31-11.57-4.96-7.45-2.49-20.68-2.49-36.38-3.31-19.03-0.83-186.89-0.83-203.43-0.83-4.14 0-56.24 2.48-93.45 2.48-9.09 0-13.22-1.65-13.22-6.62 0-3.31 3.31-4.96 6.61-4.96 7.44 0 21.5-0.82 28.11-2.48 27.3-5.78 33.91-19.02 35.56-47.13 1.65-26.46 1.65-49.61 1.65-178.62v-145.53"/>
    </g>
    <path d="m3792.8 1021.9c-2.49 0-4.15 1.66-2.49 5.8l72.78 223.25c4.13 12.41 8.26 12.41 12.4 0l78.55-223.25c0.83-3.32 0.83-5.8-3.31-5.8zm-115.78-182.76c-14.88-41.328-31.41-72.765-69.45-77.726-6.61-0.828-18.2-1.649-23.99-1.649-4.12 0-7.44-1.652-7.44-4.96 0-4.973 4.97-6.622 15.72-6.622 38.86 0 84.33 2.489 93.44 2.489 9.09 0 44.64-2.489 64.5-2.489 7.44 0 12.4 1.649 12.4 6.622 0 3.308-2.48 4.96-8.27 4.96h-8.27c-14.07 0-31.42 7.442-31.42 23.973 0 14.895 4.13 34.738 11.58 55.402l49.61 146.37c1.65 4.136 4.13 6.621 8.27 6.621h177.78c4.14 0 5.79-1.664 7.45-4.969l76.9-203.43c4.96-13.223 0-20.664-4.96-22.324-3.31-0.828-5.79-2.481-5.79-5.789 0-4.953 9.1-4.953 24.81-5.793 57.06-1.649 117.42-1.649 129.82-1.649 9.1 0 16.54 1.649 16.54 6.622 0 4.128-3.3 4.96-8.26 4.96-8.28 0-20.68 0.821-33.09 4.961-17.36 4.961-41.34 18.192-71.11 91.793-50.45 125.68-180.27 467.2-192.67 498.63-9.92 25.62-13.23 29.77-18.2 29.77-4.96 0-8.26-4.96-18.18-32.25l-187.72-513.52" fill-rule="evenodd"/>
    <path d="m4283 1332c0 4.96 2.48 8.26 6.62 9.92 8.26 2.48 30.59 4.96 55.39 4.96 88.49 0 143.06-62.02 143.06-165.39 0-62.83-21.49-107.49-50.43-127.34-19.02-13.23-42.18-15.7-62.03-15.7-36.38 0-74.42 5.77-86.82 13.22-4.14 2.48-5.79 5.79-5.79 9.93zm-66.16-344c0-79.387 0-144.72-4.12-179.44-3.31-23.985-7.44-42.18-23.99-45.481-7.45-1.66-17.36-3.309-24.8-3.309-4.96 0-6.62-2.492-6.62-4.96 0-4.973 4.13-6.622 13.23-6.622 24.8 0 76.9 2.489 77.73 2.489 4.13 0 56.23-2.489 101.71-2.489 9.11 0 13.23 2.489 13.23 6.622 0 2.468-1.65 4.96-6.62 4.96-7.44 0-25.63 1.649-37.2 3.309-24.81 3.301-29.77 21.496-32.26 45.481-4.13 34.726-4.13 100.05-4.13 179.44v19.849c0 4.12 1.65 6.61 5.79 6.61l101.71-1.65c4.96 0 7.44-1.66 10.75-4.96 16.55-21.501 55.4-76.908 90.13-122.39 47.14-62.016 76.08-102.54 111.64-121.55 21.5-11.582 42.17-15.723 88.48-15.723h58.71c14.89 0 19.84 1.649 19.84 6.622 0 2.468-3.3 4.96-7.44 4.96-4.96 0-16.54 0-32.25 2.489-20.67 3.301-56.23 12.402-100.88 59.523-47.96 51.27-104.19 124.87-172.01 211.7 74.44 68.63 100.06 129.82 100.06 191.02 0 57.05-36.37 97.57-57.05 112.46-43.83 31.41-99.23 36.38-151.33 36.38-25.62 0-88.47-2.48-97.56-2.48-4.15 0-56.25 2.48-93.45 2.48-9.1 0-13.23-1.65-13.23-6.62 0-3.31 3.31-4.96 6.61-4.96 7.45 0 21.5-0.82 28.11-2.48 27.3-5.78 33.91-19.02 35.56-47.13 1.65-26.46 1.65-49.61 1.65-178.62v-145.53" fill-rule="evenodd"/>
    <path d="m5310.3 1362.6c-1.65 15.71-4.12 22.32-9.91 22.32s-9.1-5.79-12.41-13.23l-243.12-519.3-253.03 520.12c-4.12 9.1-7.44 12.41-12.4 12.41s-7.45-5.79-9.1-14.89l-59.53-539.15c-3.31-31.418-5.79-63.672-33.08-68.625-12.41-2.489-18.2-2.489-24.81-2.489-4.14 0-8.26-1.652-8.26-4.14 0-5.793 5.79-7.442 14.05-7.442 22.32 0 62.01 2.489 69.47 2.489 6.61 0 46.3-2.489 76.9-2.489 9.91 0 14.87 1.649 14.87 7.442 0 2.488-3.3 4.14-6.61 4.14-4.96 0-17.36 0.821-31.41 4.141-12.41 2.469-21.51 13.223-21.51 25.625 0 14.051 0 28.945 0.82 42.176l33.09 383.69h3.3c9.1-22.32 101.72-220.79 109.16-235.67 4.13-8.27 75.23-151.32 96.74-191.84 15.72-29.766 19.85-38.047 25.64-38.047 7.44 0 9.91 7.441 27.29 43.84l202.59 430h2.48l39.69-426.7c1.65-14.883 0.83-28.946-3.31-29.766-4.12-0.832-5.79-2.481-5.79-5.793 0-4.141 4.14-6.609 23.16-8.262 30.59-2.48 119.91-4.969 138.1-4.969 9.91 0 17.35 2.489 17.35 7.442 0 3.308-2.47 4.14-6.61 4.14-8.26 0-29.76 0-53.75 7.442-35.55 11.57-41.34 57.879-44.65 87.66l-55.41 507.73"/>
    <path d="m5519.2 987.96c0-79.387 0-144.72-4.12-179.44-3.31-23.985-7.45-42.18-23.99-45.481-7.44-1.66-17.36-3.309-24.81-3.309-4.96 0-6.61-2.492-6.61-4.96 0-4.973 4.13-6.622 13.22-6.622 24.81 0 76.91 2.489 81.05 2.489 23.97 0 79.38-4.961 204.25-4.961 32.24 0 38.86 0 44.64 21.496 4.15 17.363 10.76 73.594 10.76 80.215 0 5.781 0 12.402-4.96 12.402-4.14 0-5.8-3.305-7.45-12.402-5.79-33.907-15.71-50.449-37.2-59.543-21.51-9.102-57.88-9.102-79.39-9.102-81.04 0-93.44 10.754-95.93 67.813-0.82 17.359 0 113.29 0 141.41v72.769c0 3.3 1.67 5.79 5.8 5.79 14.05 0 95.91-1.65 118.25-4.14 32.25-3.31 39.7-17.36 43-28.94 3.31-10.76 3.31-19.02 3.31-27.28 0-4.14 1.65-7.449 5.79-7.449 5.78 0 5.78 9.099 5.78 15.709 0 5.79 1.65 36.39 3.3 52.92 2.49 27.29 6.62 41.34 6.62 46.3 0 4.98-1.65 6.63-4.13 6.63-3.31 0-6.61-4.14-12.4-10.75-7.45-8.28-19.02-9.93-38.87-11.58-19.01-1.66-120.72-1.66-131.47-1.66-4.15 0-4.98 2.49-4.98 8.27v228.23c0 5.79 1.67 8.27 4.98 8.27 9.09 0 99.21-0.83 113.28-2.48 44.65-4.96 52.92-14.89 58.71-28.11 4.14-9.93 4.96-23.99 4.96-29.77 0-6.62 1.65-10.74 6.62-10.74 3.3 0 4.96 4.95 5.78 9.09 1.65 9.92 3.32 46.3 4.14 54.57 2.48 23.16 6.6 33.07 6.6 38.86 0 4.14-0.81 7.45-3.3 7.45-4.12 0-7.44-3.31-11.57-4.14-6.62-1.65-19.84-3.31-35.56-4.13-19.02-0.83-183.57-0.83-189.36-0.83-4.14 0-56.24 2.48-93.45 2.48-9.1 0-13.22-1.65-13.22-6.62 0-3.31 3.31-4.96 6.61-4.96 7.44 0 21.5-0.82 28.11-2.48 27.3-5.78 33.91-19.02 35.56-47.13 1.65-26.46 1.65-49.61 1.65-178.62v-145.53"/>
    <path d="m5986.9 1332.4c0 4.95 2.49 8.26 6.63 9.91 8.26 2.49 30.58 4.97 55.39 4.97 88.48 0 143.05-62.02 143.05-165.39 0-62.83-21.5-107.49-50.43-127.34-19.03-13.23-42.18-15.7-62.03-15.7-36.37 0-74.42 5.77-86.82 13.21-4.13 2.49-5.79 5.8-5.79 9.94zm350.14-514.31c-47.96 51.266-107.86 128.96-175.66 215.79 74.43 68.63 100.06 129.82 100.06 191.01 0 57.06-36.38 97.57-57.06 112.46-43.82 31.42-99.23 36.39-151.32 36.39-25.64 0-88.48-2.48-97.58-2.48-4.13 0-56.23 2.48-93.45 2.48-9.09 0-13.22-1.65-13.22-6.62 0-3.31 3.31-4.96 6.61-4.96 7.45 0 21.51-0.82 28.12-2.48 27.29-5.78 33.89-19.02 35.55-47.13 1.65-26.46 1.65-49.62 1.65-178.62v-145.53c0-79.391 0-144.71-4.12-179.44-3.31-23.984-7.45-42.179-23.99-45.488-7.44-1.652-17.35-3.301-24.81-3.301-4.95 0-6.61-2.492-6.61-4.961 0-4.972 4.13-6.621 13.23-6.621 24.81 0 76.91 2.481 77.74 2.481 4.12 0 56.22-2.481 101.71-2.481 9.1 0 13.22 2.481 13.22 6.621 0 2.469-1.65 4.961-6.61 4.961-7.44 0-25.64 1.649-37.21 3.301-24.81 3.309-29.76 21.504-32.25 45.488-4.14 34.727-4.14 100.05-4.14 179.44v19.843c0 4.13 1.66 6.62 5.79 6.62l101.72-1.65c4.95 0 7.44-1.66 10.74-4.97 16.55-21.492 55.41-76.898 90.14-122.39 47.13-62.012 87.98-109.45 123.54-128.46 21.66-13 63.19-29.602 111.67-31.543 44.62-1.789 114.29 12.703 149.55 37.918 51.41 36.75 76.23 87.301 78.7 135.78 3.37 66.07-35.91 126.15-147.82 203.78l-23.15 18.2c-77.73 63.67-100.88 91.79-100.88 138.92 0 60.36 44.64 95.92 101.71 95.92 76.07 0 98.39-34.73 103.36-43.82 4.97-9.1 9.92-31.42 10.75-41.35 0.82-6.61 1.66-10.75 6.61-10.75 4.14 0 5.8 5.79 5.8 19.02 0 56.23 3.3 83.53 3.3 87.65 0 4.14-1.65 5.79-8.28 5.79-6.61 0-13.21 0.83-28.93 4.14-20.68 4.96-44.66 8.26-76.9 8.26-105.02 0-171.17-60.36-171.17-148.83 0-56.24 19.84-107.51 107.5-179.45l37.2-30.6c71.12-58.713 121.97-95.381 120.73-151.85-1.18-53.75-74.78-108.71-141.39-106.04-40.67 1.629-91.16 14.051-120.15 49.539" fill-rule="evenodd"/>
    <path d="m1934 1340.3c0 4.96 2.49 8.26 6.63 9.92 8.26 2.48 30.58 4.96 55.39 4.96 88.49 0 143.06-62.02 143.06-165.38 0-62.84-21.5-107.49-50.44-127.34-19.02-13.24-42.18-15.71-62.03-15.71-36.37 0-74.41 5.78-86.82 13.22-4.14 2.49-5.79 5.79-5.79 9.93zm350.14-514.3c-47.96 51.262-107.85 128.96-175.66 215.78 74.43 68.64 100.06 129.82 100.06 191.02 0 57.06-36.38 97.57-57.06 112.46-43.82 31.42-99.23 36.39-151.33 36.39-25.62 0-88.47-2.49-97.57-2.49-4.14 0-56.23 2.49-93.44 2.49-9.1 0-13.23-1.65-13.23-6.63 0-3.3 3.31-4.95 6.62-4.95 7.44 0 21.5-0.82 28.11-2.49 27.29-5.78 33.9-19.02 35.55-47.12 1.65-26.47 1.65-49.62 1.65-178.63v-145.52c0-79.394 0-144.71-4.12-179.44-3.31-23.984-7.44-42.18-23.99-45.488-7.44-1.653-17.35-3.301-24.8-3.301-4.96 0-6.61-2.492-6.61-4.961 0-4.973 4.12-6.633 13.22-6.633 24.81 0 76.9 2.492 77.73 2.492 4.13 0 56.23-2.492 101.72-2.492 9.1 0 13.22 2.492 13.22 6.633 0 2.469-1.65 4.961-6.61 4.961-7.45 0-25.64 1.648-37.21 3.301-24.81 3.308-29.76 21.504-32.25 45.488-4.14 34.723-4.14 100.04-4.14 179.44v19.844c0 4.13 1.65 6.62 5.79 6.62l101.72-1.66c4.95 0 7.44-1.66 10.74-4.96 16.55-21.5 55.41-76.902 90.14-122.39 47.13-62.02 87.99-109.44 123.54-128.45 21.66-13 63.19-29.601 111.67-31.543 44.62-1.796 114.28 12.696 149.56 37.911 51.4 36.757 76.22 87.304 78.69 135.78 3.37 66.066-35.91 126.14-147.83 203.78l-23.14 18.19c-77.73 63.67-100.88 91.8-100.88 138.92 0 60.36 44.65 95.93 101.71 95.93 76.07 0 98.39-34.73 103.36-43.82 4.96-9.1 9.92-31.42 10.75-41.36 0.82-6.61 1.65-10.75 6.61-10.75 4.14 0 5.79 5.79 5.79 19.03 0 56.23 3.31 83.52 3.31 87.64 0 4.14-1.66 5.8-8.28 5.8-6.61 0-13.22 0.83-28.93 4.14-20.68 4.96-44.66 8.26-76.91 8.26-105.01 0-171.16-60.36-171.16-148.84 0-56.23 19.85-107.5 107.5-179.44l37.21-30.61c71.11-58.707 121.96-95.375 120.72-151.84-1.17-53.754-74.78-108.7-141.4-106.03-40.66 1.629-91.15 14.051-120.14 49.539" fill-rule="evenodd"/>
    <path d="m0 0.69141v348.92c23.805 0 46.785-0.39 69.742 0.11 24.164 0.531 48.496 0.332 72.43 3.203 66.281 7.957 101.52 46.621 104.54 115.98 1.84 42.129 0.332 84.415 0.332 126.63 4e-3 66.934 0.344 133.87-0.238 200.8-0.129 14.266-2.539 28.738-5.715 42.703-10.449 45.988-35.176 66.699-82.774 67.207-34.964 0.371-69.957-2.25-104.94-3.269-45.988-1.344-46.773-1.243-47.359 44.261-0.875 67.946-0.30078 135.92-0.90625 203.88-0.09766 10.93 3.9141 13.84 14.133 14.56 44.898 3.15 88.727 11.98 130.74 28.38 85.586 33.4 140.79 94.37 163.72 183.54 2.985 11.6 7.274 15.68 19.457 15.64 135.51-0.42 271.02-0.41 406.54-0.03 12.539 0.03 16.66-3.22 16.641-16.34-0.387-235.48-0.09-470.95-0.422-706.42-0.078-55.066-2.652-110.12-2.57-165.18 0.027-20.949 2.738-42.207 6.906-62.785 12.766-62.961 54.055-98.633 120-102.12 43.633-2.313 87.445-1.614 131.18-1.43 11.96 0.047 16.01-3.402 15.96-15.723-0.42-102.53-0.23-205.07-0.29-307.6 0-4.4805-0.7-8.961-1.2-14.91h-16c-122.11 0-387-1.5625-395.7 0 5.309 31.09 25.438 57.609 42.11 79.277 19.765 25.691 40.445 50.793 58.539 77.621 30.207 44.808 47.203 94.289 38.804 148.88-3.707 24.07-12.074 47.761-20.847 70.66-14.93 38.949-31.399 77.258-31.043 124.5-7.914-5.91-12.973-9.68-20.235-15.098v48.309c-1.613 0.684-3.23 1.367-4.847 2.043-4.391-4.914-9.922-9.199-12.985-14.836-23.058-42.422-44.812-85.574-68.558-127.6-33.496-59.297-35.348-122.33-26.035-187.41 5.898-41.242 11.125-82.601 15.343-124.05 1.981-19.512 0.911-39.34-20.168-55.539-5.093 12.41-11.707 22.98-13.64 34.348-4.379 25.789-9.434 52.031-8.871 77.981 1.394 64.289 5.023 128.56 9.176 192.75 4.41 68.156 29.226 130.83 52.457 194.27 20.269 55.344 38.316 112.03 50.89 169.53 18.578 84.961 3.106 167.94-28.668 247.88-12.906 32.477-27.773 64.187-42.133 96.067-30.625 68.02-58.105 136.66-45.718 215.64-28.727-7.55-29.254-33.02-37.907-53.73-15.41 24.24-8.168 58.03-38.644 78.33 0-28.75 1.441-53.86-0.285-78.75-4.219-60.77-26.086-116.95-46.149-173.77-17.058-48.338-35.664-97.146-44-147.34-20.722-124.78 2.715-243.63 61.574-355.55 25.848-49.161 55.047-97.59 62.008-153.7 5.106-41.16 5.481-83.128 5.121-124.71-0.484-55.062-3.187-110.11-6.078-165.11-1.258-23.863-7.902-46.512-25.769-63.941-18.625 7.6602-25.449 21.469-22.004 45.828 4.105 29.031 9.109 57.941 13.39 86.953 8.352 56.5 18.922 112.86 13.946 170.42-5.489 63.441-22.531 123.25-57.43 177.2-1.676 2.598-3.301 5.234-5.101 7.734-26.485 36.848-50.04 74.786-44.821 123.69-1.57 0.578-3.148 1.144-4.722 1.719-6.528-7.852-13.055-15.711-19.883-23.926-6.387 12.98-12.5 25.41-19.926 40.519-16.207-77.179-36.852-149.65-45.66-223.54-13.012-109.16 21.344-208.38 82.996-298.37 12.219-17.832 26.687-34.242 37.726-52.73 7.407-12.41 13.032-26.992 15.071-41.23 1.074-7.5313 0-31.219 0-31.219s-280.99-0.12109-407.22 0c-0.93359 0-1.8594-0.76953-4 0"/>
   </g>
  </g>
 </g>
</svg>
